<?xml version="1.0" standalone="no"?>
<!DOCTYPE svg PUBLIC "-//W3C//DTD SVG 1.1//EN" "http://www.w3.org/Graphics/SVG/1.1/DTD/svg11.dtd" >
<svg xmlns="http://www.w3.org/2000/svg" xmlns:xlink="http://www.w3.org/1999/xlink" version="1.1">
<metadata>
Created by FontForge 20201107 at Tue Feb 11 16:23:32 2025
 By 
Copyright (c) 2022 by beetype. All rights reserved.
</metadata>
<defs>
<font id="NeueLeiden-Light" horiz-adv-x="0" >
  <font-face 
    font-family="Neue Leiden Light"
    font-weight="300"
    font-stretch="normal"
    units-per-em="2048"
    panose-1="0 0 0 0 0 0 0 0 0 0"
    ascent="1638"
    descent="-410"
    x-height="1038"
    cap-height="1352"
    bbox="37 -563.522 3289 1925"
    underline-thickness="102"
    underline-position="-255"
    unicode-range="U+0020-FB02"
  />
<missing-glyph horiz-adv-x="1372" 
d="M348 211q-60 0 -123 24t-110 74t-47 113q0 126 154 232t384 132l19 2q-15 17 -27 46t-12 49q0 49 37 86q10 10 10 14q0 8 -8 16q-16 21 -78 93q-13 17 3 32q17 16 34 -3q2 -2 4 -5q46 -73 61 -100q8 -14 13 -16.5t18 -0.5q28 8 55 0q14 -4 24 11q2 2 3 4l65 104
q9 12 21 10t15.5 -12.5t-3.5 -23.5l-35 -45l-39 -54q-6 -7 7 -20q41 -47 41 -92q0 -37 -37 -97q134 -20 250.5 -73t188 -128t71.5 -153q0 -58 -48.5 -106.5t-111.5 -72.5t-119 -24q-85 0 -167 57.5t-132 149.5l-33 60l-37 -66q-49 -87 -131 -152t-180 -65zM121 424
q0 -66 75 -113t152 -47q152 0 266 195q3 5 12.5 21.5t17 28.5t17 25.5t18.5 21t17 7.5q14 0 27.5 -15.5t30.5 -47.5t22 -39q116 -178 252 -178q70 0 148 45.5t75 103.5q-3 55 -46 105.5t-107 85.5t-139 61.5t-143.5 39.5t-119.5 13q-85 0 -184 -23.5t-187 -63t-146 -100
t-58 -126.5z" />
    <glyph glyph-name="fi" unicode="fi" horiz-adv-x="1038" 
d="M188 0v758h-120v110h120v375q0 65 16.5 87t78.5 22h630v-109h-608v-375h486q56 0 67.5 -20.5t11.5 -87.5v-651h103v-109h-117q-22 0 -37.5 2.5t-26.5 4.5t-18 11t-10.5 14t-5.5 21t-2 24v32v649h-451v-758h-117z" />
    <glyph glyph-name="fl" unicode="fl" horiz-adv-x="1044" 
d="M188 0v758h-120v110h120v375q0 65 16.5 87t78.5 22h594v-1243h102v-109h-125q-62 0 -77 21.5t-15 87.5v1134h-457v-375h219v-110h-219v-758h-117z" />
    <glyph glyph-name="TT" unicode="TT" horiz-adv-x="1484" 
d="M479 0v1243h-411v109h1349v-109h-411v-1243h-115v1243h-297v-1243h-115z" />
    <glyph glyph-name="ff" unicode="ff" horiz-adv-x="1269" 
d="M188 0v758h-120v110h120v375q0 65 16.5 87t78.5 22h335v-109h-313v-375h420v375q0 66 15 87.5t77 21.5h385v-109h-360v-375h262v-110h-262l-2 -758h-117l2 758h-420v-758h-117z" />
    <glyph glyph-name="ffj" unicode="ffj" horiz-adv-x="1282" 
d="M188 0v758h-120v110h120v375q0 65 16.5 87t78.5 22h335v-109h-313v-375h379v375q0 66 15 87.5t77 21.5h385v-109h-360v-375h416v-1214q0 -29 -1 -42.5t-5.5 -29.5t-15.5 -22t-30 -10.5t-49 -4.5h-377v109h361v1104h-299l-2 -758h-117l2 758h-379v-758h-117z" />
    <glyph glyph-name="ffl" unicode="ffl" horiz-adv-x="1404" 
d="M188 0v758h-120v110h120v375q0 65 16.5 87t78.5 22h335v-109h-313v-375h379v375q0 66 15 87.5t77 21.5h461v-1243h100v-109h-123q-62 0 -78 22t-16 87v1134h-319v-375h235v-110h-235l-2 -758h-117l2 758h-379v-758h-117z" />
    <glyph glyph-name="fj" unicode="fj" horiz-adv-x="743" 
d="M68 1243q0 65 16 87t78 22h514v-109h-492v-375h492v-1214q0 -26 -0.5 -36.5t-3 -26.5t-8.5 -22t-17.5 -13t-28.5 -9t-43 -2h-376v109h360v1104h-375v-758h-116v1243z" />
    <glyph glyph-name="ft" unicode="ft" horiz-adv-x="1275" 
d="M188 0v758h-120v110h120v375q0 65 16.5 87t78.5 22h530v-484h229v-110h-229v-649h395v-109h-417q-62 0 -77.5 22t-15.5 87v649h-393v-758h-117zM305 868h393v375h-393v-375z" />
    <glyph glyph-name="ti" unicode="ti" horiz-adv-x="1062" 
d="M303 0q-62 0 -77 21.5t-15 87.5v821h-143v108h143v314h115v-314h489q55 0 67.5 -20.5t12.5 -87.5v-821h100v-109h-116q-30 0 -49 4.5t-30 10.5t-15.5 22t-5.5 29.5t-1 42.5v821h-452v-821h280v-109h-303z" />
    <glyph glyph-name="tj" unicode="tj" horiz-adv-x="890" 
d="M303 0q-62 0 -77 21.5t-15 87.5v821h-143v108h143v314h115v-314h499v-1212q0 -26 -0.5 -37.5t-3.5 -27.5t-8.5 -22t-17 -13t-28.5 -9t-42 -2h-377v111h361v1104h-383v-821h280v-109h-303z" />
    <glyph glyph-name="tt" unicode="tt" horiz-adv-x="1095" 
d="M303 0q-62 0 -77 21.5t-15 87.5v821h-143v108h143v314h115v-314h301v314h116v-314h230v-108h-230v-821h285v-109h-307q-62 0 -78 22t-16 87v821h-301v-821h245v-109h-268z" />
    <glyph glyph-name=".notdef" horiz-adv-x="1372" 
d="M348 211q-60 0 -123 24t-110 74t-47 113q0 126 154 232t384 132l19 2q-15 17 -27 46t-12 49q0 49 37 86q10 10 10 14q0 8 -8 16q-16 21 -78 93q-13 17 3 32q17 16 34 -3q2 -2 4 -5q46 -73 61 -100q8 -14 13 -16.5t18 -0.5q28 8 55 0q14 -4 24 11q2 2 3 4l65 104
q9 12 21 10t15.5 -12.5t-3.5 -23.5l-35 -45l-39 -54q-6 -7 7 -20q41 -47 41 -92q0 -37 -37 -97q134 -20 250.5 -73t188 -128t71.5 -153q0 -58 -48.5 -106.5t-111.5 -72.5t-119 -24q-85 0 -167 57.5t-132 149.5l-33 60l-37 -66q-49 -87 -131 -152t-180 -65zM121 424
q0 -66 75 -113t152 -47q152 0 266 195q3 5 12.5 21.5t17 28.5t17 25.5t18.5 21t17 7.5q14 0 27.5 -15.5t30.5 -47.5t22 -39q116 -178 252 -178q70 0 148 45.5t75 103.5q-3 55 -46 105.5t-107 85.5t-139 61.5t-143.5 39.5t-119.5 13q-85 0 -184 -23.5t-187 -63t-146 -100
t-58 -126.5z" />
    <glyph glyph-name=".null" 
 />
    <glyph glyph-name="nonmarkingreturn" horiz-adv-x="682" 
 />
    <glyph glyph-name="space" unicode=" " horiz-adv-x="927" 
 />
    <glyph glyph-name="space" unicode="&#xa0;" horiz-adv-x="927" 
 />
    <glyph glyph-name="exclam" unicode="!" horiz-adv-x="346" 
d="M111 322v1030h116v-1030h-116zM68 94q0 41 28 67.5t74 26.5q51 0 80 -26.5t29 -67.5q0 -39 -30.5 -66.5t-78.5 -27.5q-46 0 -74 27t-28 67z" />
    <glyph glyph-name="quotedbl" unicode="&#x22;" horiz-adv-x="497" 
d="M172 864l-109 488h111l109 -488h-111zM211 1352h111l108 -488h-111z" />
    <glyph glyph-name="numbersign" unicode="#" horiz-adv-x="1409" 
d="M156 0l219 518h-307l41 111h311l67 157h-309l39 105h315l193 461h117l-195 -461h158l194 461h115l-194 -461h421l-43 -105h-421l-68 -157h424l-45 -111h-424l-219 -518h-115l219 518h-157l-220 -518h-116zM537 629h157l66 157h-156z" />
    <glyph glyph-name="dollar" unicode="$" horiz-adv-x="1093" 
d="M881 983q-38 140 -125 210.5t-258 70.5q-148 0 -232 -59t-84 -187q0 -35 9.5 -65.5t23 -52t39 -42t46.5 -33t57 -27t59.5 -22t65.5 -21t63 -20.5q27 -10 75.5 -25t82 -25.5t79 -29t77 -36.5t65.5 -46.5t54.5 -60.5t34 -76.5t13.5 -97.5q0 -89 -34.5 -158.5t-93 -111
t-129 -64t-148.5 -24.5v-119h-97v129q-317 40 -407 379h116q39 -145 130 -210.5t245 -70.5q57 -2 109.5 12t96 43t69.5 79t26 116q0 35 -10.5 65t-26.5 52.5t-42.5 42t-51.5 32.5t-61.5 27t-63.5 22.5t-67 21t-64 20.5q-25 9 -73.5 24.5t-78.5 26t-74.5 29.5t-72.5 36.5
t-60.5 46.5t-51 61t-31 76.5t-12.5 96.5q0 88 29.5 154.5t83 107.5t122 63t154.5 27v117h96v-117q362 -24 446 -387h-118z" />
    <glyph glyph-name="percent" unicode="%" horiz-adv-x="2375" 
d="M535 219q-89 0 -171.5 37t-149 106.5t-106.5 182.5t-40 252q0 138 40 250t106.5 181t149 105.5t171.5 36.5q95 0 180 -36.5t152 -105.5t106 -180.5t39 -250.5q0 -140 -39 -252t-105.5 -182t-151.5 -107t-181 -37zM162 797q0 -122 31 -217.5t84.5 -153.5t119 -87.5
t138.5 -29.5q167 0 275 124t108 364q0 237 -108 360t-275 123q-73 0 -138.5 -29.5t-119 -87t-84.5 -152t-31 -214.5zM846 -2l569 1352h115l-569 -1352h-115zM1364 567q0 138 40 250t106.5 181.5t149 106t171.5 36.5q95 0 180 -36.5t152 -106t106 -181t39 -250.5
q0 -140 -39 -252t-105.5 -181.5t-151.5 -106.5t-181 -37q-89 0 -171.5 37t-149 106.5t-106.5 182t-40 251.5zM1458 567q0 -122 31 -217.5t83.5 -153t118.5 -87t140 -29.5q79 0 147.5 29.5t121.5 87.5t83.5 153t30.5 217q0 121 -30.5 215t-83.5 152t-121.5 87.5t-147.5 29.5
q-74 0 -140 -29.5t-118.5 -87t-83.5 -152.5t-31 -215z" />
    <glyph glyph-name="ampersand" unicode="&#x26;" horiz-adv-x="1376" 
d="M502 -20q-187 0 -306.5 111t-119.5 278q0 154 101.5 255.5t250.5 112.5q-2 2 -11 10t-20.5 19.5t-23.5 24.5q-133 133 -133 266q0 137 107 226t269 89q208 0 324.5 -126t114.5 -347h-115q-3 181 -87 280t-235 101q-111 0 -186.5 -66.5t-75.5 -164.5q0 -74 40.5 -136
t133.5 -151l793 -762h-143l-318 295q-12 -140 -114.5 -227.5t-245.5 -87.5zM186 371q0 -121 93.5 -208t224.5 -87q120 0 207 86t80 219l-295 285q-131 -2 -220.5 -85t-89.5 -210z" />
    <glyph glyph-name="quotesingle" unicode="'" horiz-adv-x="354" 
d="M176 864l-108 488h110l109 -488h-111z" />
    <glyph glyph-name="parenleft" unicode="(" horiz-adv-x="765" 
d="M698 -84q-102 1 -193 28t-172 86t-139 145.5t-92 214.5t-34 286q0 157 34 284.5t92 213t139 144t172 85t193 27.5v-115q-116 -2 -209 -40t-164.5 -113t-110 -198.5t-38.5 -287.5q0 -166 38.5 -291t110 -200.5t164.5 -113.5t209 -40v-115z" />
    <glyph glyph-name="parenright" unicode=")" horiz-adv-x="765" 
d="M68 31q116 2 209 40t164.5 113.5t110 200.5t38.5 291q0 164 -38.5 287.5t-110 198.5t-164.5 113t-209 40v115q102 -1 193 -27.5t172 -85t139 -144t92 -213t34 -284.5q0 -158 -34 -286t-92 -214.5t-139 -145.5t-172 -86t-193 -28v115z" />
    <glyph glyph-name="asterisk" unicode="*" horiz-adv-x="937" 
d="M420 541v290l-205 -206l-68 69l215 215h-294v97h290l-198 198l67 70l191 -193v271h98v-287l203 205l69 -72l-194 -192h278v-97h-282l207 -207l-68 -67l-213 213v-307h-96z" />
    <glyph glyph-name="plus" unicode="+" horiz-adv-x="884" 
d="M387 211v362h-319v109h317v340h111v-340h321v-109h-321v-362h-109z" />
    <glyph glyph-name="comma" unicode="," horiz-adv-x="327" 
d="M68 -199l84 361h108l-84 -361h-108z" />
    <glyph glyph-name="hyphen" unicode="-" horiz-adv-x="872" 
d="M68 444v109h737v-109h-737z" />
    <glyph glyph-name="period" unicode="." horiz-adv-x="346" 
d="M174 0q-46 0 -76 29.5t-30 70.5q0 42 30 71.5t76 29.5q45 0 76 -29.5t31 -71.5q0 -40 -31 -70t-76 -30z" />
    <glyph glyph-name="slash" unicode="/" horiz-adv-x="819" 
d="M68 0l569 1352h115l-570 -1352h-114z" />
    <glyph glyph-name="zero" unicode="0" horiz-adv-x="1277" 
d="M633 -20q-86 0 -167.5 27.5t-153.5 85t-126.5 138.5t-86 196.5t-31.5 250.5t31.5 250t86 195.5t126.5 137.5t153.5 84t167.5 27q92 0 176.5 -27t157.5 -83.5t127 -137.5t85 -195.5t31 -250.5q0 -169 -47 -304.5t-127.5 -220t-183.5 -129t-219 -44.5zM182 678
q0 -147 37.5 -262.5t101.5 -185.5t143.5 -106t168.5 -36q97 0 179 36t146.5 106t101 185t36.5 263q0 147 -36.5 261t-101 184t-146.5 105.5t-179 35.5q-71 0 -136 -22t-122.5 -69t-100 -114.5t-67.5 -165.5t-25 -215z" />
    <glyph glyph-name="one" unicode="1" horiz-adv-x="630" 
d="M68 0v109h192v1134h-154v109h271v-1243h186v-109h-495z" />
    <glyph glyph-name="two" unicode="2" horiz-adv-x="1067" 
d="M162 233q9 77 32 135t56 98t86 70.5t110 50t140 40.5q143 36 221 106t78 185q0 168 -99 256t-270 88q-150 0 -240 -95t-94 -260h-114q-1 211 126 338t322 127q214 0 348.5 -116.5t134.5 -337.5q0 -72 -21.5 -131.5t-58 -101.5t-89.5 -76t-109 -55.5t-125 -37.5
q-82 -20 -130 -38.5t-90 -49.5t-64 -77.5t-33 -117.5l-17 -124h713v-109h-840z" />
    <glyph glyph-name="three" unicode="3" horiz-adv-x="1110" 
d="M614 868q64 -8 123 -26t116 -53t98.5 -82.5t67 -118t25.5 -156.5q0 -205 -130.5 -328.5t-356.5 -123.5q-203 0 -340.5 138.5t-148.5 338.5h114q25 -176 123.5 -272.5t251.5 -96.5q182 0 276.5 87.5t94.5 256.5q0 83 -30 145t-75 97t-111 56t-125.5 27.5t-131.5 6.5v96
l350 387h-694v109l864 -4v-90z" />
    <glyph glyph-name="four" unicode="4" horiz-adv-x="1150" 
d="M68 444l594 908h108v-883h313v-115h-313v-354h-117v354l-585 2v88zM221 469h432v664z" />
    <glyph glyph-name="five" unicode="5" horiz-adv-x="1122" 
d="M68 653l116 699h740v-109h-641l-66 -389q104 201 363 201q218 0 346.5 -145.5t128.5 -383.5q0 -150 -60 -273.5t-174 -198t-260 -74.5q-188 0 -316 119.5t-157 299.5h121q31 -140 123.5 -221.5t228.5 -81.5q170 0 274.5 120.5t104.5 309.5q0 198 -98.5 308t-282.5 110
q-307 0 -354 -291h-137z" />
    <glyph glyph-name="six" unicode="6" horiz-adv-x="1114" 
d="M895 1030q-33 112 -125.5 173t-216.5 61q-183 0 -276 -112t-93 -323v-94q98 250 387 250q217 0 346.5 -131.5t129.5 -355.5q0 -229 -136 -373.5t-360 -144.5q-220 0 -351.5 144t-131.5 374v327q0 260 125.5 403.5t357.5 143.5q187 0 307.5 -92.5t165.5 -249.5h-129z
M184 492q0 -184 98 -290t269 -106q174 0 277.5 108.5t103.5 287.5q0 186 -97.5 287.5t-283.5 101.5q-177 0 -272 -109.5t-95 -279.5z" />
    <glyph glyph-name="seven" unicode="7" horiz-adv-x="925" 
d="M858 1255l-416 -1255h-116l415 1243h-673v109h790v-97z" />
    <glyph glyph-name="eight" unicode="8" horiz-adv-x="1036" 
d="M512 -20q-218 0 -331 103.5t-113 278.5q-1 127 58.5 214.5t162.5 125.5q-221 75 -221 306q0 171 115.5 267.5t328.5 96.5q209 0 333 -97.5t124 -266.5q0 -114 -60.5 -194t-173.5 -112q234 -86 234 -340q0 -173 -119 -277.5t-338 -104.5zM182 362q0 -131 81 -202.5
t249 -71.5q169 0 254.5 72.5t85.5 201.5q0 142 -84.5 216.5t-255.5 74.5q-165 0 -247.5 -75.5t-82.5 -215.5zM182 1008q0 -119 81 -185.5t249 -66.5q170 0 255 67t85 185q0 120 -85.5 188t-254.5 68q-164 0 -247 -67.5t-83 -188.5z" />
    <glyph glyph-name="nine" unicode="9" horiz-adv-x="1114" 
d="M219 319q33 -112 125.5 -172.5t216.5 -60.5q183 0 276 111.5t93 322.5v94q-98 -249 -387 -249q-216 0 -345.5 131t-129.5 356q0 229 135.5 373.5t359.5 144.5q220 0 352 -144t132 -374v-328q0 -259 -126 -403t-358 -144q-187 0 -307.5 92.5t-165.5 249.5h129zM182 858
q0 -186 97.5 -287.5t283.5 -101.5q177 0 272 109.5t95 279.5q0 183 -98 289t-269 106q-174 0 -277.5 -108t-103.5 -287z" />
    <glyph glyph-name="colon" unicode=":" horiz-adv-x="348" 
d="M176 147q-46 0 -76 30t-30 71q0 42 30 71t76 29q45 0 76 -29t31 -71q0 -41 -31 -71t-76 -30zM68 967q0 42 30 71t76 29q45 0 76 -29t31 -71q0 -41 -31 -71t-76 -30q-46 0 -76 30t-30 71z" />
    <glyph glyph-name="semicolon" unicode=";" horiz-adv-x="393" 
d="M221 866q-46 0 -76 30t-30 71q0 42 30 71t76 29q45 0 76 -29t31 -71q0 -41 -31 -71t-76 -30zM68 -131l84 360h108l-84 -360h-108z" />
    <glyph glyph-name="less" unicode="&#x3c;" horiz-adv-x="759" 
d="M539 135l-471 432l493 428h133l-493 -428l469 -432h-131z" />
    <glyph glyph-name="equal" unicode="=" horiz-adv-x="819" 
d="M68 666v110h684v-110h-684zM68 436v109h684v-109h-684z" />
    <glyph glyph-name="greater" unicode="&#x3e;" horiz-adv-x="761" 
d="M92 135l467 432l-491 428h133l493 -428l-471 -432h-131z" />
    <glyph glyph-name="question" unicode="?" horiz-adv-x="1073" 
d="M102 338q0 53 11.5 97.5t27 76.5t46.5 61t54.5 46t68 37t69.5 29t76.5 26t72.5 24t63 20.5t65.5 21t59.5 22t57 27t46.5 33t39 42t23 52t9.5 65.5q0 128 -84 187t-232 59q-176 0 -265 -71.5t-117 -209.5h-119q67 389 501 389q93 0 170 -20t137 -61.5t93 -110.5t33 -162
q0 -47 -9 -87t-27.5 -71.5t-39.5 -57t-52.5 -46t-59 -36t-66.5 -30.5t-67.5 -24.5t-69 -22.5t-64.5 -22q-17 -6 -49 -16.5t-49.5 -16.5t-46 -17t-45 -19t-39.5 -21.5t-36 -26t-28 -30.5t-22.5 -38t-13 -45t-5.5 -53v-92h-117v92zM74 80q0 34 25.5 59t66.5 25t66.5 -25
t25.5 -59q0 -35 -25.5 -60.5t-66.5 -25.5t-66.5 25.5t-25.5 60.5z" />
    <glyph glyph-name="at" unicode="@" horiz-adv-x="1286" 
d="M637 127q-116 0 -218.5 43t-181 122t-124 201t-45.5 271t46 266.5t125 191t181.5 112t220.5 38.5q119 0 223 -37.5t184 -109.5t126.5 -188.5t46.5 -264.5q-2 -194 -56.5 -295.5t-160.5 -101.5q-67 0 -106 47.5t-44 122.5q-37 -78 -100.5 -119t-147.5 -43q-141 -6 -228 90
t-87 260q0 165 86.5 262t228.5 92q82 -2 148 -44.5t100 -116.5v147h78v-471q0 -47 17 -89t57 -42q58 -1 85 73t25 228q0 100 -23.5 182t-66 140t-102.5 97.5t-131 58t-152 18.5q-98 0 -181.5 -31t-147.5 -92t-100 -158.5t-36 -222.5q0 -133 37.5 -236t102.5 -165
t146.5 -93.5t174.5 -31.5v-111zM375 733q0 -128 64.5 -197t166.5 -69q97 0 164.5 70t67.5 196q0 123 -64 197t-168 74q-103 0 -167 -69.5t-64 -201.5z" />
    <glyph glyph-name="A" unicode="A" horiz-adv-x="1396" 
d="M68 0l596 1352h94l573 -1352h-123l-182 422h-647l-191 -422h-120zM428 532h549l-266 650z" />
    <glyph glyph-name="B" unicode="B" horiz-adv-x="1085" 
d="M152 0q-50 0 -67 17t-17 69v1180q0 52 17 69t67 17h376q243 0 363.5 -94.5t120.5 -266.5q0 -114 -65.5 -202.5t-168.5 -114.5q111 -37 175.5 -120t64.5 -192q0 -173 -121.5 -267.5t-368.5 -94.5h-376zM182 109h346q204 0 288.5 67.5t84.5 190.5q0 251 -373 251h-346v-509
zM182 729h346q201 0 284 69.5t83 194.5q0 124 -82 187t-285 63h-346v-514z" />
    <glyph glyph-name="C" unicode="C" horiz-adv-x="1445" 
d="M1378 475q-59 -219 -236 -357t-405 -138q-138 0 -262 52.5t-213.5 142.5t-141.5 216t-52 266q0 143 50.5 272.5t138.5 223.5t213.5 149.5t268.5 55.5q235 0 406 -137t231 -357h-119q-56 180 -197 283.5t-319 103.5q-115 0 -218.5 -44t-179 -121t-119.5 -187.5t-44 -236.5
q0 -123 44 -230.5t118.5 -183t177 -119t217.5 -43.5q190 0 330 106t195 283h116z" />
    <glyph glyph-name="D" unicode="D" horiz-adv-x="1232" 
d="M154 0q-57 0 -71.5 16t-14.5 76v1168q0 60 14.5 76t71.5 16h387q131 0 242 -39t197.5 -117.5t135.5 -208.5t49 -299q0 -170 -49 -303t-134.5 -216t-197.5 -126t-243 -43h-387zM182 109h359q107 0 198 36t161 106t109.5 182t39.5 255q0 119 -26 213.5t-71.5 157.5
t-110.5 105t-139 60.5t-161 18.5h-359v-1134z" />
    <glyph glyph-name="E" unicode="E" horiz-adv-x="1050" 
d="M154 0q-57 0 -71.5 16.5t-14.5 75.5v1168q0 60 14.5 76t71.5 16h831v-109h-803v-514h678v-108h-678v-512h801v-109h-829z" />
    <glyph glyph-name="F" unicode="F" horiz-adv-x="1038" 
d="M68 1260q0 60 14.5 76t71.5 16h817v-109h-789v-514h623v-108h-623v-621h-114v1260z" />
    <glyph glyph-name="G" unicode="G" horiz-adv-x="1464" 
d="M1397 0v109h-90v481q0 66 -19.5 85t-83.5 19h-471v-108h465q0 -128 -43 -227t-116 -156.5t-161 -86t-188 -28.5q-107 0 -198.5 37.5t-161 109t-109 185.5t-39.5 258q0 143 40 256.5t109.5 184.5t161 108t197.5 37q185 0 310 -92.5t165 -272.5h117q-24 102 -69.5 184
t-103 135t-128.5 88.5t-142.5 50.5t-148.5 15q-99 0 -189.5 -26t-169.5 -81.5t-137.5 -136t-92 -195.5t-33.5 -253q0 -169 51 -305t137.5 -221.5t197 -130.5t234.5 -43q178 3 308 82.5t202 228.5v-203q0 -56 15 -72t73 -16h111z" />
    <glyph glyph-name="H" unicode="H" horiz-adv-x="1097" 
d="M68 0v1352h116v-619h731v619h115v-1352h-115v625h-733v-625h-114z" />
    <glyph glyph-name="I" unicode="I" horiz-adv-x="450" 
d="M68 0v109h100v1134h-100v109h315v-109h-100v-1134h100v-109h-315z" />
    <glyph glyph-name="J" unicode="J" horiz-adv-x="770" 
d="M616 1352q57 0 71.5 -16t14.5 -76v-814q0 -129 -30 -216t-93 -137.5t-149 -71.5t-211 -21h-151v109h151q200 0 284.5 78.5t84.5 279.5v776h-226v109h254z" />
    <glyph glyph-name="K" unicode="K" horiz-adv-x="987" 
d="M68 1352h116v-572l578 572h158l-666 -658h563q64 0 83.5 -19.5t19.5 -86.5v-588h-115v584h-619l-4 -584h-114v1352z" />
    <glyph glyph-name="L" unicode="L" horiz-adv-x="878" 
d="M68 119v1233h114v-1243h629v-109h-625q-45 0 -67.5 3.5t-34.5 19t-14 34t-2 62.5z" />
    <glyph glyph-name="M" unicode="M" horiz-adv-x="1325" 
d="M68 0v1352h116l478 -643l489 643h109v-1352h-117v1180l-434 -582h-95l-430 576v-1174h-116z" />
    <glyph glyph-name="N" unicode="N" horiz-adv-x="1171" 
d="M68 0v1352h98l823 -1143v1143h117l-4 -1352h-101l-819 1135v-1135h-114z" />
    <glyph glyph-name="O" unicode="O" horiz-adv-x="1468" 
d="M737 -20q-138 0 -262 52.5t-213.5 142.5t-141.5 216t-52 266q0 143 50.5 272.5t138.5 223.5t213.5 149.5t268.5 55.5q191 0 344 -93.5t236.5 -252t83.5 -350.5q0 -141 -52 -267.5t-141 -217.5t-212 -144t-261 -53zM182 662q0 -123 43 -230t116.5 -182.5t176 -118.5
t217.5 -43q113 0 214.5 42.5t175.5 116.5t117.5 182t43.5 233q0 253 -156.5 420t-388.5 167q-154 0 -282 -76t-202.5 -211t-74.5 -300z" />
    <glyph glyph-name="P" unicode="P" horiz-adv-x="1026" 
d="M68 1266q0 52 17 69t65 17h319q111 0 198 -25t141 -66t89.5 -99t49.5 -119t14 -130t-14 -130t-49.5 -119t-89.5 -99.5t-141 -66.5t-198 -25h-287v-473h-114v1266zM182 584h287q111 0 188 27.5t116 76.5t55 103t16 122q0 54 -7.5 97t-31 88.5t-63.5 75.5t-109.5 49.5
t-163.5 19.5h-287v-659z" />
    <glyph glyph-name="Q" unicode="Q" horiz-adv-x="1468" 
d="M68 657q0 143 50.5 272.5t138.5 223.5t213.5 149.5t268.5 55.5q191 0 344 -93.5t236.5 -252t83.5 -350.5q0 -131 -46 -251t-125.5 -209.5t-191 -147t-237.5 -68.5l-37 -156h178v-106h-221q-48 0 -66 24.5t-8 79.5l33 154q-172 13 -312.5 105t-221 242t-80.5 328zM182 662
q0 -123 43 -230t116.5 -182.5t176 -118.5t217.5 -43q113 0 214.5 42.5t175.5 116.5t117.5 182t43.5 233q0 253 -156.5 420t-388.5 167q-154 0 -282 -76t-202.5 -211t-74.5 -300z" />
    <glyph glyph-name="R" unicode="R" horiz-adv-x="1026" 
d="M68 1266q0 52 17 69t65 17h333q110 0 194.5 -23.5t137 -62t86.5 -94t47 -115t13 -129.5q0 -138 -64 -236.5t-195 -132.5q259 -79 259 -381v-178h-117v178q0 55 -7.5 98t-31 88.5t-63.5 75.5t-109.5 49t-163.5 19h-287v-508h-114v1266zM182 616h287q375 0 375 312
q0 44 -6 80t-20.5 73t-42 65.5t-67 50.5t-99 34t-134.5 12h-293v-627z" />
    <glyph glyph-name="S" unicode="S" horiz-adv-x="1101" 
d="M915 1012q-21 60 -52 104t-79 78.5t-120 52t-166 17.5q-156 0 -242 -60.5t-86 -185.5q0 -37 10 -68.5t25.5 -54.5t42 -43t51.5 -33.5t62.5 -27.5t66.5 -22.5t71 -20.5q31 -9 46 -13q22 -7 64 -18.5t68 -19t66 -21t66.5 -25t60 -30t55.5 -37t45.5 -45t37 -55.5t22 -66.5
t8.5 -79.5q0 -92 -36 -162.5t-98 -112t-137 -62.5t-159 -21q-99 0 -179.5 19t-149.5 60.5t-118.5 112.5t-78.5 170h117q44 -131 142.5 -191t266.5 -63q49 -1 94 7.5t85.5 27.5t70 47.5t47 71.5t17.5 96q0 31 -7 58.5t-23 49.5t-33 39.5t-45.5 33t-50 26t-58.5 22.5t-59.5 19
t-63 18t-60.5 17q-19 6 -62 18.5t-66 19.5t-63 21t-63 25.5t-56.5 30t-53 37t-42.5 45t-35 55.5t-20 66t-8 79q0 181 121 267.5t324 86.5q435 0 538 -360h-121z" />
    <glyph glyph-name="T" unicode="T" horiz-adv-x="1075" 
d="M479 0v1243h-411v109h940v-109h-414v-1243h-115z" />
    <glyph glyph-name="U" unicode="U" horiz-adv-x="1296" 
d="M649 -20q-95 0 -178.5 22.5t-158.5 73.5t-128.5 127t-84.5 190.5t-31 257.5v701h114v-701q0 -121 25.5 -217.5t68.5 -160t103.5 -106t127 -61t142.5 -18.5q102 0 184.5 32t146.5 97.5t99 176t35 257.5v701h117v-701q0 -178 -44 -309.5t-124 -209.5t-183 -115t-231 -37z
" />
    <glyph glyph-name="V" unicode="V" horiz-adv-x="1417" 
d="M645 0l-577 1352h120l517 -1196l522 1196h123l-594 -1352h-111z" />
    <glyph glyph-name="W" unicode="W" horiz-adv-x="1855" 
d="M68 1352h120l422 -1145l275 1145h86l274 -1145l422 1145h123l-504 -1352h-106l-252 1044l-250 -1044h-109z" />
    <glyph glyph-name="X" unicode="X" horiz-adv-x="1277" 
d="M68 0l493 674l-491 678h129l424 -584l456 584h129l-522 -678l526 -674h-129l-460 586l-426 -586h-129z" />
    <glyph glyph-name="Y" unicode="Y" horiz-adv-x="1218" 
d="M68 1352h125l397 -709l436 709h125l-506 -824v-528h-117v528z" />
    <glyph glyph-name="Z" unicode="Z" horiz-adv-x="1085" 
d="M68 1235v117h950v-92l-795 -1143h795v-117h-950v92l796 1143h-796z" />
    <glyph glyph-name="bracketleft" unicode="[" horiz-adv-x="765" 
d="M68 -217v1786h630v-109h-522v-1569h522v-108h-630z" />
    <glyph glyph-name="backslash" unicode="\" horiz-adv-x="819" 
d="M752 0h-115l-569 1352h114z" />
    <glyph glyph-name="bracketright" unicode="]" horiz-adv-x="765" 
d="M698 -217h-630v108h522v1569h-522v109h630v-1786z" />
    <glyph glyph-name="asciicircum" unicode="^" horiz-adv-x="1042" 
d="M68 606l456 766l451 -764h-103l-346 586l-356 -588h-102z" />
    <glyph glyph-name="underscore" unicode="_" horiz-adv-x="892" 
d="M68 0v109h757v-109h-757z" />
    <glyph glyph-name="a" unicode="a" horiz-adv-x="1212" 
d="M543 -20q-217 2 -346 147t-129 389q0 249 129 396t346 147q140 0 244.5 -64.5t158.5 -183.5l-2 227h117v-929h84v-109h-111q-58 0 -73 15t-15 69v147q-121 -254 -403 -251zM182 516q0 -200 101 -314t280 -114q173 0 277 115t104 313q0 200 -107 316t-274 118
q-173 0 -277 -115.5t-104 -318.5z" />
    <glyph glyph-name="b" unicode="b" horiz-adv-x="1128" 
d="M586 -20q-139 -1 -242 62t-160 185v-227h-116v1352h114v-541q57 122 161 185.5t243 62.5q217 -2 346 -148t129 -393q0 -246 -129 -391t-346 -147zM184 520q0 -197 107.5 -314.5t273.5 -117.5q172 0 276.5 115t104.5 315q0 203 -100.5 317.5t-280.5 114.5
q-173 0 -277 -116t-104 -314z" />
    <glyph glyph-name="c" unicode="c" horiz-adv-x="1116" 
d="M1049 397q-34 -187 -165.5 -305t-316.5 -117q-152 0 -266.5 72.5t-173.5 195t-59 275.5q0 241 134.5 391t364.5 150q186 0 318 -113t166 -299h-117q-27 141 -126.5 222.5t-248.5 80.5q-182 -3 -279.5 -119t-97.5 -313q0 -190 104.5 -312t278.5 -122q145 0 241 86t126 227
h117z" />
    <glyph glyph-name="d" unicode="d" horiz-adv-x="1128" 
d="M543 -20q-217 2 -346 147t-129 391q0 247 129 394t346 147q139 0 244 -64.5t159 -181.5v539h115v-1352h-117l2 227q-59 -122 -161.5 -185t-241.5 -62zM182 518q0 -200 104.5 -315t276.5 -115q167 0 274 116t107 314q0 200 -103.5 315t-277.5 117q-180 0 -280.5 -114.5
t-100.5 -317.5z" />
    <glyph glyph-name="e" unicode="e" horiz-adv-x="1126" 
d="M1042 367q-40 -181 -166 -284t-311 -103q-221 0 -359 148t-138 388q0 252 133.5 397.5t355.5 145.5q101 0 192 -37t160 -104.5t109.5 -169t40.5 -222.5l-877 -2q0 -206 108 -321t275 -115q140 0 233.5 74.5t127.5 204.5h116zM193 614h741q-22 157 -121.5 246.5
t-255.5 89.5q-149 0 -245.5 -91t-118.5 -245z" />
    <glyph glyph-name="f" unicode="f" horiz-adv-x="774" 
d="M188 0v758h-120v110h120v375q0 65 16.5 87t78.5 22h426v-109h-404v-375h209v-110h-209v-758h-117z" />
    <glyph glyph-name="g" unicode="g" horiz-adv-x="1118" 
d="M422 -463q-163 0 -258.5 68.5t-95.5 195.5q0 117 98 192t256 75h301q38 0 69 4t60.5 14t45 29.5t13.5 48.5q-1 29 -27.5 50.5t-58.5 23.5q-123 -99 -293 -99q-200 0 -332 131t-132 328q0 203 132 332t341 129q97 0 168 -21h286v-90h-141q76 -61 119 -157t43 -193
q0 -176 -98 -295q42 -16 76 -55.5t34 -91.5q0 -100 -87 -148.5t-230 -48.5h-289q-110 0 -175 -45.5t-65 -122.5q0 -151 240 -151h240q103 0 162 47t59 141h110q0 -139 -87.5 -215t-243.5 -76h-240zM182 598q0 -154 101 -252t254 -98q165 0 264.5 95t99.5 255
q0 161 -95 256.5t-269 95.5q-160 0 -257.5 -98t-97.5 -254z" />
    <glyph glyph-name="h" unicode="h" horiz-adv-x="1011" 
d="M68 0v1352h114v-527q50 107 140 170t217 64q192 3 298.5 -140.5t106.5 -398.5v-520h-115v520q0 208 -78 319t-227 111q-154 0 -248 -114.5t-94 -315.5l2 -520h-116z" />
    <glyph glyph-name="i" unicode="i" horiz-adv-x="452" 
d="M197 1038q61 0 74.5 -20t13.5 -88v-821h100v-109h-117q-22 0 -37.5 2.5t-26.5 4.5t-18 11t-10.5 14t-5.5 21t-2 24v32v821h-100v108h129zM90 1286q0 39 25.5 63.5t66.5 24.5t66.5 -24.5t25.5 -63.5q0 -37 -25.5 -61.5t-66.5 -24.5t-66.5 24.5t-25.5 61.5z" />
    <glyph glyph-name="j" unicode="j" horiz-adv-x="649" 
d="M68 -455v109h360v1384h115v-1384q0 -26 -0.5 -36.5t-3 -26.5t-8.5 -22t-17.5 -13t-28.5 -9t-43 -2h-374zM397 1286q0 39 26.5 63.5t68.5 24.5q40 0 66 -25t26 -63q0 -37 -26 -61.5t-66 -24.5q-42 0 -68.5 24.5t-26.5 61.5z" />
    <glyph glyph-name="k" unicode="k" horiz-adv-x="927" 
d="M690 0v492h-508v-492h-114v1352h114v-684l525 370h153l-604 -436h459q27 0 44 -4.5t26.5 -10.5t13.5 -23t5 -30.5t1 -44.5v-489h-115z" />
    <glyph glyph-name="l" unicode="l" horiz-adv-x="350" 
d="M160 0q-62 0 -77 21.5t-15 87.5v1243h114v-1243h103v-109h-125z" />
    <glyph glyph-name="m" unicode="m" horiz-adv-x="1818" 
d="M68 0v1038h114v-215q53 105 143.5 170t211.5 66q142 3 246.5 -81.5t136.5 -213.5q40 131 150 213t245 82q198 0 318 -134t120 -382v-543h-117v535q0 211 -80 313t-241 102q-156 0 -249.5 -108.5t-92.5 -306.5l2 -535h-117v535q0 415 -321 415q-157 0 -255 -110t-98 -299
v-541h-116z" />
    <glyph glyph-name="n" unicode="n" horiz-adv-x="1024" 
d="M68 0v1038h114v-213q48 107 138 170t217 64q198 3 308.5 -121t110.5 -363v-575h-114v575q0 191 -83 283t-237 92q-152 0 -247 -113t-95 -302l2 -535h-114z" />
    <glyph glyph-name="o" unicode="o" horiz-adv-x="1150" 
d="M575 -25q-146 0 -262.5 71t-180.5 194t-64 274q0 242 140 393.5t367 151.5q230 0 370 -152.5t140 -392.5q0 -232 -144.5 -386t-365.5 -153zM182 514q0 -184 110 -307t281 -123q172 0 284 123t112 307q0 196 -110 315t-286 121q-172 0 -281.5 -117t-109.5 -319z" />
    <glyph glyph-name="p" unicode="p" horiz-adv-x="1128" 
d="M68 -313v1351h116l-2 -227q56 120 161 184.5t245 63.5q216 -2 344.5 -148t128.5 -391q0 -247 -129 -393.5t-346 -146.5q-139 0 -244.5 64t-159.5 181v-538h-114zM184 520q0 -200 103.5 -315t277.5 -117q180 0 280.5 114.5t100.5 317.5q0 200 -104.5 315t-276.5 115
q-167 0 -274 -116t-107 -314z" />
    <glyph glyph-name="q" unicode="q" horiz-adv-x="1128" 
d="M1061 -313h-115v538q-54 -117 -159 -181t-244 -64q-217 0 -346 146.5t-129 393.5q0 246 129 391.5t346 147.5q139 1 241.5 -62.5t161.5 -185.5l-2 227h117v-1351zM182 520q0 -203 100.5 -317.5t280.5 -114.5q174 2 277.5 117t103.5 315q0 198 -107 314t-274 116
q-172 0 -276.5 -115t-104.5 -315z" />
    <glyph glyph-name="r" unicode="r" horiz-adv-x="604" 
d="M68 930q0 66 15 87t77 21h377v-108h-355v-930h-114v930z" />
    <glyph glyph-name="s" unicode="s" horiz-adv-x="911" 
d="M211 246q44 -160 297 -160q223 0 223 172q0 81 -65 126t-199 77q-62 15 -112 32t-105.5 44.5t-93 60t-62 80.5t-24.5 104q0 77 31.5 133.5t85.5 86t111.5 43t123.5 14.5q61 0 119.5 -15.5t116 -49t102.5 -96.5t67 -148h-114q-27 98 -103.5 148t-185.5 50q-48 0 -89 -8
t-77 -26t-56.5 -52t-19.5 -82q0 -142 310 -219q77 -18 133 -39t109 -55.5t81 -86.5t29 -120q1 -74 -26.5 -130t-75.5 -87.5t-105 -47t-123 -15.5q-361 0 -420 266h117z" />
    <glyph glyph-name="t" unicode="t" horiz-adv-x="788" 
d="M303 0q-62 0 -77 21.5t-15 87.5v821h-143v108h143v314h115v-314h229v-108h-229v-821h395v-109h-418z" />
    <glyph glyph-name="u" unicode="u" horiz-adv-x="1095" 
d="M918 0q-58 0 -73.5 15t-15.5 67v131q-50 -107 -139.5 -169.5t-216.5 -63.5q-195 -3 -300 130.5t-105 393.5v534h114v-534q0 -213 76.5 -314.5t228.5 -101.5t247 113.5t95 302.5v534h115v-929h84v-109h-110z" />
    <glyph glyph-name="v" unicode="v" horiz-adv-x="1105" 
d="M915 1038h123l-444 -1038h-98l-428 1038h122l357 -893z" />
    <glyph glyph-name="w" unicode="w" horiz-adv-x="1400" 
d="M68 1038h114l213 -893l254 893h105l264 -893l201 893h116l-243 -1038h-127l-263 874l-260 -874h-125z" />
    <glyph glyph-name="x" unicode="x" horiz-adv-x="1054" 
d="M68 0l387 522l-383 516h131l323 -444l332 444h129l-397 -516l393 -522h-131l-328 455l-327 -455h-129z" />
    <glyph glyph-name="y" unicode="y" horiz-adv-x="1114" 
d="M68 1038h116l320 -833l426 833h117l-644 -1255q-5 -10 -9 -17t-7.5 -13t-8 -10t-7 -7t-8.5 -5t-8.5 -3t-11 -1.5t-11.5 -0.5h-14.5h-16.5h-137v108h143l131 258z" />
    <glyph glyph-name="z" unicode="z" horiz-adv-x="968" 
d="M68 922v116h811l2 -110l-637 -811h653v-117h-803v117l643 805h-669z" />
    <glyph glyph-name="braceleft" unicode="{" horiz-adv-x="718" 
d="M651 -18q-196 15 -297.5 120.5t-101.5 288.5q0 79 -11.5 129.5t-37 76.5t-56.5 35t-79 9v94q95 6 139 58.5t45 193.5q3 187 104.5 291t294.5 119v-99q-146 -15 -217.5 -89t-71.5 -222q0 -118 -31 -191.5t-104 -105.5q73 -32 104 -106t31 -193q0 -278 289 -311v-98z" />
    <glyph glyph-name="bar" unicode="|" horiz-adv-x="243" 
d="M68 -43v1432h108v-1432h-108z" />
    <glyph glyph-name="braceright" unicode="}" horiz-adv-x="718" 
d="M68 80q288 33 288 311q0 118 31.5 192.5t104.5 106.5q-74 32 -105 105.5t-31 191.5q0 148 -71 222t-217 89v99q193 -15 294.5 -119t104.5 -291q1 -141 45 -193.5t139 -58.5v-94q-48 0 -79 -9t-56.5 -35t-37 -76.5t-11.5 -129.5q0 -183 -101.5 -288.5t-297.5 -120.5v98z
" />
    <glyph glyph-name="exclamdown" unicode="&#xa1;" horiz-adv-x="376" 
d="M111 1030h116v-1030h-116v1030zM68 1257q0 40 28 67.5t74 27.5q48 0 78.5 -28t30.5 -67q0 -41 -29 -67.5t-80 -26.5q-46 0 -74 26.5t-28 67.5z" />
    <glyph glyph-name="cent" unicode="&#xa2;" horiz-adv-x="1372" 
d="M1305 500q-45 -234 -200 -370t-372 -148v-211h-96v211q-118 10 -220.5 60.5t-180.5 135.5t-123 212.5t-45 281.5q0 156 44.5 284.5t122 215t180.5 137.5t222 61l2 205h96l-2 -205q217 -12 369 -142.5t201 -359.5h-121q-45 192 -176 294t-314 102q-106 0 -198 -38.5
t-162 -111.5t-110 -186t-40 -254q0 -139 39.5 -251t108.5 -184.5t161 -111.5t199 -39q189 0 322.5 107t175.5 305h117z" />
    <glyph glyph-name="sterling" unicode="&#xa3;" horiz-adv-x="1198" 
d="M96 109q127 97 187.5 176.5t60.5 160.5h-276v97l254 -2q-131 188 -136 358q-11 224 94.5 348.5t344.5 124.5q107 -1 191 -25.5t151.5 -77.5t107.5 -145t49 -221h-114q-7 189 -103.5 274t-281.5 85q-183 1 -261 -83t-75 -266q1 -91 38.5 -180t106.5 -190h418v-97h-397
q3 -79 -54.5 -167.5t-152.5 -169.5h874v-109h-1026v109z" />
    <glyph glyph-name="yen" unicode="&#xa5;" horiz-adv-x="1218" 
d="M68 1352h125l397 -709l436 709h125l-506 -824v-86h356v-110h-356v-121h356v-109h-356v-102h-117v102h-340v109h340v121h-340v110h340v86z" />
    <glyph glyph-name="section" unicode="&#xa7;" horiz-adv-x="1044" 
d="M227 68q21 -52 55.5 -86.5t80 -51.5t90.5 -23.5t104 -6.5q82 0 145 16t106.5 59t43.5 109q0 152 -334 211q-69 12 -130.5 29.5t-121 45.5t-102 62.5t-69 83.5t-27.5 105q-1 100 51.5 162t142.5 87q-163 90 -166 228q-1 65 21 114t57.5 78.5t87.5 48t103.5 25.5t113.5 8
q52 0 95 -5t95.5 -21.5t94 -44.5t79.5 -78t62 -119h-96q-22 52 -57 87.5t-81 53t-92 24.5t-106 7q-65 -1 -111.5 -8.5t-87.5 -26t-61.5 -54.5t-19.5 -89q1 -85 99 -142.5t263 -87.5q422 -75 424 -307q1 -96 -58 -158.5t-151 -89.5q175 -86 178 -229q1 -62 -23 -111.5
t-62.5 -80t-90.5 -51t-104 -28.5t-107 -8q-51 0 -92 4t-95 19.5t-96.5 42.5t-84.5 77.5t-70 119.5h104zM164 621q1 -58 48.5 -104.5t126.5 -77.5t187 -50q95 -12 174.5 -2t131 55.5t51.5 118.5q0 152 -336 211q-15 3 -57.5 15t-65.5 14q-113 13 -187 -34.5t-73 -145.5z" />
    <glyph glyph-name="copyright" unicode="&#xa9;" horiz-adv-x="1148" 
d="M571 209q-103 0 -193.5 37.5t-160 108.5t-109.5 184t-40 254q0 142 40.5 254t110 182t159.5 106.5t193 36.5q108 0 200.5 -36.5t162.5 -106.5t109.5 -182t39.5 -254q0 -141 -39.5 -253.5t-109.5 -184t-162.5 -109t-200.5 -37.5zM139 793q0 -128 33.5 -227t93 -160.5
t136.5 -93t169 -31.5q199 0 319 129.5t120 382.5q0 250 -120 378.5t-319 128.5q-190 0 -311 -129.5t-121 -377.5zM227 788q0 169 92 273t250 104q131 0 222 -77.5t114 -206.5h-71q-19 102 -90 160.5t-179 58.5q-128 -1 -197 -86t-69 -226q0 -133 74 -221t196 -88
q103 0 173 62.5t92 165.5h69q-24 -129 -114.5 -211.5t-219.5 -81.5q-156 0 -249 106.5t-93 267.5z" />
    <glyph glyph-name="ordfeminine" unicode="&#xaa;" horiz-adv-x="903" 
d="M406 600q-154 2 -246 105.5t-92 277.5q0 178 92 282.5t246 104.5q101 0 175.5 -45.5t112.5 -130.5l-2 162h84v-664h60v-78h-78q-41 0 -52.5 11.5t-11.5 48.5v106q-86 -183 -288 -180zM150 983q0 -143 71.5 -224t198.5 -81q124 0 198 82t74 223q0 144 -76 226.5t-196 82.5
q-123 0 -196.5 -81.5t-73.5 -227.5z" />
    <glyph glyph-name="guillemotleft" unicode="&#xab;" horiz-adv-x="991" 
d="M535 139l-472 428l494 428h121l-492 -432l467 -424h-118zM309 565l494 428h121l-492 -432l467 -424h-119z" />
    <glyph glyph-name="registered" unicode="&#xae;" horiz-adv-x="985" 
d="M489 397q-86 0 -161.5 31.5t-134 91t-92 154t-33.5 213.5t34 213t92.5 152.5t133.5 89t161 30.5q189 0 310 -125t121 -360t-121 -362.5t-310 -127.5zM121 887q0 -216 102.5 -327t265.5 -111q171 0 273 110.5t102 327.5q0 215 -102.5 324.5t-272.5 109.5
q-163 0 -265.5 -110.5t-102.5 -323.5zM313 610v574h172q113 0 160 -52.5t47 -132.5q0 -59 -26.5 -105t-83.5 -63q104 -32 104 -159v-62h-47v62q1 29 -5 51.5t-22 44t-50.5 33.5t-84.5 12h-119v-203h-45zM358 854h127q162 0 162 145q0 29 -6 51.5t-22.5 44.5t-50 34t-83.5 12
h-127v-287z" />
    <glyph glyph-name="degree" unicode="&#xb0;" horiz-adv-x="540" 
d="M270 981q-93 0 -147.5 59t-54.5 138q0 81 55 138.5t149 57.5q91 0 146 -58t55 -138t-53.5 -138.5t-149.5 -58.5zM115 1176q0 -64 39.5 -106t115.5 -42q78 0 117 42t39 106q0 66 -40.5 108.5t-113.5 42.5q-70 0 -113.5 -43t-43.5 -108z" />
    <glyph glyph-name="plusminus" unicode="&#xb1;" horiz-adv-x="892" 
d="M387 442v363h-319v108h317v340h111v-340h321v-108h-321v-363h-109zM82 195v108h737v-108h-737z" />
    <glyph glyph-name="uni00B2" unicode="&#xb2;" horiz-adv-x="755" 
d="M129 614q7 64 27.5 108t59 73t82.5 46.5t114 35.5q96 25 148 71t52 123q0 111 -66 170t-179 59q-100 0 -160.5 -63.5t-63.5 -173.5h-75q-1 142 83.5 226.5t215.5 84.5q142 0 231.5 -77.5t89.5 -225.5q0 -113 -72.5 -175.5t-195.5 -92.5q-108 -27 -153.5 -63.5
t-59.5 -125.5l-10 -84h475v-71h-559z" />
    <glyph glyph-name="uni00B3" unicode="&#xb3;" horiz-adv-x="784" 
d="M432 1049q43 -5 82 -17t77 -35t66 -55t45 -79t17 -105q0 -136 -87.5 -218.5t-238.5 -82.5q-136 0 -227.5 92t-97.5 225h75q17 -118 82.5 -182t167.5 -64q121 0 184.5 58.5t63.5 171.5q0 221 -315 221v63l233 258h-463v74l576 -4v-59z" />
    <glyph glyph-name="periodcentered" unicode="&#xb7;" horiz-adv-x="346" 
d="M174 487q-46 0 -76 30t-30 71q0 42 30 71t76 29q45 0 76 -29t31 -71q0 -41 -31 -71t-76 -30z" />
    <glyph glyph-name="uni00B9" unicode="&#xb9;" horiz-adv-x="444" 
d="M68 530v68h120v709h-96v69h168v-778h117v-68h-309z" />
    <glyph glyph-name="ordmasculine" unicode="&#xba;" horiz-adv-x="696" 
d="M348 776q-122 0 -201 85.5t-79 213.5q0 134 77 217.5t203 83.5q128 0 205.5 -84t77.5 -217q0 -128 -79.5 -213.5t-203.5 -85.5zM131 1075q0 -102 61 -169.5t156 -67.5t157 67.5t62 169.5q0 108 -61 174t-158 68q-96 0 -156.5 -64.5t-60.5 -177.5z" />
    <glyph glyph-name="guillemotright" unicode="&#xbb;" horiz-adv-x="997" 
d="M459 121h-119l467 424l-492 432h121l494 -428zM70 975h120l494 -428l-471 -428h-119l467 424z" />
    <glyph glyph-name="questiondown" unicode="&#xbf;" horiz-adv-x="1073" 
d="M971 1014q0 -42 -7 -79.5t-18 -66.5t-31 -55t-38 -44.5t-47 -36.5t-51.5 -29.5t-57 -25t-57.5 -21.5t-60.5 -20.5l-58.5 -19.5q-22 -7 -63 -20t-65 -21t-60 -22.5t-57.5 -27t-46.5 -32.5t-38.5 -42t-23 -52t-9.5 -65q0 -128 84 -187t232 -59q177 0 266 71.5t117 209.5
h118q-67 -389 -501 -389q-93 0 -170 20t-136.5 61.5t-92.5 110.5t-33 162q0 52 12.5 96.5t31 76.5t51 61t61 46.5t73 36.5t74.5 29.5t78 26t73 24.5q17 6 49 16.5t49.5 16.5t46 17t45 19t39.5 21.5t36 26t28 30.5t22.5 38t13 45t5.5 53v92h117v-92zM815 1272q0 35 25.5 60.5
t66.5 25.5t66.5 -25.5t25.5 -60.5q0 -34 -25.5 -59t-66.5 -25t-66.5 25t-25.5 59z" />
    <glyph glyph-name="Agrave" unicode="&#xc0;" horiz-adv-x="1396" 
d="M68 0l596 1352h94l573 -1352h-123l-182 422h-647l-191 -422h-120zM428 532h549l-266 650zM479 1858h107l170 -424h-109z" />
    <glyph glyph-name="Aacute" unicode="&#xc1;" horiz-adv-x="1396" 
d="M68 0l596 1352h94l573 -1352h-123l-182 422h-647l-191 -422h-120zM428 532h549l-266 650zM662 1427l169 424h107l-168 -424h-108z" />
    <glyph glyph-name="Acircumflex" unicode="&#xc2;" horiz-adv-x="1396" 
d="M68 0l596 1352h94l573 -1352h-123l-182 422h-647l-191 -422h-120zM379 1419l309 461l316 -459h-113l-201 295l-198 -297h-113zM428 532h549l-266 650z" />
    <glyph glyph-name="Atilde" unicode="&#xc3;" horiz-adv-x="1396" 
d="M68 0l596 1352h94l573 -1352h-123l-182 422h-647l-191 -422h-120zM387 1411q-3 111 52 172.5t143 44.5q39 -8 101 -57t85 -55q37 -7 63 -1.5t43.5 26.5t27 42.5t13.5 44.5h99q-14 -96 -87.5 -166.5t-174.5 -42.5q-34 10 -92.5 59.5t-92.5 55.5q-33 6 -52.5 -14.5
t-25.5 -47.5t-6 -61h-96zM428 532h549l-266 650z" />
    <glyph glyph-name="Adieresis" unicode="&#xc4;" horiz-adv-x="1396" 
d="M68 0l596 1352h94l573 -1352h-123l-182 422h-647l-191 -422h-120zM428 532h549l-266 650zM457 1520q0 40 30 69t82 29t81.5 -28t29.5 -70q0 -38 -31 -66.5t-80 -28.5q-52 0 -82 28t-30 67zM707 1520q0 40 30 69t80 29q52 0 82.5 -28.5t30.5 -69.5q0 -38 -32 -66.5
t-81 -28.5q-50 0 -80 28t-30 67z" />
    <glyph glyph-name="Aring" unicode="&#xc5;" horiz-adv-x="1396" 
d="M68 0l596 1352h94l573 -1352h-123l-182 422h-647l-191 -422h-120zM428 532h549l-266 650zM473 1647q0 91 64 151t161 60q101 0 166.5 -60t65.5 -151q0 -82 -66 -144.5t-166 -62.5q-93 0 -159 63t-66 144zM547 1649q0 -59 39.5 -97.5t111.5 -38.5q71 0 113.5 39t42.5 97
q0 60 -40 98.5t-116 38.5q-72 0 -111.5 -40t-39.5 -97z" />
    <glyph glyph-name="AE" unicode="&#xc6;" horiz-adv-x="2140" 
d="M68 0l573 1352h90l426 -1045v953q0 60 14.5 76t71.5 16h832v-109h-803v-514h678v-108h-678v-512h801v-109h-910l-174 422h-622l-183 -422h-116zM414 532h526l-254 650z" />
    <glyph glyph-name="Ccedilla" unicode="&#xc7;" horiz-adv-x="1445" 
d="M522 -467q147 -7 227.5 4t111 39t30.5 80q0 74 -84 98t-289 19l-8 65l108 152q-240 42 -395 228t-155 439q0 143 50.5 272.5t138.5 223.5t213.5 149.5t268.5 55.5q235 0 406 -137t231 -357h-119q-56 180 -197 283.5t-319 103.5q-115 0 -218.5 -44t-179 -121
t-119.5 -187.5t-44 -236.5q0 -123 44 -230.5t118.5 -183t177 -119t217.5 -43.5q190 0 330 106t195 283h116q-59 -219 -236 -357t-405 -138h-18l-86 -117q39 0 74.5 -3t78.5 -10t77.5 -22t64.5 -37t46.5 -56.5t16.5 -78.5q0 -66 -24.5 -110.5t-68 -66t-102.5 -32.5
t-128.5 -10.5t-145.5 0.5v96z" />
    <glyph glyph-name="Egrave" unicode="&#xc8;" horiz-adv-x="1050" 
d="M154 0q-57 0 -71.5 16.5t-14.5 75.5v1168q0 60 14.5 76t71.5 16h831v-109h-803v-514h678v-108h-678v-512h801v-109h-829zM291 1862h106l170 -424h-108z" />
    <glyph glyph-name="Eacute" unicode="&#xc9;" horiz-adv-x="1050" 
d="M154 0q-57 0 -71.5 16.5t-14.5 75.5v1168q0 60 14.5 76t71.5 16h831v-109h-803v-514h678v-108h-678v-512h801v-109h-829zM475 1434l170 424h107l-168 -424h-109z" />
    <glyph glyph-name="Ecircumflex" unicode="&#xca;" horiz-adv-x="1050" 
d="M154 0q-57 0 -71.5 16.5t-14.5 75.5v1168q0 60 14.5 76t71.5 16h831v-109h-803v-514h678v-108h-678v-512h801v-109h-829zM193 1425l309 461l315 -459h-112l-201 295l-199 -297h-112z" />
    <glyph glyph-name="Edieresis" unicode="&#xcb;" horiz-adv-x="1050" 
d="M154 0q-57 0 -71.5 16.5t-14.5 75.5v1168q0 60 14.5 76t71.5 16h831v-109h-803v-514h678v-108h-678v-512h801v-109h-829zM270 1526q0 40 30.5 69t82.5 29t81.5 -28t29.5 -70q0 -38 -31 -66t-80 -28q-52 0 -82.5 27.5t-30.5 66.5zM520 1526q0 40 30.5 69t80.5 29
q52 0 82 -28t30 -70q0 -38 -31.5 -66t-80.5 -28q-50 0 -80.5 27.5t-30.5 66.5z" />
    <glyph glyph-name="Igrave" unicode="&#xcc;" horiz-adv-x="493" 
d="M111 0v109h100v1134h-100v109h315v-109h-100v-1134h100v-109h-315zM68 1847h106l170 -424h-108z" />
    <glyph glyph-name="Iacute" unicode="&#xcd;" horiz-adv-x="538" 
d="M68 0v109h100v1134h-100v109h315v-109h-100v-1134h100v-109h-315zM207 1417l170 424h106l-168 -424h-108z" />
    <glyph glyph-name="Icircumflex" unicode="&#xce;" horiz-adv-x="751" 
d="M209 0v109h100v1134h-100v109h315v-109h-100v-1134h100v-109h-315zM68 1409l309 461l315 -459h-112l-201 295l-199 -297h-112z" />
    <glyph glyph-name="Idieresis" unicode="&#xcf;" horiz-adv-x="604" 
d="M131 0v109h100v1134h-100v109h315v-109h-100v-1134h100v-109h-315zM68 1509q0 41 30 70t82 29t81.5 -28.5t29.5 -70.5q0 -38 -31 -66t-80 -28q-52 0 -82 27.5t-30 66.5zM317 1509q0 40 30.5 69.5t80.5 29.5q52 0 82.5 -28.5t30.5 -70.5q0 -38 -32 -66t-81 -28
q-50 0 -80.5 27.5t-30.5 66.5z" />
    <glyph glyph-name="Ntilde" unicode="&#xd1;" horiz-adv-x="1171" 
d="M68 0v1352h98l823 -1143v1143h117l-4 -1352h-101l-819 1135v-1135h-114zM213 1415q-3 111 52 172.5t143 44.5q39 -8 101 -57t85 -55q37 -7 63 -1.5t43.5 26.5t27 42.5t13.5 44.5h99q-14 -96 -87.5 -166.5t-174.5 -42.5q-34 10 -92.5 59.5t-92.5 55.5q-33 6 -52.5 -14.5
t-25.5 -47.5t-6 -61h-96z" />
    <glyph glyph-name="Ograve" unicode="&#xd2;" horiz-adv-x="1468" 
d="M737 -20q-138 0 -262 52.5t-213.5 142.5t-141.5 216t-52 266q0 143 50.5 272.5t138.5 223.5t213.5 149.5t268.5 55.5q191 0 344 -93.5t236.5 -252t83.5 -350.5q0 -141 -52 -267.5t-141 -217.5t-212 -144t-261 -53zM182 662q0 -123 43 -230t116.5 -182.5t176 -118.5
t217.5 -43q113 0 214.5 42.5t175.5 116.5t117.5 182t43.5 233q0 253 -156.5 420t-388.5 167q-154 0 -282 -76t-202.5 -211t-74.5 -300zM469 1903h106l170 -424h-108z" />
    <glyph glyph-name="Oacute" unicode="&#xd3;" horiz-adv-x="1468" 
d="M737 -20q-138 0 -262 52.5t-213.5 142.5t-141.5 216t-52 266q0 143 50.5 272.5t138.5 223.5t213.5 149.5t268.5 55.5q191 0 344 -93.5t236.5 -252t83.5 -350.5q0 -141 -52 -267.5t-141 -217.5t-212 -144t-261 -53zM182 662q0 -123 43 -230t116.5 -182.5t176 -118.5
t217.5 -43q113 0 214.5 42.5t175.5 116.5t117.5 182t43.5 233q0 253 -156.5 420t-388.5 167q-154 0 -282 -76t-202.5 -211t-74.5 -300zM651 1473l170 423h107l-168 -423h-109z" />
    <glyph glyph-name="Ocircumflex" unicode="&#xd4;" horiz-adv-x="1468" 
d="M737 -20q-138 0 -262 52.5t-213.5 142.5t-141.5 216t-52 266q0 143 50.5 272.5t138.5 223.5t213.5 149.5t268.5 55.5q191 0 344 -93.5t236.5 -252t83.5 -350.5q0 -141 -52 -267.5t-141 -217.5t-212 -144t-261 -53zM182 662q0 -123 43 -230t116.5 -182.5t176 -118.5
t217.5 -43q113 0 214.5 42.5t175.5 116.5t117.5 182t43.5 233q0 253 -156.5 420t-388.5 167q-154 0 -282 -76t-202.5 -211t-74.5 -300zM371 1464l309 461l315 -459h-112l-201 295l-199 -297h-112z" />
    <glyph glyph-name="Otilde" unicode="&#xd5;" horiz-adv-x="1468" 
d="M737 -20q-138 0 -262 52.5t-213.5 142.5t-141.5 216t-52 266q0 143 50.5 272.5t138.5 223.5t213.5 149.5t268.5 55.5q191 0 344 -93.5t236.5 -252t83.5 -350.5q0 -141 -52 -267.5t-141 -217.5t-212 -144t-261 -53zM182 662q0 -123 43 -230t116.5 -182.5t176 -118.5
t217.5 -43q113 0 214.5 42.5t175.5 116.5t117.5 182t43.5 233q0 253 -156.5 420t-388.5 167q-154 0 -282 -76t-202.5 -211t-74.5 -300zM377 1456q-3 111 52 172.5t142 44.5q39 -8 101.5 -57t85.5 -55q37 -7 63 -1.5t43.5 26.5t27 42.5t13.5 44.5h99q-6 -43 -27 -85
t-55.5 -76.5t-80 -48t-100.5 0.5q-34 10 -92 59.5t-92 55.5q-33 6 -52.5 -14.5t-25.5 -47.5t-6 -61h-96z" />
    <glyph glyph-name="Odieresis" unicode="&#xd6;" horiz-adv-x="1468" 
d="M737 -20q-138 0 -262 52.5t-213.5 142.5t-141.5 216t-52 266q0 143 50.5 272.5t138.5 223.5t213.5 149.5t268.5 55.5q191 0 344 -93.5t236.5 -252t83.5 -350.5q0 -141 -52 -267.5t-141 -217.5t-212 -144t-261 -53zM182 662q0 -123 43 -230t116.5 -182.5t176 -118.5
t217.5 -43q113 0 214.5 42.5t175.5 116.5t117.5 182t43.5 233q0 253 -156.5 420t-388.5 167q-154 0 -282 -76t-202.5 -211t-74.5 -300zM449 1565q0 40 30 69t82 29t81.5 -28t29.5 -70q0 -38 -31 -66.5t-80 -28.5q-52 0 -82 28t-30 67zM698 1565q0 40 30.5 69t80.5 29
q52 0 82.5 -28.5t30.5 -69.5q0 -38 -32 -66.5t-81 -28.5q-50 0 -80.5 28t-30.5 67z" />
    <glyph glyph-name="multiply" unicode="&#xd7;" horiz-adv-x="786" 
d="M68 391l256 256l-226 227l76 76l225 -223l240 240l80 -78l-242 -242l228 -227l-76 -76l-228 227l-256 -256z" />
    <glyph glyph-name="Oslash" unicode="&#xd8;" horiz-adv-x="1468" 
d="M737 -20q-103 0 -209 32l-61 -174h-115l76 215q-164 86 -262 247t-98 357q0 143 50.5 272.5t138.5 223.5t213.5 149.5t268.5 55.5q73 0 138 -15l45 132h114l-55 -160q192 -74 307 -251.5t115 -401.5q0 -141 -52 -267.5t-141 -217.5t-212 -144t-261 -53zM182 662
q0 -167 76 -299.5t205 -204.5l377 1083q-41 8 -99 8q-154 0 -282 -76t-202.5 -211t-74.5 -300zM563 115q79 -27 172 -27q113 0 214.5 42.5t175.5 116.5t117.5 182t43.5 233q0 192 -93.5 338.5t-248.5 209.5z" />
    <glyph glyph-name="Ugrave" unicode="&#xd9;" horiz-adv-x="1296" 
d="M649 -20q-95 0 -178.5 22.5t-158.5 73.5t-128.5 127t-84.5 190.5t-31 257.5v701h114v-701q0 -121 25.5 -217.5t68.5 -160t103.5 -106t127 -61t142.5 -18.5q102 0 184.5 32t146.5 97.5t99 176t35 257.5v701h117v-701q0 -178 -44 -309.5t-124 -209.5t-183 -115t-231 -37z
M430 1823h107l170 -424h-109z" />
    <glyph glyph-name="Uacute" unicode="&#xda;" horiz-adv-x="1296" 
d="M649 -20q-95 0 -178.5 22.5t-158.5 73.5t-128.5 127t-84.5 190.5t-31 257.5v701h114v-701q0 -121 25.5 -217.5t68.5 -160t103.5 -106t127 -61t142.5 -18.5q102 0 184.5 32t146.5 97.5t99 176t35 257.5v701h117v-701q0 -178 -44 -309.5t-124 -209.5t-183 -115t-231 -37z
M612 1393l170 424h107l-168 -424h-109z" />
    <glyph glyph-name="Ucircumflex" unicode="&#xdb;" horiz-adv-x="1296" 
d="M649 -20q-95 0 -178.5 22.5t-158.5 73.5t-128.5 127t-84.5 190.5t-31 257.5v701h114v-701q0 -121 25.5 -217.5t68.5 -160t103.5 -106t127 -61t142.5 -18.5q102 0 184.5 32t146.5 97.5t99 176t35 257.5v701h117v-701q0 -178 -44 -309.5t-124 -209.5t-183 -115t-231 -37z
M330 1384l309 461l315 -459h-112l-201 295l-199 -297h-112z" />
    <glyph glyph-name="Udieresis" unicode="&#xdc;" horiz-adv-x="1296" 
d="M649 -20q-95 0 -178.5 22.5t-158.5 73.5t-128.5 127t-84.5 190.5t-31 257.5v701h114v-701q0 -121 25.5 -217.5t68.5 -160t103.5 -106t127 -61t142.5 -18.5q102 0 184.5 32t146.5 97.5t99 176t35 257.5v701h117v-701q0 -178 -44 -309.5t-124 -209.5t-183 -115t-231 -37z
M408 1485q0 40 30 69t82 29t81.5 -28t29.5 -70q0 -38 -31 -66t-80 -28q-52 0 -82 27.5t-30 66.5zM657 1485q0 40 30.5 69t80.5 29q52 0 82.5 -28.5t30.5 -69.5q0 -38 -32 -66t-81 -28q-50 0 -80.5 27.5t-30.5 66.5z" />
    <glyph glyph-name="Yacute" unicode="&#xdd;" horiz-adv-x="1218" 
d="M68 1352h125l397 -709l436 709h125l-506 -824v-528h-117v528zM561 1438l170 424h107l-168 -424h-109z" />
    <glyph glyph-name="germandbls" unicode="&#xdf;" horiz-adv-x="1163" 
d="M68 967q0 391 516 391q250 0 379 -93.5t129 -263.5q0 -111 -62.5 -202t-161.5 -125q102 -38 165 -122t63 -192q0 -174 -122 -267t-372 -93h-139v111h139q210 0 297.5 62.5t87.5 186.5q0 123 -94 194t-291 71h-139v98h139q379 0 379 278q0 254 -397 254
q-104 0 -179.5 -15.5t-119 -40t-68.5 -63.5t-33 -77.5t-8 -91.5v-967h-108v967z" />
    <glyph glyph-name="agrave" unicode="&#xe0;" horiz-adv-x="1212" 
d="M543 -20q-217 2 -346 147t-129 389q0 249 129 396t346 147q140 0 244.5 -64.5t158.5 -183.5l-2 227h117v-929h84v-109h-111q-58 0 -73 15t-15 69v147q-121 -254 -403 -251zM182 516q0 -200 101 -314t280 -114q173 0 277 115t104 313q0 200 -107 316t-274 118
q-173 0 -277 -115.5t-104 -318.5zM375 1602h106l170 -424h-108z" />
    <glyph glyph-name="aacute" unicode="&#xe1;" horiz-adv-x="1212" 
d="M543 -20q-217 2 -346 147t-129 389q0 249 129 396t346 147q140 0 244.5 -64.5t158.5 -183.5l-2 227h117v-929h84v-109h-111q-58 0 -73 15t-15 69v147q-121 -254 -403 -251zM182 516q0 -200 101 -314t280 -114q173 0 277 115t104 313q0 200 -107 316t-274 118
q-173 0 -277 -115.5t-104 -318.5zM557 1171l170 424h107l-168 -424h-109z" />
    <glyph glyph-name="acircumflex" unicode="&#xe2;" horiz-adv-x="1212" 
d="M543 -20q-217 2 -346 147t-129 389q0 249 129 396t346 147q140 0 244.5 -64.5t158.5 -183.5l-2 227h117v-929h84v-109h-111q-58 0 -73 15t-15 69v147q-121 -254 -403 -251zM182 516q0 -200 101 -314t280 -114q173 0 277 115t104 313q0 200 -107 316t-274 118
q-173 0 -277 -115.5t-104 -318.5zM274 1163l310 461l315 -459h-113l-200 295l-199 -297h-113z" />
    <glyph glyph-name="atilde" unicode="&#xe3;" horiz-adv-x="1212" 
d="M543 -20q-217 2 -346 147t-129 389q0 249 129 396t346 147q140 0 244.5 -64.5t158.5 -183.5l-2 227h117v-929h84v-109h-111q-58 0 -73 15t-15 69v147q-121 -254 -403 -251zM182 516q0 -200 101 -314t280 -114q173 0 277 115t104 313q0 200 -107 316t-274 118
q-173 0 -277 -115.5t-104 -318.5zM338 1153q-3 91 42.5 141.5t117.5 36.5q31 -5 82 -46t69 -46q55 -15 84 16t37 76h82q-12 -79 -72 -136.5t-143 -33.5q-28 8 -76.5 48.5t-75.5 45.5q-38 5 -53.5 -26t-15.5 -76h-78z" />
    <glyph glyph-name="adieresis" unicode="&#xe4;" horiz-adv-x="1212" 
d="M543 -20q-217 2 -346 147t-129 389q0 249 129 396t346 147q140 0 244.5 -64.5t158.5 -183.5l-2 227h117v-929h84v-109h-111q-58 0 -73 15t-15 69v147q-121 -254 -403 -251zM182 516q0 -200 101 -314t280 -114q173 0 277 115t104 313q0 200 -107 316t-274 118
q-173 0 -277 -115.5t-104 -318.5zM352 1264q0 40 30.5 69t82.5 29t81 -28t29 -70q0 -39 -30.5 -67t-79.5 -28q-52 0 -82.5 28t-30.5 67zM602 1264q0 40 30.5 69t80.5 29q52 0 82 -28t30 -70q0 -38 -31.5 -66.5t-80.5 -28.5q-50 0 -80.5 28t-30.5 67z" />
    <glyph glyph-name="aring" unicode="&#xe5;" horiz-adv-x="1212" 
d="M543 -20q-217 2 -346 147t-129 389q0 249 129 396t346 147q140 0 244.5 -64.5t158.5 -183.5l-2 227h117v-929h84v-109h-111q-58 0 -73 15t-15 69v147q-121 -254 -403 -251zM182 516q0 -200 101 -314t280 -114q173 0 277 115t104 313q0 200 -107 316t-274 118
q-173 0 -277 -115.5t-104 -318.5zM369 1391q0 91 64 151t161 60q101 0 166 -60t65 -151q0 -82 -65.5 -144.5t-165.5 -62.5q-93 0 -159 63t-66 144zM442 1393q0 -58 40 -97t112 -39q71 0 113.5 39t42.5 97q0 60 -40 98.5t-116 38.5q-72 0 -112 -40t-40 -97z" />
    <glyph glyph-name="ae" unicode="&#xe6;" horiz-adv-x="2015" 
d="M541 -20q-217 1 -345 142.5t-128 377.5q0 241 128 383.5t345 142.5q139 0 243 -62.5t158 -177.5l-2 220h117v-154q63 99 166.5 152t234.5 53q101 0 192 -37t160 -104.5t109.5 -169t40.5 -222.5l-877 -2q0 -206 108 -321t275 -115q140 0 233.5 74.5t127.5 204.5h117
q-40 -181 -166.5 -284.5t-311.5 -103.5q-191 0 -327 117v-94h-109q-57 0 -72.5 15t-15.5 67v141q-59 -120 -161 -182t-240 -61zM182 500q0 -194 100 -304t279 -110q172 0 275.5 111t103.5 303q0 195 -106.5 307.5t-272.5 114.5q-172 0 -275.5 -112.5t-103.5 -309.5z
M1057 104h71q-43 40 -71 86v-86zM1094 612h741q-22 157 -121.5 246.5t-255.5 89.5q-149 0 -245.5 -91t-118.5 -245z" />
    <glyph glyph-name="ccedilla" unicode="&#xe7;" horiz-adv-x="1116" 
d="M1049 397q-31 -173 -148 -289t-283 -131l-69 -96q39 0 74.5 -3t78.5 -10t77.5 -22t64.5 -37t46.5 -56.5t16.5 -78.5q0 -66 -24.5 -110.5t-68 -66t-102.5 -32.5t-128.5 -10.5t-145.5 0.5v96q147 -7 227.5 4t111 39t30.5 80q0 74 -84 98t-289 19l-8 66l86 120
q-205 20 -324.5 170.5t-119.5 370.5q0 241 134.5 391t364.5 150q186 0 318 -113t166 -299h-117q-27 141 -126.5 222.5t-248.5 80.5q-182 -3 -279.5 -119t-97.5 -313q0 -190 104.5 -312t278.5 -122q145 0 241 86t126 227h117z" />
    <glyph glyph-name="egrave" unicode="&#xe8;" horiz-adv-x="1126" 
d="M1042 367q-40 -181 -166 -284t-311 -103q-221 0 -359 148t-138 388q0 252 133.5 397.5t355.5 145.5q101 0 192 -37t160 -104.5t109.5 -169t40.5 -222.5l-877 -2q0 -206 108 -321t275 -115q140 0 233.5 74.5t127.5 204.5h116zM193 614h741q-22 157 -121.5 246.5
t-255.5 89.5q-149 0 -245.5 -91t-118.5 -245zM328 1569h106l170 -424h-108z" />
    <glyph glyph-name="eacute" unicode="&#xe9;" horiz-adv-x="1126" 
d="M1042 367q-40 -181 -166 -284t-311 -103q-221 0 -359 148t-138 388q0 252 133.5 397.5t355.5 145.5q101 0 192 -37t160 -104.5t109.5 -169t40.5 -222.5l-877 -2q0 -206 108 -321t275 -115q140 0 233.5 74.5t127.5 204.5h116zM193 614h741q-22 157 -121.5 246.5
t-255.5 89.5q-149 0 -245.5 -91t-118.5 -245zM510 1139l170 424h106l-168 -424h-108z" />
    <glyph glyph-name="ecircumflex" unicode="&#xea;" horiz-adv-x="1126" 
d="M1042 367q-40 -181 -166 -284t-311 -103q-221 0 -359 148t-138 388q0 252 133.5 397.5t355.5 145.5q101 0 192 -37t160 -104.5t109.5 -169t40.5 -222.5l-877 -2q0 -206 108 -321t275 -115q140 0 233.5 74.5t127.5 204.5h116zM193 614h741q-22 157 -121.5 246.5
t-255.5 89.5q-149 0 -245.5 -91t-118.5 -245zM227 1130l310 461l315 -458h-113l-200 294l-199 -297h-113z" />
    <glyph glyph-name="edieresis" unicode="&#xeb;" horiz-adv-x="1126" 
d="M1042 367q-40 -181 -166 -284t-311 -103q-221 0 -359 148t-138 388q0 252 133.5 397.5t355.5 145.5q101 0 192 -37t160 -104.5t109.5 -169t40.5 -222.5l-877 -2q0 -206 108 -321t275 -115q140 0 233.5 74.5t127.5 204.5h116zM193 614h741q-22 157 -121.5 246.5
t-255.5 89.5q-149 0 -245.5 -91t-118.5 -245zM305 1231q0 40 30.5 69t82.5 29t81 -28t29 -70q0 -38 -30.5 -66t-79.5 -28q-52 0 -82.5 27.5t-30.5 66.5zM555 1231q0 40 30.5 69t80.5 29q52 0 82 -28t30 -70q0 -38 -31.5 -66t-80.5 -28q-50 0 -80.5 27.5t-30.5 66.5z" />
    <glyph glyph-name="igrave" unicode="&#xec;" horiz-adv-x="419" 
d="M233 0v1038h115v-1038h-115zM63 1536h107l170 -424h-109z" />
    <glyph glyph-name="iacute" unicode="&#xed;" horiz-adv-x="415" 
d="M72 0v1038h114v-1038h-114zM86 1106l170 424h106l-167 -424h-109z" />
    <glyph glyph-name="icircumflex" unicode="&#xee;" horiz-adv-x="749" 
d="M334 0v1038h115v-1038h-115zM63 1098l310 461l315 -459h-113l-200 295l-199 -297h-113z" />
    <glyph glyph-name="idieresis" unicode="&#xef;" horiz-adv-x="602" 
d="M256 0v1038h115v-1038h-115zM63 1198q0 40 30.5 69t82.5 29t81.5 -28t29.5 -70q0 -38 -31 -66t-80 -28q-52 0 -82.5 27.5t-30.5 66.5zM313 1198q0 40 30.5 69t80.5 29q52 0 82.5 -28.5t30.5 -69.5q0 -38 -32 -66t-81 -28q-50 0 -80.5 27.5t-30.5 66.5z" />
    <glyph glyph-name="ntilde" unicode="&#xf1;" horiz-adv-x="1024" 
d="M68 0v1038h114v-213q48 107 138 170t217 64q198 3 308.5 -121t110.5 -363v-575h-114v575q0 191 -83 283t-237 92q-152 0 -247 -113t-95 -302l2 -535h-114zM160 1137q-3 111 52 172.5t142 44.5q39 -8 101.5 -57.5t85.5 -55.5q37 -7 63 -1.5t43.5 27t27 43t13.5 44.5h98
q-14 -96 -87.5 -166.5t-174.5 -42.5q-34 10 -92 59.5t-92 55.5q-33 6 -52.5 -14.5t-25.5 -47.5t-6 -61h-96z" />
    <glyph glyph-name="ograve" unicode="&#xf2;" horiz-adv-x="1150" 
d="M575 -25q-146 0 -262.5 71t-180.5 194t-64 274q0 242 140 393.5t367 151.5q230 0 370 -152.5t140 -392.5q0 -232 -144.5 -386t-365.5 -153zM182 514q0 -184 110 -307t281 -123q172 0 284 123t112 307q0 196 -110 315t-286 121q-172 0 -281.5 -117t-109.5 -319zM301 1575
h107l170 -424h-109z" />
    <glyph glyph-name="oacute" unicode="&#xf3;" horiz-adv-x="1150" 
d="M575 -25q-146 0 -262.5 71t-180.5 194t-64 274q0 242 140 393.5t367 151.5q230 0 370 -152.5t140 -392.5q0 -232 -144.5 -386t-365.5 -153zM182 514q0 -184 110 -307t281 -123q172 0 284 123t112 307q0 196 -110 315t-286 121q-172 0 -281.5 -117t-109.5 -319zM483 1145
l170 424h107l-168 -424h-109z" />
    <glyph glyph-name="ocircumflex" unicode="&#xf4;" horiz-adv-x="1150" 
d="M575 -25q-146 0 -262.5 71t-180.5 194t-64 274q0 242 140 393.5t367 151.5q230 0 370 -152.5t140 -392.5q0 -232 -144.5 -386t-365.5 -153zM182 514q0 -184 110 -307t281 -123q172 0 284 123t112 307q0 196 -110 315t-286 121q-172 0 -281.5 -117t-109.5 -319zM201 1137
l309 460l315 -458h-112l-201 295l-199 -297h-112z" />
    <glyph glyph-name="otilde" unicode="&#xf5;" horiz-adv-x="1150" 
d="M575 -25q-146 0 -262.5 71t-180.5 194t-64 274q0 242 140 393.5t367 151.5q230 0 370 -152.5t140 -392.5q0 -232 -144.5 -386t-365.5 -153zM182 514q0 -184 110 -307t281 -123q172 0 284 123t112 307q0 196 -110 315t-286 121q-172 0 -281.5 -117t-109.5 -319zM209 1128
q-3 111 52 173t142 45q39 -8 101.5 -57.5t85.5 -55.5q37 -7 63 -1.5t43.5 27t27 43t13.5 44.5h99q-6 -43 -27 -85t-55.5 -76.5t-80 -48t-100.5 0.5q-34 10 -92 59t-92 55q-33 6 -52.5 -14.5t-25.5 -47.5t-6 -61h-96z" />
    <glyph glyph-name="odieresis" unicode="&#xf6;" horiz-adv-x="1150" 
d="M575 -25q-146 0 -262.5 71t-180.5 194t-64 274q0 242 140 393.5t367 151.5q230 0 370 -152.5t140 -392.5q0 -232 -144.5 -386t-365.5 -153zM182 514q0 -184 110 -307t281 -123q172 0 284 123t112 307q0 196 -110 315t-286 121q-172 0 -281.5 -117t-109.5 -319zM279 1237
q0 40 30 69t82 29t81.5 -28t29.5 -70q0 -38 -31 -66t-80 -28q-52 0 -82 27.5t-30 66.5zM528 1237q0 40 30.5 69t80.5 29q52 0 82.5 -28.5t30.5 -69.5q0 -38 -32 -66t-81 -28q-50 0 -80.5 27.5t-30.5 66.5z" />
    <glyph glyph-name="divide" unicode="&#xf7;" horiz-adv-x="872" 
d="M68 444v109h737v-109h-737zM346 723q0 38 26 63t68 25q39 0 65.5 -25.5t26.5 -62.5q0 -36 -26.5 -62t-65.5 -26q-42 0 -68 26t-26 62zM350 264q0 38 26 64t68 26q40 0 67.5 -26.5t27.5 -63.5q0 -36 -28 -62t-67 -26q-42 0 -68 26t-26 62z" />
    <glyph glyph-name="oslash" unicode="&#xf8;" horiz-adv-x="1150" 
d="M575 -25q-78 0 -167 27l-72 -172h-115l92 217q-115 69 -180 192.5t-65 274.5q0 242 140 393.5t367 151.5q72 0 154 -21l62 144h114l-78 -185q122 -66 190 -192.5t68 -290.5q0 -232 -144.5 -386t-365.5 -153zM182 514q0 -116 46 -211t128 -151l330 782q-56 16 -113 16
q-172 0 -281.5 -117t-109.5 -319zM451 102q59 -18 122 -18q172 0 284 123t112 307q0 129 -48.5 226.5t-136.5 152.5z" />
    <glyph glyph-name="ugrave" unicode="&#xf9;" horiz-adv-x="1095" 
d="M918 0q-58 0 -73.5 15t-15.5 67v131q-50 -107 -139.5 -169.5t-216.5 -63.5q-195 -3 -300 130.5t-105 393.5v534h114v-534q0 -213 76.5 -314.5t228.5 -101.5t247 113.5t95 302.5v534h115v-929h84v-109h-110zM244 1577h106l170 -424h-108z" />
    <glyph glyph-name="uacute" unicode="&#xfa;" horiz-adv-x="1095" 
d="M918 0q-58 0 -73.5 15t-15.5 67v131q-50 -107 -139.5 -169.5t-216.5 -63.5q-195 -3 -300 130.5t-105 393.5v534h114v-534q0 -213 76.5 -314.5t228.5 -101.5t247 113.5t95 302.5v534h115v-929h84v-109h-110zM428 1147l170 424h107l-168 -424h-109z" />
    <glyph glyph-name="ucircumflex" unicode="&#xfb;" horiz-adv-x="1095" 
d="M918 0q-58 0 -73.5 15t-15.5 67v131q-50 -107 -139.5 -169.5t-216.5 -63.5q-195 -3 -300 130.5t-105 393.5v534h114v-534q0 -213 76.5 -314.5t228.5 -101.5t247 113.5t95 302.5v534h115v-929h84v-109h-110zM145 1139l310 460l315 -458h-113l-200 295l-199 -297h-113z" />
    <glyph glyph-name="udieresis" unicode="&#xfc;" horiz-adv-x="1095" 
d="M918 0q-58 0 -73.5 15t-15.5 67v131q-50 -107 -139.5 -169.5t-216.5 -63.5q-195 -3 -300 130.5t-105 393.5v534h114v-534q0 -213 76.5 -314.5t228.5 -101.5t247 113.5t95 302.5v534h115v-929h84v-109h-110zM223 1239q0 40 30.5 69t82.5 29t81 -28t29 -70q0 -38 -30.5 -66
t-79.5 -28q-52 0 -82.5 27.5t-30.5 66.5zM473 1239q0 40 30.5 69t80.5 29q52 0 82 -28t30 -70q0 -38 -31.5 -66t-80.5 -28q-50 0 -80.5 27.5t-30.5 66.5z" />
    <glyph glyph-name="yacute" unicode="&#xfd;" horiz-adv-x="1114" 
d="M68 1038h116l320 -833l426 833h117l-644 -1255q-5 -10 -9 -17t-7.5 -13t-8 -10t-7 -7t-8.5 -5t-8.5 -3t-11 -1.5t-11.5 -0.5h-14.5h-16.5h-137v108h143l131 258zM516 1135l170 424h107l-168 -424h-109z" />
    <glyph glyph-name="ydieresis" unicode="&#xff;" horiz-adv-x="1114" 
d="M68 1038h116l320 -833l426 833h117l-644 -1255q-5 -10 -9 -17t-7.5 -13t-8 -10t-7 -7t-8.5 -5t-8.5 -3t-11 -1.5t-11.5 -0.5h-14.5h-16.5h-137v108h143l131 258zM311 1227q0 40 30.5 69t82.5 29t81.5 -28t29.5 -70q0 -38 -31 -66t-80 -28q-52 0 -82.5 27.5t-30.5 66.5z
M561 1227q0 40 30.5 69t80.5 29q52 0 82 -28t30 -70q0 -38 -31.5 -66t-80.5 -28q-50 0 -80.5 27.5t-30.5 66.5z" />
    <glyph glyph-name="dotlessi" unicode="&#x131;" horiz-adv-x="249" 
d="M68 0v1038h114v-1038h-114z" />
    <glyph glyph-name="OE" unicode="&#x152;" horiz-adv-x="2191" 
d="M737 -20q-138 0 -262 52.5t-213.5 142.5t-141.5 216t-52 266q0 143 50.5 272.5t138.5 223.5t213.5 149.5t268.5 55.5q179 0 324 -82t233 -225v209q0 60 14.5 76t71.5 16h832v-109h-803v-514h678v-108h-678v-512h801v-109h-830q-57 0 -71.5 16.5t-14.5 75.5v195
q-89 -142 -236 -224.5t-323 -82.5zM182 662q0 -123 43 -230t116.5 -182.5t176 -118.5t217.5 -43q113 0 214.5 42.5t175.5 116.5t117.5 182t43.5 233q0 253 -156.5 420t-388.5 167q-154 0 -282 -76t-202.5 -211t-74.5 -300z" />
    <glyph glyph-name="oe" unicode="&#x153;" horiz-adv-x="1994" 
d="M575 -25q-146 0 -262.5 71t-180.5 194t-64 274q0 242 140 393.5t367 151.5q145 0 258 -64t177 -176q60 120 171 185t257 65q101 0 192 -37t159.5 -104t109 -168.5t40.5 -222.5l-854 -2v-21q0 -50 -10 -108q33 -147 133.5 -227.5t237.5 -80.5q140 0 232.5 74.5
t127.5 204.5h117q-40 -181 -166 -284t-311 -103q-141 0 -252.5 64t-175.5 179q-66 -121 -182 -190t-261 -68zM182 514q0 -184 110 -307t281 -123q145 0 249.5 90.5t135.5 235.5q-10 62 -10 116q0 64 8 111q-32 145 -134.5 228t-248.5 85q-172 0 -281.5 -117t-109.5 -319z
M1075 637q0 -2 1 -6t1 -6h738q-22 157 -121.5 246.5t-255.5 89.5q-146 0 -242 -88t-121 -236z" />
    <glyph glyph-name="Scaron" unicode="&#x160;" horiz-adv-x="1101" 
d="M915 1012q-21 60 -52 104t-79 78.5t-120 52t-166 17.5q-156 0 -242 -60.5t-86 -185.5q0 -37 10 -68.5t25.5 -54.5t42 -43t51.5 -33.5t62.5 -27.5t66.5 -22.5t71 -20.5q31 -9 46 -13q22 -7 64 -18.5t68 -19t66 -21t66.5 -25t60 -30t55.5 -37t45.5 -45t37 -55.5t22 -66.5
t8.5 -79.5q0 -92 -36 -162.5t-98 -112t-137 -62.5t-159 -21q-99 0 -179.5 19t-149.5 60.5t-118.5 112.5t-78.5 170h117q44 -131 142.5 -191t266.5 -63q49 -1 94 7.5t85.5 27.5t70 47.5t47 71.5t17.5 96q0 31 -7 58.5t-23 49.5t-33 39.5t-45.5 33t-50 26t-58.5 22.5t-59.5 19
t-63 18t-60.5 17q-19 6 -62 18.5t-66 19.5t-63 21t-63 25.5t-56.5 30t-53 37t-42.5 45t-35 55.5t-20 66t-8 79q0 181 121 267.5t324 86.5q435 0 538 -360h-121zM217 1925h113l198 -297l201 295h113l-316 -459z" />
    <glyph glyph-name="scaron" unicode="&#x161;" horiz-adv-x="911" 
d="M211 246q44 -160 297 -160q223 0 223 172q0 81 -65 126t-199 77q-62 15 -112 32t-105.5 44.5t-93 60t-62 80.5t-24.5 104q0 77 31.5 133.5t85.5 86t111.5 43t123.5 14.5q61 0 119.5 -15.5t116 -49t102.5 -96.5t67 -148h-114q-27 98 -103.5 148t-185.5 50q-48 0 -89 -8
t-77 -26t-56.5 -52t-19.5 -82q0 -142 310 -219q77 -18 133 -39t109 -55.5t81 -86.5t29 -120q1 -74 -26.5 -130t-75.5 -87.5t-105 -47t-123 -15.5q-361 0 -420 266h117zM119 1587h112l199 -297l201 295h112l-315 -459z" />
    <glyph glyph-name="Ydieresis" unicode="&#x178;" horiz-adv-x="1218" 
d="M68 1352h125l397 -709l436 709h125l-506 -824v-528h-117v528zM356 1530q0 40 30.5 69t82.5 29t81.5 -28t29.5 -70q0 -38 -31 -66t-80 -28q-52 0 -82.5 27.5t-30.5 66.5zM606 1530q0 40 30.5 69t80.5 29q52 0 82 -28t30 -70q0 -38 -31.5 -66t-80.5 -28q-50 0 -80.5 27.5
t-30.5 66.5z" />
    <glyph glyph-name="zcaron" unicode="&#x17e;" horiz-adv-x="968" 
d="M68 922v116h811l2 -110l-637 -811h653v-117h-803v117l643 805h-669zM182 1591h113l199 -297l200 295h113l-315 -459z" />
    <glyph glyph-name="gravecomb" unicode="&#x300;" 
d="M236 928l-168 424h106l170 -424h-108z" />
    <glyph glyph-name="acutecomb" unicode="&#x301;" 
d="M174 928h-108l170 424h106z" />
    <glyph glyph-name="uni0302" unicode="&#x302;" 
d="M68 905l309 461l315 -459h-112l-201 295l-199 -297h-112z" />
    <glyph glyph-name="tildecomb" unicode="&#x303;" 
d="M68 1135q-3 111 52 172.5t142 44.5q39 -8 101.5 -57.5t85.5 -55.5q37 -7 63 -1.5t43.5 27t27 43t13.5 44.5h98q-14 -96 -87.5 -166.5t-174.5 -42.5q-34 10 -92 59t-92 55q-33 6 -52.5 -14.5t-25.5 -47t-6 -60.5h-96z" />
    <glyph glyph-name="uni0304" unicode="&#x304;" 
d="M68 1255v97h522v-97h-522z" />
    <glyph glyph-name="uni0306" unicode="&#x306;" 
d="M403 1010q-103 1 -180.5 49t-116 124.5t-38.5 168.5h106q-1 -106 67 -170t162 -64q105 0 170 64.5t62 169.5h108q0 -153 -91 -249t-249 -93z" />
    <glyph glyph-name="uni0307" unicode="&#x307;" 
d="M188 1145q-57 0 -88.5 30.5t-31.5 71.5q0 43 32 74t88 31q57 0 89 -30.5t32 -74.5q0 -42 -33 -72t-88 -30z" />
    <glyph glyph-name="uni0308" unicode="&#x308;" 
d="M180 1159q-52 0 -82 27.5t-30 66.5q0 41 30 70t82 29t81.5 -28.5t29.5 -70.5q0 -38 -31 -66t-80 -28zM317 1253q0 40 30.5 69.5t80.5 29.5q52 0 82.5 -28.5t30.5 -70.5q0 -38 -32 -66t-81 -28q-50 0 -80.5 27.5t-30.5 66.5z" />
    <glyph glyph-name="uni030A" unicode="&#x30a;" 
d="M293 956q-93 0 -159 63t-66 144q0 91 64 151t161 60q101 0 166 -60t65 -151q0 -82 -65.5 -144.5t-165.5 -62.5zM141 1165q0 -58 40 -96.5t112 -38.5q71 0 113.5 39t42.5 96q0 60 -40 99t-116 39q-71 0 -111.5 -40.5t-40.5 -97.5z" />
    <glyph glyph-name="uni030B" unicode="&#x30b;" 
d="M203 928l172 424h106l-170 -424h-108zM68 928l168 424h108l-170 -424h-106z" />
    <glyph glyph-name="uni030C" unicode="&#x30c;" 
d="M377 905l-309 461h112l199 -297l201 295h112z" />
    <glyph glyph-name="uni0312" unicode="&#x312;" 
d="M68 717l84 360h108l-84 -360h-108z" />
    <glyph glyph-name="uni0326" unicode="&#x326;" 
d="M68 -252l172 457h98l-172 -457h-98z" />
    <glyph glyph-name="uni0327" unicode="&#x327;" 
d="M80 -233q147 -7 227.5 4t111 38.5t30.5 79.5q0 74 -84 98t-289 19l-8 66l141 198h108l-127 -174q39 0 74.5 -3t79 -10t78 -22t64.5 -37t46.5 -56.5t16.5 -78.5q0 -66 -24.5 -110.5t-68 -66t-102.5 -32.5t-128.5 -10.5t-145.5 0.5v97z" />
    <glyph glyph-name="uni0328" unicode="&#x328;" 
d="M539 -236q-66 -30 -138 -34t-134 15.5t-111.5 63.5t-71.5 105q-42 116 15.5 217t162.5 137l57 -4v-69q-77 -27 -123.5 -97t-17.5 -147q17 -48 55.5 -77t86 -37t97 -2.5t93.5 22.5z" />
    <glyph glyph-name="endash" unicode="&#x2013;" horiz-adv-x="991" 
d="M68 750v108h858v-108h-858z" />
    <glyph glyph-name="emdash" unicode="&#x2014;" horiz-adv-x="1128" 
d="M68 750v108h993v-108h-993z" />
    <glyph glyph-name="quoteleft" unicode="&#x2018;" horiz-adv-x="354" 
d="M176 864l-108 488h110l109 -488h-111z" />
    <glyph glyph-name="quoteright" unicode="&#x2019;" horiz-adv-x="354" 
d="M178 864h-110l108 488h111z" />
    <glyph glyph-name="quotesinglbase" unicode="&#x201a;" horiz-adv-x="352" 
d="M68 -199l84 361h108l-84 -361h-108z" />
    <glyph glyph-name="quotedblleft" unicode="&#x201c;" horiz-adv-x="514" 
d="M176 864l-108 488h110l109 -488h-111zM229 1352h111l109 -488h-111z" />
    <glyph glyph-name="quotedblright" unicode="&#x201d;" horiz-adv-x="507" 
d="M332 864h-111l109 488h110zM68 864l108 488h111l-109 -488h-110z" />
    <glyph glyph-name="quotedblbase" unicode="&#x201e;" horiz-adv-x="501" 
d="M68 -199l84 361h108l-84 -361h-108zM215 -199l84 361h109l-84 -361h-109z" />
    <glyph glyph-name="dagger" unicode="&#x2020;" horiz-adv-x="937" 
d="M414 465v520h-346v111h344v256h110v-256h350v-111h-350v-520h-108z" />
    <glyph glyph-name="bullet" unicode="&#x2022;" horiz-adv-x="409" 
d="M205 430q-60 0 -98.5 38t-38.5 91q0 55 38.5 93t98.5 38q59 0 99 -38t40 -93q0 -52 -40 -90.5t-99 -38.5z" />
    <glyph glyph-name="ellipsis" unicode="&#x2026;" horiz-adv-x="929" 
d="M174 0q-46 0 -76 29.5t-30 70.5q0 42 30 71.5t76 29.5q45 0 76 -29.5t31 -71.5q0 -40 -31 -70t-76 -30zM365 100q0 42 30 71.5t76 29.5q45 0 76 -29.5t31 -71.5q0 -40 -31 -70t-76 -30q-46 0 -76 29.5t-30 70.5zM651 100q0 42 30.5 71.5t76.5 29.5q45 0 75.5 -29.5
t30.5 -71.5q0 -41 -30.5 -70.5t-75.5 -29.5q-46 0 -76.5 29.5t-30.5 70.5z" />
    <glyph glyph-name="perthousand" unicode="&#x2030;" horiz-adv-x="3356" 
d="M535 233q-89 0 -171.5 37t-149 106.5t-106.5 182.5t-40 252q0 138 40 250t106.5 181t149 105.5t171.5 36.5q95 0 180 -36.5t152 -105.5t106 -180.5t39 -250.5q0 -140 -39 -252t-105.5 -182t-151.5 -107t-181 -37zM162 811q0 -122 31 -217.5t84.5 -153t119 -87
t138.5 -29.5q80 0 148.5 29.5t121.5 87.5t83 153t30 217q0 237 -108 360t-275 123q-73 0 -138.5 -29.5t-119 -87t-84.5 -152t-31 -214.5zM811 -2l569 1352h115l-569 -1352h-115zM1337 559q0 138 40 250t106.5 181.5t149 106t171.5 36.5q95 0 180 -36.5t152 -106t106 -181
t39 -250.5q0 -140 -39 -252t-105.5 -181.5t-151.5 -106.5t-181 -37q-89 0 -171.5 37t-149 106.5t-106.5 182t-40 251.5zM1432 559q0 -122 31 -217.5t84 -153t118.5 -87t138.5 -29.5q80 0 148.5 29.5t121.5 87.5t83 153t30 217q0 237 -108 360t-275 123q-73 0 -138.5 -29.5
t-118.5 -87t-84 -152t-31 -214.5zM2345 578q0 138 40 250t106.5 181t149 105.5t171.5 36.5q96 0 181 -36.5t151.5 -105.5t105.5 -180.5t39 -250.5q0 -140 -38.5 -252t-105 -182t-151.5 -107t-182 -37q-89 0 -171.5 37t-149 106.5t-106.5 182.5t-40 252zM2441 578
q0 -122 31 -217.5t83.5 -153.5t118 -87.5t138.5 -29.5q167 0 275 124t108 364q0 237 -108 360t-275 123q-73 0 -138.5 -29.5t-118 -87t-83.5 -152t-31 -214.5z" />
    <glyph glyph-name="guilsinglleft" unicode="&#x2039;" horiz-adv-x="747" 
d="M539 139l-471 428l493 428h121l-492 -432l467 -424h-118z" />
    <glyph glyph-name="guilsinglright" unicode="&#x203a;" horiz-adv-x="747" 
d="M209 139h-119l467 424l-491 432h120l494 -428z" />
    <glyph glyph-name="fraction" unicode="&#x2044;" horiz-adv-x="819" 
d="M68 0l569 1352h115l-570 -1352h-114z" />
    <glyph glyph-name="Euro" unicode="&#x20ac;" horiz-adv-x="1675" 
d="M1608 475q-59 -219 -236 -357t-405 -138q-237 0 -417 144.5t-233 369.5h-249v108h229v55q0 55 4 82h-233v111h256q57 223 232 365.5t413 142.5q235 0 406 -137t231 -357h-111q-58 181 -202.5 287t-321.5 106q-186 0 -334 -114t-199 -293h316v-111h-344q-7 -44 -7 -77
q0 -10 5 -60h344v-108h-316q44 -183 193 -298.5t338 -115.5t332 109t198 286h111z" />
    <glyph glyph-name="trademark" unicode="&#x2122;" horiz-adv-x="1277" 
d="M881 956l-215 265v-498h-72v557h-244v-557h-69v557h-213v72h585l244 -305l256 305h57v-629h-71v500l-226 -267h-32z" />
    <glyph glyph-name="minus" unicode="&#x2212;" horiz-adv-x="872" 
d="M68 444v109h737v-109h-737z" />
    <glyph glyph-name="BeeType" horiz-adv-x="1312" 
d="M317 211q-60 0 -123 24t-110 74t-47 113q0 126 154 232t384 132l19 2q-15 17 -27 46t-12 49q0 49 37 86q10 10 10 14q0 8 -8 16q-16 21 -78 93q-13 17 3 32q17 16 34 -3q2 -2 4 -5q46 -73 61 -100q8 -14 13 -16.5t18 -0.5q28 8 56 0q4 -1 7 -1h4.5t3.5 2l3 3t4 5t4 6
l66 104q8 12 20 10t15.5 -12.5t-3.5 -23.5l-34 -45l-39 -54q-6 -8 6 -20q41 -47 41 -92q0 -37 -37 -97q134 -20 250.5 -73t188 -128t71.5 -153q0 -58 -48.5 -106.5t-111.5 -72.5t-119 -24q-85 0 -167 57.5t-132 149.5l-32 60l-37 -66q-49 -87 -131.5 -152t-180.5 -65z
M90 424q0 -66 75 -113t152 -47q153 0 267 195q3 5 12.5 21.5t17 28.5t17 25.5t18.5 21t17 7.5q14 0 27 -16t30 -47t22 -39q116 -178 252 -178q43 0 95 19t91.5 55t37.5 75q-3 55 -46 105.5t-107 85.5t-139 61.5t-143.5 39.5t-119.5 13q-85 0 -184.5 -23.5t-187 -63
t-146 -100t-58.5 -126.5z" />
    </font>
</defs>
</svg>
