<?xml version="1.0" standalone="no"?>
<!DOCTYPE svg PUBLIC "-//W3C//DTD SVG 1.1//EN" "http://www.w3.org/Graphics/SVG/1.1/DTD/svg11.dtd" >
<svg xmlns="http://www.w3.org/2000/svg" xmlns:xlink="http://www.w3.org/1999/xlink" version="1.1">
<metadata>
Created by FontForge 20201107 at Tue Feb 11 16:23:31 2025
 By 
Copyright (c) 2022 by beetype. All rights reserved.
</metadata>
<defs>
<font id="NeueLeiden-Regular" horiz-adv-x="0" >
  <font-face 
    font-family="Neue Leiden"
    font-weight="400"
    font-stretch="normal"
    units-per-em="2048"
    panose-1="0 0 0 0 0 0 0 0 0 0"
    ascent="1638"
    descent="-410"
    x-height="1038"
    cap-height="1352"
    bbox="37 -562.273 3312 1950"
    underline-thickness="102"
    underline-position="-255"
    unicode-range="U+0020-FB02"
  />
<missing-glyph horiz-adv-x="1357" 
d="M340 211q-60 0 -123 24t-110.5 74.5t-47.5 112.5q0 126 154.5 232t384.5 132l18 2q-15 17 -26.5 46t-11.5 49q0 50 36 86q11 11 11 14q0 7 -9 16q-23 30 -77 93q-13 17 3 32q17 16 34 -3q2 -2 4 -5q46 -73 61 -100q8 -14 13 -16.5t18 -0.5q28 8 55 0q14 -4 24 11q2 2 3 4
l65 104q9 12 21 10t15.5 -12.5t-3.5 -23.5l-35 -45l-39 -54q-6 -8 6 -20q41 -47 41 -92q0 -37 -37 -97q134 -20 250.5 -73t188 -128t71.5 -153q0 -58 -48 -106.5t-111 -72.5t-119 -24q-85 0 -167 57.5t-132 149.5l-33 60l-37 -66q-49 -87 -131 -152t-180 -65zM113 424
q0 -66 75 -113t152 -47q152 0 266 195q3 5 12.5 21.5t17 28.5t17 25.5t18.5 21t17 7.5q14 0 27.5 -15.5t30.5 -47.5t22 -39q116 -178 252 -178q70 0 148 45.5t75 103.5q-3 55 -46 105.5t-107 85.5t-139 61.5t-143.5 39.5t-119.5 13q-85 0 -184 -23.5t-187 -63t-146 -100
t-58 -126.5z" />
    <glyph glyph-name="fi" unicode="fi" horiz-adv-x="1058" 
d="M174 0l2 725h-117v139h117v350q0 81 19 109.5t94 28.5h624v-140h-587v-348h473q23 0 39 -2.5t26 -11.5t15.5 -17t8 -27.5t3 -33.5t0.5 -45v-588h108v-139h-135q-19 0 -34 1t-27 4.5t-21 5.5t-15.5 10t-11 11.5t-7.5 15.5t-4.5 17.5t-2 22t-0.5 23.5v28v586h-415v-725
h-152z" />
    <glyph glyph-name="fl" unicode="fl" horiz-adv-x="1069" 
d="M174 0l2 725h-117v139h117v350q0 81 19 109.5t94 28.5h612v-1213h109v-139h-146q-39 0 -62 7t-34 26.5t-13.5 41.5t-2.5 64v1073h-426v-348h235v-139h-235v-725h-152z" />
    <glyph glyph-name="TT" unicode="TT" horiz-adv-x="1470" 
d="M461 0v1212h-402v140h1352v-140h-401v-1212h-148v1212h-254v-1212h-147z" />
    <glyph glyph-name="ff" unicode="ff" horiz-adv-x="1286" 
d="M174 0l2 725h-117v139h117v350q0 81 19 109.5t94 28.5h342v-140h-305v-348h395v350q0 81 19 109.5t94 28.5h393v-140h-357v-348h260v-139h-260v-725h-151l2 725h-395v-725h-152z" />
    <glyph glyph-name="ffj" unicode="ffj" horiz-adv-x="1337" 
d="M174 0l2 725h-117v139h117v350q0 81 19 109.5t94 28.5h342v-140h-305v-348h364v350q0 81 19 109.5t94 28.5h393v-140h-356v-348h438v-1179v-28t-0.5 -24t-2 -22t-4.5 -17t-7.5 -16t-11 -11.5t-15.5 -10t-21 -6t-27 -4.5t-34 -1h-391v140h364v1040h-288v-725h-152l2 725
h-364v-725h-152z" />
    <glyph glyph-name="ffl" unicode="ffl" horiz-adv-x="1456" 
d="M174 0l2 725h-117v139h117v350q0 81 19 109.5t94 28.5h342v-140h-305v-348h364v350q0 81 19 109.5t94 28.5h485v-1213h109v-139h-146q-39 0 -62 7t-34 26.5t-13.5 41.5t-2.5 64v1073h-299v-348h219v-139h-219v-725h-152l2 725h-364v-725h-152z" />
    <glyph glyph-name="fj" unicode="fj" horiz-adv-x="770" 
d="M61 1214q0 81 19 109.5t94 28.5h537v-140h-500v-348h500v-1179v-28t-0.5 -24t-2 -22t-4.5 -17t-7.5 -16t-11 -11.5t-15.5 -10t-21 -6t-27 -4.5t-34 -1h-391v140h364v1040h-350v-725h-152z" />
    <glyph glyph-name="ft" unicode="ft" horiz-adv-x="1275" 
d="M174 0l2 725h-117v139h117v350q0 81 19 109.5t94 28.5h551v-488h250v-139h-250v-586h377v-139h-414q-73 0 -93 29.5t-20 109.5v586h-364v-725h-152zM326 864h364v348h-364v-348z" />
    <glyph glyph-name="ti" unicode="ti" horiz-adv-x="1095" 
d="M319 0q-73 0 -92.5 29t-19.5 110v760h-148v139h148v314h149v-314h478q34 0 53.5 -6.5t28 -26.5t10.5 -40t2 -64v-762h108v-139h-135q-26 0 -45.5 3t-33 6.5t-22 13.5t-13 17t-6.5 24.5t-2.5 29t-0.5 36.5v9v760h-422v-760h265v-139h-302z" />
    <glyph glyph-name="tj" unicode="tj" horiz-adv-x="925" 
d="M319 0q-73 0 -92.5 29t-19.5 110v760h-148v139h148v314h149v-314h510v-1179q0 -78 -9 -98q-17 -38 -93 -42h-21h-391v140h365v1040h-361v-760h265v-139h-302z" />
    <glyph glyph-name="tt" unicode="tt" horiz-adv-x="1161" 
d="M319 0q-73 0 -92.5 29t-19.5 110v760h-148v139h148v314h149v-314h301v314h150v-314h250v-139h-250v-760h295v-139h-332q-73 0 -93 29.5t-20 109.5v760h-301v-760h244v-139h-281z" />
    <glyph glyph-name=".notdef" horiz-adv-x="1357" 
d="M340 211q-60 0 -123 24t-110.5 74.5t-47.5 112.5q0 126 154.5 232t384.5 132l18 2q-15 17 -26.5 46t-11.5 49q0 50 36 86q11 11 11 14q0 7 -9 16q-23 30 -77 93q-13 17 3 32q17 16 34 -3q2 -2 4 -5q46 -73 61 -100q8 -14 13 -16.5t18 -0.5q28 8 55 0q14 -4 24 11q2 2 3 4
l65 104q9 12 21 10t15.5 -12.5t-3.5 -23.5l-35 -45l-39 -54q-6 -8 6 -20q41 -47 41 -92q0 -37 -37 -97q134 -20 250.5 -73t188 -128t71.5 -153q0 -58 -48 -106.5t-111 -72.5t-119 -24q-85 0 -167 57.5t-132 149.5l-33 60l-37 -66q-49 -87 -131 -152t-180 -65zM113 424
q0 -66 75 -113t152 -47q152 0 266 195q3 5 12.5 21.5t17 28.5t17 25.5t18.5 21t17 7.5q14 0 27.5 -15.5t30.5 -47.5t22 -39q116 -178 252 -178q70 0 148 45.5t75 103.5q-3 55 -46 105.5t-107 85.5t-139 61.5t-143.5 39.5t-119.5 13q-85 0 -184 -23.5t-187 -63t-146 -100
t-58 -126.5z" />
    <glyph glyph-name=".null" 
 />
    <glyph glyph-name="nonmarkingreturn" horiz-adv-x="682" 
 />
    <glyph glyph-name="space" unicode=" " horiz-adv-x="874" 
 />
    <glyph glyph-name="space" unicode="&#xa0;" horiz-adv-x="874" 
 />
    <glyph glyph-name="exclam" unicode="!" horiz-adv-x="360" 
d="M102 326v1026h150v-1026h-150zM59 109q0 47 32.5 77.5t86.5 30.5q57 0 90 -30.5t33 -77.5q0 -45 -34.5 -77t-88.5 -32t-86.5 31.5t-32.5 77.5z" />
    <glyph glyph-name="quotedbl" unicode="&#x22;" horiz-adv-x="544" 
d="M170 850l-115 502h142l112 -502h-139zM231 1352h142l112 -502h-139z" />
    <glyph glyph-name="numbersign" unicode="#" horiz-adv-x="1415" 
d="M145 0l209 494h-295l54 139h299l57 139h-295l51 133h301l189 447h149l-190 -447h139l188 447h150l-190 -447h395l-53 -133h-398l-57 -139h397l-57 -139h-397l-209 -494h-150l209 494h-137l-209 -494h-150zM561 633h137l58 139h-138z" />
    <glyph glyph-name="dollar" unicode="$" horiz-adv-x="1089" 
d="M860 956q-35 143 -117 210t-245 67q-140 0 -214.5 -52.5t-74.5 -170.5q0 -32 8.5 -59t21 -46.5t35.5 -37.5t43 -29.5t53 -24.5t56.5 -21t61.5 -20t61 -20q26 -9 73.5 -24t80.5 -25.5t79 -29.5t78 -37.5t66.5 -48t55.5 -62.5t34.5 -79t13.5 -100q0 -73 -23.5 -134
t-63.5 -103t-94.5 -71t-113.5 -43t-123 -15v-117h-118v133q-143 25 -245 121.5t-145 277.5h150q34 -145 118.5 -208t231.5 -68q54 -2 102 10.5t87.5 38.5t62.5 71.5t23 106.5q0 42 -17 76t-39.5 55.5t-66 42.5t-73.5 31.5t-86.5 28t-82.5 26.5q-22 8 -71 23.5t-77.5 25
t-74.5 29t-74 37.5t-61.5 48t-52 62.5t-31.5 78.5t-13 100q0 88 29 155t81.5 109.5t120.5 66t152 29.5v117h119v-117q180 -14 295 -116.5t156 -297.5h-152z" />
    <glyph glyph-name="percent" unicode="%" horiz-adv-x="2394" 
d="M530 219q-72 0 -140 23t-128 70.5t-105 115t-71.5 162.5t-26.5 207q0 139 40 250.5t107 180.5t150.5 105.5t173.5 36.5q96 0 181.5 -36.5t152.5 -106t106.5 -181t39.5 -249.5q0 -139 -39 -251t-106 -182.5t-152.5 -107.5t-182.5 -37zM182 797q0 -117 28.5 -207.5
t77.5 -145.5t110.5 -82.5t131.5 -27.5q76 0 139.5 27.5t112.5 82.5t77 145.5t28 207.5t-28 206.5t-77 143.5t-112.5 81t-139.5 27q-70 0 -131.5 -27.5t-110.5 -81.5t-77.5 -143.5t-28.5 -205.5zM836 -2l569 1352h149l-569 -1352h-149zM1382 567q0 139 40 250.5t107 181
t150.5 106t173.5 36.5q96 0 181.5 -37t152.5 -106.5t106.5 -181t39.5 -249.5q0 -139 -39 -251t-106 -182t-152.5 -107t-182.5 -37q-90 0 -173.5 37t-150.5 107t-107 182t-40 251zM1505 567q0 -117 28.5 -207.5t77.5 -145.5t110.5 -82.5t131.5 -27.5q76 0 139.5 27.5
t112.5 82.5t77 145.5t28 207.5t-28 207t-77 144t-112.5 81t-139.5 27q-70 0 -131.5 -27.5t-110.5 -81.5t-77.5 -144t-28.5 -206z" />
    <glyph glyph-name="ampersand" unicode="&#x26;" horiz-adv-x="1386" 
d="M506 -20q-190 0 -312 112t-122 281q0 152 99 252t245 120l-49 46q-129 132 -129 262q0 141 111.5 230t281.5 89q213 0 334 -127.5t118 -347.5h-153q-3 167 -80.5 260.5t-214.5 93.5q-103 0 -172.5 -60.5t-69.5 -150.5q0 -68 37 -126t125 -144l793 -770h-187l-295 276
q-18 -135 -120 -215.5t-240 -80.5zM219 379q0 -111 87 -193t208 -82q108 0 188 78.5t76 198.5l-276 270q-119 -3 -201 -79.5t-82 -192.5z" />
    <glyph glyph-name="quotesingle" unicode="'" horiz-adv-x="372" 
d="M174 850l-115 502h142l112 -502h-139z" />
    <glyph glyph-name="parenleft" unicode="(" horiz-adv-x="772" 
d="M713 -84q-105 1 -199 27t-178 84t-145 144t-96.5 215t-35.5 288t35.5 287.5t96.5 213.5t145.5 142.5t178 83t198.5 26.5v-147q-117 -2 -209.5 -37t-161.5 -106t-106 -188t-37 -275q0 -159 37 -277t106 -189.5t161.5 -107t209.5 -37.5v-147z" />
    <glyph glyph-name="parenright" unicode=")" horiz-adv-x="772" 
d="M59 63q117 2 209.5 37.5t161.5 107t106 189.5t37 277q0 158 -37 275t-106 188t-161.5 106t-209.5 37v147q105 -1 198.5 -26.5t178 -83t145.5 -142.5t96.5 -213.5t35.5 -287.5t-35.5 -288t-96.5 -215t-145 -144t-178 -84t-199 -27v147z" />
    <glyph glyph-name="asterisk" unicode="*" horiz-adv-x="933" 
d="M408 530v269l-189 -191l-86 86l199 199h-273v121h269l-183 182l84 84l177 -174v246h120v-262l187 186l86 -86l-178 -176h253v-121h-258l191 -191l-84 -84l-197 197v-285h-118z" />
    <glyph glyph-name="plus" unicode="+" horiz-adv-x="892" 
d="M377 207v352h-318v139h316v330h139v-330h320v-139h-320v-352h-137z" />
    <glyph glyph-name="comma" unicode="," horiz-adv-x="344" 
d="M59 -217l86 371h140l-84 -371h-142z" />
    <glyph glyph-name="hyphen" unicode="-" horiz-adv-x="874" 
d="M59 440v140h756v-140h-756z" />
    <glyph glyph-name="period" unicode="." horiz-adv-x="360" 
d="M180 0q-53 0 -87 33t-34 80t34 78.5t87 31.5t87 -31.5t34 -78.5t-34 -80t-87 -33z" />
    <glyph glyph-name="slash" unicode="/" horiz-adv-x="837" 
d="M59 0l570 1352h149l-569 -1352h-150z" />
    <glyph glyph-name="zero" unicode="0" horiz-adv-x="1269" 
d="M629 -20q-109 0 -209.5 45t-182 129.5t-130 220.5t-48.5 303q0 135 32 250t86.5 195.5t127.5 137.5t155 84t169 27q93 0 178 -27.5t158.5 -84t128 -137.5t85.5 -195.5t31 -249.5q0 -168 -47.5 -303.5t-128.5 -220t-184.5 -129.5t-220.5 -45zM209 678q0 -141 34.5 -250.5
t94 -175.5t133.5 -99.5t158 -33.5q92 0 169 33.5t136.5 99.5t93 175t33.5 251t-33.5 250.5t-93 174t-136.5 98t-169 32.5q-84 0 -158 -33t-133.5 -98.5t-94 -174.5t-34.5 -249z" />
    <glyph glyph-name="one" unicode="1" horiz-adv-x="632" 
d="M59 0v139h187v1073h-156v140h305v-1213h178v-139h-514z" />
    <glyph glyph-name="two" unicode="2" horiz-adv-x="1085" 
d="M156 242q11 95 42 161.5t88.5 111.5t127 73t174.5 53q141 33 215 97t74 175q0 157 -94.5 238.5t-262.5 81.5q-146 0 -228.5 -91.5t-82.5 -250.5h-150q-4 220 128 350.5t333 130.5q107 0 197 -27.5t160 -82.5t109.5 -144t39.5 -205q0 -317 -424 -415q-76 -18 -122 -35
t-84 -45.5t-58.5 -70.5t-30.5 -105l-14 -103h696v-139h-860z" />
    <glyph glyph-name="three" unicode="3" horiz-adv-x="1110" 
d="M649 874q61 -10 116 -30t108.5 -55.5t92 -82.5t62 -116t23.5 -152q0 -206 -133 -332t-359 -126q-140 0 -253.5 68t-177.5 182t-69 251h150q21 -179 111.5 -270.5t238.5 -91.5q342 0 342 319q0 64 -18 114.5t-52 83t-75 54.5t-96 33t-105 15.5t-111 4.5v119l322 355h-660
v139l877 -4v-113z" />
    <glyph glyph-name="four" unicode="4" horiz-adv-x="1144" 
d="M59 457l588 895h133v-858h305v-150h-305v-344h-149v344l-572 2v111zM262 494h369v565z" />
    <glyph glyph-name="five" unicode="5" horiz-adv-x="1118" 
d="M59 653l117 699h754v-140h-627l-57 -340q102 181 342 181q217 0 344 -143t127 -380q0 -151 -61 -275.5t-176 -199.5t-263 -75q-186 0 -315.5 118.5t-161.5 296.5h158q33 -126 115 -196t204 -70q160 0 255 110.5t95 290.5q0 184 -90 283.5t-262 99.5q-282 0 -324 -260
h-174z" />
    <glyph glyph-name="six" unicode="6" horiz-adv-x="1110" 
d="M860 1028q-28 99 -113.5 152t-193.5 53q-342 0 -342 -404v-88q94 238 371 238q212 0 340.5 -128.5t128.5 -348.5q0 -230 -137.5 -376t-362.5 -146q-223 0 -357.5 146t-134.5 376v319q0 268 125 409.5t367 141.5q195 1 316 -93t163 -253zM211 496q0 -172 89 -269.5
t251 -97.5t256 100.5t94 266.5q0 168 -88.5 259t-261.5 91q-166 0 -253 -98.5t-87 -251.5z" />
    <glyph glyph-name="seven" unicode="7" horiz-adv-x="927" 
d="M868 1233l-407 -1233h-152l408 1212h-658v140h809v-119z" />
    <glyph glyph-name="eight" unicode="8" horiz-adv-x="1034" 
d="M510 -20q-219 0 -334 106.5t-117 284.5q0 124 58.5 207.5t152.5 121.5q-211 75 -211 299q0 174 118.5 273.5t332.5 99.5q211 0 338 -100t127 -273q0 -112 -57 -189.5t-162 -109.5q107 -40 163 -119t56 -210q0 -177 -121.5 -284t-343.5 -107zM209 371q0 -252 301 -252
q158 0 235.5 66.5t77.5 185.5q0 133 -76 200.5t-237 67.5q-301 0 -301 -268zM209 999q0 -229 301 -229q161 0 238 60.5t75 168.5q0 109 -76.5 171.5t-236.5 62.5q-153 0 -227 -62.5t-74 -171.5z" />
    <glyph glyph-name="nine" unicode="9" horiz-adv-x="1110" 
d="M250 322q28 -99 113.5 -152t193.5 -53q342 0 342 403v88q-94 -237 -371 -237q-212 0 -340.5 128.5t-128.5 348.5q0 230 137.5 376t362.5 146q223 0 357.5 -146t134.5 -376v-320q0 -268 -125 -409.5t-367 -141.5q-195 -1 -316 93.5t-163 253.5zM209 854q0 -168 88.5 -259
t261.5 -91q166 0 253 98.5t87 251.5q0 172 -89 269.5t-251 97.5t-256 -100.5t-94 -266.5z" />
    <glyph glyph-name="colon" unicode=":" horiz-adv-x="362" 
d="M182 147q-53 0 -87 33t-34 80t34 79t87 32t87 -32t34 -79t-34 -80t-87 -33zM59 979q0 47 34 79t87 32t87 -32t34 -79t-34 -80t-87 -33t-87 33t-34 80z" />
    <glyph glyph-name="semicolon" unicode=";" horiz-adv-x="407" 
d="M227 866q-53 0 -87 33t-34 80t34 79t87 32t87 -32t34 -79t-34 -80t-87 -33zM59 -150l86 371h140l-84 -371h-142z" />
    <glyph glyph-name="less" unicode="&#x3c;" horiz-adv-x="786" 
d="M537 133l-478 438l500 430h168l-498 -432l473 -436h-165z" />
    <glyph glyph-name="equal" unicode="=" horiz-adv-x="839" 
d="M59 666v139h721v-139h-721zM59 422v139h721v-139h-721z" />
    <glyph glyph-name="greater" unicode="&#x3e;" horiz-adv-x="788" 
d="M86 133l473 436l-500 432h170l500 -430l-477 -438h-166z" />
    <glyph glyph-name="question" unicode="?" horiz-adv-x="1081" 
d="M92 346q0 54 12 100t29.5 79t49.5 62.5t58 47.5t71 38t72 29.5t76.5 25.5t71.5 24q23 8 61 20t61.5 20t56.5 21t53 24.5t43 29.5t35.5 37.5t21 46.5t8.5 59q0 118 -74 170.5t-214 52.5q-173 0 -258.5 -68t-104.5 -209h-151q54 419 514 416q94 0 171 -20.5t138 -62.5
t95 -113t34 -166q0 -54 -13 -100t-31.5 -78.5t-52 -62.5t-61.5 -48t-74 -37.5t-74.5 -29t-77.5 -25t-71 -23.5q-19 -7 -60 -20.5t-60.5 -20t-53 -20.5t-50.5 -25.5t-39.5 -30t-33 -38t-18.5 -46.5t-8 -59v-86h-152v86zM66 88q0 39 29 67.5t79 28.5t79.5 -28.5t29.5 -67.5
t-30 -68.5t-79 -29.5q-50 0 -79 29.5t-29 68.5z" />
    <glyph glyph-name="at" unicode="@" horiz-adv-x="1298" 
d="M651 111q-121 0 -228.5 45.5t-188.5 127.5t-128 206.5t-47 273.5t46.5 266.5t127.5 191t187 112t229 38.5t229 -37.5t187 -110.5t127.5 -190t46.5 -266q-3 -403 -240 -403q-72 0 -114 49t-47 116q-69 -139 -224 -145q-139 -9 -224 86.5t-85 257.5q0 161 85 256.5
t224 89.5q73 -3 133.5 -42t90.5 -105v135h98v-457q0 -20 2.5 -38t9.5 -38t22 -32.5t36 -12.5q56 -1 80 68.5t22 214.5q-1 121 -35 212.5t-96.5 148t-144.5 84.5t-183 28q-97 0 -177.5 -28.5t-142 -85.5t-96 -149.5t-34.5 -213.5q0 -132 38 -233.5t103 -160t143.5 -87.5
t167.5 -29v-143zM406 729q0 -117 57 -179.5t151 -62.5q88 0 148.5 63.5t60.5 178.5q0 110 -57.5 177t-151.5 67t-151 -63t-57 -181z" />
    <glyph glyph-name="A" unicode="A" horiz-adv-x="1404" 
d="M59 0l596 1352h117l574 -1352h-158l-178 410h-607l-184 -410h-160zM467 555h479l-231 565z" />
    <glyph glyph-name="B" unicode="B" horiz-adv-x="1077" 
d="M160 0q-56 0 -78.5 22t-22.5 80v1147q0 59 22.5 81t78.5 22h366q243 0 364.5 -96.5t121.5 -272.5q0 -109 -61 -195t-158 -114q108 -40 166.5 -119.5t58.5 -185.5q0 -176 -122 -272.5t-370 -96.5h-366zM209 139h317q98 0 166.5 17t106 50t53.5 74t16 95q0 110 -80 169.5
t-262 59.5h-317v-465zM209 745h317q186 0 261 63t75 179q0 56 -15.5 96t-53 70t-104 44.5t-163.5 14.5h-317v-467z" />
    <glyph glyph-name="C" unicode="C" horiz-adv-x="1433" 
d="M1374 487q-57 -226 -235 -366.5t-408 -140.5q-138 0 -262 52t-214 141.5t-143 215.5t-53 268q0 195 86.5 356t241.5 255t346 94q237 0 408.5 -138t228.5 -362h-151q-53 169 -185.5 266t-300.5 97q-109 0 -205.5 -41.5t-167.5 -114.5t-112 -178.5t-41 -226.5
q0 -117 40.5 -219t110 -174t166.5 -113t207 -41q179 0 310.5 100t181.5 270h151z" />
    <glyph glyph-name="D" unicode="D" horiz-adv-x="1241" 
d="M164 0q-68 0 -86.5 21t-18.5 90v1132q0 68 19 88.5t86 20.5h381q108 0 202 -24t174.5 -76t138 -129t90 -188t32.5 -247q0 -170 -49.5 -303t-136.5 -216t-201.5 -126t-249.5 -43h-381zM209 139h336q103 0 190 35t153.5 101.5t104 172.5t37.5 240q0 142 -37 246
t-104.5 163.5t-152.5 87t-191 27.5h-336v-1073z" />
    <glyph glyph-name="E" unicode="E" horiz-adv-x="1052" 
d="M164 0q-67 0 -86 21.5t-19 91.5v1130q0 68 19 88.5t86 20.5h829v-140h-784v-477h670v-139h-670v-457h782v-139h-827z" />
    <glyph glyph-name="F" unicode="F" horiz-adv-x="1032" 
d="M59 1243q0 68 19 88.5t86 20.5h809v-140h-764v-477h618v-139h-618v-596h-150v1243z" />
    <glyph glyph-name="G" unicode="G" horiz-adv-x="1474" 
d="M1415 0v139h-94v451q0 82 -25 106.5t-104 24.5h-465v-139h455q0 -121 -40.5 -213t-110.5 -145t-154.5 -79t-182.5 -26q-103 0 -190 35.5t-153.5 103.5t-104 176t-37.5 244t38 243.5t104.5 174.5t153.5 102t189 35q176 0 289.5 -81.5t151.5 -242.5h151q-26 105 -75 187
t-107.5 133t-130 84t-139.5 46t-140 13q-99 0 -190.5 -25.5t-173 -80.5t-141.5 -135t-95 -195.5t-35 -255.5q0 -168 52.5 -304.5t141 -222t201.5 -130.5t238 -43q173 4 296.5 80t193.5 214v-165q0 -67 19 -88t87 -21h127z" />
    <glyph glyph-name="H" unicode="H" horiz-adv-x="1101" 
d="M59 0v1352h152v-613h682v613h149v-1352h-149v600h-684v-600h-150z" />
    <glyph glyph-name="I" unicode="I" horiz-adv-x="485" 
d="M59 0v139h109v1073h-109v140h367v-140h-109v-1073h109v-139h-367z" />
    <glyph glyph-name="J" unicode="J" horiz-adv-x="794" 
d="M631 1352q68 0 86 -20.5t18 -88.5v-792q0 -129 -30.5 -217t-95 -139.5t-154 -73t-217.5 -21.5h-179v139h179q97 0 160.5 15.5t107 55t62 105t18.5 166.5v731h-221v140h266z" />
    <glyph glyph-name="K" unicode="K" horiz-adv-x="1019" 
d="M59 1352h152v-541l549 541h198l-657 -650h530q79 0 104.5 -24t25.5 -105v-573h-150v563h-600l-2 -563h-150v1352z" />
    <glyph glyph-name="L" unicode="L" horiz-adv-x="901" 
d="M61 152l-2 1200h150v-1213h633v-139h-631q-38 0 -62 1.5t-42 9.5t-26.5 16t-13.5 29t-5.5 39.5t-0.5 56.5z" />
    <glyph glyph-name="M" unicode="M" horiz-adv-x="1349" 
d="M59 0v1352h152l463 -613l479 613h137v-1352h-149l2 1135l-416 -543h-106l-410 532v-1124h-152z" />
    <glyph glyph-name="N" unicode="N" horiz-adv-x="1165" 
d="M59 0v1352h125l772 -1073v1073h150l-4 -1352h-123l-770 1067v-1067h-150z" />
    <glyph glyph-name="O" unicode="O" horiz-adv-x="1454" 
d="M731 -20q-138 0 -262 52t-214 141.5t-143 215.5t-53 268q0 195 86.5 356t241.5 255t346 94q143 0 267 -54.5t210.5 -148t135.5 -222t49 -273.5q0 -142 -52 -269.5t-141 -218t-212 -143.5t-259 -53zM209 664q0 -117 39.5 -218.5t108.5 -173t165.5 -112.5t206.5 -41
q144 0 261.5 67.5t186 192t68.5 283.5q0 246 -146.5 403.5t-365.5 157.5q-145 0 -265 -71.5t-189.5 -200t-69.5 -287.5z" />
    <glyph glyph-name="P" unicode="P" horiz-adv-x="1024" 
d="M59 1249q0 59 22 81t77 22h311q112 0 199.5 -25.5t142.5 -67.5t90.5 -101t49.5 -120.5t14 -130.5t-14 -130.5t-49.5 -120.5t-90.5 -101.5t-142.5 -68t-199.5 -25.5h-260v-461h-150v1249zM209 600h260q104 0 175 24.5t107 70t50 96t14 116.5q0 54 -6.5 94t-28 82
t-58.5 68.5t-101 43.5t-152 17h-260v-612z" />
    <glyph glyph-name="Q" unicode="Q" horiz-adv-x="1454" 
d="M59 657q0 195 86.5 356t241.5 255t346 94q143 0 267 -54.5t210.5 -148t135.5 -222t49 -273.5q0 -264 -164.5 -454.5t-413.5 -221.5l-33 -144h172v-135h-235q-114 0 -88 123l31 152q-126 11 -237.5 68t-192.5 145t-128 207.5t-47 252.5zM209 664q0 -117 39.5 -218.5
t108.5 -173t165.5 -112.5t206.5 -41q144 0 261.5 67.5t186 192t68.5 283.5q0 246 -146.5 403.5t-365.5 157.5q-145 0 -265 -71.5t-189.5 -200t-69.5 -287.5z" />
    <glyph glyph-name="R" unicode="R" horiz-adv-x="1024" 
d="M59 1249q0 59 22 81t77 22h331q476 0 476 -422q0 -135 -61.5 -228.5t-182.5 -123.5q91 -29 147 -86.5t76.5 -126t20.5 -158.5v-207h-150v207q0 54 -6.5 94t-28 82t-58.5 68.5t-101 43.5t-152 17h-260v-512h-150v1249zM209 651h260q99 0 168 20t107 58.5t54.5 87
t16.5 113.5q0 64 -14 111.5t-49 88t-103.5 61.5t-169.5 21h-270v-561z" />
    <glyph glyph-name="S" unicode="S" horiz-adv-x="1101" 
d="M889 999q-42 116 -133.5 175t-257.5 59q-299 0 -299 -223q0 -26 5.5 -48.5t13.5 -40t24 -34t29.5 -28t37.5 -24t41 -20t47 -17.5t48.5 -15.5t52 -15t51.5 -15.5q23 -7 68.5 -20.5t74.5 -22.5t72.5 -24t72 -30.5t63.5 -37.5t57.5 -48t43 -59t30 -74.5t9.5 -89.5
q0 -75 -24.5 -137t-66.5 -103.5t-98 -70.5t-118 -42t-129 -13q-206 0 -340.5 87t-191.5 289h151q40 -123 133.5 -178.5t247.5 -58.5q59 -1 108.5 11t90 38t63.5 71.5t23 106.5q0 32 -9.5 59t-24 47t-40 38.5t-48 30t-59 25t-62 21t-67.5 20t-65 19.5q-19 6 -60 18t-64 19
t-62 21t-62.5 25.5t-56.5 30.5t-53 38t-43 46t-35 56.5t-20.5 68t-8.5 81.5q0 76 22.5 137t62.5 103t97 69.5t123.5 40t143.5 12.5q442 0 546 -373h-155z" />
    <glyph glyph-name="T" unicode="T" horiz-adv-x="1071" 
d="M461 0v1212h-402v140h953v-140h-404v-1212h-147z" />
    <glyph glyph-name="U" unicode="U" horiz-adv-x="1304" 
d="M655 -20q-100 0 -186 22t-162.5 72.5t-130.5 127.5t-85.5 193t-31.5 262v695h150v-695q0 -116 23.5 -208.5t64 -153.5t98 -101t122 -57.5t138.5 -17.5q99 0 177.5 30t138.5 93t92.5 168t32.5 247v695h149v-695q0 -146 -29 -260.5t-80 -192t-125.5 -128.5t-162.5 -73.5
t-193 -22.5z" />
    <glyph glyph-name="V" unicode="V" horiz-adv-x="1421" 
d="M629 0l-570 1352h160l486 -1147l497 1147h160l-592 -1352h-141z" />
    <glyph glyph-name="W" unicode="W" horiz-adv-x="1837" 
d="M59 1352h160l385 -1069l258 1069h113l256 -1069l387 1069h160l-496 -1352h-133l-229 956l-232 -956h-133z" />
    <glyph glyph-name="X" unicode="X" horiz-adv-x="1296" 
d="M59 0l494 674l-492 678h166l406 -557l434 557h166l-520 -678l524 -674h-166l-438 559l-408 -559h-166z" />
    <glyph glyph-name="Y" unicode="Y" horiz-adv-x="1239" 
d="M59 1352h162l379 -678l418 678h162l-508 -824v-528h-150v528z" />
    <glyph glyph-name="Z" unicode="Z" horiz-adv-x="1081" 
d="M59 1202v150h963v-113l-756 -1089h756v-150h-963v115l760 1087h-760z" />
    <glyph glyph-name="bracketleft" unicode="[" horiz-adv-x="772" 
d="M59 -213v1778h654v-140h-514v-1499h514v-139h-654z" />
    <glyph glyph-name="backslash" unicode="\" horiz-adv-x="837" 
d="M778 0h-149l-570 1352h150z" />
    <glyph glyph-name="bracketright" unicode="]" horiz-adv-x="772" 
d="M713 -213h-654v139h514v1499h-514v140h654v-1778z" />
    <glyph glyph-name="asciicircum" unicode="^" horiz-adv-x="1054" 
d="M59 584l471 788l465 -786h-131l-332 563l-342 -565h-131z" />
    <glyph glyph-name="underscore" unicode="_" horiz-adv-x="892" 
d="M59 0v139h775v-139h-775z" />
    <glyph glyph-name="a" unicode="a" horiz-adv-x="1214" 
d="M535 -20q-216 3 -346 149.5t-130 386.5q0 245 130 394t346 149q136 0 235 -60t152 -170v209h149v-899h84v-139h-127q-68 0 -87 19t-19 81v115q-117 -238 -387 -235zM209 516q0 -183 95 -290t261 -107q162 0 259.5 108t97.5 289q0 184 -100 294t-257 110
q-161 2 -258.5 -108t-97.5 -296z" />
    <glyph glyph-name="b" unicode="b" horiz-adv-x="1130" 
d="M596 -20q-270 -3 -385 231v-211h-150l-2 1352h150v-523q117 233 387 230q217 -3 346 -150t129 -393q0 -240 -129.5 -386.5t-345.5 -149.5zM211 520q0 -181 99.5 -291t256.5 -110q161 0 258 107.5t97 289.5q0 188 -95 296.5t-260 107.5q-161 0 -258.5 -109.5t-97.5 -290.5
z" />
    <glyph glyph-name="c" unicode="c" horiz-adv-x="1120" 
d="M1059 399q-33 -188 -166.5 -307.5t-319.5 -118.5q-157 1 -275 73.5t-178.5 194.5t-60.5 275q0 242 138 392.5t376 150.5q185 0 319 -113.5t169 -298.5h-150q-26 129 -119.5 202.5t-230.5 70.5q-170 -3 -261 -112t-91 -292q0 -175 99 -289t263 -114q136 0 222.5 78
t115.5 208h150z" />
    <glyph glyph-name="d" unicode="d" horiz-adv-x="1130" 
d="M535 -20q-216 3 -346 149.5t-130 386.5q0 246 130 394.5t346 148.5q134 0 234 -60t153 -168v521h149v-1352h-149v211q-115 -234 -387 -231zM209 516q0 -182 97.5 -289.5t258.5 -107.5q156 0 256.5 108.5t100.5 288.5q0 186 -97.5 295t-259.5 109q-166 1 -261 -107.5
t-95 -296.5z" />
    <glyph glyph-name="e" unicode="e" horiz-adv-x="1128" 
d="M1049 358q-42 -174 -170 -276t-312 -102q-226 0 -367 149t-141 385q0 254 136.5 399.5t363.5 145.5q213 0 362 -149.5t148 -393.5l-860 -2q0 -180 102 -287.5t256 -107.5q130 0 213.5 63t118.5 176h150zM221 625h688q-23 137 -116.5 216t-233.5 79q-135 0 -224.5 -80
t-113.5 -215z" />
    <glyph glyph-name="f" unicode="f" horiz-adv-x="772" 
d="M174 0l2 725h-117v139h117v350q0 81 19 109.5t94 28.5h424v-140h-387v-348h219v-139h-219v-725h-152z" />
    <glyph glyph-name="g" unicode="g" horiz-adv-x="1138" 
d="M418 -498q-168 0 -263.5 71t-95.5 204q0 117 98 191.5t261 74.5h315q73 0 120.5 23.5t41.5 72.5q-1 23 -23 41t-49 21q-120 -90 -278 -90q-211 0 -348.5 133.5t-137.5 337.5q0 212 137 344.5t355 132.5q109 0 176 -21h311v-108h-141q70 -65 110 -159t40 -189
q0 -176 -103 -303q40 -20 70 -61t30 -95q0 -104 -86 -161.5t-237 -57.5h-303q-98 0 -153.5 -38t-55.5 -104q0 -131 209 -131h268q182 0 182 166h142q0 -142 -82 -218.5t-242 -76.5h-268zM209 582q0 -144 96.5 -238t239.5 -94q160 0 256 89t96 243t-91 246t-259 92
q-153 0 -245.5 -94t-92.5 -244z" />
    <glyph glyph-name="h" unicode="h" horiz-adv-x="1028" 
d="M61 0l-2 1352h150v-514q46 101 133 160.5t207 60.5q200 6 310 -139t110 -400v-520h-150v520q0 197 -74 298.5t-217 101.5t-231 -105t-88 -295l2 -520h-150z" />
    <glyph glyph-name="i" unicode="i" horiz-adv-x="485" 
d="M215 1038q26 0 43 -2.5t28.5 -11t17.5 -16t9 -27.5t3.5 -34t0.5 -46v-762h109v-139h-135q-19 0 -34 1t-27 4.5t-21 5.5t-15.5 10t-11 11.5t-7.5 15.5t-4.5 17.5t-2 22t-0.5 23.5v28v760h-109v139h156zM86 1274q0 43 30 71.5t79 28.5q47 0 76.5 -28.5t29.5 -71.5
t-29.5 -71.5t-76.5 -28.5q-49 0 -79 28.5t-30 71.5z" />
    <glyph glyph-name="j" unicode="j" horiz-adv-x="671" 
d="M59 -455v140h365v1353h149v-1353q0 -77 -8 -97q-16 -38 -88 -42q-12 -1 -26 -1h-392zM395 1274q0 43 31 71.5t78 28.5t77.5 -28.5t30.5 -71.5t-30.5 -71.5t-77.5 -28.5t-78 28.5t-31 71.5z" />
    <glyph glyph-name="k" unicode="k" horiz-adv-x="942" 
d="M682 0v477h-473v-477h-150v1352h150v-662l479 348h195l-570 -422h408q21 0 36.5 -1.5t27.5 -6.5t19.5 -9t13 -15.5t8 -18t4 -25t1.5 -28.5v-35v-477h-149z" />
    <glyph glyph-name="l" unicode="l" horiz-adv-x="376" 
d="M172 0q-73 0 -93 29.5t-20 109.5v1213h150v-1213h108v-139h-145z" />
    <glyph glyph-name="m" unicode="m" horiz-adv-x="1814" 
d="M61 0l-2 1038h150v-196q54 99 138.5 157.5t195.5 59.5q138 3 240 -76t137 -203q42 126 150.5 202.5t238.5 76.5q199 0 322.5 -134t123.5 -382v-543h-149v532q0 198 -73 293t-224 95q-149 0 -234.5 -100.5t-85.5 -287.5l2 -532h-149v532q0 195 -73 291.5t-226 96.5
q-148 0 -240 -102t-92 -277v-541h-150z" />
    <glyph glyph-name="n" unicode="n" horiz-adv-x="1036" 
d="M59 0v1038h150v-200q45 101 131.5 160.5t206.5 60.5q203 6 316.5 -124t113.5 -374v-561h-150v561q0 359 -301 359q-141 0 -230 -104.5t-89 -285.5l2 -530h-150z" />
    <glyph glyph-name="o" unicode="o" horiz-adv-x="1148" 
d="M573 -27q-149 1 -267 72t-182.5 194t-64.5 275q0 240 142.5 392.5t371.5 152.5q233 0 375 -153t142 -392q0 -234 -145 -388t-372 -153zM209 514q0 -173 102 -287.5t260 -113.5q162 0 265.5 114t103.5 287q0 182 -102 294t-265 112q-161 2 -262.5 -109t-101.5 -297z" />
    <glyph glyph-name="p" unicode="p" horiz-adv-x="1130" 
d="M59 -313l2 1351h150l-2 -209q55 110 155.5 170.5t235.5 59.5q214 -1 342.5 -149t128.5 -388q0 -245 -129.5 -393.5t-345.5 -148.5q-134 0 -234 59.5t-153 169.5v-522h-150zM211 522q0 -185 97 -293t259 -110q165 0 260 108t95 295q0 182 -97 290t-258 108
q-157 0 -256.5 -108.5t-99.5 -289.5z" />
    <glyph glyph-name="q" unicode="q" horiz-adv-x="1130" 
d="M1071 -313h-149v522q-53 -110 -153 -169.5t-234 -59.5q-216 0 -346 148.5t-130 393.5q0 240 130 388t346 149q272 3 387 -230v209h149v-1351zM209 522q0 -187 94.5 -295t261.5 -108q162 2 259.5 110t97.5 293q0 180 -100.5 289t-256.5 109q-161 0 -258.5 -108t-97.5 -290
z" />
    <glyph glyph-name="r" unicode="r" horiz-adv-x="604" 
d="M59 901q0 80 20 108.5t93 28.5h373v-139h-336v-899h-150v901z" />
    <glyph glyph-name="s" unicode="s" horiz-adv-x="907" 
d="M231 272q20 -87 89 -121t182 -34q97 0 150 34t53 115q0 72 -59 111.5t-187 71.5q-64 15 -114 31.5t-105.5 44t-92.5 60.5t-61 81.5t-23 107.5q0 63 21.5 112.5t56.5 81t82.5 52.5t96.5 29.5t102 9.5q61 0 120 -15.5t118.5 -49.5t106.5 -99.5t69 -155.5h-150
q-24 90 -91.5 135.5t-168.5 45.5q-98 0 -158.5 -34.5t-60.5 -113.5q3 -130 287 -197q62 -15 108 -30.5t94.5 -41t79.5 -56t51 -76t21 -101.5q1 -145 -95.5 -217.5t-240.5 -72.5q-376 0 -432 292h151z" />
    <glyph glyph-name="t" unicode="t" horiz-adv-x="792" 
d="M319 0q-73 0 -92.5 29t-19.5 110v760h-148v139h148v314h149v-314h250v-139h-250v-760h377v-139h-414z" />
    <glyph glyph-name="u" unicode="u" horiz-adv-x="1110" 
d="M926 0q-68 0 -87.5 19.5t-19.5 80.5v101q-46 -99 -133 -158.5t-207 -62.5q-203 -5 -311.5 132t-108.5 396v530h150v-530q0 -202 73 -295.5t218 -93.5q142 0 230.5 104t88.5 285v530h150v-899h82v-139h-125z" />
    <glyph glyph-name="v" unicode="v" horiz-adv-x="1120" 
d="M899 1038h162l-453 -1038h-119l-430 1038h162l330 -839z" />
    <glyph glyph-name="w" unicode="w" horiz-adv-x="1421" 
d="M59 1038h150l197 -837l241 837h129l256 -837l180 837h150l-236 -1038h-155l-256 819l-254 -819h-156z" />
    <glyph glyph-name="x" unicode="x" horiz-adv-x="1062" 
d="M59 0l383 522l-376 516h165l297 -426l312 426h164l-396 -516l389 -522h-163l-306 436l-303 -436h-166z" />
    <glyph glyph-name="y" unicode="y" horiz-adv-x="1116" 
d="M59 1038h152l299 -788l395 788h152l-633 -1255q-16 -33 -30 -47t-27 -16.5t-47 -2.5h-15h-166v140h162l125 252z" />
    <glyph glyph-name="z" unicode="z" horiz-adv-x="966" 
d="M59 889v149h832v-145l-615 -743h625v-150h-821v150l627 739h-648z" />
    <glyph glyph-name="braceleft" unicode="{" horiz-adv-x="724" 
d="M666 -18q-212 10 -318 117t-106 298q0 78 -10.5 125.5t-36.5 70.5t-55 29.5t-81 6.5v116q97 6 139.5 55t43.5 183q5 194 112 299t312 117v-123q-146 -14 -215.5 -82t-69.5 -211q0 -112 -27.5 -184t-93.5 -109q66 -35 93.5 -108t27.5 -185q0 -268 285 -295v-120z" />
    <glyph glyph-name="bar" unicode="|" horiz-adv-x="258" 
d="M59 -43v1432h140v-1432h-140z" />
    <glyph glyph-name="braceright" unicode="}" horiz-adv-x="724" 
d="M59 102q285 27 285 295q0 112 27.5 185t93.5 108q-66 37 -93.5 109t-27.5 184q0 143 -69.5 211t-215.5 82v123q205 -12 312 -117t112 -299q1 -134 43.5 -183t139.5 -55v-116q-52 0 -81 -6.5t-55 -29.5t-36.5 -70.5t-10.5 -125.5q0 -191 -106 -298t-318 -117v120z" />
    <glyph glyph-name="exclamdown" unicode="&#xa1;" horiz-adv-x="382" 
d="M102 1026h150v-1026h-150v1026zM59 1243q0 46 32.5 77.5t86.5 31.5t88.5 -32t34.5 -77q0 -47 -33 -77.5t-90 -30.5q-54 0 -86.5 30.5t-32.5 77.5z" />
    <glyph glyph-name="cent" unicode="&#xa2;" horiz-adv-x="1378" 
d="M1319 506q-45 -231 -200 -368.5t-371 -155.5v-211h-121l2 213q-118 12 -221 64t-181 137.5t-123 210.5t-45 274q0 151 44 277.5t121.5 214t181 141t223.5 65.5v207h121l-2 -205q217 -15 368.5 -147.5t198.5 -358.5h-154q-45 179 -169 274t-296 95q-102 0 -190 -37.5
t-154.5 -106.5t-104.5 -176t-38 -239q0 -256 137 -405.5t350 -149.5q178 0 304 100.5t167 286.5h152z" />
    <glyph glyph-name="sterling" unicode="&#xa3;" horiz-adv-x="1200" 
d="M84 139q234 150 240 299h-265v121l240 -2q-115 166 -123 332q-9 225 101.5 354t347.5 129q85 -1 154 -14.5t133 -47.5t109.5 -88t76.5 -139t39 -196h-146q-7 186 -98 265t-268 81q-171 0 -244 -79.5t-70 -248.5q1 -84 34 -166t95 -182h424v-119h-399q0 -72 -49.5 -150.5
t-130.5 -148.5h843v-139h-1044v139z" />
    <glyph glyph-name="yen" unicode="&#xa5;" horiz-adv-x="1239" 
d="M59 1352h162l379 -678l418 678h162l-508 -824v-67h358v-139h-358v-105h358v-139h-358v-78h-150v78h-350v139h350v105h-350v139h350v67z" />
    <glyph glyph-name="section" unicode="&#xa7;" horiz-adv-x="1038" 
d="M244 92q21 -49 53 -82.5t74 -50.5t85.5 -24t98.5 -7q58 0 105 8.5t87 26.5t62 51.5t22 79.5q0 141 -319 195q-87 16 -161.5 41t-143 64.5t-108 98t-40.5 130.5q0 182 177 247q-146 87 -146 220q-1 66 21.5 116.5t59 81t90 50t106 26.5t114.5 8q338 0 430 -282h-123
q-62 165 -315 161q-63 0 -107 -6t-82 -22.5t-57 -49t-18 -81.5q3 -152 346 -215q63 -11 118.5 -26t113 -41t98.5 -58.5t67 -81t27 -105.5q1 -93 -51.5 -155t-136.5 -93q156 -80 159 -221q1 -64 -23.5 -114.5t-63 -82t-91.5 -52.5t-105.5 -29t-107.5 -8q-51 0 -92 4.5
t-95.5 21t-97 45.5t-85.5 83t-72 128h127zM180 623q3 -152 344 -215q92 -11 166.5 -2t122 50t47.5 107q0 141 -319 195q-11 2 -54 14t-67 14q-107 11 -174 -31t-66 -132z" />
    <glyph glyph-name="copyright" unicode="&#xa9;" horiz-adv-x="1140" 
d="M567 207q-103 0 -194 37.5t-161.5 109t-111.5 184.5t-41 255q0 141 41 253t111.5 182t161 107t194.5 37q109 0 201.5 -36.5t163 -107t110 -182.5t39.5 -253q0 -142 -40 -255t-110 -184.5t-162.5 -109t-201.5 -37.5zM150 791q0 -126 32 -222.5t89.5 -156t132 -89.5
t163.5 -30q195 0 310.5 125t115.5 373q0 246 -116 370.5t-310 124.5q-89 0 -163.5 -30t-132 -89.5t-89.5 -155.5t-32 -220zM236 788q0 160 89.5 259.5t243.5 99.5q123 0 211 -75t111 -198h-88q-17 89 -81 140t-159 51q-116 -1 -177.5 -76.5t-61.5 -200.5q0 -121 66.5 -198.5
t178.5 -77.5q92 0 152.5 54.5t81.5 144.5h86q-22 -124 -109 -202.5t-211 -78.5q-153 1 -243 102t-90 256z" />
    <glyph glyph-name="ordfeminine" unicode="&#xaa;" horiz-adv-x="901" 
d="M397 600q-153 1 -245.5 106.5t-92.5 276.5q0 175 92.5 281t245.5 106q99 0 169.5 -42.5t107.5 -121.5v150h108v-641h60v-101h-90q-50 0 -64 14t-14 58v82q-82 -171 -277 -168zM166 983q0 -130 67.5 -207.5t186.5 -77.5q115 0 184.5 78t69.5 207q0 132 -71 210.5
t-183 78.5q-115 0 -184.5 -78t-69.5 -211z" />
    <glyph glyph-name="guillemotleft" unicode="&#xab;" horiz-adv-x="1040" 
d="M532 137l-477 434l500 430h156l-496 -436l473 -428h-156zM326 571l499 430h156l-496 -436l473 -428h-155z" />
    <glyph glyph-name="registered" unicode="&#xae;" horiz-adv-x="1017" 
d="M506 348q-91 0 -171 33t-142 95.5t-98 162t-36 223.5t36 223t98.5 161t142 94t170.5 32q96 0 177.5 -32t143 -94t96.5 -160.5t35 -223.5t-35 -224t-96.5 -161.5t-143 -95.5t-177.5 -33zM129 862q0 -223 104.5 -336.5t272.5 -113.5q176 0 279.5 112.5t103.5 337.5
q0 222 -103.5 334.5t-279.5 112.5q-167 0 -272 -113.5t-105 -333.5zM319 567v607h185q62 0 107 -17t69 -46t34.5 -62t10.5 -72q0 -60 -28 -109.5t-85 -66.5q103 -34 103 -166v-68h-60v68q0 31 -5.5 53.5t-21.5 44.5t-49.5 33.5t-84.5 11.5h-117v-211h-58zM377 831h127
q162 0 162 146q0 30 -6 53t-22.5 44t-50 32.5t-83.5 11.5h-127v-287z" />
    <glyph glyph-name="degree" unicode="&#xb0;" horiz-adv-x="542" 
d="M272 963q-98 0 -155.5 61.5t-57.5 144.5q0 84 59 144.5t156 60.5q96 0 152.5 -60.5t56.5 -144.5t-56 -145t-155 -61zM113 1167q0 -64 41.5 -107.5t117.5 -43.5q77 0 117.5 43t40.5 108q0 66 -42 110t-114 44q-71 0 -116 -44t-45 -110z" />
    <glyph glyph-name="plusminus" unicode="&#xb1;" horiz-adv-x="901" 
d="M377 438v353h-318v139h316v330h139v-330h320v-139h-320v-353h-137zM74 180v139h755v-139h-755z" />
    <glyph glyph-name="uni00B2" unicode="&#xb2;" horiz-adv-x="761" 
d="M123 621q14 121 81 177t208 89q94 21 143 64t49 116q0 105 -63 159t-174 54q-97 0 -152 -60.5t-55 -166.5h-101q-3 147 85 234t223 87q149 0 243.5 -77.5t94.5 -229.5q0 -209 -283 -276q-101 -23 -143.5 -56.5t-53.5 -113.5l-10 -70h465v-92h-574z" />
    <glyph glyph-name="uni00B3" unicode="&#xb3;" horiz-adv-x="778" 
d="M453 1053q52 -8 97 -27.5t85 -52.5t63 -87.5t23 -123.5q0 -137 -88.5 -221t-239.5 -84q-142 0 -235.5 97t-98.5 237h101q13 -119 73.5 -180.5t159.5 -61.5q228 0 228 213q0 51 -18.5 89.5t-46.5 60t-70.5 34.5t-82 17t-88.5 4v77l215 238h-440v92l586 -2v-76z" />
    <glyph glyph-name="periodcentered" unicode="&#xb7;" horiz-adv-x="360" 
d="M180 487q-53 0 -87 33t-34 80t34 79t87 32t87 -32t34 -79t-34 -80t-87 -33z" />
    <glyph glyph-name="uni00B9" unicode="&#xb9;" horiz-adv-x="440" 
d="M59 530v88h117v670h-96v88h190v-758h111v-88h-322z" />
    <glyph glyph-name="ordmasculine" unicode="&#xba;" horiz-adv-x="688" 
d="M344 776q-125 0 -205 85t-80 214q0 133 79 217t206 84q129 0 208 -84.5t79 -216.5q0 -130 -80.5 -215t-206.5 -84zM141 1075q0 -96 57 -159.5t144 -63.5q90 0 147.5 63.5t57.5 159.5q0 101 -56 163t-147 62q-89 0 -146 -61t-57 -164z" />
    <glyph glyph-name="guillemotright" unicode="&#xbb;" horiz-adv-x="1050" 
d="M514 119h-156l473 428l-495 436h156l499 -430zM66 983h155l500 -430l-477 -434h-156l473 428z" />
    <glyph glyph-name="questiondown" unicode="&#xbf;" horiz-adv-x="1081" 
d="M989 1006q0 -54 -12 -100t-29.5 -79t-49.5 -62.5t-58 -47.5t-71 -38t-72 -29.5t-76.5 -25.5t-71.5 -24q-23 -8 -61 -20t-61.5 -20t-56.5 -21t-53 -24.5t-43 -29.5t-35.5 -37.5t-21 -46.5t-8.5 -59q0 -118 74.5 -170.5t214.5 -52.5q173 0 258 67.5t104 208.5h152
q-54 -418 -514 -415q-94 0 -171.5 20.5t-138.5 62.5t-95 113t-34 166q0 54 13 100t31.5 78.5t52 62t62 47.5t73.5 37.5t74 29t78 25t71 23.5q18 6 48.5 16t48.5 16t45 16.5t43.5 18t38 20t34.5 24t27 28t21.5 34t12.5 40t5 48.5v86h151v-86zM799 1264q0 39 29.5 68.5
t78.5 29.5q50 0 79.5 -29.5t29.5 -68.5t-29.5 -68t-79.5 -29t-79 29t-29 68z" />
    <glyph glyph-name="Agrave" unicode="&#xc0;" horiz-adv-x="1404" 
d="M59 0l596 1352h117l574 -1352h-158l-178 410h-607l-184 -410h-160zM459 1874h135l178 -440h-137zM467 555h479l-231 565z" />
    <glyph glyph-name="Aacute" unicode="&#xc1;" horiz-adv-x="1404" 
d="M59 0l596 1352h117l574 -1352h-158l-178 410h-607l-184 -410h-160zM467 555h479l-231 565zM653 1427l178 441h136l-176 -441h-138z" />
    <glyph glyph-name="Acircumflex" unicode="&#xc2;" horiz-adv-x="1404" 
d="M59 0l596 1352h117l574 -1352h-158l-178 410h-607l-184 -410h-160zM371 1432l319 477l324 -475h-146l-176 264l-176 -266h-145zM467 555h479l-231 565z" />
    <glyph glyph-name="Atilde" unicode="&#xc3;" horiz-adv-x="1404" 
d="M59 0l596 1352h117l574 -1352h-158l-178 410h-607l-184 -410h-160zM375 1417q-7 121 52.5 189t152.5 49q41 -8 101.5 -56t80.5 -53q58 -16 90 18.5t43 90.5h123q-6 -49 -28.5 -96t-58.5 -83.5t-84 -51.5t-104 1q-37 12 -92.5 58t-81.5 53q-29 7 -46.5 -10t-23 -44
t-5.5 -65h-119zM467 555h479l-231 565z" />
    <glyph glyph-name="Adieresis" unicode="&#xc4;" horiz-adv-x="1404" 
d="M59 0l596 1352h117l574 -1352h-158l-178 410h-607l-184 -410h-160zM432 1532q0 45 34.5 76.5t90.5 31.5t88.5 -31t32.5 -77q0 -43 -33.5 -74t-87.5 -31q-56 0 -90.5 31t-34.5 74zM467 555h479l-231 565zM707 1532q0 45 32.5 76.5t87.5 31.5q57 0 91 -31t34 -77
q0 -43 -35.5 -74t-89.5 -31q-55 0 -87.5 31t-32.5 74z" />
    <glyph glyph-name="Aring" unicode="&#xc5;" horiz-adv-x="1404" 
d="M59 0l596 1352h117l574 -1352h-158l-178 410h-607l-184 -410h-160zM467 555h479l-231 565zM471 1647q0 93 66 154t163 61q103 0 168.5 -60.5t65.5 -154.5q0 -84 -66.5 -146.5t-167.5 -62.5q-95 0 -162 63t-67 146zM559 1649q0 -53 38 -90t103 -37t105.5 37t40.5 90
q0 56 -38.5 92.5t-107.5 36.5q-65 0 -103 -37t-38 -92z" />
    <glyph glyph-name="AE" unicode="&#xc6;" horiz-adv-x="2121" 
d="M59 0l574 1352h110l385 -944v835q0 68 19 88.5t86 20.5h829v-140h-784v-477h670v-139h-670v-457h782v-139h-917l-170 410h-582l-178 -410h-154zM451 555h460l-223 565z" />
    <glyph glyph-name="Ccedilla" unicode="&#xc7;" horiz-adv-x="1433" 
d="M496 -440q146 -7 225 2t110 33.5t31 72.5q0 65 -81.5 85.5t-288.5 15.5l-9 79l101 148q-229 50 -377 232.5t-148 428.5q0 195 86.5 356t241.5 255t346 94q237 0 408.5 -138t228.5 -362h-151q-53 169 -185.5 266t-300.5 97q-109 0 -205.5 -41.5t-167.5 -114.5t-112 -178.5
t-41 -226.5q0 -117 40.5 -219t110 -174t166.5 -113t207 -41q179 0 310.5 100t181.5 270h151q-57 -226 -235 -366.5t-408 -140.5h-24l-70 -97q348 -10 348 -215q0 -87 -40 -138.5t-107.5 -68t-156 -21.5t-185.5 1v119z" />
    <glyph glyph-name="Egrave" unicode="&#xc8;" horiz-adv-x="1052" 
d="M164 0q-67 0 -86 21.5t-19 91.5v1130q0 68 19 88.5t86 20.5h829v-140h-784v-477h670v-139h-670v-457h782v-139h-827zM285 1872h135l178 -440h-137z" />
    <glyph glyph-name="Eacute" unicode="&#xc9;" horiz-adv-x="1052" 
d="M164 0q-67 0 -86 21.5t-19 91.5v1130q0 68 19 88.5t86 20.5h829v-140h-784v-477h670v-139h-670v-457h782v-139h-827zM479 1425l178 441h136l-177 -441h-137z" />
    <glyph glyph-name="Ecircumflex" unicode="&#xca;" horiz-adv-x="1052" 
d="M164 0q-67 0 -86 21.5t-19 91.5v1130q0 68 19 88.5t86 20.5h829v-140h-784v-477h670v-139h-670v-457h782v-139h-827zM197 1430l319 477l324 -475h-146l-176 264l-176 -266h-145z" />
    <glyph glyph-name="Edieresis" unicode="&#xcb;" horiz-adv-x="1052" 
d="M164 0q-67 0 -86 21.5t-19 91.5v1130q0 68 19 88.5t86 20.5h829v-140h-784v-477h670v-139h-670v-457h782v-139h-827zM258 1530q0 45 34.5 76.5t90.5 31.5t88.5 -31t32.5 -77q0 -43 -33.5 -74t-87.5 -31q-56 0 -90.5 31t-34.5 74zM532 1530q0 45 33 76.5t88 31.5
q57 0 91 -31t34 -77q0 -43 -35.5 -74t-89.5 -31q-55 0 -88 31t-33 74z" />
    <glyph glyph-name="Igrave" unicode="&#xcc;" horiz-adv-x="522" 
d="M98 0v139h109v1073h-109v140h367v-140h-109v-1073h109v-139h-367zM59 1862h136l178 -441h-137z" />
    <glyph glyph-name="Iacute" unicode="&#xcd;" horiz-adv-x="569" 
d="M59 0v139h109v1073h-109v140h367v-140h-109v-1073h109v-139h-367zM217 1415l178 440h135l-176 -440h-137z" />
    <glyph glyph-name="Icircumflex" unicode="&#xce;" horiz-adv-x="751" 
d="M184 0v139h109v1073h-109v140h367v-140h-109v-1073h109v-139h-367zM59 1419l320 477l323 -475h-145l-176 265l-176 -267h-146z" />
    <glyph glyph-name="Idieresis" unicode="&#xcf;" horiz-adv-x="632" 
d="M123 0v139h108v1073h-108v140h366v-140h-108v-1073h108v-139h-366zM59 1520q0 45 34.5 76.5t90.5 31.5t88.5 -31t32.5 -77q0 -43 -33.5 -74t-87.5 -31q-56 0 -90.5 31t-34.5 74zM334 1520q0 45 33 76.5t88 31.5q57 0 91 -31t34 -77q0 -43 -35.5 -74t-89.5 -31
q-55 0 -88 31t-33 74z" />
    <glyph glyph-name="Ntilde" unicode="&#xd1;" horiz-adv-x="1165" 
d="M59 0v1352h125l772 -1073v1073h150l-4 -1352h-123l-770 1067v-1067h-150zM207 1413q-7 121 52.5 189t152.5 49q41 -8 101.5 -56t80.5 -53q58 -16 90 18.5t43 90.5h123q-6 -49 -28.5 -96t-58.5 -83.5t-84 -51.5t-104 1q-37 12 -92.5 58t-81.5 53q-29 7 -46.5 -10t-23 -44
t-5.5 -65h-119z" />
    <glyph glyph-name="Ograve" unicode="&#xd2;" horiz-adv-x="1454" 
d="M731 -20q-138 0 -262 52t-214 141.5t-143 215.5t-53 268q0 195 86.5 356t241.5 255t346 94q143 0 267 -54.5t210.5 -148t135.5 -222t49 -273.5q0 -142 -52 -269.5t-141 -218t-212 -143.5t-259 -53zM209 664q0 -117 39.5 -218.5t108.5 -173t165.5 -112.5t206.5 -41
q144 0 261.5 67.5t186 192t68.5 283.5q0 246 -146.5 403.5t-365.5 157.5q-145 0 -265 -71.5t-189.5 -200t-69.5 -287.5zM451 1913h135l178 -440h-137z" />
    <glyph glyph-name="Oacute" unicode="&#xd3;" horiz-adv-x="1454" 
d="M731 -20q-138 0 -262 52t-214 141.5t-143 215.5t-53 268q0 195 86.5 356t241.5 255t346 94q143 0 267 -54.5t210.5 -148t135.5 -222t49 -273.5q0 -142 -52 -269.5t-141 -218t-212 -143.5t-259 -53zM209 664q0 -117 39.5 -218.5t108.5 -173t165.5 -112.5t206.5 -41
q144 0 261.5 67.5t186 192t68.5 283.5q0 246 -146.5 403.5t-365.5 157.5q-145 0 -265 -71.5t-189.5 -200t-69.5 -287.5zM647 1466l178 441h136l-177 -441h-137z" />
    <glyph glyph-name="Ocircumflex" unicode="&#xd4;" horiz-adv-x="1454" 
d="M731 -20q-138 0 -262 52t-214 141.5t-143 215.5t-53 268q0 195 86.5 356t241.5 255t346 94q143 0 267 -54.5t210.5 -148t135.5 -222t49 -273.5q0 -142 -52 -269.5t-141 -218t-212 -143.5t-259 -53zM209 664q0 -117 39.5 -218.5t108.5 -173t165.5 -112.5t206.5 -41
q144 0 261.5 67.5t186 192t68.5 283.5q0 246 -146.5 403.5t-365.5 157.5q-145 0 -265 -71.5t-189.5 -200t-69.5 -287.5zM365 1470l319 478l324 -475h-146l-176 264l-176 -267h-145z" />
    <glyph glyph-name="Otilde" unicode="&#xd5;" horiz-adv-x="1454" 
d="M731 -20q-138 0 -262 52t-214 141.5t-143 215.5t-53 268q0 195 86.5 356t241.5 255t346 94q143 0 267 -54.5t210.5 -148t135.5 -222t49 -273.5q0 -142 -52 -269.5t-141 -218t-212 -143.5t-259 -53zM209 664q0 -117 39.5 -218.5t108.5 -173t165.5 -112.5t206.5 -41
q144 0 261.5 67.5t186 192t68.5 283.5q0 246 -146.5 403.5t-365.5 157.5q-145 0 -265 -71.5t-189.5 -200t-69.5 -287.5zM369 1454q-7 121 52 189t152 49q41 -8 102 -56t81 -53q58 -16 90 18.5t43 90.5h123q-6 -49 -28.5 -96t-58.5 -83.5t-84 -51.5t-104 1q-37 12 -92.5 58
t-81.5 53q-29 7 -46.5 -10t-23.5 -44t-6 -65h-118z" />
    <glyph glyph-name="Odieresis" unicode="&#xd6;" horiz-adv-x="1454" 
d="M731 -20q-138 0 -262 52t-214 141.5t-143 215.5t-53 268q0 195 86.5 356t241.5 255t346 94q143 0 267 -54.5t210.5 -148t135.5 -222t49 -273.5q0 -142 -52 -269.5t-141 -218t-212 -143.5t-259 -53zM209 664q0 -117 39.5 -218.5t108.5 -173t165.5 -112.5t206.5 -41
q144 0 261.5 67.5t186 192t68.5 283.5q0 246 -146.5 403.5t-365.5 157.5q-145 0 -265 -71.5t-189.5 -200t-69.5 -287.5zM426 1571q0 45 34.5 76.5t90.5 31.5t88.5 -31t32.5 -77q0 -43 -33.5 -74t-87.5 -31q-56 0 -90.5 31t-34.5 74zM700 1571q0 45 33 76.5t88 31.5
q57 0 91 -31t34 -77q0 -43 -35.5 -74t-89.5 -31q-55 0 -88 31t-33 74z" />
    <glyph glyph-name="multiply" unicode="&#xd7;" horiz-adv-x="800" 
d="M61 395l248 250l-223 225l98 99l224 -224l231 234l98 -100l-231 -232l225 -227l-98 -98l-225 227l-250 -250z" />
    <glyph glyph-name="Oslash" unicode="&#xd8;" horiz-adv-x="1454" 
d="M731 -20q-95 0 -184 24l-58 -166h-149l76 217q-163 86 -260 246t-97 356q0 195 86.5 356t241.5 255t346 94q69 0 133 -12l43 125h150l-58 -166q181 -80 287.5 -253t106.5 -392q0 -142 -52 -269.5t-141 -218t-212 -143.5t-259 -53zM209 664q0 -156 68 -281t186 -193
l356 1027q-43 6 -86 6q-145 0 -265 -71.5t-189.5 -200t-69.5 -287.5zM594 135q69 -16 135 -16q144 0 261.5 67.5t186 192t68.5 283.5q0 176 -79 311t-212 201z" />
    <glyph glyph-name="Ugrave" unicode="&#xd9;" horiz-adv-x="1304" 
d="M655 -20q-100 0 -186 22t-162.5 72.5t-130.5 127.5t-85.5 193t-31.5 262v695h150v-695q0 -116 23.5 -208.5t64 -153.5t98 -101t122 -57.5t138.5 -17.5q99 0 177.5 30t138.5 93t92.5 168t32.5 247v695h149v-695q0 -146 -29 -260.5t-80 -192t-125.5 -128.5t-162.5 -73.5
t-193 -22.5zM412 1837h135l178 -440h-137z" />
    <glyph glyph-name="Uacute" unicode="&#xda;" horiz-adv-x="1304" 
d="M655 -20q-100 0 -186 22t-162.5 72.5t-130.5 127.5t-85.5 193t-31.5 262v695h150v-695q0 -116 23.5 -208.5t64 -153.5t98 -101t122 -57.5t138.5 -17.5q99 0 177.5 30t138.5 93t92.5 168t32.5 247v695h149v-695q0 -146 -29 -260.5t-80 -192t-125.5 -128.5t-162.5 -73.5
t-193 -22.5zM608 1391l178 440h136l-177 -440h-137z" />
    <glyph glyph-name="Ucircumflex" unicode="&#xdb;" horiz-adv-x="1304" 
d="M655 -20q-100 0 -186 22t-162.5 72.5t-130.5 127.5t-85.5 193t-31.5 262v695h150v-695q0 -116 23.5 -208.5t64 -153.5t98 -101t122 -57.5t138.5 -17.5q99 0 177.5 30t138.5 93t92.5 168t32.5 247v695h149v-695q0 -146 -29 -260.5t-80 -192t-125.5 -128.5t-162.5 -73.5
t-193 -22.5zM326 1395l319 477l324 -475h-146l-176 264l-176 -266h-145z" />
    <glyph glyph-name="Udieresis" unicode="&#xdc;" horiz-adv-x="1304" 
d="M655 -20q-100 0 -186 22t-162.5 72.5t-130.5 127.5t-85.5 193t-31.5 262v695h150v-695q0 -116 23.5 -208.5t64 -153.5t98 -101t122 -57.5t138.5 -17.5q99 0 177.5 30t138.5 93t92.5 168t32.5 247v695h149v-695q0 -146 -29 -260.5t-80 -192t-125.5 -128.5t-162.5 -73.5
t-193 -22.5zM387 1495q0 45 34.5 77t90.5 32t88.5 -31.5t32.5 -77.5q0 -43 -33.5 -73.5t-87.5 -30.5q-56 0 -90.5 30.5t-34.5 73.5zM662 1495q0 45 32.5 77t87.5 32q57 0 91 -31.5t34 -77.5q0 -42 -35.5 -73t-89.5 -31q-55 0 -87.5 30.5t-32.5 73.5z" />
    <glyph glyph-name="Yacute" unicode="&#xdd;" horiz-adv-x="1239" 
d="M59 1352h162l379 -678l418 678h162l-508 -824v-528h-150v528zM565 1432l178 440h136l-177 -440h-137z" />
    <glyph glyph-name="germandbls" unicode="&#xdf;" horiz-adv-x="1155" 
d="M59 958q0 86 25.5 155t83 127t162 90t250.5 32q250 0 380 -95t130 -268q0 -107 -55.5 -197t-147.5 -128q95 -41 152 -122.5t57 -184.5q0 -178 -123.5 -272.5t-374.5 -94.5h-149v141h149q198 0 278 55t80 171q0 245 -358 245h-149v123h149q192 0 272 69.5t80 194.5
q0 234 -370 234q-84 0 -147.5 -9.5t-104.5 -29.5t-67.5 -43t-39.5 -57t-17.5 -64.5t-4.5 -71.5v-958h-140v958z" />
    <glyph glyph-name="agrave" unicode="&#xe0;" horiz-adv-x="1214" 
d="M535 -20q-216 3 -346 149.5t-130 386.5q0 245 130 394t346 149q136 0 235 -60t152 -170v209h149v-899h84v-139h-127q-68 0 -87 19t-19 81v115q-117 -238 -387 -235zM209 516q0 -183 95 -290t261 -107q162 0 259.5 108t97.5 289q0 184 -100 294t-257 110
q-161 2 -258.5 -108t-97.5 -296zM360 1610h136l178 -441h-137z" />
    <glyph glyph-name="aacute" unicode="&#xe1;" horiz-adv-x="1214" 
d="M535 -20q-216 3 -346 149.5t-130 386.5q0 245 130 394t346 149q136 0 235 -60t152 -170v209h149v-899h84v-139h-127q-68 0 -87 19t-19 81v115q-117 -238 -387 -235zM209 516q0 -183 95 -290t261 -107q162 0 259.5 108t97.5 289q0 184 -100 294t-257 110
q-161 2 -258.5 -108t-97.5 -296zM555 1163l178 441h135l-176 -441h-137z" />
    <glyph glyph-name="acircumflex" unicode="&#xe2;" horiz-adv-x="1214" 
d="M535 -20q-216 3 -346 149.5t-130 386.5q0 245 130 394t346 149q136 0 235 -60t152 -170v209h149v-899h84v-139h-127q-68 0 -87 19t-19 81v115q-117 -238 -387 -235zM209 516q0 -183 95 -290t261 -107q162 0 259.5 108t97.5 289q0 184 -100 294t-257 110
q-161 2 -258.5 -108t-97.5 -296zM272 1167l320 478l323 -476h-145l-176 265l-176 -267h-146z" />
    <glyph glyph-name="atilde" unicode="&#xe3;" horiz-adv-x="1214" 
d="M535 -20q-216 3 -346 149.5t-130 386.5q0 245 130 394t346 149q136 0 235 -60t152 -170v209h149v-899h84v-139h-127q-68 0 -87 19t-19 81v115q-117 -238 -387 -235zM209 516q0 -183 95 -290t261 -107q162 0 259.5 108t97.5 289q0 184 -100 294t-257 110
q-161 2 -258.5 -108t-97.5 -296zM334 1149q-6 99 43 154t125 40q34 -7 83.5 -45.5t65.5 -42.5q89 -22 111 88h100q-5 -40 -23.5 -78.5t-48 -68.5t-68.5 -42t-85 1q-31 9 -76.5 47.5t-66.5 44.5q-35 7 -48.5 -21t-13.5 -77h-98z" />
    <glyph glyph-name="adieresis" unicode="&#xe4;" horiz-adv-x="1214" 
d="M535 -20q-216 3 -346 149.5t-130 386.5q0 245 130 394t346 149q136 0 235 -60t152 -170v209h149v-899h84v-139h-127q-68 0 -87 19t-19 81v115q-117 -238 -387 -235zM209 516q0 -183 95 -290t261 -107q162 0 259.5 108t97.5 289q0 184 -100 294t-257 110
q-161 2 -258.5 -108t-97.5 -296zM334 1268q0 45 34.5 76.5t90.5 31.5t88.5 -31t32.5 -77q0 -43 -33.5 -74t-87.5 -31q-56 0 -90.5 31t-34.5 74zM608 1268q0 45 33 76.5t88 31.5q57 0 91 -31t34 -77q0 -43 -35.5 -74t-89.5 -31q-55 0 -88 31t-33 74z" />
    <glyph glyph-name="aring" unicode="&#xe5;" horiz-adv-x="1214" 
d="M535 -20q-216 3 -346 149.5t-130 386.5q0 245 130 394t346 149q136 0 235 -60t152 -170v209h149v-899h84v-139h-127q-68 0 -87 19t-19 81v115q-117 -238 -387 -235zM209 516q0 -183 95 -290t261 -107q162 0 259.5 108t97.5 289q0 184 -100 294t-257 110
q-161 2 -258.5 -108t-97.5 -296zM373 1382q0 93 66 154t163 61q103 0 168.5 -60.5t65.5 -154.5q0 -84 -66.5 -146t-167.5 -62q-95 0 -162 62.5t-67 145.5zM461 1384q0 -53 38 -90t103 -37t105.5 37t40.5 90q0 56 -38.5 92.5t-107.5 36.5q-65 0 -103 -37t-38 -92z" />
    <glyph glyph-name="ae" unicode="&#xe6;" horiz-adv-x="2007" 
d="M532 -20q-216 3 -344.5 145t-128.5 375q0 237 128.5 381.5t344.5 144.5q135 0 234 -58t152 -165v203h147v-132q135 183 393 183q213 0 362 -149.5t148 -393.5l-860 -2q0 -180 102 -287.5t256 -107.5q130 0 213.5 63t118.5 176h150q-42 -174 -170 -276.5t-312 -102.5
q-187 0 -317 105v-82h-125q-67 0 -86.5 18.5t-19.5 77.5v113q-118 -232 -386 -229zM209 500q0 -176 94 -280.5t260 -104.5q160 0 257.5 105.5t97.5 279.5q0 178 -100 284.5t-255 106.5q-161 2 -257.5 -104t-96.5 -287zM1065 135h27q-15 15 -27 33v-33zM1120 623h688
q-23 137 -116.5 216t-233.5 79q-135 0 -224.5 -80t-113.5 -215z" />
    <glyph glyph-name="ccedilla" unicode="&#xe7;" horiz-adv-x="1120" 
d="M1059 399q-31 -173 -148 -290t-284 -134l-54 -73q349 -10 349 -215q0 -87 -40.5 -138.5t-108 -68.5t-156 -22t-185.5 1v119q146 -7 225.5 2t110.5 34t31 73q0 65 -82 85t-289 15l-8 80l76 113q-202 26 -319.5 174t-117.5 362q0 242 138 392.5t376 150.5q185 0 319 -113.5
t169 -298.5h-150q-26 129 -119.5 202.5t-230.5 70.5q-170 -3 -261 -112t-91 -292q0 -175 99 -289t263 -114q136 0 222.5 78t115.5 208h150z" />
    <glyph glyph-name="egrave" unicode="&#xe8;" horiz-adv-x="1128" 
d="M1049 358q-42 -174 -170 -276t-312 -102q-226 0 -367 149t-141 385q0 254 136.5 399.5t363.5 145.5q213 0 362 -149.5t148 -393.5l-860 -2q0 -180 102 -287.5t256 -107.5q130 0 213.5 63t118.5 176h150zM221 625h688q-23 137 -116.5 216t-233.5 79q-135 0 -224.5 -80
t-113.5 -215zM309 1583h135l179 -440h-138z" />
    <glyph glyph-name="eacute" unicode="&#xe9;" horiz-adv-x="1128" 
d="M1049 358q-42 -174 -170 -276t-312 -102q-226 0 -367 149t-141 385q0 254 136.5 399.5t363.5 145.5q213 0 362 -149.5t148 -393.5l-860 -2q0 -180 102 -287.5t256 -107.5q130 0 213.5 63t118.5 176h150zM221 625h688q-23 137 -116.5 216t-233.5 79q-135 0 -224.5 -80
t-113.5 -215zM504 1137l178 440h135l-176 -440h-137z" />
    <glyph glyph-name="ecircumflex" unicode="&#xea;" horiz-adv-x="1128" 
d="M1049 358q-42 -174 -170 -276t-312 -102q-226 0 -367 149t-141 385q0 254 136.5 399.5t363.5 145.5q213 0 362 -149.5t148 -393.5l-860 -2q0 -180 102 -287.5t256 -107.5q130 0 213.5 63t118.5 176h150zM221 625h688q-23 137 -116.5 216t-233.5 79q-135 0 -224.5 -80
t-113.5 -215zM221 1141l320 477l323 -475h-145l-176 264l-176 -266h-146z" />
    <glyph glyph-name="edieresis" unicode="&#xeb;" horiz-adv-x="1128" 
d="M1049 358q-42 -174 -170 -276t-312 -102q-226 0 -367 149t-141 385q0 254 136.5 399.5t363.5 145.5q213 0 362 -149.5t148 -393.5l-860 -2q0 -180 102 -287.5t256 -107.5q130 0 213.5 63t118.5 176h150zM221 625h688q-23 137 -116.5 216t-233.5 79q-135 0 -224.5 -80
t-113.5 -215zM283 1241q0 45 34.5 77t90.5 32t88 -31.5t32 -77.5q0 -43 -33 -73.5t-87 -30.5q-56 0 -90.5 30.5t-34.5 73.5zM557 1241q0 45 33 77t88 32q57 0 91 -31.5t34 -77.5q0 -42 -35.5 -73t-89.5 -31q-55 0 -88 30.5t-33 73.5z" />
    <glyph glyph-name="igrave" unicode="&#xec;" horiz-adv-x="444" 
d="M233 0v1038h150v-1038h-150zM55 1548h135l179 -440h-138z" />
    <glyph glyph-name="iacute" unicode="&#xed;" horiz-adv-x="436" 
d="M68 0v1038h149v-1038h-149zM84 1102l178 440h135l-176 -440h-137z" />
    <glyph glyph-name="icircumflex" unicode="&#xee;" horiz-adv-x="745" 
d="M322 0v1038h149v-1038h-149zM55 1106l320 477l323 -475h-145l-176 264l-176 -266h-146z" />
    <glyph glyph-name="idieresis" unicode="&#xef;" horiz-adv-x="628" 
d="M260 0v1038h150v-1038h-150zM55 1206q0 45 34.5 77t90.5 32t88.5 -31.5t32.5 -77.5q0 -43 -33.5 -73.5t-87.5 -30.5q-56 0 -90.5 30.5t-34.5 73.5zM330 1206q0 45 33 77t88 32q57 0 90.5 -31.5t33.5 -77.5q0 -43 -35 -73.5t-89 -30.5q-55 0 -88 30.5t-33 73.5z" />
    <glyph glyph-name="ntilde" unicode="&#xf1;" horiz-adv-x="1036" 
d="M59 0v1038h150v-200q45 101 131.5 160.5t206.5 60.5q203 6 316.5 -124t113.5 -374v-561h-150v561q0 359 -301 359q-141 0 -230 -104.5t-89 -285.5l2 -530h-150zM147 1133q-7 120 52.5 188t152.5 49q41 -8 102 -55.5t81 -52.5q58 -16 90 18t43 90h123q-6 -49 -28.5 -96
t-58.5 -83t-84 -51t-104 1q-37 12 -92.5 57.5t-81.5 52.5q-42 10 -59 -24.5t-17 -93.5h-119z" />
    <glyph glyph-name="ograve" unicode="&#xf2;" horiz-adv-x="1148" 
d="M573 -27q-149 1 -267 72t-182.5 194t-64.5 275q0 240 142.5 392.5t371.5 152.5q233 0 375 -153t142 -392q0 -234 -145 -388t-372 -153zM209 514q0 -173 102 -287.5t260 -113.5q162 0 265.5 114t103.5 287q0 182 -102 294t-265 112q-161 2 -262.5 -109t-101.5 -297z
M293 1587h135l178 -440h-137z" />
    <glyph glyph-name="oacute" unicode="&#xf3;" horiz-adv-x="1148" 
d="M573 -27q-149 1 -267 72t-182.5 194t-64.5 275q0 240 142.5 392.5t371.5 152.5q233 0 375 -153t142 -392q0 -234 -145 -388t-372 -153zM209 514q0 -173 102 -287.5t260 -113.5q162 0 265.5 114t103.5 287q0 182 -102 294t-265 112q-161 2 -262.5 -109t-101.5 -297z
M487 1141l179 440h135l-176 -440h-138z" />
    <glyph glyph-name="ocircumflex" unicode="&#xf4;" horiz-adv-x="1148" 
d="M573 -27q-149 1 -267 72t-182.5 194t-64.5 275q0 240 142.5 392.5t371.5 152.5q233 0 375 -153t142 -392q0 -234 -145 -388t-372 -153zM205 1145l319 477l324 -475h-146l-176 264l-176 -266h-145zM209 514q0 -173 102 -287.5t260 -113.5q162 0 265.5 114t103.5 287
q0 182 -102 294t-265 112q-161 2 -262.5 -109t-101.5 -297z" />
    <glyph glyph-name="otilde" unicode="&#xf5;" horiz-adv-x="1148" 
d="M573 -27q-149 1 -267 72t-182.5 194t-64.5 275q0 240 142.5 392.5t371.5 152.5q233 0 375 -153t142 -392q0 -234 -145 -388t-372 -153zM209 514q0 -173 102 -287.5t260 -113.5q162 0 265.5 114t103.5 287q0 182 -102 294t-265 112q-161 2 -262.5 -109t-101.5 -297z
M209 1130q-7 121 52.5 189t152.5 49q41 -8 101.5 -55.5t80.5 -52.5q58 -16 90 18t43 90h123q-6 -49 -28.5 -96t-58.5 -83t-83.5 -51t-103.5 1q-37 12 -93 57.5t-82 52.5q-29 7 -46.5 -10t-23 -44t-5.5 -65h-119z" />
    <glyph glyph-name="odieresis" unicode="&#xf6;" horiz-adv-x="1148" 
d="M573 -27q-149 1 -267 72t-182.5 194t-64.5 275q0 240 142.5 392.5t371.5 152.5q233 0 375 -153t142 -392q0 -234 -145 -388t-372 -153zM209 514q0 -173 102 -287.5t260 -113.5q162 0 265.5 114t103.5 287q0 182 -102 294t-265 112q-161 2 -262.5 -109t-101.5 -297z
M266 1245q0 45 34.5 77t90.5 32t88.5 -31.5t32.5 -77.5q0 -43 -33.5 -73.5t-87.5 -30.5q-56 0 -90.5 30.5t-34.5 73.5zM541 1245q0 45 33 77t88 32q57 0 90.5 -31.5t33.5 -77.5q0 -43 -35 -73.5t-89 -30.5q-55 0 -88 30.5t-33 73.5z" />
    <glyph glyph-name="divide" unicode="&#xf7;" horiz-adv-x="874" 
d="M59 440v140h756v-140h-756zM332 754q0 41 30 69.5t76 28.5q45 0 75 -29t30 -69q0 -41 -30 -70t-75 -29q-46 0 -76 29t-30 70zM338 264q0 42 29.5 70t76.5 28t77 -28t30 -70q0 -41 -30.5 -69.5t-76.5 -28.5t-76 28.5t-30 69.5z" />
    <glyph glyph-name="oslash" unicode="&#xf8;" horiz-adv-x="1148" 
d="M573 -27q-75 0 -143 21l-70 -164h-149l92 217q-115 69 -179.5 192t-64.5 275q0 240 142.5 392.5t371.5 152.5q77 0 148 -19l59 142h150l-82 -195q116 -69 179 -192t63 -281q0 -234 -145 -388t-372 -153zM209 514q0 -105 39.5 -192t109.5 -140l308 727q-53 11 -93 11
q-161 2 -262.5 -109t-101.5 -297zM483 123q36 -10 88 -10q162 0 265.5 114t103.5 287q0 111 -39 198t-110 140z" />
    <glyph glyph-name="ugrave" unicode="&#xf9;" horiz-adv-x="1110" 
d="M926 0q-68 0 -87.5 19.5t-19.5 80.5v101q-46 -99 -133 -158.5t-207 -62.5q-203 -5 -311.5 132t-108.5 396v530h150v-530q0 -202 73 -295.5t218 -93.5q142 0 230.5 104t88.5 285v530h150v-899h82v-139h-125zM223 1595h135l179 -440h-138z" />
    <glyph glyph-name="uacute" unicode="&#xfa;" horiz-adv-x="1110" 
d="M926 0q-68 0 -87.5 19.5t-19.5 80.5v101q-46 -99 -133 -158.5t-207 -62.5q-203 -5 -311.5 132t-108.5 396v530h150v-530q0 -202 73 -295.5t218 -93.5q142 0 230.5 104t88.5 285v530h150v-899h82v-139h-125zM418 1149l178 440h135l-176 -440h-137z" />
    <glyph glyph-name="ucircumflex" unicode="&#xfb;" horiz-adv-x="1110" 
d="M926 0q-68 0 -87.5 19.5t-19.5 80.5v101q-46 -99 -133 -158.5t-207 -62.5q-203 -5 -311.5 132t-108.5 396v530h150v-530q0 -202 73 -295.5t218 -93.5q142 0 230.5 104t88.5 285v530h150v-899h82v-139h-125zM135 1153l320 477l323 -475h-145l-176 264l-176 -266h-146z" />
    <glyph glyph-name="udieresis" unicode="&#xfc;" horiz-adv-x="1110" 
d="M926 0q-68 0 -87.5 19.5t-19.5 80.5v101q-46 -99 -133 -158.5t-207 -62.5q-203 -5 -311.5 132t-108.5 396v530h150v-530q0 -202 73 -295.5t218 -93.5q142 0 230.5 104t88.5 285v530h150v-899h82v-139h-125zM197 1253q0 45 34.5 77t90.5 32t88 -31.5t32 -77.5
q0 -43 -33 -73.5t-87 -30.5q-56 0 -90.5 30.5t-34.5 73.5zM471 1253q0 45 33 77t88 32q57 0 91 -31.5t34 -77.5q0 -42 -35.5 -73t-89.5 -31q-55 0 -88 30.5t-33 73.5z" />
    <glyph glyph-name="yacute" unicode="&#xfd;" horiz-adv-x="1116" 
d="M59 1038h152l299 -788l395 788h152l-633 -1255q-16 -33 -30 -47t-27 -16.5t-47 -2.5h-15h-166v140h162l125 252zM518 1135l178 440h135l-176 -440h-137z" />
    <glyph glyph-name="ydieresis" unicode="&#xff;" horiz-adv-x="1116" 
d="M59 1038h152l299 -788l395 788h152l-633 -1255q-16 -33 -30 -47t-27 -16.5t-47 -2.5h-15h-166v140h162l125 252zM297 1239q0 45 34.5 77t90.5 32t88.5 -31.5t32.5 -77.5q0 -43 -33.5 -73.5t-87.5 -30.5q-56 0 -90.5 30.5t-34.5 73.5zM571 1239q0 45 33 77t88 32
q57 0 91 -31.5t34 -77.5q0 -42 -35.5 -73t-89.5 -31q-55 0 -88 30.5t-33 73.5z" />
    <glyph glyph-name="dotlessi" unicode="&#x131;" horiz-adv-x="268" 
d="M59 0v1038h150v-1038h-150z" />
    <glyph glyph-name="OE" unicode="&#x152;" horiz-adv-x="2179" 
d="M731 -20q-138 0 -262 52t-214 141.5t-143 215.5t-53 268q0 195 86.5 356t241.5 255t346 94q162 0 296 -67t224 -187v135q0 68 19 88.5t86 20.5h829v-140h-784v-477h670v-139h-670v-457h782v-139h-827q-67 0 -86 21.5t-19 91.5v125q-92 -122 -228 -190t-294 -68zM209 664
q0 -117 39.5 -218.5t108.5 -173t165.5 -112.5t206.5 -41q144 0 261.5 67.5t186 192t68.5 283.5q0 246 -146.5 403.5t-365.5 157.5q-145 0 -265 -71.5t-189.5 -200t-69.5 -287.5z" />
    <glyph glyph-name="oe" unicode="&#x153;" horiz-adv-x="1974" 
d="M573 -27q-149 1 -267 72t-182.5 194t-64.5 275q0 240 142.5 392.5t371.5 152.5q140 0 250.5 -58t177.5 -161q63 111 172.5 170t251.5 59q213 0 362 -149.5t148 -393.5l-845 -2v-10q0 -35 -7 -86q27 -139 123.5 -219t227.5 -80q129 0 212.5 63.5t118.5 176.5h150
q-42 -174 -169.5 -276.5t-311.5 -102.5q-137 0 -247 58.5t-177 162.5q-68 -112 -181.5 -175.5t-255.5 -62.5zM209 514q0 -173 102 -287.5t260 -113.5q139 0 237.5 87.5t123.5 227.5q-6 46 -6 96q0 32 4 90q-26 140 -122 223t-235 83q-161 2 -262.5 -109t-101.5 -297z
M1087 635h689q-23 137 -116.5 216t-234.5 79q-135 0 -224.5 -80t-113.5 -215z" />
    <glyph glyph-name="Scaron" unicode="&#x160;" horiz-adv-x="1101" 
d="M889 999q-42 116 -133.5 175t-257.5 59q-299 0 -299 -223q0 -26 5.5 -48.5t13.5 -40t24 -34t29.5 -28t37.5 -24t41 -20t47 -17.5t48.5 -15.5t52 -15t51.5 -15.5q23 -7 68.5 -20.5t74.5 -22.5t72.5 -24t72 -30.5t63.5 -37.5t57.5 -48t43 -59t30 -74.5t9.5 -89.5
q0 -75 -24.5 -137t-66.5 -103.5t-98 -70.5t-118 -42t-129 -13q-206 0 -340.5 87t-191.5 289h151q40 -123 133.5 -178.5t247.5 -58.5q59 -1 108.5 11t90 38t63.5 71.5t23 106.5q0 32 -9.5 59t-24 47t-40 38.5t-48 30t-59 25t-62 21t-67.5 20t-65 19.5q-19 6 -60 18t-64 19
t-62 21t-62.5 25.5t-56.5 30.5t-53 38t-43 46t-35 56.5t-20.5 68t-8.5 81.5q0 76 22.5 137t62.5 103t97 69.5t123.5 40t143.5 12.5q442 0 546 -373h-155zM211 1950h145l176 -269l177 267h145l-324 -475z" />
    <glyph glyph-name="scaron" unicode="&#x161;" horiz-adv-x="907" 
d="M231 272q20 -87 89 -121t182 -34q97 0 150 34t53 115q0 72 -59 111.5t-187 71.5q-64 15 -114 31.5t-105.5 44t-92.5 60.5t-61 81.5t-23 107.5q0 63 21.5 112.5t56.5 81t82.5 52.5t96.5 29.5t102 9.5q61 0 120 -15.5t118.5 -49.5t106.5 -99.5t69 -155.5h-150
q-24 90 -91.5 135.5t-168.5 45.5q-98 0 -158.5 -34.5t-60.5 -113.5q3 -130 287 -197q62 -15 108 -30.5t94.5 -41t79.5 -56t51 -76t21 -101.5q1 -145 -95.5 -217.5t-240.5 -72.5q-376 0 -432 292h151zM115 1616h145l176 -268l176 266h146l-324 -475z" />
    <glyph glyph-name="Ydieresis" unicode="&#x178;" horiz-adv-x="1239" 
d="M59 1352h162l379 -678l418 678h162l-508 -824v-528h-150v528zM344 1536q0 45 34.5 77t90.5 32t88.5 -31.5t32.5 -77.5q0 -43 -33.5 -73.5t-87.5 -30.5q-56 0 -90.5 30.5t-34.5 73.5zM618 1536q0 45 33 77t88 32q57 0 91 -31.5t34 -77.5q0 -42 -35.5 -73t-89.5 -31
q-55 0 -88 30.5t-33 73.5z" />
    <glyph glyph-name="zcaron" unicode="&#x17e;" horiz-adv-x="966" 
d="M59 889v149h832v-145l-615 -743h625v-150h-821v150l627 739h-648zM168 1618h145l176 -268l177 266h145l-324 -475z" />
    <glyph glyph-name="gravecomb" unicode="&#x300;" 
d="M236 911l-177 441h136l178 -441h-137z" />
    <glyph glyph-name="acutecomb" unicode="&#x301;" 
d="M197 911h-138l179 441h135z" />
    <glyph glyph-name="uni0302" unicode="&#x302;" 
d="M59 887l320 477l323 -475h-145l-176 264l-176 -266h-146z" />
    <glyph glyph-name="tildecomb" unicode="&#x303;" 
d="M61 1114q-7 121 52.5 189t152.5 49q41 -8 102 -56t81 -53q58 -16 90 18.5t43 90.5h123q-6 -49 -28.5 -96t-58.5 -83.5t-84 -51.5t-104 1q-37 12 -92.5 58t-81.5 53q-29 7 -46.5 -10t-23.5 -44t-6 -65h-119z" />
    <glyph glyph-name="uni0304" unicode="&#x304;" 
d="M59 1233v119h539v-119h-539z" />
    <glyph glyph-name="uni0306" unicode="&#x306;" 
d="M408 991q-158 3 -253.5 107t-95.5 254h138q-1 -101 60.5 -161.5t150.5 -60.5q101 0 159 61t56 161h137q0 -160 -96 -262.5t-256 -98.5z" />
    <glyph glyph-name="uni0307" unicode="&#x307;" 
d="M190 1124q-61 0 -96 34t-35 79q0 47 36 81t95 34q63 0 98.5 -34t35.5 -81q0 -45 -37.5 -79t-96.5 -34z" />
    <glyph glyph-name="uni0308" unicode="&#x308;" 
d="M184 1139q-56 0 -90.5 30.5t-34.5 73.5q0 45 34.5 77t90.5 32t88.5 -31.5t32.5 -77.5q0 -43 -33.5 -73.5t-87.5 -30.5zM334 1243q0 45 33 77t88 32q57 0 91 -31.5t34 -77.5q0 -42 -35.5 -73t-89.5 -31q-55 0 -88 30.5t-33 73.5z" />
    <glyph glyph-name="uni030A" unicode="&#x30a;" 
d="M289 950q-95 0 -162.5 63t-67.5 146q0 93 66 154t164 61q102 0 167.5 -60.5t65.5 -154.5q0 -85 -66 -147t-167 -62zM147 1161q0 -53 38.5 -90t103.5 -37t105 37t40 90q0 57 -38 93t-107 36q-65 0 -103.5 -37t-38.5 -92z" />
    <glyph glyph-name="uni030B" unicode="&#x30b;" 
d="M223 911l178 441h136l-177 -441h-137zM59 911l177 441h137l-178 -441h-136z" />
    <glyph glyph-name="uni030C" unicode="&#x30c;" 
d="M379 887l-320 477h146l176 -268l176 266h145z" />
    <glyph glyph-name="uni0312" unicode="&#x312;" 
d="M59 698l86 371h140l-84 -371h-142z" />
    <glyph glyph-name="uni0326" unicode="&#x326;" 
d="M59 -248l181 475h122l-178 -475h-125z" />
    <glyph glyph-name="uni0327" unicode="&#x327;" 
d="M72 -203q146 -7 225 2t110 34t31 73q0 65 -81.5 85t-288.5 15l-9 80l140 205h135l-121 -170q348 -10 348 -215q0 -87 -40 -138.5t-107.5 -68.5t-156 -22t-185.5 1v119z" />
    <glyph glyph-name="uni0328" unicode="&#x328;" 
d="M545 -225q-67 -33 -141 -38.5t-138 14t-115 64.5t-73 109q-43 121 16.5 225t167.5 140l64 -4v-90q-73 -25 -115.5 -90.5t-17.5 -135.5q21 -57 74.5 -84t116.5 -24t126 28z" />
    <glyph glyph-name="endash" unicode="&#x2013;" horiz-adv-x="987" 
d="M59 729v139h869v-139h-869z" />
    <glyph glyph-name="emdash" unicode="&#x2014;" horiz-adv-x="1120" 
d="M59 729v139h1002v-139h-1002z" />
    <glyph glyph-name="quoteleft" unicode="&#x2018;" horiz-adv-x="372" 
d="M174 850l-115 502h142l112 -502h-139z" />
    <glyph glyph-name="quoteright" unicode="&#x2019;" horiz-adv-x="372" 
d="M199 850h-140l113 502h141z" />
    <glyph glyph-name="quotesinglbase" unicode="&#x201a;" horiz-adv-x="372" 
d="M59 -217l86 371h140l-84 -371h-142z" />
    <glyph glyph-name="quotedblleft" unicode="&#x201c;" horiz-adv-x="569" 
d="M174 850l-115 502h142l112 -502h-139zM256 1352h141l113 -502h-139z" />
    <glyph glyph-name="quotedblright" unicode="&#x201d;" horiz-adv-x="559" 
d="M385 850h-139l112 502h142zM59 850l113 502h141l-114 -502h-140z" />
    <glyph glyph-name="quotedblbase" unicode="&#x201e;" horiz-adv-x="557" 
d="M59 -217l86 371h140l-84 -371h-142zM246 -217l86 371h139l-84 -371h-141z" />
    <glyph glyph-name="dagger" unicode="&#x2020;" horiz-adv-x="933" 
d="M397 418v536h-338v142h336v256h142v-256h337v-142h-337v-536h-140z" />
    <glyph glyph-name="bullet" unicode="&#x2022;" horiz-adv-x="430" 
d="M215 430q-68 0 -112 42t-44 103t44 102.5t112 41.5q69 0 113.5 -41.5t44.5 -102.5t-44.5 -103t-113.5 -42z" />
    <glyph glyph-name="ellipsis" unicode="&#x2026;" horiz-adv-x="974" 
d="M180 0q-53 0 -87 33t-34 80t34 78.5t87 31.5t87 -31.5t34 -78.5t-34 -80t-87 -33zM371 113q0 47 34 78.5t87 31.5t86.5 -31.5t33.5 -78.5t-33.5 -80t-86.5 -33t-87 33t-34 80zM674 113q0 47 34 78.5t87 31.5t86.5 -31.5t33.5 -78.5t-33.5 -80t-86.5 -33t-87 33t-34 80z
" />
    <glyph glyph-name="perthousand" unicode="&#x2030;" horiz-adv-x="3373" 
d="M530 231q-72 0 -140 23t-128 70.5t-105 115t-71.5 162.5t-26.5 207q0 139 40 250.5t107 180.5t150.5 105.5t173.5 36.5q96 0 181.5 -36.5t152.5 -106t106.5 -181t39.5 -249.5q0 -139 -39 -251t-106 -182.5t-152.5 -107.5t-182.5 -37zM182 809q0 -117 28.5 -207.5
t77.5 -145.5t110.5 -82.5t131.5 -27.5q76 0 139.5 27.5t112.5 82.5t77 145.5t28 207.5t-28 207t-77 144t-112.5 81t-139.5 27q-70 0 -131.5 -27.5t-110.5 -81.5t-77.5 -144t-28.5 -206zM801 -2l569 1352h150l-570 -1352h-149zM1350 559q0 139 40 250.5t107 181t150.5 106
t173.5 36.5q96 0 181.5 -37t152.5 -106.5t106 -181t39 -249.5q0 -139 -39 -251t-105.5 -182t-152 -107t-182.5 -37q-90 0 -173.5 37t-150.5 107t-107 182t-40 251zM1473 559q0 -117 28.5 -207.5t77.5 -145.5t110.5 -82.5t131.5 -27.5q157 0 256.5 116.5t99.5 346.5
q0 117 -27.5 207t-77 144t-112.5 81t-139 27q-70 0 -131.5 -27.5t-110.5 -81.5t-77.5 -144t-28.5 -206zM2361 578q0 139 40 250.5t107 180.5t150.5 105.5t173.5 36.5q96 0 181.5 -36.5t152.5 -106t106.5 -181t39.5 -249.5q0 -139 -39 -251t-106 -182.5t-152.5 -107.5
t-182.5 -37q-72 0 -140 23t-128 70.5t-105 115t-71.5 162.5t-26.5 207zM2484 578q0 -117 28.5 -207.5t77.5 -145.5t110.5 -82.5t131.5 -27.5q76 0 139.5 27.5t112.5 82.5t77 145.5t28 207.5t-28 206.5t-77 143.5t-112.5 81t-139.5 27q-70 0 -131.5 -27.5t-110.5 -81.5
t-77.5 -143.5t-28.5 -205.5z" />
    <glyph glyph-name="guilsinglleft" unicode="&#x2039;" horiz-adv-x="774" 
d="M537 137l-478 434l500 430h156l-496 -436l473 -428h-155z" />
    <glyph glyph-name="guilsinglright" unicode="&#x203a;" horiz-adv-x="774" 
d="M238 137h-156l473 428l-496 436h156l500 -430z" />
    <glyph glyph-name="fraction" unicode="&#x2044;" horiz-adv-x="837" 
d="M59 0l570 1352h149l-569 -1352h-150z" />
    <glyph glyph-name="Euro" unicode="&#x20ac;" horiz-adv-x="1654" 
d="M1595 487q-57 -226 -235 -366.5t-408 -140.5t-407 136.5t-236 352.5h-250v139h224q-2 16 -2 49q0 28 4 78h-224v139h254q61 217 234 352.5t405 135.5q237 0 408.5 -138t228.5 -362h-147q-53 170 -187.5 268.5t-302.5 98.5q-166 0 -299 -98.5t-186 -256.5h311v-139h-352
q-4 -46 -4 -71q0 -20 4 -56h352v-139h-313q46 -158 180.5 -257t304.5 -99q179 0 312.5 102t183.5 272h147z" />
    <glyph glyph-name="trademark" unicode="&#x2122;" horiz-adv-x="1290" 
d="M889 938l-193 238v-463h-94v542h-240v-542h-94v542h-209v97h619l233 -293l244 293h76v-639h-94v467l-205 -242h-43z" />
    <glyph glyph-name="minus" unicode="&#x2212;" horiz-adv-x="874" 
d="M59 440v140h756v-140h-756z" />
    <glyph glyph-name="BeeType" horiz-adv-x="1312" 
d="M317 211q-60 0 -123 24t-110 74t-47 113q0 126 154 232t384 132l19 2q-15 17 -27 46t-12 49q0 49 37 86q10 10 10 14q0 8 -8 16q-16 21 -78 93q-13 17 3 32q17 16 34 -3q2 -2 4 -5q46 -73 61 -100q8 -14 13 -16.5t18 -0.5q28 8 56 0q4 -1 7 -1h4.5t3.5 2l3 3t4 5t4 6
l66 104q8 12 20 10t15.5 -12.5t-3.5 -23.5l-34 -45l-39 -54q-6 -8 6 -20q41 -47 41 -92q0 -37 -37 -97q134 -20 250.5 -73t188 -128t71.5 -153q0 -58 -48.5 -106.5t-111.5 -72.5t-119 -24q-85 0 -167 57.5t-132 149.5l-32 60l-37 -66q-49 -87 -131.5 -152t-180.5 -65z
M90 424q0 -66 75 -113t152 -47q153 0 267 195q3 5 12.5 21.5t17 28.5t17 25.5t18.5 21t17 7.5q14 0 27 -16t30 -47t22 -39q116 -178 252 -178q43 0 95 19t91.5 55t37.5 75q-3 55 -46 105.5t-107 85.5t-139 61.5t-143.5 39.5t-119.5 13q-85 0 -184.5 -23.5t-187 -63
t-146 -100t-58.5 -126.5z" />
    </font>
</defs>
</svg>
