<?xml version="1.0" standalone="no"?>
<!DOCTYPE svg PUBLIC "-//W3C//DTD SVG 1.1//EN" "http://www.w3.org/Graphics/SVG/1.1/DTD/svg11.dtd" >
<svg xmlns="http://www.w3.org/2000/svg" xmlns:xlink="http://www.w3.org/1999/xlink" version="1.1">
<metadata>
Created by FontForge 20201107 at Tue Feb 11 16:23:31 2025
 By 
Copyright (c) 2022 by beetype. All rights reserved.
</metadata>
<defs>
<font id="NeueLeiden-Medium" horiz-adv-x="0" >
  <font-face 
    font-family="Neue Leiden Medium"
    font-weight="500"
    font-stretch="normal"
    units-per-em="2048"
    panose-1="0 0 0 0 0 0 0 0 0 0"
    ascent="1638"
    descent="-410"
    x-height="1038"
    cap-height="1352"
    bbox="37 -559.077 3334 1970"
    underline-thickness="102"
    underline-position="-255"
    unicode-range="U+0020-FB02"
  />
<missing-glyph horiz-adv-x="1343" 
d="M332 211q-60 0 -123 24t-110.5 74.5t-47.5 112.5q0 126 154.5 232t384.5 132l18 2q-15 17 -27 46t-12 49q0 49 37 86q10 10 10 14q0 8 -8 16q-16 21 -78 93q-13 17 3 32q17 16 34 -3q2 -2 4 -5q61 -98 62 -100q8 -14 13 -16.5t18 -0.5q28 8 55 0q4 -1 7 -1h4.5t3.5 2l3 3
t4 5t4 6l66 104q9 12 21 10t15.5 -12.5t-3.5 -23.5l-35 -45l-39 -54q-6 -8 6 -20q41 -47 41 -92q0 -37 -37 -97q134 -20 250.5 -73t188 -128t71.5 -153q0 -58 -48 -106.5t-111 -72.5t-119 -24q-85 0 -167 57.5t-132 149.5l-33 60l-37 -66q-49 -87 -131 -152t-180 -65z
M104 424q0 -66 75 -113t153 -47q152 0 266 195q3 5 12.5 21.5t17 28.5t17 25.5t18.5 21t17 7.5q14 0 27.5 -15.5t30.5 -47.5t22 -39q116 -178 252 -178q70 0 148 45.5t75 103.5q-3 55 -46 105.5t-107 85.5t-139 61.5t-143.5 39.5t-119.5 13q-85 0 -184.5 -23.5t-187 -63
t-146 -100t-58.5 -126.5z" />
    <glyph glyph-name="fi" unicode="fi" horiz-adv-x="1079" 
d="M160 0l2 692h-111v168h111v324q0 40 2 63t9 46t21 34t38 18t61 7h618v-170h-565v-322h459q31 0 51 -7t31 -17t16.5 -34t6.5 -44.5t1 -63.5v-524h115v-170h-154q-31 0 -54 3.5t-38.5 8t-25.5 16.5t-15.5 20.5t-8 30t-3 35t-0.5 43.5v11v524h-381l-2 -692h-184z" />
    <glyph glyph-name="fl" unicode="fl" horiz-adv-x="1091" 
d="M160 0l2 692h-111v168h111v324q0 40 2 63t9 46t21 34t38 18t61 7h631v-1182h114v-170h-166q-46 0 -73 9t-40 32.5t-16.5 50t-3.5 76.5v1014h-393v-322h250v-168h-250l-2 -692h-184z" />
    <glyph glyph-name="TT" unicode="TT" horiz-adv-x="1454" 
d="M440 0v1182h-389v170h1352v-170h-389v-1182h-183v1182h-208v-1182h-183z" />
    <glyph glyph-name="ff" unicode="ff" horiz-adv-x="1300" 
d="M160 0l2 692h-111v168h111v324q0 40 2 63t9 46t21 34t38 18t61 7h348v-170h-295v-322h369v324q0 50 3.5 76.5t16.5 50t40 32.5t73 9h401v-170h-350v-322h258v-168h-258v-692h-184v692h-369l-2 -692h-184z" />
    <glyph glyph-name="ffj" unicode="ffj" horiz-adv-x="1390" 
d="M160 0l2 692h-111v168h111v324q0 40 2 63t9 46t21 34t38 18t61 7h348v-170h-295v-322h348v324q0 50 3.5 76.5t16.5 50t40 32.5t73 9h402v-170h-350v-322h458v-1147q0 -88 -8 -112q-15 -44 -81 -53q-24 -3 -56 -3h-406v170h369v977h-276v-692h-185v692h-348l-2 -692h-184z
" />
    <glyph glyph-name="ffl" unicode="ffl" horiz-adv-x="1505" 
d="M160 0l2 692h-111v168h111v324q0 40 2 63t9 46t21 34t38 18t61 7h348v-170h-295v-322h348v324q0 50 3.5 76.5t16.5 50t40 32.5t73 9h510v-1182h117v-170h-168q-37 0 -61 7t-38 18t-21 34t-9 46t-2 63v1014h-276v-322h202v-168h-202v-692h-185v692h-348l-2 -692h-184z" />
    <glyph glyph-name="fj" unicode="fj" horiz-adv-x="794" 
d="M53 1184q0 40 2 63t9 46t21 34t38 18t61 7h559v-170h-505v-322h505v-1147q0 -89 -9 -114q-17 -44 -89 -52q-20 -2 -47 -2h-405v170h368v977h-323l-2 -692h-185z" />
    <glyph glyph-name="ft" unicode="ft" horiz-adv-x="1273" 
d="M160 0l2 692h-111v168h111v324q0 40 2 63t9 46t21 34t38 18t61 7h573v-492h271v-168h-271v-522h357v-170h-408q-46 0 -73 9t-40 32.5t-16.5 50t-3.5 76.5v524h-336l-2 -692h-184zM346 860h336v322h-336v-322z" />
    <glyph glyph-name="ti" unicode="ti" horiz-adv-x="1126" 
d="M336 0q-46 0 -73 9t-40 32.5t-16.5 50t-3.5 76.5v700h-152v170h152v314h184v-314h465q26 0 44.5 -3.5t30 -14.5t18 -21t9.5 -34t3.5 -40t0.5 -53v-702h117v-170h-153q-27 0 -48 2t-36.5 8t-26 10.5t-17.5 17t-10.5 20.5t-5.5 28t-2 31v38v13v700h-389v-698h246v-170h-297
z" />
    <glyph glyph-name="tj" unicode="tj" horiz-adv-x="960" 
d="M336 0q-46 0 -73 9t-40 32.5t-16.5 50t-3.5 76.5v700h-152v170h152v314h184v-314h520v-1149q0 -87 -8 -110q-15 -44 -83 -52q-23 -3 -54 -3h-406v167h369v977h-338v-698h246v-170h-297z" />
    <glyph glyph-name="tt" unicode="tt" horiz-adv-x="1224" 
d="M336 0q-46 0 -73 9t-40 32.5t-16.5 50t-3.5 76.5v700h-152v170h152v314h184v-314h301v314h182v-314h271v-170h-271v-698h304v-170h-355q-37 0 -61 7t-38 18t-21 34t-9 46t-2 63v700h-301v-698h240v-170h-291z" />
    <glyph glyph-name=".notdef" horiz-adv-x="1343" 
d="M332 211q-60 0 -123 24t-110.5 74.5t-47.5 112.5q0 126 154.5 232t384.5 132l18 2q-15 17 -27 46t-12 49q0 49 37 86q10 10 10 14q0 8 -8 16q-16 21 -78 93q-13 17 3 32q17 16 34 -3q2 -2 4 -5q61 -98 62 -100q8 -14 13 -16.5t18 -0.5q28 8 55 0q4 -1 7 -1h4.5t3.5 2l3 3
t4 5t4 6l66 104q9 12 21 10t15.5 -12.5t-3.5 -23.5l-35 -45l-39 -54q-6 -8 6 -20q41 -47 41 -92q0 -37 -37 -97q134 -20 250.5 -73t188 -128t71.5 -153q0 -58 -48 -106.5t-111 -72.5t-119 -24q-85 0 -167 57.5t-132 149.5l-33 60l-37 -66q-49 -87 -131 -152t-180 -65z
M104 424q0 -66 75 -113t153 -47q152 0 266 195q3 5 12.5 21.5t17 28.5t17 25.5t18.5 21t17 7.5q14 0 27.5 -15.5t30.5 -47.5t22 -39q116 -178 252 -178q70 0 148 45.5t75 103.5q-3 55 -46 105.5t-107 85.5t-139 61.5t-143.5 39.5t-119.5 13q-85 0 -184.5 -23.5t-187 -63
t-146 -100t-58.5 -126.5z" />
    <glyph glyph-name=".null" 
 />
    <glyph glyph-name="nonmarkingreturn" horiz-adv-x="682" 
 />
    <glyph glyph-name="space" unicode=" " horiz-adv-x="821" 
 />
    <glyph glyph-name="space" unicode="&#xa0;" horiz-adv-x="821" 
 />
    <glyph glyph-name="exclam" unicode="!" horiz-adv-x="372" 
d="M92 330v1022h182v-1022h-182zM51 121q0 54 36.5 89.5t96.5 35.5q63 0 100.5 -35.5t37.5 -89.5q0 -51 -39 -86t-99 -35t-96.5 35t-36.5 86z" />
    <glyph glyph-name="quotedbl" unicode="&#x22;" horiz-adv-x="589" 
d="M164 834l-119 518h172l117 -518h-170zM250 1352h172l117 -518h-170z" />
    <glyph glyph-name="numbersign" unicode="#" horiz-adv-x="1421" 
d="M133 0l199 469h-281l64 168h286l50 119h-281l61 164h287l184 432h183l-185 -432h119l182 432h185l-185 -432h369l-65 -164h-371l-49 -119h370l-69 -168h-371l-199 -469h-184l199 469h-117l-199 -469h-182zM584 637h116l52 119h-119z" />
    <glyph glyph-name="dollar" unicode="$" horiz-adv-x="1085" 
d="M838 930q-33 145 -109.5 208.5t-230.5 63.5q-132 0 -197 -47t-65 -154q0 -29 7.5 -53t19 -41.5t32 -33.5t39.5 -26.5t49 -22.5t52.5 -19t58.5 -19t59 -20q24 -8 71.5 -23t80 -25t78.5 -29.5t77.5 -38t66.5 -48.5t56 -64t35 -81.5t14 -102.5q0 -76 -24.5 -138.5
t-65.5 -105t-96.5 -72.5t-116 -43.5t-125.5 -14.5v-115h-143v135q-294 70 -371 422h184q30 -147 107.5 -207t218.5 -65q107 -5 177.5 45t70.5 159q0 37 -15.5 67.5t-36 49.5t-61 38.5t-68.5 29t-82 26t-79 25.5q-21 7 -69 22.5t-77 25t-74.5 29t-74 38t-62 48.5t-53 64
t-32.5 81.5t-13 102.5q0 170 103 261.5t272 105.5v119h143v-119q181 -16 298.5 -124t154.5 -314h-184z" />
    <glyph glyph-name="percent" unicode="%" horiz-adv-x="2410" 
d="M524 219q-90 0 -173.5 37.5t-151 107t-108 182t-40.5 251.5q0 138 40.5 249.5t108 180.5t151 106t173.5 37q97 0 183.5 -36.5t154.5 -106t108 -181t40 -249.5t-40 -250t-108 -182.5t-154.5 -108t-183.5 -37.5zM203 797q0 -112 26 -198.5t71 -137.5t101.5 -77t122.5 -26
q149 0 240.5 108.5t91.5 330.5q0 219 -91 325.5t-241 106.5q-138 0 -229.5 -108t-91.5 -324zM825 -2l570 1352h184l-569 -1352h-185zM1401 567q0 138 40.5 249.5t108 181t151.5 106.5t175 37q97 0 183 -37t153.5 -106.5t107 -181t39.5 -249.5t-39.5 -250t-107 -182
t-153.5 -107.5t-183 -37.5q-91 0 -175 37t-151.5 107t-108 182t-40.5 251zM1554 567q0 -112 26 -198t71 -137.5t102 -77t123 -25.5q149 0 240.5 108t91.5 330q0 219 -91.5 325.5t-240.5 106.5q-66 0 -123 -25t-102 -76t-71 -135.5t-26 -195.5z" />
    <glyph glyph-name="ampersand" unicode="&#x26;" horiz-adv-x="1394" 
d="M510 -23q-195 0 -318.5 114t-123.5 286q0 151 95.5 250t239.5 125l-43 39q-127 127 -127 258q0 145 116.5 234t295.5 89q217 0 343 -129.5t122 -347.5h-192q-3 153 -73 240.5t-196 87.5q-96 0 -158.5 -54t-62.5 -137q0 -63 34.5 -118t117.5 -136l792 -778h-231l-271 256
q-26 -130 -126.5 -204.5t-233.5 -74.5zM252 385q0 -100 81 -176t189 -76q98 0 171.5 70.5t72.5 177.5l-258 254q-107 -3 -181.5 -73.5t-74.5 -176.5z" />
    <glyph glyph-name="quotesingle" unicode="'" horiz-adv-x="391" 
d="M170 834l-119 518h172l117 -518h-170z" />
    <glyph glyph-name="parenleft" unicode="(" horiz-adv-x="778" 
d="M727 -86q-109 1 -205 26t-183.5 82.5t-150.5 143t-100 215t-37 291.5t37 290.5t100 213.5t150.5 141t183.5 80.5t205 25.5v-180q-119 -2 -210 -34t-158.5 -98.5t-102.5 -176.5t-35 -262q0 -153 35 -264.5t102.5 -178.5t158.5 -99t210 -34v-182z" />
    <glyph glyph-name="parenright" unicode=")" horiz-adv-x="778" 
d="M51 96q119 2 210 34t158.5 99t102.5 178.5t35 264.5q0 152 -35 262t-102.5 176.5t-158.5 98.5t-210 34v180q109 -1 205 -25.5t183.5 -80.5t150.5 -141t100 -213.5t37 -290.5t-37 -291.5t-100 -215t-150.5 -143t-183.5 -82.5t-205 -26v182z" />
    <glyph glyph-name="asterisk" unicode="*" horiz-adv-x="929" 
d="M393 520v246l-172 -174l-102 100l182 185h-250v143h246l-166 166l100 100l160 -158v224h144v-240l170 170l104 -102l-162 -160h230v-143h-234l172 -175l-100 -100l-180 178v-260h-142z" />
    <glyph glyph-name="plus" unicode="+" horiz-adv-x="901" 
d="M365 203v342h-314v170h311v319h170v-319h318v-170h-318v-342h-167z" />
    <glyph glyph-name="comma" unicode="," horiz-adv-x="360" 
d="M51 -238l88 381h170l-86 -381h-172z" />
    <glyph glyph-name="hyphen" unicode="-" horiz-adv-x="876" 
d="M51 434v170h774v-170h-774z" />
    <glyph glyph-name="period" unicode="." horiz-adv-x="372" 
d="M186 0q-59 0 -97 35.5t-38 87.5t38 86.5t97 34.5t96 -34.5t37 -86.5t-37 -87.5t-96 -35.5z" />
    <glyph glyph-name="slash" unicode="/" horiz-adv-x="856" 
d="M51 0l570 1352h184l-569 -1352h-185z" />
    <glyph glyph-name="zero" unicode="0" horiz-adv-x="1261" 
d="M625 -20q-110 0 -211 45t-183 129.5t-131 220.5t-49 303q0 135 32 249.5t87 195.5t128.5 138t156.5 84t170 27q117 0 221 -44.5t186 -128.5t130 -219t48 -302t-48 -302.5t-129.5 -220.5t-186 -130t-221.5 -45zM236 678q0 -135 31.5 -239t86 -165.5t123 -92.5t148.5 -31
q87 0 158 30.5t126.5 92.5t86 165t30.5 240q0 266 -109.5 395t-291.5 129q-80 0 -148.5 -30.5t-123 -91.5t-86 -164t-31.5 -238z" />
    <glyph glyph-name="one" unicode="1" horiz-adv-x="632" 
d="M51 0v170h180v1012h-159v170h342v-1182h168v-170h-531z" />
    <glyph glyph-name="two" unicode="2" horiz-adv-x="1101" 
d="M150 250q10 92 42 159.5t89 114t130 76.5t177 53q140 30 209 90t69 164q0 145 -89.5 220t-252.5 75q-141 0 -217 -88.5t-71 -239.5h-185q-7 227 129.5 361.5t343.5 134.5q110 0 202.5 -26.5t166.5 -80.5t116 -145t42 -211q0 -329 -445 -428q-138 -31 -196 -76t-76 -153
l-12 -80h682v-170h-881z" />
    <glyph glyph-name="three" unicode="3" horiz-adv-x="1107" 
d="M684 881q73 -16 135.5 -47.5t117.5 -82.5t86.5 -130t31.5 -177q0 -209 -134 -336.5t-362 -127.5q-145 0 -261.5 71t-180.5 191t-66 264h185q18 -184 99 -270t224 -86q162 0 237.5 70.5t75.5 223.5q0 59 -16 104.5t-47 75.5t-69 50t-91 30.5t-103 14.5t-114 4v139l293 324
h-625v170l889 -4v-138z" />
    <glyph glyph-name="four" unicode="4" horiz-adv-x="1138" 
d="M51 469l580 883h157v-834h299v-184h-299v-334h-182v334l-555 2v133zM303 518h303v467z" />
    <glyph glyph-name="five" unicode="5" horiz-adv-x="1112" 
d="M51 653l117 699h766v-170h-610l-52 -293q97 160 322 160q215 0 341 -140.5t126 -373.5q0 -152 -61.5 -278t-178.5 -201.5t-266 -75.5q-185 0 -315.5 117t-163.5 292h194q32 -111 105 -169t180 -58q150 0 236 101.5t86 271.5t-82 258t-242 88q-129 0 -202 -59.5
t-91 -168.5h-209z" />
    <glyph glyph-name="six" unicode="6" horiz-adv-x="1105" 
d="M825 1026q-23 86 -101.5 131t-170.5 45q-162 0 -239.5 -90t-77.5 -285v-79q28 69 67.5 116t112.5 78t174 31q208 0 336.5 -127t128.5 -340q0 -231 -139.5 -378.5t-366.5 -147.5q-226 0 -362 147t-136 379v311q0 552 498 555q204 1 325 -94.5t160 -255.5zM236 498
q0 -160 81 -248t232 -88t236 92t85 244q0 151 -80 232t-241 81q-154 0 -233.5 -88.5t-79.5 -224.5z" />
    <glyph glyph-name="seven" unicode="7" horiz-adv-x="927" 
d="M877 1208l-400 -1208h-184l397 1182h-639v170h826v-144z" />
    <glyph glyph-name="eight" unicode="8" horiz-adv-x="1030" 
d="M508 -20q-221 0 -338 109t-119 290q0 120 56.5 199.5t142.5 119.5q-98 38 -148.5 108.5t-50.5 182.5q0 179 120.5 281t336.5 102q213 0 342 -102.5t129 -280.5q0 -111 -54 -185.5t-151 -105.5q101 -41 153 -115t52 -204q0 -180 -123 -289.5t-348 -109.5zM236 379
q0 -110 63.5 -169.5t208.5 -59.5q287 0 287 229q0 123 -68 184.5t-219 61.5q-143 0 -207.5 -62.5t-64.5 -183.5zM236 989q0 -100 63.5 -153.5t208.5 -53.5q151 0 220 54.5t67 152.5q-2 99 -70 156t-217 57q-142 0 -207 -57t-65 -156z" />
    <glyph glyph-name="nine" unicode="9" horiz-adv-x="1105" 
d="M281 324q23 -86 101.5 -131.5t170.5 -45.5q162 0 239.5 90t77.5 285v80q-28 -69 -67.5 -116t-112.5 -78t-174 -31q-208 0 -336.5 127t-128.5 340q0 231 139.5 378.5t366.5 147.5q226 0 362 -147t136 -379v-312q0 -552 -498 -555q-204 -1 -325 95t-160 256zM236 852
q0 -151 80 -232t241 -81q154 0 233.5 88.5t79.5 224.5q0 160 -81 248t-232 88t-236 -92t-85 -244z" />
    <glyph glyph-name="colon" unicode=":" horiz-adv-x="374" 
d="M188 147q-59 0 -97 35.5t-38 87.5t38 86.5t97 34.5t96.5 -34.5t37.5 -86.5t-37.5 -87.5t-96.5 -35.5zM51 989q0 52 38 86.5t97 34.5t96 -34.5t37 -86.5t-37 -87.5t-96 -35.5t-97 35.5t-38 87.5z" />
    <glyph glyph-name="semicolon" unicode=";" horiz-adv-x="419" 
d="M233 866q-59 0 -97 35.5t-38 87.5t38 86.5t97 34.5t96.5 -34.5t37.5 -86.5t-37.5 -87.5t-96.5 -35.5zM51 -170l88 381h170l-86 -381h-172z" />
    <glyph glyph-name="less" unicode="&#x3c;" horiz-adv-x="813" 
d="M535 131l-484 442l504 435h205l-502 -439l477 -438h-200z" />
    <glyph glyph-name="equal" unicode="=" horiz-adv-x="858" 
d="M51 664v167h756v-167h-756zM51 408v170h756v-170h-756z" />
    <glyph glyph-name="greater" unicode="&#x3e;" horiz-adv-x="813" 
d="M78 131l479 438l-506 439h207l504 -435l-483 -442h-201z" />
    <glyph glyph-name="question" unicode="?" horiz-adv-x="1087" 
d="M82 354q0 56 13 103t31.5 81t52 64t61.5 48.5t73 38t74 29t77.5 25t70.5 23.5q23 8 59 20t58.5 19t52.5 19t49 22.5t39.5 26.5t32 33.5t19 41.5t7.5 53q0 107 -65 154t-197 47q-168 0 -249 -64t-91 -208h-184q39 445 524 442q95 -1 173 -22t140 -64t96.5 -115.5
t34.5 -169.5q0 -56 -13 -103t-32 -81t-52.5 -64t-61.5 -48.5t-74 -38t-74.5 -29t-77 -25t-69.5 -22.5t-59 -19.5t-58.5 -19t-51.5 -19.5t-48.5 -23t-38.5 -26.5t-32 -34.5t-18.5 -42t-7.5 -52v-82h-184v82zM55 96q0 44 34 76.5t91 32.5q58 0 91.5 -32.5t33.5 -76.5
t-34.5 -77t-90.5 -33q-58 0 -91.5 33.5t-33.5 76.5z" />
    <glyph glyph-name="at" unicode="@" horiz-adv-x="1308" 
d="M664 94q-125 0 -236.5 47.5t-195 133t-132.5 212t-49 275.5t47 266.5t129.5 192t192 113t237.5 38.5q126 0 234 -38.5t190 -112t128.5 -191t45.5 -266.5q0 -412 -260 -412q-78 0 -124 52t-50 112q-67 -122 -198 -131q-137 -10 -221.5 85t-84.5 253t84.5 252.5t221.5 85.5
q63 -3 117 -37.5t81 -93.5v121h119v-441q0 -110 66 -112q53 0 73.5 63.5t20.5 202.5q-3 228 -121.5 338t-321.5 110q-97 0 -175 -26t-137 -79.5t-91.5 -141t-32.5 -203.5q0 -106 25.5 -191t68 -141t100 -93t119.5 -53t130 -16v-174zM436 723q0 -105 50 -161t137 -56
q79 0 132.5 57.5t53.5 159.5q0 99 -51 159t-137 60q-85 0 -135 -57t-50 -162z" />
    <glyph glyph-name="A" unicode="A" horiz-adv-x="1411" 
d="M51 0l596 1352h139l572 -1352h-193l-174 397h-563l-180 -397h-197zM506 575h409l-198 484z" />
    <glyph glyph-name="B" unicode="B" horiz-adv-x="1069" 
d="M168 0q-64 0 -90.5 27t-26.5 92v1114q0 65 26.5 92t90.5 27h356q242 0 365 -99t123 -278q0 -105 -57.5 -188t-147.5 -113q104 -44 157.5 -121t53.5 -178q0 -179 -123 -277t-371 -98h-356zM236 170h288q91 0 153.5 15t96.5 45t48 66.5t14 86.5q0 101 -71.5 153t-240.5 52
h-288v-418zM236 760h288q89 0 150 15.5t94.5 45.5t47 68t13.5 90q0 106 -65.5 154.5t-239.5 48.5h-288v-422z" />
    <glyph glyph-name="C" unicode="C" horiz-adv-x="1419" 
d="M1368 498q-54 -231 -232.5 -374.5t-412.5 -143.5q-137 0 -260.5 51.5t-214 140.5t-144 215.5t-53.5 269.5q0 148 51 279t139.5 225.5t214.5 149.5t269 55q239 0 411.5 -140t227.5 -368h-186q-50 160 -172.5 250t-280.5 90q-208 0 -350 -150t-142 -382q0 -226 139 -372.5
t351 -146.5q168 0 291.5 94.5t167.5 256.5h186z" />
    <glyph glyph-name="D" unicode="D" horiz-adv-x="1247" 
d="M174 0q-78 0 -100.5 25t-22.5 102v1098q0 77 22.5 102t100.5 25h375q139 0 254.5 -39.5t204.5 -118.5t138.5 -208.5t49.5 -299.5q0 -169 -50 -301.5t-138 -215.5t-204.5 -126t-254.5 -43h-375zM236 170h313q204 0 333.5 134.5t129.5 381.5q0 496 -463 496h-313v-1012z
" />
    <glyph glyph-name="E" unicode="E" horiz-adv-x="1054" 
d="M174 0q-77 0 -100 26t-23 105v1094q0 77 22.5 102t100.5 25h827v-170h-765v-441h659v-170h-659v-401h763v-170h-825z" />
    <glyph glyph-name="F" unicode="F" horiz-adv-x="1026" 
d="M51 1225q0 77 22.5 102t100.5 25h801v-170h-739v-441h612v-170h-612v-571h-185v1225z" />
    <glyph glyph-name="G" unicode="G" horiz-adv-x="1482" 
d="M1432 0v170h-97v420q0 96 -30.5 125.5t-124.5 29.5h-461v-170h446q0 -114 -38.5 -198.5t-105.5 -132.5t-148 -71t-177 -23q-98 0 -181 33.5t-145.5 98t-98 166t-35.5 230.5q0 254 129 389t333 135q165 0 268 -71t138 -211h184q-28 107 -79 189t-110.5 130.5t-132.5 79.5
t-137 42t-131 11q-99 0 -191.5 -25t-176 -80t-145 -134.5t-98 -196t-36.5 -256.5q0 -168 54 -305t144.5 -223t205.5 -131t239 -41q327 9 471 276v-129q0 -78 22 -102.5t103 -24.5h142z" />
    <glyph glyph-name="H" unicode="H" horiz-adv-x="1105" 
d="M51 0v1352h185v-609h634v609h185v-1352h-185v573h-637v-573h-182z" />
    <glyph glyph-name="I" unicode="I" horiz-adv-x="518" 
d="M51 0v170h117v1012h-117v170h416v-170h-117v-1012h117v-170h-416z" />
    <glyph glyph-name="J" unicode="J" horiz-adv-x="819" 
d="M645 1352q79 0 101 -24.5t22 -102.5v-770q0 -130 -31.5 -218.5t-98 -140.5t-159 -74t-225.5 -22h-203v170h203q95 0 154.5 14t100.5 51t58 99.5t17 161.5v686h-217v170h278z" />
    <glyph glyph-name="K" unicode="K" horiz-adv-x="1052" 
d="M51 1352h185v-510l520 510h241l-651 -641h500q93 0 124 -30t31 -124v-557h-184v543h-581v-543h-185v1352z" />
    <glyph glyph-name="L" unicode="L" horiz-adv-x="921" 
d="M53 182l-2 1170h185v-1182h634v-170h-634q-35 0 -59.5 1t-45 6t-32.5 9t-21.5 17t-14 22.5t-7 32.5t-3 41t-0.5 53z" />
    <glyph glyph-name="M" unicode="M" horiz-adv-x="1374" 
d="M51 0v1352h185l450 -582l467 582h168v-1352h-182l2 1087l-398 -501h-118l-389 487v-1073h-185z" />
    <glyph glyph-name="N" unicode="N" horiz-adv-x="1159" 
d="M51 0v1352h150l723 -1006v1006h182l-4 -1352h-148l-718 997v-997h-185z" />
    <glyph glyph-name="O" unicode="O" horiz-adv-x="1439" 
d="M723 -20q-137 0 -260.5 51.5t-214 140.5t-144 215.5t-53.5 269.5q0 148 51 279t139.5 225.5t214.5 149.5t269 55q191 0 342.5 -92.5t235 -252t83.5 -355.5q0 -145 -52.5 -272.5t-141.5 -218t-211 -143t-258 -52.5zM236 666q0 -225 137 -370.5t348 -145.5q137 0 246.5 63
t173 180.5t63.5 268.5q0 239 -136.5 386.5t-342.5 147.5q-136 0 -247.5 -67t-176.5 -189t-65 -274z" />
    <glyph glyph-name="P" unicode="P" horiz-adv-x="1021" 
d="M51 1233q0 65 26.5 92t88.5 27h303q113 0 201 -26t143.5 -69t91.5 -103t50 -122t14 -131q0 -70 -14 -132t-50 -122t-91.5 -103t-143.5 -69t-201 -26h-233v-449h-185v1233zM236 616h233q96 0 161 21.5t98 63.5t45.5 89t12.5 111q0 52 -6 89.5t-25.5 76t-53.5 62
t-92.5 38.5t-139.5 15h-233v-566z" />
    <glyph glyph-name="Q" unicode="Q" horiz-adv-x="1439" 
d="M51 657q0 148 51 279t139.5 225.5t214.5 149.5t269 55q191 0 342.5 -92.5t235 -252t83.5 -355.5q0 -261 -158 -450t-397 -226l-28 -131h166v-164h-250q-61 0 -91 35t-14 106l31 150q-124 13 -233.5 69.5t-189 144t-125.5 206.5t-46 251zM236 666q0 -225 137 -370.5
t348 -145.5q137 0 246.5 63t173 180.5t63.5 268.5q0 239 -136.5 386.5t-342.5 147.5q-136 0 -247.5 -67t-176.5 -189t-65 -274z" />
    <glyph glyph-name="R" unicode="R" horiz-adv-x="1021" 
d="M51 1233q0 65 26.5 92t88.5 27h330q473 0 473 -422q0 -132 -60.5 -220.5t-169.5 -113.5q87 -29 139.5 -85t71.5 -121.5t19 -153.5v-236h-183v236q0 51 -6 88.5t-25.5 76t-53 62t-92.5 38.5t-140 15h-233v-516h-185v1233zM236 686h233q178 0 247.5 58.5t69.5 185.5
q0 50 -7.5 86.5t-27.5 69t-54 53t-87.5 32t-126.5 11.5h-247v-496z" />
    <glyph glyph-name="S" unicode="S" horiz-adv-x="1101" 
d="M862 985q-41 111 -127 164t-237 53q-133 0 -202 -51t-69 -150q0 -29 8 -53t19 -41.5t32.5 -34t39.5 -27t50.5 -22.5t54 -19t61 -19t61.5 -19q23 -8 73.5 -23t82 -24.5t79.5 -29t79 -38t67 -49t57 -64.5t35 -81.5t14 -102.5q0 -94 -38 -168t-102 -118t-140 -66t-160 -22
q-209 0 -345.5 90t-195.5 301h187q38 -116 126.5 -167.5t227.5 -53.5q114 -2 185 47t71 157q0 32 -9.5 58.5t-31.5 46.5t-43 35t-58.5 29t-63.5 22.5t-72.5 22.5t-71.5 22q-19 6 -57 17.5t-62 19t-61.5 21t-62 25t-56.5 30.5t-53 38.5t-43.5 47t-35.5 58t-21.5 70t-8.5 84.5
q0 97 35 170t97.5 116t143 64t177.5 21q210 0 354.5 -95t198.5 -292h-189z" />
    <glyph glyph-name="T" unicode="T" horiz-adv-x="1064" 
d="M440 0v1182h-389v170h963v-170h-391v-1182h-183z" />
    <glyph glyph-name="U" unicode="U" horiz-adv-x="1312" 
d="M659 -20q-104 0 -192.5 22t-166.5 72.5t-132 128t-85.5 195t-31.5 266.5v688h185v-688q0 -113 22 -201.5t59.5 -146.5t92 -96t116 -54t133.5 -16q198 0 308 123.5t110 390.5v688h183v-688q0 -684 -601 -684z" />
    <glyph glyph-name="V" unicode="V" horiz-adv-x="1425" 
d="M610 0l-559 1352h197l457 -1098l473 1098h196l-590 -1352h-174z" />
    <glyph glyph-name="W" unicode="W" horiz-adv-x="1816" 
d="M51 1352h197l350 -996l242 996h139l238 -996l350 996h196l-487 -1352h-158l-209 868l-211 -868h-157z" />
    <glyph glyph-name="X" unicode="X" horiz-adv-x="1312" 
d="M51 0l494 674l-492 678h201l389 -533l412 533h200l-516 -678l521 -674h-201l-416 532l-391 -532h-201z" />
    <glyph glyph-name="Y" unicode="Y" horiz-adv-x="1257" 
d="M51 1352h199l360 -647l398 647h198l-508 -826v-526h-182v528z" />
    <glyph glyph-name="Z" unicode="Z" horiz-adv-x="1077" 
d="M51 1169v183h975v-135l-719 -1035h719v-182h-975v135l723 1034h-723z" />
    <glyph glyph-name="bracketleft" unicode="[" horiz-adv-x="776" 
d="M51 -209v1770h674v-170h-504v-1430h504v-170h-674z" />
    <glyph glyph-name="backslash" unicode="\" horiz-adv-x="856" 
d="M805 0h-184l-570 1352h185z" />
    <glyph glyph-name="bracketright" unicode="]" horiz-adv-x="776" 
d="M725 -209h-674v170h504v1430h-504v170h674v-1770z" />
    <glyph glyph-name="asciicircum" unicode="^" horiz-adv-x="1067" 
d="M51 561l486 811l479 -809h-160l-317 539l-328 -541h-160z" />
    <glyph glyph-name="underscore" unicode="_" horiz-adv-x="892" 
d="M51 0v170h791v-170h-791z" />
    <glyph glyph-name="a" unicode="a" horiz-adv-x="1214" 
d="M526 -20q-216 4 -345.5 151t-129.5 383q0 243 130 394t345 151q261 0 371 -211v190h184v-868h82v-170h-141q-78 0 -101.5 24t-23.5 93v82q-118 -222 -371 -219zM236 514q0 -165 88.5 -264.5t240.5 -99.5q150 0 241 100.5t91 263.5q0 169 -92.5 272t-239.5 103
q-149 1 -239 -101.5t-90 -273.5z" />
    <glyph glyph-name="b" unicode="b" horiz-adv-x="1132" 
d="M606 -20q-254 -3 -370 213v-193h-183l-2 1352h185v-504q112 214 370 211q216 -4 345.5 -153t129.5 -392q0 -235 -130 -383t-345 -151zM236 520q0 -164 92.5 -267t238.5 -103q149 0 239.5 100.5t90.5 263.5q0 172 -88.5 274t-241.5 101q-150 0 -240.5 -102.5t-90.5 -266.5
z" />
    <glyph glyph-name="c" unicode="c" horiz-adv-x="1122" 
d="M1069 401q-33 -190 -168.5 -311t-322.5 -121q-242 3 -384.5 156t-142.5 389q0 241 142 393t385 152q186 0 321 -113.5t170 -298.5h-182q-25 115 -112 180t-212 62q-158 -3 -242.5 -105t-84.5 -270q0 -163 92.5 -268.5t249.5 -106.5q127 1 203 71.5t106 190.5h182z" />
    <glyph glyph-name="d" unicode="d" horiz-adv-x="1132" 
d="M526 -20q-215 3 -345 151t-130 383q0 244 129.5 394.5t345.5 150.5q129 0 224 -55t147 -156v504h184l-2 -1352h-182v193q-113 -216 -371 -213zM236 514q0 -163 90 -263.5t239 -100.5q147 0 239.5 101t92.5 263q0 170 -90.5 272.5t-241.5 102.5q-152 1 -240.5 -101
t-88.5 -274z" />
    <glyph glyph-name="e" unicode="e" horiz-adv-x="1130" 
d="M1055 350q-45 -169 -174.5 -269.5t-313.5 -100.5q-230 0 -373 150t-143 380q0 256 138.5 402.5t371.5 146.5q104 0 198 -39t166 -109t113.5 -175.5t40.5 -229.5l-843 -2q0 -155 95.5 -254.5t235.5 -99.5q232 0 303 200h185zM248 633h635q-25 118 -111 187t-211 69
q-121 0 -204.5 -69.5t-108.5 -186.5z" />
    <glyph glyph-name="f" unicode="f" horiz-adv-x="768" 
d="M160 0l2 692h-111v168h111v324q0 40 2 63t9 46t21 34t38 18t61 7h422v-170h-369v-322h229v-168h-229l-2 -692h-184z" />
    <glyph glyph-name="g" unicode="g" horiz-adv-x="1159" 
d="M414 -535q-173 0 -268 73.5t-95 211.5q0 119 97 193.5t266 74.5h329q64 0 103 26.5t33 68.5q-3 18 -20 32t-38 17q-116 -80 -264 -80q-222 0 -364 135t-142 348q0 220 141 357t367 137q119 0 186 -21h334v-129h-139q63 -68 99 -159t36 -185q0 -181 -106 -311
q37 -23 64.5 -66.5t27.5 -97.5q0 -109 -86 -176.5t-246 -67.5h-315q-86 0 -132 -29t-46 -83q0 -60 43 -85.5t135 -25.5h297q74 0 108.5 34.5t34.5 109.5h170q0 -149 -75.5 -225.5t-237.5 -76.5h-297zM236 565q0 -134 90.5 -223.5t224.5 -89.5q156 0 248 82t92 231
q0 147 -86.5 235.5t-249.5 88.5q-146 0 -232.5 -91t-86.5 -233z" />
    <glyph glyph-name="h" unicode="h" horiz-adv-x="1042" 
d="M53 0l-2 1352h185v-502q41 94 124 150t197 59q208 7 321 -138t113 -401v-520h-184v520q0 369 -277 369q-133 0 -214 -94.5t-80 -274.5v-520h-183z" />
    <glyph glyph-name="i" unicode="i" horiz-adv-x="518" 
d="M233 1038q25 0 43.5 -3.5t31 -8t20.5 -17t12.5 -21.5t6.5 -31.5t2.5 -37t0.5 -47.5v-702h117v-170h-154q-31 0 -54 3.5t-38.5 8t-25.5 16.5t-15.5 20.5t-8 30t-3 35t-0.5 43.5v11v700h-117v170h182zM80 1260q0 50 35 82t90 32q54 0 88.5 -32t34.5 -82t-34.5 -82.5
t-88.5 -32.5q-55 0 -90 32.5t-35 82.5z" />
    <glyph glyph-name="j" unicode="j" horiz-adv-x="692" 
d="M51 -455v170h369v1323h184v-1325q0 -89 -9 -114q-17 -44 -89 -52q-20 -2 -47 -2h-408zM393 1260q0 50 34.5 82t88.5 32q55 0 89 -32t34 -82t-34 -82.5t-89 -32.5q-54 0 -88.5 32.5t-34.5 82.5z" />
    <glyph glyph-name="k" unicode="k" horiz-adv-x="954" 
d="M672 0v463h-436v-463h-185v1352h185v-639l432 325h235l-532 -407h354q28 0 48.5 -4t34.5 -8.5t23.5 -17.5t14.5 -22.5t7 -32t2.5 -37t0.5 -46.5v-463h-184z" />
    <glyph glyph-name="l" unicode="l" horiz-adv-x="403" 
d="M184 0q-46 0 -73 9t-40 32.5t-16.5 50t-3.5 76.5v1184h185v-1182h114v-170h-166z" />
    <glyph glyph-name="m" unicode="m" horiz-adv-x="1808" 
d="M53 0l-2 1038h185v-178q110 193 313 199q134 3 233.5 -70.5t137.5 -191.5q43 121 148.5 191.5t231.5 70.5q202 0 328.5 -133.5t126.5 -382.5v-543h-182v530q0 185 -65.5 272t-207.5 87q-141 0 -217.5 -92t-76.5 -267l2 -530h-185v530q0 183 -65 271t-209 88
q-141 0 -227 -94t-86 -254v-541h-183z" />
    <glyph glyph-name="n" unicode="n" horiz-adv-x="1048" 
d="M51 0v1038h182v-188q43 94 126.5 150t197.5 59q209 7 324.5 -128.5t115.5 -383.5v-547h-184v547q0 180 -71 261t-212 81q-132 0 -215 -95t-82 -268l3 -526h-185z" />
    <glyph glyph-name="o" unicode="o" horiz-adv-x="1144" 
d="M571 -31q-231 3 -375.5 156t-144.5 387q0 241 143.5 394t376.5 153q236 0 378.5 -153.5t142.5 -393.5q0 -235 -145.5 -389.5t-375.5 -153.5zM236 512q0 -162 93 -268t240 -105q151 1 245.5 106.5t94.5 266.5q0 169 -93.5 273t-244.5 104q-149 2 -242 -102t-93 -275z" />
    <glyph glyph-name="p" unicode="p" horiz-adv-x="1132" 
d="M51 -313l2 1351h183v-192q54 103 149.5 158.5t226.5 54.5q212 -3 340.5 -151.5t128.5 -383.5q0 -244 -129.5 -394t-345.5 -150q-129 0 -223.5 54.5t-146.5 155.5v-503h-185zM236 524q0 -170 90 -272t241 -102q153 -1 241.5 100.5t88.5 273.5q0 163 -90.5 264t-239.5 101
q-147 0 -239 -101.5t-92 -263.5z" />
    <glyph glyph-name="q" unicode="q" horiz-adv-x="1132" 
d="M1081 -313h-184v503q-52 -101 -147 -155.5t-224 -54.5q-216 0 -345.5 150t-129.5 394q0 235 130 383.5t345 151.5q258 3 371 -213v192h184v-1351zM236 524q0 -172 88.5 -273.5t240.5 -100.5q151 0 241.5 102t90.5 272q0 162 -92.5 263.5t-239.5 101.5q-149 0 -239 -101
t-90 -264z" />
    <glyph glyph-name="r" unicode="r" horiz-adv-x="602" 
d="M51 870q0 50 3.5 76.5t16.5 50t40 32.5t73 9h367v-170h-315v-868h-185v870z" />
    <glyph glyph-name="s" unicode="s" horiz-adv-x="903" 
d="M250 299q16 -87 77 -119.5t167 -32.5q90 0 136 27.5t46 97.5q0 65 -52 98.5t-175 63.5q-64 15 -114 31.5t-105.5 44t-91.5 61t-60 83.5t-23 110q1 63 22.5 114t56.5 84t83.5 55t99 31t105.5 9q48 1 94.5 -7.5t98.5 -31.5t94.5 -59t78.5 -95.5t54 -136.5h-183
q-43 162 -233 162q-195 0 -195 -127q1 -63 70 -104t193 -70q62 -15 109 -30.5t96 -41.5t80.5 -57t51.5 -77t21 -103q0 -75 -28 -133.5t-76.5 -94t-109.5 -53.5t-130 -18q-392 0 -442 319h184z" />
    <glyph glyph-name="t" unicode="t" horiz-adv-x="794" 
d="M336 0q-46 0 -73 9t-40 32.5t-16.5 50t-3.5 76.5v700h-152v170h152v314h184v-314h270v-170h-270v-698h356v-170h-407z" />
    <glyph glyph-name="u" unicode="u" horiz-adv-x="1124" 
d="M932 0q-78 0 -101.5 23t-23.5 94v71q-41 -93 -124.5 -149t-197.5 -59q-210 -7 -322 133t-112 399v526h185v-526q0 -191 68 -276.5t208 -85.5q132 0 214.5 94.5t82.5 267.5l-2 526h184v-868h82v-170h-141z" />
    <glyph glyph-name="v" unicode="v" horiz-adv-x="1132" 
d="M883 1038h198l-460 -1038h-140l-430 1038h199l305 -788z" />
    <glyph glyph-name="w" unicode="w" horiz-adv-x="1439" 
d="M51 1038h185l180 -782l227 782h154l250 -782l157 782h182l-225 -1038h-186l-250 764l-248 -764h-186z" />
    <glyph glyph-name="x" unicode="x" horiz-adv-x="1071" 
d="M51 0l377 520l-369 518h201l270 -407l289 407h201l-395 -516l387 -522h-199l-283 416l-278 -416h-201z" />
    <glyph glyph-name="y" unicode="y" horiz-adv-x="1116" 
d="M51 1038h185l280 -743l365 743h184l-623 -1255q-26 -54 -46.5 -65t-75.5 -11h-11h-196v170h180l121 246z" />
    <glyph glyph-name="z" unicode="z" horiz-adv-x="964" 
d="M51 856v182h850v-180l-594 -676h598v-182h-839v182l608 674h-623z" />
    <glyph glyph-name="braceleft" unicode="{" horiz-adv-x="731" 
d="M680 -20q-228 7 -338.5 116t-110.5 307q0 45 -4 77.5t-9.5 55.5t-19 38t-24 23t-34.5 12.5t-40 5t-49 1.5v140q99 6 138 49.5t42 171.5q12 407 449 422v-146q-148 -14 -214.5 -76t-66.5 -200q0 -105 -24.5 -176.5t-81.5 -112.5q106 -70 106 -285q0 -257 281 -278v-145z
" />
    <glyph glyph-name="bar" unicode="|" horiz-adv-x="272" 
d="M51 -43v1432h170v-1432h-170z" />
    <glyph glyph-name="braceright" unicode="}" horiz-adv-x="731" 
d="M51 125q281 21 281 278q0 215 106 285q-57 41 -81.5 112.5t-24.5 176.5q0 138 -66.5 200t-214.5 76v146q437 -15 449 -422q3 -128 42 -171.5t138 -49.5v-140q-33 -1 -49 -1.5t-40 -5t-34.5 -12.5t-24 -23t-19 -38t-9.5 -55.5t-4 -77.5q0 -198 -110.5 -307t-338.5 -116
v145z" />
    <glyph glyph-name="exclamdown" unicode="&#xa1;" horiz-adv-x="387" 
d="M92 1022h182v-1022h-182v1022zM51 1231q0 51 36.5 86t96.5 35t99 -35t39 -86q0 -54 -37.5 -89.5t-100.5 -35.5q-60 0 -96.5 35.5t-36.5 89.5z" />
    <glyph glyph-name="cent" unicode="&#xa2;" horiz-adv-x="1382" 
d="M1331 510q-43 -227 -199 -367t-370 -161l-2 -213h-144l2 217q-158 19 -285.5 104.5t-204.5 235.5t-77 340q0 291 159 480.5t408 219.5v209h144v-205q216 -19 367 -154t198 -356h-188q-43 165 -160.5 253.5t-278.5 88.5q-201 0 -332.5 -142.5t-131.5 -387.5
q0 -238 129.5 -380t334.5 -142q168 0 287 94t158 266h186z" />
    <glyph glyph-name="sterling" unicode="&#xa3;" horiz-adv-x="1202" 
d="M72 170q107 54 165 122t64 138h-250v143l223 -2q-100 154 -108 308q-9 224 106.5 358t350.5 133q84 0 152.5 -12.5t135.5 -46t114.5 -88.5t80.5 -145t43 -210h-178q-3 94 -27 159t-69.5 103t-106 54.5t-143.5 17.5q-162 0 -229 -74.5t-64 -232.5q1 -77 28.5 -149.5
t83.5 -174.5h430v-141h-399q-4 -68 -45.5 -135.5t-110.5 -124.5h816v-170h-1063v170z" />
    <glyph glyph-name="yen" unicode="&#xa5;" horiz-adv-x="1257" 
d="M51 1352h199l360 -647l398 647h198l-508 -826v-49h357v-168h-357v-86h357v-170h-357v-53h-182v53h-360v170h360v86h-360v168h360v51z" />
    <glyph glyph-name="section" unicode="&#xa7;" horiz-adv-x="1032" 
d="M260 117q25 -62 71 -99t98.5 -50t123.5 -13q256 0 256 149q0 69 -78.5 111.5t-224.5 67.5q-86 16 -161 41.5t-144 65.5t-109 100t-41 133q0 173 158 245q-127 85 -127 213q-1 68 22 120.5t61 83.5t92.5 51t108.5 27t117 7q48 1 93 -5t98.5 -25t97 -50.5t82.5 -87
t61 -129.5h-147q-52 158 -295 154q-125 0 -187.5 -29.5t-62.5 -114.5q3 -140 330 -198q80 -14 148 -35.5t134 -58t104.5 -94t39.5 -130.5q1 -90 -45 -150.5t-123 -94.5q138 -79 141 -216q1 -65 -23.5 -117t-63.5 -84.5t-92.5 -54t-106.5 -30t-109 -8.5q-51 0 -92.5 5
t-95.5 23.5t-97.5 50t-87.5 89.5t-75 137h151zM195 623q3 -139 327 -197q136 -21 226 14t90 125q0 126 -303 178q-13 3 -54.5 15t-64.5 14q-102 9 -162 -28.5t-59 -120.5z" />
    <glyph glyph-name="copyright" unicode="&#xa9;" horiz-adv-x="1132" 
d="M561 203q-104 0 -195 37.5t-162 109t-112 185.5t-41 256q0 141 41 253.5t112 183t162 107.5t195 37q110 0 203 -37t164 -108t111 -183t40 -253q0 -143 -40 -256.5t-110.5 -185t-164 -109t-203.5 -37.5zM158 788q0 -123 30.5 -217.5t86 -151.5t127.5 -85.5t159 -28.5
q192 0 303 119.5t111 363.5q0 241 -111.5 361.5t-302.5 120.5q-180 0 -291.5 -122t-111.5 -360zM244 786q0 151 87 245.5t238 94.5q115 0 199 -71t106 -187h-104q-15 75 -71 118t-138 42q-103 -1 -158 -67t-55 -175q0 -106 60 -174t161 -69q81 1 131 47.5t70 124.5h104
q-22 -119 -105 -194t-200 -75q-150 1 -237.5 96.5t-87.5 243.5z" />
    <glyph glyph-name="ordfeminine" unicode="&#xaa;" horiz-adv-x="897" 
d="M391 600q-154 3 -247 108t-93 273q0 173 93 281t247 108q185 0 264 -149v135h131v-621h60v-121h-103q-56 0 -72 16.5t-16 67.5v58q-86 -159 -264 -156zM182 981q0 -117 64 -188.5t172 -71.5q107 0 172 72t65 188q0 122 -66 195t-171 73q-106 2 -171 -71.5t-65 -196.5z
" />
    <glyph glyph-name="guillemotleft" unicode="&#xab;" horiz-adv-x="1087" 
d="M528 135l-483 438l504 435h192l-501 -441l479 -432h-191zM340 573l504 435h192l-501 -441l479 -432h-191z" />
    <glyph glyph-name="registered" unicode="&#xae;" horiz-adv-x="1050" 
d="M520 297q-95 0 -179 35t-149 100.5t-103 170.5t-38 235q0 129 38 232.5t103 168.5t149 99t179 34q101 0 187 -34t151 -99t102 -168t37 -233q0 -131 -37 -235t-102 -170.5t-151 -101t-187 -34.5zM137 836q0 -231 106 -346t277 -115q183 0 288 114t105 347
q0 230 -105.5 344t-287.5 114q-171 0 -277 -115.5t-106 -342.5zM324 522v639h196q66 0 114 -18t73.5 -49t37 -66t11.5 -76q0 -60 -29 -112.5t-86 -69.5q100 -38 100 -174v-74h-71v74q0 68 -33 106.5t-129 38.5h-113v-219h-71zM395 807h125q93 0 128.5 39.5t35.5 105.5
q0 67 -33.5 105.5t-130.5 38.5h-125v-289z" />
    <glyph glyph-name="degree" unicode="&#xb0;" horiz-adv-x="544" 
d="M274 944q-102 0 -162.5 64t-60.5 151q0 88 61.5 150.5t163.5 62.5q99 0 158.5 -63t59.5 -150t-59 -151t-161 -64zM111 1159q0 -66 42.5 -112t120.5 -46q77 0 118.5 46t41.5 112q0 65 -43 110.5t-115 45.5q-73 0 -119 -45.5t-46 -110.5z" />
    <glyph glyph-name="plusminus" unicode="&#xb1;" horiz-adv-x="907" 
d="M365 434v342h-314v170h311v320h170v-320h318v-170h-318v-342h-167zM66 164v170h774v-170h-774z" />
    <glyph glyph-name="uni00B2" unicode="&#xb2;" horiz-adv-x="768" 
d="M117 625q13 120 82.5 178.5t210.5 91.5q92 19 138 59t46 109q0 97 -59.5 147t-167.5 50q-94 0 -145 -59t-48 -159h-123q-4 152 86.5 241t229.5 89q153 0 251.5 -76.5t98.5 -232.5q0 -217 -295 -285q-93 -22 -132 -51.5t-50 -101.5l-9 -54h455v-112h-588z" />
    <glyph glyph-name="uni00B3" unicode="&#xb3;" horiz-adv-x="772" 
d="M473 1057q49 -11 90.5 -31.5t78.5 -54.5t58 -86.5t21 -118.5q0 -139 -90 -224t-242 -85q-146 0 -241 101.5t-97 248.5h123q23 -238 215 -238q107 0 158 48t51 149q0 47 -16 81.5t-41.5 54t-65.5 31.5t-79 15.5t-91 3.5v92l195 218h-416v112l592 -2v-92z" />
    <glyph glyph-name="periodcentered" unicode="&#xb7;" horiz-adv-x="372" 
d="M186 487q-59 0 -97 35.5t-38 87.5t38 86.5t97 34.5t96 -34.5t37 -86.5t-37 -87.5t-96 -35.5z" />
    <glyph glyph-name="uni00B9" unicode="&#xb9;" horiz-adv-x="434" 
d="M51 530v107h113v633h-98v106h213v-739h104v-107h-332z" />
    <glyph glyph-name="ordmasculine" unicode="&#xba;" horiz-adv-x="679" 
d="M340 774q-128 1 -208.5 85.5t-80.5 213.5q0 134 79.5 218.5t209.5 84.5t208.5 -84.5t78.5 -218.5q0 -129 -80 -214.5t-207 -84.5zM154 1073q0 -89 51.5 -147.5t132.5 -57.5q84 0 136 58t52 147q0 94 -51.5 151.5t-134.5 57.5q-82 2 -134 -56t-52 -153z" />
    <glyph glyph-name="guillemotright" unicode="&#xbb;" horiz-adv-x="1101" 
d="M567 117h-190l479 432l-502 440h193l504 -434zM59 989h193l504 -434l-484 -438h-190l479 432z" />
    <glyph glyph-name="questiondown" unicode="&#xbf;" horiz-adv-x="1087" 
d="M1006 997q0 -56 -13 -103t-32 -81t-52 -64t-61.5 -48.5t-73 -37.5t-74 -29t-77.5 -25t-70 -23q-24 -8 -77.5 -25.5t-77.5 -26.5t-62 -28.5t-55 -38t-31 -49t-14 -68.5q0 -107 65 -153.5t197 -46.5q168 0 249 64t91 208h184q-39 -445 -524 -442q-95 1 -173 22t-140.5 63.5
t-97 115t-34.5 169.5q0 56 13 103t32 81t53 64.5t62 49t74 38t74 29t77 25t70 22.5t59 19.5t58.5 19t51.5 19t48 23t38.5 27t32 34t18 41.5t7.5 52v82h185v-82zM782 1255q0 44 34.5 77.5t90.5 33.5q58 0 91.5 -34t33.5 -77q0 -44 -34 -76t-91 -32q-58 0 -91.5 32t-33.5 76z
" />
    <glyph glyph-name="Agrave" unicode="&#xc0;" horiz-adv-x="1411" 
d="M51 0l596 1352h139l572 -1352h-193l-174 397h-563l-180 -397h-197zM436 1890h164l184 -458h-163zM506 575h409l-198 484z" />
    <glyph glyph-name="Aacute" unicode="&#xc1;" horiz-adv-x="1411" 
d="M51 0l596 1352h139l572 -1352h-193l-174 397h-563l-180 -397h-197zM506 575h409l-198 484zM647 1425l184 459h164l-184 -459h-164z" />
    <glyph glyph-name="Acircumflex" unicode="&#xc2;" horiz-adv-x="1411" 
d="M51 0l596 1352h139l572 -1352h-193l-174 397h-563l-180 -397h-197zM362 1442l330 493l332 -491h-178l-154 235l-151 -237h-179zM506 575h409l-198 484z" />
    <glyph glyph-name="Atilde" unicode="&#xc3;" horiz-adv-x="1411" 
d="M51 0l596 1352h139l572 -1352h-193l-174 397h-563l-180 -397h-197zM362 1421q-12 130 52 203.5t164 52.5q32 -6 66.5 -29.5t64 -46.5t47.5 -28q51 -12 77.5 17t40.5 89h146q-5 -55 -29 -107t-62.5 -90t-88.5 -54t-107 2q-39 12 -91 55t-73 49q-36 11 -51.5 -20t-15.5 -93
h-140zM506 575h409l-198 484z" />
    <glyph glyph-name="Adieresis" unicode="&#xc4;" horiz-adv-x="1411" 
d="M51 0l596 1352h139l572 -1352h-193l-174 397h-563l-180 -397h-197zM408 1544q0 49 37.5 84t97.5 35q61 0 97 -34t36 -85q0 -49 -37 -83t-96 -34q-60 0 -97.5 34t-37.5 83zM506 575h409l-198 484zM705 1544q0 49 36.5 84t96.5 35t97.5 -34t37.5 -85q0 -48 -38.5 -82.5
t-96.5 -34.5q-60 0 -96.5 34t-36.5 83z" />
    <glyph glyph-name="Aring" unicode="&#xc5;" horiz-adv-x="1411" 
d="M51 0l596 1352h139l572 -1352h-193l-174 397h-563l-180 -397h-197zM469 1645q0 95 67 157t166 62q103 0 169.5 -62t66.5 -157q0 -86 -67 -148.5t-169 -62.5q-97 0 -165 63t-68 148zM506 575h409l-198 484zM569 1647q0 -49 36.5 -84t96.5 -35t98 35t38 84q0 52 -37 86
t-99 34q-60 0 -96.5 -34t-36.5 -86z" />
    <glyph glyph-name="AE" unicode="&#xc6;" horiz-adv-x="2103" 
d="M51 0l574 1352h133l342 -842v715q0 77 22.5 102t100.5 25h827v-170h-766v-441h660v-170h-660v-401h764v-170h-928l-166 397h-540l-174 -397h-189zM487 575h394l-191 484z" />
    <glyph glyph-name="Ccedilla" unicode="&#xc7;" horiz-adv-x="1419" 
d="M467 -414q142 -9 223 -1t111 29t30 64q0 57 -80 73.5t-288 10.5l-6 97l94 143q-219 57 -359.5 236t-140.5 419q0 148 51 279t139.5 225.5t214.5 149.5t269 55q239 0 411.5 -140t227.5 -368h-186q-50 160 -172.5 250t-280.5 90q-208 0 -350 -150t-142 -382
q0 -226 139 -372.5t351 -146.5q168 0 291.5 94.5t167.5 256.5h186q-54 -231 -232.5 -374.5t-412.5 -143.5h-29l-53 -78q64 -3 118 -13.5t106.5 -34t83 -68.5t30.5 -108q0 -72 -26 -120t-72 -71t-108 -35t-134 -11t-150 1q-15 1 -22 1v143z" />
    <glyph glyph-name="Egrave" unicode="&#xc8;" horiz-adv-x="1054" 
d="M174 0q-77 0 -100 26t-23 105v1094q0 77 22.5 102t100.5 25h827v-170h-765v-441h659v-170h-659v-401h763v-170h-825zM276 1882h164l185 -459h-164z" />
    <glyph glyph-name="Eacute" unicode="&#xc9;" horiz-adv-x="1054" 
d="M174 0q-77 0 -100 26t-23 105v1094q0 77 22.5 102t100.5 25h827v-170h-765v-441h659v-170h-659v-401h763v-170h-825zM485 1415l185 459h164l-185 -459h-164z" />
    <glyph glyph-name="Ecircumflex" unicode="&#xca;" horiz-adv-x="1054" 
d="M174 0q-77 0 -100 26t-23 105v1094q0 77 22.5 102t100.5 25h827v-170h-765v-441h659v-170h-659v-401h763v-170h-825zM201 1432l329 493l332 -491h-178l-154 235l-151 -237h-178z" />
    <glyph glyph-name="Edieresis" unicode="&#xcb;" horiz-adv-x="1054" 
d="M174 0q-77 0 -100 26t-23 105v1094q0 77 22.5 102t100.5 25h827v-170h-765v-441h659v-170h-659v-401h763v-170h-825zM246 1534q0 49 37.5 84t97.5 35q61 0 97 -34t36 -85q0 -49 -37 -83t-96 -34q-60 0 -97.5 34t-37.5 83zM543 1534q0 49 36.5 84t96.5 35t97.5 -34
t37.5 -85q0 -48 -38.5 -82.5t-96.5 -34.5q-60 0 -96.5 34t-36.5 83z" />
    <glyph glyph-name="Igrave" unicode="&#xcc;" horiz-adv-x="550" 
d="M84 0v170h117v1012h-117v170h416v-170h-117v-1012h117v-170h-416zM51 1874h164l184 -459h-163z" />
    <glyph glyph-name="Iacute" unicode="&#xcd;" horiz-adv-x="600" 
d="M51 0v170h117v1012h-117v170h416v-170h-117v-1012h117v-170h-416zM229 1409l185 459h164l-185 -459h-164z" />
    <glyph glyph-name="Icircumflex" unicode="&#xce;" horiz-adv-x="749" 
d="M160 0v170h116v1012h-116v170h415v-170h-116v-1012h116v-170h-415zM51 1425l330 494l332 -492h-178l-154 236l-152 -238h-178z" />
    <glyph glyph-name="Idieresis" unicode="&#xcf;" horiz-adv-x="661" 
d="M115 0v170h116v1012h-116v170h415v-170h-116v-1012h116v-170h-415zM51 1528q0 49 37.5 84t97.5 35q61 0 97 -34t36 -85q0 -49 -37 -83t-96 -34q-60 0 -97.5 34t-37.5 83zM348 1528q0 49 36.5 84t96.5 35t97.5 -34t37.5 -85q0 -48 -38.5 -82.5t-96.5 -34.5q-60 0 -96.5 34
t-36.5 83z" />
    <glyph glyph-name="Ntilde" unicode="&#xd1;" horiz-adv-x="1159" 
d="M51 0v1352h150l723 -1006v1006h182l-4 -1352h-148l-718 997v-997h-185zM199 1411q-12 130 51.5 203.5t163.5 52.5q32 -6 66.5 -29.5t64 -46.5t47.5 -28q51 -12 78 17t41 89h145q-5 -55 -29 -107t-62.5 -90.5t-88.5 -54.5t-107 2q-39 12 -90.5 55.5t-72.5 49.5
q-36 11 -52 -20t-16 -93h-139z" />
    <glyph glyph-name="Ograve" unicode="&#xd2;" horiz-adv-x="1439" 
d="M723 -20q-137 0 -260.5 51.5t-214 140.5t-144 215.5t-53.5 269.5q0 148 51 279t139.5 225.5t214.5 149.5t269 55q191 0 342.5 -92.5t235 -252t83.5 -355.5q0 -145 -52.5 -272.5t-141.5 -218t-211 -143t-258 -52.5zM236 666q0 -225 137 -370.5t348 -145.5q137 0 246.5 63
t173 180.5t63.5 268.5q0 239 -136.5 386.5t-342.5 147.5q-136 0 -247.5 -67t-176.5 -189t-65 -274zM432 1921h164l184 -459h-164z" />
    <glyph glyph-name="Oacute" unicode="&#xd3;" horiz-adv-x="1439" 
d="M723 -20q-137 0 -260.5 51.5t-214 140.5t-144 215.5t-53.5 269.5q0 148 51 279t139.5 225.5t214.5 149.5t269 55q191 0 342.5 -92.5t235 -252t83.5 -355.5q0 -145 -52.5 -272.5t-141.5 -218t-211 -143t-258 -52.5zM236 666q0 -225 137 -370.5t348 -145.5q137 0 246.5 63
t173 180.5t63.5 268.5q0 239 -136.5 386.5t-342.5 147.5q-136 0 -247.5 -67t-176.5 -189t-65 -274zM643 1456l184 459h164l-184 -459h-164z" />
    <glyph glyph-name="Ocircumflex" unicode="&#xd4;" horiz-adv-x="1439" 
d="M723 -20q-137 0 -260.5 51.5t-214 140.5t-144 215.5t-53.5 269.5q0 148 51 279t139.5 225.5t214.5 149.5t269 55q191 0 342.5 -92.5t235 -252t83.5 -355.5q0 -145 -52.5 -272.5t-141.5 -218t-211 -143t-258 -52.5zM236 666q0 -225 137 -370.5t348 -145.5q137 0 246.5 63
t173 180.5t63.5 268.5q0 239 -136.5 386.5t-342.5 147.5q-136 0 -247.5 -67t-176.5 -189t-65 -274zM356 1473l330 493l332 -491h-178l-154 235l-151 -237h-179z" />
    <glyph glyph-name="Otilde" unicode="&#xd5;" horiz-adv-x="1439" 
d="M723 -20q-137 0 -260.5 51.5t-214 140.5t-144 215.5t-53.5 269.5q0 148 51 279t139.5 225.5t214.5 149.5t269 55q191 0 342.5 -92.5t235 -252t83.5 -355.5q0 -145 -52.5 -272.5t-141.5 -218t-211 -143t-258 -52.5zM236 666q0 -225 137 -370.5t348 -145.5q137 0 246.5 63
t173 180.5t63.5 268.5q0 239 -136.5 386.5t-342.5 147.5q-136 0 -247.5 -67t-176.5 -189t-65 -274zM358 1452q-12 130 51.5 203.5t163.5 52.5q32 -6 67 -29.5t64.5 -46.5t47.5 -28q51 -12 77.5 17t40.5 89h146q-5 -55 -29 -107t-62.5 -90.5t-88.5 -54.5t-107 2
q-39 12 -91 55.5t-73 49.5q-36 11 -51.5 -20t-15.5 -93h-140z" />
    <glyph glyph-name="Odieresis" unicode="&#xd6;" horiz-adv-x="1439" 
d="M723 -20q-137 0 -260.5 51.5t-214 140.5t-144 215.5t-53.5 269.5q0 148 51 279t139.5 225.5t214.5 149.5t269 55q191 0 342.5 -92.5t235 -252t83.5 -355.5q0 -145 -52.5 -272.5t-141.5 -218t-211 -143t-258 -52.5zM236 666q0 -225 137 -370.5t348 -145.5q137 0 246.5 63
t173 180.5t63.5 268.5q0 239 -136.5 386.5t-342.5 147.5q-136 0 -247.5 -67t-176.5 -189t-65 -274zM401 1575q0 49 38 84t98 35q61 0 97 -34t36 -85q0 -49 -37 -83t-96 -34q-60 0 -98 34t-38 83zM698 1575q0 49 36.5 84t96.5 35t98 -34t38 -85q0 -48 -39 -82.5t-97 -34.5
q-60 0 -96.5 34t-36.5 83z" />
    <glyph glyph-name="multiply" unicode="&#xd7;" horiz-adv-x="815" 
d="M51 401l242 242l-221 221l121 121l219 -219l227 225l119 -121l-226 -225l226 -225l-121 -119l-225 223l-242 -241z" />
    <glyph glyph-name="Oslash" unicode="&#xd8;" horiz-adv-x="1439" 
d="M723 -20q-83 0 -156 18l-55 -160h-184l75 219q-161 87 -256.5 245t-95.5 355q0 148 51 279t139.5 225.5t214.5 149.5t269 55q67 0 131 -12l41 121h184l-61 -177q170 -84 268 -252t98 -380q0 -145 -52.5 -272.5t-141.5 -218t-211 -143t-258 -52.5zM236 666
q0 -145 60 -261.5t165 -183.5l338 969q-38 6 -74 6q-136 0 -247.5 -67t-176.5 -189t-65 -274zM623 158q66 -8 98 -8q137 0 246.5 63t173 180.5t63.5 268.5q0 161 -65 283.5t-176 187.5z" />
    <glyph glyph-name="Ugrave" unicode="&#xd9;" horiz-adv-x="1312" 
d="M659 -20q-104 0 -192.5 22t-166.5 72.5t-132 128t-85.5 195t-31.5 266.5v688h185v-688q0 -113 22 -201.5t59.5 -146.5t92 -96t116 -54t133.5 -16q198 0 308 123.5t110 390.5v688h183v-688q0 -684 -601 -684zM393 1851h164l184 -458h-163z" />
    <glyph glyph-name="Uacute" unicode="&#xda;" horiz-adv-x="1312" 
d="M659 -20q-104 0 -192.5 22t-166.5 72.5t-132 128t-85.5 195t-31.5 266.5v688h185v-688q0 -113 22 -201.5t59.5 -146.5t92 -96t116 -54t133.5 -16q198 0 308 123.5t110 390.5v688h183v-688q0 -684 -601 -684zM604 1386l184 459h164l-184 -459h-164z" />
    <glyph glyph-name="Ucircumflex" unicode="&#xdb;" horiz-adv-x="1312" 
d="M659 -20q-104 0 -192.5 22t-166.5 72.5t-132 128t-85.5 195t-31.5 266.5v688h185v-688q0 -113 22 -201.5t59.5 -146.5t92 -96t116 -54t133.5 -16q198 0 308 123.5t110 390.5v688h183v-688q0 -684 -601 -684zM319 1403l330 493l332 -491h-178l-154 235l-151 -237h-179z
" />
    <glyph glyph-name="Udieresis" unicode="&#xdc;" horiz-adv-x="1312" 
d="M659 -20q-104 0 -192.5 22t-166.5 72.5t-132 128t-85.5 195t-31.5 266.5v688h185v-688q0 -113 22 -201.5t59.5 -146.5t92 -96t116 -54t133.5 -16q198 0 308 123.5t110 390.5v688h183v-688q0 -684 -601 -684zM365 1505q0 49 37.5 84t97.5 35q61 0 97 -34t36 -85
q0 -48 -37 -82t-96 -34q-60 0 -97.5 33.5t-37.5 82.5zM662 1505q0 49 36.5 84t96.5 35t97.5 -34t37.5 -85q0 -48 -38.5 -82t-96.5 -34q-60 0 -96.5 33.5t-36.5 82.5z" />
    <glyph glyph-name="Yacute" unicode="&#xdd;" horiz-adv-x="1257" 
d="M51 1352h199l360 -647l398 647h198l-508 -826v-526h-182v528zM569 1423l185 459h164l-185 -459h-164z" />
    <glyph glyph-name="germandbls" unicode="&#xdf;" horiz-adv-x="1144" 
d="M51 950q0 68 15 126.5t53 112.5t96 92.5t149.5 61.5t208.5 23q251 0 382.5 -97.5t131.5 -273.5q0 -101 -50 -190t-132 -131q86 -44 137.5 -124t51.5 -179q0 -181 -125 -276t-377 -95h-158v170h158q187 0 259.5 46.5t72.5 154.5q0 229 -332 229h-158v148h158q93 0 158 18
t101 52.5t51.5 77t15.5 99.5q0 103 -79.5 158t-265.5 55q-69 0 -123 -7.5t-90.5 -19.5t-62.5 -32.5t-40.5 -40t-23 -48.5t-10.5 -53t-2 -57v-950h-170v950z" />
    <glyph glyph-name="agrave" unicode="&#xe0;" horiz-adv-x="1214" 
d="M526 -20q-216 4 -345.5 151t-129.5 383q0 243 130 394t345 151q261 0 371 -211v190h184v-868h82v-170h-141q-78 0 -101.5 24t-23.5 93v82q-118 -222 -371 -219zM236 514q0 -165 88.5 -264.5t240.5 -99.5q150 0 241 100.5t91 263.5q0 169 -92.5 272t-239.5 103
q-149 1 -239 -101.5t-90 -273.5zM344 1618h164l184 -459h-164z" />
    <glyph glyph-name="aacute" unicode="&#xe1;" horiz-adv-x="1214" 
d="M526 -20q-216 4 -345.5 151t-129.5 383q0 243 130 394t345 151q261 0 371 -211v190h184v-868h82v-170h-141q-78 0 -101.5 24t-23.5 93v82q-118 -222 -371 -219zM236 514q0 -165 88.5 -264.5t240.5 -99.5q150 0 241 100.5t91 263.5q0 169 -92.5 272t-239.5 103
q-149 1 -239 -101.5t-90 -273.5zM555 1153l184 459h164l-184 -459h-164z" />
    <glyph glyph-name="acircumflex" unicode="&#xe2;" horiz-adv-x="1214" 
d="M526 -20q-216 4 -345.5 151t-129.5 383q0 243 130 394t345 151q261 0 371 -211v190h184v-868h82v-170h-141q-78 0 -101.5 24t-23.5 93v82q-118 -222 -371 -219zM236 514q0 -165 88.5 -264.5t240.5 -99.5q150 0 241 100.5t91 263.5q0 169 -92.5 272t-239.5 103
q-149 1 -239 -101.5t-90 -273.5zM270 1169l330 494l332 -492h-178l-154 236l-151 -238h-179z" />
    <glyph glyph-name="atilde" unicode="&#xe3;" horiz-adv-x="1214" 
d="M526 -20q-216 4 -345.5 151t-129.5 383q0 243 130 394t345 151q261 0 371 -211v190h184v-868h82v-170h-141q-78 0 -101.5 24t-23.5 93v82q-118 -222 -371 -219zM236 514q0 -165 88.5 -264.5t240.5 -99.5q150 0 241 100.5t91 263.5q0 169 -92.5 272t-239.5 103
q-149 1 -239 -101.5t-90 -273.5zM330 1145q-9 106 43 166t135 43q33 -7 81.5 -44.5t63.5 -41.5q42 -10 64.5 14.5t34.5 73.5h118q-10 -97 -78.5 -165.5t-156.5 -39.5q-32 10 -75 45.5t-60 40.5q-29 9 -42.5 -17t-13.5 -75h-114z" />
    <glyph glyph-name="adieresis" unicode="&#xe4;" horiz-adv-x="1214" 
d="M526 -20q-216 4 -345.5 151t-129.5 383q0 243 130 394t345 151q261 0 371 -211v190h184v-868h82v-170h-141q-78 0 -101.5 24t-23.5 93v82q-118 -222 -371 -219zM236 514q0 -165 88.5 -264.5t240.5 -99.5q150 0 241 100.5t91 263.5q0 169 -92.5 272t-239.5 103
q-149 1 -239 -101.5t-90 -273.5zM315 1272q0 49 38 84t98 35q61 0 97 -34t36 -85q0 -49 -37 -83t-96 -34q-60 0 -98 34t-38 83zM612 1272q0 49 36.5 84t96.5 35t98 -34t38 -85q0 -48 -39 -82.5t-97 -34.5q-60 0 -96.5 34t-36.5 83z" />
    <glyph glyph-name="aring" unicode="&#xe5;" horiz-adv-x="1214" 
d="M526 -20q-216 4 -345.5 151t-129.5 383q0 243 130 394t345 151q261 0 371 -211v190h184v-868h82v-170h-141q-78 0 -101.5 24t-23.5 93v82q-118 -222 -371 -219zM236 514q0 -165 88.5 -264.5t240.5 -99.5q150 0 241 100.5t91 263.5q0 169 -92.5 272t-239.5 103
q-149 1 -239 -101.5t-90 -273.5zM377 1372q0 95 67 157t166 62q103 0 169.5 -62t66.5 -157q0 -86 -67 -148.5t-169 -62.5q-97 0 -165 63t-68 148zM477 1374q0 -49 36.5 -84t96.5 -35t97.5 35t37.5 84q0 52 -36.5 86.5t-98.5 34.5q-60 0 -96.5 -34.5t-36.5 -86.5z" />
    <glyph glyph-name="ae" unicode="&#xe6;" horiz-adv-x="1998" 
d="M524 -20q-143 3 -250.5 69t-165 182t-57.5 267q0 235 129 381.5t344 146.5q259 0 369 -205v185h182v-109q141 160 383 160q104 0 198 -39t166 -109t113.5 -175.5t40.5 -229.5l-843 -2q0 -155 95.5 -255t235.5 -100q232 0 303 201h185q-45 -169 -174.5 -270t-313.5 -101
q-173 0 -307 93v-70h-139q-77 0 -101 23t-24 90v80q-118 -216 -369 -213zM233 498q0 -159 89 -256t241 -97q149 0 239.5 98t90.5 255q0 164 -92 264t-238 100q-149 1 -239.5 -98.5t-90.5 -265.5zM1145 631h635q-25 118 -111 187t-211 69q-121 0 -204.5 -69.5t-108.5 -186.5z
" />
    <glyph glyph-name="ccedilla" unicode="&#xe7;" horiz-adv-x="1122" 
d="M1069 401q-29 -174 -148 -291.5t-286 -136.5l-37 -55q50 -2 94 -8.5t90.5 -22t79 -39.5t53.5 -63t21 -90q0 -74 -27.5 -123t-76 -71.5t-113.5 -34t-139.5 -9.5t-155.5 2v144q142 -9 223 -1t111 29t30 64q0 57 -80 73.5t-288 10.5l-6 96l67 102q-201 33 -315.5 180
t-114.5 357q0 241 142 393t385 152q186 0 321 -113.5t170 -298.5h-182q-25 115 -112 180t-212 62q-158 -3 -242.5 -105t-84.5 -270q0 -163 92.5 -268.5t249.5 -106.5q127 1 203 71.5t106 190.5h182z" />
    <glyph glyph-name="egrave" unicode="&#xe8;" horiz-adv-x="1130" 
d="M1055 350q-45 -169 -174.5 -269.5t-313.5 -100.5q-230 0 -373 150t-143 380q0 256 138.5 402.5t371.5 146.5q104 0 198 -39t166 -109t113.5 -175.5t40.5 -229.5l-843 -2q0 -155 95.5 -254.5t235.5 -99.5q232 0 303 200h185zM248 633h635q-25 118 -111 187t-211 69
q-121 0 -204.5 -69.5t-108.5 -186.5zM289 1595h164l184 -458h-164z" />
    <glyph glyph-name="eacute" unicode="&#xe9;" horiz-adv-x="1130" 
d="M1055 350q-45 -169 -174.5 -269.5t-313.5 -100.5q-230 0 -373 150t-143 380q0 256 138.5 402.5t371.5 146.5q104 0 198 -39t166 -109t113.5 -175.5t40.5 -229.5l-843 -2q0 -155 95.5 -254.5t235.5 -99.5q232 0 303 200h185zM248 633h635q-25 118 -111 187t-211 69
q-121 0 -204.5 -69.5t-108.5 -186.5zM500 1130l184 459h164l-184 -459h-164z" />
    <glyph glyph-name="ecircumflex" unicode="&#xea;" horiz-adv-x="1130" 
d="M1055 350q-45 -169 -174.5 -269.5t-313.5 -100.5q-230 0 -373 150t-143 380q0 256 138.5 402.5t371.5 146.5q104 0 198 -39t166 -109t113.5 -175.5t40.5 -229.5l-843 -2q0 -155 95.5 -254.5t235.5 -99.5q232 0 303 200h185zM215 1147l330 493l332 -491h-179l-153 235
l-152 -237h-178zM248 633h635q-25 118 -111 187t-211 69q-121 0 -204.5 -69.5t-108.5 -186.5z" />
    <glyph glyph-name="edieresis" unicode="&#xeb;" horiz-adv-x="1130" 
d="M1055 350q-45 -169 -174.5 -269.5t-313.5 -100.5q-230 0 -373 150t-143 380q0 256 138.5 402.5t371.5 146.5q104 0 198 -39t166 -109t113.5 -175.5t40.5 -229.5l-843 -2q0 -155 95.5 -254.5t235.5 -99.5q232 0 303 200h185zM248 633h635q-25 118 -111 187t-211 69
q-121 0 -204.5 -69.5t-108.5 -186.5zM260 1249q0 49 37.5 84t97.5 35q61 0 97 -34t36 -85q0 -48 -37 -82t-96 -34q-60 0 -97.5 33.5t-37.5 82.5zM557 1249q0 49 36.5 84t96.5 35t97.5 -34t37.5 -85q0 -48 -38.5 -82t-96.5 -34q-60 0 -96.5 33.5t-36.5 82.5z" />
    <glyph glyph-name="igrave" unicode="&#xec;" horiz-adv-x="468" 
d="M233 0v1038h185v-1038h-185zM45 1561h164l184 -459h-164z" />
    <glyph glyph-name="iacute" unicode="&#xed;" horiz-adv-x="454" 
d="M61 0v1038h185v-1038h-185zM82 1096l184 458h164l-184 -458h-164z" />
    <glyph glyph-name="icircumflex" unicode="&#xee;" horiz-adv-x="741" 
d="M307 0v1038h185v-1038h-185zM45 1112l330 494l332 -492h-179l-153 236l-152 -238h-178z" />
    <glyph glyph-name="idieresis" unicode="&#xef;" horiz-adv-x="653" 
d="M262 0v1038h184v-1038h-184zM45 1214q0 49 37.5 84t97.5 35q61 0 97 -34t36 -85q0 -48 -37 -82t-96 -34q-60 0 -97.5 33.5t-37.5 82.5zM342 1214q0 49 36.5 84t96.5 35t97.5 -34t37.5 -85q0 -48 -38.5 -82t-96.5 -34q-60 0 -96.5 33.5t-36.5 82.5z" />
    <glyph glyph-name="ntilde" unicode="&#xf1;" horiz-adv-x="1048" 
d="M51 0v1038h182v-188q43 94 126.5 150t197.5 59q209 7 324.5 -128.5t115.5 -383.5v-547h-184v547q0 180 -71 261t-212 81q-132 0 -215 -95t-82 -268l3 -526h-185zM135 1128q-12 130 51.5 203.5t163.5 52.5q32 -6 66.5 -29.5t64 -46.5t47.5 -28q51 -12 78 17t41 89h146
q-5 -55 -29 -107t-62.5 -90t-88.5 -54t-107 2q-39 12 -91 55t-73 49q-36 11 -52 -20t-16 -93h-139z" />
    <glyph glyph-name="ograve" unicode="&#xf2;" horiz-adv-x="1144" 
d="M571 -31q-231 3 -375.5 156t-144.5 387q0 241 143.5 394t376.5 153q236 0 378.5 -153.5t142.5 -393.5q0 -235 -145.5 -389.5t-375.5 -153.5zM236 512q0 -162 93 -268t240 -105q151 1 245.5 106.5t94.5 266.5q0 169 -93.5 273t-244.5 104q-149 2 -242 -102t-93 -275z
M283 1599h163l185 -458h-164z" />
    <glyph glyph-name="oacute" unicode="&#xf3;" horiz-adv-x="1144" 
d="M571 -31q-231 3 -375.5 156t-144.5 387q0 241 143.5 394t376.5 153q236 0 378.5 -153.5t142.5 -393.5q0 -235 -145.5 -389.5t-375.5 -153.5zM236 512q0 -162 93 -268t240 -105q151 1 245.5 106.5t94.5 266.5q0 169 -93.5 273t-244.5 104q-149 2 -242 -102t-93 -275z
M494 1135l184 458h164l-185 -458h-163z" />
    <glyph glyph-name="ocircumflex" unicode="&#xf4;" horiz-adv-x="1144" 
d="M571 -31q-231 3 -375.5 156t-144.5 387q0 241 143.5 394t376.5 153q236 0 378.5 -153.5t142.5 -393.5q0 -235 -145.5 -389.5t-375.5 -153.5zM209 1151l330 494l331 -492h-178l-153 236l-152 -238h-178zM236 512q0 -162 93 -268t240 -105q151 1 245.5 106.5t94.5 266.5
q0 169 -93.5 273t-244.5 104q-149 2 -242 -102t-93 -275z" />
    <glyph glyph-name="otilde" unicode="&#xf5;" horiz-adv-x="1144" 
d="M571 -31q-231 3 -375.5 156t-144.5 387q0 241 143.5 394t376.5 153q236 0 378.5 -153.5t142.5 -393.5q0 -235 -145.5 -389.5t-375.5 -153.5zM209 1130q-12 130 51.5 203.5t163.5 52.5q32 -6 66.5 -29.5t64 -46.5t47.5 -28q51 -12 78 17.5t41 89.5h145q-5 -55 -29 -107
t-62 -90.5t-88 -54.5t-107 2q-39 12 -91 55t-73 49q-36 11 -52 -20t-16 -93h-139zM236 512q0 -162 93 -268t240 -105q151 1 245.5 106.5t94.5 266.5q0 169 -93.5 273t-244.5 104q-149 2 -242 -102t-93 -275z" />
    <glyph glyph-name="odieresis" unicode="&#xf6;" horiz-adv-x="1144" 
d="M571 -31q-231 3 -375.5 156t-144.5 387q0 241 143.5 394t376.5 153q236 0 378.5 -153.5t142.5 -393.5q0 -235 -145.5 -389.5t-375.5 -153.5zM236 512q0 -162 93 -268t240 -105q151 1 245.5 106.5t94.5 266.5q0 169 -93.5 273t-244.5 104q-149 2 -242 -102t-93 -275z
M254 1253q0 49 37.5 84t97.5 35q61 0 97 -34t36 -85q0 -48 -37 -82t-96 -34q-60 0 -97.5 33.5t-37.5 82.5zM551 1253q0 49 36.5 84t96.5 35t97.5 -34t37.5 -85q0 -48 -38.5 -82t-96.5 -34q-60 0 -96.5 33.5t-36.5 82.5z" />
    <glyph glyph-name="divide" unicode="&#xf7;" horiz-adv-x="876" 
d="M51 434v170h774v-170h-774zM315 782q0 45 33.5 76t85.5 31q53 0 86 -31t33 -76t-33 -76.5t-86 -31.5q-52 0 -85.5 31.5t-33.5 76.5zM326 262q0 45 33.5 76t86.5 31q52 0 84.5 -31t32.5 -76t-33 -76.5t-84 -31.5q-53 0 -86.5 31.5t-33.5 76.5z" />
    <glyph glyph-name="oslash" unicode="&#xf8;" horiz-adv-x="1144" 
d="M571 -31q-51 0 -120 15l-66 -154h-184l92 217q-114 69 -178 191t-64 274q0 241 143.5 394t376.5 153q67 0 140 -17l59 140h184l-86 -207q106 -71 165 -192t59 -271q0 -235 -145.5 -389.5t-375.5 -153.5zM236 512q0 -93 33 -171.5t93 -129.5l281 672q-35 6 -72 6
q-149 2 -242 -102t-93 -275zM516 143q18 -4 53 -4q151 1 245.5 106.5t94.5 266.5q0 187 -112 293z" />
    <glyph glyph-name="ugrave" unicode="&#xf9;" horiz-adv-x="1124" 
d="M932 0q-78 0 -101.5 23t-23.5 94v71q-41 -93 -124.5 -149t-197.5 -59q-210 -7 -322 133t-112 399v526h185v-526q0 -191 68 -276.5t208 -85.5q132 0 214.5 94.5t82.5 267.5l-2 526h184v-868h82v-170h-141zM201 1614h164l184 -459h-164z" />
    <glyph glyph-name="uacute" unicode="&#xfa;" horiz-adv-x="1124" 
d="M932 0q-78 0 -101.5 23t-23.5 94v71q-41 -93 -124.5 -149t-197.5 -59q-210 -7 -322 133t-112 399v526h185v-526q0 -191 68 -276.5t208 -85.5q132 0 214.5 94.5t82.5 267.5l-2 526h184v-868h82v-170h-141zM410 1149l184 459h164l-185 -459h-163z" />
    <glyph glyph-name="ucircumflex" unicode="&#xfb;" horiz-adv-x="1124" 
d="M932 0q-78 0 -101.5 23t-23.5 94v71q-41 -93 -124.5 -149t-197.5 -59q-210 -7 -322 133t-112 399v526h185v-526q0 -191 68 -276.5t208 -85.5q132 0 214.5 94.5t82.5 267.5l-2 526h184v-868h82v-170h-141zM125 1165l330 494l331 -492h-178l-153 236l-152 -238h-178z" />
    <glyph glyph-name="udieresis" unicode="&#xfc;" horiz-adv-x="1124" 
d="M932 0q-78 0 -101.5 23t-23.5 94v71q-41 -93 -124.5 -149t-197.5 -59q-210 -7 -322 133t-112 399v526h185v-526q0 -191 68 -276.5t208 -85.5q132 0 214.5 94.5t82.5 267.5l-2 526h184v-868h82v-170h-141zM170 1268q0 49 37.5 83.5t97.5 34.5q61 0 97 -33.5t36 -84.5
q0 -49 -37 -83t-96 -34q-60 0 -97.5 34t-37.5 83zM467 1268q0 49 36.5 83.5t96.5 34.5t97.5 -33.5t37.5 -84.5q0 -48 -38.5 -82.5t-96.5 -34.5q-60 0 -96.5 34t-36.5 83z" />
    <glyph glyph-name="yacute" unicode="&#xfd;" horiz-adv-x="1116" 
d="M51 1038h185l280 -743l365 743h184l-623 -1255q-26 -54 -46.5 -65t-75.5 -11h-11h-196v170h180l121 246zM520 1130l185 459h163l-184 -459h-164z" />
    <glyph glyph-name="ydieresis" unicode="&#xff;" horiz-adv-x="1116" 
d="M51 1038h185l280 -743l365 743h184l-623 -1255q-26 -54 -46.5 -65t-75.5 -11h-11h-196v170h180l121 246zM281 1249q0 49 37.5 84t97.5 35q61 0 97 -34t36 -85q0 -48 -37 -82t-96 -34q-60 0 -97.5 33.5t-37.5 82.5zM578 1249q0 49 36.5 84t96.5 35t97.5 -34t37.5 -85
q0 -48 -38.5 -82t-96.5 -34q-60 0 -96.5 33.5t-36.5 82.5z" />
    <glyph glyph-name="dotlessi" unicode="&#x131;" horiz-adv-x="286" 
d="M51 0v1038h185v-1038h-185z" />
    <glyph glyph-name="OE" unicode="&#x152;" horiz-adv-x="2166" 
d="M723 -20q-137 0 -260.5 51.5t-214 140.5t-144 215.5t-53.5 269.5q0 148 51 279t139.5 225.5t214.5 149.5t269 55q146 0 269.5 -55t213.5 -154v68q0 77 22.5 102t100.5 25h828v-170h-766v-441h659v-170h-659v-401h764v-170h-826q-77 0 -100 26t-23 105v62
q-92 -101 -217 -157t-268 -56zM236 666q0 -225 137 -370.5t348 -145.5q137 0 246.5 63t173 180.5t63.5 268.5q0 239 -136.5 386.5t-342.5 147.5q-136 0 -247.5 -67t-176.5 -189t-65 -274z" />
    <glyph glyph-name="oe" unicode="&#x153;" horiz-adv-x="1951" 
d="M571 -31q-231 3 -375.5 156t-144.5 387q0 241 143.5 394t376.5 153q135 0 242 -52.5t176 -148.5q66 102 174.5 156.5t247.5 54.5q104 0 198 -39t166 -109t113.5 -175.5t40.5 -229.5l-837 -2v-2q0 -37 -2 -55q19 -133 110.5 -215t216.5 -82q232 0 303 200h185
q-45 -169 -174.5 -269.5t-313.5 -100.5q-134 0 -240.5 52.5t-175.5 147.5q-69 -105 -180.5 -163.5t-249.5 -57.5zM236 512q0 -162 93 -268t240 -105q135 1 226 87t110 223q-4 46 -4 71q0 45 2 68q-20 137 -109.5 219t-222.5 82q-149 2 -242 -102t-93 -275zM1098 643h635
q-25 118 -111 187t-211 69q-121 0 -204.5 -69.5t-108.5 -186.5z" />
    <glyph glyph-name="Scaron" unicode="&#x160;" horiz-adv-x="1101" 
d="M862 985q-41 111 -127 164t-237 53q-133 0 -202 -51t-69 -150q0 -29 8 -53t19 -41.5t32.5 -34t39.5 -27t50.5 -22.5t54 -19t61 -19t61.5 -19q23 -8 73.5 -23t82 -24.5t79.5 -29t79 -38t67 -49t57 -64.5t35 -81.5t14 -102.5q0 -94 -38 -168t-102 -118t-140 -66t-160 -22
q-209 0 -345.5 90t-195.5 301h187q38 -116 126.5 -167.5t227.5 -53.5q114 -2 185 47t71 157q0 32 -9.5 58.5t-31.5 46.5t-43 35t-58.5 29t-63.5 22.5t-72.5 22.5t-71.5 22q-19 6 -57 17.5t-62 19t-61.5 21t-62 25t-56.5 30.5t-53 38.5t-43.5 47t-35.5 58t-21.5 70t-8.5 84.5
q0 97 35 170t97.5 116t143 64t177.5 21q210 0 354.5 -95t198.5 -292h-189zM205 1970h178l152 -237l153 235h178l-331 -491z" />
    <glyph glyph-name="scaron" unicode="&#x161;" horiz-adv-x="903" 
d="M250 299q16 -87 77 -119.5t167 -32.5q90 0 136 27.5t46 97.5q0 65 -52 98.5t-175 63.5q-64 15 -114 31.5t-105.5 44t-91.5 61t-60 83.5t-23 110q1 63 22.5 114t56.5 84t83.5 55t99 31t105.5 9q48 1 94.5 -7.5t98.5 -31.5t94.5 -59t78.5 -95.5t54 -136.5h-183
q-43 162 -233 162q-195 0 -195 -127q1 -63 70 -104t193 -70q62 -15 109 -30.5t96 -41.5t80.5 -57t51.5 -77t21 -103q0 -75 -28 -133.5t-76.5 -94t-109.5 -53.5t-130 -18q-392 0 -442 319h184zM111 1640h178l151 -237l154 235h178l-332 -491z" />
    <glyph glyph-name="Ydieresis" unicode="&#x178;" horiz-adv-x="1257" 
d="M51 1352h199l360 -647l398 647h198l-508 -826v-526h-182v528zM330 1542q0 49 37.5 84t97.5 35q61 0 97 -34t36 -85q0 -49 -37 -83t-96 -34q-60 0 -97.5 34t-37.5 83zM627 1542q0 49 36.5 84t96.5 35t97.5 -34t37.5 -85q0 -48 -38.5 -82.5t-96.5 -34.5q-60 0 -96.5 34
t-36.5 83z" />
    <glyph glyph-name="zcaron" unicode="&#x17e;" horiz-adv-x="964" 
d="M51 856v182h850v-180l-594 -676h598v-182h-839v182l608 674h-623zM154 1642h178l151 -237l154 235h178l-332 -491z" />
    <glyph glyph-name="gravecomb" unicode="&#x300;" 
d="M236 893l-185 459h164l184 -459h-163z" />
    <glyph glyph-name="acutecomb" unicode="&#x301;" 
d="M217 893h-164l185 459h163z" />
    <glyph glyph-name="uni0302" unicode="&#x302;" 
d="M51 866l330 494l332 -492h-178l-154 236l-152 -238h-178z" />
    <glyph glyph-name="tildecomb" unicode="&#x303;" 
d="M55 1094q-12 130 51.5 203.5t163.5 52.5q32 -6 67 -29.5t64.5 -47t47.5 -28.5q51 -12 77.5 17t40.5 90h146q-5 -55 -29 -107t-62.5 -90.5t-88.5 -54.5t-107 2q-39 12 -91 55t-73 49q-36 11 -51.5 -19.5t-15.5 -92.5h-140z" />
    <glyph glyph-name="uni0304" unicode="&#x304;" 
d="M51 1208v144h553v-144h-553z" />
    <glyph glyph-name="uni0306" unicode="&#x306;" 
d="M412 971q-163 6 -262 114.5t-99 266.5h168q-3 -95 53.5 -153t139.5 -58q98 0 147 57t49 154h166q0 -168 -100.5 -276.5t-261.5 -104.5z" />
    <glyph glyph-name="uni0307" unicode="&#x307;" 
d="M193 1104q-65 0 -103.5 37t-38.5 86q0 51 39.5 88t102.5 37q67 0 105 -37t38 -88q0 -48 -40 -85.5t-103 -37.5z" />
    <glyph glyph-name="uni0308" unicode="&#x308;" 
d="M186 1116q-60 0 -97.5 34t-37.5 83t37.5 84t97.5 35q61 0 97 -34t36 -85q0 -49 -37 -83t-96 -34zM348 1233q0 49 36.5 84t96.5 35t97.5 -34t37.5 -85q0 -48 -38.5 -82.5t-96.5 -34.5q-60 0 -96.5 34t-36.5 83z" />
    <glyph glyph-name="uni030A" unicode="&#x30a;" 
d="M285 944q-97 0 -165.5 63.5t-68.5 147.5q0 94 67.5 156.5t166.5 62.5q103 0 169 -62t66 -157q0 -86 -66.5 -148.5t-168.5 -62.5zM152 1157q0 -49 36.5 -84t96.5 -35t97.5 35t37.5 84q0 52 -36.5 86.5t-98.5 34.5q-60 0 -96.5 -34.5t-36.5 -86.5z" />
    <glyph glyph-name="uni030B" unicode="&#x30b;" 
d="M244 893l184 459h164l-182 -459h-166zM51 893l185 459h163l-184 -459h-164z" />
    <glyph glyph-name="uni030C" unicode="&#x30c;" 
d="M381 866l-330 494h178l152 -238l154 236h178z" />
    <glyph glyph-name="uni0312" unicode="&#x312;" 
d="M51 678l88 381h170l-86 -381h-172z" />
    <glyph glyph-name="uni0326" unicode="&#x326;" 
d="M51 -244l187 492h149l-184 -492h-152z" />
    <glyph glyph-name="uni0327" unicode="&#x327;" 
d="M61 -172q142 -9 223 -1t111.5 29t30.5 64q0 57 -80.5 73.5t-288.5 10.5l-6 96l137 209h160l-112 -166q337 -13 337 -223q0 -72 -26 -120t-72 -71t-108 -35t-134 -11t-150 1q-15 1 -22 1v143z" />
    <glyph glyph-name="uni0328" unicode="&#x328;" 
d="M549 -215q-68 -36 -143.5 -43.5t-141.5 12t-118.5 66t-75.5 112.5q-31 89 -9.5 165.5t75 132t124.5 79.5l70 -4v-110q-69 -24 -107 -84.5t-16 -122.5q20 -51 67.5 -75.5t108 -21t127.5 30.5z" />
    <glyph glyph-name="endash" unicode="&#x2013;" horiz-adv-x="980" 
d="M51 707v170h877v-170h-877z" />
    <glyph glyph-name="emdash" unicode="&#x2014;" horiz-adv-x="1112" 
d="M51 707v170h1010v-170h-1010z" />
    <glyph glyph-name="quoteleft" unicode="&#x2018;" horiz-adv-x="391" 
d="M170 834l-119 518h172l117 -518h-170z" />
    <glyph glyph-name="quoteright" unicode="&#x2019;" horiz-adv-x="391" 
d="M221 834h-170l117 518h172z" />
    <glyph glyph-name="quotesinglbase" unicode="&#x201a;" horiz-adv-x="391" 
d="M51 -238l88 381h170l-86 -381h-172z" />
    <glyph glyph-name="quotedblleft" unicode="&#x201c;" horiz-adv-x="624" 
d="M170 834l-119 518h172l117 -518h-170zM283 1350h172l116 -519h-170z" />
    <glyph glyph-name="quotedblright" unicode="&#x201d;" horiz-adv-x="610" 
d="M440 834h-170l117 518h172zM51 834l117 518h172l-119 -518h-170z" />
    <glyph glyph-name="quotedblbase" unicode="&#x201e;" horiz-adv-x="612" 
d="M51 -238l88 381h170l-86 -381h-172zM274 -238l88 381h170l-86 -381h-172z" />
    <glyph glyph-name="dagger" unicode="&#x2020;" horiz-adv-x="929" 
d="M379 371v553h-328v170h326v258h172v-258h328v-170h-328v-553h-170z" />
    <glyph glyph-name="bullet" unicode="&#x2022;" horiz-adv-x="450" 
d="M225 430q-75 0 -124.5 46.5t-49.5 113.5q0 65 49 110t125 45q77 0 124.5 -44.5t47.5 -110.5q0 -68 -48 -114t-124 -46z" />
    <glyph glyph-name="ellipsis" unicode="&#x2026;" horiz-adv-x="1017" 
d="M186 0q-59 0 -97 35.5t-38 87.5t38 86.5t97 34.5t96 -34.5t37 -86.5t-37 -87.5t-96 -35.5zM377 123q0 52 38 86.5t97 34.5t96 -34.5t37 -86.5t-37 -87.5t-96 -35.5t-97 35.5t-38 87.5zM696 123q0 52 38 86.5t97 34.5t96.5 -34.5t37.5 -86.5t-37.5 -87.5t-96.5 -35.5
t-97 35.5t-38 87.5z" />
    <glyph glyph-name="perthousand" unicode="&#x2030;" horiz-adv-x="3387" 
d="M524 229q-90 0 -173.5 37.5t-151 107t-108 182t-40.5 251.5q0 138 40.5 249.5t108 180.5t151 106t173.5 37q97 0 183.5 -36.5t154.5 -106t108 -181t40 -249.5t-40 -250t-108 -182.5t-154.5 -108t-183.5 -37.5zM203 807q0 -112 26 -198t71 -137.5t101.5 -77t122.5 -25.5
q149 0 240.5 108t91.5 330q0 219 -91 325.5t-241 106.5q-138 0 -229.5 -108t-91.5 -324zM791 -2l569 1352h184l-569 -1352h-184zM1362 559q0 138 40.5 249.5t108 181t151 106.5t173.5 37q97 0 183.5 -37t154 -106.5t107.5 -181t40 -249.5t-40 -250t-107.5 -182t-154 -107.5
t-183.5 -37.5q-90 0 -173.5 37t-151 107t-108 182.5t-40.5 250.5zM1513 559q0 -112 26 -198t71.5 -137.5t102 -77t122.5 -25.5q149 0 240.5 108t91.5 330q0 219 -91 325.5t-241 106.5q-66 0 -122.5 -25t-102 -76t-71.5 -135.5t-26 -195.5zM2378 578q0 138 40 249.5
t107.5 180.5t151 106t174.5 37q97 0 183 -36.5t153.5 -106t107 -181t39.5 -249.5t-39.5 -250t-107 -182.5t-153.5 -108t-183 -37.5q-91 0 -174.5 37.5t-151 107t-107.5 182t-40 251.5zM2529 578q0 -112 26 -198.5t71.5 -137.5t102 -77t122.5 -26q149 0 240.5 108.5
t91.5 330.5q0 219 -91 325.5t-241 106.5q-66 0 -122.5 -25t-102 -76t-71.5 -135.5t-26 -195.5z" />
    <glyph glyph-name="guilsinglleft" unicode="&#x2039;" horiz-adv-x="800" 
d="M535 135l-484 438l504 435h193l-502 -441l479 -432h-190z" />
    <glyph glyph-name="guilsinglright" unicode="&#x203a;" horiz-adv-x="800" 
d="M266 135h-190l479 432l-502 441h193l504 -435z" />
    <glyph glyph-name="fraction" unicode="&#x2044;" horiz-adv-x="856" 
d="M51 0l570 1352h184l-569 -1352h-185z" />
    <glyph glyph-name="Euro" unicode="&#x20ac;" horiz-adv-x="1632" 
d="M1581 498q-54 -231 -232.5 -374.5t-412.5 -143.5q-222 0 -396 128.5t-239 335.5h-250v170h215q-2 14 -2 43q0 24 4 74h-215v168h252q67 209 237.5 338t395.5 129q239 0 411.5 -140t227.5 -368h-184q-49 159 -172.5 250.5t-282.5 91.5q-148 0 -266.5 -82.5t-173.5 -218.5
h309v-168h-361q-2 -20 -2 -65q0 -36 2 -52h361v-170h-311q50 -136 169 -217.5t271 -81.5q168 0 293.5 95.5t169.5 257.5h182z" />
    <glyph glyph-name="trademark" unicode="&#x2122;" horiz-adv-x="1302" 
d="M897 920l-172 210v-428h-117v529h-233v-529h-119v529h-205v121h649l226 -281l231 281h94v-650h-118v433l-183 -215h-53z" />
    <glyph glyph-name="minus" unicode="&#x2212;" horiz-adv-x="876" 
d="M51 434v170h774v-170h-774z" />
    <glyph glyph-name="BeeType" horiz-adv-x="1312" 
d="M317 211q-60 0 -123 24t-110 74t-47 113q0 126 154 232t384 132l19 2q-15 17 -27 46t-12 49q0 49 37 86q10 10 10 14q0 8 -8 16q-16 21 -78 93q-13 17 3 32q17 16 34 -3q2 -2 4 -5q46 -73 61 -100q8 -14 13 -16.5t18 -0.5q28 8 56 0q4 -1 7 -1h4.5t3.5 2l3 3t4 5t4 6
l66 104q8 12 20 10t15.5 -12.5t-3.5 -23.5l-34 -45l-39 -54q-6 -8 6 -20q41 -47 41 -92q0 -37 -37 -97q134 -20 250.5 -73t188 -128t71.5 -153q0 -58 -48.5 -106.5t-111.5 -72.5t-119 -24q-85 0 -167 57.5t-132 149.5l-32 60l-37 -66q-49 -87 -131.5 -152t-180.5 -65z
M90 424q0 -66 75 -113t152 -47q153 0 267 195q3 5 12.5 21.5t17 28.5t17 25.5t18.5 21t17 7.5q14 0 27 -16t30 -47t22 -39q116 -178 252 -178q43 0 95 19t91.5 55t37.5 75q-3 55 -46 105.5t-107 85.5t-139 61.5t-143.5 39.5t-119.5 13q-85 0 -184.5 -23.5t-187 -63
t-146 -100t-58.5 -126.5z" />
    </font>
</defs>
</svg>
