<?xml version="1.0" standalone="no"?>
<!DOCTYPE svg PUBLIC "-//W3C//DTD SVG 1.1//EN" "http://www.w3.org/Graphics/SVG/1.1/DTD/svg11.dtd" >
<svg xmlns="http://www.w3.org/2000/svg" xmlns:xlink="http://www.w3.org/1999/xlink" version="1.1">
<metadata>
Created by FontForge 20201107 at Tue Feb 11 16:23:32 2025
 By 
Copyright (c) 2022 by beetype. All rights reserved.
</metadata>
<defs>
<font id="NeueLeiden-Bold" horiz-adv-x="0" >
  <font-face 
    font-family="Neue Leiden Bold"
    font-weight="700"
    font-stretch="normal"
    units-per-em="2048"
    panose-1="0 0 0 0 0 0 0 0 0 0"
    ascent="1638"
    descent="-410"
    x-height="1038"
    cap-height="1352"
    bbox="27 -604 3379 2013"
    underline-thickness="102"
    underline-position="-255"
    unicode-range="U+0020-FB02"
  />
<missing-glyph horiz-adv-x="1312" 
d="M317 211q-60 0 -123 24t-110 74t-47 113q0 126 154 232t384 132l19 2q-15 17 -27 46t-12 49q0 49 37 86q10 10 10 14q0 8 -8 16q-16 21 -78 93q-13 17 3 32q17 16 34 -3q2 -2 4 -5q46 -73 61 -100q8 -14 13 -16.5t18 -0.5q28 8 56 0q4 -1 7 -1h4.5t3.5 2l3 3t4 5t4 6
l66 104q8 12 20 10t15.5 -12.5t-3.5 -23.5l-34 -45l-39 -54q-6 -8 6 -20q41 -47 41 -92q0 -37 -37 -97q134 -20 250.5 -73t188 -128t71.5 -153q0 -58 -48.5 -106.5t-111.5 -72.5t-119 -24q-85 0 -167 57.5t-132 149.5l-32 60l-37 -66q-49 -87 -131.5 -152t-180.5 -65z
M90 424q0 -66 75 -113t152 -47q153 0 267 195q3 5 12.5 21.5t17 28.5t17 25.5t18.5 21t17 7.5q14 0 27 -16t30 -47t22 -39q116 -178 252 -178q43 0 95 19t91.5 55t37.5 75q-3 55 -46 105.5t-107 85.5t-139 61.5t-143.5 39.5t-119.5 13q-85 0 -184.5 -23.5t-187 -63
t-146 -100t-58.5 -126.5z" />
    <glyph glyph-name="fi" unicode="fi" horiz-adv-x="1118" 
d="M133 0v625h-96v229h96v272q0 64 4.5 99.5t21 68t51.5 45.5t93 13h604v-230h-522v-268h434q28 0 48.5 -5t34.5 -12t23.5 -24.5t14.5 -30t7 -42.5t2.5 -49t0.5 -60v-402h131v-229h-190q-70 0 -110.5 11t-57.5 43.5t-20 60.5t-3 93v17v400h-315l-2 -625h-250z" />
    <glyph glyph-name="fl" unicode="fl" horiz-adv-x="1136" 
d="M133 0v625h-96v229h96v272q0 64 4.5 99.5t21 68t51.5 45.5t93 13h666v-1123h131v-229h-211q-47 0 -78.5 10t-49.5 25.5t-27.5 46.5t-12 61.5t-2.5 81.5v897h-334v-268h281v-229h-281l-2 -625h-250z" />
    <glyph glyph-name="TT" unicode="TT" horiz-adv-x="1423" 
d="M403 0v1122h-366v230h1349v-230h-366v-1122h-250v1122h-117v-1122h-250z" />
    <glyph glyph-name="ff" unicode="ff" horiz-adv-x="1333" 
d="M133 0v625h-96v229h96v272q0 64 4.5 99.5t21 68t51.5 45.5t93 13h359v-230h-277v-268h322v272q0 64 4.5 99.5t21 68t51.5 45.5t93 13h419v-230h-338v-268h250v-229h-250l-2 -625h-249v625h-322l-2 -625h-250z" />
    <glyph glyph-name="ffj" unicode="ffj" horiz-adv-x="1497" 
d="M133 0v625h-96v229h96v272q0 64 4.5 99.5t21 68t51.5 45.5t93 13h359v-230h-277v-268h322v272q0 64 4.5 99.5t21 68t51.5 45.5t93 13h419v-230h-338v-268h502v-1083q0 -108 -8 -139q-15 -58 -79 -76q-39 -11 -103 -11h-436v230h376v850h-252l-2 -625h-249v625h-322
l-2 -625h-250z" />
    <glyph glyph-name="ffl" unicode="ffl" horiz-adv-x="1607" 
d="M133 0v625h-96v229h96v272q0 64 4.5 99.5t21 68t51.5 45.5t93 13h359v-230h-277v-268h322v272q0 64 4.5 99.5t21 68t51.5 45.5t93 13h563v-1123h131v-229h-211q-47 0 -78.5 10t-49.5 25.5t-27.5 46.5t-12 61.5t-2.5 81.5v897h-232v-268h168v-229h-168l-2 -625h-249v625
h-322l-2 -625h-250z" />
    <glyph glyph-name="fj" unicode="fj" horiz-adv-x="847" 
d="M37 1126q0 64 4.5 99.5t21 68t51.5 45.5t93 13h604v-230h-522v-268h522v-1083q0 -108 -8 -139q-15 -58 -79 -76q-39 -11 -103 -11h-437v230h377v850h-272l-2 -625h-250v1126z" />
    <glyph glyph-name="ft" unicode="ft" horiz-adv-x="1271" 
d="M133 0v625h-96v229h96v272q0 64 4.5 99.5t21 68t51.5 45.5t93 13h615v-498h311v-229h-311v-396h317v-229h-397q-47 0 -78.5 10t-49.5 25.5t-27.5 46.5t-12 61.5t-2.5 81.5v400h-283l-2 -625h-250zM385 854h283v268h-283v-268z" />
    <glyph glyph-name="ti" unicode="ti" horiz-adv-x="1189" 
d="M367 0q-47 0 -78.5 10t-49.5 25.5t-27.5 46.5t-12 61.5t-2.5 81.5v584h-160v229h160v314h249v-314h445q28 0 48.5 -5t34.5 -12t23.5 -24.5t14.5 -30t7 -42.5t2.5 -49t0.5 -60v-586h131v-229h-190q-70 0 -110.5 11t-57.5 43.5t-20 60.5t-3 93v17v584h-326v-580h216v-229
h-295z" />
    <glyph glyph-name="tj" unicode="tj" horiz-adv-x="1028" 
d="M367 0q-47 0 -78.5 10t-49.5 25.5t-27.5 46.5t-12 61.5t-2.5 81.5v584h-160v229h160v314h249v-314h545v-1083q0 -109 -8 -139q-16 -58 -79 -75q-39 -11 -103 -11h-436v229h376v850h-295v-580h216v-229h-295z" />
    <glyph glyph-name="tt" unicode="tt" horiz-adv-x="1353" 
d="M367 0q-47 0 -78.5 10t-49.5 25.5t-27.5 46.5t-12 61.5t-2.5 81.5v584h-160v229h160v314h249v-314h304v314h249v-314h312v-229h-312v-580h318v-229h-397q-47 0 -78.5 10t-49.5 25.5t-27.5 46.5t-12 61.5t-2.5 81.5v584h-304v-580h236v-229h-315z" />
    <glyph glyph-name=".notdef" horiz-adv-x="1312" 
d="M317 211q-60 0 -123 24t-110 74t-47 113q0 126 154 232t384 132l19 2q-15 17 -27 46t-12 49q0 49 37 86q10 10 10 14q0 8 -8 16q-16 21 -78 93q-13 17 3 32q17 16 34 -3q2 -2 4 -5q46 -73 61 -100q8 -14 13 -16.5t18 -0.5q28 8 56 0q4 -1 7 -1h4.5t3.5 2l3 3t4 5t4 6
l66 104q8 12 20 10t15.5 -12.5t-3.5 -23.5l-34 -45l-39 -54q-6 -8 6 -20q41 -47 41 -92q0 -37 -37 -97q134 -20 250.5 -73t188 -128t71.5 -153q0 -58 -48.5 -106.5t-111.5 -72.5t-119 -24q-85 0 -167 57.5t-132 149.5l-32 60l-37 -66q-49 -87 -131.5 -152t-180.5 -65z
M90 424q0 -66 75 -113t152 -47q153 0 267 195q3 5 12.5 21.5t17 28.5t17 25.5t18.5 21t17 7.5q14 0 27 -16t30 -47t22 -39q116 -178 252 -178q43 0 95 19t91.5 55t37.5 75q-3 55 -46 105.5t-107 85.5t-139 61.5t-143.5 39.5t-119.5 13q-85 0 -184.5 -23.5t-187 -63
t-146 -100t-58.5 -126.5z" />
    <glyph glyph-name=".null" 
 />
    <glyph glyph-name="nonmarkingreturn" horiz-adv-x="682" 
 />
    <glyph glyph-name="space" unicode=" " horiz-adv-x="712" 
 />
    <glyph glyph-name="space" unicode="&#xa0;" horiz-adv-x="712" 
 />
    <glyph glyph-name="exclam" unicode="!" horiz-adv-x="399" 
d="M74 340v1012h250v-1012h-250zM37 150q0 64 44.5 107.5t115.5 43.5q75 0 120 -43t45 -108q0 -63 -46.5 -106.5t-118.5 -43.5q-71 0 -115.5 43.5t-44.5 106.5z" />
    <glyph glyph-name="quotedbl" unicode="&#x22;" horiz-adv-x="681" 
d="M152 801l-125 551h233l123 -551h-231zM289 1352h233l123 -551h-231z" />
    <glyph glyph-name="numbersign" unicode="#" horiz-adv-x="1433" 
d="M109 0l178 418h-250l86 229h258l33 80h-250l82 219h260l172 406h250l-174 -406h80l172 406h249l-174 -406h316l-88 -219h-318l-33 -80h318l-94 -229h-318l-178 -418h-250l178 418h-77l-179 -418h-249zM631 647h78l32 80h-77z" />
    <glyph glyph-name="dollar" unicode="$" horiz-adv-x="1079" 
d="M793 877q-27 152 -93.5 209t-203.5 57q-115 0 -162 -35.5t-47 -124.5q0 -28 11 -50.5t24.5 -36.5t45 -29t52.5 -22t68.5 -22.5t72.5 -23.5q22 -8 67.5 -22t78 -24.5t78.5 -29.5t78.5 -38.5t68 -50.5t57.5 -67t36.5 -86t14.5 -108q0 -99 -39.5 -176.5t-105 -123.5
t-144.5 -69.5t-165 -23.5v-109h-191v139q-265 96 -332 465h250q16 -102 52.5 -160t89.5 -80.5t139 -25.5q194 -7 194 164q0 27 -12.5 49.5t-29 36.5t-49.5 28.5t-58.5 23t-72 22.5t-74.5 24q-20 7 -65.5 22t-75.5 25t-74.5 29.5t-74.5 39t-64 51t-54 67t-33.5 85
t-13.5 107.5q0 171 99 266t261 117v123h191v-123q183 -22 302.5 -140.5t151.5 -348.5h-249z" />
    <glyph glyph-name="percent" unicode="%" horiz-adv-x="2447" 
d="M516 219q-92 0 -176.5 37.5t-152.5 107.5t-109 182.5t-41 250.5t41 249.5t109 180.5t152.5 106t176.5 37q97 0 184.5 -37t156 -106.5t109 -180.5t40.5 -249t-40.5 -250t-109 -182.5t-156 -108t-184.5 -37.5zM244 797q0 -200 75 -294.5t197 -94.5q132 0 207.5 93t75.5 296
q0 383 -283 383q-122 0 -197 -92t-75 -291zM809 -2l569 1352h250l-569 -1352h-250zM1442 567q0 138 41 249.5t109 181t152.5 106.5t176.5 37q97 0 184.5 -37t156 -107t108.5 -181t40 -249t-40 -250t-108.5 -182t-156 -107.5t-184.5 -37.5q-92 0 -176.5 37.5t-152.5 107.5
t-109 182t-41 250zM1649 567q0 -200 75 -294.5t197 -94.5q132 0 207.5 93t75.5 296q0 383 -283 383q-122 0 -197 -92t-75 -291z" />
    <glyph glyph-name="ampersand" unicode="&#x26;" horiz-adv-x="1415" 
d="M516 -23q-200 0 -327.5 116t-127.5 294q0 146 90.5 242.5t229.5 134.5l-31 29q-125 122 -125 245q0 152 126.5 243t322.5 91q224 0 360.5 -133t130.5 -350h-270q-2 126 -58 201.5t-159 76.5q-79 0 -129.5 -42.5t-50.5 -110.5q0 -52 29 -98t102 -119l792 -797h-319
l-225 215q-36 -118 -135 -178t-226 -60zM319 399q0 -82 67 -144t153 -62q78 0 137 53t65 137l-221 223q-82 -5 -141.5 -62.5t-59.5 -144.5z" />
    <glyph glyph-name="quotesingle" unicode="'" horiz-adv-x="430" 
d="M162 801l-125 551h233l123 -551h-231z" />
    <glyph glyph-name="parenleft" unicode="(" horiz-adv-x="792" 
d="M756 -88q-115 0 -216 23.5t-195 79t-161 140.5t-107 216.5t-40 298.5q0 166 40 296.5t107 214.5t161 138.5t195 77t216 22.5v-245q-122 -2 -210.5 -29t-152.5 -85.5t-95.5 -155.5t-31.5 -234q0 -140 31.5 -238.5t95.5 -157.5t152 -85.5t211 -28.5v-248z" />
    <glyph glyph-name="parenright" unicode=")" horiz-adv-x="792" 
d="M37 160q248 3 368.5 119t120.5 391q0 138 -31 234.5t-95 155t-152.5 85.5t-210.5 29v245q115 0 216 -22.5t195 -77t161 -138.5t107 -214.5t40 -296.5q0 -167 -40 -298.5t-107 -216.5t-161 -140.5t-195 -79t-216 -23.5v248z" />
    <glyph glyph-name="asterisk" unicode="*" horiz-adv-x="919" 
d="M365 500v198l-140 -141l-135 135l150 150h-203v190h199l-134 133l134 135l126 -126v178h191v-193l137 137l137 -137l-129 -127h185v-190h-189l140 -142l-134 -133l-147 146v-213h-188z" />
    <glyph glyph-name="plus" unicode="+" horiz-adv-x="919" 
d="M344 195v321h-307v229h305v302h229v-302h312v-229h-312v-321h-227z" />
    <glyph glyph-name="comma" unicode="," horiz-adv-x="395" 
d="M37 -279l92 406h229l-90 -406h-231z" />
    <glyph glyph-name="hyphen" unicode="-" horiz-adv-x="882" 
d="M37 426v229h809v-229h-809z" />
    <glyph glyph-name="period" unicode="." horiz-adv-x="397" 
d="M199 0q-72 0 -117 41.5t-45 101.5q0 61 45 102.5t117 41.5t116.5 -41.5t44.5 -102.5q0 -60 -44.5 -101.5t-116.5 -41.5z" />
    <glyph glyph-name="slash" unicode="/" horiz-adv-x="892" 
d="M37 0l569 1352h250l-569 -1352h-250z" />
    <glyph glyph-name="zero" unicode="0" horiz-adv-x="1245" 
d="M616 -20q-88 0 -171.5 28t-157.5 85.5t-129.5 139t-88 196.5t-32.5 249q0 167 49.5 302t132 219t184.5 128.5t213 44.5q94 0 180.5 -27.5t161.5 -85t130.5 -138.5t87.5 -195t32 -248q0 -167 -48.5 -302t-131 -220t-188.5 -130.5t-224 -45.5zM287 678q0 -124 25.5 -217
t71.5 -146.5t104 -79.5t128 -26q77 0 138 25.5t107.5 79.5t71.5 146t25 218q0 465 -342 465q-147 0 -238 -112.5t-91 -352.5z" />
    <glyph glyph-name="one" unicode="1" horiz-adv-x="634" 
d="M37 0v229h166v893h-166v230h416v-1123h145v-229h-561z" />
    <glyph glyph-name="two" unicode="2" horiz-adv-x="1136" 
d="M135 266q18 175 132 274t323 140q138 27 199 77t61 142q0 119 -81 180.5t-234 61.5q-135 0 -197.5 -82t-50.5 -219h-250q-7 125 29.5 227t106 167.5t162.5 100.5t200 35q91 0 171 -15t153.5 -50t126 -88t83.5 -134.5t31 -183.5q0 -84 -27.5 -154t-72.5 -118.5t-109.5 -86
t-130 -59.5t-142.5 -37q-117 -23 -164.5 -59.5t-66.5 -118.5l-8 -37h653v-229h-923z" />
    <glyph glyph-name="three" unicode="3" horiz-adv-x="1103" 
d="M754 893q65 -22 119 -57t98.5 -87t70 -127t25.5 -165q0 -214 -137.5 -345.5t-370.5 -131.5q-154 0 -276 77.5t-186.5 208.5t-59.5 287h250q15 -191 79 -267.5t193 -76.5q142 0 200 55.5t58 192.5q0 58 -18.5 98.5t-50 65t-85.5 38t-111 17.5t-142 4v186l235 260h-557v230
l918 -4v-183z" />
    <glyph glyph-name="four" unicode="4" horiz-adv-x="1126" 
d="M37 492l563 860h209v-787h281v-250h-281v-315h-250v315l-522 2v175zM383 565h176v273z" />
    <glyph glyph-name="five" unicode="5" horiz-adv-x="1101" 
d="M37 655l115 697h794v-230h-581l-35 -198q86 120 278 120q213 0 335 -136t122 -367q0 -113 -37 -215.5t-103 -179t-163 -121.5t-211 -45q-185 0 -316.5 113.5t-171.5 285.5h267q35 -80 88 -115t133 -35q127 0 195.5 82t68.5 230q0 144 -64.5 209t-203.5 65
q-105 0 -163 -43.5t-71 -116.5h-276z" />
    <glyph glyph-name="six" unicode="6" horiz-adv-x="1097" 
d="M758 1020q-7 34 -31.5 59.5t-56.5 38.5t-62 19t-57 6q-142 0 -202 -70t-60 -250v-61q13 35 27 61t39.5 53.5t57.5 45t81.5 28.5t111.5 11q201 0 328 -122.5t127 -322.5q0 -234 -142.5 -385t-373.5 -151q-229 0 -368.5 150.5t-139.5 385.5v293q0 293 121.5 427t386.5 136
q115 1 205.5 -26.5t149 -78t94.5 -112.5t53 -139zM289 502q0 -273 256 -273q129 0 197.5 75t68.5 198q0 241 -266 241q-129 0 -192.5 -69t-63.5 -172z" />
    <glyph glyph-name="seven" unicode="7" horiz-adv-x="929" 
d="M893 1161l-381 -1161h-252l379 1122h-602v230h856v-191z" />
    <glyph glyph-name="eight" unicode="8" horiz-adv-x="1026" 
d="M506 -20q-225 0 -346 113.5t-123 301.5q-2 192 172 301q-85 40 -128.5 103t-43.5 174q0 185 125 292t344 107q216 0 349.5 -107t133.5 -292q0 -109 -47.5 -179.5t-130.5 -97.5q59 -30 94.5 -61t59.5 -91.5t24 -148.5q0 -186 -127.5 -300.5t-355.5 -114.5zM287 395
q0 -90 47.5 -138t171.5 -48t177.5 48t53.5 138q0 105 -50.5 153t-180.5 48q-122 0 -170.5 -50t-48.5 -151zM287 973q0 -82 47.5 -124t171.5 -42q129 0 181 42.5t50 123.5q-4 170 -231 170q-219 0 -219 -170z" />
    <glyph glyph-name="nine" unicode="9" horiz-adv-x="1097" 
d="M340 330q7 -34 31.5 -59.5t56.5 -38.5t62 -19t57 -6q142 0 202 69.5t60 249.5v62q-13 -35 -27 -61t-39.5 -53.5t-57.5 -45t-81.5 -28.5t-111.5 -11q-201 0 -328 122.5t-127 322.5q0 234 142.5 385t373.5 151q229 0 368.5 -150.5t139.5 -385.5v-293q0 -293 -122 -427.5
t-386 -136.5q-115 -1 -205.5 27t-149 78.5t-94.5 112.5t-53 139zM287 848q0 -242 266 -242q129 0 192.5 69.5t63.5 172.5q0 272 -256 272q-129 0 -197.5 -74.5t-68.5 -197.5z" />
    <glyph glyph-name="colon" unicode=":" horiz-adv-x="399" 
d="M201 147q-72 0 -117 42t-45 102q0 61 45 102t117 41t116.5 -41t44.5 -102q0 -60 -44.5 -102t-116.5 -42zM37 1010q0 61 45 102t117 41t116.5 -41t44.5 -102q0 -60 -44.5 -102t-116.5 -42t-117 42t-45 102z" />
    <glyph glyph-name="semicolon" unicode=";" horiz-adv-x="444" 
d="M246 866q-72 0 -117 42t-45 102q0 61 45 102t117 41t117 -41t45 -102q0 -60 -45 -102t-117 -42zM37 -211l92 406h229l-90 -406h-231z" />
    <glyph glyph-name="less" unicode="&#x3c;" horiz-adv-x="864" 
d="M530 125l-493 453l514 444h276l-514 -449l488 -448h-271z" />
    <glyph glyph-name="equal" unicode="=" horiz-adv-x="897" 
d="M37 659v230h823v-230h-823zM37 381v229h823v-229h-823z" />
    <glyph glyph-name="greater" unicode="&#x3e;" horiz-adv-x="866" 
d="M66 125l487 448l-516 449h278l514 -444l-493 -453h-270z" />
    <glyph glyph-name="question" unicode="?" horiz-adv-x="1099" 
d="M59 373q0 58 14.5 108t36.5 86t57.5 67t68.5 50.5t79 38.5t78.5 29.5t78 24.5t67.5 22q25 8 72.5 23.5t68.5 22.5t52.5 22t45 29t24.5 36.5t11 50.5q0 89 -47 124.5t-162 35.5q-157 0 -228.5 -58t-68.5 -208h-250q3 112 33 198.5t79 142t119 91t147 50t169 13.5
q96 -1 176 -23t145 -67t101.5 -121.5t36.5 -177.5q0 -58 -13.5 -107.5t-33.5 -85t-54 -67t-64 -51t-74.5 -39t-74.5 -29.5t-75.5 -25t-65.5 -22q-28 -10 -74.5 -24t-72 -22.5t-58.5 -23t-50 -28.5t-29.5 -36.5t-12.5 -49.5v-76h-252v76zM37 115q0 53 42 93t114 40
q75 0 116 -39.5t41 -93.5q0 -55 -42 -95t-115 -40t-114.5 40.5t-41.5 94.5z" />
    <glyph glyph-name="at" unicode="@" horiz-adv-x="1329" 
d="M692 61q-134 0 -254 52t-208.5 143t-140.5 221.5t-52 280.5t47.5 267.5t133.5 193t201.5 114.5t254.5 39q132 0 244 -39.5t196 -114.5t131.5 -193t46.5 -267q-1 -76 -9.5 -137.5t-29.5 -117.5t-54.5 -93.5t-86.5 -59.5t-123 -22q-48 0 -88 19t-63 46.5t-35 53t-12 42.5
q-33 -50 -69 -73t-85 -29q-130 -17 -212.5 77.5t-82.5 246.5t82.5 245t212.5 80q45 -5 88.5 -32t65.5 -68v90h155v-410q0 -18 0.5 -26t3.5 -23t8.5 -22t17.5 -13t30 -6q26 0 42 14t23 47.5t9 70t1 100.5q-3 210 -107.5 304.5t-299.5 94.5q-196 0 -302 -94t-106 -305
q0 -87 17.5 -159t49.5 -121t72 -85t89 -56.5t97.5 -30t100.5 -9.5v-236zM496 711q0 -80 37 -124t104 -44q62 0 101.5 45.5t39.5 122.5q0 76 -37.5 124t-103.5 48q-67 0 -104 -45t-37 -127z" />
    <glyph glyph-name="A" unicode="A" horiz-adv-x="1423" 
d="M37 0l596 1352h180l573 -1352h-266l-164 375h-481l-170 -375h-268zM584 621h268l-129 317z" />
    <glyph glyph-name="B" unicode="B" horiz-adv-x="1054" 
d="M186 0q-77 0 -113 36t-36 114v1052q0 78 36 114t113 36h336q239 0 364.5 -104t125.5 -287q0 -96 -50.5 -175.5t-125.5 -111.5q182 -96 182 -285q0 -186 -124 -287.5t-372 -101.5h-336zM287 229h235q76 0 126 11.5t75.5 36t35 53t9.5 71.5q0 83 -52.5 120.5t-193.5 37.5
h-235v-330zM287 788h235q74 0 122 12t73.5 36.5t35 55t9.5 75.5q0 87 -48.5 121t-191.5 34h-235v-334z" />
    <glyph glyph-name="C" unicode="C" horiz-adv-x="1394" 
d="M1358 518q-49 -241 -229.5 -389.5t-417.5 -148.5q-182 0 -335.5 85t-246 242t-92.5 352q0 151 51 284t140.5 227t214.5 148t268 54q243 0 416.5 -142.5t226.5 -377.5h-258q-42 138 -145 214.5t-240 76.5q-184 0 -304 -131.5t-120 -343.5q0 -200 116.5 -329.5
t305.5 -129.5q148 0 253 82t142 227h254z" />
    <glyph glyph-name="D" unicode="D" horiz-adv-x="1263" 
d="M195 0q-99 0 -128.5 33t-29.5 131v1024q0 98 29.5 131t128.5 33h360q117 0 217.5 -24.5t184.5 -77t144 -130t93 -188t33 -246.5q0 -169 -50.5 -301t-141.5 -215.5t-212.5 -126.5t-267.5 -43h-360zM287 229h268q187 0 303.5 120t116.5 337q0 127 -30.5 215t-89 135
t-130.5 66.5t-170 19.5h-268v-893z" />
    <glyph glyph-name="E" unicode="E" horiz-adv-x="1056" 
d="M195 0q-99 0 -128.5 35t-29.5 133v1020q0 98 29.5 131t128.5 33h825v-230h-733v-368h643v-230h-643v-295h731v-229h-823z" />
    <glyph glyph-name="F" unicode="F" horiz-adv-x="1015" 
d="M37 1188q0 98 29.5 131t128.5 33h784v-230h-692v-368h602v-230h-602v-524h-250v1188z" />
    <glyph glyph-name="G" unicode="G" horiz-adv-x="1501" 
d="M1464 0v229h-100v363q0 123 -42.5 164t-164.5 41h-452v-230h430q0 -80 -23 -143t-62 -102.5t-95 -65.5t-117 -36.5t-133 -10.5q-187 0 -302.5 121.5t-115.5 347.5q0 225 116 345t304 120q144 0 225.5 -50.5t111.5 -150.5h250q-23 80 -59.5 146t-77 109.5t-90.5 76.5
t-95.5 51.5t-97 29.5t-89.5 14t-78 3q-101 0 -195 -24.5t-181.5 -78.5t-152 -132.5t-103 -195.5t-38.5 -259q0 -134 37 -250.5t101 -200t148 -142.5t180.5 -86t196.5 -23q109 5 195 39t140.5 82.5t99.5 117.5v-55q0 -98 29 -131t128 -33h172z" />
    <glyph glyph-name="H" unicode="H" horiz-adv-x="1114" 
d="M37 0v1352h250v-598h540v598h250v-1352h-250v524h-542v-524h-248z" />
    <glyph glyph-name="I" unicode="I" horiz-adv-x="585" 
d="M37 0v229h131v893h-131v230h512v-230h-131v-893h131v-229h-512z" />
    <glyph glyph-name="J" unicode="J" horiz-adv-x="868" 
d="M674 1352q99 0 128 -33t29 -131v-725q0 -132 -33 -221.5t-103 -143t-167 -76t-237 -22.5h-254v229h254q71 0 116.5 7t81.5 25t55 52t28.5 84.5t9.5 126.5v598h-213v230h305z" />
    <glyph glyph-name="K" unicode="K" horiz-adv-x="1118" 
d="M37 1352h250v-447l461 447h329l-637 -623h434q122 0 164.5 -41t42.5 -164v-524h-250v500h-544v-500h-250v1352z" />
    <glyph glyph-name="L" unicode="L" horiz-adv-x="964" 
d="M37 248v1104h250v-1123h641v-229h-645q-38 0 -66 1t-52.5 5t-41.5 7.5t-31 13.5t-22.5 17.5t-15.5 25.5t-10 31t-4.5 40.5t-2 48t-0.5 58.5z" />
    <glyph glyph-name="M" unicode="M" horiz-adv-x="1421" 
d="M37 0v1352h252l420 -518l448 518h227v-1352h-249l2 995l-357 -420h-147l-344 400v-975h-252z" />
    <glyph glyph-name="N" unicode="N" horiz-adv-x="1144" 
d="M37 0v1352h199l622 -867v867h250l-4 -1352h-199l-618 860v-860h-250z" />
    <glyph glyph-name="O" unicode="O" horiz-adv-x="1409" 
d="M711 -20q-182 0 -335.5 85t-246 242t-92.5 352q0 151 51 284t140.5 227t214.5 148t268 54q191 0 342.5 -90.5t235 -250t83.5 -359.5q0 -150 -53 -280t-142.5 -219.5t-210.5 -141t-255 -51.5zM287 668q0 -200 116.5 -329.5t305.5 -129.5q184 0 298.5 124t114.5 331
q0 222 -115.5 350.5t-295.5 128.5q-184 0 -304 -131.5t-120 -343.5z" />
    <glyph glyph-name="P" unicode="P" horiz-adv-x="1015" 
d="M37 1202q0 78 35.5 114t109.5 36h287q114 0 203.5 -27.5t146 -71.5t93.5 -105.5t52 -125t15 -133.5q0 -71 -15 -134.5t-52 -125.5t-93.5 -107t-146 -72.5t-203.5 -27.5h-182v-422h-250v1202zM287 651h182q82 0 135 15.5t79.5 49t36 73t9.5 100.5q0 49 -4.5 81.5t-20 63.5
t-43.5 49t-75.5 28.5t-116.5 10.5h-182v-471z" />
    <glyph glyph-name="Q" unicode="Q" horiz-adv-x="1409" 
d="M37 659q0 151 51 284t140.5 227t214.5 148t268 54q191 0 342.5 -90.5t235 -250t83.5 -359.5q0 -255 -144 -439.5t-366 -236.5l-22 -109h155v-223h-280q-73 0 -114.5 46t-22.5 136l28 142q-159 24 -287.5 113t-205 235.5t-76.5 322.5zM287 668q0 -200 116.5 -329.5
t305.5 -129.5q184 0 298.5 124t114.5 331q0 222 -115.5 350.5t-295.5 128.5q-184 0 -304 -131.5t-120 -343.5z" />
    <glyph glyph-name="R" unicode="R" horiz-adv-x="1015" 
d="M37 1202q0 78 35.5 114t109.5 36h328q109 0 192 -22t134.5 -59.5t84.5 -92.5t45.5 -114t12.5 -132q0 -127 -58 -207t-147 -94q115 -43 160 -126t45 -214v-291h-250v291q0 49 -4.5 81.5t-20 63.5t-43.5 49t-75.5 28.5t-116.5 10.5h-182v-524h-250v1202zM287 754h182
q78 0 123 6t78.5 24.5t46 53.5t12.5 94q0 110 -50.5 150t-189.5 40h-202v-368z" />
    <glyph glyph-name="S" unicode="S" horiz-adv-x="1103" 
d="M811 961q-38 99 -116 140.5t-199 41.5q-209 0 -209 -160q0 -28 11 -50.5t24.5 -36.5t45 -29t52.5 -22t68.5 -22.5t72.5 -23.5q22 -8 67.5 -22t78 -24.5t78.5 -29.5t78.5 -38.5t68 -50.5t57.5 -67t36.5 -86t14.5 -108q0 -79 -26 -145.5t-69.5 -111.5t-101.5 -76.5
t-120.5 -45.5t-128.5 -14q-104 0 -188.5 21.5t-157 68.5t-125.5 129t-84 198h252q67 -188 303 -188q94 0 144 36.5t50 127.5q0 27 -12.5 49.5t-29 36.5t-49.5 28.5t-58.5 23t-72 22.5t-74.5 24q-20 7 -65.5 22t-75.5 25t-74.5 29.5t-74.5 39t-64 51t-54 67t-33.5 85
t-13.5 107.5q0 81 24.5 147t66.5 110.5t100.5 74.5t125 43.5t142.5 13.5q97 0 184.5 -23t165 -70t135.5 -128.5t86 -189.5h-256z" />
    <glyph glyph-name="T" unicode="T" horiz-adv-x="1056" 
d="M403 0v1122h-366v230h983v-230h-367v-1122h-250z" />
    <glyph glyph-name="U" unicode="U" horiz-adv-x="1327" 
d="M668 -20q-113 0 -205 21t-173 71.5t-135.5 129.5t-86 199.5t-31.5 276.5v674h250v-674q0 -133 28 -226.5t81 -145.5t119 -74.5t153 -22.5q183 0 277.5 111.5t94.5 357.5v674h250v-674q0 -193 -42.5 -330t-126 -217t-194 -115.5t-259.5 -35.5z" />
    <glyph glyph-name="V" unicode="V" horiz-adv-x="1435" 
d="M573 0l-536 1352h270l398 -1002l423 1002h271l-584 -1352h-242z" />
    <glyph glyph-name="W" unicode="W" horiz-adv-x="1775" 
d="M37 1352h270l281 -846l205 846h192l203 -846l280 846h271l-475 -1352h-207l-168 690l-168 -690h-209z" />
    <glyph glyph-name="X" unicode="X" horiz-adv-x="1345" 
d="M37 0l493 674l-491 678h272l351 -480l368 480h273l-510 -678l516 -674h-273l-374 479l-353 -479h-272z" />
    <glyph glyph-name="Y" unicode="Y" horiz-adv-x="1296" 
d="M37 1352h272l322 -584l356 584h273l-508 -828v-524h-250v526z" />
    <glyph glyph-name="Z" unicode="Z" horiz-adv-x="1069" 
d="M37 1102v250h995v-178l-643 -924h643v-250h-995v178l645 924h-645z" />
    <glyph glyph-name="bracketleft" unicode="[" horiz-adv-x="786" 
d="M37 -201v1753h713v-229h-484v-1294h484v-230h-713z" />
    <glyph glyph-name="backslash" unicode="\" horiz-adv-x="892" 
d="M856 0h-250l-569 1352h250z" />
    <glyph glyph-name="bracketright" unicode="]" horiz-adv-x="786" 
d="M750 -201h-713v230h483v1294h-483v229h713v-1753z" />
    <glyph glyph-name="asciicircum" unicode="^" horiz-adv-x="1091" 
d="M37 514l512 858l506 -856h-213l-291 494l-301 -496h-213z" />
    <glyph glyph-name="underscore" unicode="_" horiz-adv-x="894" 
d="M37 0v229h821v-229h-821z" />
    <glyph glyph-name="a" unicode="a" horiz-adv-x="1216" 
d="M508 -20q-213 6 -342 155.5t-129 376.5q0 238 129.5 392.5t341.5 154.5q239 0 342 -174v153h250v-809h80v-229h-172q-96 0 -127 31.5t-31 118.5v18q-62 -99 -140 -145t-202 -43zM287 512q0 -129 77.5 -216t202.5 -87q126 0 204.5 87t78.5 216q0 138 -77.5 227t-205.5 90
q-126 1 -203 -88.5t-77 -228.5z" />
    <glyph glyph-name="b" unicode="b" horiz-adv-x="1136" 
d="M629 -20q-122 -3 -202.5 39t-139.5 137v-156h-250v1352h250v-469q111 182 342 176q213 -6 342 -158t129 -389q0 -149 -57.5 -268.5t-165 -190t-248.5 -73.5zM287 520q0 -130 78 -220.5t204 -90.5q125 0 203 87t78 216q0 139 -77.5 228.5t-203.5 88.5q-126 0 -204 -89.5
t-78 -219.5z" />
    <glyph glyph-name="c" unicode="c" horiz-adv-x="1126" 
d="M1090 403q-32 -193 -172 -316t-328 -122q-256 3 -404.5 155t-148.5 392t149 393.5t404 153.5q183 0 323 -114.5t177 -295.5h-250q-21 86 -98 135.5t-175 44.5q-137 -6 -208.5 -92t-71.5 -225t80.5 -227.5t220.5 -89.5q76 1 128.5 30t79.5 72t44 106h250z" />
    <glyph glyph-name="d" unicode="d" horiz-adv-x="1136" 
d="M508 -20q-141 3 -248.5 73.5t-165 190t-57.5 268.5q0 238 129.5 392.5t341.5 154.5q120 0 206.5 -46t135.5 -128v467h250v-1352h-250v156q-59 -95 -139.5 -137t-202.5 -39zM287 512q0 -129 77.5 -216t202.5 -87q126 0 204.5 87t78.5 216q0 138 -77.5 227t-205.5 90
q-126 1 -203 -88.5t-77 -228.5z" />
    <glyph glyph-name="e" unicode="e" horiz-adv-x="1134" 
d="M1067 332q-53 -157 -184 -254.5t-312 -97.5q-160 0 -283.5 72.5t-187 191.5t-63.5 262q0 257 142.5 405t387.5 148q105 0 202 -41t171.5 -114t118 -183t39.5 -238l-811 -2q0 -101 84.5 -186.5t199.5 -85.5q99 0 154 31.5t92 91.5h250zM305 649h524q-28 81 -98 130.5
t-164 49.5q-97 0 -167 -49.5t-95 -130.5z" />
    <glyph glyph-name="f" unicode="f" horiz-adv-x="759" 
d="M133 0v625h-96v229h96v272q0 64 4.5 99.5t21 68t51.5 45.5t93 13h420v-230h-338v-268h250v-229h-250l-2 -625h-250z" />
    <glyph glyph-name="g" unicode="g" horiz-adv-x="1200" 
d="M403 -604q-366 0 -366 305q0 122 94 194t272 72h361q53 0 72.5 30.5t7.5 61.5q-11 22 -27 27q-107 -61 -237 -61q-241 0 -392 140.5t-151 369.5q0 234 149 379t394 145q134 0 204 -21h379v-170h-139q109 -147 109 -333q0 -189 -111 -328q72 -72 72 -182q0 -56 -17.5 -105
t-55.5 -91.5t-108 -67.5t-165 -25h-345q-61 0 -88.5 -15t-27.5 -47q0 -38 24 -51.5t92 -13.5h359q43 0 53 18.5t10 75.5h232q0 -157 -64.5 -232t-230.5 -75h-359zM287 535q0 -119 81 -200t199 -81q145 0 230.5 72.5t85.5 208.5q0 133 -79 213.5t-233 80.5q-130 0 -207 -83.5
t-77 -210.5z" />
    <glyph glyph-name="h" unicode="h" horiz-adv-x="1073" 
d="M37 0v1352h250v-478q36 79 113.5 130t177.5 55q222 10 340 -136.5t118 -402.5v-520h-250v520q0 168 -60 238.5t-189 70.5q-111 0 -180.5 -76t-69.5 -233v-520h-250z" />
    <glyph glyph-name="i" unicode="i" horiz-adv-x="585" 
d="M268 1038q28 0 49.5 -2.5t37.5 -11t26.5 -15.5t17.5 -24.5t11 -29.5t5.5 -40t2 -45t0.5 -55v-586h131v-229h-191q-56 0 -93 9.5t-56.5 22t-28.5 44.5t-10.5 55t-1.5 75v19v584h-131v229h231zM72 1231q0 61 43 102t110 41t110.5 -41t43.5 -102t-43.5 -102.5t-110.5 -41.5
t-110 41.5t-43 102.5z" />
    <glyph glyph-name="j" unicode="j" horiz-adv-x="733" 
d="M37 -455v230h377v1263h250v-1267q0 -109 -9 -140q-16 -59 -82 -76q-39 -10 -100 -10h-436zM389 1231q0 61 43.5 102t110.5 41t110 -41t43 -102t-43 -102.5t-110 -41.5t-110.5 41.5t-43.5 102.5z" />
    <glyph glyph-name="k" unicode="k" horiz-adv-x="980" 
d="M655 0v432h-368v-432h-250v1352h250v-594l340 280h317l-461 -376h252q25 0 46 -2t37 -7.5t28.5 -10t21.5 -15.5t15.5 -18.5t10.5 -25t6.5 -27.5t3.5 -33t1 -36v-41v-10v-436h-250z" />
    <glyph glyph-name="l" unicode="l" horiz-adv-x="454" 
d="M207 0q-47 0 -78.5 10t-49.5 25.5t-27.5 46.5t-12 61.5t-2.5 81.5v1127h250v-1123h131v-229h-211z" />
    <glyph glyph-name="m" unicode="m" horiz-adv-x="1796" 
d="M37 0v1038h250v-139q109 154 276 160q125 4 217.5 -59t141.5 -169q47 111 146.5 169.5t215.5 58.5q100 0 185.5 -32.5t150.5 -95t102 -161.5t37 -225v-545h-250v524q0 163 -50 234t-175 71q-246 0 -246 -305l2 -524h-249v524q0 160 -50.5 232.5t-177.5 72.5
q-126 0 -201 -78t-75 -210v-541h-250z" />
    <glyph glyph-name="n" unicode="n" horiz-adv-x="1073" 
d="M37 0v1038h250v-164q36 79 113.5 130t177.5 55q222 10 340 -136.5t118 -402.5v-520h-250v520q0 168 -60 238.5t-189 70.5q-111 0 -181.5 -76t-70.5 -233l2 -520h-250z" />
    <glyph glyph-name="o" unicode="o" horiz-adv-x="1136" 
d="M569 -35q-242 3 -387 156t-145 391q0 239 145 393t387 154q160 0 281.5 -71.5t185.5 -195.5t64 -280q0 -157 -64 -281.5t-186 -196t-281 -69.5zM287 512q0 -139 77 -228.5t203 -88.5q128 1 205.5 90t77.5 227t-77.5 227t-205.5 90q-126 1 -203 -88.5t-77 -228.5z" />
    <glyph glyph-name="p" unicode="p" horiz-adv-x="1136" 
d="M37 -313v1351h250v-155q111 182 350 176q138 -3 244 -73.5t162.5 -190.5t56.5 -269q0 -238 -129.5 -392t-341.5 -154q-120 0 -206.5 46t-135.5 128v-467h-250zM287 526q0 -138 77 -227t205 -90q126 -1 203.5 88.5t77.5 228.5q0 129 -78 216t-203 87q-126 0 -204 -87
t-78 -216z" />
    <glyph glyph-name="q" unicode="q" horiz-adv-x="1136" 
d="M1100 -313h-250v467q-49 -82 -135.5 -128t-206.5 -46q-212 0 -341.5 154t-129.5 392q0 149 57 269t165 190.5t249 73.5q122 3 202.5 -39t139.5 -137v155h250v-1351zM287 526q0 -139 77 -228.5t203 -88.5q128 1 205.5 90t77.5 227q0 129 -78.5 216t-204.5 87
q-125 0 -202.5 -87t-77.5 -216z" />
    <glyph glyph-name="r" unicode="r" horiz-adv-x="600" 
d="M37 813q0 51 2.5 81.5t12 61.5t27.5 46.5t49.5 25.5t78.5 10h356v-229h-276v-809h-250v813z" />
    <glyph glyph-name="s" unicode="s" horiz-adv-x="894" 
d="M287 352q10 -84 53.5 -113.5t138.5 -29.5q77 0 108 15t31 63t-40 71t-150 50q-67 16 -115.5 31.5t-103.5 43.5t-89 61.5t-56 85t-21 115.5q1 81 33 142.5t86 97.5t119 54t139 18q49 0 95 -7.5t101 -31t99.5 -61t82.5 -102.5t58 -150h-250q-27 122 -180 122
q-75 0 -109 -21t-34 -65q0 -45 52 -73.5t163 -55.5q63 -15 110.5 -31t97 -42t80.5 -58t51 -79.5t21 -106.5q0 -151 -101.5 -233t-256.5 -82q-422 0 -463 372h250z" />
    <glyph glyph-name="t" unicode="t" horiz-adv-x="800" 
d="M367 0q-47 0 -78.5 10t-49.5 25.5t-27.5 46.5t-12 61.5t-2.5 81.5v584h-160v229h160v314h249v-314h312v-229h-312v-580h318v-229h-397z" />
    <glyph glyph-name="u" unicode="u" horiz-adv-x="1153" 
d="M944 0q-96 0 -127 31.5t-31 118.5v14q-36 -79 -113 -129.5t-177 -54.5q-222 -10 -340.5 136t-118.5 402v520h250v-520q0 -168 60.5 -238.5t189.5 -70.5q111 0 181 76t70 233l-2 520h250v-809h80v-229h-172z" />
    <glyph glyph-name="v" unicode="v" horiz-adv-x="1161" 
d="M852 1038h272l-477 -1038h-180l-430 1038h272l254 -684z" />
    <glyph glyph-name="w" unicode="w" horiz-adv-x="1476" 
d="M37 1038h250l147 -671l203 671h203l235 -671l115 671h250l-207 -1038h-250l-238 655l-233 -655h-248z" />
    <glyph glyph-name="x" unicode="x" horiz-adv-x="1089" 
d="M37 0l362 520l-354 518h270l222 -368l245 368h271l-391 -518l380 -520h-270l-235 379l-230 -379h-270z" />
    <glyph glyph-name="y" unicode="y" horiz-adv-x="1120" 
d="M37 1038h250l241 -653l306 653h249l-602 -1253q-14 -29 -26.5 -47t-22.5 -28.5t-28.5 -14.5t-31.5 -5t-45 -1h-10h-254v229h216l110 234z" />
    <glyph glyph-name="z" unicode="z" horiz-adv-x="960" 
d="M37 788v250h885l2 -250l-551 -538h538v-250h-874v250l571 538h-571z" />
    <glyph glyph-name="braceleft" unicode="{" horiz-adv-x="743" 
d="M707 -25q-498 0 -498 439q0 34 -1.5 60t-6 45t-8 32t-14 21t-17.5 12.5t-23.5 6t-27 1.5h-35h-39.5v184q53 2 82 9.5t50 28.5t29.5 55.5t10.5 95.5q9 218 131.5 327t366.5 109v-195q-149 -9 -209 -60t-60 -181q0 -188 -80 -277q80 -85 80 -274q0 -233 269 -244v-195z" />
    <glyph glyph-name="bar" unicode="|" horiz-adv-x="303" 
d="M37 -41v1427h229v-1427h-229z" />
    <glyph glyph-name="braceright" unicode="}" horiz-adv-x="743" 
d="M37 170q268 11 268 244q0 189 80 274q-80 89 -80 277q0 130 -59.5 181t-208.5 60v195q244 0 366.5 -109t131.5 -327q2 -61 10.5 -95.5t29.5 -55.5t50 -28.5t82 -9.5v-184h-39.5h-35t-27 -1.5t-23.5 -6t-17.5 -12.5t-14 -21t-8 -32t-6 -45t-1.5 -60q0 -439 -498 -439v195z
" />
    <glyph glyph-name="exclamdown" unicode="&#xa1;" horiz-adv-x="399" 
d="M74 1012h250v-1012h-250v1012zM37 1202q0 63 44.5 106.5t115.5 43.5q72 0 118.5 -43.5t46.5 -106.5q0 -65 -45 -108t-120 -43q-71 0 -115.5 43.5t-44.5 107.5z" />
    <glyph glyph-name="cent" unicode="&#xa2;" horiz-adv-x="1394" 
d="M1358 518q-44 -220 -201 -364.5t-369 -169.5l-2 -220h-190l2 224q-117 19 -219.5 76.5t-178.5 143.5t-119.5 203t-43.5 248q0 275 156.5 470t404.5 235l2 209h191l-3 -205q216 -23 367.5 -162t198.5 -354h-258q-42 138 -145 214.5t-240 76.5q-184 0 -304 -131.5
t-120 -343.5q0 -200 116.5 -329.5t305.5 -129.5q148 0 253 82t142 227h254z" />
    <glyph glyph-name="sterling" unicode="&#xa3;" horiz-adv-x="1208" 
d="M49 229q89 18 141 71t68 114h-221v190l190 -2q-75 126 -80 258q-11 223 116 366.5t360 143.5q59 0 107.5 -5t103 -19.5t98 -38.5t85.5 -65t72 -96t52 -133.5t30 -176.5h-241q-1 91 -22 152t-62.5 94t-93.5 46t-127 13q-141 0 -198 -64.5t-54 -199.5q1 -35 9.5 -74
t15 -58.5t28.5 -74t27 -68.5h446v-188h-405q-26 -123 -103 -185h756v-229h-1098v229z" />
    <glyph glyph-name="yen" unicode="&#xa5;" horiz-adv-x="1296" 
d="M37 1352h272l322 -584l356 584h273l-508 -828v-12h354v-229h-354v-50h354v-229h-354v-4h-250v4h-377v229h377v50h-377v229h377v14z" />
    <glyph glyph-name="section" unicode="&#xa7;" horiz-adv-x="1017" 
d="M293 166q61 -158 254 -158q104 0 160.5 26.5t56.5 92.5q0 55 -66.5 88.5t-201.5 56.5q-67 12 -128 30t-123 48t-106.5 67.5t-72.5 91t-29 116.5q0 159 121 241q-92 85 -92 199q-1 71 24 126t65.5 88t97.5 54t113.5 29t120.5 8q46 0 91 -7t100.5 -29t101 -56.5t85.5 -95
t61 -138.5h-197q-15 66 -85.5 102t-172.5 34q-58 -1 -92 -4.5t-65.5 -15t-45.5 -34t-14 -59.5q3 -112 295 -164q80 -14 148 -36t136 -60t107.5 -98.5t40.5 -137.5q3 -153 -127 -239q97 -81 100 -203q1 -69 -24 -124t-64.5 -89t-93.5 -56t-107.5 -31t-109.5 -9q-51 0 -93.5 6
t-98 27t-100 56.5t-91 101.5t-80.5 155h201zM227 625q3 -112 293 -164q124 -19 198.5 8t74.5 100q0 55 -68 89t-203 57q-8 2 -48.5 13t-63.5 13q-186 19 -183 -116z" />
    <glyph glyph-name="copyright" unicode="&#xa9;" horiz-adv-x="1114" 
d="M553 195q-105 0 -197.5 38t-164 110t-113 186.5t-41.5 256.5q0 141 42 254.5t113.5 185t164 109t196.5 37.5q110 0 204.5 -37.5t166.5 -109t112.5 -184.5t40.5 -255q0 -143 -41 -256.5t-112.5 -186t-166 -110.5t-204.5 -38zM176 784q0 -233 102 -344.5t275 -111.5
q183 0 284 110t101 346q0 231 -101.5 343t-283.5 112q-172 0 -274.5 -113t-102.5 -342zM262 782q0 134 81.5 218.5t223.5 84.5q101 0 179 -63.5t98 -163.5h-137q-12 48 -54 75t-98 25q-76 -3 -116 -51.5t-40 -124.5q0 -77 45 -126t123 -50q60 1 92.5 31.5t47.5 85.5h137
q-19 -107 -96.5 -175t-180.5 -67q-142 1 -223.5 85t-81.5 216z" />
    <glyph glyph-name="ordfeminine" unicode="&#xaa;" horiz-adv-x="888" 
d="M373 600q-152 4 -244 111t-92 270q0 170 92 279.5t244 109.5q170 0 243 -123v109h181v-578h55v-164h-123q-67 0 -90 23t-23 84v14q-44 -72 -99.5 -105t-143.5 -30zM215 981q0 -92 56 -154.5t145 -62.5q90 0 145 62t55 155q0 98 -54.5 161.5t-145.5 63.5q-89 1 -145 -63
t-56 -162z" />
    <glyph glyph-name="guillemotleft" unicode="&#xab;" horiz-adv-x="1185" 
d="M520 133l-493 445l514 444h264l-512 -451l487 -438h-260zM371 580l514 444h264l-512 -451l487 -438h-260z" />
    <glyph glyph-name="registered" unicode="&#xae;" horiz-adv-x="1114" 
d="M553 195q-105 0 -197.5 38t-164 110t-113 186.5t-41.5 256.5q0 141 42 254.5t113.5 185t164 109t196.5 37.5q110 0 204.5 -37.5t166.5 -109t112.5 -184.5t40.5 -255q0 -143 -41 -256.5t-112.5 -186t-166 -110.5t-204.5 -38zM154 784q0 -246 108.5 -364.5t290.5 -118.5
q194 0 301 117t107 366q0 247 -107 364.5t-301 117.5q-182 0 -290.5 -119t-108.5 -363zM332 434v707h225q74 0 127 -20t81.5 -55t41 -74t12.5 -85q0 -65 -31 -123t-90 -77q101 -40 101 -185v-88h-101v88q2 72 -30.5 110t-130.5 38h-107v-236h-98zM430 758h127
q95 0 129.5 38.5t34.5 110.5q0 70 -33.5 107t-130.5 37h-127v-293z" />
    <glyph glyph-name="degree" unicode="&#xb0;" horiz-adv-x="550" 
d="M276 907q-110 0 -174.5 70t-64.5 164q0 95 66 163t176 68q106 0 170.5 -68.5t64.5 -162.5q0 -95 -63.5 -164.5t-174.5 -69.5zM109 1141q0 -67 45.5 -115.5t121.5 -48.5q78 0 122 48.5t44 115.5q0 65 -45 113.5t-118 48.5q-76 0 -123 -48t-47 -114z" />
    <glyph glyph-name="plusminus" unicode="&#xb1;" horiz-adv-x="919" 
d="M344 426v322h-307v229h305v301h229v-301h312v-229h-312v-322h-227zM51 135v230h809v-230h-809z" />
    <glyph glyph-name="uni00B2" unicode="&#xb2;" horiz-adv-x="782" 
d="M102 637q12 116 88 181.5t216 92.5q93 19 133.5 52.5t40.5 95.5q0 79 -54.5 119.5t-156.5 40.5q-91 0 -132.5 -54t-33.5 -147h-166q-10 165 86.5 259.5t245.5 94.5q61 0 114.5 -10t102 -33.5t83.5 -58.5t55.5 -89t20.5 -122q0 -241 -321 -303q-77 -15 -109.5 -40
t-44.5 -79l-6 -25h436v-153h-616z" />
    <glyph glyph-name="uni00B3" unicode="&#xb3;" horiz-adv-x="759" 
d="M514 1067q92 -31 150.5 -103t58.5 -188q0 -143 -91.5 -231t-246.5 -88q-156 0 -254.5 111t-93.5 272h166q10 -127 53 -178.5t129 -51.5q94 0 133 37t39 129q0 39 -12.5 66t-33 43t-57 24.5t-74.5 11.5t-95 3v125l157 174h-370v151l610 -2v-121z" />
    <glyph glyph-name="periodcentered" unicode="&#xb7;" horiz-adv-x="397" 
d="M199 487q-72 0 -117 42t-45 102q0 61 45 102t117 41t116.5 -41t44.5 -102q0 -60 -44.5 -102t-116.5 -42z" />
    <glyph glyph-name="uni00B9" unicode="&#xb9;" horiz-adv-x="423" 
d="M37 530v144h104v559h-104v143h260v-702h92v-144h-352z" />
    <glyph glyph-name="ordmasculine" unicode="&#xba;" horiz-adv-x="661" 
d="M332 772q-134 1 -214.5 85.5t-80.5 215.5q0 133 80.5 218t214.5 85q133 0 213 -85t80 -218q0 -132 -80.5 -218t-212.5 -83zM176 1073q0 -76 42.5 -125.5t111.5 -48.5q71 0 114 49t43 125q0 78 -43 127t-114 49q-69 1 -111.5 -48.5t-42.5 -127.5z" />
    <glyph glyph-name="guillemotright" unicode="&#xbb;" horiz-adv-x="1206" 
d="M676 115h-260l487 438l-512 451h264l514 -445zM47 1006h264l514 -445l-493 -444h-260l487 438z" />
    <glyph glyph-name="questiondown" unicode="&#xbf;" horiz-adv-x="1099" 
d="M1040 979q0 -58 -14.5 -108t-36.5 -86t-57.5 -67t-68 -50.5t-78.5 -38.5t-78.5 -29.5t-78 -24.5t-67.5 -22q-25 -8 -72.5 -23.5t-68.5 -22.5t-52.5 -22t-45 -29t-24.5 -36.5t-11 -50.5q0 -89 47 -124.5t162 -35.5q157 0 228.5 58t68.5 208h249q-3 -112 -33 -198.5
t-79 -142t-118.5 -91t-146.5 -50t-169 -13.5q-96 1 -176 23t-145 67t-101.5 121.5t-36.5 177.5q0 58 13.5 107.5t33.5 85t54 67t64 51t74.5 39t74.5 29.5t75.5 25t65.5 22q28 10 74.5 24t72 22.5t58.5 23t49.5 28.5t29 36.5t12.5 49.5v76h252v-76zM750 1237q0 55 42 95
t115 40t114.5 -40.5t41.5 -94.5q0 -53 -42 -93t-114 -40q-75 0 -116 39.5t-41 93.5z" />
    <glyph glyph-name="Agrave" unicode="&#xc0;" horiz-adv-x="1423" 
d="M37 0l596 1352h180l573 -1352h-266l-164 375h-481l-170 -375h-268zM397 1925h221l199 -493h-223zM584 621h268l-129 317z" />
    <glyph glyph-name="Aacute" unicode="&#xc1;" horiz-adv-x="1423" 
d="M37 0l596 1352h180l573 -1352h-266l-164 375h-481l-170 -375h-268zM584 621h268l-129 317zM631 1423l198 494h222l-197 -494h-223z" />
    <glyph glyph-name="Acircumflex" unicode="&#xc2;" horiz-adv-x="1423" 
d="M37 0l596 1352h180l573 -1352h-266l-164 375h-481l-170 -375h-268zM346 1462l346 527l348 -525h-241l-107 176l-104 -178h-242zM584 621h268l-129 317z" />
    <glyph glyph-name="Atilde" unicode="&#xc3;" horiz-adv-x="1423" 
d="M37 0l596 1352h180l573 -1352h-266l-164 375h-481l-170 -375h-268zM338 1427q-20 152 52 237t185 62q32 -6 66.5 -28.5t63 -44t43.5 -25.5q36 -9 54 13t32 88h194q-6 -89 -49.5 -166t-114.5 -114.5t-147 -12.5q-43 15 -90.5 54.5t-55.5 43.5q-33 16 -42 -32
q-5 -26 -5 -75h-186zM584 621h268l-129 317z" />
    <glyph glyph-name="Adieresis" unicode="&#xc4;" horiz-adv-x="1423" 
d="M37 0l596 1352h180l573 -1352h-266l-164 375h-481l-170 -375h-268zM358 1567q0 59 43.5 100t112.5 41t111.5 -40.5t42.5 -100.5q0 -57 -44 -97t-110 -40q-69 0 -112.5 40t-43.5 97zM584 621h268l-129 317zM702 1567q0 58 43.5 99.5t110.5 41.5q69 0 112.5 -40.5
t43.5 -100.5q0 -56 -44.5 -96.5t-111.5 -40.5t-110.5 40t-43.5 97z" />
    <glyph glyph-name="Aring" unicode="&#xc5;" horiz-adv-x="1423" 
d="M37 0l596 1352h180l573 -1352h-266l-164 375h-481l-170 -375h-268zM465 1647q0 96 68.5 160.5t168.5 64.5q104 0 173 -64t69 -161q0 -89 -69.5 -154.5t-172.5 -65.5q-98 0 -167.5 66t-69.5 154zM584 621h268l-129 317zM592 1649q0 -42 32.5 -72.5t77.5 -30.5
q49 0 82 30.5t33 72.5q0 44 -33 74t-82 30q-46 0 -78 -30t-32 -74z" />
    <glyph glyph-name="AE" unicode="&#xc6;" horiz-adv-x="2064" 
d="M37 0l573 1352h172l262 -643v479q0 98 29.5 131t128.5 33h826v-230h-734v-368h643v-230h-643v-295h731v-229h-948l-157 375h-461l-164 -375h-258zM563 621h256l-123 317z" />
    <glyph glyph-name="Ccedilla" unicode="&#xc7;" horiz-adv-x="1394" 
d="M412 -365q112 -6 175.5 -6t107.5 6.5t59.5 21t15.5 40.5q0 40 -75.5 50.5t-291.5 4.5v123l84 141q-200 68 -325 240t-125 403q0 151 51 284t140.5 227t214.5 148t268 54q243 0 416.5 -142.5t226.5 -377.5h-258q-42 138 -145 214.5t-240 76.5q-184 0 -304 -131.5
t-120 -343.5q0 -200 116.5 -329.5t305.5 -129.5q148 0 253 82t142 227h254q-49 -241 -229.5 -389.5t-417.5 -148.5h-37l-25 -43q316 -23 316 -240q0 -76 -28 -127.5t-76.5 -76t-113.5 -37.5t-139 -12t-153 0q-29 1 -43 1v190z" />
    <glyph glyph-name="Egrave" unicode="&#xc8;" horiz-adv-x="1056" 
d="M195 0q-99 0 -128.5 35t-29.5 133v1020q0 98 29.5 131t128.5 33h825v-230h-733v-368h643v-230h-643v-295h731v-229h-823zM262 1901h221l199 -494h-223z" />
    <glyph glyph-name="Eacute" unicode="&#xc9;" horiz-adv-x="1056" 
d="M195 0q-99 0 -128.5 35t-29.5 133v1020q0 98 29.5 131t128.5 33h825v-230h-733v-368h643v-230h-643v-295h731v-229h-823zM496 1399l198 493h221l-196 -493h-223z" />
    <glyph glyph-name="Ecircumflex" unicode="&#xca;" horiz-adv-x="1056" 
d="M195 0q-99 0 -128.5 35t-29.5 133v1020q0 98 29.5 131t128.5 33h825v-230h-733v-368h643v-230h-643v-295h731v-229h-823zM211 1438l346 526l348 -524h-241l-107 176l-104 -178h-242z" />
    <glyph glyph-name="Edieresis" unicode="&#xcb;" horiz-adv-x="1056" 
d="M195 0q-99 0 -128.5 35t-29.5 133v1020q0 98 29.5 131t128.5 33h825v-230h-733v-368h643v-230h-643v-295h731v-229h-823zM223 1542q0 59 43.5 100t112.5 41t111 -40.5t42 -100.5q0 -57 -43.5 -97t-109.5 -40q-69 0 -112.5 40t-43.5 97zM567 1542q0 58 43.5 99.5
t110.5 41.5q69 0 112.5 -40.5t43.5 -100.5q0 -56 -44.5 -96.5t-111.5 -40.5t-110.5 40t-43.5 97z" />
    <glyph glyph-name="Igrave" unicode="&#xcc;" horiz-adv-x="608" 
d="M59 0v229h131v893h-131v230h512v-230h-131v-893h131v-229h-512zM37 1901h221l199 -494h-224z" />
    <glyph glyph-name="Iacute" unicode="&#xcd;" horiz-adv-x="663" 
d="M37 0v229h131v893h-131v230h512v-230h-131v-893h131v-229h-512zM248 1399l198 493h222l-197 -493h-223z" />
    <glyph glyph-name="Icircumflex" unicode="&#xce;" horiz-adv-x="745" 
d="M111 0v229h131v893h-131v230h512v-230h-131v-893h131v-229h-512zM37 1438l346 526l348 -524h-242l-106 176l-104 -178h-242z" />
    <glyph glyph-name="Idieresis" unicode="&#xcf;" horiz-adv-x="716" 
d="M98 0v229h131v893h-131v230h512v-230h-131v-893h131v-229h-512zM37 1542q0 59 43.5 100t112.5 41t111 -40.5t42 -100.5q0 -57 -43.5 -97t-109.5 -40q-69 0 -112.5 40t-43.5 97zM381 1542q0 58 43.5 99.5t110.5 41.5q69 0 112 -40.5t43 -100.5q0 -56 -44.5 -96.5
t-110.5 -40.5q-67 0 -110.5 40t-43.5 97z" />
    <glyph glyph-name="Ntilde" unicode="&#xd1;" horiz-adv-x="1144" 
d="M37 0v1352h199l622 -867v867h250l-4 -1352h-199l-618 860v-860h-250zM180 1403q-10 76 5.5 138.5t49 100.5t81.5 54.5t102 5.5q32 -6 66.5 -28.5t62.5 -44t43 -25.5q36 -9 54 12.5t32 87.5h194q-6 -89 -49.5 -166t-114.5 -114.5t-147 -12.5q-43 15 -90 54.5t-55 43.5
q-32 16 -42 -29q-5 -26 -5 -77h-187z" />
    <glyph glyph-name="Ograve" unicode="&#xd2;" horiz-adv-x="1409" 
d="M711 -20q-182 0 -335.5 85t-246 242t-92.5 352q0 151 51 284t140.5 227t214.5 148t268 54q191 0 342.5 -90.5t235 -250t83.5 -359.5q0 -150 -53 -280t-142.5 -219.5t-210.5 -141t-255 -51.5zM287 668q0 -200 116.5 -329.5t305.5 -129.5q184 0 298.5 124t114.5 331
q0 222 -115.5 350.5t-295.5 128.5q-184 0 -304 -131.5t-120 -343.5zM397 1942h221l199 -494h-223z" />
    <glyph glyph-name="Oacute" unicode="&#xd3;" horiz-adv-x="1409" 
d="M711 -20q-182 0 -335.5 85t-246 242t-92.5 352q0 151 51 284t140.5 227t214.5 148t268 54q191 0 342.5 -90.5t235 -250t83.5 -359.5q0 -150 -53 -280t-142.5 -219.5t-210.5 -141t-255 -51.5zM287 668q0 -200 116.5 -329.5t305.5 -129.5q184 0 298.5 124t114.5 331
q0 222 -115.5 350.5t-295.5 128.5q-184 0 -304 -131.5t-120 -343.5zM631 1440l198 493h222l-197 -493h-223z" />
    <glyph glyph-name="Ocircumflex" unicode="&#xd4;" horiz-adv-x="1409" 
d="M711 -20q-182 0 -335.5 85t-246 242t-92.5 352q0 151 51 284t140.5 227t214.5 148t268 54q191 0 342.5 -90.5t235 -250t83.5 -359.5q0 -150 -53 -280t-142.5 -219.5t-210.5 -141t-255 -51.5zM287 668q0 -200 116.5 -329.5t305.5 -129.5q184 0 298.5 124t114.5 331
q0 222 -115.5 350.5t-295.5 128.5q-184 0 -304 -131.5t-120 -343.5zM346 1479l346 526l348 -524h-241l-107 176l-104 -178h-242z" />
    <glyph glyph-name="Otilde" unicode="&#xd5;" horiz-adv-x="1409" 
d="M711 -20q-182 0 -335.5 85t-246 242t-92.5 352q0 151 51 284t140.5 227t214.5 148t268 54q191 0 342.5 -90.5t235 -250t83.5 -359.5q0 -150 -53 -280t-142.5 -219.5t-210.5 -141t-255 -51.5zM287 668q0 -200 116.5 -329.5t305.5 -129.5q184 0 298.5 124t114.5 331
q0 222 -115.5 350.5t-295.5 128.5q-184 0 -304 -131.5t-120 -343.5zM338 1444q-20 152 52 237t185 62q32 -6 66.5 -28.5t63 -44t43.5 -25.5q36 -9 54 12.5t32 87.5h194q-6 -89 -49.5 -166t-114.5 -114.5t-147 -12.5q-43 15 -90.5 54.5t-55.5 43.5q-32 16 -42 -29
q-5 -26 -5 -77h-186z" />
    <glyph glyph-name="Odieresis" unicode="&#xd6;" horiz-adv-x="1409" 
d="M711 -20q-182 0 -335.5 85t-246 242t-92.5 352q0 151 51 284t140.5 227t214.5 148t268 54q191 0 342.5 -90.5t235 -250t83.5 -359.5q0 -150 -53 -280t-142.5 -219.5t-210.5 -141t-255 -51.5zM287 668q0 -200 116.5 -329.5t305.5 -129.5q184 0 298.5 124t114.5 331
q0 222 -115.5 350.5t-295.5 128.5q-184 0 -304 -131.5t-120 -343.5zM358 1583q0 59 43.5 100t112.5 41t111.5 -40.5t42.5 -100.5q0 -57 -44 -97t-110 -40q-69 0 -112.5 40t-43.5 97zM702 1583q0 58 43.5 99.5t110.5 41.5q69 0 112.5 -40.5t43.5 -100.5q0 -56 -44.5 -96.5
t-111.5 -40.5t-110.5 40t-43.5 97z" />
    <glyph glyph-name="multiply" unicode="&#xd7;" horiz-adv-x="843" 
d="M37 410l227 227l-217 217l162 164l215 -217l213 213l164 -162l-213 -213l219 -219l-162 -164l-221 221l-227 -227z" />
    <glyph glyph-name="Oslash" unicode="&#xd8;" horiz-adv-x="1409" 
d="M711 -20q-56 0 -103 8l-51 -150h-250l78 223q-159 86 -253.5 242.5t-94.5 355.5q0 151 51 284t140.5 227t214.5 148t268 54q59 0 127 -10l39 113h249l-67 -197q148 -90 230.5 -248.5t82.5 -357.5q0 -150 -53 -280t-142.5 -219.5t-210.5 -141t-255 -51.5zM287 668
q0 -123 46 -223t130 -160l297 856q-16 2 -49 2q-184 0 -304 -131.5t-120 -343.5zM686 209h23q184 0 298.5 124t114.5 331q0 248 -145 380z" />
    <glyph glyph-name="Ugrave" unicode="&#xd9;" horiz-adv-x="1327" 
d="M668 -20q-113 0 -205 21t-173 71.5t-135.5 129.5t-86 199.5t-31.5 276.5v674h250v-674q0 -133 28 -226.5t81 -145.5t119 -74.5t153 -22.5q183 0 277.5 111.5t94.5 357.5v674h250v-674q0 -193 -42.5 -330t-126 -217t-194 -115.5t-259.5 -35.5zM360 1880h222l198 -494h-223
z" />
    <glyph glyph-name="Uacute" unicode="&#xda;" horiz-adv-x="1327" 
d="M668 -20q-113 0 -205 21t-173 71.5t-135.5 129.5t-86 199.5t-31.5 276.5v674h250v-674q0 -133 28 -226.5t81 -145.5t119 -74.5t153 -22.5q183 0 277.5 111.5t94.5 357.5v674h250v-674q0 -193 -42.5 -330t-126 -217t-194 -115.5t-259.5 -35.5zM594 1378l199 494h221
l-197 -494h-223z" />
    <glyph glyph-name="Ucircumflex" unicode="&#xdb;" horiz-adv-x="1327" 
d="M668 -20q-113 0 -205 21t-173 71.5t-135.5 129.5t-86 199.5t-31.5 276.5v674h250v-674q0 -133 28 -226.5t81 -145.5t119 -74.5t153 -22.5q183 0 277.5 111.5t94.5 357.5v674h250v-674q0 -193 -42.5 -330t-126 -217t-194 -115.5t-259.5 -35.5zM309 1417l346 527l349 -525
h-242l-107 176l-104 -178h-242z" />
    <glyph glyph-name="Udieresis" unicode="&#xdc;" horiz-adv-x="1327" 
d="M668 -20q-113 0 -205 21t-173 71.5t-135.5 129.5t-86 199.5t-31.5 276.5v674h250v-674q0 -133 28 -226.5t81 -145.5t119 -74.5t153 -22.5q183 0 277.5 111.5t94.5 357.5v674h250v-674q0 -193 -42.5 -330t-126 -217t-194 -115.5t-259.5 -35.5zM322 1522q0 59 43 100
t112 41t111.5 -40.5t42.5 -100.5q0 -57 -44 -97.5t-110 -40.5q-69 0 -112 40.5t-43 97.5zM666 1522q0 59 43 100t110 41q69 0 112.5 -40.5t43.5 -100.5q0 -56 -45 -97t-111 -41q-67 0 -110 40.5t-43 97.5z" />
    <glyph glyph-name="Yacute" unicode="&#xdd;" horiz-adv-x="1296" 
d="M37 1352h272l322 -584l356 584h273l-508 -828v-524h-250v526zM575 1407l199 494h221l-196 -494h-224z" />
    <glyph glyph-name="germandbls" unicode="&#xdf;" horiz-adv-x="1126" 
d="M37 932q0 69 15.5 130t53.5 119t96.5 99.5t151.5 66.5t211 25q252 0 386 -100t134 -281q0 -90 -39.5 -177.5t-103.5 -139.5q69 -53 108.5 -128t39.5 -163q0 -188 -127 -285.5t-381 -97.5h-179v231h179q166 0 222 29.5t56 122.5q0 97 -64.5 146t-213.5 49h-179v192h179
q152 0 212 57t60 164q0 84 -65 127t-224 43q-73 0 -126 -8t-84.5 -26t-51 -34.5t-27 -48.5t-9 -51.5t-1.5 -58.5v-2v-932h-229v932z" />
    <glyph glyph-name="agrave" unicode="&#xe0;" horiz-adv-x="1216" 
d="M508 -20q-213 6 -342 155.5t-129 376.5q0 238 129.5 392.5t341.5 154.5q239 0 342 -174v153h250v-809h80v-229h-172q-96 0 -127 31.5t-31 118.5v18q-62 -99 -140 -145t-202 -43zM287 512q0 -129 77.5 -216t202.5 -87q126 0 204.5 87t78.5 216q0 138 -77.5 227t-205.5 90
q-126 1 -203 -88.5t-77 -228.5zM317 1636h222l198 -493h-223z" />
    <glyph glyph-name="aacute" unicode="&#xe1;" horiz-adv-x="1216" 
d="M508 -20q-213 6 -342 155.5t-129 376.5q0 238 129.5 392.5t341.5 154.5q239 0 342 -174v153h250v-809h80v-229h-172q-96 0 -127 31.5t-31 118.5v18q-62 -99 -140 -145t-202 -43zM287 512q0 -129 77.5 -216t202.5 -87q126 0 204.5 87t78.5 216q0 138 -77.5 227t-205.5 90
q-126 1 -203 -88.5t-77 -228.5zM551 1135l199 493h221l-197 -493h-223z" />
    <glyph glyph-name="acircumflex" unicode="&#xe2;" horiz-adv-x="1216" 
d="M508 -20q-213 6 -342 155.5t-129 376.5q0 238 129.5 392.5t341.5 154.5q239 0 342 -174v153h250v-809h80v-229h-172q-96 0 -127 31.5t-31 118.5v18q-62 -99 -140 -145t-202 -43zM266 1174l346 526l349 -524h-242l-107 176l-104 -178h-242zM287 512q0 -129 77.5 -216
t202.5 -87q126 0 204.5 87t78.5 216q0 138 -77.5 227t-205.5 90q-126 1 -203 -88.5t-77 -228.5z" />
    <glyph glyph-name="atilde" unicode="&#xe3;" horiz-adv-x="1216" 
d="M508 -20q-213 6 -342 155.5t-129 376.5q0 238 129.5 392.5t341.5 154.5q239 0 342 -174v153h250v-809h80v-229h-172q-96 0 -127 31.5t-31 118.5v18q-62 -99 -140 -145t-202 -43zM287 512q0 -129 77.5 -216t202.5 -87q126 0 204.5 87t78.5 216q0 138 -77.5 227t-205.5 90
q-126 1 -203 -88.5t-77 -228.5zM322 1133q-15 126 43.5 194.5t152.5 50.5q33 -7 80.5 -43t60.5 -39q29 -7 44 11.5t26 72.5h160q-8 -115 -85.5 -193.5t-170.5 -47.5q-35 12 -74 45.5t-45 36.5q-7 3 -12.5 3t-10 -3t-7.5 -9.5t-5 -17.5t-3 -26t-1 -35h-153z" />
    <glyph glyph-name="adieresis" unicode="&#xe4;" horiz-adv-x="1216" 
d="M508 -20q-213 6 -342 155.5t-129 376.5q0 238 129.5 392.5t341.5 154.5q239 0 342 -174v153h250v-809h80v-229h-172q-96 0 -127 31.5t-31 118.5v18q-62 -99 -140 -145t-202 -43zM279 1278q0 59 43 100t112 41t111.5 -40.5t42.5 -100.5q0 -57 -44 -97t-110 -40
q-69 0 -112 40t-43 97zM287 512q0 -129 77.5 -216t202.5 -87q126 0 204.5 87t78.5 216q0 138 -77.5 227t-205.5 90q-126 1 -203 -88.5t-77 -228.5zM623 1278q0 59 43 100t110 41q69 0 112.5 -40.5t43.5 -100.5q0 -56 -44.5 -96.5t-111.5 -40.5t-110 40t-43 97z" />
    <glyph glyph-name="aring" unicode="&#xe5;" horiz-adv-x="1216" 
d="M508 -20q-213 6 -342 155.5t-129 376.5q0 238 129.5 392.5t341.5 154.5q239 0 342 -174v153h250v-809h80v-229h-172q-96 0 -127 31.5t-31 118.5v18q-62 -99 -140 -145t-202 -43zM287 512q0 -129 77.5 -216t202.5 -87q126 0 204.5 87t78.5 216q0 138 -77.5 227t-205.5 90
q-126 1 -203 -88.5t-77 -228.5zM385 1358q0 96 69 160.5t169 64.5q104 0 172.5 -64t68.5 -161q0 -89 -69 -154t-172 -65q-98 0 -168 65.5t-70 153.5zM512 1360q0 -42 33 -72.5t78 -30.5q49 0 81.5 30.5t32.5 72.5q0 44 -32.5 74t-81.5 30q-46 0 -78.5 -30t-32.5 -74z" />
    <glyph glyph-name="ae" unicode="&#xe6;" horiz-adv-x="1984" 
d="M506 -20q-212 6 -340.5 151t-128.5 365q0 232 128.5 381t340.5 149q236 0 340 -168v148h248v-74q141 125 364 125q105 0 202 -41t171.5 -114t118 -183t39.5 -238l-811 -2q0 -101 84.5 -186.5t199.5 -85.5q99 0 154 31.5t92 91.5h250q-53 -158 -184 -255.5t-312 -97.5
q-159 0 -288 76v-53h-170q-96 0 -127 30t-31 115v17q-62 -96 -140 -140.5t-200 -41.5zM285 496q0 -124 77.5 -208.5t202.5 -84.5t203 84.5t78 208.5q0 133 -77.5 219.5t-203.5 87.5t-203 -86t-77 -221zM1196 647h524q-28 81 -98 130.5t-164 49.5q-97 0 -167 -49.5
t-95 -130.5z" />
    <glyph glyph-name="ccedilla" unicode="&#xe7;" horiz-adv-x="1126" 
d="M1090 403q-29 -174 -148.5 -294t-284.5 -140l-10 -16q316 -23 316 -240q0 -76 -28 -127.5t-76.5 -76t-113.5 -37.5t-139 -12t-153 0q-29 1 -43 1v191q75 -4 124.5 -5.5t92.5 0t67.5 5.5t42.5 12t24.5 20t6.5 29q0 40 -76.5 51t-290.5 5v122l54 89q-197 41 -307.5 184
t-110.5 348q0 240 149 393.5t404 153.5q183 0 323 -114.5t177 -295.5h-250q-21 86 -98 135.5t-175 44.5q-137 -6 -208.5 -92t-71.5 -225t80.5 -227.5t220.5 -89.5q76 1 128.5 30t79.5 72t44 106h250z" />
    <glyph glyph-name="egrave" unicode="&#xe8;" horiz-adv-x="1134" 
d="M1067 332q-53 -157 -184 -254.5t-312 -97.5q-160 0 -283.5 72.5t-187 191.5t-63.5 262q0 257 142.5 405t387.5 148q105 0 202 -41t171.5 -114t118 -183t39.5 -238l-811 -2q0 -101 84.5 -186.5t199.5 -85.5q99 0 154 31.5t92 91.5h250zM254 1622h221l199 -494h-223z
M305 649h524q-28 81 -98 130.5t-164 49.5q-97 0 -167 -49.5t-95 -130.5z" />
    <glyph glyph-name="eacute" unicode="&#xe9;" horiz-adv-x="1134" 
d="M1067 332q-53 -157 -184 -254.5t-312 -97.5q-160 0 -283.5 72.5t-187 191.5t-63.5 262q0 257 142.5 405t387.5 148q105 0 202 -41t171.5 -114t118 -183t39.5 -238l-811 -2q0 -101 84.5 -186.5t199.5 -85.5q99 0 154 31.5t92 91.5h250zM305 649h524q-28 81 -98 130.5
t-164 49.5q-97 0 -167 -49.5t-95 -130.5zM487 1120l199 494h221l-196 -494h-224z" />
    <glyph glyph-name="ecircumflex" unicode="&#xea;" horiz-adv-x="1134" 
d="M1067 332q-53 -157 -184 -254.5t-312 -97.5q-160 0 -283.5 72.5t-187 191.5t-63.5 262q0 257 142.5 405t387.5 148q105 0 202 -41t171.5 -114t118 -183t39.5 -238l-811 -2q0 -101 84.5 -186.5t199.5 -85.5q99 0 154 31.5t92 91.5h250zM203 1159l346 527l348 -525h-242
l-106 176l-105 -178h-241zM305 649h524q-28 81 -98 130.5t-164 49.5q-97 0 -167 -49.5t-95 -130.5z" />
    <glyph glyph-name="edieresis" unicode="&#xeb;" horiz-adv-x="1134" 
d="M1067 332q-53 -157 -184 -254.5t-312 -97.5q-160 0 -283.5 72.5t-187 191.5t-63.5 262q0 257 142.5 405t387.5 148q105 0 202 -41t171.5 -114t118 -183t39.5 -238l-811 -2q0 -101 84.5 -186.5t199.5 -85.5q99 0 154 31.5t92 91.5h250zM215 1264q0 59 43.5 100t112.5 41
t111 -40.5t42 -100.5q0 -57 -43.5 -97.5t-109.5 -40.5q-69 0 -112.5 40.5t-43.5 97.5zM305 649h524q-28 81 -98 130.5t-164 49.5q-97 0 -167 -49.5t-95 -130.5zM559 1264q0 58 43.5 99.5t110.5 41.5q69 0 112 -40.5t43 -100.5q0 -57 -44.5 -97.5t-110.5 -40.5
q-67 0 -110.5 40.5t-43.5 97.5z" />
    <glyph glyph-name="igrave" unicode="&#xec;" horiz-adv-x="520" 
d="M233 0v1038h250v-1038h-250zM27 1587h221l198 -493h-223z" />
    <glyph glyph-name="iacute" unicode="&#xed;" horiz-adv-x="493" 
d="M51 0v1038h250v-1038h-250zM78 1085l198 494h222l-197 -494h-223z" />
    <glyph glyph-name="icircumflex" unicode="&#xee;" horiz-adv-x="735" 
d="M285 0v1038h250v-1038h-250zM27 1124l346 527l348 -525h-242l-106 177l-105 -179h-241z" />
    <glyph glyph-name="idieresis" unicode="&#xef;" horiz-adv-x="706" 
d="M272 0v1038h250v-1038h-250zM27 1229q0 59 43 100t112 41t111.5 -40.5t42.5 -100.5q0 -57 -44 -97t-110 -40q-69 0 -112 40t-43 97zM371 1229q0 59 43 100t110 41q69 0 112.5 -40.5t43.5 -100.5q0 -56 -44.5 -96.5t-111.5 -40.5t-110 40t-43 97z" />
    <glyph glyph-name="ntilde" unicode="&#xf1;" horiz-adv-x="1073" 
d="M37 0v1038h250v-164q36 79 113.5 130t177.5 55q222 10 340 -136.5t118 -402.5v-520h-250v520q0 168 -60 238.5t-189 70.5q-111 0 -181.5 -76t-70.5 -233l2 -520h-250zM106 1120q-10 76 5.5 138.5t49 100.5t81.5 54.5t102 5.5q32 -6 66.5 -28.5t62.5 -44t43 -25.5
q36 -9 54 12.5t32 87.5h195q-6 -89 -50 -166t-115 -114.5t-147 -12.5q-43 15 -90 55t-55 44q-33 16 -42 -32q-5 -26 -5 -75h-187z" />
    <glyph glyph-name="ograve" unicode="&#xf2;" horiz-adv-x="1136" 
d="M569 -35q-242 3 -387 156t-145 391q0 239 145 393t387 154q160 0 281.5 -71.5t185.5 -195.5t64 -280q0 -157 -64 -281.5t-186 -196t-281 -69.5zM268 1626h221l199 -493h-223zM287 512q0 -139 77 -228.5t203 -88.5q128 1 205.5 90t77.5 227t-77.5 227t-205.5 90
q-126 1 -203 -88.5t-77 -228.5z" />
    <glyph glyph-name="oacute" unicode="&#xf3;" horiz-adv-x="1136" 
d="M569 -35q-242 3 -387 156t-145 391q0 239 145 393t387 154q160 0 281.5 -71.5t185.5 -195.5t64 -280q0 -157 -64 -281.5t-186 -196t-281 -69.5zM287 512q0 -139 77 -228.5t203 -88.5q128 1 205.5 90t77.5 227t-77.5 227t-205.5 90q-126 1 -203 -88.5t-77 -228.5z
M502 1124l198 494h222l-197 -494h-223z" />
    <glyph glyph-name="ocircumflex" unicode="&#xf4;" horiz-adv-x="1136" 
d="M569 -35q-242 3 -387 156t-145 391q0 239 145 393t387 154q160 0 281.5 -71.5t185.5 -195.5t64 -280q0 -157 -64 -281.5t-186 -196t-281 -69.5zM217 1163l346 527l348 -525h-241l-107 176l-104 -178h-242zM287 512q0 -139 77 -228.5t203 -88.5q128 1 205.5 90t77.5 227
t-77.5 227t-205.5 90q-126 1 -203 -88.5t-77 -228.5z" />
    <glyph glyph-name="otilde" unicode="&#xf5;" horiz-adv-x="1136" 
d="M569 -35q-242 3 -387 156t-145 391q0 239 145 393t387 154q160 0 281.5 -71.5t185.5 -195.5t64 -280q0 -157 -64 -281.5t-186 -196t-281 -69.5zM209 1128q-20 152 52 237t185 62q32 -6 66.5 -28.5t62.5 -44t43 -25.5q36 -9 54.5 13t32.5 88h194q-6 -89 -49.5 -166
t-114.5 -114.5t-147 -12.5q-43 15 -90.5 54.5t-55.5 43.5q-33 16 -42 -32q-5 -26 -5 -75h-186zM287 512q0 -139 77 -228.5t203 -88.5q128 1 205.5 90t77.5 227t-77.5 227t-205.5 90q-126 1 -203 -88.5t-77 -228.5z" />
    <glyph glyph-name="odieresis" unicode="&#xf6;" horiz-adv-x="1136" 
d="M569 -35q-242 3 -387 156t-145 391q0 239 145 393t387 154q160 0 281.5 -71.5t185.5 -195.5t64 -280q0 -157 -64 -281.5t-186 -196t-281 -69.5zM229 1268q0 59 43.5 100t112.5 41t111.5 -40.5t42.5 -100.5q0 -57 -44 -97.5t-110 -40.5q-69 0 -112.5 40.5t-43.5 97.5z
M287 512q0 -139 77 -228.5t203 -88.5q128 1 205.5 90t77.5 227t-77.5 227t-205.5 90q-126 1 -203 -88.5t-77 -228.5zM573 1268q0 58 43.5 99.5t110.5 41.5q69 0 112.5 -40.5t43.5 -100.5q0 -56 -45 -97t-111 -41q-67 0 -110.5 40.5t-43.5 97.5z" />
    <glyph glyph-name="divide" unicode="&#xf7;" horiz-adv-x="882" 
d="M37 426v229h809v-229h-809zM289 840q0 54 39 89.5t102 35.5q65 0 104 -35.5t39 -89.5t-39.5 -90.5t-103.5 -36.5q-63 0 -102 36.5t-39 90.5zM305 258q0 54 39.5 90.5t104.5 36.5q63 0 102 -36.5t39 -90.5t-39 -90.5t-102 -36.5q-65 0 -104.5 36.5t-39.5 90.5z" />
    <glyph glyph-name="oslash" unicode="&#xf8;" horiz-adv-x="1136" 
d="M569 -35q-25 0 -75 4l-60 -141h-250l92 217q-114 71 -176.5 192.5t-62.5 274.5q0 239 145 393t387 154q69 0 127 -12l58 133h250l-97 -232q92 -72 142.5 -186t50.5 -250q0 -157 -64 -281.5t-186 -196t-281 -69.5zM287 512q0 -149 86 -238l231 553q-6 0 -18.5 1t-18.5 1
q-126 1 -203 -88.5t-77 -228.5zM590 195q119 10 189.5 97.5t70.5 219.5q0 109 -49 188z" />
    <glyph glyph-name="ugrave" unicode="&#xf9;" horiz-adv-x="1153" 
d="M944 0q-96 0 -127 31.5t-31 118.5v14q-36 -79 -113 -129.5t-177 -54.5q-222 -10 -340.5 136t-118.5 402v520h250v-520q0 -168 60.5 -238.5t189.5 -70.5q111 0 181 76t70 233l-2 520h250v-809h80v-229h-172zM158 1651h221l199 -494h-224z" />
    <glyph glyph-name="uacute" unicode="&#xfa;" horiz-adv-x="1153" 
d="M944 0q-96 0 -127 31.5t-31 118.5v14q-36 -79 -113 -129.5t-177 -54.5q-222 -10 -340.5 136t-118.5 402v520h250v-520q0 -168 60.5 -238.5t189.5 -70.5q111 0 181 76t70 233l-2 520h250v-809h80v-229h-172zM391 1149l199 493h221l-197 -493h-223z" />
    <glyph glyph-name="ucircumflex" unicode="&#xfb;" horiz-adv-x="1153" 
d="M944 0q-96 0 -127 31.5t-31 118.5v14q-36 -79 -113 -129.5t-177 -54.5q-222 -10 -340.5 136t-118.5 402v520h250v-520q0 -168 60.5 -238.5t189.5 -70.5q111 0 181 76t70 233l-2 520h250v-809h80v-229h-172zM106 1188l347 526l348 -524h-242l-106 176l-105 -178h-242z" />
    <glyph glyph-name="udieresis" unicode="&#xfc;" horiz-adv-x="1153" 
d="M944 0q-96 0 -127 31.5t-31 118.5v14q-36 -79 -113 -129.5t-177 -54.5q-222 -10 -340.5 136t-118.5 402v520h250v-520q0 -168 60.5 -238.5t189.5 -70.5q111 0 181 76t70 233l-2 520h250v-809h80v-229h-172zM119 1292q0 59 43 100.5t112 41.5t111.5 -41t42.5 -101
q0 -57 -44 -97t-110 -40q-69 0 -112 40t-43 97zM463 1292q0 59 43 100.5t110 41.5q69 0 112.5 -41t43.5 -101q0 -56 -44.5 -96.5t-111.5 -40.5t-110 40t-43 97z" />
    <glyph glyph-name="yacute" unicode="&#xfd;" horiz-adv-x="1120" 
d="M37 1038h250l241 -653l306 653h249l-602 -1253q-14 -29 -26.5 -47t-22.5 -28.5t-28.5 -14.5t-31.5 -5t-45 -1h-10h-254v229h216l110 234zM522 1128l199 494h221l-197 -494h-223z" />
    <glyph glyph-name="ydieresis" unicode="&#xff;" horiz-adv-x="1120" 
d="M37 1038h250l241 -653l306 653h249l-602 -1253q-14 -29 -26.5 -47t-22.5 -28.5t-28.5 -14.5t-31.5 -5t-45 -1h-10h-254v229h216l110 234zM250 1272q0 59 43.5 100t112.5 41t111 -40.5t42 -100.5q0 -57 -43.5 -97t-109.5 -40q-69 0 -112.5 40t-43.5 97zM594 1272
q0 58 43.5 99.5t110.5 41.5q69 0 112 -40.5t43 -100.5q0 -56 -44.5 -96.5t-110.5 -40.5q-67 0 -110.5 40t-43.5 97z" />
    <glyph glyph-name="dotlessi" unicode="&#x131;" horiz-adv-x="323" 
d="M37 0v1038h250v-1038h-250z" />
    <glyph glyph-name="OE" unicode="&#x152;" horiz-adv-x="2144" 
d="M711 -20q-182 0 -335.5 85t-246 242t-92.5 352q0 151 51 284t140.5 227t214.5 148t268 54q241 0 415 -141q3 69 35 95t121 26h825v-230h-733v-368h643v-230h-643v-295h731v-229h-823q-89 0 -121 27.5t-35 99.5q-180 -147 -415 -147zM287 668q0 -200 116.5 -329.5
t305.5 -129.5q184 0 298.5 124t114.5 331q0 222 -115.5 350.5t-295.5 128.5q-184 0 -304 -131.5t-120 -343.5z" />
    <glyph glyph-name="oe" unicode="&#x153;" horiz-adv-x="1910" 
d="M569 -35q-242 3 -387 156t-145 391q0 239 145 393t387 154q252 0 400 -170q142 180 415 180q105 0 202 -41t171.5 -114t118 -182.5t39.5 -237.5l-811 -2q0 -101 85 -187t200 -86q99 0 153.5 31.5t91.5 91.5h250q-53 -158 -183.5 -255t-311.5 -97q-246 0 -402 166
q-69 -91 -176.5 -141.5t-241.5 -49.5zM287 512q0 -139 77 -228.5t203 -88.5q128 1 205.5 90t77.5 227t-77.5 227t-205.5 90q-126 1 -203 -88.5t-77 -228.5zM1122 659h525q-28 81 -99 131t-164 50q-96 0 -166.5 -50t-95.5 -131z" />
    <glyph glyph-name="Scaron" unicode="&#x160;" horiz-adv-x="1103" 
d="M811 961q-38 99 -116 140.5t-199 41.5q-209 0 -209 -160q0 -28 11 -50.5t24.5 -36.5t45 -29t52.5 -22t68.5 -22.5t72.5 -23.5q22 -8 67.5 -22t78 -24.5t78.5 -29.5t78.5 -38.5t68 -50.5t57.5 -67t36.5 -86t14.5 -108q0 -79 -26 -145.5t-69.5 -111.5t-101.5 -76.5
t-120.5 -45.5t-128.5 -14q-104 0 -188.5 21.5t-157 68.5t-125.5 129t-84 198h252q67 -188 303 -188q94 0 144 36.5t50 127.5q0 27 -12.5 49.5t-29 36.5t-49.5 28.5t-58.5 23t-72 22.5t-74.5 24q-20 7 -65.5 22t-75.5 25t-74.5 29.5t-74.5 39t-64 51t-54 67t-33.5 85
t-13.5 107.5q0 81 24.5 147t66.5 110.5t100.5 74.5t125 43.5t142.5 13.5q97 0 184.5 -23t165 -70t135.5 -128.5t86 -189.5h-256zM193 2013h241l105 -178l106 176h242l-348 -524z" />
    <glyph glyph-name="scaron" unicode="&#x161;" horiz-adv-x="894" 
d="M287 352q10 -84 53.5 -113.5t138.5 -29.5q77 0 108 15t31 63t-40 71t-150 50q-67 16 -115.5 31.5t-103.5 43.5t-89 61.5t-56 85t-21 115.5q1 81 33 142.5t86 97.5t119 54t139 18q49 0 95 -7.5t101 -31t99.5 -61t82.5 -102.5t58 -150h-250q-27 122 -180 122
q-75 0 -109 -21t-34 -65q0 -45 52 -73.5t163 -55.5q63 -15 110.5 -31t97 -42t80.5 -58t51 -79.5t21 -106.5q0 -151 -101.5 -233t-256.5 -82q-422 0 -463 372h250zM104 1690h242l105 -179l106 177h242l-348 -525z" />
    <glyph glyph-name="Ydieresis" unicode="&#x178;" horiz-adv-x="1296" 
d="M37 1352h272l322 -584l356 584h273l-508 -828v-524h-250v526zM303 1550q0 59 43.5 100.5t112.5 41.5t111 -41t42 -101q0 -57 -43.5 -97t-109.5 -40q-69 0 -112.5 40t-43.5 97zM647 1550q0 59 43.5 100.5t110.5 41.5q69 0 112 -41t43 -101q0 -56 -44.5 -96.5t-110.5 -40.5
q-67 0 -110.5 40t-43.5 97z" />
    <glyph glyph-name="zcaron" unicode="&#x17e;" horiz-adv-x="960" 
d="M37 788v250h885l2 -250l-551 -538h538v-250h-874v250l571 538h-571zM129 1690h242l104 -179l107 177h241l-348 -525z" />
    <glyph glyph-name="gravecomb" unicode="&#x300;" 
d="M233 858l-196 494h221l199 -494h-224z" />
    <glyph glyph-name="acutecomb" unicode="&#x301;" 
d="M260 858h-223l199 494h221z" />
    <glyph glyph-name="uni0302" unicode="&#x302;" 
d="M37 825l346 527l348 -525h-242l-106 177l-104 -179h-242z" />
    <glyph glyph-name="tildecomb" unicode="&#x303;" 
d="M41 1051q-10 76 5.5 138.5t49 100.5t81.5 54.5t102 5.5q32 -6 66.5 -28.5t62.5 -44.5t43 -26q36 -9 54 13t32 88h194q-6 -89 -49.5 -166t-114.5 -114.5t-147 -12.5q-43 15 -90.5 54.5t-55.5 43.5q-32 16 -42 -29q-5 -26 -5 -77h-186z" />
    <glyph glyph-name="uni0304" unicode="&#x304;" 
d="M37 1161v191h584v-191h-584z" />
    <glyph glyph-name="uni0306" unicode="&#x306;" 
d="M422 934q-172 7 -278.5 126t-106.5 292h225q-4 -84 42 -136.5t118 -52.5q89 0 123.5 50t34.5 139h225q0 -185 -110 -305t-273 -113z" />
    <glyph glyph-name="uni0307" unicode="&#x307;" 
d="M199 1063q-75 0 -118.5 43t-43.5 100q0 59 45.5 102.5t116.5 43.5q75 0 118 -43t43 -103q0 -57 -44.5 -100t-116.5 -43z" />
    <glyph glyph-name="uni0308" unicode="&#x308;" 
d="M193 1073q-69 0 -112.5 40t-43.5 97q0 59 43.5 100.5t112.5 41.5t111 -41t42 -101q0 -57 -43.5 -97t-109.5 -40zM381 1210q0 59 43.5 100.5t110.5 41.5q69 0 112 -41t43 -101q0 -56 -44.5 -96.5t-110.5 -40.5q-67 0 -110.5 40t-43.5 97z" />
    <glyph glyph-name="uni030A" unicode="&#x30a;" 
d="M274 930q-98 0 -167.5 65.5t-69.5 153.5q0 96 68.5 160.5t168.5 64.5q104 0 173 -64t69 -161q0 -88 -69.5 -153.5t-172.5 -65.5zM164 1151q0 -42 32.5 -72t77.5 -30q49 0 82 30t33 72q0 44 -33 74t-82 30q-46 0 -78 -30t-32 -74z" />
    <glyph glyph-name="uni030B" unicode="&#x30b;" 
d="M285 858l198 494h222l-197 -494h-223zM37 858l196 494h224l-199 -494h-221z" />
    <glyph glyph-name="uni030C" unicode="&#x30c;" 
d="M383 825l-346 527h242l104 -178l106 176h242z" />
    <glyph glyph-name="uni0312" unicode="&#x312;" 
d="M37 637l92 405h229l-90 -405h-231z" />
    <glyph glyph-name="uni0326" unicode="&#x326;" 
d="M37 -233l199 524h198l-196 -524h-201z" />
    <glyph glyph-name="uni0327" unicode="&#x327;" 
d="M45 -113q112 -6 175.5 -6t107.5 6.5t59.5 21t15.5 40.5q0 40 -75.5 50.5t-290.5 4.5v123l133 223h207l-94 -162q315 -23 315 -239q0 -76 -28 -127.5t-76.5 -76t-113.5 -37.5t-139 -12t-153 0q-29 1 -43 1v190z" />
    <glyph glyph-name="uni0328" unicode="&#x328;" 
d="M561 -195q-71 -42 -150.5 -52.5t-148.5 9t-125 69.5t-82 122q-33 94 -9.5 175t81.5 139.5t133 82.5l82 -6v-149q-61 -20 -92 -72t-12 -100q24 -61 91.5 -71t178.5 34z" />
    <glyph glyph-name="endash" unicode="&#x2013;" horiz-adv-x="968" 
d="M37 666v229h895v-229h-895z" />
    <glyph glyph-name="emdash" unicode="&#x2014;" horiz-adv-x="1095" 
d="M37 666v229h1022v-229h-1022z" />
    <glyph glyph-name="quoteleft" unicode="&#x2018;" horiz-adv-x="430" 
d="M162 801l-125 551h233l123 -551h-231z" />
    <glyph glyph-name="quoteright" unicode="&#x2019;" horiz-adv-x="430" 
d="M268 801h-231l123 551h233z" />
    <glyph glyph-name="quotesinglbase" unicode="&#x201a;" horiz-adv-x="428" 
d="M37 -279l92 406h229l-90 -406h-231z" />
    <glyph glyph-name="quotedblleft" unicode="&#x201c;" horiz-adv-x="733" 
d="M162 801l-125 551h233l123 -551h-231zM340 1350h233l123 -551h-231z" />
    <glyph glyph-name="quotedblright" unicode="&#x201d;" horiz-adv-x="712" 
d="M551 801h-232l123 551h234zM37 801l123 551h233l-125 -551h-231z" />
    <glyph glyph-name="quotedblbase" unicode="&#x201e;" horiz-adv-x="724" 
d="M37 -279l92 406h229l-90 -406h-231zM334 -279l92 406h229l-90 -406h-231z" />
    <glyph glyph-name="dagger" unicode="&#x2020;" horiz-adv-x="919" 
d="M344 274v588h-307v232h305v258h231v-258h310v-232h-310v-588h-229z" />
    <glyph glyph-name="bullet" unicode="&#x2022;" horiz-adv-x="493" 
d="M246 430q-93 0 -151 54t-58 132t58 131.5t151 53.5q95 0 153 -53.5t58 -131.5q0 -79 -58.5 -132.5t-152.5 -53.5z" />
    <glyph glyph-name="ellipsis" unicode="&#x2026;" horiz-adv-x="1103" 
d="M199 0q-72 0 -117 41.5t-45 101.5q0 61 45 102.5t117 41.5t116.5 -41.5t44.5 -102.5q0 -60 -44.5 -101.5t-116.5 -41.5zM389 143q0 61 45 102.5t117 41.5t117 -41.5t45 -102.5q0 -60 -45 -101.5t-117 -41.5t-117 41.5t-45 101.5zM743 143q0 61 45 102.5t117 41.5
t117 -41.5t45 -102.5q0 -60 -45 -101.5t-117 -41.5t-117 41.5t-45 101.5z" />
    <glyph glyph-name="perthousand" unicode="&#x2030;" horiz-adv-x="3416" 
d="M516 225q-92 0 -176.5 37.5t-152.5 107.5t-109 182.5t-41 250.5t41 249.5t109 180.5t152.5 106t176.5 37q97 0 184.5 -37t156 -106.5t109 -180.5t40.5 -249t-40.5 -250t-109 -182.5t-156 -108t-184.5 -37.5zM244 803q0 -200 75 -294.5t197 -94.5q132 0 207.5 93t75.5 296
q0 383 -283 383q-122 0 -197 -92t-75 -291zM774 -2l569 1352h250l-569 -1352h-250zM1389 559q0 138 41 249.5t109 181t152.5 106.5t176.5 37q97 0 184.5 -37t156 -107t108.5 -181t40 -249t-40 -250t-108.5 -182t-156 -107.5t-184.5 -37.5q-92 0 -176.5 37.5t-152.5 107.5
t-109 182t-41 250zM1595 559q0 -200 75.5 -294.5t197.5 -94.5q131 0 206.5 93t75.5 296q0 383 -282 383q-122 0 -197.5 -92t-75.5 -291zM2410 578q0 138 41 249.5t109.5 180.5t153 106t176.5 37q97 0 184.5 -37t156 -106.5t108.5 -180.5t40 -249t-40 -250t-108.5 -182.5
t-156 -108t-184.5 -37.5q-92 0 -176.5 37.5t-153 107.5t-109.5 182.5t-41 250.5zM2617 578q0 -200 75.5 -295t197.5 -95q131 0 206.5 93.5t75.5 296.5q0 383 -282 383q-122 0 -197.5 -92t-75.5 -291z" />
    <glyph glyph-name="guilsinglleft" unicode="&#x2039;" horiz-adv-x="851" 
d="M530 133l-493 445l514 444h264l-512 -451l488 -438h-261z" />
    <glyph glyph-name="guilsinglright" unicode="&#x203a;" horiz-adv-x="851" 
d="M322 133h-261l488 438l-512 451h264l514 -444z" />
    <glyph glyph-name="fraction" unicode="&#x2044;" horiz-adv-x="892" 
d="M37 0l569 1352h250l-569 -1352h-250z" />
    <glyph glyph-name="Euro" unicode="&#x20ac;" horiz-adv-x="1591" 
d="M1554 518q-49 -241 -229.5 -389.5t-417.5 -148.5q-209 0 -378.5 112.5t-245.5 302.5h-246v230h196v34q0 32 3 62h-197v229h248q76 193 241 307.5t379 114.5q243 0 416.5 -142.5t226.5 -377.5h-258q-42 138 -145 214.5t-240 76.5q-111 0 -201.5 -50.5t-148.5 -142.5h305
v-229h-377q-2 -16 -2 -53q0 -29 2 -43h375v-230h-303q55 -88 144.5 -137t203.5 -49q148 0 253 82t142 227h254z" />
    <glyph glyph-name="trademark" unicode="&#x2122;" horiz-adv-x="1329" 
d="M913 883l-127 155v-354h-165v500h-224v-500h-166v500h-194v168h713l202 -254l211 254h129v-668h-168v360l-137 -161h-74z" />
    <glyph glyph-name="minus" unicode="&#x2212;" horiz-adv-x="882" 
d="M37 426v229h809v-229h-809z" />
    <glyph glyph-name="BeeType" horiz-adv-x="1312" 
d="M317 211q-60 0 -123 24t-110 74t-47 113q0 126 154 232t384 132l19 2q-15 17 -27 46t-12 49q0 49 37 86q10 10 10 14q0 8 -8 16q-16 21 -78 93q-13 17 3 32q17 16 34 -3q2 -2 4 -5q46 -73 61 -100q8 -14 13 -16.5t18 -0.5q28 8 56 0q4 -1 7 -1h4.5t3.5 2l3 3t4 5t4 6
l66 104q8 12 20 10t15.5 -12.5t-3.5 -23.5l-34 -45l-39 -54q-6 -8 6 -20q41 -47 41 -92q0 -37 -37 -97q134 -20 250.5 -73t188 -128t71.5 -153q0 -58 -48.5 -106.5t-111.5 -72.5t-119 -24q-85 0 -167 57.5t-132 149.5l-32 60l-37 -66q-49 -87 -131.5 -152t-180.5 -65z
M90 424q0 -66 75 -113t152 -47q153 0 267 195q3 5 12.5 21.5t17 28.5t17 25.5t18.5 21t17 7.5q14 0 27 -16t30 -47t22 -39q116 -178 252 -178q43 0 95 19t91.5 55t37.5 75q-3 55 -46 105.5t-107 85.5t-139 61.5t-143.5 39.5t-119.5 13q-85 0 -184.5 -23.5t-187 -63
t-146 -100t-58.5 -126.5z" />
    </font>
</defs>
</svg>
