<?xml version="1.0" standalone="no"?>
<!DOCTYPE svg PUBLIC "-//W3C//DTD SVG 1.1//EN" "http://www.w3.org/Graphics/SVG/1.1/DTD/svg11.dtd" >
<svg xmlns="http://www.w3.org/2000/svg" xmlns:xlink="http://www.w3.org/1999/xlink" version="1.1">
<metadata>
Created by FontForge 20201107 at Tue Feb 11 16:23:35 2025
 By 
Copyright (c) 2024 by Webhance. All rights reserved.
</metadata>
<defs>
<font id="Remark-Light" horiz-adv-x="937" >
  <font-face 
    font-family="Remark Light"
    font-weight="300"
    font-stretch="normal"
    units-per-em="2048"
    panose-1="0 0 0 0 0 0 0 0 0 0"
    ascent="1638"
    descent="-410"
    x-height="1032"
    cap-height="1450"
    bbox="-174 -639 2224 1733"
    underline-thickness="102"
    underline-position="-255"
    unicode-range="U+0020-A78C"
  />
<missing-glyph horiz-adv-x="1017" 
 />
    <glyph glyph-name=".notdef" horiz-adv-x="1017" 
 />
    <glyph glyph-name=".null" horiz-adv-x="0" 
 />
    <glyph glyph-name="nonmarkingreturn" horiz-adv-x="682" 
 />
    <glyph glyph-name="space" unicode=" " horiz-adv-x="692" 
 />
    <glyph glyph-name="space" unicode="&#xa0;" horiz-adv-x="692" 
 />
    <glyph glyph-name="exclam" unicode="!" horiz-adv-x="309" 
d="M98 414l-12 897h113l-15 -897h-86zM63 88q0 88 91 88q92 0 92 -88q0 -86 -92 -86q-91 0 -91 86z" />
    <glyph glyph-name="quotedbl" unicode="&#x22;" horiz-adv-x="374" 
d="M252 989v445h84v-117l-27 -328h-57zM96 989v445h84v-117l-26 -328h-58z" />
    <glyph glyph-name="numbersign" unicode="#" horiz-adv-x="940" 
d="M567 -33h-114l112 651h-215l-112 -651h-115l113 651h-162l12 78h164l16 92h-164l15 78h162l102 584h115l-103 -584h215l103 584h114l-102 -584h147l-14 -78h-145l-17 -92h148l-15 -78h-147zM365 696h215l16 92h-215z" />
    <glyph glyph-name="dollar" unicode="$" horiz-adv-x="1193" 
d="M666 -182h-115v155q-229 14 -360.5 136.5t-131.5 341.5h109q-1 -162 100.5 -257.5t282.5 -107.5v604l-154 15q-340 33 -340 342q0 82 31.5 159t90.5 140.5t155.5 103.5t216.5 43v139h115v-145q192 -22 301.5 -136.5t113.5 -314.5h-110q-5 139 -80 227.5t-225 110.5v-575
l94 -11q95 -8 167 -40t114 -81.5t62.5 -110t20.5 -130.5q0 -62 -16 -121.5t-51.5 -116.5t-87.5 -102t-130 -75.5t-173 -37.5v-155zM168 1051q0 -106 63 -162t197 -68l123 -12v571q-174 -6 -278.5 -100t-104.5 -229zM666 86q169 18 257.5 112.5t88.5 221.5q0 108 -67.5 174.5
t-211.5 79.5l-67 6v-594z" />
    <glyph glyph-name="percent" unicode="%" horiz-adv-x="1257" 
d="M250 14h-129l897 1387h129zM68 1135q0 124 81 204t203 80q124 0 206.5 -80t82.5 -204q0 -120 -80.5 -202.5t-208.5 -82.5q-122 0 -203 83.5t-81 201.5zM176 1137q0 -84 49 -134.5t125 -50.5q83 0 132.5 50t49.5 135q0 82 -51.5 131t-130.5 49q-77 0 -125.5 -49
t-48.5 -131zM616 262q0 125 83.5 205t201.5 80q125 0 208 -80.5t83 -204.5q0 -123 -83 -205t-208 -82q-120 0 -202.5 83t-82.5 204zM725 264q0 -85 48.5 -135.5t127.5 -50.5q81 0 131.5 50.5t50.5 135.5q0 81 -51.5 130.5t-130.5 49.5q-78 0 -127 -49.5t-49 -130.5z" />
    <glyph glyph-name="ampersand" unicode="&#x26;" horiz-adv-x="1359" 
d="M518 -14q-201 0 -322 95.5t-130 256.5q-4 72 11.5 131.5t52.5 111t83 93.5t117 94l47 35q-107 113 -153 190t-52 164q-12 132 69.5 213.5t229.5 81.5q87 0 159.5 -33.5t116 -101.5t39.5 -158q-5 -102 -60 -185.5t-196 -187.5l398 -419q80 168 65 421h105
q11 -297 -82 -507q114 -125 278 -228l-49 -73q-172 108 -289 231q-69 -108 -183.5 -166.5t-254.5 -58.5zM514 86q248 0 371 201l-439 450l-43 -32q-90 -68 -138 -116.5t-75.5 -111t-21.5 -137.5q11 -120 101 -187t245 -67zM461 858q118 85 167 152.5t54 146.5q7 83 -56 137
t-153 54q-94 1 -149.5 -52.5t-47.5 -138.5q4 -54 27.5 -102t54.5 -85t103 -112z" />
    <glyph glyph-name="quotesingle" unicode="'" horiz-adv-x="210" 
d="M63 997v445h84v-117l-26 -328h-58z" />
    <glyph glyph-name="parenleft" unicode="(" horiz-adv-x="622" 
d="M508 -317q-143 90 -245.5 244.5t-151 334.5t-48.5 371q0 111 27 233t79.5 244.5t141.5 232.5t201 181l45 -66q-91 -51 -166.5 -147.5t-123 -211t-73.5 -235.5t-26 -231q0 -287 108 -538.5t283 -352.5z" />
    <glyph glyph-name="parenright" unicode=")" horiz-adv-x="622" 
d="M63 -258q116 67 206 207t138 318.5t48 365.5q0 110 -26 231t-73.5 235.5t-123 211t-166.5 147.5l45 66q112 -71 201 -181t141 -232.5t79 -244.5t27 -233q0 -191 -48.5 -370.5t-150.5 -334.5t-245 -245z" />
    <glyph glyph-name="asterisk" unicode="*" horiz-adv-x="983" 
d="M793 1405l61 -62l-242 -239h308v-86h-283l217 -217l-61 -62l-258 258v-364h-86v307l-199 -201l-62 62l218 217h-343v86h367l-242 239l62 62l199 -201v285h86v-342z" />
    <glyph glyph-name="plus" unicode="+" horiz-adv-x="983" 
d="M449 930h86v-385h385v-86h-385v-385h-86v385h-386v86h386v385z" />
    <glyph glyph-name="comma" unicode="," horiz-adv-x="305" 
d="M63 -186q80 121 80 235v146h97v-125q0 -74 -30 -152t-77 -135z" />
    <glyph glyph-name="hyphen" unicode="-" horiz-adv-x="671" 
d="M63 459v104h543v-104h-543z" />
    <glyph glyph-name="period" unicode="." horiz-adv-x="315" 
d="M63 88q0 44 29.5 68.5t65 24.5t65 -24.5t29.5 -68.5q0 -56 -47 -79t-94.5 0t-47.5 79z" />
    <glyph glyph-name="slash" unicode="/" horiz-adv-x="915" 
d="M176 -317h-113l676 1849h113z" />
    <glyph glyph-name="zero" unicode="0" horiz-adv-x="1085" 
d="M543 -25q-236 0 -360.5 189t-123.5 549q0 364 123.5 551.5t360.5 187.5q238 0 360.5 -187t122.5 -548q0 -364 -123.5 -553t-359.5 -189zM168 717q0 -326 92.5 -479.5t282.5 -153.5t281 153t91 480q0 326 -91 477.5t-281 151.5t-282 -153t-93 -476z" />
    <glyph glyph-name="one" unicode="1" horiz-adv-x="530" 
d="M362 -25v1332l-303 -197v121l332 221h80v-1477h-109z" />
    <glyph glyph-name="two" unicode="2" horiz-adv-x="1036" 
d="M76 53q296 307 465 516q160 200 213 308.5t53 193.5q0 134 -81.5 205.5t-238.5 71.5q-150 0 -232 -69.5t-85 -195.5h-111q4 183 115.5 276t312.5 93q208 0 319.5 -95.5t111.5 -275.5q0 -107 -61.5 -235.5t-235.5 -339.5q-131 -160 -394 -432h750v-103h-901v82z" />
    <glyph glyph-name="three" unicode="3" horiz-adv-x="1034" 
d="M518 -25q-222 0 -341.5 109t-117.5 297h109q2 -140 90.5 -220.5t259.5 -80.5q170 0 259 81t89 222q0 291 -368 291h-189v104h185q157 0 246 80.5t89 224.5q0 123 -81.5 194t-233.5 71q-155 0 -235 -74.5t-82 -190.5h-111q3 183 114 276t314 93q201 0 313 -93.5
t113 -271.5q0 -119 -63.5 -213t-161.5 -139q126 -41 193.5 -133t66.5 -221q0 -190 -120.5 -298t-336.5 -108z" />
    <glyph glyph-name="four" unicode="4" horiz-adv-x="1124" 
d="M733 -25v369h-674v94l693 1014h88v-1008h225v-100h-225v-369h-107zM733 444v803l-549 -803h549z" />
    <glyph glyph-name="five" unicode="5" horiz-adv-x="1005" 
d="M485 -25q-147 0 -250.5 57t-154.5 156l96 58q40 -76 119.5 -121t189.5 -45q164 0 257.5 93t95.5 243q2 157 -90.5 253.5t-247.5 96.5q-225 0 -338 -180l-103 8l78 858h729v-102h-639l-55 -613q55 63 144.5 99t189.5 36q208 0 325 -121.5t115 -328.5q0 -205 -123.5 -326
t-337.5 -121z" />
    <glyph glyph-name="six" unicode="6" horiz-adv-x="1081" 
d="M571 -25q-248 0 -380 177t-132 503q0 312 78 490q67 151 188.5 229t286.5 78q113 0 224 -54t178 -143l-66 -63q-148 154 -338 154q-127 2 -228.5 -62.5t-156.5 -196.5q-38 -90 -51.5 -227.5t4.5 -290.5q24 140 132.5 220.5t260.5 80.5q203 0 327 -122.5t124 -323.5
q0 -198 -126 -323.5t-325 -125.5zM217 422q0 -156 97 -248t249 -92q151 0 249.5 92.5t98.5 247.5q0 156 -99 249t-249 93q-149 0 -247.5 -93t-98.5 -249z" />
    <glyph glyph-name="seven" unicode="7" horiz-adv-x="1026" 
d="M276 -25l566 1375h-779l-4 102h904l4 -74l-572 -1403h-119z" />
    <glyph glyph-name="eight" unicode="8" horiz-adv-x="1103" 
d="M551 -25q-237 0 -364.5 104.5t-127.5 293.5q0 136 70.5 228.5t196.5 123.5q-113 42 -174.5 133.5t-61.5 206.5q0 184 122.5 285.5t338.5 101.5q218 0 340.5 -101.5t122.5 -285.5q0 -115 -62.5 -204.5t-167.5 -131.5q121 -36 190.5 -130t69.5 -226q0 -189 -127 -293.5
t-366 -104.5zM551 74q389 0 389 301q0 303 -389 303q-195 0 -291 -75t-96 -228q0 -301 387 -301zM551 772q167 0 260.5 76.5t93.5 216.5q0 136 -92.5 210.5t-261.5 76.5q-165 2 -258.5 -74.5t-93.5 -212.5q0 -140 92.5 -216.5t259.5 -76.5z" />
    <glyph glyph-name="nine" unicode="9" horiz-adv-x="1081" 
d="M510 1452q249 0 380.5 -177t131.5 -503q0 -311 -78 -489q-67 -152 -188 -230t-287 -78q-113 0 -222.5 54t-178.5 143l65 64q148 -154 338 -154q128 -2 229 62t156 196q38 90 51.5 227.5t-2.5 290.5q-26 -140 -134 -220.5t-261 -80.5q-203 0 -327 123t-124 324
q0 198 126 323t325 125zM866 1006q0 155 -98 247.5t-250 92.5q-151 0 -248.5 -92.5t-97.5 -247.5q0 -156 98 -249t248 -93t249 93t99 249z" />
    <glyph glyph-name="colon" unicode=":" horiz-adv-x="315" 
d="M80 88q0 44 29.5 68.5t64.5 24.5t64.5 -24.5t29.5 -68.5q0 -56 -47 -79t-94 0t-47 79zM80 717q0 44 29.5 68.5t64.5 24.5t64.5 -24.5t29.5 -68.5q0 -56 -47 -79t-94 0t-47 79z" />
    <glyph glyph-name="semicolon" unicode=";" horiz-adv-x="315" 
d="M63 717q0 44 29.5 68.5t65 24.5t65 -24.5t29.5 -68.5q0 -56 -47 -79t-94.5 0t-47.5 79zM63 -186q80 121 80 235v146h97v-125q0 -74 -30 -152t-77 -135z" />
    <glyph glyph-name="less" unicode="&#x3c;" horiz-adv-x="874" 
d="M57 643v88l754 365v-92l-664 -308v-16l664 -307v-94z" />
    <glyph glyph-name="equal" unicode="=" horiz-adv-x="839" 
d="M774 709h-711v96h711v-96zM774 500h-711v96h711v-96z" />
    <glyph glyph-name="greater" unicode="&#x3e;" horiz-adv-x="880" 
d="M817 643l-754 -364v94l664 307v16l-664 308v92l754 -365v-88z" />
    <glyph glyph-name="question" unicode="?" horiz-adv-x="958" 
d="M535 471v-121h-97v121q0 80 36 144.5t122 136.5q55 48 86 79.5t61 73.5t43 88t13 103q0 311 -312 311q-154 0 -240.5 -71t-86.5 -179h-97q0 160 120 253t304 93q85 0 157.5 -23.5t130 -71t90 -127.5t32.5 -185q0 -71 -16.5 -129.5t-53.5 -109t-73 -86.5t-97 -87
q-70 -60 -96 -107t-26 -106zM406 86q0 44 29.5 68.5t64.5 24.5t64.5 -24.5t29.5 -68.5q0 -41 -29.5 -65t-64.5 -24t-64.5 24t-29.5 65z" />
    <glyph glyph-name="at" unicode="@" horiz-adv-x="1376" 
d="M457 487q-7 -95 46.5 -155t139.5 -60q94 0 152.5 58.5t64.5 158.5q6 99 -45.5 157.5t-144.5 58.5q-87 0 -147 -60.5t-66 -157.5zM66 487q11 178 105 324t245 228.5t327 82.5q271 0 427 -174t139 -456q-10 -178 -110 -289q-76 -85 -162 -85q-88 0 -132 95q-26 54 -31 133
q-22 -59 -89 -100t-142 -41q-119 0 -190.5 79t-65.5 203q7 123 89.5 203t201.5 80q87 0 142 -43t67 -111q-3 85 16 162l68 -8q-69 -423 9 -540q42 -62 110 -16q64 44 106 148q27 68 31 136q17 251 -117 400t-371 149q-247 0 -409.5 -158t-177.5 -406q-12 -161 55 -288
q63 -128 179 -197.5t267 -69.5q197 0 330 99l45 -52q-157 -120 -377 -120q-129 0 -241 47.5t-190 130t-119.5 200.5t-34.5 254z" />
    <glyph glyph-name="A" unicode="A" horiz-adv-x="1429" 
d="M59 -25l623 1475h66l622 -1475h-119l-147 351h-778l-148 -351h-119zM373 430h686l-344 815z" />
    <glyph glyph-name="B" unicode="B" horiz-adv-x="1167" 
d="M59 -25v1475h609q177 0 281 -98t104 -262q0 -108 -40.5 -196t-131.5 -134v-2q227 -101 227 -379q0 -196 -115.5 -300t-314.5 -104h-619zM668 88q164 0 246.5 77.5t82.5 223.5q0 138 -81 217.5t-216 79.5h-530v-598h498zM692 799q122 0 186 74.5t64 197.5t-77 194.5
t-226 71.5h-469v-538h522z" />
    <glyph glyph-name="C" unicode="C" horiz-adv-x="1427" 
d="M719 -47q-136 0 -256 53.5t-210 150t-142 240.5t-52 316t52.5 316.5t142 241t209.5 150.5t256 54q246 0 423.5 -163t221.5 -433h-111q-41 224 -187.5 352.5t-346.5 128.5q-112 0 -211 -44t-174.5 -125t-119.5 -204.5t-44 -273.5q0 -147 43 -269.5t117 -204.5
t174.5 -127.5t214.5 -45.5q209 0 357 138.5t181 373.5h111q-39 -289 -218.5 -457t-430.5 -168z" />
    <glyph glyph-name="D" unicode="D" horiz-adv-x="1300" 
d="M59 -25v1475h523q187 0 337 -92t236 -261t86 -384q0 -336 -175 -537t-480 -201h-527zM586 90q265 0 406 166t141 457q0 140 -41.5 257t-115 196.5t-175 124t-219.5 44.5h-412v-1245h416z" />
    <glyph glyph-name="E" unicode="E" horiz-adv-x="1067" 
d="M59 -25v1475h934v-115h-823v-540h764v-113h-764v-592h838v-115h-949z" />
    <glyph glyph-name="F" unicode="F" horiz-adv-x="1030" 
d="M59 -25v1475h912v-115h-801v-590h723v-114h-723v-656h-111z" />
    <glyph glyph-name="G" unicode="G" horiz-adv-x="1427" 
d="M719 -45q-135 0 -255.5 54t-210 150.5t-142 240.5t-52.5 315q0 172 52.5 316.5t142 241t209.5 150.5t256 54q247 0 424 -161.5t221 -434.5h-111q-27 150 -104 260t-187.5 165.5t-242.5 55.5q-111 0 -210 -44t-175 -124.5t-120 -204.5t-44 -274t44 -273t119.5 -203.5
t174.5 -124.5t211 -44q199 0 343.5 124t186.5 338v31h-643v115h762v-703h-115v336q-71 -167 -215.5 -261.5t-318.5 -94.5z" />
    <glyph glyph-name="H" unicode="H" horiz-adv-x="1314" 
d="M59 -25v1475h111v-725h975v725h110v-1475h-110v635h-975v-635h-111z" />
    <glyph glyph-name="I" unicode="I" horiz-adv-x="229" 
d="M59 -25v1475h111v-1475h-111z" />
    <glyph glyph-name="J" unicode="J" horiz-adv-x="1021" 
d="M485 -45q-103 0 -186 31.5t-134.5 84.5t-78.5 119.5t-27 141.5v84h111v-72q0 -122 81 -198t234 -76q369 0 369 424v956h109v-956q0 -253 -121.5 -396t-356.5 -143z" />
    <glyph glyph-name="K" unicode="K" horiz-adv-x="1234" 
d="M59 -25v1475h111v-860l49 53l774 807h154l-637 -666l666 -809h-146l-598 727l-262 -272v-455h-111z" />
    <glyph glyph-name="L" unicode="L" 
d="M59 -25v1475h111v-1360h709v-115h-820z" />
    <glyph glyph-name="M" unicode="M" horiz-adv-x="1486" 
d="M59 -25v1475h109l575 -1020l576 1020h108v-1475h-108v1258l-27 -47l-508 -912h-82l-507 912l-25 45v-1256h-111z" />
    <glyph glyph-name="N" unicode="N" horiz-adv-x="1314" 
d="M59 -25v1475h113l973 -1260v1260h110v-1475h-79l-1006 1295v-1295h-111z" />
    <glyph glyph-name="O" unicode="O" horiz-adv-x="1437" 
d="M719 -45q-135 0 -255.5 54t-210 150.5t-142 240.5t-52.5 315q0 172 52.5 316.5t142 241t209.5 150.5t256 54q135 0 255.5 -54t210 -150.5t141.5 -241t52 -316.5q0 -171 -51.5 -315t-140.5 -241t-209.5 -150.5t-257.5 -53.5zM719 70q115 0 214.5 43.5t174 124.5t117.5 204
t43 273q0 151 -43 274.5t-117.5 204t-174 124.5t-214.5 44t-214.5 -44t-174 -124.5t-117.5 -204t-43 -274.5q0 -150 43 -273t117.5 -204t174 -124.5t214.5 -43.5z" />
    <glyph glyph-name="P" unicode="P" horiz-adv-x="1122" 
d="M59 -25v1475h512q105 0 195.5 -36t156 -102t103 -165t37.5 -219q0 -238 -139.5 -377t-352.5 -139h-401v-437h-111zM571 524q174 0 278.5 107.5t104.5 296.5q0 191 -104.5 299t-278.5 108h-401v-811h401z" />
    <glyph glyph-name="Q" unicode="Q" horiz-adv-x="1458" 
d="M1073 66q-154 -111 -354 -111q-135 0 -255.5 54t-210 150.5t-142 240.5t-52.5 315q0 172 52.5 316.5t142 241t209.5 150.5t256 54q135 0 255.5 -54t210 -150.5t141.5 -241t52 -316.5q0 -181 -57 -328t-160 -248l219 -327h-135zM719 70q115 0 214.5 43.5t174 124.5
t117.5 204t43 273q0 151 -43 274.5t-117.5 204t-174 124.5t-214.5 44t-214.5 -44t-174 -124.5t-117.5 -204t-43 -274.5q0 -150 43 -273t117.5 -204t174 -124.5t214.5 -43.5z" />
    <glyph glyph-name="R" unicode="R" horiz-adv-x="1183" 
d="M59 -25v1475h537q225 0 357 -129t130 -340q0 -112 -36.5 -200t-119.5 -150.5t-206 -81.5l403 -574h-139l-387 551h-428v-551h-111zM590 641q199 0 290 86t91 254q0 166 -100.5 260t-276.5 94h-424v-694h420z" />
    <glyph glyph-name="S" unicode="S" horiz-adv-x="1185" 
d="M610 -45q-254 0 -401.5 123t-147.5 356h109q-1 -172 114.5 -269t319.5 -97q102 0 182.5 28t129 75.5t73.5 106.5t25 125q0 108 -67.5 174.5t-211.5 79.5l-336 31q-340 33 -340 342q0 83 32.5 161.5t93.5 143t161.5 103.5t224.5 39q235 0 371.5 -116.5t140.5 -340.5h-110
q-6 161 -105 252.5t-297 91.5q-181 0 -291 -96t-110 -234q0 -106 62.5 -161.5t197.5 -67.5l332 -33q95 -8 167 -40t114 -81.5t62.5 -110t20.5 -130.5q0 -83 -29.5 -161t-89 -145t-162.5 -108t-235 -41z" />
    <glyph glyph-name="T" unicode="T" horiz-adv-x="1298" 
d="M594 -25v1362h-535v113h1180v-113h-534v-1362h-111z" />
    <glyph glyph-name="U" unicode="U" horiz-adv-x="1294" 
d="M647 -29q-271 0 -429.5 182.5t-158.5 528.5v768h111v-768q0 -303 125.5 -450.5t351.5 -147.5q231 0 355 147t124 451v768h109v-768q0 -347 -157 -529t-431 -182z" />
    <glyph glyph-name="V" unicode="V" horiz-adv-x="1382" 
d="M664 -25l-605 1475h119l512 -1264l512 1264h121l-606 -1475h-53z" />
    <glyph glyph-name="W" unicode="W" horiz-adv-x="2162" 
d="M608 -25l-549 1475h119l455 -1235l409 1235h78l410 -1235l455 1235h118l-549 -1475h-53l-418 1260l-419 -1260h-56z" />
    <glyph glyph-name="X" unicode="X" horiz-adv-x="1310" 
d="M59 -23l527 752l-482 721h138l415 -619l412 619h139l-483 -725l526 -748h-137l-461 658l-456 -658h-138z" />
    <glyph glyph-name="Y" unicode="Y" horiz-adv-x="1263" 
d="M578 -25v631l-519 844h134l440 -727l438 727h133l-516 -844v-631h-110z" />
    <glyph glyph-name="Z" unicode="Z" horiz-adv-x="1177" 
d="M59 -25v97l908 1265h-908v113h1059v-96l-907 -1264h907v-115h-1059z" />
    <glyph glyph-name="bracketleft" unicode="[" horiz-adv-x="444" 
d="M63 -319v1861h318v-74h-211v-1712h211v-75h-318z" />
    <glyph glyph-name="backslash" unicode="\" horiz-adv-x="915" 
d="M739 -317l-676 1849h113l676 -1849h-113z" />
    <glyph glyph-name="bracketright" unicode="]" horiz-adv-x="444" 
d="M381 -319h-318v75h211v1712h-211v74h318v-1861z" />
    <glyph glyph-name="asciicircum" unicode="^" horiz-adv-x="782" 
d="M719 954h-107l-221 238l-223 -238h-105l293 306h68z" />
    <glyph glyph-name="underscore" unicode="_" horiz-adv-x="851" 
d="M63 96v-96h723v96h-723z" />
    <glyph glyph-name="grave" unicode="`" horiz-adv-x="229" 
d="M229 1108h-86l-143 203h88z" />
    <glyph glyph-name="a" unicode="a" horiz-adv-x="950" 
d="M383 -25q-150 0 -237 83t-87 206t84 201t244 78h395v59q0 70 -16.5 127t-51.5 102t-96.5 70t-146.5 25q-131 0 -200 -61.5t-74 -168.5h-109q3 169 113 258q101 78 268 78q180 0 289 -88q133 -116 133 -358v-611h-109v213q-75 -107 -182.5 -160t-216.5 -53zM391 78
q119 0 219 65t170 189v108h-385q-120 0 -172.5 -52.5t-52.5 -125.5q0 -80 60 -132t161 -52z" />
    <glyph glyph-name="b" unicode="b" horiz-adv-x="985" 
d="M59 1450h109v-643q124 221 334 221q86 0 162 -35.5t135 -101.5t93 -167.5t34 -225.5q0 -230 -115 -378.5t-299 -148.5q-101 0 -194.5 61t-149.5 142v-197h-109v1473zM168 369q43 -126 133.5 -205.5t208.5 -79.5q134 0 220.5 114t86.5 300q0 188 -92.5 302.5t-228.5 114.5
q-108 0 -184 -64t-144 -196v-286z" />
    <glyph glyph-name="c" unicode="c" horiz-adv-x="1026" 
d="M516 -25q-91 0 -173 36t-145.5 101.5t-101 167t-37.5 224.5t37.5 224.5t101 167t145.5 101t173 35.5q169 0 295 -113t156 -311h-109q-28 151 -122.5 231.5t-219.5 80.5q-146 0 -247 -110.5t-101 -305.5t101 -305.5t247 -110.5q94 0 174.5 49t128.5 144h115
q-50 -149 -166.5 -227.5t-251.5 -78.5z" />
    <glyph glyph-name="d" unicode="d" horiz-adv-x="985" 
d="M473 -31q-184 0 -299 149.5t-115 377.5q0 124 34 225.5t93 167.5t135 101.5t162 35.5q210 0 334 -219v643h109v-1475h-109v195q-56 -81 -149.5 -141t-194.5 -60zM477 82q118 0 207.5 79.5t132.5 205.5v286q-66 131 -143 195.5t-185 64.5q-136 0 -228.5 -114.5
t-92.5 -302.5q0 -185 87 -299.5t222 -114.5z" />
    <glyph glyph-name="e" unicode="e" horiz-adv-x="1017" 
d="M537 -25q-205 0 -341.5 149.5t-136.5 379.5q0 84 20.5 162t60 144.5t94.5 116t129 77.5t157 28q134 0 236 -66t154 -178t48 -249l-2 -74h-786q6 -172 112.5 -274.5t254.5 -102.5q175 0 294 154l97 -41q-59 -99 -162 -162.5t-229 -63.5zM850 559q-3 159 -91 260t-239 101
q-140 0 -237.5 -98.5t-114.5 -262.5h682z" />
    <glyph glyph-name="f" unicode="f" horiz-adv-x="739" 
d="M205 -25v955h-146v102h146v209q0 189 77 297.5t228 108.5q91 0 170 -52l-49 -98q-61 37 -121 37q-99 -1 -148 -77.5t-49 -215.5v-209h326v-102h-326v-955h-108z" />
    <glyph glyph-name="g" unicode="g" horiz-adv-x="972" 
d="M465 -639q-179 0 -291.5 104t-112.5 254q0 173 129 285v2q-51 25 -82.5 76.5t-31.5 114.5q0 118 82 194q-82 111 -82 254q0 165 101 276t259 111q167 0 269 -121h2q67 121 206 121v-102q-43 0 -86.5 -24.5t-68.5 -80.5q39 -83 39 -180q0 -167 -101 -278t-260 -111
q-109 0 -200 72q-49 -57 -54 -123q-4 -65 39 -101t117 -36h219q162 0 249 -91.5t87 -236.5q0 -70 -26.5 -135.5t-76 -121t-132 -89t-185.5 -33.5h-8zM492 -526q134 0 213 78.5t79 185.5q0 92 -54.5 154.5t-168.5 62.5h-233l-33 2q-49 -33 -87 -95.5t-38 -142.5
q0 -104 79 -174.5t197 -70.5h46zM436 369q113 0 182.5 79t69.5 197q0 117 -69.5 196t-182.5 79t-182.5 -79t-69.5 -196q0 -118 69.5 -197t182.5 -79z" />
    <glyph glyph-name="h" unicode="h" 
d="M59 -25v1463h109v-639q48 86 148.5 159.5t209.5 73.5q166 0 259.5 -113.5t93.5 -287.5v-656h-109v656q0 132 -70 210.5t-184 78.5q-117 0 -209 -84t-139 -213v-648h-109z" />
    <glyph glyph-name="i" unicode="i" horiz-adv-x="249" 
d="M68 -25v1057h108v-1057h-108zM125 1321q-27 0 -46.5 19t-19.5 46q0 26 20 45t46 19t45.5 -19t19.5 -45q0 -27 -19 -46t-46 -19z" />
    <glyph glyph-name="j" unicode="j" horiz-adv-x="446" 
d="M78 -430q-158 -3 -252 127l88 53q60 -79 156 -76q81 2 135.5 55.5t54.5 145.5v1157h109v-1157q0 -140 -85.5 -221.5t-205.5 -83.5zM315 1315q-26 0 -45.5 19.5t-19.5 47.5q0 25 19.5 44.5t45.5 19.5t46 -19.5t20 -44.5q0 -28 -19.5 -47.5t-46.5 -19.5z" />
    <glyph glyph-name="k" unicode="k" horiz-adv-x="974" 
d="M59 -25v1475h109v-1065l577 647h150l-410 -457l426 -600h-135l-366 517l-242 -269v-248h-109z" />
    <glyph glyph-name="l" unicode="l" horiz-adv-x="227" 
d="M59 -25v1475h109v-1475h-109z" />
    <glyph glyph-name="m" unicode="m" horiz-adv-x="1402" 
d="M59 -25v1057h109v-205q41 82 127 143t184 62q97 1 159.5 -51.5t90.5 -144.5q58 89 142 142.5t180 53.5q145 0 218.5 -106t73.5 -295v-656h-108v670q0 135 -52 206t-141 71q-92 0 -167 -65.5t-123 -180.5v-701h-103v666q0 134 -52.5 205.5t-141.5 71.5q-87 0 -162 -65.5
t-125 -180.5v-697h-109z" />
    <glyph glyph-name="n" unicode="n" 
d="M59 -25v1057h109v-229q49 84 149.5 156.5t208.5 72.5q166 0 259.5 -113.5t93.5 -287.5v-656h-109v656q0 132 -70 210.5t-184 78.5q-115 0 -204.5 -78.5t-143.5 -202.5v-664h-109z" />
    <glyph glyph-name="o" unicode="o" horiz-adv-x="1034" 
d="M516 -25q-91 0 -173 36t-145.5 101.5t-101 167t-37.5 224.5t37.5 224.5t101 167t145.5 101t173 35.5t173.5 -35.5t146.5 -101t101.5 -167t37.5 -224.5t-38 -224.5t-102 -167t-146 -101.5t-173 -36zM516 88q147 0 247.5 110t100.5 306t-100.5 306t-247.5 110
q-146 0 -247 -110.5t-101 -305.5t101 -305.5t247 -110.5z" />
    <glyph glyph-name="p" unicode="p" horiz-adv-x="985" 
d="M59 -430v1462h109v-203q56 81 149.5 142t194.5 61q184 0 299 -149t115 -377q0 -245 -123 -388t-301 -143q-209 0 -334 220v-625h-109zM496 88q136 0 228.5 114.5t92.5 303.5q0 185 -86.5 299.5t-220.5 114.5q-118 0 -208.5 -79.5t-133.5 -205.5v-287q68 -132 144 -196
t184 -64z" />
    <glyph glyph-name="q" unicode="q" horiz-adv-x="985" 
d="M817 195q-125 -220 -334 -220q-178 0 -301 143t-123 388q0 228 115 377t299 149q101 0 194.5 -60t149.5 -141v201h109v-1462h-109v625zM489 88q108 0 185 64.5t143 195.5v287q-43 126 -132.5 205.5t-207.5 79.5q-135 0 -222 -114.5t-87 -299.5q0 -189 92.5 -303.5
t228.5 -114.5z" />
    <glyph glyph-name="r" unicode="r" horiz-adv-x="835" 
d="M59 -25v1057h109v-209q18 38 65 85t120 85.5t141 38.5q136 0 209 -90.5t73 -245.5v-73h-102v75q0 99 -50 160.5t-141 61.5q-104 0 -187.5 -79t-127.5 -200v-666h-109z" />
    <glyph glyph-name="s" unicode="s" horiz-adv-x="899" 
d="M461 -25q-185 0 -291.5 89t-106.5 251h109q0 -108 71 -170.5t222 -62.5q128 0 196 58.5t68 140.5q0 72 -43.5 114.5t-153.5 55.5l-221 24q-130 14 -191 78.5t-61 167.5q0 126 101.5 218.5t267.5 92.5q179 0 275 -83.5t96 -237.5l-105 2q0 101 -65.5 157t-200.5 56
q-125 0 -192.5 -60t-67.5 -137q0 -62 41.5 -97.5t134.5 -45.5l201 -25q68 -7 119.5 -24.5t84.5 -42t53.5 -58.5t28.5 -70t9 -81q0 -126 -100 -218t-279 -92z" />
    <glyph glyph-name="t" unicode="t" horiz-adv-x="702" 
d="M207 -25v955h-148v102h148v418h108v-418h328v-102h-328v-955h-108z" />
    <glyph glyph-name="u" unicode="u" 
d="M414 -25q-166 0 -260.5 114t-94.5 288v655h109v-655q0 -131 71 -210t185 -79q114 1 203.5 79.5t142.5 201.5v663h109v-1057h-109v228q-51 -84 -150 -156t-206 -72z" />
    <glyph glyph-name="v" unicode="v" horiz-adv-x="1015" 
d="M479 -25l-420 1057h119l328 -842l332 842h118l-424 -1057h-53z" />
    <glyph glyph-name="w" unicode="w" horiz-adv-x="1452" 
d="M410 -25l-351 1057h115l264 -809l260 809h58l260 -809l262 809h115l-346 -1057h-60l-260 811l-260 -811h-57z" />
    <glyph glyph-name="x" unicode="x" horiz-adv-x="1011" 
d="M59 -25l379 543l-366 514h135l301 -424l295 424h135l-363 -518l377 -539h-135l-309 443l-311 -443h-138z" />
    <glyph glyph-name="y" unicode="y" horiz-adv-x="1034" 
d="M350 -408l154 437l-445 1003h119l350 -790l29 -66l303 856h115l-508 -1440h-117z" />
    <glyph glyph-name="z" unicode="z" horiz-adv-x="858" 
d="M59 -25v86l586 859h-577v112h729v-84l-588 -862l590 2v-113h-740z" />
    <glyph glyph-name="braceleft" unicode="{" horiz-adv-x="667" 
d="M575 -317q-162 61 -232.5 164t-70.5 270v188q0 115 -48.5 179t-160.5 118q112 56 160.5 120t48.5 179v199q0 166 71.5 267.5t231.5 154.5l27 -68q-118 -38 -172.5 -120t-54.5 -234v-199q0 -107 -35.5 -170t-120.5 -129q86 -59 121 -123t35 -174v-188q0 -159 55 -244
t172 -121z" />
    <glyph glyph-name="bar" unicode="|" horiz-adv-x="241" 
d="M178 -279h-115v1815h115v-1815z" />
    <glyph glyph-name="braceright" unicode="}" horiz-adv-x="667" 
d="M66 -248q117 36 172 121t55 244v188q0 110 35 174t121 123q-85 66 -120.5 129t-35.5 170v199q0 152 -54.5 234t-172.5 120l26 68q160 -53 231.5 -154.5t71.5 -267.5v-199q0 -115 48.5 -179t160.5 -120q-112 -54 -160.5 -118t-48.5 -179v-188q0 -167 -70.5 -270
t-232.5 -164z" />
    <glyph glyph-name="exclamdown" unicode="&#xa1;" horiz-adv-x="309" 
d="M98 637h86l15 -897h-113zM63 963q0 86 91 86q92 0 92 -86q0 -89 -92 -89q-91 0 -91 89z" />
    <glyph glyph-name="cent" unicode="&#xa2;" horiz-adv-x="1040" 
d="M588 -35h-109v217q-85 7 -160.5 45.5t-133.5 104.5t-92 163.5t-34 213.5t34 213.5t92 163t133.5 104t160.5 45.5v203h109v-207q144 -23 248 -132.5t131 -285.5h-109q-24 127 -96.5 204.5t-173.5 98.5v-815q72 14 132 60.5t99 123.5h115q-42 -129 -136 -205t-210 -94v-221
zM168 709q0 -182 89 -291t222 -123v827q-134 -14 -222.5 -122.5t-88.5 -290.5z" />
    <glyph glyph-name="sterling" unicode="&#xa3;" horiz-adv-x="1230" 
d="M750 1466q103 0 186 -31t134.5 -84t78.5 -120t27 -141v-84h-111v71q0 122 -81 198.5t-234 76.5q-369 0 -369 -424v-402h233v-104h-233v-395h729v-105h-838v500h-200v104h200v402q0 253 121.5 395.5t356.5 142.5z" />
    <glyph glyph-name="yen" unicode="&#xa5;" horiz-adv-x="1263" 
d="M578 -25v369h-302v96h302v113h-302v96h275l-492 801h134l440 -727l438 727h133l-489 -801h272v-96h-299v-113h299v-96h-299v-369h-110z" />
    <glyph glyph-name="section" unicode="&#xa7;" horiz-adv-x="874" 
d="M655 698q-51 51 -233 107q-3 1 -29 8q-96 -13 -162.5 -64.5t-66.5 -125.5q0 -91 61 -146q57 -51 221 -98q111 5 186 54t75 124q0 89 -52 141zM63 616q0 90 57 154.5t156 83.5h-8q-74 38 -111.5 97t-37.5 157q0 129 88.5 211t249.5 82q110 0 201.5 -48t144.5 -126l-74 -60
q-119 133 -280 133q-106 0 -167 -51.5t-61 -134.5q0 -53 20 -91.5t67.5 -65.5t81.5 -40t106 -35q11 -3 16 -5q157 -45 221 -111q74 -77 74 -199q0 -74 -53 -141t-146 -98q70 -38 107 -97t37 -155q0 -133 -91.5 -212t-248.5 -79q-111 0 -198.5 41.5t-139.5 116.5l69 65
q112 -127 277 -127q106 0 167.5 52.5t61.5 134.5q0 44 -17.5 79.5t-37.5 56.5t-66 42.5t-70 29.5t-84 26q-11 3 -16 5q-139 35 -211 99q-84 77 -84 210z" />
    <glyph glyph-name="dieresis" unicode="&#xa8;" horiz-adv-x="327" 
d="M80 1124q-32 0 -56 24t-24 56q0 34 24 58t56 24q34 0 58 -24t24 -58q0 -32 -24 -56t-58 -24zM246 1124q-32 0 -56 24t-24 56q0 34 24 58t56 24q34 0 58 -24t24 -58q0 -32 -24 -56t-58 -24z" />
    <glyph glyph-name="copyright" unicode="&#xa9;" horiz-adv-x="1552" 
d="M776 -20q-151 0 -283 54t-226.5 148.5t-149 229t-54.5 288.5q0 204 89 367t252 256.5t370 93.5q210 0 373.5 -95t251.5 -258.5t88 -365.5q0 -204 -90 -368t-252.5 -257t-368.5 -93zM774 59q186 0 329.5 85t219.5 230.5t76 325.5q0 183 -78.5 328t-221.5 227t-325 82
q-188 0 -330.5 -85.5t-216 -229t-73.5 -322.5q0 -183 78.5 -329t220 -229t321.5 -83zM1079 446q-106 -112 -272 -112q-160 0 -267.5 103t-107.5 255t105 254.5t268 102.5q82 0 154 -30t120 -83l-47 -45q-96 96 -227 96q-136 0 -219.5 -82.5t-83.5 -212.5q0 -127 85 -211
t218 -84q134 0 231 97z" />
    <glyph glyph-name="ordfeminine" unicode="&#xaa;" horiz-adv-x="524" 
d="M213 911q-74 0 -117 41.5t-43 102.5q0 60 41 98.5t121 38.5h195v29q0 72 -36.5 115.5t-117.5 43.5q-64 0 -98 -29.5t-37 -82.5h-53q0 82 55 127q50 39 133 39q90 0 141 -45q66 -55 66 -177v-301h-53v105q-36 -52 -89.5 -78.5t-107.5 -26.5zM217 963q122 0 193 124v54
h-191q-59 0 -84.5 -26t-25.5 -62q0 -39 29 -64.5t79 -25.5z" />
    <glyph glyph-name="guillemotleft" unicode="&#xab;" horiz-adv-x="870" 
d="M340 156l-268 362l268 361h125l-268 -361l270 -362h-127zM680 156l-268 362l268 361h125l-268 -361l270 -362h-127z" />
    <glyph glyph-name="registered" unicode="&#xae;" horiz-adv-x="1026" 
d="M514 528q-195 0 -323 128t-128 329q0 195 125 323t322 128q199 0 326 -129t127 -324t-126.5 -325t-322.5 -130zM510 608q166 0 267.5 105.5t101.5 271.5q0 164 -101.5 267.5t-267.5 103.5q-163 0 -264 -103.5t-101 -267.5q0 -167 103.5 -272t261.5 -105zM403 743h-51v476
h197q70 0 115 -40t45 -104q0 -61 -40.5 -98.5t-119.5 -38.5l176 -195h-68l-170 191h-84v-191zM547 979q52 0 82 26t30 70q0 46 -30 72.5t-82 26.5h-144v-195h144z" />
    <glyph glyph-name="macron" unicode="&#xaf;" horiz-adv-x="395" 
d="M0 1247h395v-80h-395v80z" />
    <glyph glyph-name="degree" unicode="&#xb0;" horiz-adv-x="739" 
d="M369 803q-132 0 -219 86.5t-87 218.5q0 136 88.5 222.5t217.5 86.5q133 0 219 -87t86 -222q0 -128 -85.5 -216.5t-219.5 -88.5zM371 899q89 0 145.5 60t56.5 153q0 92 -56.5 151.5t-145.5 59.5t-147 -59.5t-58 -151.5t58 -152.5t147 -60.5z" />
    <glyph glyph-name="uni00B2" unicode="&#xb2;" horiz-adv-x="499" 
d="M37 942q140 146 223 248q78 96 103.5 148t25.5 94q0 65 -39 99t-114 34q-73 0 -112.5 -33.5t-41.5 -93.5h-53q1 88 55 132t152 44q100 0 153 -45.5t53 -132.5q0 -52 -29.5 -114t-113.5 -163q-59 -72 -190 -209h362v-49h-434v41z" />
    <glyph glyph-name="uni00B3" unicode="&#xb3;" horiz-adv-x="503" 
d="M252 901q-107 0 -165 53.5t-58 145.5h53q0 -69 43.5 -108.5t126.5 -39.5t126.5 39.5t43.5 108.5q0 141 -180 141h-90v51h90q75 0 118 40t43 110q0 60 -39.5 94.5t-113.5 34.5q-75 0 -114.5 -36t-39.5 -93h-55q1 89 55.5 134.5t153.5 45.5q98 0 153 -45.5t56 -132.5
q0 -58 -31.5 -103.5t-79.5 -68.5q62 -20 95 -64.5t32 -107.5q0 -93 -59 -146t-164 -53z" />
    <glyph glyph-name="acute" unicode="&#xb4;" horiz-adv-x="229" 
d="M0 1108l141 203h88l-143 -203h-86z" />
    <glyph glyph-name="periodcentered" unicode="&#xb7;" horiz-adv-x="315" 
d="M63 641q0 44 29.5 68.5t65 24.5t65 -24.5t29.5 -68.5q0 -56 -47 -79t-94.5 0t-47.5 79z" />
    <glyph glyph-name="cedilla" unicode="&#xb8;" horiz-adv-x="321" 
d="M152 -406q-65 -9 -140 21l21 55q51 -27 119 -14q43 6 69.5 29t26.5 61q0 35 -24 53.5t-66 18.5q-43 0 -105 -21l-22 25l28 184h64l-23 -143q25 10 60 10q67 0 109 -33.5t42 -93.5t-45.5 -101.5t-113.5 -50.5z" />
    <glyph glyph-name="uni00B9" unicode="&#xb9;" horiz-adv-x="258" 
d="M176 901v647l-147 -94v57l161 109h39v-719h-53z" />
    <glyph glyph-name="ordmasculine" unicode="&#xba;" horiz-adv-x="563" 
d="M279 911q-94 0 -160 70t-66 190q0 121 66 192t160 71t160.5 -71t66.5 -192q0 -119 -66.5 -189.5t-160.5 -70.5zM279 967q73 0 122.5 54t49.5 150q0 97 -49.5 152t-122.5 55q-72 0 -122.5 -55t-50.5 -152q0 -95 50.5 -149.5t122.5 -54.5z" />
    <glyph glyph-name="guillemotright" unicode="&#xbb;" horiz-adv-x="862" 
d="M530 156h-127l271 362l-268 361h124l269 -361zM190 156h-127l271 362l-268 361h124l269 -361z" />
    <glyph glyph-name="questiondown" unicode="&#xbf;" horiz-adv-x="958" 
d="M444 670v121h97v-121q0 -80 -36 -144.5t-122 -136.5q-55 -48 -86 -79.5t-61 -73.5t-43 -88t-13 -103q0 -311 312 -311q154 0 240.5 71t86.5 179h96q0 -160 -119.5 -253t-303.5 -93q-85 0 -157.5 23.5t-130 71t-90 127.5t-32.5 185q0 71 16.5 129.5t53.5 109t73 86.5
t97 87q70 60 96 107t26 106zM573 1055q0 -44 -29.5 -68.5t-64.5 -24.5t-64.5 24.5t-29.5 68.5q0 41 29.5 65t64.5 24t64.5 -24t29.5 -65z" />
    <glyph glyph-name="Agrave" unicode="&#xc0;" horiz-adv-x="1429" 
d="M59 -25l623 1475h66l622 -1475h-119l-147 351h-778l-148 -351h-119zM373 430h686l-344 815zM829 1518h-86l-143 202h88z" />
    <glyph glyph-name="Aacute" unicode="&#xc1;" horiz-adv-x="1429" 
d="M59 -25l623 1475h66l622 -1475h-119l-147 351h-778l-148 -351h-119zM373 430h686l-344 815zM600 1518l141 202h88l-143 -202h-86z" />
    <glyph glyph-name="Acircumflex" unicode="&#xc2;" horiz-adv-x="1429" 
d="M59 -25l623 1475h66l622 -1475h-119l-147 351h-778l-148 -351h-119zM373 430h686l-344 815zM526 1518l142 202h92l141 -202h-86l-100 143l-103 -143h-86z" />
    <glyph glyph-name="Atilde" unicode="&#xc3;" horiz-adv-x="1429" 
d="M59 -25l623 1475h66l622 -1475h-119l-147 351h-778l-148 -351h-119zM373 430h686l-344 815zM928 1657q-17 -137 -109 -137q-43 0 -98 55q-47 47 -76 47q-34 0 -53.5 -24t-28.5 -78h-63q9 78 46.5 122t98.5 44q57 0 123 -66q24 -24 33 -30.5t18 -6.5q18 0 28 15t17 59h64z
" />
    <glyph glyph-name="Adieresis" unicode="&#xc4;" horiz-adv-x="1429" 
d="M59 -25l623 1475h66l622 -1475h-119l-147 351h-778l-148 -351h-119zM373 430h686l-344 815zM631 1534q-32 0 -56 24t-24 56q0 34 24 58t56 24q34 0 58 -24t24 -58q0 -32 -24 -56t-58 -24zM797 1534q-32 0 -56 24t-24 56q0 34 24 58t56 24q34 0 58 -24t24 -58
q0 -32 -24 -56t-58 -24z" />
    <glyph glyph-name="Aring" unicode="&#xc5;" horiz-adv-x="1429" 
d="M59 -25l623 1475h66l622 -1475h-119l-147 351h-778l-148 -351h-119zM373 430h686l-344 815zM715 1513q-47 0 -78 31t-31 76q0 41 31.5 71.5t77.5 30.5q45 0 75.5 -30.5t30.5 -71.5q0 -45 -30.5 -76t-75.5 -31zM715 1567q24 0 37.5 15t11.5 38q0 19 -13 33t-36 14
q-22 0 -35.5 -13.5t-13.5 -33.5q0 -23 13.5 -38t35.5 -15z" />
    <glyph glyph-name="AE" unicode="&#xc6;" horiz-adv-x="2283" 
d="M1251 -25v351h-778l-295 -351h-119l1217 1446v29h934v-115h-824v-540h764v-113h-764v-592h838v-115h-973zM563 430h686l-2 815z" />
    <glyph glyph-name="Ccedilla" unicode="&#xc7;" horiz-adv-x="1427" 
d="M719 -47l-51 2l-15 -92q25 10 60 10q67 0 109 -33.5t42 -93.5t-45.5 -101.5t-113.5 -50.5q-65 -9 -140 21l21 55q51 -27 119 -14q43 6 69.5 29t26.5 61q0 35 -24 53.5t-66 18.5q-43 0 -105 -21l-22 25l22 141q-239 41 -393 242.5t-154 507.5q0 172 52.5 316.5t142 241
t209.5 150.5t256 54q246 0 423.5 -163t221.5 -433h-111q-41 224 -187.5 352.5t-346.5 128.5q-112 0 -211 -44t-174.5 -125t-119.5 -204.5t-44 -273.5q0 -147 43 -269.5t117 -204.5t174.5 -127.5t214.5 -45.5q209 0 357 138.5t181 373.5h111q-39 -289 -218.5 -457
t-430.5 -168z" />
    <glyph glyph-name="Egrave" unicode="&#xc8;" horiz-adv-x="1067" 
d="M59 -25v1475h934v-115h-823v-540h764v-113h-764v-592h838v-115h-949zM647 1518h-86l-143 202h88z" />
    <glyph glyph-name="Eacute" unicode="&#xc9;" horiz-adv-x="1067" 
d="M59 -25v1475h934v-115h-823v-540h764v-113h-764v-592h838v-115h-949zM418 1518l141 202h88l-143 -202h-86z" />
    <glyph glyph-name="Ecircumflex" unicode="&#xca;" horiz-adv-x="1067" 
d="M59 -25v1475h934v-115h-823v-540h764v-113h-764v-592h838v-115h-949zM346 1518l141 202h93l141 -202h-86l-100 143l-103 -143h-86z" />
    <glyph glyph-name="Edieresis" unicode="&#xcb;" horiz-adv-x="1067" 
d="M59 -25v1475h934v-115h-823v-540h764v-113h-764v-592h838v-115h-949zM451 1534q-32 0 -56 24t-24 56q0 34 24 58t56 24q34 0 57.5 -24t23.5 -58q0 -32 -24 -56t-57 -24zM616 1534q-32 0 -55.5 24t-23.5 56q0 34 23.5 58t55.5 24q34 0 58 -24t24 -58q0 -32 -24 -56
t-58 -24z" />
    <glyph glyph-name="Igrave" unicode="&#xcc;" horiz-adv-x="229" 
d="M59 -25v1475h111v-1475h-111zM229 1518h-86l-143 202h88z" />
    <glyph glyph-name="Iacute" unicode="&#xcd;" horiz-adv-x="229" 
d="M59 -25v1475h111v-1475h-111zM0 1518l141 202h88l-143 -202h-86z" />
    <glyph glyph-name="Icircumflex" unicode="&#xce;" horiz-adv-x="229" 
d="M59 -25v1475h111v-1475h-111zM-74 1518l142 202h92l141 -202h-86l-100 143l-103 -143h-86z" />
    <glyph glyph-name="Idieresis" unicode="&#xcf;" horiz-adv-x="229" 
d="M59 -25v1475h111v-1475h-111zM31 1534q-32 0 -56 24t-24 56q0 34 24 58t56 24q34 0 58 -24t24 -58q0 -32 -24 -56t-58 -24zM197 1534q-32 0 -56 24t-24 56q0 34 24 58t56 24q34 0 58 -24t24 -58q0 -32 -24 -56t-58 -24z" />
    <glyph glyph-name="Eth" unicode="&#xd0;" horiz-adv-x="1300" 
d="M59 -25v564h-172v104h172v807h523q187 0 337 -92t236 -261t86 -384q0 -336 -175 -537t-480 -201h-527zM586 90q265 0 406 166t141 457q0 140 -41.5 257t-115 196.5t-175 124t-219.5 44.5h-412v-692h260v-104h-260v-449h416z" />
    <glyph glyph-name="Ntilde" unicode="&#xd1;" horiz-adv-x="1314" 
d="M59 -25v1475h113l973 -1260v1260h110v-1475h-79l-1006 1295v-1295h-111zM870 1657q-17 -137 -108 -137q-43 0 -98 55q-47 47 -76 47q-34 0 -53.5 -24t-28.5 -78h-64q9 78 47 122t99 44q57 0 123 -66q24 -24 33 -30.5t18 -6.5q18 0 28 15t17 59h63z" />
    <glyph glyph-name="Ograve" unicode="&#xd2;" horiz-adv-x="1437" 
d="M719 -45q-135 0 -255.5 54t-210 150.5t-142 240.5t-52.5 315q0 172 52.5 316.5t142 241t209.5 150.5t256 54q135 0 255.5 -54t210 -150.5t141.5 -241t52 -316.5q0 -171 -51.5 -315t-140.5 -241t-209.5 -150.5t-257.5 -53.5zM719 70q115 0 214.5 43.5t174 124.5t117.5 204
t43 273q0 151 -43 274.5t-117.5 204t-174 124.5t-214.5 44t-214.5 -44t-174 -124.5t-117.5 -204t-43 -274.5q0 -150 43 -273t117.5 -204t174 -124.5t214.5 -43.5zM831 1518h-86l-143 202h88z" />
    <glyph glyph-name="Oacute" unicode="&#xd3;" horiz-adv-x="1437" 
d="M719 -45q-135 0 -255.5 54t-210 150.5t-142 240.5t-52.5 315q0 172 52.5 316.5t142 241t209.5 150.5t256 54q135 0 255.5 -54t210 -150.5t141.5 -241t52 -316.5q0 -171 -51.5 -315t-140.5 -241t-209.5 -150.5t-257.5 -53.5zM719 70q115 0 214.5 43.5t174 124.5t117.5 204
t43 273q0 151 -43 274.5t-117.5 204t-174 124.5t-214.5 44t-214.5 -44t-174 -124.5t-117.5 -204t-43 -274.5q0 -150 43 -273t117.5 -204t174 -124.5t214.5 -43.5zM602 1518l141 202h88l-143 -202h-86z" />
    <glyph glyph-name="Ocircumflex" unicode="&#xd4;" horiz-adv-x="1437" 
d="M719 -45q-135 0 -255.5 54t-210 150.5t-142 240.5t-52.5 315q0 172 52.5 316.5t142 241t209.5 150.5t256 54q135 0 255.5 -54t210 -150.5t141.5 -241t52 -316.5q0 -171 -51.5 -315t-140.5 -241t-209.5 -150.5t-257.5 -53.5zM719 70q115 0 214.5 43.5t174 124.5t117.5 204
t43 273q0 151 -43 274.5t-117.5 204t-174 124.5t-214.5 44t-214.5 -44t-174 -124.5t-117.5 -204t-43 -274.5q0 -150 43 -273t117.5 -204t174 -124.5t214.5 -43.5zM530 1518l142 202h92l141 -202h-86l-100 143l-103 -143h-86z" />
    <glyph glyph-name="Otilde" unicode="&#xd5;" horiz-adv-x="1437" 
d="M719 -45q-135 0 -255.5 54t-210 150.5t-142 240.5t-52.5 315q0 172 52.5 316.5t142 241t209.5 150.5t256 54q135 0 255.5 -54t210 -150.5t141.5 -241t52 -316.5q0 -171 -51.5 -315t-140.5 -241t-209.5 -150.5t-257.5 -53.5zM719 70q115 0 214.5 43.5t174 124.5t117.5 204
t43 273q0 151 -43 274.5t-117.5 204t-174 124.5t-214.5 44t-214.5 -44t-174 -124.5t-117.5 -204t-43 -274.5q0 -150 43 -273t117.5 -204t174 -124.5t214.5 -43.5zM932 1657q-17 -137 -109 -137q-43 0 -98 55q-47 47 -76 47q-34 0 -53.5 -24t-28.5 -78h-63q9 78 46.5 122
t98.5 44q57 0 123 -66q24 -24 33 -30.5t18 -6.5q18 0 28 15t17 59h64z" />
    <glyph glyph-name="Odieresis" unicode="&#xd6;" horiz-adv-x="1437" 
d="M719 -45q-135 0 -255.5 54t-210 150.5t-142 240.5t-52.5 315q0 172 52.5 316.5t142 241t209.5 150.5t256 54q135 0 255.5 -54t210 -150.5t141.5 -241t52 -316.5q0 -171 -51.5 -315t-140.5 -241t-209.5 -150.5t-257.5 -53.5zM719 70q115 0 214.5 43.5t174 124.5t117.5 204
t43 273q0 151 -43 274.5t-117.5 204t-174 124.5t-214.5 44t-214.5 -44t-174 -124.5t-117.5 -204t-43 -274.5q0 -150 43 -273t117.5 -204t174 -124.5t214.5 -43.5zM635 1534q-32 0 -56 24t-24 56q0 34 24 58t56 24q34 0 58 -24t24 -58q0 -32 -24 -56t-58 -24zM801 1534
q-32 0 -56 24t-24 56q0 34 24 58t56 24q34 0 58 -24t24 -58q0 -32 -24 -56t-58 -24z" />
    <glyph glyph-name="multiply" unicode="&#xd7;" horiz-adv-x="792" 
d="M668 852l61 -61l-272 -271l272 -272l-61 -62l-273 273l-272 -273l-60 62l271 272l-271 271l60 61l272 -272z" />
    <glyph glyph-name="Oslash" unicode="&#xd8;" horiz-adv-x="1437" 
d="M489 -240h-112l90 246q-185 79 -296.5 265.5t-111.5 443.5q0 172 52.5 316.5t142 241t209.5 150.5t256 54q139 0 264 -58l70 191h112l-88 -244q139 -97 220 -265t81 -386q0 -171 -51.5 -315t-140.5 -241t-209.5 -150.5t-257.5 -53.5q-79 0 -152 18zM719 70
q115 0 214.5 43.5t174 124.5t117.5 204t43 273q0 184 -61.5 322t-170.5 220l-430 -1177q62 -10 113 -10zM170 715q0 -224 91 -380.5t245 -221.5l438 1200q-101 49 -225 49q-115 0 -214.5 -44t-174 -124.5t-117.5 -204t-43 -274.5z" />
    <glyph glyph-name="Ugrave" unicode="&#xd9;" horiz-adv-x="1294" 
d="M647 -29q-271 0 -429.5 182.5t-158.5 528.5v768h111v-768q0 -303 125.5 -450.5t351.5 -147.5q231 0 355 147t124 451v768h109v-768q0 -347 -157 -529t-431 -182zM762 1518h-86l-144 202h89z" />
    <glyph glyph-name="Uacute" unicode="&#xda;" horiz-adv-x="1294" 
d="M647 -29q-271 0 -429.5 182.5t-158.5 528.5v768h111v-768q0 -303 125.5 -450.5t351.5 -147.5q231 0 355 147t124 451v768h109v-768q0 -347 -157 -529t-431 -182zM532 1518l142 202h88l-144 -202h-86z" />
    <glyph glyph-name="Ucircumflex" unicode="&#xdb;" horiz-adv-x="1294" 
d="M647 -29q-271 0 -429.5 182.5t-158.5 528.5v768h111v-768q0 -303 125.5 -450.5t351.5 -147.5q231 0 355 147t124 451v768h109v-768q0 -347 -157 -529t-431 -182zM461 1518l141 202h92l142 -202h-86l-101 143l-102 -143h-86z" />
    <glyph glyph-name="Udieresis" unicode="&#xdc;" horiz-adv-x="1294" 
d="M647 -29q-271 0 -429.5 182.5t-158.5 528.5v768h111v-768q0 -303 125.5 -450.5t351.5 -147.5q231 0 355 147t124 451v768h109v-768q0 -347 -157 -529t-431 -182zM563 1534q-32 0 -56 24t-24 56q0 34 24 58t56 24q34 0 58 -24t24 -58q0 -32 -24 -56t-58 -24zM729 1534
q-32 0 -56 24t-24 56q0 34 24 58t56 24q34 0 58 -24t24 -58q0 -32 -24 -56t-58 -24z" />
    <glyph glyph-name="Yacute" unicode="&#xdd;" horiz-adv-x="1263" 
d="M578 -25v631l-519 844h134l440 -727l438 727h133l-516 -844v-631h-110zM516 1518l141 202h88l-143 -202h-86z" />
    <glyph glyph-name="Thorn" unicode="&#xde;" horiz-adv-x="1122" 
d="M59 1450h109v-188h403q216 0 354 -123t138 -332q0 -138 -66 -241t-176.5 -155.5t-249.5 -52.5h-401v-378h-2v-5h-109v1475zM571 457q175 0 279 92.5t104 257.5q0 166 -104.5 260t-278.5 94h-401v-704h401z" />
    <glyph glyph-name="germandbls" unicode="&#xdf;" horiz-adv-x="1052" 
d="M494 1430q199 0 314.5 -99.5t115.5 -269.5q0 -109 -50 -188.5t-145 -122.5q126 -43 195 -136.5t69 -222.5q0 -185 -132.5 -297t-360.5 -112h-152v110h162q166 0 268.5 81t102.5 218q0 134 -97 215.5t-249 81.5h-58v107h49q134 0 208.5 69.5t74.5 192.5q0 125 -86.5 193.5
t-228.5 68.5h-2q-145 0 -233.5 -69t-88.5 -193v-1075h-111v1079q0 171 116 270t317 99h2z" />
    <glyph glyph-name="agrave" unicode="&#xe0;" horiz-adv-x="950" 
d="M383 -25q-150 0 -237 83t-87 206t84 201t244 78h395v59q0 70 -16.5 127t-51.5 102t-96.5 70t-146.5 25q-131 0 -200 -61.5t-74 -168.5h-109q3 169 113 258q101 78 268 78q180 0 289 -88q133 -116 133 -358v-611h-109v213q-75 -107 -182.5 -160t-216.5 -53zM391 78
q119 0 219 65t170 189v108h-385q-120 0 -172.5 -52.5t-52.5 -125.5q0 -80 60 -132t161 -52zM590 1108h-86l-144 203h89z" />
    <glyph glyph-name="aacute" unicode="&#xe1;" horiz-adv-x="950" 
d="M383 -25q-150 0 -237 83t-87 206t84 201t244 78h395v59q0 70 -16.5 127t-51.5 102t-96.5 70t-146.5 25q-131 0 -200 -61.5t-74 -168.5h-109q3 169 113 258q101 78 268 78q180 0 289 -88q133 -116 133 -358v-611h-109v213q-75 -107 -182.5 -160t-216.5 -53zM391 78
q119 0 219 65t170 189v108h-385q-120 0 -172.5 -52.5t-52.5 -125.5q0 -80 60 -132t161 -52zM360 1108l142 203h88l-144 -203h-86z" />
    <glyph glyph-name="acircumflex" unicode="&#xe2;" horiz-adv-x="950" 
d="M383 -25q-150 0 -237 83t-87 206t84 201t244 78h395v59q0 70 -16.5 127t-51.5 102t-96.5 70t-146.5 25q-131 0 -200 -61.5t-74 -168.5h-109q3 169 113 258q101 78 268 78q180 0 289 -88q133 -116 133 -358v-611h-109v213q-75 -107 -182.5 -160t-216.5 -53zM391 78
q119 0 219 65t170 189v108h-385q-120 0 -172.5 -52.5t-52.5 -125.5q0 -80 60 -132t161 -52zM289 1108l141 203h92l142 -203h-86l-101 143l-102 -143h-86z" />
    <glyph glyph-name="atilde" unicode="&#xe3;" horiz-adv-x="950" 
d="M383 -25q-150 0 -237 83t-87 206t84 201t244 78h395v59q0 70 -16.5 127t-51.5 102t-96.5 70t-146.5 25q-131 0 -200 -61.5t-74 -168.5h-109q3 169 113 258q101 78 268 78q180 0 289 -88q133 -116 133 -358v-611h-109v213q-75 -107 -182.5 -160t-216.5 -53zM391 78
q119 0 219 65t170 189v108h-385q-120 0 -172.5 -52.5t-52.5 -125.5q0 -80 60 -132t161 -52zM690 1247q-17 -137 -108 -137q-44 0 -99 55q-27 27 -42.5 37t-32.5 10q-34 0 -53.5 -24t-28.5 -78h-64q9 78 47 122t99 44q56 0 122 -66q36 -36 52 -36q18 0 28 14.5t17 58.5h63z
" />
    <glyph glyph-name="adieresis" unicode="&#xe4;" horiz-adv-x="950" 
d="M383 -25q-150 0 -237 83t-87 206t84 201t244 78h395v59q0 70 -16.5 127t-51.5 102t-96.5 70t-146.5 25q-131 0 -200 -61.5t-74 -168.5h-109q3 169 113 258q101 78 268 78q180 0 289 -88q133 -116 133 -358v-611h-109v213q-75 -107 -182.5 -160t-216.5 -53zM391 78
q119 0 219 65t170 189v108h-385q-120 0 -172.5 -52.5t-52.5 -125.5q0 -80 60 -132t161 -52zM393 1124q-32 0 -56 24t-24 56q0 34 24 58t56 24q34 0 58 -24t24 -58q0 -32 -24 -56t-58 -24zM559 1124q-32 0 -56 24t-24 56q0 34 24 58t56 24q34 0 58 -24t24 -58q0 -32 -24 -56
t-58 -24z" />
    <glyph glyph-name="aring" unicode="&#xe5;" horiz-adv-x="950" 
d="M383 -25q-150 0 -237 83t-87 206t84 201t244 78h395v59q0 70 -16.5 127t-51.5 102t-96.5 70t-146.5 25q-131 0 -200 -61.5t-74 -168.5h-109q3 169 113 258q101 78 268 78q180 0 289 -88q133 -116 133 -358v-611h-109v213q-75 -107 -182.5 -160t-216.5 -53zM391 78
q119 0 219 65t170 189v108h-385q-120 0 -172.5 -52.5t-52.5 -125.5q0 -80 60 -132t161 -52zM477 1104q-47 0 -77.5 30.5t-30.5 75.5q0 41 31 72t77 31q45 0 76 -31t31 -72q0 -44 -31 -75t-76 -31zM477 1157q24 0 37.5 15t11.5 38q0 19 -13 33t-36 14q-22 0 -35.5 -13.5
t-13.5 -33.5q0 -23 13.5 -38t35.5 -15z" />
    <glyph glyph-name="ae" unicode="&#xe6;" horiz-adv-x="1789" 
d="M383 -25q-150 0 -237 83t-87 206t84 201t244 78h395v59q0 70 -16.5 127t-51.5 102t-96.5 70t-146.5 25q-131 0 -200 -61.5t-74 -168.5h-109q3 169 113 258q101 78 268 78q180 0 289 -88q88 -76 116 -209q55 134 163.5 215.5t254.5 81.5q134 0 236.5 -66t154.5 -178
t48 -249l-2 -74h-787q6 -172 112.5 -274.5t254.5 -102.5q95 0 170 44.5t125 109.5l96 -41q-59 -99 -162 -162.5t-229 -63.5q-137 0 -247 70t-171 193v-263h-109v213q-75 -107 -182.5 -160t-216.5 -53zM391 78q119 0 219 65t170 189v108h-385q-120 0 -172.5 -52.5
t-52.5 -125.5q0 -80 60 -132t161 -52zM1622 559q-3 159 -91 260t-239 101q-140 0 -237.5 -98.5t-114.5 -262.5h682z" />
    <glyph glyph-name="ccedilla" unicode="&#xe7;" horiz-adv-x="1026" 
d="M516 -25l-45 2l-18 -114q25 10 59 10q67 0 109.5 -33.5t42.5 -93.5t-46 -101.5t-114 -50.5q-64 -9 -139 21l20 55q51 -27 119 -14q43 6 69.5 29t26.5 61q0 35 -24 53.5t-66 18.5t-104 -21l-23 25l27 166q-154 39 -252.5 174t-98.5 342q0 123 37.5 224.5t101 167
t145.5 101t173 35.5q169 0 295 -113t156 -311h-109q-28 151 -122.5 231.5t-219.5 80.5q-146 0 -247 -110.5t-101 -305.5t101 -305.5t247 -110.5q94 0 174.5 49t128.5 144h115q-50 -149 -166.5 -227.5t-251.5 -78.5z" />
    <glyph glyph-name="egrave" unicode="&#xe8;" horiz-adv-x="1017" 
d="M537 -25q-205 0 -341.5 149.5t-136.5 379.5q0 84 20.5 162t60 144.5t94.5 116t129 77.5t157 28q134 0 236 -66t154 -178t48 -249l-2 -74h-786q6 -172 112.5 -274.5t254.5 -102.5q175 0 294 154l97 -41q-59 -99 -162 -162.5t-229 -63.5zM850 559q-3 159 -91 260t-239 101
q-140 0 -237.5 -98.5t-114.5 -262.5h682zM623 1108h-86l-144 203h88z" />
    <glyph glyph-name="eacute" unicode="&#xe9;" horiz-adv-x="1017" 
d="M537 -25q-205 0 -341.5 149.5t-136.5 379.5q0 84 20.5 162t60 144.5t94.5 116t129 77.5t157 28q134 0 236 -66t154 -178t48 -249l-2 -74h-786q6 -172 112.5 -274.5t254.5 -102.5q175 0 294 154l97 -41q-59 -99 -162 -162.5t-229 -63.5zM850 559q-3 159 -91 260t-239 101
q-140 0 -237.5 -98.5t-114.5 -262.5h682zM393 1108l142 203h88l-144 -203h-86z" />
    <glyph glyph-name="ecircumflex" unicode="&#xea;" horiz-adv-x="1017" 
d="M537 -25q-205 0 -341.5 149.5t-136.5 379.5q0 84 20.5 162t60 144.5t94.5 116t129 77.5t157 28q134 0 236 -66t154 -178t48 -249l-2 -74h-786q6 -172 112.5 -274.5t254.5 -102.5q175 0 294 154l97 -41q-59 -99 -162 -162.5t-229 -63.5zM850 559q-3 159 -91 260t-239 101
q-140 0 -237.5 -98.5t-114.5 -262.5h682zM322 1108l141 203h92l141 -203h-86l-100 143l-102 -143h-86z" />
    <glyph glyph-name="edieresis" unicode="&#xeb;" horiz-adv-x="1017" 
d="M537 -25q-205 0 -341.5 149.5t-136.5 379.5q0 84 20.5 162t60 144.5t94.5 116t129 77.5t157 28q134 0 236 -66t154 -178t48 -249l-2 -74h-786q6 -172 112.5 -274.5t254.5 -102.5q175 0 294 154l97 -41q-59 -99 -162 -162.5t-229 -63.5zM850 559q-3 159 -91 260t-239 101
q-140 0 -237.5 -98.5t-114.5 -262.5h682zM426 1124q-32 0 -56 24t-24 56q0 34 24 58t56 24q34 0 58 -24t24 -58q0 -32 -24 -56t-58 -24zM592 1124q-32 0 -56 24t-24 56q0 34 24 58t56 24q34 0 58 -24t24 -58q0 -32 -24 -56t-58 -24z" />
    <glyph glyph-name="igrave" unicode="&#xec;" horiz-adv-x="227" 
d="M59 -25v1057h109v-1057h-109zM227 1108h-86l-143 203h88z" />
    <glyph glyph-name="iacute" unicode="&#xed;" horiz-adv-x="227" 
d="M59 -25v1057h109v-1057h-109zM-2 1108l141 203h88l-143 -203h-86z" />
    <glyph glyph-name="icircumflex" unicode="&#xee;" horiz-adv-x="227" 
d="M59 -25v1057h109v-1057h-109zM-74 1108l142 203h92l141 -203h-86l-100 143l-103 -143h-86z" />
    <glyph glyph-name="idieresis" unicode="&#xef;" horiz-adv-x="227" 
d="M59 -25v1057h109v-1057h-109zM31 1124q-32 0 -56 24t-24 56q0 34 24 58t56 24q34 0 58 -24t24 -58q0 -32 -24 -56t-58 -24zM197 1124q-32 0 -56 24t-24 56q0 34 24 58t56 24q34 0 58 -24t24 -58q0 -32 -24 -56t-58 -24z" />
    <glyph glyph-name="eth" unicode="&#xf0;" horiz-adv-x="1183" 
d="M682 1001l-35 91l170 69v289h109v-246l190 78l37 -90l-227 -92v-1125h-109v195q-56 -81 -149.5 -141t-194.5 -60q-184 0 -299 149.5t-115 377.5q0 124 34 225.5t93 167.5t135 101.5t162 35.5q210 0 334 -219v250zM477 82q118 0 207.5 79.5t132.5 205.5v286
q-66 131 -143 195.5t-185 64.5q-136 0 -228.5 -114.5t-92.5 -302.5q0 -185 87 -299.5t222 -114.5z" />
    <glyph glyph-name="ntilde" unicode="&#xf1;" 
d="M59 -25v1057h109v-229q49 84 149.5 156.5t208.5 72.5q166 0 259.5 -113.5t93.5 -287.5v-656h-109v656q0 132 -70 210.5t-184 78.5q-115 0 -204.5 -78.5t-143.5 -202.5v-664h-109zM684 1247q-17 -137 -109 -137q-43 0 -98 55q-47 47 -76 47q-34 0 -53.5 -24t-28.5 -78h-63
q9 78 46.5 122t98.5 44q57 0 123 -66q24 -24 33 -30t18 -6q18 0 28.5 14.5t17.5 58.5h63z" />
    <glyph glyph-name="ograve" unicode="&#xf2;" horiz-adv-x="1034" 
d="M516 -25q-91 0 -173 36t-145.5 101.5t-101 167t-37.5 224.5t37.5 224.5t101 167t145.5 101t173 35.5t173.5 -35.5t146.5 -101t101.5 -167t37.5 -224.5t-38 -224.5t-102 -167t-146 -101.5t-173 -36zM516 88q147 0 247.5 110t100.5 306t-100.5 306t-247.5 110
q-146 0 -247 -110.5t-101 -305.5t101 -305.5t247 -110.5zM631 1108h-86l-144 203h88z" />
    <glyph glyph-name="oacute" unicode="&#xf3;" horiz-adv-x="1034" 
d="M516 -25q-91 0 -173 36t-145.5 101.5t-101 167t-37.5 224.5t37.5 224.5t101 167t145.5 101t173 35.5t173.5 -35.5t146.5 -101t101.5 -167t37.5 -224.5t-38 -224.5t-102 -167t-146 -101.5t-173 -36zM516 88q147 0 247.5 110t100.5 306t-100.5 306t-247.5 110
q-146 0 -247 -110.5t-101 -305.5t101 -305.5t247 -110.5zM401 1108l142 203h88l-144 -203h-86z" />
    <glyph glyph-name="ocircumflex" unicode="&#xf4;" horiz-adv-x="1034" 
d="M516 -25q-91 0 -173 36t-145.5 101.5t-101 167t-37.5 224.5t37.5 224.5t101 167t145.5 101t173 35.5t173.5 -35.5t146.5 -101t101.5 -167t37.5 -224.5t-38 -224.5t-102 -167t-146 -101.5t-173 -36zM516 88q147 0 247.5 110t100.5 306t-100.5 306t-247.5 110
q-146 0 -247 -110.5t-101 -305.5t101 -305.5t247 -110.5zM330 1108l141 203h92l142 -203h-87l-100 143l-102 -143h-86z" />
    <glyph glyph-name="otilde" unicode="&#xf5;" horiz-adv-x="1034" 
d="M516 -25q-91 0 -173 36t-145.5 101.5t-101 167t-37.5 224.5t37.5 224.5t101 167t145.5 101t173 35.5t173.5 -35.5t146.5 -101t101.5 -167t37.5 -224.5t-38 -224.5t-102 -167t-146 -101.5t-173 -36zM516 88q147 0 247.5 110t100.5 306t-100.5 306t-247.5 110
q-146 0 -247 -110.5t-101 -305.5t101 -305.5t247 -110.5zM731 1247q-17 -137 -108 -137q-44 0 -99 55q-27 27 -42.5 37t-32.5 10q-34 0 -53.5 -24t-28.5 -78h-64q9 78 47 122t99 44q56 0 122 -66q36 -36 52 -36q18 0 28 14.5t17 58.5h63z" />
    <glyph glyph-name="odieresis" unicode="&#xf6;" horiz-adv-x="1034" 
d="M516 -25q-91 0 -173 36t-145.5 101.5t-101 167t-37.5 224.5t37.5 224.5t101 167t145.5 101t173 35.5t173.5 -35.5t146.5 -101t101.5 -167t37.5 -224.5t-38 -224.5t-102 -167t-146 -101.5t-173 -36zM516 88q147 0 247.5 110t100.5 306t-100.5 306t-247.5 110
q-146 0 -247 -110.5t-101 -305.5t101 -305.5t247 -110.5zM432 1124q-32 0 -56 24t-24 56q0 34 24 58t56 24q34 0 58 -24t24 -58q0 -32 -24 -56t-58 -24zM598 1124q-32 0 -56 24t-24 56q0 34 24 58t56 24q34 0 58 -24t24 -58q0 -32 -24 -56t-58 -24z" />
    <glyph glyph-name="oslash" unicode="&#xf8;" horiz-adv-x="1038" 
d="M252 -109h-113l107 185q-84 68 -132 178t-48 252q0 123 37.5 224.5t100.5 167t145 101t173 35.5q131 0 238 -69l55 94h113l-90 -156q143 -150 143 -397q0 -123 -38 -224.5t-102 -167t-146 -101.5t-173 -36q-100 0 -194 46zM522 90q147 0 247.5 110t100.5 306
q0 182 -92 295l-395 -682q69 -29 139 -29zM174 506q0 -218 129 -334l402 696q-82 54 -183 54q-146 0 -247 -110.5t-101 -305.5z" />
    <glyph glyph-name="ugrave" unicode="&#xf9;" 
d="M414 -25q-166 0 -260.5 114t-94.5 288v655h109v-655q0 -131 71 -210t185 -79q114 1 203.5 79.5t142.5 201.5v663h109v-1057h-109v228q-51 -84 -150 -156t-206 -72zM584 1108h-86l-144 203h88z" />
    <glyph glyph-name="uacute" unicode="&#xfa;" 
d="M414 -25q-166 0 -260.5 114t-94.5 288v655h109v-655q0 -131 71 -210t185 -79q114 1 203.5 79.5t142.5 201.5v663h109v-1057h-109v228q-51 -84 -150 -156t-206 -72zM354 1108l142 203h88l-144 -203h-86z" />
    <glyph glyph-name="ucircumflex" unicode="&#xfb;" 
d="M414 -25q-166 0 -260.5 114t-94.5 288v655h109v-655q0 -131 71 -210t185 -79q114 1 203.5 79.5t142.5 201.5v663h109v-1057h-109v228q-51 -84 -150 -156t-206 -72zM283 1108l141 203h92l141 -203h-86l-100 143l-102 -143h-86z" />
    <glyph glyph-name="udieresis" unicode="&#xfc;" 
d="M414 -25q-166 0 -260.5 114t-94.5 288v655h109v-655q0 -131 71 -210t185 -79q114 1 203.5 79.5t142.5 201.5v663h109v-1057h-109v228q-51 -84 -150 -156t-206 -72zM387 1124q-32 0 -56 24t-24 56q0 34 24 58t56 24q34 0 58 -24t24 -58q0 -32 -24 -56t-58 -24zM553 1124
q-32 0 -56 24t-24 56q0 34 24 58t56 24q34 0 58 -24t24 -58q0 -32 -24 -56t-58 -24z" />
    <glyph glyph-name="yacute" unicode="&#xfd;" horiz-adv-x="1034" 
d="M350 -408l154 437l-445 1003h119l350 -790l29 -66l303 856h115l-508 -1440h-117zM403 1108l142 203h88l-144 -203h-86z" />
    <glyph glyph-name="thorn" unicode="&#xfe;" horiz-adv-x="995" 
d="M506 88q136 0 228.5 114.5t92.5 303.5q0 185 -86.5 299.5t-220.5 114.5q-118 0 -208.5 -79.5t-133.5 -205.5v-287q68 -132 144 -196t184 -64zM178 -442h-115v1814h115v-543q56 81 149.5 142t194.5 61q184 0 299 -149t115 -377q0 -245 -123 -388t-301 -143
q-209 0 -334 220v-637z" />
    <glyph glyph-name="ydieresis" unicode="&#xff;" horiz-adv-x="1034" 
d="M350 -408l154 437l-445 1003h119l350 -790l29 -66l303 856h115l-508 -1440h-117zM434 1124q-32 0 -56 24t-24 56q0 34 24 58t56 24q34 0 58 -24t24 -58q0 -32 -24 -56t-58 -24zM600 1124q-32 0 -56 24t-24 56q0 34 24 58t56 24q34 0 58 -24t24 -58q0 -32 -24 -56t-58 -24
z" />
    <glyph glyph-name="Amacron" unicode="&#x100;" horiz-adv-x="1429" 
d="M59 -25l623 1475h66l622 -1475h-119l-147 351h-778l-148 -351h-119zM373 430h686l-344 815zM516 1657h395v-80h-395v80z" />
    <glyph glyph-name="amacron" unicode="&#x101;" horiz-adv-x="950" 
d="M383 -25q-150 0 -237 83t-87 206t84 201t244 78h395v59q0 70 -16.5 127t-51.5 102t-96.5 70t-146.5 25q-131 0 -200 -61.5t-74 -168.5h-109q3 169 113 258q101 78 268 78q180 0 289 -88q133 -116 133 -358v-611h-109v213q-75 -107 -182.5 -160t-216.5 -53zM391 78
q119 0 219 65t170 189v108h-385q-120 0 -172.5 -52.5t-52.5 -125.5q0 -80 60 -132t161 -52zM279 1247h395v-80h-395v80z" />
    <glyph glyph-name="Abreve" unicode="&#x102;" horiz-adv-x="1429" 
d="M59 -25l623 1475h66l622 -1475h-119l-147 351h-778l-148 -351h-119zM373 430h686l-344 815zM926 1710q-17 -83 -76.5 -137.5t-134.5 -54.5q-79 0 -137.5 54t-73.5 138h65q12 -55 52.5 -92t93.5 -37t93.5 38.5t51.5 90.5h66z" />
    <glyph glyph-name="abreve" unicode="&#x103;" horiz-adv-x="950" 
d="M383 -25q-150 0 -237 83t-87 206t84 201t244 78h395v59q0 70 -16.5 127t-51.5 102t-96.5 70t-146.5 25q-131 0 -200 -61.5t-74 -168.5h-109q3 169 113 258q101 78 268 78q180 0 289 -88q133 -116 133 -358v-611h-109v213q-75 -107 -182.5 -160t-216.5 -53zM391 78
q119 0 219 65t170 189v108h-385q-120 0 -172.5 -52.5t-52.5 -125.5q0 -80 60 -132t161 -52zM688 1300q-17 -83 -76.5 -137.5t-134.5 -54.5q-79 0 -137.5 54t-73.5 138h66q12 -55 52 -92t93 -37t94 38.5t52 90.5h65z" />
    <glyph glyph-name="Aogonek" unicode="&#x104;" horiz-adv-x="1429" 
d="M59 -25l623 1475h66l622 -1475h-119l-2 5q-53 18 -92 18q-43 0 -67.5 -19t-24.5 -53q0 -74 96 -92q64 -12 121 16l18 -57q-73 -29 -139 -20q-69 9 -114.5 50.5t-45.5 102.5q0 59 43.5 92t110.5 33q28 0 59 -8l13 -8l-123 291h-778l-148 -351h-119zM373 430h686l-344 815z
" />
    <glyph glyph-name="aogonek" unicode="&#x105;" horiz-adv-x="950" 
d="M383 -25q-150 0 -237 83t-87 206t84 201t244 78h395v59q0 70 -16.5 127t-51.5 102t-96.5 70t-146.5 25q-131 0 -200 -61.5t-74 -168.5h-109q3 169 113 258q101 78 268 78q180 0 289 -88q133 -116 133 -358v-611h-29l12 -8l-22 -24q-57 22 -102 22q-43 0 -68 -19t-25 -52
q0 -39 27 -62t70 -31q61 -11 120 17l19 -58q-73 -29 -139 -20q-69 9 -114.5 51t-45.5 103q0 59 43.5 91.5t110.5 32.5q22 0 34 -2v172q-75 -107 -182.5 -160t-216.5 -53zM391 78q119 0 219 65t170 189v108h-385q-120 0 -172.5 -52.5t-52.5 -125.5q0 -80 60 -132t161 -52z
" />
    <glyph glyph-name="Cacute" unicode="&#x106;" horiz-adv-x="1427" 
d="M719 -47q-136 0 -256 53.5t-210 150t-142 240.5t-52 316t52.5 316.5t142 241t209.5 150.5t256 54q246 0 423.5 -163t221.5 -433h-111q-41 224 -187.5 352.5t-346.5 128.5q-112 0 -211 -44t-174.5 -125t-119.5 -204.5t-44 -273.5q0 -147 43 -269.5t117 -204.5
t174.5 -127.5t214.5 -45.5q209 0 357 138.5t181 373.5h111q-39 -289 -218.5 -457t-430.5 -168zM598 1518l141 202h88l-143 -202h-86z" />
    <glyph glyph-name="cacute" unicode="&#x107;" horiz-adv-x="1026" 
d="M516 -25q-91 0 -173 36t-145.5 101.5t-101 167t-37.5 224.5t37.5 224.5t101 167t145.5 101t173 35.5q169 0 295 -113t156 -311h-109q-28 151 -122.5 231.5t-219.5 80.5q-146 0 -247 -110.5t-101 -305.5t101 -305.5t247 -110.5q94 0 174.5 49t128.5 144h115
q-50 -149 -166.5 -227.5t-251.5 -78.5zM397 1108l142 203h88l-144 -203h-86z" />
    <glyph glyph-name="Ccircumflex" unicode="&#x108;" horiz-adv-x="1427" 
d="M719 -47q-136 0 -256 53.5t-210 150t-142 240.5t-52 316t52.5 316.5t142 241t209.5 150.5t256 54q246 0 423.5 -163t221.5 -433h-111q-41 224 -187.5 352.5t-346.5 128.5q-112 0 -211 -44t-174.5 -125t-119.5 -204.5t-44 -273.5q0 -147 43 -269.5t117 -204.5
t174.5 -127.5t214.5 -45.5q209 0 357 138.5t181 373.5h111q-39 -289 -218.5 -457t-430.5 -168zM526 1518l142 202h92l141 -202h-86l-100 143l-103 -143h-86z" />
    <glyph glyph-name="ccircumflex" unicode="&#x109;" horiz-adv-x="1026" 
d="M516 -25q-91 0 -173 36t-145.5 101.5t-101 167t-37.5 224.5t37.5 224.5t101 167t145.5 101t173 35.5q169 0 295 -113t156 -311h-109q-28 151 -122.5 231.5t-219.5 80.5q-146 0 -247 -110.5t-101 -305.5t101 -305.5t247 -110.5q94 0 174.5 49t128.5 144h115
q-50 -149 -166.5 -227.5t-251.5 -78.5zM326 1108l141 203h92l141 -203h-86l-100 143l-102 -143h-86z" />
    <glyph glyph-name="Cdotaccent" unicode="&#x10a;" horiz-adv-x="1427" 
d="M719 -47q-136 0 -256 53.5t-210 150t-142 240.5t-52 316t52.5 316.5t142 241t209.5 150.5t256 54q246 0 423.5 -163t221.5 -433h-111q-41 224 -187.5 352.5t-346.5 128.5q-112 0 -211 -44t-174.5 -125t-119.5 -204.5t-44 -273.5q0 -147 43 -269.5t117 -204.5
t174.5 -127.5t214.5 -45.5q209 0 357 138.5t181 373.5h111q-39 -289 -218.5 -457t-430.5 -168zM715 1534q-32 0 -56 24t-24 56q0 34 24 58t56 24q34 0 58 -24t24 -58q0 -32 -24 -56t-58 -24z" />
    <glyph glyph-name="cdotaccent" unicode="&#x10b;" horiz-adv-x="1026" 
d="M516 -25q-91 0 -173 36t-145.5 101.5t-101 167t-37.5 224.5t37.5 224.5t101 167t145.5 101t173 35.5q169 0 295 -113t156 -311h-109q-28 151 -122.5 231.5t-219.5 80.5q-146 0 -247 -110.5t-101 -305.5t101 -305.5t247 -110.5q94 0 174.5 49t128.5 144h115
q-50 -149 -166.5 -227.5t-251.5 -78.5zM512 1124q-32 0 -56 24t-24 56q0 34 24 58t56 24q34 0 58 -24t24 -58q0 -32 -24 -56t-58 -24z" />
    <glyph glyph-name="Ccaron" unicode="&#x10c;" horiz-adv-x="1427" 
d="M719 -47q-136 0 -256 53.5t-210 150t-142 240.5t-52 316t52.5 316.5t142 241t209.5 150.5t256 54q246 0 423.5 -163t221.5 -433h-111q-41 224 -187.5 352.5t-346.5 128.5q-112 0 -211 -44t-174.5 -125t-119.5 -204.5t-44 -273.5q0 -147 43 -269.5t117 -204.5
t174.5 -127.5t214.5 -45.5q209 0 357 138.5t181 373.5h111q-39 -289 -218.5 -457t-430.5 -168zM528 1718h86l101 -141l100 141h86l-141 -202h-90z" />
    <glyph glyph-name="ccaron" unicode="&#x10d;" horiz-adv-x="1026" 
d="M516 -25q-91 0 -173 36t-145.5 101.5t-101 167t-37.5 224.5t37.5 224.5t101 167t145.5 101t173 35.5q169 0 295 -113t156 -311h-109q-28 151 -122.5 231.5t-219.5 80.5q-146 0 -247 -110.5t-101 -305.5t101 -305.5t247 -110.5q94 0 174.5 49t128.5 144h115
q-50 -149 -166.5 -227.5t-251.5 -78.5zM328 1309h86l100 -142l100 142h86l-141 -203h-90z" />
    <glyph glyph-name="Dcaron" unicode="&#x10e;" horiz-adv-x="1300" 
d="M59 -25v1475h523q187 0 337 -92t236 -261t86 -384q0 -336 -175 -537t-480 -201h-527zM586 90q265 0 406 166t141 457q0 140 -41.5 257t-115 196.5t-175 124t-219.5 44.5h-412v-1245h416zM465 1718h86l100 -141l101 141h86l-142 -202h-90z" />
    <glyph glyph-name="dcaron" unicode="&#x10f;" horiz-adv-x="985" 
d="M473 -31q-184 0 -299 149.5t-115 377.5q0 124 34 225.5t93 167.5t135 101.5t162 35.5q210 0 334 -219v643h109v-1475h-109v195q-56 -81 -149.5 -141t-194.5 -60zM477 82q118 0 207.5 79.5t132.5 205.5v286q-66 131 -143 195.5t-185 64.5q-136 0 -228.5 -114.5
t-92.5 -302.5q0 -185 87 -299.5t222 -114.5zM985 1108l141 203h88l-143 -203h-86z" />
    <glyph glyph-name="Dcroat" unicode="&#x110;" horiz-adv-x="1300" 
d="M59 -25v564h-172v104h172v807h523q187 0 337 -92t236 -261t86 -384q0 -336 -175 -537t-480 -201h-527zM586 90q265 0 406 166t141 457q0 140 -41.5 257t-115 196.5t-175 124t-219.5 44.5h-412v-692h260v-104h-260v-449h416z" />
    <glyph glyph-name="dcroat" unicode="&#x111;" horiz-adv-x="985" 
d="M473 -31q-184 0 -299 149.5t-115 377.5q0 124 34 225.5t93 167.5t135 101.5t162 35.5q210 0 334 -219v330h-350v104h350v209h109v-209h84v-104h-84v-1162h-109v195q-56 -81 -149.5 -141t-194.5 -60zM477 82q118 0 207.5 79.5t132.5 205.5v286q-66 131 -143 195.5
t-185 64.5q-136 0 -228.5 -114.5t-92.5 -302.5q0 -185 87 -299.5t222 -114.5z" />
    <glyph glyph-name="Emacron" unicode="&#x112;" horiz-adv-x="1067" 
d="M59 -25v1475h934v-115h-823v-540h764v-113h-764v-592h838v-115h-949zM336 1657h395v-80h-395v80z" />
    <glyph glyph-name="emacron" unicode="&#x113;" horiz-adv-x="1017" 
d="M537 -25q-205 0 -341.5 149.5t-136.5 379.5q0 84 20.5 162t60 144.5t94.5 116t129 77.5t157 28q134 0 236 -66t154 -178t48 -249l-2 -74h-786q6 -172 112.5 -274.5t254.5 -102.5q175 0 294 154l97 -41q-59 -99 -162 -162.5t-229 -63.5zM850 559q-3 159 -91 260t-239 101
q-140 0 -237.5 -98.5t-114.5 -262.5h682zM311 1247h396v-80h-396v80z" />
    <glyph glyph-name="Edotaccent" unicode="&#x116;" horiz-adv-x="1067" 
d="M59 -25v1475h934v-115h-823v-540h764v-113h-764v-592h838v-115h-949zM535 1534q-32 0 -56 24t-24 56q0 34 24 58t56 24q34 0 57.5 -24t23.5 -58q0 -32 -24 -56t-57 -24z" />
    <glyph glyph-name="edotaccent" unicode="&#x117;" horiz-adv-x="1017" 
d="M537 -25q-205 0 -341.5 149.5t-136.5 379.5q0 84 20.5 162t60 144.5t94.5 116t129 77.5t157 28q134 0 236 -66t154 -178t48 -249l-2 -74h-786q6 -172 112.5 -274.5t254.5 -102.5q175 0 294 154l97 -41q-59 -99 -162 -162.5t-229 -63.5zM850 559q-3 159 -91 260t-239 101
q-140 0 -237.5 -98.5t-114.5 -262.5h682zM508 1124q-32 0 -56 24t-24 56q0 34 24 58t56 24q34 0 58 -24t24 -58q0 -32 -24 -56t-58 -24z" />
    <glyph glyph-name="Eogonek" unicode="&#x118;" horiz-adv-x="1067" 
d="M59 -25v1475h934v-115h-823v-540h764v-113h-764v-592h838v-115h-4l-21 -22q-57 22 -102 22q-43 0 -68 -19t-25 -52q0 -74 97 -92q64 -12 121 16l18 -57q-75 -30 -139 -21q-69 9 -114.5 51t-45.5 103q0 41 23 71h-689z" />
    <glyph glyph-name="eogonek" unicode="&#x119;" horiz-adv-x="1017" 
d="M537 -25q-205 0 -341.5 149.5t-136.5 379.5q0 84 20.5 162t60 144.5t94.5 116t129 77.5t157 28q134 0 236 -66t154 -178t48 -249l-2 -74h-786q6 -172 112.5 -274.5t254.5 -102.5q175 0 294 154l97 -41q-53 -89 -137 -146h10q28 0 59 -8l68 -43l-23 -24q-57 22 -102 22
q-43 0 -67.5 -19t-24.5 -53q0 -74 96 -92q62 -12 121 17l18 -58q-73 -29 -139 -20q-69 9 -114.5 50.5t-45.5 102.5q0 37 17 64q-62 -19 -127 -19zM850 559q-3 159 -91 260t-239 101q-140 0 -237.5 -98.5t-114.5 -262.5h682z" />
    <glyph glyph-name="Ecaron" unicode="&#x11a;" horiz-adv-x="1067" 
d="M59 -25v1475h934v-115h-823v-540h764v-113h-764v-592h838v-115h-949zM348 1718h86l101 -141l100 141h86l-141 -202h-91z" />
    <glyph glyph-name="ecaron" unicode="&#x11b;" horiz-adv-x="1017" 
d="M537 -25q-205 0 -341.5 149.5t-136.5 379.5q0 84 20.5 162t60 144.5t94.5 116t129 77.5t157 28q134 0 236 -66t154 -178t48 -249l-2 -74h-786q6 -172 112.5 -274.5t254.5 -102.5q175 0 294 154l97 -41q-59 -99 -162 -162.5t-229 -63.5zM850 559q-3 159 -91 260t-239 101
q-140 0 -237.5 -98.5t-114.5 -262.5h682zM324 1309h86l100 -142l100 142h86l-141 -203h-90z" />
    <glyph glyph-name="Gcircumflex" unicode="&#x11c;" horiz-adv-x="1427" 
d="M719 -45q-135 0 -255.5 54t-210 150.5t-142 240.5t-52.5 315q0 172 52.5 316.5t142 241t209.5 150.5t256 54q247 0 424 -161.5t221 -434.5h-111q-27 150 -104 260t-187.5 165.5t-242.5 55.5q-111 0 -210 -44t-175 -124.5t-120 -204.5t-44 -274t44 -273t119.5 -203.5
t174.5 -124.5t211 -44q199 0 343.5 124t186.5 338v31h-643v115h762v-703h-115v336q-71 -167 -215.5 -261.5t-318.5 -94.5zM526 1518l142 202h92l141 -202h-86l-100 143l-103 -143h-86z" />
    <glyph glyph-name="gcircumflex" unicode="&#x11d;" horiz-adv-x="972" 
d="M465 -639q-179 0 -291.5 104t-112.5 254q0 173 129 285v2q-51 25 -82.5 76.5t-31.5 114.5q0 118 82 194q-82 111 -82 254q0 165 101 276t259 111q167 0 269 -121h2q67 121 206 121v-102q-43 0 -86.5 -24.5t-68.5 -80.5q39 -83 39 -180q0 -167 -101 -278t-260 -111
q-109 0 -200 72q-49 -57 -54 -123q-4 -65 39 -101t117 -36h219q162 0 249 -91.5t87 -236.5q0 -70 -26.5 -135.5t-76 -121t-132 -89t-185.5 -33.5h-8zM492 -526q134 0 213 78.5t79 185.5q0 92 -54.5 154.5t-168.5 62.5h-233l-33 2q-49 -33 -87 -95.5t-38 -142.5
q0 -104 79 -174.5t197 -70.5h46zM436 369q113 0 182.5 79t69.5 197q0 117 -69.5 196t-182.5 79t-182.5 -79t-69.5 -196q0 -118 69.5 -197t182.5 -79zM299 1108l141 203h92l142 -203h-86l-101 143l-102 -143h-86z" />
    <glyph glyph-name="Gbreve" unicode="&#x11e;" horiz-adv-x="1427" 
d="M719 -45q-135 0 -255.5 54t-210 150.5t-142 240.5t-52.5 315q0 172 52.5 316.5t142 241t209.5 150.5t256 54q247 0 424 -161.5t221 -434.5h-111q-27 150 -104 260t-187.5 165.5t-242.5 55.5q-111 0 -210 -44t-175 -124.5t-120 -204.5t-44 -274t44 -273t119.5 -203.5
t174.5 -124.5t211 -44q199 0 343.5 124t186.5 338v31h-643v115h762v-703h-115v336q-71 -167 -215.5 -261.5t-318.5 -94.5zM926 1710q-17 -83 -76.5 -137.5t-134.5 -54.5q-79 0 -137.5 54t-73.5 138h65q12 -55 52.5 -92t93.5 -37t93.5 38.5t51.5 90.5h66z" />
    <glyph glyph-name="gbreve" unicode="&#x11f;" horiz-adv-x="972" 
d="M465 -639q-179 0 -291.5 104t-112.5 254q0 173 129 285v2q-51 25 -82.5 76.5t-31.5 114.5q0 118 82 194q-82 111 -82 254q0 165 101 276t259 111q167 0 269 -121h2q67 121 206 121v-102q-43 0 -86.5 -24.5t-68.5 -80.5q39 -83 39 -180q0 -167 -101 -278t-260 -111
q-109 0 -200 72q-49 -57 -54 -123q-4 -65 39 -101t117 -36h219q162 0 249 -91.5t87 -236.5q0 -70 -26.5 -135.5t-76 -121t-132 -89t-185.5 -33.5h-8zM492 -526q134 0 213 78.5t79 185.5q0 92 -54.5 154.5t-168.5 62.5h-233l-33 2q-49 -33 -87 -95.5t-38 -142.5
q0 -104 79 -174.5t197 -70.5h46zM436 369q113 0 182.5 79t69.5 197q0 117 -69.5 196t-182.5 79t-182.5 -79t-69.5 -196q0 -118 69.5 -197t182.5 -79zM698 1300q-17 -83 -76.5 -137.5t-134.5 -54.5q-79 0 -137.5 54t-73.5 138h66q12 -55 52 -92t93 -37t94 38.5t52 90.5h65z
" />
    <glyph glyph-name="Gdotaccent" unicode="&#x120;" horiz-adv-x="1427" 
d="M719 -45q-135 0 -255.5 54t-210 150.5t-142 240.5t-52.5 315q0 172 52.5 316.5t142 241t209.5 150.5t256 54q247 0 424 -161.5t221 -434.5h-111q-27 150 -104 260t-187.5 165.5t-242.5 55.5q-111 0 -210 -44t-175 -124.5t-120 -204.5t-44 -274t44 -273t119.5 -203.5
t174.5 -124.5t211 -44q199 0 343.5 124t186.5 338v31h-643v115h762v-703h-115v336q-71 -167 -215.5 -261.5t-318.5 -94.5zM715 1534q-32 0 -56 24t-24 56q0 34 24 58t56 24q34 0 58 -24t24 -58q0 -32 -24 -56t-58 -24z" />
    <glyph glyph-name="gdotaccent" unicode="&#x121;" horiz-adv-x="972" 
d="M465 -639q-179 0 -291.5 104t-112.5 254q0 173 129 285v2q-51 25 -82.5 76.5t-31.5 114.5q0 118 82 194q-82 111 -82 254q0 165 101 276t259 111q167 0 269 -121h2q67 121 206 121v-102q-43 0 -86.5 -24.5t-68.5 -80.5q39 -83 39 -180q0 -167 -101 -278t-260 -111
q-109 0 -200 72q-49 -57 -54 -123q-4 -65 39 -101t117 -36h219q162 0 249 -91.5t87 -236.5q0 -70 -26.5 -135.5t-76 -121t-132 -89t-185.5 -33.5h-8zM492 -526q134 0 213 78.5t79 185.5q0 92 -54.5 154.5t-168.5 62.5h-233l-33 2q-49 -33 -87 -95.5t-38 -142.5
q0 -104 79 -174.5t197 -70.5h46zM436 369q113 0 182.5 79t69.5 197q0 117 -69.5 196t-182.5 79t-182.5 -79t-69.5 -196q0 -118 69.5 -197t182.5 -79zM487 1124q-32 0 -55.5 24t-23.5 56q0 34 23.5 58t55.5 24q34 0 58 -24t24 -58q0 -32 -24 -56t-58 -24z" />
    <glyph glyph-name="uni0122" unicode="&#x122;" horiz-adv-x="1427" 
d="M719 -45q-135 0 -255.5 54t-210 150.5t-142 240.5t-52.5 315q0 172 52.5 316.5t142 241t209.5 150.5t256 54q247 0 424 -161.5t221 -434.5h-111q-27 150 -104 260t-187.5 165.5t-242.5 55.5q-111 0 -210 -44t-175 -124.5t-120 -204.5t-44 -274t44 -273t119.5 -203.5
t174.5 -124.5t211 -44q199 0 343.5 124t186.5 338v31h-643v115h762v-703h-115v336q-71 -167 -215.5 -261.5t-318.5 -94.5zM637 -326q74 80 74 160v98h88v-84q0 -51 -28 -103.5t-71 -90.5z" />
    <glyph glyph-name="uni0123" unicode="&#x123;" horiz-adv-x="972" 
d="M465 -639q-179 0 -291.5 104t-112.5 254q0 173 129 285v2q-51 25 -82.5 76.5t-31.5 114.5q0 118 82 194q-82 111 -82 254q0 165 101 276t259 111q167 0 269 -121h2q67 121 206 121v-102q-43 0 -86.5 -24.5t-68.5 -80.5q39 -83 39 -180q0 -167 -101 -278t-260 -111
q-109 0 -200 72q-49 -57 -54 -123q-4 -65 39 -101t117 -36h219q162 0 249 -91.5t87 -236.5q0 -70 -26.5 -135.5t-76 -121t-132 -89t-185.5 -33.5h-8zM492 -526q134 0 213 78.5t79 185.5q0 92 -54.5 154.5t-168.5 62.5h-233l-33 2q-49 -33 -87 -95.5t-38 -142.5
q0 -104 79 -174.5t197 -70.5h46zM436 369q113 0 182.5 79t69.5 197q0 117 -69.5 196t-182.5 79t-182.5 -79t-69.5 -196q0 -118 69.5 -197t182.5 -79zM563 1317q-74 -71 -74 -139v-86h-88v73q0 43 28 89t71 81z" />
    <glyph glyph-name="Hcircumflex" unicode="&#x124;" horiz-adv-x="1314" 
d="M59 -25v1475h111v-725h975v725h110v-1475h-110v635h-975v-635h-111zM469 1518l141 202h92l142 -202h-86l-101 143l-102 -143h-86z" />
    <glyph glyph-name="hcircumflex" unicode="&#x125;" 
d="M59 -25v1463h109v-639q48 86 148.5 159.5t209.5 73.5q166 0 259.5 -113.5t93.5 -287.5v-656h-109v656q0 132 -70 210.5t-184 78.5q-117 0 -209 -84t-139 -213v-648h-109zM297 1110l141 203h92l142 -203h-86l-101 143l-102 -143h-86z" />
    <glyph glyph-name="Hbar" unicode="&#x126;" horiz-adv-x="1406" 
d="M106 -25v1174h-47v115h47v186h111v-186h975v186h111v-186h45v-115h-45v-1174h-111v635h-975v-635h-111zM217 725h975v424h-975v-424z" />
    <glyph glyph-name="hbar" unicode="&#x127;" horiz-adv-x="1052" 
d="M59 1135v104h115v199h109v-199h319v-104h-319v-336q48 86 148.5 159.5t209.5 73.5q166 0 259 -113.5t93 -287.5v-656h-108v656q0 132 -70 210.5t-184 78.5q-117 0 -209 -84t-139 -213v-648h-109v1160h-115z" />
    <glyph glyph-name="Itilde" unicode="&#x128;" horiz-adv-x="229" 
d="M59 -25v1475h111v-1475h-111zM328 1657q-17 -137 -109 -137q-43 0 -98 55q-47 47 -76 47q-34 0 -53.5 -24t-28.5 -78h-63q9 78 46.5 122t98.5 44q57 0 123 -66q24 -24 33 -30.5t18 -6.5q18 0 28 15t17 59h64z" />
    <glyph glyph-name="itilde" unicode="&#x129;" horiz-adv-x="227" 
d="M59 -25v1057h109v-1057h-109zM328 1247q-17 -137 -109 -137q-43 0 -98 55q-47 47 -76 47q-34 0 -53.5 -24t-28.5 -78h-63q9 78 46.5 122t98.5 44q57 0 123 -66q24 -24 33 -30t18 -6q18 0 28 14.5t17 58.5h64z" />
    <glyph glyph-name="Imacron" unicode="&#x12a;" horiz-adv-x="229" 
d="M59 -25v1475h111v-1475h-111zM-84 1657h395v-80h-395v80z" />
    <glyph glyph-name="imacron" unicode="&#x12b;" horiz-adv-x="227" 
d="M59 -25v1057h109v-1057h-109zM-84 1247h395v-80h-395v80z" />
    <glyph glyph-name="Iogonek" unicode="&#x12e;" horiz-adv-x="229" 
d="M47 -258q-69 9 -114.5 51t-45.5 103q0 59 43.5 91.5t110.5 32.5h18v1430h111v-1475h-12l10 -6l-23 -24q-57 22 -102 22q-43 0 -67.5 -18.5t-24.5 -52.5q0 -75 96 -93q62 -12 121 17l18 -58q-73 -29 -139 -20z" />
    <glyph glyph-name="iogonek" unicode="&#x12f;" horiz-adv-x="227" 
d="M115 1124q-32 0 -56 24t-24 56q0 34 24 58t56 24q34 0 58 -24t24 -58q0 -32 -24 -56t-58 -24zM68 -258q-69 9 -114.5 51t-45.5 103q0 60 42 92t109 32v1012h109v-1050l20 -13l-22 -24q-57 22 -103 22q-43 0 -67.5 -18.5t-24.5 -52.5q0 -39 27 -62t70 -31q61 -11 120 17
l19 -58q-73 -29 -139 -20z" />
    <glyph glyph-name="Idotaccent" unicode="&#x130;" horiz-adv-x="229" 
d="M59 -25v1475h111v-1475h-111zM115 1534q-32 0 -56 24t-24 56q0 34 24 58t56 24q34 0 58 -24t24 -58q0 -32 -24 -56t-58 -24z" />
    <glyph glyph-name="dotlessi" unicode="&#x131;" horiz-adv-x="227" 
d="M59 -25v1057h109v-1057h-109z" />
    <glyph glyph-name="IJ" unicode="&#x132;" horiz-adv-x="1251" 
d="M59 -25v1475h111v-1475h-111zM715 -45q-103 0 -186 31.5t-134.5 84.5t-78.5 119.5t-27 141.5v84h110v-72q0 -122 81.5 -198t234.5 -76q368 0 368 424v956h109v-956q0 -253 -121.5 -396t-355.5 -143z" />
    <glyph glyph-name="ij" unicode="&#x133;" horiz-adv-x="514" 
d="M68 -25v1057h108v-1057h-108zM125 1321q-27 0 -46.5 19t-19.5 46q0 26 20 45t46 19t45.5 -19t19.5 -45q0 -27 -19 -46t-46 -19zM143 -430q-158 -3 -252 127l89 53q60 -79 155 -76q81 2 136 55.5t55 145.5v1157h108v-1157q0 -140 -85.5 -221.5t-205.5 -83.5zM381 1315
q-27 0 -46.5 19.5t-19.5 47.5q0 25 20 44.5t46 19.5t45.5 -19.5t19.5 -44.5q0 -28 -19.5 -47.5t-45.5 -19.5z" />
    <glyph glyph-name="Jcircumflex" unicode="&#x134;" horiz-adv-x="1021" 
d="M485 -45q-103 0 -186 31.5t-134.5 84.5t-78.5 119.5t-27 141.5v84h111v-72q0 -122 81 -198t234 -76q369 0 369 424v956h109v-956q0 -253 -121.5 -396t-356.5 -143zM412 1518l141 202h92l141 -202h-86l-100 143l-102 -143h-86z" />
    <glyph glyph-name="jcircumflex" unicode="&#x135;" horiz-adv-x="436" 
d="M78 -430q-158 -3 -252 127l88 53q60 -79 156 -76q81 2 135.5 55.5t54.5 145.5v1157h109v-1157q0 -140 -85.5 -221.5t-205.5 -83.5zM31 1108l141 203h92l142 -203h-87l-100 143l-102 -143h-86z" />
    <glyph glyph-name="uni0136" unicode="&#x136;" horiz-adv-x="1234" 
d="M59 -25v1475h111v-860l49 53l774 807h154l-637 -666l666 -809h-146l-598 727l-262 -272v-455h-111zM541 -326q73 79 73 160v98h88v-84q0 -51 -27.5 -103.5t-70.5 -90.5z" />
    <glyph glyph-name="uni0137" unicode="&#x137;" horiz-adv-x="974" 
d="M59 -25v1475h109v-1065l577 647h150l-410 -457l426 -600h-135l-366 517l-242 -269v-248h-109zM412 -326q73 79 73 160v98h88v-84q0 -51 -27.5 -103.5t-70.5 -90.5z" />
    <glyph glyph-name="Lacute" unicode="&#x139;" 
d="M59 -25v1475h111v-1360h709v-115h-820zM295 1518l141 202h88l-143 -202h-86z" />
    <glyph glyph-name="lacute" unicode="&#x13a;" horiz-adv-x="227" 
d="M59 -25v1475h109v-1475h-109zM12 1530l142 203h88l-144 -203h-86z" />
    <glyph glyph-name="uni013B" unicode="&#x13b;" 
d="M59 -25v1475h111v-1360h709v-115h-820zM393 -326q74 80 74 160v98h88v-84q0 -51 -27.5 -103.5t-70.5 -90.5z" />
    <glyph glyph-name="uni013C" unicode="&#x13c;" horiz-adv-x="227" 
d="M59 -25v1475h109v-1475h-109zM37 -326q74 80 74 160v98h88v-84q0 -51 -28 -103.5t-71 -90.5z" />
    <glyph glyph-name="Lcaron" unicode="&#x13d;" 
d="M59 -25v1475h111v-1360h709v-115h-820zM338 797l141 202h88l-143 -202h-86z" />
    <glyph glyph-name="lcaron" unicode="&#x13e;" horiz-adv-x="227" 
d="M59 -25v1475h109v-1475h-109zM227 1108l142 203h88l-144 -203h-86z" />
    <glyph glyph-name="Lslash" unicode="&#x141;" 
d="M59 -25v572l-104 -19l-14 76l118 21v825h111v-805l164 29l14 -76l-178 -31v-477h709v-115h-820z" />
    <glyph glyph-name="lslash" unicode="&#x142;" horiz-adv-x="227" 
d="M59 -25v572l-104 -19l-14 76l118 21v825h109v-805l166 29l14 -76l-180 -33v-590h-109z" />
    <glyph glyph-name="Nacute" unicode="&#x143;" horiz-adv-x="1314" 
d="M59 -25v1475h113l973 -1260v1260h110v-1475h-79l-1006 1295v-1295h-111zM543 1518l141 202h88l-143 -202h-86z" />
    <glyph glyph-name="nacute" unicode="&#x144;" 
d="M59 -25v1057h109v-229q49 84 149.5 156.5t208.5 72.5q166 0 259.5 -113.5t93.5 -287.5v-656h-109v656q0 132 -70 210.5t-184 78.5q-115 0 -204.5 -78.5t-143.5 -202.5v-664h-109zM354 1108l142 203h88l-144 -203h-86z" />
    <glyph glyph-name="uni0145" unicode="&#x145;" horiz-adv-x="1314" 
d="M59 -25v1475h113l973 -1260v1260h110v-1475h-79l-1006 1295v-1295h-111zM580 -326q73 79 73 160v98h88v-84q0 -51 -27.5 -103.5t-70.5 -90.5z" />
    <glyph glyph-name="uni0146" unicode="&#x146;" 
d="M59 -25v1057h109v-229q49 84 149.5 156.5t208.5 72.5q166 0 259.5 -113.5t93.5 -287.5v-656h-109v656q0 132 -70 210.5t-184 78.5q-115 0 -204.5 -78.5t-143.5 -202.5v-664h-109zM393 -326q74 80 74 160v98h88v-84q0 -51 -27.5 -103.5t-70.5 -90.5z" />
    <glyph glyph-name="Ncaron" unicode="&#x147;" horiz-adv-x="1314" 
d="M59 -25v1475h113l973 -1260v1260h110v-1475h-79l-1006 1295v-1295h-111zM471 1718h86l100 -141l101 141h86l-142 -202h-90z" />
    <glyph glyph-name="ncaron" unicode="&#x148;" 
d="M59 -25v1057h109v-229q49 84 149.5 156.5t208.5 72.5q166 0 259.5 -113.5t93.5 -287.5v-656h-109v656q0 132 -70 210.5t-184 78.5q-115 0 -204.5 -78.5t-143.5 -202.5v-664h-109zM285 1309h86l100 -142l100 142h86l-141 -203h-90z" />
    <glyph glyph-name="Omacron" unicode="&#x14c;" horiz-adv-x="1437" 
d="M719 -45q-135 0 -255.5 54t-210 150.5t-142 240.5t-52.5 315q0 172 52.5 316.5t142 241t209.5 150.5t256 54q135 0 255.5 -54t210 -150.5t141.5 -241t52 -316.5q0 -171 -51.5 -315t-140.5 -241t-209.5 -150.5t-257.5 -53.5zM719 70q115 0 214.5 43.5t174 124.5t117.5 204
t43 273q0 151 -43 274.5t-117.5 204t-174 124.5t-214.5 44t-214.5 -44t-174 -124.5t-117.5 -204t-43 -274.5q0 -150 43 -273t117.5 -204t174 -124.5t214.5 -43.5zM520 1657h395v-80h-395v80z" />
    <glyph glyph-name="omacron" unicode="&#x14d;" horiz-adv-x="1034" 
d="M516 -25q-91 0 -173 36t-145.5 101.5t-101 167t-37.5 224.5t37.5 224.5t101 167t145.5 101t173 35.5t173.5 -35.5t146.5 -101t101.5 -167t37.5 -224.5t-38 -224.5t-102 -167t-146 -101.5t-173 -36zM516 88q147 0 247.5 110t100.5 306t-100.5 306t-247.5 110
q-146 0 -247 -110.5t-101 -305.5t101 -305.5t247 -110.5zM317 1247h396v-80h-396v80z" />
    <glyph glyph-name="Ohungarumlaut" unicode="&#x150;" horiz-adv-x="1437" 
d="M719 -45q-135 0 -255.5 54t-210 150.5t-142 240.5t-52.5 315q0 172 52.5 316.5t142 241t209.5 150.5t256 54q135 0 255.5 -54t210 -150.5t141.5 -241t52 -316.5q0 -171 -51.5 -315t-140.5 -241t-209.5 -150.5t-257.5 -53.5zM719 70q115 0 214.5 43.5t174 124.5t117.5 204
t43 273q0 151 -43 274.5t-117.5 204t-174 124.5t-214.5 44t-214.5 -44t-174 -124.5t-117.5 -204t-43 -274.5q0 -150 43 -273t117.5 -204t174 -124.5t214.5 -43.5zM528 1518l142 202h88l-144 -202h-86zM676 1518l141 202h88l-143 -202h-86z" />
    <glyph glyph-name="ohungarumlaut" unicode="&#x151;" horiz-adv-x="1034" 
d="M516 -25q-91 0 -173 36t-145.5 101.5t-101 167t-37.5 224.5t37.5 224.5t101 167t145.5 101t173 35.5t173.5 -35.5t146.5 -101t101.5 -167t37.5 -224.5t-38 -224.5t-102 -167t-146 -101.5t-173 -36zM516 88q147 0 247.5 110t100.5 306t-100.5 306t-247.5 110
q-146 0 -247 -110.5t-101 -305.5t101 -305.5t247 -110.5zM328 1108l141 203h88l-143 -203h-86zM475 1108l141 203h89l-144 -203h-86z" />
    <glyph glyph-name="OE" unicode="&#x152;" horiz-adv-x="2275" 
d="M719 -45q-135 0 -255.5 54t-210 150.5t-142 240.5t-52.5 315q0 172 52.5 316.5t142 241t209.5 150.5t256 54q171 0 314.5 -83t232.5 -233v279h934v-115h-824v-541h764v-112h-762l-2 -25v-567h838v-115h-948v303q-89 -149 -232 -231t-315 -82zM719 70q109 0 204 39
t168.5 112t119.5 183.5t55 246.5v127q-9 137 -55 248t-119.5 184t-168.5 112.5t-204 39.5q-115 0 -214.5 -44t-174 -124.5t-117.5 -204t-43 -274.5q0 -150 43 -273t117.5 -204t174 -124.5t214.5 -43.5z" />
    <glyph glyph-name="oe" unicode="&#x153;" horiz-adv-x="1835" 
d="M516 -25q-91 0 -173 36t-145.5 101.5t-101 167t-37.5 224.5t37.5 224.5t101 167t145.5 101t173 35.5q135 0 246.5 -74.5t167.5 -209.5q58 125 162.5 198.5t244.5 73.5q134 0 236.5 -66.5t154.5 -178.5t48 -249l-2 -73h-787q6 -172 112.5 -274.5t254.5 -102.5q95 0 170 44
t125 109l96 -41q-59 -98 -162 -161.5t-229 -63.5q-143 0 -256.5 76.5t-171.5 208.5q-59 -130 -169.5 -201.5t-240.5 -71.5zM516 88q147 0 247.5 110t100.5 306t-100.5 306t-247.5 110q-146 0 -247 -110.5t-101 -305.5t101 -305.5t247 -110.5zM1667 547q-3 158 -91 259
t-239 101q-140 0 -237.5 -98t-114.5 -262h682z" />
    <glyph glyph-name="Racute" unicode="&#x154;" horiz-adv-x="1183" 
d="M59 -25v1475h537q225 0 357 -129t130 -340q0 -112 -36.5 -200t-119.5 -150.5t-206 -81.5l403 -574h-139l-387 551h-428v-551h-111zM590 641q199 0 290 86t91 254q0 166 -100.5 260t-276.5 94h-424v-694h420zM475 1518l141 202h89l-144 -202h-86z" />
    <glyph glyph-name="racute" unicode="&#x155;" horiz-adv-x="835" 
d="M59 -25v1057h109v-209q18 38 65 85t120 85.5t141 38.5q136 0 209 -90.5t73 -245.5v-73h-102v75q0 99 -50 160.5t-141 61.5q-104 0 -187.5 -79t-127.5 -200v-666h-109zM303 1108l141 203h88l-143 -203h-86z" />
    <glyph glyph-name="uni0156" unicode="&#x156;" horiz-adv-x="1183" 
d="M59 -25v1475h537q225 0 357 -129t130 -340q0 -112 -36.5 -200t-119.5 -150.5t-206 -81.5l403 -574h-139l-387 551h-428v-551h-111zM590 641q199 0 290 86t91 254q0 166 -100.5 260t-276.5 94h-424v-694h420zM514 -326q74 80 74 160v98h88v-84q0 -51 -27.5 -103.5
t-70.5 -90.5z" />
    <glyph glyph-name="uni0157" unicode="&#x157;" horiz-adv-x="835" 
d="M59 -25v1057h109v-209q18 38 65 85t120 85.5t141 38.5q136 0 209 -90.5t73 -245.5v-73h-102v75q0 99 -50 160.5t-141 61.5q-104 0 -187.5 -79t-127.5 -200v-666h-109zM14 -344q74 80 74 160v98h88v-84q0 -51 -27.5 -104t-70.5 -91z" />
    <glyph glyph-name="Rcaron" unicode="&#x158;" horiz-adv-x="1183" 
d="M59 -25v1475h537q225 0 357 -129t130 -340q0 -112 -36.5 -200t-119.5 -150.5t-206 -81.5l403 -574h-139l-387 551h-428v-551h-111zM590 641q199 0 290 86t91 254q0 166 -100.5 260t-276.5 94h-424v-694h420zM406 1718h86l100 -141l100 141h86l-141 -202h-90z" />
    <glyph glyph-name="rcaron" unicode="&#x159;" horiz-adv-x="835" 
d="M59 -25v1057h109v-209q18 38 65 85t120 85.5t141 38.5q136 0 209 -90.5t73 -245.5v-73h-102v75q0 99 -50 160.5t-141 61.5q-104 0 -187.5 -79t-127.5 -200v-666h-109zM233 1309h86l101 -142l100 142h86l-141 -203h-90z" />
    <glyph glyph-name="Sacute" unicode="&#x15a;" horiz-adv-x="1185" 
d="M610 -45q-254 0 -401.5 123t-147.5 356h109q-1 -172 114.5 -269t319.5 -97q102 0 182.5 28t129 75.5t73.5 106.5t25 125q0 108 -67.5 174.5t-211.5 79.5l-336 31q-340 33 -340 342q0 83 32.5 161.5t93.5 143t161.5 103.5t224.5 39q235 0 371.5 -116.5t140.5 -340.5h-110
q-6 161 -105 252.5t-297 91.5q-181 0 -291 -96t-110 -234q0 -106 62.5 -161.5t197.5 -67.5l332 -33q95 -8 167 -40t114 -81.5t62.5 -110t20.5 -130.5q0 -83 -29.5 -161t-89 -145t-162.5 -108t-235 -41zM477 1518l141 202h89l-144 -202h-86z" />
    <glyph glyph-name="sacute" unicode="&#x15b;" horiz-adv-x="899" 
d="M461 -25q-185 0 -291.5 89t-106.5 251h109q0 -108 71 -170.5t222 -62.5q128 0 196 58.5t68 140.5q0 72 -43.5 114.5t-153.5 55.5l-221 24q-130 14 -191 78.5t-61 167.5q0 126 101.5 218.5t267.5 92.5q179 0 275 -83.5t96 -237.5l-105 2q0 101 -65.5 157t-200.5 56
q-125 0 -192.5 -60t-67.5 -137q0 -62 41.5 -97.5t134.5 -45.5l201 -25q68 -7 119.5 -24.5t84.5 -42t53.5 -58.5t28.5 -70t9 -81q0 -126 -100 -218t-279 -92zM334 1108l141 203h88l-143 -203h-86z" />
    <glyph glyph-name="Scircumflex" unicode="&#x15c;" horiz-adv-x="1185" 
d="M610 -45q-254 0 -401.5 123t-147.5 356h109q-1 -172 114.5 -269t319.5 -97q102 0 182.5 28t129 75.5t73.5 106.5t25 125q0 108 -67.5 174.5t-211.5 79.5l-336 31q-340 33 -340 342q0 83 32.5 161.5t93.5 143t161.5 103.5t224.5 39q235 0 371.5 -116.5t140.5 -340.5h-110
q-6 161 -105 252.5t-297 91.5q-181 0 -291 -96t-110 -234q0 -106 62.5 -161.5t197.5 -67.5l332 -33q95 -8 167 -40t114 -81.5t62.5 -110t20.5 -130.5q0 -83 -29.5 -161t-89 -145t-162.5 -108t-235 -41zM406 1518l141 202h92l141 -202h-86l-100 143l-102 -143h-86z" />
    <glyph glyph-name="scircumflex" unicode="&#x15d;" horiz-adv-x="899" 
d="M461 -25q-185 0 -291.5 89t-106.5 251h109q0 -108 71 -170.5t222 -62.5q128 0 196 58.5t68 140.5q0 72 -43.5 114.5t-153.5 55.5l-221 24q-130 14 -191 78.5t-61 167.5q0 126 101.5 218.5t267.5 92.5q179 0 275 -83.5t96 -237.5l-105 2q0 101 -65.5 157t-200.5 56
q-125 0 -192.5 -60t-67.5 -137q0 -62 41.5 -97.5t134.5 -45.5l201 -25q68 -7 119.5 -24.5t84.5 -42t53.5 -58.5t28.5 -70t9 -81q0 -126 -100 -218t-279 -92zM262 1108l141 203h93l141 -203h-86l-100 143l-103 -143h-86z" />
    <glyph glyph-name="Scedilla" unicode="&#x15e;" horiz-adv-x="1185" 
d="M610 -45l-55 2l-14 -96q25 10 59 10q67 0 109.5 -33.5t42.5 -93.5t-46 -101.5t-114 -50.5q-64 -9 -139 21l20 55q51 -27 119 -14q43 6 69.5 29t26.5 61q0 35 -24 53.5t-66 18.5t-104 -21l-23 25l23 143q-203 27 -318 147t-115 324h109q-1 -172 114.5 -269t319.5 -97
q102 0 182.5 28t129 75.5t73.5 106.5t25 125q0 108 -67.5 174.5t-211.5 79.5l-336 31q-340 33 -340 342q0 83 32.5 161.5t93.5 143t161.5 103.5t224.5 39q235 0 371.5 -116.5t140.5 -340.5h-110q-6 161 -105 252.5t-297 91.5q-181 0 -291 -96t-110 -234q0 -106 62.5 -161.5
t197.5 -67.5l332 -33q95 -8 167 -40t114 -81.5t62.5 -110t20.5 -130.5q0 -83 -29.5 -161t-89 -145t-162.5 -108t-235 -41z" />
    <glyph glyph-name="scedilla" unicode="&#x15f;" horiz-adv-x="899" 
d="M461 -25l-55 2l-19 -114q25 10 59 10q67 0 109.5 -33.5t42.5 -93.5t-46 -101.5t-114 -50.5q-64 -9 -139 21l20 55q51 -27 119 -14q43 6 70 29t27 61q0 35 -24.5 53.5t-66.5 18.5t-104 -21l-23 25l25 164q-133 27 -206 111t-73 218h109q0 -108 71 -170.5t222 -62.5
q128 0 196 58.5t68 140.5q0 72 -43.5 114.5t-153.5 55.5l-221 24q-130 14 -191 78.5t-61 167.5q0 126 101.5 218.5t267.5 92.5q179 0 275 -83.5t96 -237.5l-105 2q0 101 -65.5 157t-200.5 56q-125 0 -192.5 -60t-67.5 -137q0 -62 41.5 -97.5t134.5 -45.5l201 -25
q68 -7 119.5 -24.5t84.5 -42t53.5 -58.5t28.5 -70t9 -81q0 -126 -100 -218t-279 -92z" />
    <glyph glyph-name="Scaron" unicode="&#x160;" horiz-adv-x="1185" 
d="M610 -45q-254 0 -401.5 123t-147.5 356h109q-1 -172 114.5 -269t319.5 -97q102 0 182.5 28t129 75.5t73.5 106.5t25 125q0 108 -67.5 174.5t-211.5 79.5l-336 31q-340 33 -340 342q0 83 32.5 161.5t93.5 143t161.5 103.5t224.5 39q235 0 371.5 -116.5t140.5 -340.5h-110
q-6 161 -105 252.5t-297 91.5q-181 0 -291 -96t-110 -234q0 -106 62.5 -161.5t197.5 -67.5l332 -33q95 -8 167 -40t114 -81.5t62.5 -110t20.5 -130.5q0 -83 -29.5 -161t-89 -145t-162.5 -108t-235 -41zM408 1718h86l100 -141l100 141h86l-141 -202h-90z" />
    <glyph glyph-name="scaron" unicode="&#x161;" horiz-adv-x="899" 
d="M461 -25q-185 0 -291.5 89t-106.5 251h109q0 -108 71 -170.5t222 -62.5q128 0 196 58.5t68 140.5q0 72 -43.5 114.5t-153.5 55.5l-221 24q-130 14 -191 78.5t-61 167.5q0 126 101.5 218.5t267.5 92.5q179 0 275 -83.5t96 -237.5l-105 2q0 101 -65.5 157t-200.5 56
q-125 0 -192.5 -60t-67.5 -137q0 -62 41.5 -97.5t134.5 -45.5l201 -25q68 -7 119.5 -24.5t84.5 -42t53.5 -58.5t28.5 -70t9 -81q0 -126 -100 -218t-279 -92zM262 1309h86l101 -142l100 142h86l-141 -203h-91z" />
    <glyph glyph-name="uni0162" unicode="&#x162;" horiz-adv-x="1298" 
d="M639 -406q-64 -9 -139 21l20 55q51 -27 119 -14q43 6 69.5 29t26.5 61q0 35 -24 53.5t-66 18.5t-104 -21l-23 25l29 184h47v1331h-535v113h1180v-113h-534v-1362h-99l-18 -112q25 10 59 10q67 0 109.5 -33.5t42.5 -93.5t-46 -101.5t-114 -50.5z" />
    <glyph glyph-name="uni0163" unicode="&#x163;" horiz-adv-x="702" 
d="M246 -406q-65 -9 -140 21l21 55q51 -27 119 -14q43 6 69.5 29t26.5 61q0 35 -24 53.5t-66 18.5q-43 0 -105 -21l-22 25l29 184h53v924h-148v102h148v418h108v-418h328v-102h-328v-955h-102l-18 -112q25 10 59 10q67 0 109.5 -33.5t42.5 -93.5t-46 -101.5t-114 -50.5z" />
    <glyph glyph-name="Tcaron" unicode="&#x164;" horiz-adv-x="1298" 
d="M594 -25v1362h-535v113h1180v-113h-534v-1362h-111zM463 1718h86l100 -141l101 141h86l-142 -202h-90z" />
    <glyph glyph-name="tcaron" unicode="&#x165;" horiz-adv-x="702" 
d="M207 -25v955h-148v102h148v418h108v-418h328v-102h-328v-955h-108zM418 1108l141 203h88l-143 -203h-86z" />
    <glyph glyph-name="Utilde" unicode="&#x168;" horiz-adv-x="1294" 
d="M647 -29q-271 0 -429.5 182.5t-158.5 528.5v768h111v-768q0 -303 125.5 -450.5t351.5 -147.5q231 0 355 147t124 451v768h109v-768q0 -347 -157 -529t-431 -182zM862 1657q-17 -137 -108 -137q-44 0 -99 55q-27 27 -42.5 37t-32.5 10q-34 0 -53.5 -24t-28.5 -78h-64
q9 78 47 122t99 44q56 0 122 -66q24 -24 33.5 -30.5t18.5 -6.5q18 0 28 15t17 59h63z" />
    <glyph glyph-name="utilde" unicode="&#x169;" 
d="M414 -25q-166 0 -260.5 114t-94.5 288v655h109v-655q0 -131 71 -210t185 -79q114 1 203.5 79.5t142.5 201.5v663h109v-1057h-109v228q-51 -84 -150 -156t-206 -72zM684 1247q-17 -137 -109 -137q-43 0 -98 55q-47 47 -76 47q-34 0 -53.5 -24t-28.5 -78h-63q9 78 46.5 122
t98.5 44q57 0 123 -66q24 -24 33 -30t18 -6q18 0 28.5 14.5t17.5 58.5h63z" />
    <glyph glyph-name="Umacron" unicode="&#x16a;" horiz-adv-x="1294" 
d="M647 -29q-271 0 -429.5 182.5t-158.5 528.5v768h111v-768q0 -303 125.5 -450.5t351.5 -147.5q231 0 355 147t124 451v768h109v-768q0 -347 -157 -529t-431 -182zM449 1657h395v-80h-395v80z" />
    <glyph glyph-name="umacron" unicode="&#x16b;" 
d="M414 -25q-166 0 -260.5 114t-94.5 288v655h109v-655q0 -131 71 -210t185 -79q114 1 203.5 79.5t142.5 201.5v663h109v-1057h-109v228q-51 -84 -150 -156t-206 -72zM272 1247h396v-80h-396v80z" />
    <glyph glyph-name="Ubreve" unicode="&#x16c;" horiz-adv-x="1294" 
d="M647 -29q-271 0 -429.5 182.5t-158.5 528.5v768h111v-768q0 -303 125.5 -450.5t351.5 -147.5q231 0 355 147t124 451v768h109v-768q0 -347 -157 -529t-431 -182zM858 1710q-17 -83 -76.5 -137.5t-134.5 -54.5q-79 0 -137.5 54t-73.5 138h66q12 -55 52 -92t93 -37t94 38.5
t52 90.5h65z" />
    <glyph glyph-name="ubreve" unicode="&#x16d;" 
d="M414 -25q-166 0 -260.5 114t-94.5 288v655h109v-655q0 -131 71 -210t185 -79q114 1 203.5 79.5t142.5 201.5v663h109v-1057h-109v228q-51 -84 -150 -156t-206 -72zM682 1300q-17 -83 -76.5 -137.5t-134.5 -54.5q-79 0 -137.5 54t-73.5 138h66q12 -55 52 -92t93 -37
t93.5 38.5t51.5 90.5h66z" />
    <glyph glyph-name="Uring" unicode="&#x16e;" horiz-adv-x="1294" 
d="M647 -29q-271 0 -429.5 182.5t-158.5 528.5v768h111v-768q0 -303 125.5 -450.5t351.5 -147.5q231 0 355 147t124 451v768h109v-768q0 -347 -157 -529t-431 -182zM647 1513q-47 0 -77.5 31t-30.5 76q0 41 31 71.5t77 30.5q45 0 76 -30.5t31 -71.5q0 -45 -31 -76t-76 -31z
M647 1567q24 0 37.5 15t11.5 38q0 19 -13 33t-36 14q-22 0 -35.5 -13.5t-13.5 -33.5q0 -23 13.5 -38t35.5 -15z" />
    <glyph glyph-name="uring" unicode="&#x16f;" 
d="M414 -25q-166 0 -260.5 114t-94.5 288v655h109v-655q0 -131 71 -210t185 -79q114 1 203.5 79.5t142.5 201.5v663h109v-1057h-109v228q-51 -84 -150 -156t-206 -72zM471 1104q-47 0 -78 30.5t-31 75.5q0 41 31.5 72t77.5 31q45 0 76 -31t31 -72q0 -44 -31 -75t-76 -31z
M471 1157q24 0 37.5 15t11.5 38q0 19 -13 33t-36 14q-22 0 -35.5 -13.5t-13.5 -33.5q0 -23 13.5 -38t35.5 -15z" />
    <glyph glyph-name="Uhungarumlaut" unicode="&#x170;" horiz-adv-x="1294" 
d="M647 -29q-271 0 -429.5 182.5t-158.5 528.5v768h111v-768q0 -303 125.5 -450.5t351.5 -147.5q231 0 355 147t124 451v768h109v-768q0 -347 -157 -529t-431 -182zM459 1518l141 202h88l-143 -202h-86zM606 1518l142 202h88l-144 -202h-86z" />
    <glyph glyph-name="uhungarumlaut" unicode="&#x171;" 
d="M414 -25q-166 0 -260.5 114t-94.5 288v655h109v-655q0 -131 71 -210t185 -79q114 1 203.5 79.5t142.5 201.5v663h109v-1057h-109v228q-51 -84 -150 -156t-206 -72zM281 1108l141 203h88l-143 -203h-86zM428 1108l141 203h88l-143 -203h-86z" />
    <glyph glyph-name="Uogonek" unicode="&#x172;" horiz-adv-x="1294" 
d="M647 -29q-271 0 -429.5 182.5t-158.5 528.5v768h111v-768q0 -303 125.5 -450.5t351.5 -147.5q231 0 355 147t124 451v768h109v-768q0 -244 -78.5 -407t-224.5 -240q17 0 35 -6l67 -43l-22 -25q-60 23 -103 23t-67.5 -19t-24.5 -53q0 -74 96 -92q64 -12 121 16l19 -57
q-75 -30 -140 -21q-68 9 -113.5 51t-45.5 103q0 41 22 72q-67 -13 -129 -13z" />
    <glyph glyph-name="uogonek" unicode="&#x173;" 
d="M414 -25q-166 0 -260.5 114t-94.5 288v655h109v-655q0 -131 71 -210t185 -79q114 1 203.5 79.5t142.5 201.5v663h109v-1052l2 -3l-23 -24q-57 22 -102 22q-43 0 -67.5 -18.5t-24.5 -52.5q0 -74 96 -92q64 -12 121 16l18 -57q-75 -30 -139 -21q-69 9 -114.5 51t-45.5 103
q0 59 43.5 92t110.5 33h16v174q-51 -84 -150 -156t-206 -72z" />
    <glyph glyph-name="Wcircumflex" unicode="&#x174;" horiz-adv-x="2162" 
d="M608 -25l-549 1475h119l455 -1235l409 1235h78l410 -1235l455 1235h118l-549 -1475h-53l-418 1260l-419 -1260h-56zM895 1518l141 202h92l142 -202h-86l-101 143l-102 -143h-86z" />
    <glyph glyph-name="wcircumflex" unicode="&#x175;" horiz-adv-x="1452" 
d="M410 -25l-351 1057h115l264 -809l260 809h58l260 -809l262 809h115l-346 -1057h-60l-260 811l-260 -811h-57zM539 1108l141 203h92l141 -203h-86l-100 143l-102 -143h-86z" />
    <glyph glyph-name="Ycircumflex" unicode="&#x176;" horiz-adv-x="1263" 
d="M578 -25v631l-519 844h134l440 -727l438 727h133l-516 -844v-631h-110zM444 1518l142 202h92l141 -202h-86l-100 143l-103 -143h-86z" />
    <glyph glyph-name="ycircumflex" unicode="&#x177;" horiz-adv-x="1034" 
d="M350 -408l154 437l-445 1003h119l350 -790l29 -66l303 856h115l-508 -1440h-117zM330 1108l141 203h92l142 -203h-87l-100 143l-102 -143h-86z" />
    <glyph glyph-name="Ydieresis" unicode="&#x178;" horiz-adv-x="1263" 
d="M578 -25v631l-519 844h134l440 -727l438 727h133l-516 -844v-631h-110zM549 1534q-32 0 -56 24t-24 56q0 34 24 58t56 24q34 0 58 -24t24 -58q0 -32 -24 -56t-58 -24zM715 1534q-32 0 -56 24t-24 56q0 34 24 58t56 24q34 0 58 -24t24 -58q0 -32 -24 -56t-58 -24z" />
    <glyph glyph-name="Zacute" unicode="&#x179;" horiz-adv-x="1177" 
d="M59 -25v97l908 1265h-908v113h1059v-96l-907 -1264h907v-115h-1059zM473 1518l141 202h88l-143 -202h-86z" />
    <glyph glyph-name="zacute" unicode="&#x17a;" horiz-adv-x="858" 
d="M59 -25v86l586 859h-577v112h729v-84l-588 -862l590 2v-113h-740zM313 1108l142 203h88l-144 -203h-86z" />
    <glyph glyph-name="Zdotaccent" unicode="&#x17b;" horiz-adv-x="1177" 
d="M59 -25v97l908 1265h-908v113h1059v-96l-907 -1264h907v-115h-1059zM588 1534q-32 0 -56 24t-24 56q0 34 24 58t56 24q34 0 58 -24t24 -58q0 -32 -24 -56t-58 -24z" />
    <glyph glyph-name="zdotaccent" unicode="&#x17c;" horiz-adv-x="858" 
d="M59 -25v86l586 859h-577v112h729v-84l-588 -862l590 2v-113h-740zM430 1124q-32 0 -56 24t-24 56q0 34 24 58t56 24q34 0 58 -24t24 -58q0 -32 -24 -56t-58 -24z" />
    <glyph glyph-name="Zcaron" unicode="&#x17d;" horiz-adv-x="1177" 
d="M59 -25v97l908 1265h-908v113h1059v-96l-907 -1264h907v-115h-1059zM403 1718h86l101 -141l100 141h86l-141 -202h-90z" />
    <glyph glyph-name="zcaron" unicode="&#x17e;" horiz-adv-x="858" 
d="M59 -25v86l586 859h-577v112h729v-84l-588 -862l590 2v-113h-740zM244 1309h86l100 -142l100 142h86l-141 -203h-90z" />
    <glyph glyph-name="uni018F" unicode="&#x18f;" horiz-adv-x="1382" 
d="M651 1462q189 0 342 -94t241.5 -265.5t88.5 -387.5q0 -150 -45.5 -285t-128 -237.5t-206 -163t-269.5 -60.5q-188 0 -330.5 91t-214.5 245.5t-66 345.5l7 97h1138q-1 136 -47 250t-123 189.5t-177 117t-210 41.5q-275 0 -469 -252l-88 63q224 305 557 305zM180 627
q2 -116 34 -213.5t92.5 -171t154.5 -115t213 -41.5q217 0 362 148.5t168 394.5z" />
    <glyph glyph-name="uni0218" unicode="&#x218;" horiz-adv-x="1185" 
d="M610 -45q-254 0 -401.5 123t-147.5 356h109q-1 -172 114.5 -269t319.5 -97q102 0 182.5 28t129 75.5t73.5 106.5t25 125q0 108 -67.5 174.5t-211.5 79.5l-336 31q-340 33 -340 342q0 83 32.5 161.5t93.5 143t161.5 103.5t224.5 39q235 0 371.5 -116.5t140.5 -340.5h-110
q-6 161 -105 252.5t-297 91.5q-181 0 -291 -96t-110 -234q0 -106 62.5 -161.5t197.5 -67.5l332 -33q95 -8 167 -40t114 -81.5t62.5 -110t20.5 -130.5q0 -83 -29.5 -161t-89 -145t-162.5 -108t-235 -41zM524 -328q74 80 74 160v98h88v-84q0 -51 -27.5 -103.5t-70.5 -90.5z
" />
    <glyph glyph-name="uni0219" unicode="&#x219;" horiz-adv-x="899" 
d="M461 -25q-185 0 -291.5 89t-106.5 251h109q0 -108 71 -170.5t222 -62.5q128 0 196 58.5t68 140.5q0 72 -43.5 114.5t-153.5 55.5l-221 24q-130 14 -191 78.5t-61 167.5q0 126 101.5 218.5t267.5 92.5q179 0 275 -83.5t96 -237.5l-105 2q0 101 -65.5 157t-200.5 56
q-125 0 -192.5 -60t-67.5 -137q0 -62 41.5 -97.5t134.5 -45.5l201 -25q68 -7 119.5 -24.5t84.5 -42t53.5 -58.5t28.5 -70t9 -81q0 -126 -100 -218t-279 -92zM373 -326q73 79 73 160v98h89v-84q0 -51 -28 -103.5t-71 -90.5z" />
    <glyph glyph-name="uni021A" unicode="&#x21a;" horiz-adv-x="1298" 
d="M594 -25v1362h-535v113h1180v-113h-534v-1362h-111zM573 -326q74 80 74 160v98h88v-84q0 -51 -27.5 -103.5t-70.5 -90.5z" />
    <glyph glyph-name="uni021B" unicode="&#x21b;" horiz-adv-x="702" 
d="M207 -25v955h-148v102h148v418h108v-418h328v-102h-328v-955h-108zM180 -326q74 80 74 160v98h88v-84q0 -51 -27.5 -103.5t-70.5 -90.5z" />
    <glyph glyph-name="uni0237" unicode="&#x237;" horiz-adv-x="436" 
d="M78 -430q-158 -3 -252 127l88 53q60 -79 156 -76q81 2 135.5 55.5t54.5 145.5v1157h109v-1157q0 -140 -85.5 -221.5t-205.5 -83.5z" />
    <glyph glyph-name="uni0259" unicode="&#x259;" horiz-adv-x="1017" 
d="M481 1049q205 0 341 -149.5t136 -379.5q0 -105 -32.5 -200.5t-90.5 -168.5t-145.5 -116t-191.5 -43q-134 0 -236.5 66t-154.5 178t-48 249l2 74h787q-6 172 -112.5 274.5t-254.5 102.5q-95 0 -170 -44.5t-125 -109.5l-96 41q59 99 162 162.5t229 63.5zM168 465
q3 -159 91 -260t239 -101q140 0 237.5 98.5t114.5 262.5h-682z" />
    <glyph glyph-name="circumflex" unicode="&#x2c6;" horiz-adv-x="372" 
d="M0 1108l141 203h92l142 -203h-86l-101 143l-102 -143h-86z" />
    <glyph glyph-name="caron" unicode="&#x2c7;" horiz-adv-x="372" 
d="M-2 1309h86l100 -142l101 142h86l-142 -203h-90z" />
    <glyph glyph-name="breve" unicode="&#x2d8;" horiz-adv-x="421" 
d="M422 1300q-17 -83 -76.5 -137.5t-134.5 -54.5q-79 0 -137.5 54t-73.5 138h66q12 -55 52 -92t93 -37t93.5 38.5t51.5 90.5h66z" />
    <glyph glyph-name="dotaccent" unicode="&#x2d9;" horiz-adv-x="161" 
d="M80 1124q-32 0 -56 24t-24 56q0 34 24 58t56 24q34 0 58 -24t24 -58q0 -32 -24 -56t-58 -24z" />
    <glyph glyph-name="ring" unicode="&#x2da;" horiz-adv-x="215" 
d="M109 1104q-47 0 -78 30.5t-31 75.5q0 41 31.5 72t77.5 31q45 0 75.5 -31t30.5 -72q0 -45 -30.5 -75.5t-75.5 -30.5zM109 1157q24 0 37.5 15t11.5 38q0 19 -13 33t-36 14t-36.5 -13.5t-13.5 -33.5q0 -23 14 -38t36 -15z" />
    <glyph glyph-name="ogonek" unicode="&#x2db;" horiz-adv-x="299" 
d="M160 -346q-69 9 -114.5 50.5t-45.5 102.5q0 59 43.5 92t110.5 33q28 0 59 -8l68 -43l-23 -24q-57 22 -102 22q-43 0 -68 -19t-25 -53q0 -74 97 -92q62 -12 121 17l18 -58q-73 -29 -139 -20z" />
    <glyph glyph-name="tilde" unicode="&#x2dc;" horiz-adv-x="428" 
d="M428 1247q-17 -137 -109 -137q-43 0 -98 55q-47 47 -76 47q-34 0 -53.5 -24t-28.5 -78h-63q9 78 46.5 122t98.5 44q57 0 123 -66q24 -24 33 -30t18 -6q18 0 28.5 14.5t17.5 58.5h63z" />
    <glyph glyph-name="hungarumlaut" unicode="&#x2dd;" horiz-adv-x="376" 
d="M0 1108l141 203h88l-143 -203h-86zM147 1108l142 203h88l-144 -203h-86z" />
    <glyph glyph-name="gravecomb" unicode="&#x300;" horiz-adv-x="0" 
d="M229 1108h-86l-143 203h88z" />
    <glyph glyph-name="acutecomb" unicode="&#x301;" horiz-adv-x="0" 
d="M0 1108l141 203h88l-143 -203h-86z" />
    <glyph glyph-name="uni0302" unicode="&#x302;" horiz-adv-x="0" 
d="M0 1108l141 203h92l142 -203h-86l-101 143l-102 -143h-86z" />
    <glyph glyph-name="tildecomb" unicode="&#x303;" horiz-adv-x="0" 
d="M428 1247q-17 -137 -109 -137q-43 0 -98 55q-47 47 -76 47q-34 0 -53.5 -24t-28.5 -78h-63q9 78 46.5 122t98.5 44q57 0 123 -66q24 -24 33 -30t18 -6q18 0 28.5 14.5t17.5 58.5h63z" />
    <glyph glyph-name="uni0304" unicode="&#x304;" horiz-adv-x="0" 
d="M0 1247h395v-80h-395v80z" />
    <glyph glyph-name="uni0306" unicode="&#x306;" horiz-adv-x="0" 
d="M422 1300q-17 -83 -76.5 -137.5t-134.5 -54.5q-79 0 -137.5 54t-73.5 138h66q12 -55 52 -92t93 -37t93.5 38.5t51.5 90.5h66z" />
    <glyph glyph-name="uni0307" unicode="&#x307;" horiz-adv-x="0" 
d="M80 1124q-32 0 -56 24t-24 56q0 34 24 58t56 24q34 0 58 -24t24 -58q0 -32 -24 -56t-58 -24z" />
    <glyph glyph-name="uni0308" unicode="&#x308;" horiz-adv-x="0" 
d="M80 1124q-32 0 -56 24t-24 56q0 34 24 58t56 24q34 0 58 -24t24 -58q0 -32 -24 -56t-58 -24zM246 1124q-32 0 -56 24t-24 56q0 34 24 58t56 24q34 0 58 -24t24 -58q0 -32 -24 -56t-58 -24z" />
    <glyph glyph-name="uni030A" unicode="&#x30a;" horiz-adv-x="0" 
d="M109 1104q-47 0 -78 30.5t-31 75.5q0 41 31.5 72t77.5 31q45 0 75.5 -31t30.5 -72q0 -45 -30.5 -75.5t-75.5 -30.5zM109 1157q24 0 37.5 15t11.5 38q0 19 -13 33t-36 14t-36.5 -13.5t-13.5 -33.5q0 -23 14 -38t36 -15z" />
    <glyph glyph-name="uni030B" unicode="&#x30b;" horiz-adv-x="0" 
d="M0 1108l141 203h88l-143 -203h-86zM147 1108l142 203h88l-144 -203h-86z" />
    <glyph glyph-name="uni030C" unicode="&#x30c;" horiz-adv-x="0" 
d="M-2 1309h86l100 -142l101 142h86l-142 -203h-90z" />
    <glyph glyph-name="uni0312" unicode="&#x312;" horiz-adv-x="0" 
d="M152 1317q-74 -71 -74 -139v-86h-88v73q0 43 27.5 89t70.5 81z" />
    <glyph glyph-name="uni0326" unicode="&#x326;" horiz-adv-x="0" 
d="M-2 -326q74 80 74 160v98h88v-84q0 -51 -28 -103.5t-71 -90.5z" />
    <glyph glyph-name="uni0327" unicode="&#x327;" horiz-adv-x="0" 
d="M152 -406q-65 -9 -140 21l21 55q51 -27 119 -14q43 6 69.5 29t26.5 61q0 35 -24 53.5t-66 18.5q-43 0 -105 -21l-22 25l28 184h64l-23 -143q25 10 60 10q67 0 109 -33.5t42 -93.5t-45.5 -101.5t-113.5 -50.5z" />
    <glyph glyph-name="uni0328" unicode="&#x328;" horiz-adv-x="0" 
d="M160 -346q-69 9 -114.5 50.5t-45.5 102.5q0 59 43.5 92t110.5 33q28 0 59 -8l68 -43l-23 -24q-57 22 -102 22q-43 0 -68 -19t-25 -53q0 -74 97 -92q62 -12 121 17l18 -58q-73 -29 -139 -20z" />
    <glyph glyph-name="uni1E20" unicode="&#x1e20;" horiz-adv-x="1427" 
d="M719 -45q-135 0 -255.5 54t-210 150.5t-142 240.5t-52.5 315q0 172 52.5 316.5t142 241t209.5 150.5t256 54q247 0 424 -161.5t221 -434.5h-111q-27 150 -104 260t-187.5 165.5t-242.5 55.5q-111 0 -210 -44t-175 -124.5t-120 -204.5t-44 -274t44 -273t119.5 -203.5
t174.5 -124.5t211 -44q199 0 343.5 124t186.5 338v31h-643v115h762v-703h-115v336q-71 -167 -215.5 -261.5t-318.5 -94.5zM516 1657h395v-80h-395v80z" />
    <glyph glyph-name="uni1E21" unicode="&#x1e21;" horiz-adv-x="972" 
d="M465 -639q-179 0 -291.5 104t-112.5 254q0 173 129 285v2q-51 25 -82.5 76.5t-31.5 114.5q0 118 82 194q-82 111 -82 254q0 165 101 276t259 111q167 0 269 -121h2q67 121 206 121v-102q-43 0 -86.5 -24.5t-68.5 -80.5q39 -83 39 -180q0 -167 -101 -278t-260 -111
q-109 0 -200 72q-49 -57 -54 -123q-4 -65 39 -101t117 -36h219q162 0 249 -91.5t87 -236.5q0 -70 -26.5 -135.5t-76 -121t-132 -89t-185.5 -33.5h-8zM492 -526q134 0 213 78.5t79 185.5q0 92 -54.5 154.5t-168.5 62.5h-233l-33 2q-49 -33 -87 -95.5t-38 -142.5
q0 -104 79 -174.5t197 -70.5h46zM436 369q113 0 182.5 79t69.5 197q0 117 -69.5 196t-182.5 79t-182.5 -79t-69.5 -196q0 -118 69.5 -197t182.5 -79zM289 1247h395v-80h-395v80z" />
    <glyph glyph-name="Wgrave" unicode="&#x1e80;" horiz-adv-x="2162" 
d="M608 -25l-549 1475h119l455 -1235l409 1235h78l410 -1235l455 1235h118l-549 -1475h-53l-418 1260l-419 -1260h-56zM1196 1518h-86l-143 202h88z" />
    <glyph glyph-name="wgrave" unicode="&#x1e81;" horiz-adv-x="1452" 
d="M410 -25l-351 1057h115l264 -809l260 809h58l260 -809l262 809h115l-346 -1057h-60l-260 811l-260 -811h-57zM840 1108h-86l-144 203h88z" />
    <glyph glyph-name="Wacute" unicode="&#x1e82;" horiz-adv-x="2162" 
d="M608 -25l-549 1475h119l455 -1235l409 1235h78l410 -1235l455 1235h118l-549 -1475h-53l-418 1260l-419 -1260h-56zM967 1518l141 202h88l-143 -202h-86z" />
    <glyph glyph-name="wacute" unicode="&#x1e83;" horiz-adv-x="1452" 
d="M410 -25l-351 1057h115l264 -809l260 809h58l260 -809l262 809h115l-346 -1057h-60l-260 811l-260 -811h-57zM610 1108l142 203h88l-144 -203h-86z" />
    <glyph glyph-name="Wdieresis" unicode="&#x1e84;" horiz-adv-x="2162" 
d="M608 -25l-549 1475h119l455 -1235l409 1235h78l410 -1235l455 1235h118l-549 -1475h-53l-418 1260l-419 -1260h-56zM997 1534q-32 0 -55.5 24t-23.5 56q0 34 23.5 58t55.5 24q34 0 58 -24t24 -58q0 -32 -24 -56t-58 -24zM1163 1534q-32 0 -56 24t-24 56q0 34 24 58t56 24
q34 0 58 -24t24 -58q0 -32 -24 -56t-58 -24z" />
    <glyph glyph-name="wdieresis" unicode="&#x1e85;" horiz-adv-x="1452" 
d="M410 -25l-351 1057h115l264 -809l260 809h58l260 -809l262 809h115l-346 -1057h-60l-260 811l-260 -811h-57zM643 1124q-32 0 -56 24t-24 56q0 34 24 58t56 24q34 0 58 -24t24 -58q0 -32 -24 -56t-58 -24zM809 1124q-32 0 -56 24t-24 56q0 34 24 58t56 24q34 0 58 -24
t24 -58q0 -32 -24 -56t-58 -24z" />
    <glyph glyph-name="uni1E9E" unicode="&#x1e9e;" horiz-adv-x="1052" 
d="M494 1430q199 0 314.5 -99.5t115.5 -269.5q0 -109 -50 -188.5t-145 -122.5q126 -43 195 -136.5t69 -222.5q0 -185 -132.5 -297t-360.5 -112h-152v110h162q166 0 268.5 81t102.5 218q0 134 -97 215.5t-249 81.5h-58v107h49q134 0 208.5 69.5t74.5 192.5q0 125 -86.5 193.5
t-228.5 68.5h-2q-145 0 -233.5 -69t-88.5 -193v-1075h-111v1079q0 171 116 270t317 99h2z" />
    <glyph glyph-name="uni1EBC" unicode="&#x1ebc;" horiz-adv-x="1067" 
d="M59 -25v1475h934v-115h-823v-540h764v-113h-764v-592h838v-115h-949zM748 1657q-17 -137 -109 -137q-43 0 -98 55q-47 47 -76 47q-34 0 -53.5 -24t-28.5 -78h-64q9 78 47 122t99 44q57 0 123 -66q24 -24 33 -30.5t18 -6.5q18 0 28 15t17 59h64z" />
    <glyph glyph-name="uni1EBD" unicode="&#x1ebd;" horiz-adv-x="1017" 
d="M537 -25q-205 0 -341.5 149.5t-136.5 379.5q0 84 20.5 162t60 144.5t94.5 116t129 77.5t157 28q134 0 236 -66t154 -178t48 -249l-2 -74h-786q6 -172 112.5 -274.5t254.5 -102.5q175 0 294 154l97 -41q-59 -99 -162 -162.5t-229 -63.5zM850 559q-3 159 -91 260t-239 101
q-140 0 -237.5 -98.5t-114.5 -262.5h682zM723 1247q-17 -137 -109 -137q-43 0 -98 55q-47 47 -76 47q-34 0 -53.5 -24t-28.5 -78h-63q9 78 46.5 122t98.5 44q57 0 123 -66q24 -24 33 -30t18 -6q18 0 28 14.5t17 58.5h64z" />
    <glyph glyph-name="Ygrave" unicode="&#x1ef2;" horiz-adv-x="1263" 
d="M578 -25v631l-519 844h134l440 -727l438 727h133l-516 -844v-631h-110zM745 1518h-86l-143 202h88z" />
    <glyph glyph-name="ygrave" unicode="&#x1ef3;" horiz-adv-x="1034" 
d="M350 -408l154 437l-445 1003h119l350 -790l29 -66l303 856h115l-508 -1440h-117zM633 1108h-86l-144 203h89z" />
    <glyph glyph-name="uni1EF8" unicode="&#x1ef8;" horiz-adv-x="1263" 
d="M578 -25v631l-519 844h134l440 -727l438 727h133l-516 -844v-631h-110zM846 1657q-17 -137 -109 -137q-43 0 -98 55q-47 47 -76 47q-34 0 -53.5 -24t-28.5 -78h-63q9 78 46.5 122t98.5 44q57 0 123 -66q24 -24 33 -30.5t18 -6.5q18 0 28 15t17 59h64z" />
    <glyph glyph-name="uni1EF9" unicode="&#x1ef9;" horiz-adv-x="1034" 
d="M350 -408l154 437l-445 1003h119l350 -790l29 -66l303 856h115l-508 -1440h-117zM731 1247q-17 -137 -108 -137q-44 0 -99 55q-27 27 -42.5 37t-32.5 10q-34 0 -53.5 -24t-28.5 -78h-64q9 78 47 122t99 44q56 0 122 -66q36 -36 52 -36q18 0 28 14.5t17 58.5h63z" />
    <glyph glyph-name="endash" unicode="&#x2013;" horiz-adv-x="538" 
d="M63 416v96h410v-96h-410z" />
    <glyph glyph-name="emdash" unicode="&#x2014;" horiz-adv-x="1003" 
d="M63 479v96h875v-96h-875z" />
    <glyph glyph-name="quoteleft" unicode="&#x2018;" horiz-adv-x="290" 
d="M63 1053q74 121 74 235v146h88v-125q0 -75 -27 -152.5t-71 -134.5z" />
    <glyph glyph-name="quoteright" unicode="&#x2019;" horiz-adv-x="290" 
d="M63 1053q74 121 74 235v146h88v-125q0 -75 -27 -152.5t-71 -134.5z" />
    <glyph glyph-name="quotesinglbase" unicode="&#x201a;" horiz-adv-x="210" 
d="M63 -260v444h84v-116l-26 -328h-58z" />
    <glyph glyph-name="quotedblleft" unicode="&#x201c;" horiz-adv-x="495" 
d="M63 1053q74 121 74 235v146h88v-125q0 -75 -27 -152.5t-71 -134.5zM268 1053q74 121 74 235v146h88v-125q0 -74 -26.5 -152t-69.5 -135z" />
    <glyph glyph-name="quotedblright" unicode="&#x201d;" horiz-adv-x="489" 
d="M63 1053q74 121 74 235v146h88v-125q0 -75 -27 -152.5t-71 -134.5zM262 1053q74 121 74 235v146h88v-125q0 -75 -27 -152.5t-71 -134.5z" />
    <glyph glyph-name="quotedblbase" unicode="&#x201e;" horiz-adv-x="364" 
d="M217 -260v444h84v-116l-27 -328h-57zM63 -260v444h84v-116l-26 -328h-58z" />
    <glyph glyph-name="dagger" unicode="&#x2020;" horiz-adv-x="921" 
d="M858 821h-354v-704h-86v704h-355v86h355v377h86v-377h354v-86z" />
    <glyph glyph-name="bullet" unicode="&#x2022;" horiz-adv-x="514" 
d="M256 541q-88 0 -140.5 51.5t-52.5 136.5v2q0 83 53 136t140 53t140 -53t53 -140q0 -82 -53 -134t-140 -52z" />
    <glyph glyph-name="ellipsis" unicode="&#x2026;" horiz-adv-x="921" 
d="M365 88q0 44 29.5 68.5t64.5 24.5t64.5 -24.5t29.5 -68.5q0 -56 -47 -79t-94 0t-47 79zM63 90q0 44 29.5 68.5t65 24.5t65 -24.5t29.5 -68.5q0 -56 -47 -79t-94.5 0t-47.5 79zM670 88q0 44 29.5 68.5t64.5 24.5t64.5 -24.5t29.5 -68.5q0 -56 -47 -79t-94 0t-47 79z" />
    <glyph glyph-name="guilsinglleft" unicode="&#x2039;" horiz-adv-x="522" 
d="M332 160l-269 362l269 361h125l-269 -361l271 -362h-127z" />
    <glyph glyph-name="guilsinglright" unicode="&#x203a;" horiz-adv-x="522" 
d="M190 158h-127l271 362l-268 361h124l269 -361z" />
    <glyph glyph-name="Euro" unicode="&#x20ac;" horiz-adv-x="1474" 
d="M770 -47q-231 0 -406 147t-231 400h-164v96h148q-6 56 -6 113h-142v96h146q18 203 110.5 357t234 233.5t310.5 79.5q246 0 423.5 -163t221.5 -433h-110q-41 223 -188 352t-347 129q-212 0 -365.5 -149t-179.5 -406h455v-96h-459q0 -64 8 -113h451v-96h-434
q53 -203 195 -318.5t329 -115.5q209 0 357.5 138.5t181.5 373.5h110q-39 -289 -218.5 -457t-430.5 -168z" />
    <glyph glyph-name="trademark" unicode="&#x2122;" horiz-adv-x="1396" 
d="M385 651h-82v627h-246v76h574v-76h-246v-627zM653 651v703h62l274 -447l275 447h61v-703h-84v518l-223 -364h-57l-224 369v-523h-84z" />
    <glyph glyph-name="uniA78B" unicode="&#xa78b;" horiz-adv-x="210" 
d="M63 997v445h84v-117l-26 -328h-58z" />
    <glyph glyph-name="uniA78C" unicode="&#xa78c;" horiz-adv-x="210" 
d="M63 997v445h84v-117l-26 -328h-58z" />
    <glyph glyph-name="Slash" horiz-adv-x="915" 
d="M176 -317h-113l676 1849h113z" />
    <glyph glyph-name="uni004A0301" horiz-adv-x="1021" 
d="M485 -45q-103 0 -186 31.5t-134.5 84.5t-78.5 119.5t-27 141.5v84h111v-72q0 -122 81 -198t234 -76q369 0 369 424v956h109v-956q0 -253 -121.5 -396t-356.5 -143zM483 1518l142 202h88l-144 -202h-86z" />
    <glyph glyph-name="uni013B.loclMAH" 
d="M59 -25v1475h111v-1360h709v-115h-820zM393 -326q74 80 74 160v98h88v-84q0 -51 -27.5 -103.5t-70.5 -90.5z" />
    <glyph glyph-name="uni0145.loclMAH" horiz-adv-x="1314" 
d="M59 -25v1475h113l973 -1260v1260h110v-1475h-79l-1006 1295v-1295h-111zM580 -326q73 79 73 160v98h88v-84q0 -51 -27.5 -103.5t-70.5 -90.5z" />
    <glyph glyph-name="i.loclTRK" horiz-adv-x="227" 
d="M59 -25v1057h109v-1057h-109zM115 1124q-32 0 -56 24t-24 56q0 34 24 58t56 24q34 0 58 -24t24 -58q0 -32 -24 -56t-58 -24z" />
    <glyph glyph-name="uni006A0301" horiz-adv-x="436" 
d="M78 -430q-158 -3 -252 127l88 53q60 -79 156 -76q81 2 135.5 55.5t54.5 145.5v1157h109v-1157q0 -140 -85.5 -221.5t-205.5 -83.5zM102 1108l142 203h88l-144 -203h-86z" />
    <glyph glyph-name="uni013C.loclMAH" horiz-adv-x="227" 
d="M59 -25v1475h109v-1475h-109zM37 -326q74 80 74 160v98h88v-84q0 -51 -28 -103.5t-71 -90.5z" />
    <glyph glyph-name="uni0146.loclMAH" 
d="M59 -25v1057h109v-229q49 84 149.5 156.5t208.5 72.5q166 0 259.5 -113.5t93.5 -287.5v-656h-109v656q0 132 -70 210.5t-184 78.5q-115 0 -204.5 -78.5t-143.5 -202.5v-664h-109zM393 -326q74 80 74 160v98h88v-84q0 -51 -27.5 -103.5t-70.5 -90.5z" />
    <glyph glyph-name="uni030C.alt" horiz-adv-x="0" 
d="M0 1108l141 203h88l-143 -203h-86z" />
    <glyph glyph-name="uni0326.loclMAH" horiz-adv-x="0" 
 />
    </font>
</defs>
</svg>
