<?xml version="1.0" standalone="no"?>
<!DOCTYPE svg PUBLIC "-//W3C//DTD SVG 1.1//EN" "http://www.w3.org/Graphics/SVG/1.1/DTD/svg11.dtd" >
<svg xmlns="http://www.w3.org/2000/svg" xmlns:xlink="http://www.w3.org/1999/xlink" version="1.1">
<metadata>
Created by FontForge 20201107 at Tue Feb 11 16:23:33 2025
 By 
Copyright (c) 2024 by Webhance. All rights reserved.
</metadata>
<defs>
<font id="Remark-Heavy_Italic" horiz-adv-x="1015" >
  <font-face 
    font-family="Remark Heavy_"
    font-weight="900"
    font-style="italic"
    font-stretch="normal"
    units-per-em="2048"
    panose-1="0 0 0 0 0 0 0 0 0 0"
    ascent="1638"
    descent="-410"
    x-height="1032"
    cap-height="1450"
    bbox="-154 -637 2462 1741"
    underline-thickness="102"
    underline-position="-255"
    unicode-range="U+0020-A78C"
  />
<missing-glyph horiz-adv-x="1017" 
 />
    <glyph glyph-name=".notdef" horiz-adv-x="1017" 
 />
    <glyph glyph-name=".null" horiz-adv-x="0" 
 />
    <glyph glyph-name="nonmarkingreturn" horiz-adv-x="682" 
 />
    <glyph glyph-name="space" unicode=" " horiz-adv-x="614" 
 />
    <glyph glyph-name="space" unicode="&#xa0;" horiz-adv-x="614" 
 />
    <glyph glyph-name="exclam" unicode="!" horiz-adv-x="520" 
d="M86 360l119 934h284l-149 -934h-254zM33 88q9 65 52.5 103t111.5 38t101 -38t24 -103t-52 -102t-112 -37t-101.5 37t-23.5 102z" />
    <glyph glyph-name="quotedbl" unicode="&#x22;" horiz-adv-x="712" 
d="M352 989l62 445h186l-16 -117l-72 -328h-160zM113 989l61 445h186l-16 -117l-72 -328h-159z" />
    <glyph glyph-name="numbersign" unicode="#" horiz-adv-x="1247" 
d="M666 -66h-287l196 570h-43l-196 -570h-287l197 570h-215l75 196h207l31 88h-203l76 197h195l157 455h287l-158 -455h43l158 455h287l-158 -455h189l-74 -197h-182l-31 -88h176l-76 -196h-168zM600 700h43l31 88h-43z" />
    <glyph glyph-name="dollar" unicode="$" horiz-adv-x="1249" 
d="M631 -221h-287l29 209q-180 38 -271 164t-65 325l287 -4q-5 -29 0.5 -60.5t29 -65.5t62.5 -54l45 311l-25 2q-190 18 -272 122t-58 271q15 106 73 201.5t163.5 169.5t239.5 100l20 148h287l-21 -145q80 -14 144.5 -45.5t117 -86t75 -141.5t9.5 -199h-292q-4 127 -97 170
l-41 -292l19 -2q83 -8 147.5 -33.5t104 -63.5t64.5 -87t29 -105t-3 -117q-11 -80 -47 -157.5t-94 -146t-147.5 -118t-197.5 -67.5zM399 1022q-7 -55 18.5 -80t84.5 -35l37 258q-58 -24 -96 -63.5t-44 -79.5zM702 289q63 25 98 71t42 91q7 51 -17.5 79.5t-83.5 40.5z" />
    <glyph glyph-name="percent" unicode="%" horiz-adv-x="1429" 
d="M412 0h-314l965 1468h311zM31 1137q0 152 100 251t250 99q149 0 250.5 -99.5t101.5 -250.5q0 -145 -99 -248t-253 -103q-150 0 -250 103.5t-100 247.5zM293 1139q0 -55 19 -75t67 -20q54 0 73 19.5t19 75.5q0 52 -20 71t-72 19q-50 0 -68 -19t-18 -71zM694 260
q0 152 103 251t247 99q152 0 253.5 -99.5t101.5 -250.5q0 -150 -102 -250t-253 -100q-147 0 -248.5 100.5t-101.5 249.5zM956 262q0 -55 19 -75.5t69 -20.5q52 0 72.5 20.5t20.5 75.5q0 51 -21 71.5t-72 20.5q-50 0 -69 -20t-19 -72z" />
    <glyph glyph-name="ampersand" unicode="&#x26;" horiz-adv-x="1296" 
d="M444 12q-137 0 -237.5 57.5t-144.5 152t-27 204.5q11 64 34.5 118.5t50 92t66 72.5t70 55t72.5 45q-56 79 -81.5 145.5t-21.5 143.5q8 156 122 257t284 101q164 0 257 -99.5t64 -254.5q-20 -96 -70.5 -173.5t-154.5 -158.5l141 -176q28 100 33 154h283q-19 -126 -45 -207
t-74 -181q62 -77 201 -206l-152 -185q-56 46 -100.5 88t-83 81t-47.5 48q-85 -84 -202.5 -129t-236.5 -45zM483 279q64 0 126 29.5t100 84.5l-211 254q-103 -62 -146 -111t-47 -110q-3 -70 43 -108.5t135 -38.5zM559 965q57 37 82.5 65t32.5 66q9 36 -15 58t-65 24
q-34 2 -63.5 -20.5t-32.5 -61.5q-1 -24 6 -44t16 -33.5t39 -53.5z" />
    <glyph glyph-name="quotesingle" unicode="'" horiz-adv-x="268" 
d="M10 997l62 445h186l-16 -117l-72 -328h-160z" />
    <glyph glyph-name="parenleft" unicode="(" horiz-adv-x="751" 
d="M461 -334q-93 61 -166 133t-122 149.5t-81 159.5t-45.5 169.5t-14 172t12.5 173.5q12 84 39 169.5t81.5 186.5t129 193.5t188.5 187t254 170.5l80 -146q-120 -40 -231 -169.5t-180 -287t-89 -304.5q-26 -185 1.5 -360t101 -299.5t178.5 -164.5z" />
    <glyph glyph-name="parenright" unicode=")" horiz-adv-x="751" 
d="M-72 -201q117 40 226 164.5t185 299.5t101 360q19 106 5.5 228t-46 228.5t-97 190.5t-146.5 114l120 146q86 -55 156 -119.5t117.5 -129.5t82.5 -136t54.5 -138t28 -136.5t7.5 -129.5t-9 -118q-18 -135 -64 -261t-125.5 -251.5t-205 -240t-289.5 -204.5z" />
    <glyph glyph-name="asterisk" unicode="*" horiz-adv-x="1024" 
d="M834 1397l137 -137l-217 -164l239 -33v-193l-207 29l146 -145l-156 -117l-168 168v-266l-192 28v275l-221 -168l-138 137l215 162l-241 33v192l213 -29l-148 148l156 117l164 -164v260l192 -29v-276z" />
    <glyph glyph-name="plus" unicode="+" horiz-adv-x="1052" 
d="M498 983h192l-53 -385h385l-29 -192h-385l-53 -386h-193l54 386h-385l28 192h385z" />
    <glyph glyph-name="comma" unicode="," horiz-adv-x="399" 
d="M16 -186q99 126 113 235l21 146h237l-16 -125q-10 -74 -51 -152t-97 -135z" />
    <glyph glyph-name="hyphen" unicode="-" horiz-adv-x="864" 
d="M23 406l36 266h783l-37 -266h-782z" />
    <glyph glyph-name="period" unicode="." horiz-adv-x="401" 
d="M41 152q13 95 96 136q72 37 142 11q72 -26 82 -101q2 -22 -1 -46q-13 -91 -96 -131q-73 -36 -144 -10q-72 26 -80 100q-2 19 1 41z" />
    <glyph glyph-name="slash" unicode="/" horiz-adv-x="1042" 
d="M326 -317h-285l676 1841h284z" />
    <glyph glyph-name="zero" unicode="0" horiz-adv-x="1128" 
d="M459 -25q-251 0 -357 195t-55 545q50 355 209 548t412 193t358 -192.5t55 -544.5q-50 -354 -210 -549t-412 -195zM330 719q-27 -175 -15 -277.5t55 -143t130 -40.5q86 0 141 41t92 141t62 279q19 135 19.5 222t-20 140t-60 74t-105.5 21q-86 0 -141.5 -41t-93.5 -140.5
t-64 -275.5z" />
    <glyph glyph-name="one" unicode="1" horiz-adv-x="690" 
d="M168 -25l154 1088l-291 -172l47 330l389 235h192l-208 -1481h-283z" />
    <glyph glyph-name="two" unicode="2" horiz-adv-x="1146" 
d="M59 176q331 297 496 473q162 171 210 240t54 129q8 77 -28 118.5t-136 41.5q-165 0 -204 -146l-291 2q22 115 68.5 197.5t116.5 131t155.5 71t193.5 22.5q227 0 335.5 -104t80.5 -301q-15 -111 -93.5 -244t-268.5 -332q-87 -90 -232 -225h533l-39 -277h-979z" />
    <glyph glyph-name="three" unicode="3" horiz-adv-x="1130" 
d="M475 -25q-128 0 -221 34.5t-144 95t-69 138.5t-2 171h287q-1 -20 2.5 -39.5t15 -42t31 -39t55.5 -28t84 -11.5q60 0 106 16.5t72 43.5t40 55t18 59q14 93 -28 126.5t-177 33.5h-205l39 278h201q111 0 162.5 36t64.5 130q9 64 -28.5 105t-137.5 41q-53 0 -93 -14.5
t-60 -35.5t-31.5 -41.5t-16.5 -37.5l-4 -17h-291q41 226 176.5 325t358.5 99q219 0 330 -100t86 -305q-20 -165 -158 -303q60 -57 84.5 -145t7.5 -189q-28 -203 -176.5 -321t-378.5 -118z" />
    <glyph glyph-name="four" unicode="4" horiz-adv-x="1169" 
d="M575 -25l46 322h-590l28 207l787 952h219l-125 -881h199l-39 -278h-199l-45 -322h-281zM659 575l43 306l-251 -306h208z" />
    <glyph glyph-name="five" unicode="5" horiz-adv-x="1105" 
d="M438 -25q-170 0 -270.5 66.5t-136.5 167.5l276 143q41 -98 172 -98q108 0 167 59t73 142q17 105 -35 158t-137 53q-135 0 -219 -109l-260 33l190 866h817l-39 -276h-567l-51 -254q75 22 178 22q227 0 333.5 -132t76.5 -355q-32 -223 -186.5 -354.5t-381.5 -131.5z" />
    <glyph glyph-name="six" unicode="6" horiz-adv-x="1175" 
d="M485 -25q-257 0 -372.5 183.5t-69.5 507.5q41 299 141 467q92 157 233 240t314 83q133 0 245.5 -77.5t168.5 -202.5l-219 -140q-60 77 -113.5 107.5t-122.5 32.5q-178 4 -274 -168q-28 -51 -49 -119q118 59 256 59q217 0 333.5 -135t87.5 -350q-31 -213 -187.5 -350.5
t-371.5 -137.5zM340 461q-14 -102 37 -153.5t141 -51.5q87 0 156.5 52t83.5 153q12 100 -44 152.5t-136 52.5q-50 0 -99 -20t-90 -68.5t-49 -116.5z" />
    <glyph glyph-name="seven" unicode="7" horiz-adv-x="1101" 
d="M31 -25l665 1205h-630l26 276h979l-14 -174l-719 -1307h-307z" />
    <glyph glyph-name="eight" unicode="8" horiz-adv-x="1181" 
d="M498 -25q-247 0 -368.5 118.5t-92.5 324.5q27 200 176 321q-88 120 -66 285q29 201 181.5 316.5t378.5 115.5q228 0 347.5 -115.5t90.5 -316.5q-21 -164 -148 -285q116 -126 90 -321q-30 -206 -185.5 -324.5t-403.5 -118.5zM532 225q252 0 279 195q6 42 -0.5 74t-29 60.5
t-71.5 44t-122 15.5q-130 0 -196.5 -47.5t-80.5 -146.5q-13 -97 42.5 -146t178.5 -49zM621 848q96 0 162 44.5t77 131.5q12 85 -35 127t-155 47q-95 5 -161.5 -42t-78.5 -132q-12 -87 41 -131.5t150 -44.5z" />
    <glyph glyph-name="nine" unicode="9" horiz-adv-x="1175" 
d="M690 1456q258 0 373.5 -183.5t69.5 -506.5q-41 -297 -142 -467q-92 -158 -233 -241t-314 -83q-133 0 -244.5 78t-168.5 203l219 139q60 -76 113 -106.5t122 -32.5q179 -4 275 168q28 51 49 119q-120 -60 -256 -60q-217 0 -334 135.5t-88 350.5q31 213 187.5 350
t371.5 137zM836 971q14 102 -37.5 153.5t-141.5 51.5q-87 0 -156 -52t-83 -153q-12 -100 44 -152.5t136 -52.5q50 0 99 20t90 68.5t49 116.5z" />
    <glyph glyph-name="colon" unicode=":" horiz-adv-x="401" 
d="M109 152q13 95 96 136q72 37 142 11q72 -26 82 -101q2 -22 -1 -46q-13 -91 -96 -131q-73 -36 -144 -10q-72 26 -80 100q-2 19 1 41zM109 881q13 95 96 136q72 37 142 11q72 -26 82 -101q2 -22 -1 -46q-13 -91 -96 -131q-73 -36 -144 -10q-72 26 -80 100q-2 19 1 41z" />
    <glyph glyph-name="semicolon" unicode=";" horiz-adv-x="401" 
d="M41 874q13 95 96 136q72 37 142 11q72 -26 82 -101q2 -22 -1 -46q-13 -91 -96 -131q-73 -36 -144 -10q-72 26 -80 100q-2 19 1 41zM18 -186q99 126 113 235l21 146h237l-16 -125q-10 -74 -51 -152t-97 -135z" />
    <glyph glyph-name="less" unicode="&#x3c;" horiz-adv-x="907" 
d="M35 631l14 112l889 443l-29 -195l-628 -303l544 -303l-28 -197z" />
    <glyph glyph-name="equal" unicode="=" horiz-adv-x="884" 
d="M852 709h-803l33 239h803zM803 360h-803l33 240h803z" />
    <glyph glyph-name="greater" unicode="&#x3e;" horiz-adv-x="907" 
d="M858 631l-887 -443l27 197l629 303l-543 303l27 195l763 -443z" />
    <glyph glyph-name="question" unicode="?" horiz-adv-x="899" 
d="M504 446l-15 -98h-229l14 98q11 85 61 156t163 150q51 36 82 65.5t48.5 63t24 60t13.5 75.5q6 45 4.5 80.5t-10 57.5t-21 38.5t-28.5 23t-32.5 11.5t-32.5 4t-29 0h-11q-47 0 -83 -18t-55 -39.5t-32.5 -57.5t-17 -52.5t-7.5 -43.5h-229q18 125 72 220t151.5 152.5
t226.5 57.5q58 0 111 -11t107.5 -41t91.5 -76.5t54 -125.5t3 -180q-20 -144 -77 -226t-197 -178q-66 -47 -91 -84.5t-30 -81.5zM205 143q26 90 114 130q78 35 145 9q69 -25 67 -98q-1 -19 -7 -41q-24 -87 -112 -126q-77 -34 -145 -9q-69 25 -68 95q0 19 6 40z" />
    <glyph glyph-name="at" unicode="@" horiz-adv-x="1323" 
d="M500 483q-17 -70 10 -106.5t90 -36.5q140 0 170 152q15 75 -10 110t-94 35q-65 0 -109 -40t-57 -114zM43 489q36 176 149 320.5t274 226.5t335 82q178 0 300 -80t169 -223.5t10 -327.5q-38 -188 -162 -301q-99 -89 -198 -86q-97 3 -137 93q-10 21 -15 45
q-92 -58 -190 -58q-131 0 -198.5 88t-41.5 221q26 132 127.5 220t230.5 88q91 0 150 -43q2 9 9.5 29.5t8.5 23.5l158 -16q-119 -389 -82 -493q17 -49 62 -13q51 42 87 144q12 35 19 71q43 214 -45.5 332t-288.5 118q-212 0 -362 -128.5t-193 -342.5q-29 -135 10 -237
q77 -217 336 -217q131 0 230 75l84 -116q-157 -125 -338 -125q-172 0 -298.5 80.5t-180.5 225.5t-19 324z" />
    <glyph glyph-name="A" unicode="A" horiz-adv-x="1495" 
d="M31 -25l831 1475h189l413 -1475h-319l-82 304h-543l-172 -304h-317zM674 541h311l-102 374z" />
    <glyph glyph-name="B" unicode="B" horiz-adv-x="1280" 
d="M31 -25l209 1475l669 -2q171 0 265.5 -91.5t70.5 -264.5q-31 -238 -213 -334q112 -66 147 -156t15 -225q-13 -87 -44.5 -156t-76 -114t-103 -75t-120.5 -42.5t-133 -12.5zM737 268q64 0 110.5 35.5t59.5 116.5q6 41 -6.5 71.5t-32 44t-48.5 21.5t-42.5 9t-27.5 1h-344
l-41 -299h372zM768 860q69 0 115.5 39.5t56.5 112.5q9 72 -33 109.5t-125 37.5h-293l-43 -299h322z" />
    <glyph glyph-name="C" unicode="C" horiz-adv-x="1419" 
d="M602 -45q-138 0 -252.5 54t-191.5 151t-109 240t-8 311q24 170 97 313.5t176.5 240.5t233 151t267.5 54q133 0 241 -47t180 -130t111.5 -195t41.5 -242h-295q-6 153 -89.5 235.5t-230.5 82.5q-72 0 -141.5 -29t-131 -84t-106.5 -145.5t-61 -204.5q-29 -208 56 -333.5
t253 -125.5q163 0 268 92.5t150 249.5h293q-56 -201 -171 -347t-264 -219t-317 -73z" />
    <glyph glyph-name="D" unicode="D" horiz-adv-x="1396" 
d="M31 -25l209 1475h551q142 0 258 -54.5t191 -151t106.5 -234.5t9.5 -299q-23 -161 -88 -297t-163.5 -233t-232.5 -151.5t-288 -54.5h-553zM627 272q197 0 301 107.5t135 331.5q30 215 -54.5 328.5t-260.5 113.5h-259l-122 -881h260z" />
    <glyph glyph-name="E" unicode="E" horiz-adv-x="1275" 
d="M31 -23l209 1473h1005l-43 -297h-713l-36 -270h661l-43 -297h-661l-43 -314h706l-43 -295h-999z" />
    <glyph glyph-name="F" unicode="F" horiz-adv-x="1257" 
d="M31 -25l209 1475h987l-43 -297h-695l-43 -313h625l-43 -297h-625l-79 -568h-293z" />
    <glyph glyph-name="G" unicode="G" horiz-adv-x="1423" 
d="M604 -45q-138 0 -253 54t-192 150.5t-109.5 239.5t-8.5 312q24 170 97 313.5t177.5 240.5t234 151t267.5 54q266 0 418 -169t158 -445h-295q-4 158 -89 238t-233 80q-71 0 -141 -29t-132 -84t-107.5 -145.5t-61.5 -204.5q-16 -112 3 -202t64.5 -145t108 -83.5
t135.5 -28.5q258 0 377 229h-426l41 297h743l-112 -803h-297l24 162q-64 -82 -175.5 -132t-215.5 -50z" />
    <glyph glyph-name="H" unicode="H" horiz-adv-x="1503" 
d="M31 -25l209 1475h292l-90 -629h648l90 629h293l-209 -1475h-293l78 551h-648l-77 -551h-293z" />
    <glyph glyph-name="I" unicode="I" horiz-adv-x="563" 
d="M31 -25l209 1475h292l-208 -1475h-293z" />
    <glyph glyph-name="J" unicode="J" horiz-adv-x="1193" 
d="M442 -45q-111 0 -196.5 36t-134 96t-68.5 135t-8 157l6 45h293l-6 -35q-9 -74 23 -105.5t132 -31.5q128 0 182 58t74 210l131 930h293l-131 -930q-35 -256 -189 -410.5t-401 -154.5z" />
    <glyph glyph-name="K" unicode="K" horiz-adv-x="1536" 
d="M31 -25l209 1475h292l-86 -598l652 598h407l-741 -680l541 -795h-381l-396 580l-141 -127l-63 -453h-293z" />
    <glyph glyph-name="L" unicode="L" horiz-adv-x="1011" 
d="M31 -25l209 1475h290l-165 -1178h616l-43 -297h-907z" />
    <glyph glyph-name="M" unicode="M" horiz-adv-x="1652" 
d="M31 -25l209 1475h247l336 -760l549 760h250l-209 -1475h-293l113 805l-363 -522h-215l-217 526l-114 -809h-293z" />
    <glyph glyph-name="N" unicode="N" horiz-adv-x="1503" 
d="M31 -25l209 1475h243l570 -901l127 901h293l-207 -1473l-217 -2l-592 934l-133 -934h-293z" />
    <glyph glyph-name="O" unicode="O" horiz-adv-x="1421" 
d="M602 -45q-138 0 -252.5 54t-191.5 150.5t-109 239.5t-8 312q24 170 97 313.5t176.5 240.5t233 151t267.5 54t253 -54t192.5 -151t110.5 -240.5t9 -313.5q-24 -168 -97 -311t-177 -240t-234.5 -151t-269.5 -54zM643 252q175 0 293 116t151 343q33 229 -52.5 346
t-260.5 117q-173 0 -290 -117t-150 -346q-33 -226 51.5 -342.5t257.5 -116.5z" />
    <glyph glyph-name="P" unicode="P" horiz-adv-x="1265" 
d="M31 -25l209 1475h540q111 0 202 -39t151.5 -109.5t86.5 -174.5t9 -228q-36 -250 -207 -398.5t-397 -148.5h-248l-53 -377h-293zM668 647q121 0 184.5 59t83.5 193q19 135 -29.5 194.5t-169.5 59.5h-248l-69 -506h248z" />
    <glyph glyph-name="Q" unicode="Q" horiz-adv-x="1421" 
d="M891 16q-134 -61 -289 -61q-138 0 -252 54t-190.5 150.5t-109 239.5t-9.5 312q24 170 97 313.5t176.5 240.5t233 151t267.5 54t253 -54t192.5 -151t110.5 -240.5t9 -313.5q-42 -299 -233 -506l199 -375h-357zM645 252q175 0 293 116.5t149 342.5q33 229 -52.5 346
t-260.5 117q-173 0 -290 -117t-150 -346q-31 -227 53.5 -343t257.5 -116z" />
    <glyph glyph-name="R" unicode="R" horiz-adv-x="1290" 
d="M31 -25l209 1475h563q242 0 364 -135t84 -371q-23 -144 -106.5 -256t-216.5 -156l311 -557l-373 2l-270 476h-205l-67 -478h-293zM698 750q142 0 193.5 39.5t66.5 154.5q15 113 -31 161t-169 48h-269l-55 -403h264z" />
    <glyph glyph-name="S" unicode="S" horiz-adv-x="1249" 
d="M537 -45q-255 0 -393 131.5t-107 374.5l287 -4q-6 -31 2 -65t31.5 -68t74.5 -56t123 -22q71 0 127.5 18.5t88.5 48t49.5 60.5t21.5 61q9 65 -33 94.5t-139 38.5l-234 23q-190 18 -272 122t-58 271q13 92 60.5 177.5t124 155t190 111t246.5 41.5q79 0 149.5 -13t140 -47
t116.5 -86.5t70.5 -139t10.5 -197.5h-292q-1 41 -11 73t-34.5 61t-73 45t-117.5 16q-113 0 -195 -55t-92 -119q-4 -30 3 -51.5t20.5 -34t41 -20.5t52.5 -11.5t66 -7.5l221 -21q104 -10 177.5 -46t112 -91.5t51 -122.5t1.5 -145q-10 -72 -39 -141.5t-80.5 -135t-119.5 -115
t-163.5 -79t-205.5 -29.5z" />
    <glyph glyph-name="T" unicode="T" horiz-adv-x="1323" 
d="M328 -25l166 1180h-463l43 295h1218l-43 -295h-463l-165 -1180h-293z" />
    <glyph glyph-name="U" unicode="U" horiz-adv-x="1396" 
d="M551 -45q-278 0 -417 186.5t-91 528.5l109 780h292l-108 -780q-15 -95 -11 -165.5t20.5 -118.5t51.5 -78t82 -43t113 -13q113 0 185 38t119 129.5t69 250.5l108 780h293l-109 -780q-49 -343 -238.5 -529t-467.5 -186z" />
    <glyph glyph-name="V" unicode="V" horiz-adv-x="1449" 
d="M426 -25l-395 1475h315l248 -932l508 932h317l-815 -1475h-178z" />
    <glyph glyph-name="W" unicode="W" horiz-adv-x="2119" 
d="M373 -25l-342 1475h315l197 -875l411 875h209l164 -875l447 875h315l-762 -1475h-184l-166 879l-416 -879h-188z" />
    <glyph glyph-name="X" unicode="X" horiz-adv-x="1644" 
d="M31 -23l631 748l-383 725h360l246 -438l366 438h363l-592 -729l420 -744h-361l-276 496l-414 -496h-360z" />
    <glyph glyph-name="Y" unicode="Y" horiz-adv-x="1411" 
d="M350 -25l90 641l-409 834h350l252 -518l399 518h348l-647 -834l-90 -641h-293z" />
    <glyph glyph-name="Z" unicode="Z" horiz-adv-x="1384" 
d="M31 -25l30 215l824 965h-688l43 295h1114l-31 -215l-823 -963h688l-43 -297h-1114z" />
    <glyph glyph-name="bracketleft" unicode="[" horiz-adv-x="567" 
d="M-94 -326l270 1932h486l-21 -152h-211l-229 -1628h211l-21 -152h-485z" />
    <glyph glyph-name="backslash" unicode="\" horiz-adv-x="1042" 
d="M717 -317l-676 1841h285l675 -1841h-284z" />
    <glyph glyph-name="bracketright" unicode="]" horiz-adv-x="567" 
d="M389 -326h-485l22 152h211l230 1628h-211l20 152h486z" />
    <glyph glyph-name="asciicircum" unicode="^" horiz-adv-x="851" 
d="M788 913h-239l-125 156l-168 -156h-238l357 326h141z" />
    <glyph glyph-name="underscore" unicode="_" horiz-adv-x="804" 
d="M41 236v-236h723v236h-723z" />
    <glyph glyph-name="grave" unicode="`" horiz-adv-x="299" 
d="M299 1094h-156l-143 202h158z" />
    <glyph glyph-name="a" unicode="a" horiz-adv-x="985" 
d="M350 -25q-166 0 -250.5 97.5t-64.5 236.5q20 140 128.5 233t282.5 93h220q7 57 -24 93t-103 36q-43 0 -74.5 -14t-45.5 -35t-19.5 -34.5t-6.5 -23.5h-284q21 203 163 295q116 80 295 80q205 0 299 -100q113 -121 80 -363l-84 -594h-287l9 56q-97 -56 -234 -56zM418 221
q113 0 198 119l7 49h-181q-56 0 -84.5 -24t-31.5 -58q-6 -37 19.5 -61.5t72.5 -24.5z" />
    <glyph glyph-name="b" unicode="b" horiz-adv-x="1046" 
d="M240 1450h286l-71 -500q114 80 219 80q181 0 275 -142t59 -388q-31 -228 -167 -376.5t-327 -148.5q-88 0 -184 82l-13 -82h-286zM377 395q36 -131 166 -131q65 0 112.5 60t65.5 178q16 117 -17.5 177t-99.5 60q-67 0 -110.5 -33.5t-85.5 -99.5z" />
    <glyph glyph-name="c" unicode="c" horiz-adv-x="1013" 
d="M434 -25q-93 0 -172.5 36.5t-136 102.5t-81 167t-7.5 223q23 161 107 283.5t198.5 183.5t239.5 61q177 0 292.5 -121t108.5 -329h-289q-2 159 -153 159q-89 0 -144 -55t-73 -182t22 -182.5t129 -55.5q125 0 178 109h295q-28 -85 -75 -154.5t-100.5 -114t-114.5 -75
t-116.5 -43.5t-107.5 -13z" />
    <glyph glyph-name="d" unicode="d" horiz-adv-x="1107" 
d="M385 -25q-127 0 -213.5 69.5t-120 188t-12.5 267.5q35 245 169.5 387.5t315.5 142.5q57 0 110 -25t85 -55l72 500h286l-209 -1475h-286l12 82q-122 -82 -209 -82zM438 264q71 0 122 37.5t81 93.5l31 211q-25 67 -59.5 100t-100.5 33t-116 -60t-66 -177
q-18 -117 12 -177.5t96 -60.5z" />
    <glyph glyph-name="e" unicode="e" 
d="M449 -25q-213 0 -328.5 149.5t-83.5 379.5q20 138 92 257t192.5 195t262.5 76q139 0 237 -71t138.5 -190.5t19.5 -266.5l-18 -131h-646q34 -110 174 -107q35 1 64.5 11t47.5 24.5t27.5 25t12.5 17.5l260 -78q-60 -120 -189.5 -205.5t-262.5 -85.5zM700 586q1 75 -45 115
t-112 40q-62 0 -123.5 -39t-87.5 -116h368z" />
    <glyph glyph-name="f" unicode="f" horiz-adv-x="862" 
d="M35 -25l112 807h-116l35 250h116l25 168q61 445 409 445q69 0 127 -21t88 -49l-153 -250q-46 34 -103 29q-20 -2 -33.5 -13.5t-22 -34.5t-13.5 -45.5t-10 -60.5l-25 -168h264l-35 -250h-264l-112 -807h-289z" />
    <glyph glyph-name="g" unicode="g" horiz-adv-x="1222" 
d="M449 -637q-137 0 -238 54.5t-146 146t-30 200.5q11 81 46.5 136.5t102.5 117.5q-34 29 -56 73t-15 95q18 109 90 152q-34 57 -49 107t-13 84t6 71q26 189 170 310.5t336 121.5q185 0 285 -92q87 92 254 92l-35 -250q-3 0 -9 0.5t-23 -1.5t-31.5 -7t-30.5 -18t-25 -33
q10 -52 2 -123q-28 -190 -171 -310t-337 -120q-61 0 -135 25q-28 -30 38 -38q21 -3 50 -3h154q184 0 280.5 -103t71.5 -272q-11 -78 -52.5 -151t-107.5 -133t-164 -96t-212 -36h-6zM567 -348q49 0 90 33.5t48 85.5q5 41 -19.5 67.5t-75.5 26.5h-198h-17q-32 -19 -51 -47
t-22 -54q-6 -48 22 -80t72 -32h151zM573 457q76 0 124 40.5t57 104.5q8 61 -29.5 101t-112.5 40q-76 0 -123 -40t-55 -101q-9 -64 26.5 -104.5t112.5 -40.5z" />
    <glyph glyph-name="h" unicode="h" horiz-adv-x="1021" 
d="M31 -25l209 1475h286l-69 -498q119 80 217 80q91 0 158 -34.5t103.5 -94t49 -135t0.5 -162.5l-90 -631h-287l90 629q9 73 -26.5 106t-77.5 31q-113 -7 -186 -133l-91 -633h-286z" />
    <glyph glyph-name="i" unicode="i" horiz-adv-x="532" 
d="M31 -25l149 1057h289l-150 -1057h-288zM328 1145q-63 0 -102.5 45t-30.5 108q9 62 61 107t115 45q61 0 99.5 -45t29.5 -107q-9 -63 -59.5 -108t-112.5 -45z" />
    <glyph glyph-name="j" unicode="j" horiz-adv-x="831" 
d="M215 -430q-214 -4 -307 205l262 94q3 -13 5 -17.5t7 -13.5t14.5 -12.5t24.5 -3.5q76 0 90 96l156 1114h287l-156 -1114q-21 -151 -132 -248t-251 -100zM627 1126q-63 0 -102 45.5t-31 108.5q9 62 61 107t115 45q61 0 99.5 -45t29.5 -107q-7 -63 -58.5 -108.5
t-113.5 -45.5z" />
    <glyph glyph-name="k" unicode="k" horiz-adv-x="1208" 
d="M31 -25l209 1475h286l-110 -780l370 362h392l-492 -477l326 -580h-355l-200 359l-103 -96l-37 -263h-286z" />
    <glyph glyph-name="l" unicode="l" horiz-adv-x="557" 
d="M31 -25l209 1475h286l-209 -1475h-286z" />
    <glyph glyph-name="m" unicode="m" horiz-adv-x="1398" 
d="M31 -25l147 1055l287 2l-10 -80q112 74 217 80q125 5 180 -78q120 78 229 78q171 0 240 -109.5t39 -316.5l-88 -631h-287l96 684q4 30 -3.5 50.5t-22.5 27.5t-24 9t-17 2q-52 0 -84 -22.5t-60 -63.5l-96 -687h-256l94 672q4 30 -4.5 49.5t-25.5 27t-27.5 9.5t-19.5 2
q-69 0 -123 -86l-95 -674h-286z" />
    <glyph glyph-name="n" unicode="n" horiz-adv-x="1019" 
d="M31 -25l147 1057h287l-10 -80q119 80 217 80q91 0 158.5 -34.5t103 -93t50 -136t-0.5 -162.5l-88 -631h-287l88 629q9 73 -26.5 106t-77.5 31q-113 -7 -186 -133l-89 -633h-286z" />
    <glyph glyph-name="o" unicode="o" 
d="M434 -25q-93 0 -172.5 36.5t-136 102.5t-81 167t-7.5 223q23 161 107 283.5t198.5 183.5t239.5 61q94 0 173.5 -36t135.5 -102t80.5 -167t7.5 -223t-70 -223t-128 -167t-164.5 -102.5t-182.5 -36.5zM475 266q89 0 143 55.5t72 182.5t-21 182t-128 55t-144 -55t-73 -182
t22 -182.5t129 -55.5z" />
    <glyph glyph-name="p" unicode="p" horiz-adv-x="1103" 
d="M31 -430l205 1462h286l-12 -82q122 82 209 82q127 0 213.5 -69.5t120 -188.5t12.5 -268q-35 -246 -168.5 -388.5t-314.5 -142.5q-57 0 -109.5 24.5t-87.5 55.5l-68 -485h-286zM594 266q65 0 115.5 60.5t66.5 177.5q17 117 -13.5 177t-96.5 60q-130 0 -203 -131l-29 -211
q23 -66 58 -99.5t102 -33.5z" />
    <glyph glyph-name="q" unicode="q" horiz-adv-x="1046" 
d="M592 55q-42 -31 -101 -55.5t-116 -24.5q-181 0 -276 143t-60 388q31 228 166.5 377t326.5 149q89 0 185 -82l12 82h287l-205 -1462h-287zM444 266q66 0 109.5 33t87.5 100l29 211q-14 56 -54.5 93.5t-111.5 37.5q-66 0 -112.5 -59.5t-63.5 -177.5q-16 -117 17.5 -177.5
t98.5 -60.5z" />
    <glyph glyph-name="r" unicode="r" horiz-adv-x="962" 
d="M31 -25l147 1057h287l-12 -82q126 82 219 82q149 0 214 -97t40 -276l-6 -36h-263l5 43q3 33 -13 54t-57 21q-108 0 -186 -133l-89 -633h-286z" />
    <glyph glyph-name="s" unicode="s" horiz-adv-x="894" 
d="M356 -25q-51 0 -100.5 11t-97 37.5t-81 65.5t-48 101.5t-0.5 139.5h280q-7 -34 20.5 -60t92.5 -26q61 0 92 21t37 46q2 20 -10.5 32.5t-51.5 16.5l-178 21q-286 34 -239 299q19 107 91 188.5t171 122.5t207 41q59 0 110 -10.5t99 -34.5t76.5 -64.5t42.5 -100.5t-3 -142
l-272 8q6 29 -18.5 52.5t-88.5 23.5q-115 0 -122 -51q-3 -17 4.5 -28t25.5 -17t35 -8.5t45 -4.5l96 -6q92 -6 152.5 -33.5t87.5 -70.5t35.5 -99t-4.5 -120q-25 -153 -159.5 -252t-326.5 -99z" />
    <glyph glyph-name="t" unicode="t" horiz-adv-x="768" 
d="M35 -25l115 807h-119l35 250h118l60 418h286l-59 -418h266l-35 -250h-266l-114 -807h-287z" />
    <glyph glyph-name="u" unicode="u" horiz-adv-x="1019" 
d="M348 -25q-91 0 -158.5 34.5t-103 93t-50 136t0.5 162.5l88 631h287l-88 -629q-9 -73 26.5 -106t77.5 -31q113 7 186 133l88 633h287l-147 -1057h-287l10 80q-119 -80 -217 -80z" />
    <glyph glyph-name="v" unicode="v" horiz-adv-x="1091" 
d="M307 -25l-276 1057h311l131 -514l277 514h311l-576 -1057h-178z" />
    <glyph glyph-name="w" unicode="w" horiz-adv-x="1425" 
d="M236 -25l-205 1057h303l86 -426l198 426h191l80 -426l203 426h303l-498 -1057h-192l-78 426l-201 -426h-190z" />
    <glyph glyph-name="x" unicode="x" horiz-adv-x="1304" 
d="M31 -25l452 539l-297 518h355l155 -270l226 270h352l-434 -520l301 -537h-355l-161 285l-240 -285h-354z" />
    <glyph glyph-name="y" unicode="y" horiz-adv-x="1101" 
d="M88 -336l221 449l-278 919h313l160 -526l262 526h305l-678 -1368h-305z" />
    <glyph glyph-name="z" unicode="z" horiz-adv-x="1007" 
d="M31 -25l28 201l459 565h-375l41 291h793l-29 -201l-461 -565h383l-41 -291h-798z" />
    <glyph glyph-name="braceleft" unicode="{" horiz-adv-x="823" 
d="M592 -317q-128 47 -209 97t-121.5 106t-51.5 121.5t1 144.5l25 174q5 34 5.5 62t-4.5 50.5t-12 40t-22 33.5t-29 27t-38 23t-43.5 21t-51.5 21q47 17 75.5 29t61 29.5t51.5 36t37.5 45t29.5 60.5t17 79l27 184q25 182 139.5 287t372.5 168l39 -140q-62 -10 -105.5 -28.5
t-80 -53.5t-59.5 -92.5t-34 -140.5l-26 -184q-13 -96 -54.5 -155t-136.5 -124q79 -61 103 -120t10 -158l-25 -174q-12 -71 -6.5 -123.5t18 -87.5t40.5 -58.5t60.5 -36t78.5 -18.5z" />
    <glyph glyph-name="bar" unicode="|" horiz-adv-x="368" 
d="M199 -317h-287l258 1839h287z" />
    <glyph glyph-name="braceright" unicode="}" horiz-adv-x="823" 
d="M-68 -172q81 11 134 40t92.5 98.5t56.5 185.5l25 174q14 99 54 158t136 120q-77 64 -101.5 123.5t-11.5 155.5l25 184q12 67 7 117t-16.5 84t-39 57t-60.5 36t-79 21l77 140q241 -63 325.5 -168.5t57.5 -286.5l-24 -184q-5 -34 -5.5 -61.5t4.5 -50t12 -40t22 -33.5
t28.5 -27t37.5 -23.5t43.5 -21.5t51.5 -22q-47 -17 -75.5 -28t-61 -28.5t-51.5 -36t-37.5 -45t-29.5 -61t-17 -79.5l-25 -174q-12 -84 -40 -145.5t-85.5 -119.5t-152 -107.5t-236.5 -96.5z" />
    <glyph glyph-name="exclamdown" unicode="&#xa1;" horiz-adv-x="520" 
d="M176 690h254l-115 -934h-284zM199 963q9 65 52 102t111 37q69 0 101.5 -37t23.5 -102t-52 -103.5t-111 -38.5t-101 38.5t-24 103.5z" />
    <glyph glyph-name="cent" unicode="&#xa2;" horiz-adv-x="1013" 
d="M539 -68h-232l37 258q-103 21 -179 87t-112 178.5t-16 253.5q30 210 156.5 348t293.5 170l29 198h229l-28 -208q125 -41 198.5 -153.5t67.5 -277.5h-289q0 60 -24 99l-49 -355q17 20 32 50h295q-50 -152 -151 -245.5t-222 -131.5zM324 709q-23 -171 61 -217l61 436
q-100 -49 -122 -219z" />
    <glyph glyph-name="sterling" unicode="&#xa3;" horiz-adv-x="1288" 
d="M846 1466q111 0 196.5 -36t134 -96t68.5 -135t8 -157l-6 -45h-293l7 35q9 74 -23.5 105.5t-132.5 31.5q-128 0 -182 -58t-74 -210l-53 -375h354l-37 -266h-354l-31 -219h481l-41 -266h-862l41 266h88l31 219h-135l37 266h135l53 375q35 256 189 410.5t401 154.5z" />
    <glyph glyph-name="yen" unicode="&#xa5;" horiz-adv-x="1411" 
d="M350 -25l33 230h-240l33 239h240l16 109h-239l32 240h129l-323 657h350l252 -518l399 518h348l-510 -657h158l-33 -240h-270l-16 -109h270l-33 -239h-270l-33 -230h-293z" />
    <glyph glyph-name="section" unicode="&#xa7;" horiz-adv-x="974" 
d="M610 655q-7 7 -52.5 30.5t-72.5 33.5q-12 4 -16 4q-63 -11 -103.5 -39.5t-46.5 -71.5q-6 -58 25 -86q31 -31 121 -57q84 3 122 29t44 61q3 28 -4 58t-17 38zM45 614q9 71 50.5 131t107.5 93q-65 87 -45 233q22 157 145.5 260t310.5 103q142 0 251 -81.5t149 -191.5
l-228 -145q-63 87 -108 113t-109 26q-118 0 -131 -80q-7 -51 45 -80q29 -16 140 -51q166 -51 227 -127q80 -94 59 -248q-4 -47 -41.5 -117.5t-107.5 -119.5q57 -86 37 -219q-23 -162 -149 -262.5t-310 -100.5q-138 0 -233 58.5t-142 150.5l213 174q60 -65 104 -90t103 -25
q119 0 133 88q2 18 -0.5 32.5t-15 26.5t-23 20t-39 18.5t-46.5 16t-60 18.5q-155 46 -219 112q-91 97 -68 264z" />
    <glyph glyph-name="dieresis" unicode="&#xa8;" horiz-adv-x="497" 
d="M102 1094q-49 0 -78.5 34t-23.5 84q6 49 45.5 84t89.5 35q49 0 79 -34.5t24 -84.5q-6 -49 -46 -83.5t-90 -34.5zM362 1094q-49 0 -78.5 34t-23.5 84q6 49 45.5 84t89.5 35q49 0 79 -34.5t24 -84.5q-6 -49 -46 -83.5t-90 -34.5z" />
    <glyph glyph-name="copyright" unicode="&#xa9;" horiz-adv-x="1505" 
d="M653 -20q-201 0 -351 92.5t-219.5 257.5t-41.5 370q21 151 92 283t176.5 228t246.5 151t296 55q157 0 283 -56t204.5 -153t112 -229t12.5 -281q-21 -152 -92.5 -285t-177.5 -228t-246.5 -150t-294.5 -55zM676 154q245 0 408.5 152t197.5 394t-91 392.5t-364 150.5
q-246 0 -407.5 -151t-196.5 -392q-34 -244 91 -395t362 -151zM1069 465q-63 -72 -153 -114t-189 -42q-169 0 -268 110t-76 273q22 162 150.5 272.5t300.5 110.5q100 0 180.5 -43t118.5 -117l-127 -108q-56 63 -97.5 85.5t-97.5 22.5q-112 0 -181 -59t-83 -164
q-15 -102 39 -163.5t162 -61.5q56 0 106.5 24t124.5 91z" />
    <glyph glyph-name="ordfeminine" unicode="&#xaa;" horiz-adv-x="514" 
d="M154 911q-83 0 -118.5 48.5t-15.5 117.5q20 68 80.5 114t145.5 46h108q14 63 -53 63q-21 0 -37.5 -7t-25 -17t-12.5 -17t-5 -12h-141q24 103 102 146q64 41 152 41q100 0 139 -52q47 -55 14 -178l-81 -293h-142l8 27q-53 -27 -118 -27zM203 1032q55 0 106 60l6 24h-88
q-28 0 -43.5 -12.5t-19.5 -28.5q-6 -19 5 -31t34 -12z" />
    <glyph glyph-name="guillemotleft" unicode="&#xab;" horiz-adv-x="1036" 
d="M258 156l-217 362l319 361h306l-326 -361l223 -362h-305zM639 156l-217 362l319 361h306l-326 -361l223 -362h-305z" />
    <glyph glyph-name="registered" unicode="&#xae;" horiz-adv-x="1087" 
d="M473 475q-106 0 -194 38t-145.5 104.5t-82.5 162t-10 205.5q31 216 191.5 360t379.5 144q146 0 253 -67t154.5 -182.5t27.5 -256.5q-31 -217 -193 -362.5t-381 -145.5zM496 662q169 0 266 108h-158l-108 148h-7l-22 -148h-121l64 451h192q70 0 112.5 -43t33.5 -109
q-13 -94 -105 -133l123 -162q72 81 90 211q22 147 -49 232.5t-221 85.5q-146 0 -240.5 -85t-116.5 -233q-22 -151 51 -237t216 -86zM575 1036q29 0 38 6t12 27q3 22 -4.5 27.5t-36.5 5.5h-70l-8 -66h69z" />
    <glyph glyph-name="macron" unicode="&#xaf;" horiz-adv-x="395" 
d="M10 1278h396l-21 -141h-395z" />
    <glyph glyph-name="degree" unicode="&#xb0;" horiz-adv-x="692" 
d="M346 803q-132 0 -218.5 86.5t-86.5 218.5q0 136 88.5 222.5t216.5 86.5q133 0 219 -87t86 -222q0 -128 -85.5 -216.5t-219.5 -88.5zM346 999q47 0 77 31.5t30 79.5q0 49 -30 80t-77 31q-46 0 -76 -31t-30 -80q0 -47 30 -79t76 -32z" />
    <glyph glyph-name="uni00B2" unicode="&#xb2;" horiz-adv-x="552" 
d="M29 999q148 134 237 230q79 82 102.5 114.5t26.5 61.5q3 37 -14.5 57.5t-65.5 20.5q-81 0 -98 -70h-139q21 109 85.5 156t170.5 47q109 0 161.5 -50t39.5 -145q-7 -52 -45 -116t-130 -160q-89 -90 -112 -109h258l-21 -133h-471z" />
    <glyph glyph-name="uni00B3" unicode="&#xb3;" horiz-adv-x="550" 
d="M231 901q-121 0 -174 59.5t-39 153.5h142q-1 -13 2 -25t11.5 -24.5t28 -20.5t48.5 -8q56 0 83.5 26t31.5 60q8 45 -13 61.5t-86 16.5h-100l18 135h99q54 0 79 18.5t31 63.5q5 30 -13 50t-67 20q-19 0 -35 -3.5t-26 -10t-17.5 -13.5t-11 -14.5t-6 -13.5t-3.5 -10l-1 -5
h-141q19 111 85 159t175 48q106 0 160.5 -49.5t42.5 -149.5q-11 -80 -78 -147q63 -60 45 -164q-14 -98 -86.5 -155.5t-184.5 -57.5z" />
    <glyph glyph-name="acute" unicode="&#xb4;" horiz-adv-x="299" 
d="M0 1094l141 202h158l-143 -202h-156z" />
    <glyph glyph-name="periodcentered" unicode="&#xb7;" horiz-adv-x="401" 
d="M41 578q13 95 96 136q72 37 142 11q72 -26 82 -101q2 -22 -1 -46q-13 -91 -96 -131q-73 -36 -144 -10q-72 26 -80 100q-2 19 1 41z" />
    <glyph glyph-name="cedilla" unicode="&#xb8;" horiz-adv-x="335" 
d="M133 -418q-79 -12 -160 29l50 98q19 -18 50.5 -24.5t65.5 0.5q78 10 86 63q3 25 -10.5 36t-48.5 11q-39 0 -109 -22l-32 39l61 206h104l-38 -129q12 2 30 2q72 0 114.5 -37.5t33.5 -105.5q-10 -66 -66.5 -111.5t-130.5 -54.5z" />
    <glyph glyph-name="uni00B9" unicode="&#xb9;" horiz-adv-x="335" 
d="M82 901l74 529l-142 -82l23 159l190 115h95l-103 -721h-137z" />
    <glyph glyph-name="ordmasculine" unicode="&#xba;" horiz-adv-x="546" 
d="M195 911q-96 0 -145 71t-15 189q34 120 122 191.5t183 71.5q97 0 145.5 -71.5t14.5 -191.5q-34 -118 -122 -189t-183 -71zM236 1055q43 0 72.5 27t47.5 89q34 119 -57 119q-89 0 -123 -119q-34 -116 60 -116z" />
    <glyph glyph-name="guillemotright" unicode="&#xbb;" horiz-adv-x="1030" 
d="M670 156h-305l325 362l-225 361h305l219 -361zM295 156h-305l325 362l-225 361h305l219 -361z" />
    <glyph glyph-name="questiondown" unicode="&#xbf;" horiz-adv-x="899" 
d="M434 694l29 99h229l-28 -99q-23 -85 -82.5 -155.5t-184.5 -149.5q-56 -36 -91 -65.5t-56.5 -63.5t-31.5 -59.5t-25 -75.5q-13 -45 -16 -80.5t2 -57.5t16 -38.5t26 -23t31 -11.5t32 -4t29 0h11q45 0 83 17t59 37t40 55.5t24.5 51t14.5 44.5q1 4 2 6h229
q-36 -125 -104 -220t-173.5 -152.5t-234.5 -57.5q-47 0 -90.5 8t-88 26t-77 51.5t-53 79.5t-20.5 115t24 154q40 144 108.5 225.5t223.5 177.5q73 47 103 84.5t40 81.5zM776 997q-38 -91 -133 -131q-83 -34 -147 -8q-64 27 -51 101q3 18 12 38q37 88 131 127q83 33 146 7
q65 -26 53 -97q-3 -18 -11 -37z" />
    <glyph glyph-name="Agrave" unicode="&#xc0;" horiz-adv-x="1495" 
d="M31 -25l831 1475h189l413 -1475h-319l-82 304h-543l-172 -304h-317zM674 541h311l-102 374zM1102 1503h-156l-143 203h158z" />
    <glyph glyph-name="Aacute" unicode="&#xc1;" horiz-adv-x="1495" 
d="M31 -25l831 1475h189l413 -1475h-319l-82 304h-543l-172 -304h-317zM674 541h311l-102 374zM803 1503l141 203h158l-144 -203h-155z" />
    <glyph glyph-name="Acircumflex" unicode="&#xc2;" horiz-adv-x="1495" 
d="M31 -25l831 1475h189l413 -1475h-319l-82 304h-543l-172 -304h-317zM674 541h311l-102 374zM705 1503l198 203h158l84 -203h-156l-39 92l-90 -92h-155z" />
    <glyph glyph-name="Atilde" unicode="&#xc3;" horiz-adv-x="1495" 
d="M31 -25l831 1475h189l413 -1475h-319l-82 304h-543l-172 -304h-317zM674 541h311l-102 374zM1180 1671q-13 -74 -50.5 -121t-95.5 -47q-48 0 -96 56q-21 24 -30 31t-19 7q-27 0 -42 -19.5t-28 -74.5h-100q19 89 67 142t117 53q61 0 117 -66q16 -21 20 -24.5t9 -3.5
q10 0 13 7t19 60h99z" />
    <glyph glyph-name="Adieresis" unicode="&#xc4;" horiz-adv-x="1495" 
d="M31 -25l831 1475h189l413 -1475h-319l-82 304h-543l-172 -304h-317zM674 541h311l-102 374zM805 1503q-49 0 -79 34.5t-24 84.5q6 49 46 84t90 35q49 0 78.5 -34.5t23.5 -84.5q-6 -49 -45.5 -84t-89.5 -35zM1065 1503q-49 0 -78.5 34.5t-23.5 84.5q6 49 45.5 84t89.5 35
q49 0 78.5 -34.5t23.5 -84.5q-6 -49 -45.5 -84t-89.5 -35z" />
    <glyph glyph-name="Aring" unicode="&#xc5;" horiz-adv-x="1495" 
d="M31 -25l831 1475h189l413 -1475h-319l-82 304h-543l-172 -304h-317zM674 541h311l-102 374zM938 1503q-47 0 -73.5 31t-20.5 76q6 41 41.5 71.5t81.5 30.5q45 0 71.5 -30.5t20.5 -71.5q-6 -45 -41 -76t-80 -31zM948 1579q13 0 22 9t11 22q2 10 -5 18t-20 8q-28 0 -32 -26
q-2 -14 5 -22.5t19 -8.5z" />
    <glyph glyph-name="AE" unicode="&#xc6;" horiz-adv-x="2492" 
d="M31 -25l1421 1446l4 29h1006l-43 -297h-713l-37 -270h662l-43 -297h-662l-43 -314h707l-43 -295h-783v-2h-319l45 304h-543l-299 -304h-317zM911 541h312l53 374z" />
    <glyph glyph-name="Ccedilla" unicode="&#xc7;" horiz-adv-x="1419" 
d="M571 -418q-78 -12 -159 29l49 98q19 -18 51 -24.5t66 0.5q78 10 86 63q3 25 -11 36t-49 11q-38 0 -108 -22l-33 39l45 149q-244 36 -377 240t-90 510q24 170 97 313.5t176.5 240.5t233 151t267.5 54q133 0 241 -47t180 -130t111.5 -195t41.5 -242h-295
q-6 153 -89.5 235.5t-230.5 82.5q-72 0 -141.5 -29t-131 -84t-106.5 -145.5t-61 -204.5q-29 -208 56 -333.5t253 -125.5q163 0 268 92.5t150 249.5h293q-56 -200 -170 -345t-261 -218.5t-313 -75.5l-20 -66q12 2 31 2q72 0 114 -37.5t33 -105.5q-10 -66 -66.5 -111.5
t-130.5 -54.5z" />
    <glyph glyph-name="Egrave" unicode="&#xc8;" horiz-adv-x="1275" 
d="M31 -23l209 1473h1005l-43 -297h-713l-36 -270h661l-43 -297h-661l-43 -314h706l-43 -295h-999zM889 1503h-156l-143 203h158z" />
    <glyph glyph-name="Eacute" unicode="&#xc9;" horiz-adv-x="1275" 
d="M31 -23l209 1473h1005l-43 -297h-713l-36 -270h661l-43 -297h-661l-43 -314h706l-43 -295h-999zM590 1503l141 203h158l-144 -203h-155z" />
    <glyph glyph-name="Ecircumflex" unicode="&#xca;" horiz-adv-x="1275" 
d="M31 -23l209 1473h1005l-43 -297h-713l-36 -270h661l-43 -297h-661l-43 -314h706l-43 -295h-999zM492 1503l198 203h158l84 -203h-156l-39 92l-90 -92h-155z" />
    <glyph glyph-name="Edieresis" unicode="&#xcb;" horiz-adv-x="1275" 
d="M31 -23l209 1473h1005l-43 -297h-713l-36 -270h661l-43 -297h-661l-43 -314h706l-43 -295h-999zM592 1503q-49 0 -79 34.5t-24 84.5q6 49 46 84t90 35q49 0 78.5 -34.5t23.5 -84.5q-6 -49 -45.5 -84t-89.5 -35zM852 1503q-49 0 -78.5 34.5t-23.5 84.5q6 49 45.5 84
t89.5 35q49 0 78.5 -34.5t23.5 -84.5q-6 -49 -45.5 -84t-89.5 -35z" />
    <glyph glyph-name="Igrave" unicode="&#xcc;" horiz-adv-x="563" 
d="M31 -25l209 1475h292l-208 -1475h-293zM532 1503h-155l-144 203h158z" />
    <glyph glyph-name="Iacute" unicode="&#xcd;" horiz-adv-x="563" 
d="M31 -25l209 1475h292l-208 -1475h-293zM233 1503l142 203h157l-143 -203h-156z" />
    <glyph glyph-name="Icircumflex" unicode="&#xce;" horiz-adv-x="563" 
d="M31 -25l209 1475h292l-208 -1475h-293zM135 1503l199 203h158l83 -203h-155l-39 92l-90 -92h-156z" />
    <glyph glyph-name="Idieresis" unicode="&#xcf;" horiz-adv-x="563" 
d="M31 -25l209 1475h292l-208 -1475h-293zM236 1503q-49 0 -79 34.5t-24 84.5q6 49 45.5 84t89.5 35q49 0 79 -34.5t24 -84.5q-6 -49 -45.5 -84t-89.5 -35zM496 1503q-49 0 -79 34.5t-24 84.5q6 49 45.5 84t89.5 35q49 0 79 -34.5t24 -84.5q-6 -49 -45.5 -84t-89.5 -35z" />
    <glyph glyph-name="Eth" unicode="&#xd0;" horiz-adv-x="1396" 
d="M31 -25l71 510h-256l37 267h258l99 698h551q142 0 258 -54.5t191 -151t106.5 -234.5t9.5 -299q-23 -161 -88 -297t-163.5 -233t-232.5 -151.5t-288 -54.5h-553zM627 272q197 0 301 107.5t135 331.5q30 215 -54.5 328.5t-260.5 113.5h-259l-55 -401h232l-37 -267h-232
l-30 -213h260z" />
    <glyph glyph-name="Ntilde" unicode="&#xd1;" horiz-adv-x="1503" 
d="M31 -25l209 1475h243l570 -901l127 901h293l-207 -1473l-217 -2l-592 934l-133 -934h-293zM1079 1671q-13 -74 -50 -121t-95 -47q-48 0 -96 56q-33 38 -50 38q-27 0 -41.5 -19.5t-27.5 -74.5h-101q19 89 67.5 142t117.5 53q61 0 117 -66q17 -22 20.5 -25t7.5 -3
q10 0 14 7.5t19 59.5h98z" />
    <glyph glyph-name="Ograve" unicode="&#xd2;" horiz-adv-x="1421" 
d="M602 -45q-138 0 -252.5 54t-191.5 150.5t-109 239.5t-8 312q24 170 97 313.5t176.5 240.5t233 151t267.5 54t253 -54t192.5 -151t110.5 -240.5t9 -313.5q-24 -168 -97 -311t-177 -240t-234.5 -151t-269.5 -54zM643 252q175 0 293 116t151 343q33 229 -52.5 346
t-260.5 117q-173 0 -290 -117t-150 -346q-33 -226 51.5 -342.5t257.5 -116.5zM961 1503h-156l-143 203h157z" />
    <glyph glyph-name="Oacute" unicode="&#xd3;" horiz-adv-x="1421" 
d="M602 -45q-138 0 -252.5 54t-191.5 150.5t-109 239.5t-8 312q24 170 97 313.5t176.5 240.5t233 151t267.5 54t253 -54t192.5 -151t110.5 -240.5t9 -313.5q-24 -168 -97 -311t-177 -240t-234.5 -151t-269.5 -54zM643 252q175 0 293 116t151 343q33 229 -52.5 346
t-260.5 117q-173 0 -290 -117t-150 -346q-33 -226 51.5 -342.5t257.5 -116.5zM662 1503l141 203h158l-144 -203h-155z" />
    <glyph glyph-name="Ocircumflex" unicode="&#xd4;" horiz-adv-x="1421" 
d="M602 -45q-138 0 -252.5 54t-191.5 150.5t-109 239.5t-8 312q24 170 97 313.5t176.5 240.5t233 151t267.5 54t253 -54t192.5 -151t110.5 -240.5t9 -313.5q-24 -168 -97 -311t-177 -240t-234.5 -151t-269.5 -54zM643 252q175 0 293 116t151 343q33 229 -52.5 346
t-260.5 117q-173 0 -290 -117t-150 -346q-33 -226 51.5 -342.5t257.5 -116.5zM563 1503l199 203h158l84 -203h-156l-39 92l-90 -92h-156z" />
    <glyph glyph-name="Otilde" unicode="&#xd5;" horiz-adv-x="1421" 
d="M602 -45q-138 0 -252.5 54t-191.5 150.5t-109 239.5t-8 312q24 170 97 313.5t176.5 240.5t233 151t267.5 54t253 -54t192.5 -151t110.5 -240.5t9 -313.5q-24 -168 -97 -311t-177 -240t-234.5 -151t-269.5 -54zM643 252q175 0 293 116t151 343q33 229 -52.5 346
t-260.5 117q-173 0 -290 -117t-150 -346q-33 -226 51.5 -342.5t257.5 -116.5zM1038 1671q-13 -74 -50 -121t-95 -47q-48 0 -96 56q-21 24 -30 31t-19 7q-27 0 -42 -19.5t-28 -74.5h-100q19 89 67 142t117 53q61 0 117 -66q17 -22 20 -25t8 -3q10 0 14 7.5t19 59.5h98z" />
    <glyph glyph-name="Odieresis" unicode="&#xd6;" horiz-adv-x="1421" 
d="M602 -45q-138 0 -252.5 54t-191.5 150.5t-109 239.5t-8 312q24 170 97 313.5t176.5 240.5t233 151t267.5 54t253 -54t192.5 -151t110.5 -240.5t9 -313.5q-24 -168 -97 -311t-177 -240t-234.5 -151t-269.5 -54zM643 252q175 0 293 116t151 343q33 229 -52.5 346
t-260.5 117q-173 0 -290 -117t-150 -346q-33 -226 51.5 -342.5t257.5 -116.5zM664 1503q-49 0 -79 34.5t-24 84.5q6 49 45.5 84t89.5 35q49 0 79 -34.5t24 -84.5q-6 -49 -45.5 -84t-89.5 -35zM924 1503q-49 0 -79 34.5t-24 84.5q6 49 45.5 84t89.5 35q49 0 79 -34.5
t24 -84.5q-6 -49 -45.5 -84t-89.5 -35z" />
    <glyph glyph-name="multiply" unicode="&#xd7;" horiz-adv-x="974" 
d="M807 856l137 -137l-311 -234l272 -272l-155 -117l-273 273l-309 -236l-137 137l311 234l-272 272l155 117l273 -272z" />
    <glyph glyph-name="Oslash" unicode="&#xd8;" horiz-adv-x="1421" 
d="M522 -240h-284l94 256q-166 86 -245.5 267.5t-45.5 427.5q24 170 97 313.5t176.5 240.5t233 151t267.5 54l49 -2l49 134h285l-78 -213q150 -90 221.5 -267.5t38.5 -410.5q-24 -168 -97 -311t-177 -240t-234.5 -151t-269.5 -54h-8zM334 711q-42 -287 106 -400l316 863
q-166 -6 -278.5 -123t-143.5 -340zM705 256q151 19 251.5 134t130.5 321q36 257 -77 376z" />
    <glyph glyph-name="Ugrave" unicode="&#xd9;" horiz-adv-x="1396" 
d="M551 -45q-278 0 -417 186.5t-91 528.5l109 780h292l-108 -780q-15 -95 -11 -165.5t20.5 -118.5t51.5 -78t82 -43t113 -13q113 0 185 38t119 129.5t69 250.5l108 780h293l-109 -780q-49 -343 -238.5 -529t-467.5 -186zM907 1503h-155l-144 203h158z" />
    <glyph glyph-name="Uacute" unicode="&#xda;" horiz-adv-x="1396" 
d="M551 -45q-278 0 -417 186.5t-91 528.5l109 780h292l-108 -780q-15 -95 -11 -165.5t20.5 -118.5t51.5 -78t82 -43t113 -13q113 0 185 38t119 129.5t69 250.5l108 780h293l-109 -780q-49 -343 -238.5 -529t-467.5 -186zM608 1503l142 203h157l-143 -203h-156z" />
    <glyph glyph-name="Ucircumflex" unicode="&#xdb;" horiz-adv-x="1396" 
d="M551 -45q-278 0 -417 186.5t-91 528.5l109 780h292l-108 -780q-15 -95 -11 -165.5t20.5 -118.5t51.5 -78t82 -43t113 -13q113 0 185 38t119 129.5t69 250.5l108 780h293l-109 -780q-49 -343 -238.5 -529t-467.5 -186zM510 1503l199 203h157l84 -203h-155l-39 92l-90 -92
h-156z" />
    <glyph glyph-name="Udieresis" unicode="&#xdc;" horiz-adv-x="1396" 
d="M551 -45q-278 0 -417 186.5t-91 528.5l109 780h292l-108 -780q-15 -95 -11 -165.5t20.5 -118.5t51.5 -78t82 -43t113 -13q113 0 185 38t119 129.5t69 250.5l108 780h293l-109 -780q-49 -343 -238.5 -529t-467.5 -186zM610 1503q-49 0 -78.5 34.5t-23.5 84.5q6 49 45.5 84
t89.5 35q49 0 78.5 -34.5t23.5 -84.5q-6 -49 -45.5 -84t-89.5 -35zM870 1503q-49 0 -78.5 34.5t-23.5 84.5q6 49 45.5 84t89.5 35q49 0 79 -34.5t24 -84.5q-6 -49 -46 -84t-90 -35z" />
    <glyph glyph-name="Yacute" unicode="&#xdd;" horiz-adv-x="1411" 
d="M350 -25l90 641l-409 834h350l252 -518l399 518h348l-647 -834l-90 -641h-293zM553 1503l141 203h158l-143 -203h-156z" />
    <glyph glyph-name="Thorn" unicode="&#xde;" horiz-adv-x="1173" 
d="M31 -20l4 26l205 1444h286l-26 -188h280q111 0 202 -34t151.5 -95t86.5 -152t9 -199q-36 -217 -207 -346t-397 -129h-248l-53 -327h-7v-5h-286v5zM668 563q121 0 184.5 51t83.5 168q19 117 -29.5 169.5t-169.5 52.5h-248l-69 -441h248z" />
    <glyph glyph-name="germandbls" unicode="&#xdf;" horiz-adv-x="1159" 
d="M713 1450q211 0 324 -115.5t87 -308.5q-21 -148 -118 -260q121 -127 94 -330q-29 -205 -193 -333t-399 -128h-57l43 299h67q101 0 165.5 40t76.5 122q11 81 -39 121.5t-137 40.5h-84l41 295h75q87 0 120 26.5t44 102.5q10 67 -36.5 98t-116.5 31h-2q-77 0 -132 -30.5
t-65 -98.5l-147 -1047h-293l149 1051q26 192 172.5 308t358.5 116h2z" />
    <glyph glyph-name="agrave" unicode="&#xe0;" horiz-adv-x="985" 
d="M350 -25q-166 0 -250.5 97.5t-64.5 236.5q20 140 128.5 233t282.5 93h220q7 57 -24 93t-103 36q-43 0 -74.5 -14t-45.5 -35t-19.5 -34.5t-6.5 -23.5h-284q21 203 163 295q116 80 295 80q205 0 299 -100q113 -121 80 -363l-84 -594h-287l9 56q-97 -56 -234 -56zM418 221
q113 0 198 119l7 49h-181q-56 0 -84.5 -24t-31.5 -58q-6 -37 19.5 -61.5t72.5 -24.5zM723 1094h-156l-143 202h158z" />
    <glyph glyph-name="aacute" unicode="&#xe1;" horiz-adv-x="985" 
d="M350 -25q-166 0 -250.5 97.5t-64.5 236.5q20 140 128.5 233t282.5 93h220q7 57 -24 93t-103 36q-43 0 -74.5 -14t-45.5 -35t-19.5 -34.5t-6.5 -23.5h-284q21 203 163 295q116 80 295 80q205 0 299 -100q113 -121 80 -363l-84 -594h-287l9 56q-97 -56 -234 -56zM418 221
q113 0 198 119l7 49h-181q-56 0 -84.5 -24t-31.5 -58q-6 -37 19.5 -61.5t72.5 -24.5zM424 1094l141 202h158l-143 -202h-156z" />
    <glyph glyph-name="acircumflex" unicode="&#xe2;" horiz-adv-x="985" 
d="M350 -25q-166 0 -250.5 97.5t-64.5 236.5q20 140 128.5 233t282.5 93h220q7 57 -24 93t-103 36q-43 0 -74.5 -14t-45.5 -35t-19.5 -34.5t-6.5 -23.5h-284q21 203 163 295q116 80 295 80q205 0 299 -100q113 -121 80 -363l-84 -594h-287l9 56q-97 -56 -234 -56zM418 221
q113 0 198 119l7 49h-181q-56 0 -84.5 -24t-31.5 -58q-6 -37 19.5 -61.5t72.5 -24.5zM326 1094l198 202h158l84 -202h-156l-39 92l-90 -92h-155z" />
    <glyph glyph-name="atilde" unicode="&#xe3;" horiz-adv-x="985" 
d="M350 -25q-166 0 -250.5 97.5t-64.5 236.5q20 140 128.5 233t282.5 93h220q7 57 -24 93t-103 36q-43 0 -74.5 -14t-45.5 -35t-19.5 -34.5t-6.5 -23.5h-284q21 203 163 295q116 80 295 80q205 0 299 -100q113 -121 80 -363l-84 -594h-287l9 56q-97 -56 -234 -56zM418 221
q113 0 198 119l7 49h-181q-56 0 -84.5 -24t-31.5 -58q-6 -37 19.5 -61.5t72.5 -24.5zM801 1262q-13 -74 -50.5 -121t-95.5 -47q-49 0 -96 55q-21 24 -30 31.5t-19 7.5q-27 0 -42 -19.5t-28 -74.5h-100q19 89 67 141.5t117 52.5q62 0 117 -65q17 -22 21 -25.5t8 -3.5
q10 0 13 7t19 61h99z" />
    <glyph glyph-name="adieresis" unicode="&#xe4;" horiz-adv-x="985" 
d="M350 -25q-166 0 -250.5 97.5t-64.5 236.5q20 140 128.5 233t282.5 93h220q7 57 -24 93t-103 36q-43 0 -74.5 -14t-45.5 -35t-19.5 -34.5t-6.5 -23.5h-284q21 203 163 295q116 80 295 80q205 0 299 -100q113 -121 80 -363l-84 -594h-287l9 56q-97 -56 -234 -56zM418 221
q113 0 198 119l7 49h-181q-56 0 -84.5 -24t-31.5 -58q-6 -37 19.5 -61.5t72.5 -24.5zM426 1094q-49 0 -78.5 34t-23.5 84q6 49 45.5 84t89.5 35q49 0 78.5 -34.5t23.5 -84.5q-6 -49 -45.5 -83.5t-89.5 -34.5zM686 1094q-49 0 -78.5 34t-23.5 84q6 49 45.5 84t89.5 35
q49 0 78.5 -34.5t23.5 -84.5q-6 -49 -45.5 -83.5t-89.5 -34.5z" />
    <glyph glyph-name="aring" unicode="&#xe5;" horiz-adv-x="985" 
d="M350 -25q-166 0 -250.5 97.5t-64.5 236.5q20 140 128.5 233t282.5 93h220q7 57 -24 93t-103 36q-43 0 -74.5 -14t-45.5 -35t-19.5 -34.5t-6.5 -23.5h-284q21 203 163 295q116 80 295 80q205 0 299 -100q113 -121 80 -363l-84 -594h-287l9 56q-97 -56 -234 -56zM418 221
q113 0 198 119l7 49h-181q-56 0 -84.5 -24t-31.5 -58q-6 -37 19.5 -61.5t72.5 -24.5zM559 1094q-47 0 -73.5 30.5t-20.5 75.5q6 41 41.5 72t81.5 31q45 0 71.5 -31t20.5 -72q-6 -45 -41 -75.5t-80 -30.5zM569 1169q13 0 22 9t11 22q2 10 -4.5 18.5t-19.5 8.5t-22 -8t-11 -19
q-2 -14 5 -22.5t19 -8.5z" />
    <glyph glyph-name="ae" unicode="&#xe6;" horiz-adv-x="1787" 
d="M350 -25q-166 0 -250.5 97.5t-64.5 236.5q20 140 128.5 233t282.5 93h220q7 57 -24 93t-103 36q-43 0 -74.5 -14t-45.5 -35t-19.5 -34.5t-6.5 -23.5h-284q21 203 163 295q116 80 295 80q205 0 299 -100q50 -53 68 -123q77 103 186 163t236 60q139 0 237 -71t138.5 -190.5
t19.5 -266.5l-18 -131h-646q34 -110 175 -107q35 1 64.5 11t47 24.5t27 25t12.5 17.5l260 -78q-60 -120 -189.5 -205.5t-262.5 -85.5q-109 0 -195 42t-141 118l-23 -160h-287l9 56q-97 -56 -234 -56zM418 221q113 0 198 119l7 49h-181q-56 0 -84.5 -24t-31.5 -58
q-6 -37 19.5 -61.5t72.5 -24.5zM1473 586q1 75 -45.5 115t-112.5 40q-62 0 -123.5 -39t-87.5 -116h369z" />
    <glyph glyph-name="ccedilla" unicode="&#xe7;" horiz-adv-x="1013" 
d="M399 -418q-78 -12 -159 29l49 98q19 -18 51 -24.5t66 0.5q78 10 86 63q3 25 -11 36t-49 11q-38 0 -108 -22l-33 39l51 174q-76 16 -138 58.5t-105 107t-60 155.5t-2 197q23 161 107 283.5t198.5 183.5t239.5 61q177 0 292.5 -121t108.5 -329h-289q-2 159 -153 159
q-89 0 -144 -55t-73 -182t22 -182.5t129 -55.5q125 0 178 109h295q-27 -83 -73 -151.5t-98 -113t-112 -75.5t-114.5 -45t-106.5 -15l-26 -86q12 2 31 2q72 0 114 -37.5t33 -105.5q-10 -66 -66.5 -111.5t-130.5 -54.5z" />
    <glyph glyph-name="egrave" unicode="&#xe8;" 
d="M449 -25q-213 0 -328.5 149.5t-83.5 379.5q20 138 92 257t192.5 195t262.5 76q139 0 237 -71t138.5 -190.5t19.5 -266.5l-18 -131h-646q34 -110 174 -107q35 1 64.5 11t47.5 24.5t27.5 25t12.5 17.5l260 -78q-60 -120 -189.5 -205.5t-262.5 -85.5zM700 586q1 75 -45 115
t-112 40q-62 0 -123.5 -39t-87.5 -116h368zM731 1094h-156l-143 202h158z" />
    <glyph glyph-name="eacute" unicode="&#xe9;" 
d="M449 -25q-213 0 -328.5 149.5t-83.5 379.5q20 138 92 257t192.5 195t262.5 76q139 0 237 -71t138.5 -190.5t19.5 -266.5l-18 -131h-646q34 -110 174 -107q35 1 64.5 11t47.5 24.5t27.5 25t12.5 17.5l260 -78q-60 -120 -189.5 -205.5t-262.5 -85.5zM700 586q1 75 -45 115
t-112 40q-62 0 -123.5 -39t-87.5 -116h368zM432 1094l141 202h158l-143 -202h-156z" />
    <glyph glyph-name="ecircumflex" unicode="&#xea;" 
d="M449 -25q-213 0 -328.5 149.5t-83.5 379.5q20 138 92 257t192.5 195t262.5 76q139 0 237 -71t138.5 -190.5t19.5 -266.5l-18 -131h-646q34 -110 174 -107q35 1 64.5 11t47.5 24.5t27.5 25t12.5 17.5l260 -78q-60 -120 -189.5 -205.5t-262.5 -85.5zM700 586q1 75 -45 115
t-112 40q-62 0 -123.5 -39t-87.5 -116h368zM334 1094l198 202h158l84 -202h-156l-38 92l-91 -92h-155z" />
    <glyph glyph-name="edieresis" unicode="&#xeb;" 
d="M449 -25q-213 0 -328.5 149.5t-83.5 379.5q20 138 92 257t192.5 195t262.5 76q139 0 237 -71t138.5 -190.5t19.5 -266.5l-18 -131h-646q34 -110 174 -107q35 1 64.5 11t47.5 24.5t27.5 25t12.5 17.5l260 -78q-60 -120 -189.5 -205.5t-262.5 -85.5zM700 586q1 75 -45 115
t-112 40q-62 0 -123.5 -39t-87.5 -116h368zM434 1094q-49 0 -78.5 34t-23.5 84q6 49 45.5 84t89.5 35q49 0 78.5 -34.5t23.5 -84.5q-6 -49 -45.5 -83.5t-89.5 -34.5zM694 1094q-49 0 -78.5 34t-23.5 84q6 49 45.5 84t89.5 35q49 0 78.5 -34.5t23.5 -84.5q-6 -49 -45.5 -83.5
t-89.5 -34.5z" />
    <glyph glyph-name="igrave" unicode="&#xec;" horiz-adv-x="497" 
d="M31 -25l147 1057h289l-148 -1057h-288zM473 1094h-156l-143 202h158z" />
    <glyph glyph-name="iacute" unicode="&#xed;" horiz-adv-x="497" 
d="M31 -25l147 1057h289l-148 -1057h-288zM174 1094l141 202h158l-143 -202h-156z" />
    <glyph glyph-name="icircumflex" unicode="&#xee;" horiz-adv-x="497" 
d="M31 -25l147 1057h289l-148 -1057h-288zM76 1094l198 202h158l84 -202h-156l-38 92l-91 -92h-155z" />
    <glyph glyph-name="idieresis" unicode="&#xef;" horiz-adv-x="497" 
d="M31 -25l147 1057h289l-148 -1057h-288zM176 1094q-49 0 -78.5 34t-23.5 84q6 49 45.5 84t89.5 35q49 0 78.5 -34.5t23.5 -84.5q-6 -49 -45.5 -83.5t-89.5 -34.5zM436 1094q-49 0 -78.5 34t-23.5 84q6 49 45.5 84t89.5 35q49 0 78.5 -34.5t23.5 -84.5q-6 -49 -45.5 -83.5
t-89.5 -34.5z" />
    <glyph glyph-name="eth" unicode="&#xf0;" horiz-adv-x="1165" 
d="M627 1096v198l143 19l21 137h286l-14 -102l72 8v-197l-101 -12l-166 -1172h-286l12 82q-122 -82 -209 -82q-127 0 -213.5 69.5t-120 188t-12.5 267.5q35 245 169.5 387.5t315.5 142.5q57 0 110 -25t85 -55l22 160zM438 264q71 0 122 37.5t81 93.5l31 211
q-25 67 -59.5 100t-100.5 33t-116 -60t-66 -177q-18 -117 12 -177.5t96 -60.5z" />
    <glyph glyph-name="ntilde" unicode="&#xf1;" horiz-adv-x="1019" 
d="M31 -25l147 1057h287l-10 -80q119 80 217 80q91 0 158.5 -34.5t103 -93t50 -136t-0.5 -162.5l-88 -631h-287l88 629q9 73 -26.5 106t-77.5 31q-113 -7 -186 -133l-89 -633h-286zM838 1262q-13 -74 -50.5 -121t-95.5 -47q-49 0 -96 55q-21 24 -30 31.5t-19 7.5
q-27 0 -42 -19.5t-28 -74.5h-100q19 89 67 141.5t117 52.5q62 0 117 -65q17 -22 20.5 -25.5t8.5 -3.5q10 0 13 7t19 61h99z" />
    <glyph glyph-name="ograve" unicode="&#xf2;" 
d="M434 -25q-93 0 -172.5 36.5t-136 102.5t-81 167t-7.5 223q23 161 107 283.5t198.5 183.5t239.5 61q94 0 173.5 -36t135.5 -102t80.5 -167t7.5 -223t-70 -223t-128 -167t-164.5 -102.5t-182.5 -36.5zM475 266q89 0 143 55.5t72 182.5t-21 182t-128 55t-144 -55t-73 -182
t22 -182.5t129 -55.5zM731 1094h-156l-143 202h158z" />
    <glyph glyph-name="oacute" unicode="&#xf3;" 
d="M434 -25q-93 0 -172.5 36.5t-136 102.5t-81 167t-7.5 223q23 161 107 283.5t198.5 183.5t239.5 61q94 0 173.5 -36t135.5 -102t80.5 -167t7.5 -223t-70 -223t-128 -167t-164.5 -102.5t-182.5 -36.5zM475 266q89 0 143 55.5t72 182.5t-21 182t-128 55t-144 -55t-73 -182
t22 -182.5t129 -55.5zM432 1094l141 202h158l-143 -202h-156z" />
    <glyph glyph-name="ocircumflex" unicode="&#xf4;" 
d="M434 -25q-93 0 -172.5 36.5t-136 102.5t-81 167t-7.5 223q23 161 107 283.5t198.5 183.5t239.5 61q94 0 173.5 -36t135.5 -102t80.5 -167t7.5 -223t-70 -223t-128 -167t-164.5 -102.5t-182.5 -36.5zM475 266q89 0 143 55.5t72 182.5t-21 182t-128 55t-144 -55t-73 -182
t22 -182.5t129 -55.5zM334 1094l198 202h158l84 -202h-156l-38 92l-91 -92h-155z" />
    <glyph glyph-name="otilde" unicode="&#xf5;" 
d="M434 -25q-93 0 -172.5 36.5t-136 102.5t-81 167t-7.5 223q23 161 107 283.5t198.5 183.5t239.5 61q94 0 173.5 -36t135.5 -102t80.5 -167t7.5 -223t-70 -223t-128 -167t-164.5 -102.5t-182.5 -36.5zM475 266q89 0 143 55.5t72 182.5t-21 182t-128 55t-144 -55t-73 -182
t22 -182.5t129 -55.5zM809 1262q-13 -74 -50 -121t-95 -47q-50 0 -97 55q-21 24 -30 31.5t-19 7.5q-27 0 -41.5 -19.5t-27.5 -74.5h-101q19 89 67 141.5t117 52.5q62 0 117 -65q17 -22 21 -25.5t8 -3.5q10 0 14 8t19 60h98z" />
    <glyph glyph-name="odieresis" unicode="&#xf6;" 
d="M434 -25q-93 0 -172.5 36.5t-136 102.5t-81 167t-7.5 223q23 161 107 283.5t198.5 183.5t239.5 61q94 0 173.5 -36t135.5 -102t80.5 -167t7.5 -223t-70 -223t-128 -167t-164.5 -102.5t-182.5 -36.5zM475 266q89 0 143 55.5t72 182.5t-21 182t-128 55t-144 -55t-73 -182
t22 -182.5t129 -55.5zM434 1094q-49 0 -78.5 34t-23.5 84q6 49 45.5 84t89.5 35q49 0 78.5 -34.5t23.5 -84.5q-6 -49 -45.5 -83.5t-89.5 -34.5zM694 1094q-49 0 -78.5 34t-23.5 84q6 49 45.5 84t89.5 35q49 0 78.5 -34.5t23.5 -84.5q-6 -49 -45.5 -83.5t-89.5 -34.5z" />
    <glyph glyph-name="oslash" unicode="&#xf8;" horiz-adv-x="1021" 
d="M315 -109h-284l116 201q-69 71 -99.5 176.5t-10.5 237.5q23 161 107 283.5t198.5 183.5t239.5 61q56 0 106 -12l19 31h284l-96 -164q117 -146 84 -383q-17 -122 -70 -223t-128 -167t-164.5 -102.5t-182.5 -36.5q-15 0 -65 5zM322 391l204 352q-171 -10 -202 -237
q-9 -64 -2 -115zM539 276q124 36 151 230l4 37z" />
    <glyph glyph-name="ugrave" unicode="&#xf9;" horiz-adv-x="1019" 
d="M348 -25q-91 0 -158.5 34.5t-103 93t-50 136t0.5 162.5l88 631h287l-88 -629q-9 -73 26.5 -106t77.5 -31q113 7 186 133l88 633h287l-147 -1057h-287l10 80q-119 -80 -217 -80zM707 1094h-156l-143 202h157z" />
    <glyph glyph-name="uacute" unicode="&#xfa;" horiz-adv-x="1019" 
d="M348 -25q-91 0 -158.5 34.5t-103 93t-50 136t0.5 162.5l88 631h287l-88 -629q-9 -73 26.5 -106t77.5 -31q113 7 186 133l88 633h287l-147 -1057h-287l10 80q-119 -80 -217 -80zM408 1094l141 202h158l-144 -202h-155z" />
    <glyph glyph-name="ucircumflex" unicode="&#xfb;" horiz-adv-x="1019" 
d="M348 -25q-91 0 -158.5 34.5t-103 93t-50 136t0.5 162.5l88 631h287l-88 -629q-9 -73 26.5 -106t77.5 -31q113 7 186 133l88 633h287l-147 -1057h-287l10 80q-119 -80 -217 -80zM309 1094l199 202h158l84 -202h-156l-39 92l-90 -92h-156z" />
    <glyph glyph-name="udieresis" unicode="&#xfc;" horiz-adv-x="1019" 
d="M348 -25q-91 0 -158.5 34.5t-103 93t-50 136t0.5 162.5l88 631h287l-88 -629q-9 -73 26.5 -106t77.5 -31q113 7 186 133l88 633h287l-147 -1057h-287l10 80q-119 -80 -217 -80zM410 1094q-49 0 -79 34t-24 84q6 49 45.5 84t89.5 35q49 0 79 -34.5t24 -84.5
q-6 -49 -45.5 -83.5t-89.5 -34.5zM670 1094q-49 0 -79 34t-24 84q6 49 45.5 84t89.5 35q49 0 79 -34.5t24 -84.5q-6 -49 -45.5 -83.5t-89.5 -34.5z" />
    <glyph glyph-name="yacute" unicode="&#xfd;" horiz-adv-x="1101" 
d="M88 -336l221 449l-278 919h313l160 -526l262 526h305l-678 -1368h-305zM399 1094l142 202h157l-143 -202h-156z" />
    <glyph glyph-name="thorn" unicode="&#xfe;" horiz-adv-x="985" 
d="M-88 -430l205 1462h8l45 326h287l-58 -402q120 76 201 76q127 0 213.5 -69.5t120 -188.5t12.5 -268q-35 -246 -168.5 -388.5t-314.5 -142.5q-55 0 -105.5 22t-85.5 52l-73 -530h-287l8 51h-8zM475 266q65 0 115.5 60.5t66.5 177.5q17 117 -13.5 177t-96.5 60
q-122 0 -193 -114l-35 -242q22 -58 57.5 -88.5t98.5 -30.5z" />
    <glyph glyph-name="ydieresis" unicode="&#xff;" horiz-adv-x="1101" 
d="M88 -336l221 449l-278 919h313l160 -526l262 526h305l-678 -1368h-305zM401 1094q-49 0 -78.5 34t-23.5 84q6 49 45.5 84t89.5 35q49 0 79 -34.5t24 -84.5q-6 -49 -46 -83.5t-90 -34.5zM662 1094q-49 0 -79 34t-24 84q6 49 45.5 84t89.5 35q49 0 79 -34.5t24 -84.5
q-6 -49 -45.5 -83.5t-89.5 -34.5z" />
    <glyph glyph-name="Amacron" unicode="&#x100;" horiz-adv-x="1495" 
d="M31 -25l831 1475h189l413 -1475h-319l-82 304h-543l-172 -304h-317zM674 541h311l-102 374zM764 1688h395l-20 -142h-396z" />
    <glyph glyph-name="amacron" unicode="&#x101;" horiz-adv-x="985" 
d="M350 -25q-166 0 -250.5 97.5t-64.5 236.5q20 140 128.5 233t282.5 93h220q7 57 -24 93t-103 36q-43 0 -74.5 -14t-45.5 -35t-19.5 -34.5t-6.5 -23.5h-284q21 203 163 295q116 80 295 80q205 0 299 -100q113 -121 80 -363l-84 -594h-287l9 56q-97 -56 -234 -56zM418 221
q113 0 198 119l7 49h-181q-56 0 -84.5 -24t-31.5 -58q-6 -37 19.5 -61.5t72.5 -24.5zM385 1278h395l-20 -141h-395z" />
    <glyph glyph-name="Abreve" unicode="&#x102;" horiz-adv-x="1495" 
d="M31 -25l831 1475h189l413 -1475h-319l-82 304h-543l-172 -304h-317zM674 541h311l-102 374zM1200 1704q-28 -83 -95 -138t-142 -55q-79 0 -129.5 54.5t-55.5 138.5h125q2 -33 22 -55.5t54 -22.5q38 0 64.5 28t31.5 50h125z" />
    <glyph glyph-name="abreve" unicode="&#x103;" horiz-adv-x="985" 
d="M350 -25q-166 0 -250.5 97.5t-64.5 236.5q20 140 128.5 233t282.5 93h220q7 57 -24 93t-103 36q-43 0 -74.5 -14t-45.5 -35t-19.5 -34.5t-6.5 -23.5h-284q21 203 163 295q116 80 295 80q205 0 299 -100q113 -121 80 -363l-84 -594h-287l9 56q-97 -56 -234 -56zM418 221
q113 0 198 119l7 49h-181q-56 0 -84.5 -24t-31.5 -58q-6 -37 19.5 -61.5t72.5 -24.5zM821 1294q-28 -83 -95 -137.5t-142 -54.5q-79 0 -129.5 54t-55.5 138h125q2 -32 22 -54.5t54 -22.5q39 0 65 28t31 49h125z" />
    <glyph glyph-name="Aogonek" unicode="&#x104;" horiz-adv-x="1495" 
d="M31 -25l831 1475h189l413 -1475h-319l-6 21q-14 4 -43 4q-35 0 -50.5 -11t-15.5 -36q0 -54 76 -64q33 -7 66 0t55 25l35 -98q-85 -41 -164 -29q-72 9 -122 54.5t-50 111.5q0 68 48 105.5t120 37.5h18l-49 183h-543l-172 -304h-317zM674 541h311l-102 374z" />
    <glyph glyph-name="aogonek" unicode="&#x105;" horiz-adv-x="985" 
d="M350 -25q-166 0 -250.5 97.5t-64.5 236.5q20 140 128.5 233t282.5 93h220q7 57 -24 93t-103 36q-43 0 -74.5 -14t-45.5 -35t-19.5 -34.5t-6.5 -23.5h-284q21 203 163 295q116 80 295 80q205 0 299 -100q113 -121 80 -363l-84 -594h-112l51 -34l-39 -39q-65 22 -105 22
q-35 0 -50 -11t-15 -36q0 -53 76 -63q70 -16 120 24l35 -98q-85 -41 -164 -29q-72 9 -122 54.5t-50 111.5q0 96 93 131l4 23q-97 -56 -234 -56zM418 221q113 0 198 119l7 49h-181q-56 0 -84.5 -24t-31.5 -58q-6 -37 19.5 -61.5t72.5 -24.5z" />
    <glyph glyph-name="Cacute" unicode="&#x106;" horiz-adv-x="1419" 
d="M602 -45q-138 0 -252.5 54t-191.5 151t-109 240t-8 311q24 170 97 313.5t176.5 240.5t233 151t267.5 54q133 0 241 -47t180 -130t111.5 -195t41.5 -242h-295q-6 153 -89.5 235.5t-230.5 82.5q-72 0 -141.5 -29t-131 -84t-106.5 -145.5t-61 -204.5q-29 -208 56 -333.5
t253 -125.5q163 0 268 92.5t150 249.5h293q-56 -201 -171 -347t-264 -219t-317 -73zM657 1503l142 203h157l-143 -203h-156z" />
    <glyph glyph-name="cacute" unicode="&#x107;" horiz-adv-x="1013" 
d="M434 -25q-93 0 -172.5 36.5t-136 102.5t-81 167t-7.5 223q23 161 107 283.5t198.5 183.5t239.5 61q177 0 292.5 -121t108.5 -329h-289q-2 159 -153 159q-89 0 -144 -55t-73 -182t22 -182.5t129 -55.5q125 0 178 109h295q-28 -85 -75 -154.5t-100.5 -114t-114.5 -75
t-116.5 -43.5t-107.5 -13zM430 1094l141 202h158l-143 -202h-156z" />
    <glyph glyph-name="Ccircumflex" unicode="&#x108;" horiz-adv-x="1419" 
d="M602 -45q-138 0 -252.5 54t-191.5 151t-109 240t-8 311q24 170 97 313.5t176.5 240.5t233 151t267.5 54q133 0 241 -47t180 -130t111.5 -195t41.5 -242h-295q-6 153 -89.5 235.5t-230.5 82.5q-72 0 -141.5 -29t-131 -84t-106.5 -145.5t-61 -204.5q-29 -208 56 -333.5
t253 -125.5q163 0 268 92.5t150 249.5h293q-56 -201 -171 -347t-264 -219t-317 -73zM559 1503l199 203h157l84 -203h-155l-39 92l-90 -92h-156z" />
    <glyph glyph-name="ccircumflex" unicode="&#x109;" horiz-adv-x="1013" 
d="M434 -25q-93 0 -172.5 36.5t-136 102.5t-81 167t-7.5 223q23 161 107 283.5t198.5 183.5t239.5 61q177 0 292.5 -121t108.5 -329h-289q-2 159 -153 159q-89 0 -144 -55t-73 -182t22 -182.5t129 -55.5q125 0 178 109h295q-28 -85 -75 -154.5t-100.5 -114t-114.5 -75
t-116.5 -43.5t-107.5 -13zM332 1094l198 202h158l84 -202h-156l-38 92l-91 -92h-155z" />
    <glyph glyph-name="Cdotaccent" unicode="&#x10a;" horiz-adv-x="1419" 
d="M602 -45q-138 0 -252.5 54t-191.5 151t-109 240t-8 311q24 170 97 313.5t176.5 240.5t233 151t267.5 54q133 0 241 -47t180 -130t111.5 -195t41.5 -242h-295q-6 153 -89.5 235.5t-230.5 82.5q-72 0 -141.5 -29t-131 -84t-106.5 -145.5t-61 -204.5q-29 -208 56 -333.5
t253 -125.5q163 0 268 92.5t150 249.5h293q-56 -201 -171 -347t-264 -219t-317 -73zM791 1503q-49 0 -79 34.5t-24 84.5q6 49 45.5 84t89.5 35q49 0 79 -34.5t24 -84.5q-6 -49 -45.5 -84t-89.5 -35z" />
    <glyph glyph-name="cdotaccent" unicode="&#x10b;" horiz-adv-x="1013" 
d="M434 -25q-93 0 -172.5 36.5t-136 102.5t-81 167t-7.5 223q23 161 107 283.5t198.5 183.5t239.5 61q177 0 292.5 -121t108.5 -329h-289q-2 159 -153 159q-89 0 -144 -55t-73 -182t22 -182.5t129 -55.5q125 0 178 109h295q-28 -85 -75 -154.5t-100.5 -114t-114.5 -75
t-116.5 -43.5t-107.5 -13zM563 1094q-49 0 -78.5 34t-23.5 84q6 49 45.5 84t89.5 35q49 0 78.5 -34.5t23.5 -84.5q-6 -49 -45.5 -83.5t-89.5 -34.5z" />
    <glyph glyph-name="Ccaron" unicode="&#x10c;" horiz-adv-x="1419" 
d="M602 -45q-138 0 -252.5 54t-191.5 151t-109 240t-8 311q24 170 97 313.5t176.5 240.5t233 151t267.5 54q133 0 241 -47t180 -130t111.5 -195t41.5 -242h-295q-6 153 -89.5 235.5t-230.5 82.5q-72 0 -141.5 -29t-131 -84t-106.5 -145.5t-61 -204.5q-29 -208 56 -333.5
t253 -125.5q163 0 268 92.5t150 249.5h293q-56 -201 -171 -347t-264 -219t-317 -73zM616 1704h156l39 -92l90 92h156l-199 -203h-158z" />
    <glyph glyph-name="ccaron" unicode="&#x10d;" horiz-adv-x="1013" 
d="M434 -25q-93 0 -172.5 36.5t-136 102.5t-81 167t-7.5 223q23 161 107 283.5t198.5 183.5t239.5 61q177 0 292.5 -121t108.5 -329h-289q-2 159 -153 159q-89 0 -144 -55t-73 -182t22 -182.5t129 -55.5q125 0 178 109h295q-28 -85 -75 -154.5t-100.5 -114t-114.5 -75
t-116.5 -43.5t-107.5 -13zM389 1294h156l39 -92l90 92h155l-198 -202h-158z" />
    <glyph glyph-name="Dcaron" unicode="&#x10e;" horiz-adv-x="1396" 
d="M31 -25l209 1475h551q142 0 258 -54.5t191 -151t106.5 -234.5t9.5 -299q-23 -161 -88 -297t-163.5 -233t-232.5 -151.5t-288 -54.5h-553zM627 272q197 0 301 107.5t135 331.5q30 215 -54.5 328.5t-260.5 113.5h-259l-122 -881h260zM655 1704h156l39 -92l90 92h156
l-199 -203h-158z" />
    <glyph glyph-name="dcaron" unicode="&#x10f;" horiz-adv-x="1107" 
d="M385 -25q-127 0 -213.5 69.5t-120 188t-12.5 267.5q35 245 169.5 387.5t315.5 142.5q57 0 110 -25t85 -55l72 500h286l-209 -1475h-286l12 82q-122 -82 -209 -82zM438 264q71 0 122 37.5t81 93.5l31 211q-25 67 -59.5 100t-100.5 33t-116 -60t-66 -177
q-18 -117 12 -177.5t96 -60.5zM1069 1094l141 202h158l-143 -202h-156z" />
    <glyph glyph-name="Dcroat" unicode="&#x110;" horiz-adv-x="1396" 
d="M31 -25l71 510h-256l37 267h258l99 698h551q142 0 258 -54.5t191 -151t106.5 -234.5t9.5 -299q-23 -161 -88 -297t-163.5 -233t-232.5 -151.5t-288 -54.5h-553zM627 272q197 0 301 107.5t135 331.5q30 215 -54.5 328.5t-260.5 113.5h-259l-55 -401h232l-37 -267h-232
l-30 -213h260z" />
    <glyph glyph-name="dcroat" unicode="&#x111;" horiz-adv-x="1224" 
d="M385 -25q-127 0 -213.5 69.5t-120 188t-12.5 267.5q35 245 169.5 387.5t315.5 142.5q57 0 110 -25t85 -55l22 154h-143l27 227h149l17 119h286l-16 -119h133l-27 -227h-139l-160 -1129h-286l12 82q-122 -82 -209 -82zM438 264q71 0 122 37.5t81 93.5l31 211
q-25 67 -59.5 100t-100.5 33t-116 -60t-66 -177q-18 -117 12 -177.5t96 -60.5z" />
    <glyph glyph-name="Emacron" unicode="&#x112;" horiz-adv-x="1275" 
d="M31 -23l209 1473h1005l-43 -297h-713l-36 -270h661l-43 -297h-661l-43 -314h706l-43 -295h-999zM551 1688h395l-20 -142h-396z" />
    <glyph glyph-name="emacron" unicode="&#x113;" 
d="M449 -25q-213 0 -328.5 149.5t-83.5 379.5q20 138 92 257t192.5 195t262.5 76q139 0 237 -71t138.5 -190.5t19.5 -266.5l-18 -131h-646q34 -110 174 -107q35 1 64.5 11t47.5 24.5t27.5 25t12.5 17.5l260 -78q-60 -120 -189.5 -205.5t-262.5 -85.5zM700 586q1 75 -45 115
t-112 40q-62 0 -123.5 -39t-87.5 -116h368zM393 1278h395l-20 -141h-395z" />
    <glyph glyph-name="Edotaccent" unicode="&#x116;" horiz-adv-x="1275" 
d="M31 -23l209 1473h1005l-43 -297h-713l-36 -270h661l-43 -297h-661l-43 -314h706l-43 -295h-999zM723 1503q-49 0 -78.5 34.5t-23.5 84.5q6 49 45.5 84t89.5 35q49 0 78.5 -34.5t23.5 -84.5q-6 -49 -45.5 -84t-89.5 -35z" />
    <glyph glyph-name="edotaccent" unicode="&#x117;" 
d="M449 -25q-213 0 -328.5 149.5t-83.5 379.5q20 138 92 257t192.5 195t262.5 76q139 0 237 -71t138.5 -190.5t19.5 -266.5l-18 -131h-646q34 -110 174 -107q35 1 64.5 11t47.5 24.5t27.5 25t12.5 17.5l260 -78q-60 -120 -189.5 -205.5t-262.5 -85.5zM700 586q1 75 -45 115
t-112 40q-62 0 -123.5 -39t-87.5 -116h368zM565 1094q-49 0 -78.5 34t-23.5 84q6 49 45.5 84t89.5 35q49 0 78.5 -34.5t23.5 -84.5q-6 -49 -45.5 -83.5t-89.5 -34.5z" />
    <glyph glyph-name="Eogonek" unicode="&#x118;" horiz-adv-x="1275" 
d="M31 -23l209 1473h1005l-43 -297h-713l-36 -270h661l-43 -297h-661l-43 -314h706l-41 -286l10 -9l-38 -38q-65 22 -105 22q-35 0 -50 -11t-15 -36q0 -54 75 -64q33 -7 66 0t55 25l35 -98q-85 -41 -164 -29q-72 9 -122 54.5t-50 111.5q0 38 14 63h-712z" />
    <glyph glyph-name="eogonek" unicode="&#x119;" 
d="M449 -25q-56 0 -113 13q-25 -9 -25 -41q0 -54 76 -64q33 -7 66 0t55 25l35 -98q-85 -41 -164 -29q-72 9 -122 54.5t-50 111.5q0 48 24 82q-112 64 -164.5 189.5t-29.5 285.5q20 138 92 257t192.5 195t262.5 76q139 0 237 -71t138.5 -190.5t19.5 -266.5l-18 -131h-646
q34 -110 174 -107q35 1 64.5 11t47.5 24.5t27.5 25t12.5 17.5l260 -78q-55 -111 -172 -194t-242 -95l-6 -6l-14 4h-18zM700 586q1 75 -45 115t-112 40q-62 0 -123.5 -39t-87.5 -116h368z" />
    <glyph glyph-name="Ecaron" unicode="&#x11a;" horiz-adv-x="1275" 
d="M31 -23l209 1473h1005l-43 -297h-713l-36 -270h661l-43 -297h-661l-43 -314h706l-43 -295h-999zM549 1704h156l38 -92l91 92h155l-198 -203h-158z" />
    <glyph glyph-name="ecaron" unicode="&#x11b;" 
d="M449 -25q-213 0 -328.5 149.5t-83.5 379.5q20 138 92 257t192.5 195t262.5 76q139 0 237 -71t138.5 -190.5t19.5 -266.5l-18 -131h-646q34 -110 174 -107q35 1 64.5 11t47.5 24.5t27.5 25t12.5 17.5l260 -78q-60 -120 -189.5 -205.5t-262.5 -85.5zM700 586q1 75 -45 115
t-112 40q-62 0 -123.5 -39t-87.5 -116h368zM391 1294h156l39 -92l90 92h155l-198 -202h-158z" />
    <glyph glyph-name="Gcircumflex" unicode="&#x11c;" horiz-adv-x="1423" 
d="M604 -45q-138 0 -253 54t-192 150.5t-109.5 239.5t-8.5 312q24 170 97 313.5t177.5 240.5t234 151t267.5 54q266 0 418 -169t158 -445h-295q-4 158 -89 238t-233 80q-71 0 -141 -29t-132 -84t-107.5 -145.5t-61.5 -204.5q-16 -112 3 -202t64.5 -145t108 -83.5
t135.5 -28.5q258 0 377 229h-426l41 297h743l-112 -803h-297l24 162q-64 -82 -175.5 -132t-215.5 -50zM559 1503l199 203h157l84 -203h-155l-39 92l-90 -92h-156z" />
    <glyph glyph-name="gcircumflex" unicode="&#x11d;" horiz-adv-x="1222" 
d="M449 -637q-137 0 -238 54.5t-146 146t-30 200.5q11 81 46.5 136.5t102.5 117.5q-34 29 -56 73t-15 95q18 109 90 152q-34 57 -49 107t-13 84t6 71q26 189 170 310.5t336 121.5q185 0 285 -92q87 92 254 92l-35 -250q-3 0 -9 0.5t-23 -1.5t-31.5 -7t-30.5 -18t-25 -33
q10 -52 2 -123q-28 -190 -171 -310t-337 -120q-61 0 -135 25q-28 -30 38 -38q21 -3 50 -3h154q184 0 280.5 -103t71.5 -272q-11 -78 -52.5 -151t-107.5 -133t-164 -96t-212 -36h-6zM567 -348q49 0 90 33.5t48 85.5q5 41 -19.5 67.5t-75.5 26.5h-198h-17q-32 -19 -51 -47
t-22 -54q-6 -48 22 -80t72 -32h151zM573 457q76 0 124 40.5t57 104.5q8 61 -29.5 101t-112.5 40q-76 0 -123 -40t-55 -101q-9 -64 26.5 -104.5t112.5 -40.5zM453 1094l198 202h158l84 -202h-156l-39 92l-90 -92h-155z" />
    <glyph glyph-name="Gbreve" unicode="&#x11e;" horiz-adv-x="1423" 
d="M604 -45q-138 0 -253 54t-192 150.5t-109.5 239.5t-8.5 312q24 170 97 313.5t177.5 240.5t234 151t267.5 54q266 0 418 -169t158 -445h-295q-4 158 -89 238t-233 80q-71 0 -141 -29t-132 -84t-107.5 -145.5t-61.5 -204.5q-16 -112 3 -202t64.5 -145t108 -83.5
t135.5 -28.5q258 0 377 229h-426l41 297h743l-112 -803h-297l24 162q-64 -82 -175.5 -132t-215.5 -50zM1055 1704q-28 -83 -95.5 -138t-142.5 -55q-78 0 -128.5 54.5t-55.5 138.5h125q2 -33 22 -55.5t54 -22.5q38 0 64.5 28t31.5 50h125z" />
    <glyph glyph-name="gbreve" unicode="&#x11f;" horiz-adv-x="1222" 
d="M449 -637q-137 0 -238 54.5t-146 146t-30 200.5q11 81 46.5 136.5t102.5 117.5q-34 29 -56 73t-15 95q18 109 90 152q-34 57 -49 107t-13 84t6 71q26 189 170 310.5t336 121.5q185 0 285 -92q87 92 254 92l-35 -250q-3 0 -9 0.5t-23 -1.5t-31.5 -7t-30.5 -18t-25 -33
q10 -52 2 -123q-28 -190 -171 -310t-337 -120q-61 0 -135 25q-28 -30 38 -38q21 -3 50 -3h154q184 0 280.5 -103t71.5 -272q-11 -78 -52.5 -151t-107.5 -133t-164 -96t-212 -36h-6zM567 -348q49 0 90 33.5t48 85.5q5 41 -19.5 67.5t-75.5 26.5h-198h-17q-32 -19 -51 -47
t-22 -54q-6 -48 22 -80t72 -32h151zM573 457q76 0 124 40.5t57 104.5q8 61 -29.5 101t-112.5 40q-76 0 -123 -40t-55 -101q-9 -64 26.5 -104.5t112.5 -40.5zM948 1294q-28 -83 -95 -137.5t-142 -54.5q-79 0 -129.5 54t-55.5 138h125q2 -32 22 -54.5t54 -22.5q39 0 65 28
t31 49h125z" />
    <glyph glyph-name="Gdotaccent" unicode="&#x120;" horiz-adv-x="1423" 
d="M604 -45q-138 0 -253 54t-192 150.5t-109.5 239.5t-8.5 312q24 170 97 313.5t177.5 240.5t234 151t267.5 54q266 0 418 -169t158 -445h-295q-4 158 -89 238t-233 80q-71 0 -141 -29t-132 -84t-107.5 -145.5t-61.5 -204.5q-16 -112 3 -202t64.5 -145t108 -83.5
t135.5 -28.5q258 0 377 229h-426l41 297h743l-112 -803h-297l24 162q-64 -82 -175.5 -132t-215.5 -50zM791 1503q-49 0 -79 34.5t-24 84.5q6 49 45.5 84t89.5 35q49 0 79 -34.5t24 -84.5q-6 -49 -45.5 -84t-89.5 -35z" />
    <glyph glyph-name="gdotaccent" unicode="&#x121;" horiz-adv-x="1222" 
d="M449 -637q-137 0 -238 54.5t-146 146t-30 200.5q11 81 46.5 136.5t102.5 117.5q-34 29 -56 73t-15 95q18 109 90 152q-34 57 -49 107t-13 84t6 71q26 189 170 310.5t336 121.5q185 0 285 -92q87 92 254 92l-35 -250q-3 0 -9 0.5t-23 -1.5t-31.5 -7t-30.5 -18t-25 -33
q10 -52 2 -123q-28 -190 -171 -310t-337 -120q-61 0 -135 25q-28 -30 38 -38q21 -3 50 -3h154q184 0 280.5 -103t71.5 -272q-11 -78 -52.5 -151t-107.5 -133t-164 -96t-212 -36h-6zM567 -348q49 0 90 33.5t48 85.5q5 41 -19.5 67.5t-75.5 26.5h-198h-17q-32 -19 -51 -47
t-22 -54q-6 -48 22 -80t72 -32h151zM573 457q76 0 124 40.5t57 104.5q8 61 -29.5 101t-112.5 40q-76 0 -123 -40t-55 -101q-9 -64 26.5 -104.5t112.5 -40.5zM684 1094q-49 0 -78.5 34t-23.5 84q6 49 45.5 84t89.5 35q49 0 78.5 -34.5t23.5 -84.5q-6 -49 -45.5 -83.5
t-89.5 -34.5z" />
    <glyph glyph-name="uni0122" unicode="&#x122;" horiz-adv-x="1423" 
d="M604 -45q-138 0 -253 54t-192 150.5t-109.5 239.5t-8.5 312q24 170 97 313.5t177.5 240.5t234 151t267.5 54q266 0 418 -169t158 -445h-295q-4 158 -89 238t-233 80q-71 0 -141 -29t-132 -84t-107.5 -145.5t-61.5 -204.5q-16 -112 3 -202t64.5 -145t108 -83.5
t135.5 -28.5q258 0 377 229h-426l41 297h743l-112 -803h-297l24 162q-64 -82 -175.5 -132t-215.5 -50zM485 -328q64 82 76 160l12 100h158l-10 -86q-7 -51 -34.5 -103.5t-63.5 -90.5z" />
    <glyph glyph-name="uni0123" unicode="&#x123;" horiz-adv-x="1222" 
d="M449 -637q-137 0 -238 54.5t-146 146t-30 200.5q11 81 46.5 136.5t102.5 117.5q-34 29 -56 73t-15 95q18 109 90 152q-34 57 -49 107t-13 84t6 71q26 189 170 310.5t336 121.5q185 0 285 -92q87 92 254 92l-35 -250q-3 0 -9 0.5t-23 -1.5t-31.5 -7t-30.5 -18t-25 -33
q10 -52 2 -123q-28 -190 -171 -310t-337 -120q-61 0 -135 25q-28 -30 38 -38q21 -3 50 -3h154q184 0 280.5 -103t71.5 -272q-11 -78 -52.5 -151t-107.5 -133t-164 -96t-212 -36h-6zM567 -348q49 0 90 33.5t48 85.5q5 41 -19.5 67.5t-75.5 26.5h-198h-17q-32 -19 -51 -47
t-22 -54q-6 -48 22 -80t72 -32h151zM573 457q76 0 124 40.5t57 104.5q8 61 -29.5 101t-112.5 40q-76 0 -123 -40t-55 -101q-9 -64 26.5 -104.5t112.5 -40.5zM821 1319q-64 -70 -76 -141l-12 -86h-158l11 73q7 44 34 90.5t64 81.5z" />
    <glyph glyph-name="Hcircumflex" unicode="&#x124;" horiz-adv-x="1503" 
d="M31 -25l209 1475h292l-90 -629h648l90 629h293l-209 -1475h-293l78 551h-648l-77 -551h-293zM604 1503l199 203h158l83 -203h-155l-39 92l-90 -92h-156z" />
    <glyph glyph-name="hcircumflex" unicode="&#x125;" horiz-adv-x="1021" 
d="M31 -25l209 1475h286l-41 -287l140 142h157l84 -203h-155l-39 92l-90 -92h-105l-20 -150q119 80 217 80q91 0 158 -34.5t103.5 -94t49 -135t0.5 -162.5l-90 -631h-287l90 629q9 73 -26.5 106t-77.5 31q-113 -7 -186 -133l-91 -633h-286z" />
    <glyph glyph-name="Hbar" unicode="&#x126;" horiz-adv-x="1523" 
d="M31 -25l145 1026h-67l53 281h53l25 168h292l-24 -166l649 2l23 164h293l-23 -162h43l-53 -280h-31l-145 -1033h-293l78 551h-648l-77 -551h-293zM442 821h648l26 185l-647 -2z" />
    <glyph glyph-name="hbar" unicode="&#x127;" horiz-adv-x="1021" 
d="M115 1104l22 227h86l17 119h286l-16 -119h88l-20 -227h-101l-20 -152q119 80 217 80q91 0 158 -34.5t103.5 -94t49 -135t0.5 -162.5l-90 -631h-287l90 629q9 73 -26.5 106t-77.5 31q-113 -7 -186 -133l-91 -633h-286l159 1129h-75z" />
    <glyph glyph-name="Itilde" unicode="&#x128;" horiz-adv-x="563" 
d="M31 -25l209 1475h292l-208 -1475h-293zM610 1671q-13 -74 -50 -121t-95 -47q-48 0 -96 56q-33 38 -50 38q-27 0 -41.5 -19.5t-27.5 -74.5h-100q19 89 67 142t117 53q61 0 117 -66q17 -22 20 -25t8 -3q10 0 14 7.5t19 59.5h98z" />
    <glyph glyph-name="itilde" unicode="&#x129;" horiz-adv-x="497" 
d="M31 -25l147 1057h289l-148 -1057h-288zM551 1262q-13 -74 -50 -121t-95 -47q-50 0 -97 55q-21 24 -30 31.5t-19 7.5q-27 0 -42 -19.5t-28 -74.5h-100q19 89 67 141.5t117 52.5q62 0 117 -65q17 -22 21 -25.5t8 -3.5q10 0 14 8t19 60h98z" />
    <glyph glyph-name="Imacron" unicode="&#x12a;" horiz-adv-x="563" 
d="M31 -25l209 1475h292l-208 -1475h-293zM195 1688h395l-21 -142h-395z" />
    <glyph glyph-name="imacron" unicode="&#x12b;" horiz-adv-x="497" 
d="M31 -25l147 1057h289l-148 -1057h-288zM135 1278h395l-20 -141h-395z" />
    <glyph glyph-name="Iogonek" unicode="&#x12e;" horiz-adv-x="563" 
d="M31 -25l209 1475h292l-208 -1475h-54l52 -34l-39 -39q-65 22 -105 22q-35 0 -50 -11t-15 -36q0 -53 75 -63q71 -16 121 24l35 -98q-85 -41 -164 -29q-72 9 -122 54.5t-50 111.5q0 59 39 98h-16z" />
    <glyph glyph-name="iogonek" unicode="&#x12f;" horiz-adv-x="497" 
d="M31 -25l147 1057h289l-148 -1057h-53l51 -34l-38 -39q-65 22 -105 22q-35 0 -50 -11t-15 -36q0 -53 75 -63q71 -16 121 24l35 -98q-85 -41 -164 -29q-72 9 -122 54.5t-50 111.5q0 59 39 98h-12zM307 1094q-49 0 -78.5 34t-23.5 84q6 49 45.5 84t89.5 35q49 0 78.5 -34.5
t23.5 -84.5q-6 -49 -45.5 -83.5t-89.5 -34.5z" />
    <glyph glyph-name="Idotaccent" unicode="&#x130;" horiz-adv-x="563" 
d="M31 -25l209 1475h292l-208 -1475h-293zM367 1503q-49 0 -79 34.5t-24 84.5q6 49 45.5 84t89.5 35q49 0 79 -34.5t24 -84.5q-6 -49 -45.5 -84t-89.5 -35z" />
    <glyph glyph-name="dotlessi" unicode="&#x131;" horiz-adv-x="497" 
d="M31 -25l147 1057h289l-148 -1057h-288z" />
    <glyph glyph-name="IJ" unicode="&#x132;" horiz-adv-x="1714" 
d="M31 -25l209 1475h292l-208 -1475h-293zM963 -45q-111 0 -197 36t-134.5 96t-68.5 135t-8 157l6 45h293l-6 -35q-9 -74 23.5 -105.5t132.5 -31.5q128 0 182 58t74 210l131 930h292l-131 -930q-35 -257 -188.5 -411t-400.5 -154z" />
    <glyph glyph-name="ij" unicode="&#x133;" horiz-adv-x="1067" 
d="M31 -25l149 1057h289l-150 -1057h-288zM328 1145q-63 0 -102.5 45t-30.5 108q9 62 61 107t115 45q61 0 99.5 -45t29.5 -107q-9 -63 -59.5 -108t-112.5 -45zM451 -430q-215 -4 -308 205l263 94q3 -13 5 -17.5t7 -13.5t14.5 -12.5t24.5 -3.5q76 0 90 96l155 1114h287
l-155 -1114q-21 -151 -132 -248t-251 -100zM862 1126q-63 0 -102 45.5t-31 108.5q9 62 61 107t115 45q61 0 99.5 -45t29.5 -107q-7 -63 -58.5 -108.5t-113.5 -45.5z" />
    <glyph glyph-name="Jcircumflex" unicode="&#x134;" horiz-adv-x="1193" 
d="M442 -45q-111 0 -196.5 36t-134 96t-68.5 135t-8 157l6 45h293l-6 -35q-9 -74 23 -105.5t132 -31.5q128 0 182 58t74 210l131 930h293l-131 -930q-35 -256 -189 -410.5t-401 -154.5zM772 1503l199 203h157l84 -203h-155l-39 92l-90 -92h-156z" />
    <glyph glyph-name="jcircumflex" unicode="&#x135;" horiz-adv-x="784" 
d="M215 -430q-214 -4 -307 205l260 94q1 -2 2.5 -7.5t2.5 -7.5t3 -7t4 -7t5 -6t6 -5.5t7.5 -3.5t10 -2.5t12.5 -0.5q76 0 90 96l156 1114h287l-156 -1114q-21 -151 -132 -248t-251 -100zM332 1094l198 202h158l84 -202h-156l-38 92l-91 -92h-155z" />
    <glyph glyph-name="uni0136" unicode="&#x136;" horiz-adv-x="1536" 
d="M31 -25l209 1475h292l-86 -598l652 598h407l-741 -680l541 -795h-381l-396 580l-141 -127l-63 -453h-293zM551 -328q64 82 76 160l12 100h158l-11 -86q-7 -51 -34.5 -103.5t-63.5 -90.5z" />
    <glyph glyph-name="uni0137" unicode="&#x137;" horiz-adv-x="1208" 
d="M31 -25l209 1475h286l-110 -780l370 362h392l-492 -477l326 -580h-355l-200 359l-103 -96l-37 -263h-286zM414 -328q63 81 75 160l13 100h157l-10 -86q-7 -51 -34.5 -103.5t-63.5 -90.5z" />
    <glyph glyph-name="Lacute" unicode="&#x139;" horiz-adv-x="1011" 
d="M31 -25l209 1475h290l-165 -1178h616l-43 -297h-907zM305 1503l141 203h158l-143 -203h-156z" />
    <glyph glyph-name="lacute" unicode="&#x13a;" horiz-adv-x="557" 
d="M31 -25l209 1475h286l-209 -1475h-286zM295 1520l141 202h158l-143 -202h-156z" />
    <glyph glyph-name="uni013B" unicode="&#x13b;" horiz-adv-x="1011" 
d="M31 -25l209 1475h290l-165 -1178h616l-43 -297h-907zM369 -328q63 81 75 160l13 100h157l-10 -86q-7 -51 -34.5 -103.5t-63.5 -90.5z" />
    <glyph glyph-name="uni013C" unicode="&#x13c;" horiz-adv-x="557" 
d="M31 -25l209 1475h286l-209 -1475h-286zM57 -328q64 82 76 160l12 100h158l-10 -86q-7 -51 -34.5 -103.5t-63.5 -90.5z" />
    <glyph glyph-name="Lcaron" unicode="&#x13d;" horiz-adv-x="1011" 
d="M31 -25l209 1475h290l-165 -1178h616l-43 -297h-907zM709 745l141 203h158l-144 -203h-155z" />
    <glyph glyph-name="lcaron" unicode="&#x13e;" horiz-adv-x="557" 
d="M31 -25l209 1475h286l-209 -1475h-286zM625 1094l141 202h158l-144 -202h-155z" />
    <glyph glyph-name="Lslash" unicode="&#x141;" horiz-adv-x="1011" 
d="M31 -25l75 541l-174 -31l-8 197l211 37l105 731h290l-96 -678l58 10l6 -198l-92 -17l-41 -295h616l-43 -297h-907z" />
    <glyph glyph-name="lslash" unicode="&#x142;" horiz-adv-x="557" 
d="M31 -25l110 783l-147 -27l-8 197l184 33l70 489h286l-61 -438l88 16l6 -199l-123 -22l-119 -832h-286z" />
    <glyph glyph-name="Nacute" unicode="&#x143;" horiz-adv-x="1503" 
d="M31 -25l209 1475h243l570 -901l127 901h293l-207 -1473l-217 -2l-592 934l-133 -934h-293zM702 1503l142 203h157l-143 -203h-156z" />
    <glyph glyph-name="nacute" unicode="&#x144;" horiz-adv-x="1019" 
d="M31 -25l147 1057h287l-10 -80q119 80 217 80q91 0 158.5 -34.5t103 -93t50 -136t-0.5 -162.5l-88 -631h-287l88 629q9 73 -26.5 106t-77.5 31q-113 -7 -186 -133l-89 -633h-286zM461 1094l141 202h158l-144 -202h-155z" />
    <glyph glyph-name="uni0145" unicode="&#x145;" horiz-adv-x="1503" 
d="M31 -25l209 1475h243l570 -901l127 901h293l-207 -1473l-217 -2l-592 934l-133 -934h-293zM530 -328q64 82 76 160l12 100h158l-10 -86q-7 -51 -34.5 -103.5t-63.5 -90.5z" />
    <glyph glyph-name="uni0146" unicode="&#x146;" horiz-adv-x="1019" 
d="M31 -25l147 1057h287l-10 -80q119 80 217 80q91 0 158.5 -34.5t103 -93t50 -136t-0.5 -162.5l-88 -631h-287l88 629q9 73 -26.5 106t-77.5 31q-113 -7 -186 -133l-89 -633h-286zM344 -328q64 82 76 160l12 100h158l-10 -86q-7 -51 -34.5 -103.5t-64.5 -90.5z" />
    <glyph glyph-name="Ncaron" unicode="&#x147;" horiz-adv-x="1503" 
d="M31 -25l209 1475h243l570 -901l127 901h293l-207 -1473l-217 -2l-592 934l-133 -934h-293zM662 1704h155l39 -92l90 92h156l-199 -203h-158z" />
    <glyph glyph-name="ncaron" unicode="&#x148;" horiz-adv-x="1019" 
d="M31 -25l147 1057h287l-10 -80q119 80 217 80q91 0 158.5 -34.5t103 -93t50 -136t-0.5 -162.5l-88 -631h-287l88 629q9 73 -26.5 106t-77.5 31q-113 -7 -186 -133l-89 -633h-286zM420 1294h155l39 -92l91 92h155l-198 -202h-158z" />
    <glyph glyph-name="Omacron" unicode="&#x14c;" horiz-adv-x="1421" 
d="M602 -45q-138 0 -252.5 54t-191.5 150.5t-109 239.5t-8 312q24 170 97 313.5t176.5 240.5t233 151t267.5 54t253 -54t192.5 -151t110.5 -240.5t9 -313.5q-24 -168 -97 -311t-177 -240t-234.5 -151t-269.5 -54zM643 252q175 0 293 116t151 343q33 229 -52.5 346
t-260.5 117q-173 0 -290 -117t-150 -346q-33 -226 51.5 -342.5t257.5 -116.5zM623 1688h395l-21 -142h-395z" />
    <glyph glyph-name="omacron" unicode="&#x14d;" 
d="M434 -25q-93 0 -172.5 36.5t-136 102.5t-81 167t-7.5 223q23 161 107 283.5t198.5 183.5t239.5 61q94 0 173.5 -36t135.5 -102t80.5 -167t7.5 -223t-70 -223t-128 -167t-164.5 -102.5t-182.5 -36.5zM475 266q89 0 143 55.5t72 182.5t-21 182t-128 55t-144 -55t-73 -182
t22 -182.5t129 -55.5zM393 1278h395l-20 -141h-395z" />
    <glyph glyph-name="Ohungarumlaut" unicode="&#x150;" horiz-adv-x="1421" 
d="M602 -45q-138 0 -252.5 54t-191.5 150.5t-109 239.5t-8 312q24 170 97 313.5t176.5 240.5t233 151t267.5 54t253 -54t192.5 -151t110.5 -240.5t9 -313.5q-24 -168 -97 -311t-177 -240t-234.5 -151t-269.5 -54zM643 252q175 0 293 116t151 343q33 229 -52.5 346
t-260.5 117q-173 0 -290 -117t-150 -346q-33 -226 51.5 -342.5t257.5 -116.5zM551 1503l141 203h158l-143 -203h-156zM770 1503l141 203h158l-143 -203h-156z" />
    <glyph glyph-name="ohungarumlaut" unicode="&#x151;" 
d="M434 -25q-93 0 -172.5 36.5t-136 102.5t-81 167t-7.5 223q23 161 107 283.5t198.5 183.5t239.5 61q94 0 173.5 -36t135.5 -102t80.5 -167t7.5 -223t-70 -223t-128 -167t-164.5 -102.5t-182.5 -36.5zM475 266q89 0 143 55.5t72 182.5t-21 182t-128 55t-144 -55t-73 -182
t22 -182.5t129 -55.5zM322 1094l141 202h158l-144 -202h-155zM541 1094l141 202h158l-144 -202h-155z" />
    <glyph glyph-name="OE" unicode="&#x152;" horiz-adv-x="2318" 
d="M602 -45q-138 0 -252.5 54t-191.5 150.5t-109 239.5t-8 312q24 170 97 313.5t176.5 240.5t233 151t267.5 54q136 0 250.5 -52.5t191.5 -149.5l25 172h1006l-43 -297h-713l-37 -271h662l-43 -297h-662l-43 -313h707l-43 -295h-1000l27 187q-105 -96 -233 -147.5
t-265 -51.5zM643 252q175 0 293 116t151 343q33 229 -52.5 346t-260.5 117q-173 0 -290 -117t-150 -346q-33 -226 51.5 -342.5t257.5 -116.5z" />
    <glyph glyph-name="oe" unicode="&#x153;" horiz-adv-x="1685" 
d="M434 -25q-93 0 -172.5 36.5t-136 102.5t-81 167t-7.5 223q23 161 107 283.5t198.5 183.5t239.5 61q99 0 182.5 -40t138.5 -115q149 143 350 143q105 0 187.5 -41.5t133 -112.5t70.5 -168t5 -206l-19 -132h-645q33 -109 174 -106q35 1 64.5 11t47.5 24.5t27.5 25
t12.5 17.5l260 -78q-60 -120 -189.5 -205.5t-263.5 -85.5q-216 0 -334 156q-73 -70 -164 -107t-186 -37zM475 266q89 0 143 55.5t72 182.5t-21 182t-128 55t-144 -55t-73 -182t22 -182.5t129 -55.5zM1370 573q1 75 -45.5 115.5t-112.5 40.5q-62 0 -123.5 -39.5t-87.5 -116.5
h369z" />
    <glyph glyph-name="Racute" unicode="&#x154;" horiz-adv-x="1290" 
d="M31 -25l209 1475h563q242 0 364 -135t84 -371q-23 -144 -106.5 -256t-216.5 -156l311 -557l-373 2l-270 476h-205l-67 -478h-293zM698 750q142 0 193.5 39.5t66.5 154.5q15 113 -31 161t-169 48h-269l-55 -403h264zM690 1503l141 203h158l-143 -203h-156z" />
    <glyph glyph-name="racute" unicode="&#x155;" horiz-adv-x="962" 
d="M31 -25l147 1057h287l-12 -82q126 82 219 82q149 0 214 -97t40 -276l-6 -36h-263l5 43q3 33 -13 54t-57 21q-108 0 -186 -133l-89 -633h-286zM428 1094l141 202h158l-143 -202h-156z" />
    <glyph glyph-name="uni0156" unicode="&#x156;" horiz-adv-x="1290" 
d="M31 -25l209 1475h563q242 0 364 -135t84 -371q-23 -144 -106.5 -256t-216.5 -156l311 -557l-373 2l-270 476h-205l-67 -478h-293zM698 750q142 0 193.5 39.5t66.5 154.5q15 113 -31 161t-169 48h-269l-55 -403h264zM518 -328q64 82 76 160l12 100h158l-10 -86
q-7 -51 -34.5 -103.5t-64.5 -90.5z" />
    <glyph glyph-name="uni0157" unicode="&#x157;" horiz-adv-x="962" 
d="M31 -25l147 1057h287l-12 -82q126 82 219 82q149 0 214 -97t40 -276l-6 -36h-263l5 43q3 33 -13 54t-57 21q-108 0 -186 -133l-89 -633h-286zM41 -328q64 82 76 160l12 100h158l-11 -86q-7 -51 -34.5 -103.5t-63.5 -90.5z" />
    <glyph glyph-name="Rcaron" unicode="&#x158;" horiz-adv-x="1290" 
d="M31 -25l209 1475h563q242 0 364 -135t84 -371q-23 -144 -106.5 -256t-216.5 -156l311 -557l-373 2l-270 476h-205l-67 -478h-293zM698 750q142 0 193.5 39.5t66.5 154.5q15 113 -31 161t-169 48h-269l-55 -403h264zM649 1704h156l39 -92l90 92h156l-199 -203h-158z" />
    <glyph glyph-name="rcaron" unicode="&#x159;" horiz-adv-x="962" 
d="M31 -25l147 1057h287l-12 -82q126 82 219 82q149 0 214 -97t40 -276l-6 -36h-263l5 43q3 33 -13 54t-57 21q-108 0 -186 -133l-89 -633h-286zM387 1294h156l39 -92l90 92h155l-198 -202h-158z" />
    <glyph glyph-name="Sacute" unicode="&#x15a;" horiz-adv-x="1249" 
d="M537 -45q-255 0 -393 131.5t-107 374.5l287 -4q-6 -31 2 -65t31.5 -68t74.5 -56t123 -22q71 0 127.5 18.5t88.5 48t49.5 60.5t21.5 61q9 65 -33 94.5t-139 38.5l-234 23q-190 18 -272 122t-58 271q13 92 60.5 177.5t124 155t190 111t246.5 41.5q79 0 149.5 -13t140 -47
t116.5 -86.5t70.5 -139t10.5 -197.5h-292q-1 41 -11 73t-34.5 61t-73 45t-117.5 16q-113 0 -195 -55t-92 -119q-4 -30 3 -51.5t20.5 -34t41 -20.5t52.5 -11.5t66 -7.5l221 -21q104 -10 177.5 -46t112 -91.5t51 -122.5t1.5 -145q-10 -72 -39 -141.5t-80.5 -135t-119.5 -115
t-163.5 -79t-205.5 -29.5zM578 1503l141 203h158l-144 -203h-155z" />
    <glyph glyph-name="sacute" unicode="&#x15b;" horiz-adv-x="894" 
d="M356 -25q-51 0 -100.5 11t-97 37.5t-81 65.5t-48 101.5t-0.5 139.5h280q-7 -34 20.5 -60t92.5 -26q61 0 92 21t37 46q2 20 -10.5 32.5t-51.5 16.5l-178 21q-286 34 -239 299q19 107 91 188.5t171 122.5t207 41q59 0 110 -10.5t99 -34.5t76.5 -64.5t42.5 -100.5t-3 -142
l-272 8q6 29 -18.5 52.5t-88.5 23.5q-115 0 -122 -51q-3 -17 4.5 -28t25.5 -17t35 -8.5t45 -4.5l96 -6q92 -6 152.5 -33.5t87.5 -70.5t35.5 -99t-4.5 -120q-25 -153 -159.5 -252t-326.5 -99zM381 1094l141 202h158l-143 -202h-156z" />
    <glyph glyph-name="Scircumflex" unicode="&#x15c;" horiz-adv-x="1249" 
d="M537 -45q-255 0 -393 131.5t-107 374.5l287 -4q-6 -31 2 -65t31.5 -68t74.5 -56t123 -22q71 0 127.5 18.5t88.5 48t49.5 60.5t21.5 61q9 65 -33 94.5t-139 38.5l-234 23q-190 18 -272 122t-58 271q13 92 60.5 177.5t124 155t190 111t246.5 41.5q79 0 149.5 -13t140 -47
t116.5 -86.5t70.5 -139t10.5 -197.5h-292q-1 41 -11 73t-34.5 61t-73 45t-117.5 16q-113 0 -195 -55t-92 -119q-4 -30 3 -51.5t20.5 -34t41 -20.5t52.5 -11.5t66 -7.5l221 -21q104 -10 177.5 -46t112 -91.5t51 -122.5t1.5 -145q-10 -72 -39 -141.5t-80.5 -135t-119.5 -115
t-163.5 -79t-205.5 -29.5zM479 1503l199 203h158l84 -203h-156l-39 92l-90 -92h-156z" />
    <glyph glyph-name="scircumflex" unicode="&#x15d;" horiz-adv-x="894" 
d="M356 -25q-51 0 -100.5 11t-97 37.5t-81 65.5t-48 101.5t-0.5 139.5h280q-7 -34 20.5 -60t92.5 -26q61 0 92 21t37 46q2 20 -10.5 32.5t-51.5 16.5l-178 21q-286 34 -239 299q19 107 91 188.5t171 122.5t207 41q59 0 110 -10.5t99 -34.5t76.5 -64.5t42.5 -100.5t-3 -142
l-272 8q6 29 -18.5 52.5t-88.5 23.5q-115 0 -122 -51q-3 -17 4.5 -28t25.5 -17t35 -8.5t45 -4.5l96 -6q92 -6 152.5 -33.5t87.5 -70.5t35.5 -99t-4.5 -120q-25 -153 -159.5 -252t-326.5 -99zM283 1094l198 202h158l84 -202h-156l-39 92l-90 -92h-155z" />
    <glyph glyph-name="Scedilla" unicode="&#x15e;" horiz-adv-x="1249" 
d="M524 -426q-78 -12 -159 29l49 98q19 -18 51 -25t65 0q78 10 86 64q3 25 -10.5 36t-48.5 11t-108 -23l-33 39l45 156q-220 19 -336 149t-88 353l287 -4q-6 -31 2 -65t31.5 -68t74.5 -56t123 -22q71 0 127.5 18.5t88.5 48t49.5 60.5t21.5 61q9 65 -33 94.5t-139 38.5
l-234 23q-190 18 -272 122t-58 271q13 92 60.5 177.5t124 155t190 111t246.5 41.5q79 0 149.5 -13t140 -47t116.5 -86.5t70.5 -139t10.5 -197.5h-292q-1 41 -11 73t-34.5 61t-73 45t-117.5 16q-113 0 -195 -55t-92 -119q-4 -30 3 -51.5t20.5 -34t41 -20.5t52.5 -11.5
t66 -7.5l221 -21q104 -10 177.5 -46t112 -91.5t51 -122.5t1.5 -145q-13 -89 -55 -172.5t-111.5 -156.5t-177 -119.5t-236.5 -51.5l-22 -74q12 2 30 2q72 0 114.5 -37.5t33.5 -105.5q-10 -66 -66.5 -111.5t-130.5 -54.5z" />
    <glyph glyph-name="scedilla" unicode="&#x15f;" horiz-adv-x="894" 
d="M350 -418q-79 -12 -160 29l50 98q19 -18 50.5 -24.5t65.5 0.5q78 10 86 63q3 25 -10.5 36t-48.5 11q-39 0 -109 -22l-32 39l49 168q-58 8 -108.5 31t-92 63.5t-59 106.5t-2.5 149h280q-7 -34 20.5 -60t92.5 -26q61 0 92 21t37 46q2 20 -10.5 32.5t-51.5 16.5l-178 21
q-286 34 -239 299q19 107 91 188.5t171 122.5t207 41q59 0 110 -10.5t99 -34.5t76.5 -64.5t42.5 -100.5t-3 -142l-272 8q6 29 -18.5 52.5t-88.5 23.5q-115 0 -122 -51q-3 -17 4.5 -28t25.5 -17t35 -8.5t45 -4.5l96 -6q92 -6 152.5 -33.5t87.5 -70.5t35.5 -99t-4.5 -120
q-24 -144 -146.5 -242t-300.5 -107l-26 -88q12 2 30 2q72 0 114.5 -37.5t33.5 -105.5q-10 -66 -66.5 -111.5t-130.5 -54.5z" />
    <glyph glyph-name="Scaron" unicode="&#x160;" horiz-adv-x="1249" 
d="M537 -45q-255 0 -393 131.5t-107 374.5l287 -4q-6 -31 2 -65t31.5 -68t74.5 -56t123 -22q71 0 127.5 18.5t88.5 48t49.5 60.5t21.5 61q9 65 -33 94.5t-139 38.5l-234 23q-190 18 -272 122t-58 271q13 92 60.5 177.5t124 155t190 111t246.5 41.5q79 0 149.5 -13t140 -47
t116.5 -86.5t70.5 -139t10.5 -197.5h-292q-1 41 -11 73t-34.5 61t-73 45t-117.5 16q-113 0 -195 -55t-92 -119q-4 -30 3 -51.5t20.5 -34t41 -20.5t52.5 -11.5t66 -7.5l221 -21q104 -10 177.5 -46t112 -91.5t51 -122.5t1.5 -145q-10 -72 -39 -141.5t-80.5 -135t-119.5 -115
t-163.5 -79t-205.5 -29.5zM537 1704h155l39 -92l90 92h156l-199 -203h-157z" />
    <glyph glyph-name="scaron" unicode="&#x161;" horiz-adv-x="894" 
d="M356 -25q-51 0 -100.5 11t-97 37.5t-81 65.5t-48 101.5t-0.5 139.5h280q-7 -34 20.5 -60t92.5 -26q61 0 92 21t37 46q2 20 -10.5 32.5t-51.5 16.5l-178 21q-286 34 -239 299q19 107 91 188.5t171 122.5t207 41q59 0 110 -10.5t99 -34.5t76.5 -64.5t42.5 -100.5t-3 -142
l-272 8q6 29 -18.5 52.5t-88.5 23.5q-115 0 -122 -51q-3 -17 4.5 -28t25.5 -17t35 -8.5t45 -4.5l96 -6q92 -6 152.5 -33.5t87.5 -70.5t35.5 -99t-4.5 -120q-25 -153 -159.5 -252t-326.5 -99zM340 1294h156l39 -92l90 92h155l-198 -202h-158z" />
    <glyph glyph-name="uni0162" unicode="&#x162;" horiz-adv-x="1323" 
d="M328 -25l166 1180h-463l43 295h1218l-43 -295h-463l-165 -1180h-132l-26 -86q12 2 31 2q72 0 114 -37.5t33 -105.5q-10 -66 -66.5 -111.5t-130.5 -54.5q-78 -12 -159 29l49 98q19 -18 51 -24.5t66 0.5q78 10 86 63q3 25 -11 36t-49 11q-38 0 -108 -22l-33 39l49 163h-57z
" />
    <glyph glyph-name="uni0163" unicode="&#x163;" horiz-adv-x="768" 
d="M35 -25l115 807h-119l35 250h118l60 418h286l-59 -418h266l-35 -250h-266l-114 -807h-144l-26 -86q12 2 30 2q72 0 114.5 -37.5t33.5 -105.5q-10 -66 -66.5 -111.5t-130.5 -54.5q-79 -12 -160 29l50 98q19 -18 50.5 -24.5t65.5 0.5q78 10 86 63q3 25 -10.5 36t-48.5 11
q-39 0 -109 -22l-32 39l49 163h-39z" />
    <glyph glyph-name="Tcaron" unicode="&#x164;" horiz-adv-x="1323" 
d="M328 -25l166 1180h-463l43 295h1218l-43 -295h-463l-165 -1180h-293zM489 1704h156l39 -92l90 92h156l-199 -203h-158z" />
    <glyph glyph-name="tcaron" unicode="&#x165;" horiz-adv-x="768" 
d="M35 -25l115 807h-119l35 250h118l60 418h286l-59 -418h266l-35 -250h-266l-114 -807h-287zM616 1094l142 202h157l-143 -202h-156z" />
    <glyph glyph-name="Utilde" unicode="&#x168;" horiz-adv-x="1396" 
d="M551 -45q-278 0 -417 186.5t-91 528.5l109 780h292l-108 -780q-15 -95 -11 -165.5t20.5 -118.5t51.5 -78t82 -43t113 -13q113 0 185 38t119 129.5t69 250.5l108 780h293l-109 -780q-49 -343 -238.5 -529t-467.5 -186zM985 1671q-13 -74 -50 -121t-95 -47q-49 0 -97 56
q-21 24 -30 31t-19 7q-27 0 -41.5 -19.5t-27.5 -74.5h-101q19 89 67.5 142t117.5 53q60 0 116 -66q16 -21 20 -24.5t9 -3.5q10 0 14 7.5t19 59.5h98z" />
    <glyph glyph-name="utilde" unicode="&#x169;" horiz-adv-x="1019" 
d="M348 -25q-91 0 -158.5 34.5t-103 93t-50 136t0.5 162.5l88 631h287l-88 -629q-9 -73 26.5 -106t77.5 -31q113 7 186 133l88 633h287l-147 -1057h-287l10 80q-119 -80 -217 -80zM784 1262q-13 -74 -50 -121t-95 -47q-49 0 -96 55q-21 24 -30 31.5t-19 7.5q-27 0 -42 -19.5
t-28 -74.5h-100q19 89 67 141.5t117 52.5q62 0 117 -65q25 -28 28 -29q10 0 14 8t19 60h98z" />
    <glyph glyph-name="Umacron" unicode="&#x16a;" horiz-adv-x="1396" 
d="M551 -45q-278 0 -417 186.5t-91 528.5l109 780h292l-108 -780q-15 -95 -11 -165.5t20.5 -118.5t51.5 -78t82 -43t113 -13q113 0 185 38t119 129.5t69 250.5l108 780h293l-109 -780q-49 -343 -238.5 -529t-467.5 -186zM569 1688h396l-21 -142h-395z" />
    <glyph glyph-name="umacron" unicode="&#x16b;" horiz-adv-x="1019" 
d="M348 -25q-91 0 -158.5 34.5t-103 93t-50 136t0.5 162.5l88 631h287l-88 -629q-9 -73 26.5 -106t77.5 -31q113 7 186 133l88 633h287l-147 -1057h-287l10 80q-119 -80 -217 -80zM369 1278h395l-21 -141h-395z" />
    <glyph glyph-name="Ubreve" unicode="&#x16c;" horiz-adv-x="1396" 
d="M551 -45q-278 0 -417 186.5t-91 528.5l109 780h292l-108 -780q-15 -95 -11 -165.5t20.5 -118.5t51.5 -78t82 -43t113 -13q113 0 185 38t119 129.5t69 250.5l108 780h293l-109 -780q-49 -343 -238.5 -529t-467.5 -186zM1006 1704q-28 -83 -95.5 -138t-142.5 -55
q-78 0 -128.5 54.5t-55.5 138.5h125q2 -33 21.5 -55.5t53.5 -22.5q39 0 65.5 28.5t31.5 49.5h125z" />
    <glyph glyph-name="ubreve" unicode="&#x16d;" horiz-adv-x="1019" 
d="M348 -25q-91 0 -158.5 34.5t-103 93t-50 136t0.5 162.5l88 631h287l-88 -629q-9 -73 26.5 -106t77.5 -31q113 7 186 133l88 633h287l-147 -1057h-287l10 80q-119 -80 -217 -80zM805 1294q-28 -83 -95.5 -137.5t-142.5 -54.5q-79 0 -129 54t-55 138h125q2 -32 22 -54.5
t54 -22.5q39 0 65 28t31 49h125z" />
    <glyph glyph-name="Uring" unicode="&#x16e;" horiz-adv-x="1396" 
d="M551 -45q-278 0 -417 186.5t-91 528.5l109 780h292l-108 -780q-15 -95 -11 -165.5t20.5 -118.5t51.5 -78t82 -43t113 -13q113 0 185 38t119 129.5t69 250.5l108 780h293l-109 -780q-49 -343 -238.5 -529t-467.5 -186zM743 1503q-47 0 -73.5 31t-20.5 76q6 41 41.5 71.5
t81.5 30.5q45 0 71.5 -30.5t20.5 -71.5q-6 -45 -41 -76t-80 -31zM754 1579q13 0 21.5 9t10.5 22q2 10 -4.5 18t-19.5 8t-22 -7.5t-11 -18.5q-1 -13 6 -22t19 -9z" />
    <glyph glyph-name="uring" unicode="&#x16f;" horiz-adv-x="1019" 
d="M348 -25q-91 0 -158.5 34.5t-103 93t-50 136t0.5 162.5l88 631h287l-88 -629q-9 -73 26.5 -106t77.5 -31q113 7 186 133l88 633h287l-147 -1057h-287l10 80q-119 -80 -217 -80zM543 1094q-47 0 -73.5 30.5t-20.5 75.5q6 41 41 72t81 31q45 0 72 -31t21 -72
q-6 -45 -41 -75.5t-80 -30.5zM553 1169q13 0 22 9t11 22q2 10 -5 18.5t-20 8.5t-22 -8t-11 -19q-1 -13 6 -22t19 -9z" />
    <glyph glyph-name="Uhungarumlaut" unicode="&#x170;" horiz-adv-x="1396" 
d="M551 -45q-278 0 -417 186.5t-91 528.5l109 780h292l-108 -780q-15 -95 -11 -165.5t20.5 -118.5t51.5 -78t82 -43t113 -13q113 0 185 38t119 129.5t69 250.5l108 780h293l-109 -780q-49 -343 -238.5 -529t-467.5 -186zM498 1503l141 203h158l-144 -203h-155zM717 1503
l141 203h158l-144 -203h-155z" />
    <glyph glyph-name="uhungarumlaut" unicode="&#x171;" horiz-adv-x="1019" 
d="M348 -25q-91 0 -158.5 34.5t-103 93t-50 136t0.5 162.5l88 631h287l-88 -629q-9 -73 26.5 -106t77.5 -31q113 7 186 133l88 633h287l-147 -1057h-287l10 80q-119 -80 -217 -80zM297 1094l141 202h158l-143 -202h-156zM516 1094l141 202h158l-143 -202h-156z" />
    <glyph glyph-name="Uogonek" unicode="&#x172;" horiz-adv-x="1396" 
d="M551 -45q-278 0 -417 186.5t-91 528.5l109 780h292l-108 -780q-15 -95 -11 -165.5t20.5 -118.5t51.5 -78t82 -43t113 -13q113 0 185 38t119 129.5t69 250.5l108 780h293l-109 -780q-36 -253 -150 -421.5t-288 -242.5l115 -76l-39 -39q-68 23 -104 23q-35 0 -50.5 -11
t-15.5 -36q0 -54 76 -64q33 -7 66 0t55 25l34 -98q-84 -41 -163 -29q-72 9 -122 54.5t-50 111.5q0 57 36 96q-47 -8 -106 -8z" />
    <glyph glyph-name="uogonek" unicode="&#x173;" horiz-adv-x="1019" 
d="M348 -25q-91 0 -158.5 34.5t-103 93t-50 136t0.5 162.5l88 631h287l-88 -629q-9 -73 26.5 -106t77.5 -31q113 7 186 133l88 633h287l-147 -1052l10 -7l-39 -39q-68 23 -104 23q-35 0 -50.5 -11t-15.5 -36q0 -54 76 -64q33 -7 66 0t55 25l34 -98q-84 -41 -163 -29
q-72 9 -122 54.5t-50 111.5q0 38 16 70l10 75q-119 -80 -217 -80z" />
    <glyph glyph-name="Wcircumflex" unicode="&#x174;" horiz-adv-x="2119" 
d="M373 -25l-342 1475h315l197 -875l411 875h209l164 -875l447 875h315l-762 -1475h-184l-166 879l-416 -879h-188zM809 1503l199 203h157l84 -203h-155l-39 92l-90 -92h-156z" />
    <glyph glyph-name="wcircumflex" unicode="&#x175;" horiz-adv-x="1425" 
d="M236 -25l-205 1057h303l86 -426l198 426h191l80 -426l203 426h303l-498 -1057h-192l-78 426l-201 -426h-190zM465 1094l199 202h157l84 -202h-155l-39 92l-90 -92h-156z" />
    <glyph glyph-name="Ycircumflex" unicode="&#x176;" horiz-adv-x="1411" 
d="M350 -25l90 641l-409 834h350l252 -518l399 518h348l-647 -834l-90 -641h-293zM455 1503l198 203h158l84 -203h-156l-39 92l-90 -92h-155z" />
    <glyph glyph-name="ycircumflex" unicode="&#x177;" horiz-adv-x="1101" 
d="M88 -336l221 449l-278 919h313l160 -526l262 526h305l-678 -1368h-305zM301 1094l199 202h157l84 -202h-155l-39 92l-90 -92h-156z" />
    <glyph glyph-name="Ydieresis" unicode="&#x178;" horiz-adv-x="1411" 
d="M350 -25l90 641l-409 834h350l252 -518l399 518h348l-647 -834l-90 -641h-293zM555 1503q-49 0 -78.5 34.5t-23.5 84.5q6 49 45.5 84t89.5 35q49 0 78.5 -34.5t23.5 -84.5q-6 -49 -45.5 -84t-89.5 -35zM815 1503q-49 0 -78.5 34.5t-23.5 84.5q6 49 45.5 84t89.5 35
q49 0 78.5 -34.5t23.5 -84.5q-6 -49 -45.5 -84t-89.5 -35z" />
    <glyph glyph-name="Zacute" unicode="&#x179;" horiz-adv-x="1384" 
d="M31 -25l30 215l824 965h-688l43 295h1114l-31 -215l-823 -963h688l-43 -297h-1114zM643 1503l141 203h158l-143 -203h-156z" />
    <glyph glyph-name="zacute" unicode="&#x17a;" horiz-adv-x="1007" 
d="M31 -25l28 201l459 565h-375l41 291h793l-29 -201l-461 -565h383l-41 -291h-798zM428 1094l141 202h158l-143 -202h-156z" />
    <glyph glyph-name="Zdotaccent" unicode="&#x17b;" horiz-adv-x="1384" 
d="M31 -25l30 215l824 965h-688l43 295h1114l-31 -215l-823 -963h688l-43 -297h-1114zM776 1503q-49 0 -78.5 34.5t-23.5 84.5q6 49 45.5 84t89.5 35q49 0 78.5 -34.5t23.5 -84.5q-6 -49 -45.5 -84t-89.5 -35z" />
    <glyph glyph-name="zdotaccent" unicode="&#x17c;" horiz-adv-x="1007" 
d="M31 -25l28 201l459 565h-375l41 291h793l-29 -201l-461 -565h383l-41 -291h-798zM561 1094q-49 0 -78.5 34t-23.5 84q6 49 45.5 84t89.5 35q49 0 78.5 -34.5t23.5 -84.5q-6 -49 -45.5 -83.5t-89.5 -34.5z" />
    <glyph glyph-name="Zcaron" unicode="&#x17d;" horiz-adv-x="1384" 
d="M31 -25l30 215l824 965h-688l43 295h1114l-31 -215l-823 -963h688l-43 -297h-1114zM602 1704h156l39 -92l90 92h155l-198 -203h-158z" />
    <glyph glyph-name="zcaron" unicode="&#x17e;" horiz-adv-x="1007" 
d="M31 -25l28 201l459 565h-375l41 291h793l-29 -201l-461 -565h383l-41 -291h-798zM387 1294h156l39 -92l90 92h155l-198 -202h-158z" />
    <glyph glyph-name="uni018F" unicode="&#x18f;" horiz-adv-x="1384" 
d="M664 1470q145 0 272.5 -57t219.5 -156t145 -240.5t53 -303.5q0 -151 -47 -287.5t-132 -241t-212.5 -166t-278.5 -61.5q-147 0 -270 56t-205 152t-125 224.5t-39 272.5l10 182h989q-28 157 -130.5 239t-249.5 82q-68 0 -125.5 -19t-105 -57t-84 -80.5t-77.5 -103.5
l-241 174q147 199 297 295t336 96zM356 535q24 -134 103.5 -203.5t224.5 -69.5q133 0 222 69.5t126 203.5h-676z" />
    <glyph glyph-name="uni0218" unicode="&#x218;" horiz-adv-x="1249" 
d="M537 -45q-255 0 -393 131.5t-107 374.5l287 -4q-6 -31 2 -65t31.5 -68t74.5 -56t123 -22q71 0 127.5 18.5t88.5 48t49.5 60.5t21.5 61q9 65 -33 94.5t-139 38.5l-234 23q-190 18 -272 122t-58 271q13 92 60.5 177.5t124 155t190 111t246.5 41.5q79 0 149.5 -13t140 -47
t116.5 -86.5t70.5 -139t10.5 -197.5h-292q-1 41 -11 73t-34.5 61t-73 45t-117.5 16q-113 0 -195 -55t-92 -119q-4 -30 3 -51.5t20.5 -34t41 -20.5t52.5 -11.5t66 -7.5l221 -21q104 -10 177.5 -46t112 -91.5t51 -122.5t1.5 -145q-10 -72 -39 -141.5t-80.5 -135t-119.5 -115
t-163.5 -79t-205.5 -29.5zM438 -336q64 82 76 160l12 100h158l-10 -86q-7 -51 -34.5 -103.5t-64.5 -90.5z" />
    <glyph glyph-name="uni0219" unicode="&#x219;" horiz-adv-x="894" 
d="M356 -25q-51 0 -100.5 11t-97 37.5t-81 65.5t-48 101.5t-0.5 139.5h280q-7 -34 20.5 -60t92.5 -26q61 0 92 21t37 46q2 20 -10.5 32.5t-51.5 16.5l-178 21q-286 34 -239 299q19 107 91 188.5t171 122.5t207 41q59 0 110 -10.5t99 -34.5t76.5 -64.5t42.5 -100.5t-3 -142
l-272 8q6 29 -18.5 52.5t-88.5 23.5q-115 0 -122 -51q-3 -17 4.5 -28t25.5 -17t35 -8.5t45 -4.5l96 -6q92 -6 152.5 -33.5t87.5 -70.5t35.5 -99t-4.5 -120q-25 -153 -159.5 -252t-326.5 -99zM264 -328q64 82 76 160l12 100h158l-10 -86q-7 -51 -34.5 -103.5t-64.5 -90.5z
" />
    <glyph glyph-name="uni021A" unicode="&#x21a;" horiz-adv-x="1323" 
d="M328 -25l166 1180h-463l43 295h1218l-43 -295h-463l-165 -1180h-293zM358 -328q64 82 76 160l12 100h158l-10 -86q-7 -51 -34.5 -103.5t-63.5 -90.5z" />
    <glyph glyph-name="uni021B" unicode="&#x21b;" horiz-adv-x="768" 
d="M35 -25l115 807h-119l35 250h118l60 418h286l-59 -418h266l-35 -250h-266l-114 -807h-287zM47 -328q64 82 76 160l12 100h158l-10 -86q-7 -51 -34.5 -103.5t-64.5 -90.5z" />
    <glyph glyph-name="uni0237" unicode="&#x237;" horiz-adv-x="784" 
d="M215 -430q-214 -4 -307 205l260 94q1 -2 2.5 -7.5t2.5 -7.5t3 -7t4 -7t5 -6t6 -5.5t7.5 -3.5t10 -2.5t12.5 -0.5q76 0 90 96l156 1114h287l-156 -1114q-21 -151 -132 -248t-251 -100z" />
    <glyph glyph-name="uni0259" unicode="&#x259;" 
d="M567 1049q213 0 328.5 -149.5t83.5 -379.5q-20 -138 -92 -257t-192.5 -195t-262.5 -76q-139 0 -237 71t-138.5 190.5t-19.5 266.5l18 131h645q-34 110 -174 107q-35 -1 -64.5 -11t-47 -24.5t-27 -25t-12.5 -17.5l-260 78q60 120 189.5 205.5t262.5 85.5zM315 438
q-1 -75 45.5 -115t112.5 -40q62 0 123.5 39t87.5 116h-369z" />
    <glyph glyph-name="circumflex" unicode="&#x2c6;" horiz-adv-x="444" 
d="M-25 1094l199 202h158l84 -202h-156l-39 92l-90 -92h-156z" />
    <glyph glyph-name="caron" unicode="&#x2c7;" horiz-adv-x="444" 
d="M18 1294h156l39 -92l90 92h156l-199 -202h-158z" />
    <glyph glyph-name="breve" unicode="&#x2d8;" horiz-adv-x="421" 
d="M440 1294q-28 -83 -95 -137.5t-142 -54.5q-79 0 -129.5 54t-55.5 138h125q2 -32 22 -54.5t54 -22.5q39 0 65 28t31 49h125z" />
    <glyph glyph-name="dotaccent" unicode="&#x2d9;" horiz-adv-x="237" 
d="M102 1094q-49 0 -78.5 34t-23.5 84q6 49 45.5 84t89.5 35q49 0 79 -34.5t24 -84.5q-6 -49 -46 -83.5t-90 -34.5z" />
    <glyph glyph-name="ring" unicode="&#x2da;" horiz-adv-x="215" 
d="M94 1094q-47 0 -73.5 30.5t-20.5 75.5q6 41 41.5 72t81.5 31q45 0 71.5 -31t20.5 -72q-6 -45 -41 -75.5t-80 -30.5zM104 1169q13 0 22 9t11 22q2 10 -4.5 18.5t-19.5 8.5t-22 -8t-11 -19q-2 -14 5 -22.5t19 -8.5z" />
    <glyph glyph-name="ogonek" unicode="&#x2db;" horiz-adv-x="335" 
d="M172 -356q-72 9 -122 54.5t-50 111.5q0 68 48 105.5t120 37.5q19 0 29 -2l116 -78l-39 -39q-68 23 -104 23q-35 0 -50.5 -11t-15.5 -36q0 -54 76 -64q33 -7 66 0t55 25l35 -99q-83 -41 -164 -28z" />
    <glyph glyph-name="tilde" unicode="&#x2dc;" horiz-adv-x="436" 
d="M446 1262q-13 -74 -50 -121t-95 -47q-49 0 -96 55q-21 24 -30 31.5t-19 7.5q-27 0 -42 -19.5t-28 -74.5h-100q19 89 67 141.5t117 52.5q62 0 117 -65q25 -28 28 -29q10 0 14 8t19 60h98z" />
    <glyph glyph-name="hungarumlaut" unicode="&#x2dd;" horiz-adv-x="518" 
d="M0 1094l141 202h158l-143 -202h-156zM219 1094l141 202h158l-143 -202h-156z" />
    <glyph glyph-name="gravecomb" unicode="&#x300;" horiz-adv-x="0" 
d="M299 1094h-156l-143 202h158z" />
    <glyph glyph-name="acutecomb" unicode="&#x301;" horiz-adv-x="0" 
d="M0 1094l141 202h158l-143 -202h-156z" />
    <glyph glyph-name="uni0302" unicode="&#x302;" horiz-adv-x="0" 
d="M-25 1094l199 202h158l84 -202h-156l-39 92l-90 -92h-156z" />
    <glyph glyph-name="tildecomb" unicode="&#x303;" horiz-adv-x="0" 
d="M446 1262q-13 -74 -50 -121t-95 -47q-49 0 -96 55q-21 24 -30 31.5t-19 7.5q-27 0 -42 -19.5t-28 -74.5h-100q19 89 67 141.5t117 52.5q62 0 117 -65q25 -28 28 -29q10 0 14 8t19 60h98z" />
    <glyph glyph-name="uni0304" unicode="&#x304;" horiz-adv-x="0" 
d="M10 1278h396l-21 -141h-395z" />
    <glyph glyph-name="uni0306" unicode="&#x306;" horiz-adv-x="0" 
d="M440 1294q-28 -83 -95 -137.5t-142 -54.5q-79 0 -129.5 54t-55.5 138h125q2 -32 22 -54.5t54 -22.5q39 0 65 28t31 49h125z" />
    <glyph glyph-name="uni0307" unicode="&#x307;" horiz-adv-x="0" 
d="M102 1094q-49 0 -78.5 34t-23.5 84q6 49 45.5 84t89.5 35q49 0 79 -34.5t24 -84.5q-6 -49 -46 -83.5t-90 -34.5z" />
    <glyph glyph-name="uni0308" unicode="&#x308;" horiz-adv-x="0" 
d="M102 1094q-49 0 -78.5 34t-23.5 84q6 49 45.5 84t89.5 35q49 0 79 -34.5t24 -84.5q-6 -49 -46 -83.5t-90 -34.5zM362 1094q-49 0 -78.5 34t-23.5 84q6 49 45.5 84t89.5 35q49 0 79 -34.5t24 -84.5q-6 -49 -46 -83.5t-90 -34.5z" />
    <glyph glyph-name="uni030A" unicode="&#x30a;" horiz-adv-x="0" 
d="M94 1094q-47 0 -73.5 30.5t-20.5 75.5q6 41 41.5 72t81.5 31q45 0 71.5 -31t20.5 -72q-6 -45 -41 -75.5t-80 -30.5zM104 1169q13 0 22 9t11 22q2 10 -4.5 18.5t-19.5 8.5t-22 -8t-11 -19q-2 -14 5 -22.5t19 -8.5z" />
    <glyph glyph-name="uni030B" unicode="&#x30b;" horiz-adv-x="0" 
d="M0 1094l141 202h158l-143 -202h-156zM219 1094l141 202h158l-143 -202h-156z" />
    <glyph glyph-name="uni030C" unicode="&#x30c;" horiz-adv-x="0" 
d="M18 1294h156l39 -92l90 92h156l-199 -202h-158z" />
    <glyph glyph-name="uni0312" unicode="&#x312;" horiz-adv-x="0" 
d="M227 1319q-63 -69 -75 -141l-13 -86h-157l10 73q7 44 34 90.5t64 81.5z" />
    <glyph glyph-name="uni0326" unicode="&#x326;" horiz-adv-x="0" 
d="M-16 -328q63 81 75 160l13 100h157l-10 -86q-7 -51 -34.5 -103.5t-63.5 -90.5z" />
    <glyph glyph-name="uni0327" unicode="&#x327;" horiz-adv-x="0" 
d="M133 -418q-79 -12 -160 29l50 98q19 -18 50.5 -24.5t65.5 0.5q78 10 86 63q3 25 -10.5 36t-48.5 11q-39 0 -109 -22l-32 39l61 206h104l-38 -129q12 2 30 2q72 0 114.5 -37.5t33.5 -105.5q-10 -66 -66.5 -111.5t-130.5 -54.5z" />
    <glyph glyph-name="uni0328" unicode="&#x328;" horiz-adv-x="0" 
d="M172 -356q-72 9 -122 54.5t-50 111.5q0 68 48 105.5t120 37.5q19 0 29 -2l116 -78l-39 -39q-68 23 -104 23q-35 0 -50.5 -11t-15.5 -36q0 -54 76 -64q33 -7 66 0t55 25l35 -99q-83 -41 -164 -28z" />
    <glyph glyph-name="uni1E20" unicode="&#x1e20;" horiz-adv-x="1423" 
d="M604 -45q-138 0 -253 54t-192 150.5t-109.5 239.5t-8.5 312q24 170 97 313.5t177.5 240.5t234 151t267.5 54q266 0 418 -169t158 -445h-295q-4 158 -89 238t-233 80q-71 0 -141 -29t-132 -84t-107.5 -145.5t-61.5 -204.5q-16 -112 3 -202t64.5 -145t108 -83.5
t135.5 -28.5q258 0 377 229h-426l41 297h743l-112 -803h-297l24 162q-64 -82 -175.5 -132t-215.5 -50zM618 1688h396l-21 -142h-395z" />
    <glyph glyph-name="uni1E21" unicode="&#x1e21;" horiz-adv-x="1222" 
d="M449 -637q-137 0 -238 54.5t-146 146t-30 200.5q11 81 46.5 136.5t102.5 117.5q-34 29 -56 73t-15 95q18 109 90 152q-34 57 -49 107t-13 84t6 71q26 189 170 310.5t336 121.5q185 0 285 -92q87 92 254 92l-35 -250q-3 0 -9 0.5t-23 -1.5t-31.5 -7t-30.5 -18t-25 -33
q10 -52 2 -123q-28 -190 -171 -310t-337 -120q-61 0 -135 25q-28 -30 38 -38q21 -3 50 -3h154q184 0 280.5 -103t71.5 -272q-11 -78 -52.5 -151t-107.5 -133t-164 -96t-212 -36h-6zM567 -348q49 0 90 33.5t48 85.5q5 41 -19.5 67.5t-75.5 26.5h-198h-17q-32 -19 -51 -47
t-22 -54q-6 -48 22 -80t72 -32h151zM573 457q76 0 124 40.5t57 104.5q8 61 -29.5 101t-112.5 40q-76 0 -123 -40t-55 -101q-9 -64 26.5 -104.5t112.5 -40.5zM512 1278h395l-20 -141h-395z" />
    <glyph glyph-name="Wgrave" unicode="&#x1e80;" horiz-adv-x="2119" 
d="M373 -25l-342 1475h315l197 -875l411 875h209l164 -875l447 875h315l-762 -1475h-184l-166 879l-416 -879h-188zM1206 1503h-155l-144 203h158z" />
    <glyph glyph-name="wgrave" unicode="&#x1e81;" horiz-adv-x="1425" 
d="M236 -25l-205 1057h303l86 -426l198 426h191l80 -426l203 426h303l-498 -1057h-192l-78 426l-201 -426h-190zM862 1094h-155l-144 202h158z" />
    <glyph glyph-name="Wacute" unicode="&#x1e82;" horiz-adv-x="2119" 
d="M373 -25l-342 1475h315l197 -875l411 875h209l164 -875l447 875h315l-762 -1475h-184l-166 879l-416 -879h-188zM907 1503l142 203h157l-143 -203h-156z" />
    <glyph glyph-name="wacute" unicode="&#x1e83;" horiz-adv-x="1425" 
d="M236 -25l-205 1057h303l86 -426l198 426h191l80 -426l203 426h303l-498 -1057h-192l-78 426l-201 -426h-190zM563 1094l142 202h157l-143 -202h-156z" />
    <glyph glyph-name="Wdieresis" unicode="&#x1e84;" horiz-adv-x="2119" 
d="M373 -25l-342 1475h315l197 -875l411 875h209l164 -875l447 875h315l-762 -1475h-184l-166 879l-416 -879h-188zM909 1503q-49 0 -78.5 34.5t-23.5 84.5q6 49 45.5 84t89.5 35q49 0 78.5 -34.5t23.5 -84.5q-6 -49 -45.5 -84t-89.5 -35zM1169 1503q-49 0 -78.5 34.5
t-23.5 84.5q6 49 45.5 84t89.5 35q49 0 79 -34.5t24 -84.5q-6 -49 -46 -84t-90 -35z" />
    <glyph glyph-name="wdieresis" unicode="&#x1e85;" horiz-adv-x="1425" 
d="M236 -25l-205 1057h303l86 -426l198 426h191l80 -426l203 426h303l-498 -1057h-192l-78 426l-201 -426h-190zM565 1094q-49 0 -78.5 34t-23.5 84q6 49 45.5 84t89.5 35q49 0 78.5 -34.5t23.5 -84.5q-6 -49 -45.5 -83.5t-89.5 -34.5zM825 1094q-49 0 -78.5 34t-23.5 84
q6 49 45.5 84t89.5 35q49 0 79 -34.5t24 -84.5q-6 -49 -46 -83.5t-90 -34.5z" />
    <glyph glyph-name="uni1E9E" unicode="&#x1e9e;" horiz-adv-x="1159" 
d="M713 1450q211 0 324 -115.5t87 -308.5q-21 -148 -118 -260q121 -127 94 -330q-29 -205 -193 -333t-399 -128h-57l43 299h67q101 0 165.5 40t76.5 122q11 81 -39 121.5t-137 40.5h-84l41 295h75q87 0 120 26.5t44 102.5q10 67 -36.5 98t-116.5 31h-2q-77 0 -132 -30.5
t-65 -98.5l-147 -1047h-293l149 1051q26 192 172.5 308t358.5 116h2z" />
    <glyph glyph-name="uni1EBC" unicode="&#x1ebc;" horiz-adv-x="1275" 
d="M31 -23l209 1473h1005l-43 -297h-713l-36 -270h661l-43 -297h-661l-43 -314h706l-43 -295h-999zM967 1671q-13 -74 -50.5 -121t-95.5 -47q-48 0 -96 56q-21 24 -30 31t-19 7q-27 0 -42 -19.5t-28 -74.5h-100q19 89 67 142t117 53q61 0 117 -66q16 -21 20 -24.5t9 -3.5
q10 0 13 7t19 60h99z" />
    <glyph glyph-name="uni1EBD" unicode="&#x1ebd;" 
d="M449 -25q-213 0 -328.5 149.5t-83.5 379.5q20 138 92 257t192.5 195t262.5 76q139 0 237 -71t138.5 -190.5t19.5 -266.5l-18 -131h-646q34 -110 174 -107q35 1 64.5 11t47.5 24.5t27.5 25t12.5 17.5l260 -78q-60 -120 -189.5 -205.5t-262.5 -85.5zM700 586q1 75 -45 115
t-112 40q-62 0 -123.5 -39t-87.5 -116h368zM809 1262q-13 -74 -50 -121t-95 -47q-50 0 -97 55q-21 24 -30 31.5t-19 7.5q-27 0 -41.5 -19.5t-27.5 -74.5h-101q19 89 67 141.5t117 52.5q62 0 117 -65q17 -22 21 -25.5t8 -3.5q10 0 14 8t19 60h98z" />
    <glyph glyph-name="Ygrave" unicode="&#x1ef2;" horiz-adv-x="1411" 
d="M350 -25l90 641l-409 834h350l252 -518l399 518h348l-647 -834l-90 -641h-293zM852 1503h-156l-143 203h158z" />
    <glyph glyph-name="ygrave" unicode="&#x1ef3;" horiz-adv-x="1101" 
d="M88 -336l221 449l-278 919h313l160 -526l262 526h305l-678 -1368h-305zM698 1094h-155l-144 202h158z" />
    <glyph glyph-name="uni1EF8" unicode="&#x1ef8;" horiz-adv-x="1411" 
d="M350 -25l90 641l-409 834h350l252 -518l399 518h348l-647 -834l-90 -641h-293zM930 1671q-13 -74 -50.5 -121t-95.5 -47q-48 0 -96 56q-21 24 -30 31t-19 7q-27 0 -42 -19.5t-28 -74.5h-100q19 89 67 142t117 53q61 0 117 -66q16 -21 20 -24.5t9 -3.5q10 0 13 7t19 60h99
z" />
    <glyph glyph-name="uni1EF9" unicode="&#x1ef9;" horiz-adv-x="1101" 
d="M88 -336l221 449l-278 919h313l160 -526l262 526h305l-678 -1368h-305zM776 1262q-13 -74 -50 -121t-95 -47q-49 0 -96 55q-21 24 -30.5 31.5t-19.5 7.5q-27 0 -41.5 -19.5t-27.5 -74.5h-101q19 89 67.5 141.5t117.5 52.5q61 0 116 -65q17 -22 20.5 -25.5t8.5 -3.5
q10 0 14 8t19 60h98z" />
    <glyph glyph-name="endash" unicode="&#x2013;" horiz-adv-x="491" 
d="M41 276v236h410v-236h-410z" />
    <glyph glyph-name="emdash" unicode="&#x2014;" horiz-adv-x="956" 
d="M41 340v235h874v-235h-874z" />
    <glyph glyph-name="quoteleft" unicode="&#x2018;" horiz-adv-x="374" 
d="M18 1053q91 123 105 235l18 146h219l-16 -125q-9 -74 -46.5 -151.5t-88.5 -135.5z" />
    <glyph glyph-name="quoteright" unicode="&#x2019;" horiz-adv-x="374" 
d="M18 1053q91 123 105 235l18 146h219l-16 -125q-9 -74 -46.5 -151.5t-88.5 -135.5z" />
    <glyph glyph-name="quotesinglbase" unicode="&#x201a;" horiz-adv-x="268" 
d="M10 -260l62 444h186l-16 -116l-72 -328h-160z" />
    <glyph glyph-name="quotedblleft" unicode="&#x201c;" horiz-adv-x="661" 
d="M18 1053q91 123 105 235l18 146h219l-16 -125q-9 -74 -46.5 -151.5t-88.5 -135.5zM305 1053q91 123 105 235l18 146h219l-16 -125q-9 -74 -46.5 -151.5t-88.5 -135.5z" />
    <glyph glyph-name="quotedblright" unicode="&#x201d;" horiz-adv-x="634" 
d="M18 1053q91 123 105 235l18 146h219l-16 -125q-9 -74 -46.5 -151.5t-88.5 -135.5zM279 1053q90 122 104 235l18 146h220l-17 -125q-9 -74 -46.5 -151.5t-88.5 -135.5z" />
    <glyph glyph-name="quotedblbase" unicode="&#x201e;" horiz-adv-x="497" 
d="M240 -260l61 444h186l-16 -116l-72 -328h-159zM10 -260l62 444h186l-16 -116l-72 -328h-160z" />
    <glyph glyph-name="dagger" unicode="&#x2020;" horiz-adv-x="989" 
d="M932 768h-354l-101 -705h-192l100 705h-354l26 193h355l53 376h192l-53 -376h354z" />
    <glyph glyph-name="bullet" unicode="&#x2022;" horiz-adv-x="466" 
d="M233 541q-87 0 -139.5 51.5t-52.5 136.5v2q0 83 52.5 136t139.5 53t140 -53t53 -140q0 -82 -53 -134t-140 -52z" />
    <glyph glyph-name="ellipsis" unicode="&#x2026;" horiz-adv-x="1132" 
d="M408 152q13 95 96 136q72 37 142 11q72 -26 82 -101q2 -22 -1 -46q-13 -91 -96 -131q-73 -36 -144 -10q-72 26 -80 100q-2 19 1 41zM41 154q13 95 96 136q72 37 142 11q72 -26 82 -101q2 -22 -1 -46q-13 -91 -96 -131q-73 -36 -144 -10q-72 26 -80 100q-2 19 1 41z
M772 152q13 94 96 136q72 37 142 11q72 -26 82 -100q3 -22 0 -47q-13 -91 -96 -131q-73 -35 -144 -10q-72 26 -81 98q-2 20 1 43z" />
    <glyph glyph-name="guilsinglleft" unicode="&#x2039;" horiz-adv-x="655" 
d="M258 160l-217 362l319 361h306l-326 -361l223 -362h-305z" />
    <glyph glyph-name="guilsinglright" unicode="&#x203a;" horiz-adv-x="655" 
d="M295 160h-305l325 362l-225 361h305l219 -361z" />
    <glyph glyph-name="Euro" unicode="&#x20ac;" horiz-adv-x="1652" 
d="M836 -45q-209 0 -358.5 119t-194.5 327h-197l33 240h147l8 70l7 39h-146l33 239h186q101 223 289 352t406 129q176 0 306.5 -82t197 -219.5t69.5 -312.5h-295q-6 153 -89 235.5t-230 82.5q-93 0 -182 -47t-154 -138h299l-33 -239h-365l-6 -39l-6 -70h361l-33 -240h-281
q84 -149 269 -149q163 0 267.5 92.5t149.5 249.5h293q-56 -201 -170.5 -346.5t-263.5 -219t-317 -73.5z" />
    <glyph glyph-name="trademark" unicode="&#x2122;" horiz-adv-x="1294" 
d="M373 645h-166l78 553h-217l24 162h656l163 -352l265 352h129l-103 -715h-168l49 336l-151 -201h-105l-94 205l-49 -340h-168l80 553h-145z" />
    <glyph glyph-name="uniA78B" unicode="&#xa78b;" horiz-adv-x="268" 
d="M10 997l62 445h186l-16 -117l-72 -328h-160z" />
    <glyph glyph-name="uniA78C" unicode="&#xa78c;" horiz-adv-x="268" 
d="M10 997l62 445h186l-16 -117l-72 -328h-160z" />
    <glyph glyph-name="Slash" horiz-adv-x="1042" 
d="M326 -317h-285l676 1841h284z" />
    <glyph glyph-name="uni004A0301" horiz-adv-x="1193" 
d="M442 -45q-111 0 -196.5 36t-134 96t-68.5 135t-8 157l6 45h293l-6 -35q-9 -74 23 -105.5t132 -31.5q128 0 182 58t74 210l131 930h293l-131 -930q-35 -256 -189 -410.5t-401 -154.5zM870 1503l142 203h157l-143 -203h-156z" />
    <glyph glyph-name="uni013B.loclMAH" horiz-adv-x="1011" 
d="M31 -25l209 1475h290l-165 -1178h616l-43 -297h-907zM369 -328q63 81 75 160l13 100h157l-10 -86q-7 -51 -34.5 -103.5t-63.5 -90.5z" />
    <glyph glyph-name="uni0145.loclMAH" horiz-adv-x="1503" 
d="M31 -25l209 1475h243l570 -901l127 901h293l-207 -1473l-217 -2l-592 934l-133 -934h-293zM530 -328q64 82 76 160l12 100h158l-10 -86q-7 -51 -34.5 -103.5t-63.5 -90.5z" />
    <glyph glyph-name="i.loclTRK" horiz-adv-x="497" 
d="M31 -25l147 1057h289l-148 -1057h-288zM307 1094q-49 0 -78.5 34t-23.5 84q6 49 45.5 84t89.5 35q49 0 78.5 -34.5t23.5 -84.5q-6 -49 -45.5 -83.5t-89.5 -34.5z" />
    <glyph glyph-name="uni006A0301" horiz-adv-x="784" 
d="M215 -430q-214 -4 -307 205l260 94q1 -2 2.5 -7.5t2.5 -7.5t3 -7t4 -7t5 -6t6 -5.5t7.5 -3.5t10 -2.5t12.5 -0.5q76 0 90 96l156 1114h287l-156 -1114q-21 -151 -132 -248t-251 -100zM430 1094l141 202h158l-143 -202h-156z" />
    <glyph glyph-name="uni013C.loclMAH" horiz-adv-x="557" 
d="M31 -25l209 1475h286l-209 -1475h-286zM57 -328q64 82 76 160l12 100h158l-10 -86q-7 -51 -34.5 -103.5t-63.5 -90.5z" />
    <glyph glyph-name="uni0146.loclMAH" horiz-adv-x="1019" 
d="M31 -25l147 1057h287l-10 -80q119 80 217 80q91 0 158.5 -34.5t103 -93t50 -136t-0.5 -162.5l-88 -631h-287l88 629q9 73 -26.5 106t-77.5 31q-113 -7 -186 -133l-89 -633h-286zM344 -328q64 82 76 160l12 100h158l-10 -86q-7 -51 -34.5 -103.5t-64.5 -90.5z" />
    <glyph glyph-name="uni030C.alt" horiz-adv-x="0" 
d="M0 1094l141 202h158l-143 -202h-156z" />
    <glyph glyph-name="uni0326.loclMAH" horiz-adv-x="0" 
 />
    </font>
</defs>
</svg>
