<?xml version="1.0" standalone="no"?>
<!DOCTYPE svg PUBLIC "-//W3C//DTD SVG 1.1//EN" "http://www.w3.org/Graphics/SVG/1.1/DTD/svg11.dtd" >
<svg xmlns="http://www.w3.org/2000/svg" xmlns:xlink="http://www.w3.org/1999/xlink" version="1.1">
<metadata>
Created by FontForge 20201107 at Tue Feb 11 16:23:35 2025
 By 
Copyright (c) 2024 by Webhance. All rights reserved.
</metadata>
<defs>
<font id="Remark-Medium" horiz-adv-x="950" >
  <font-face 
    font-family="Remark Medium"
    font-weight="500"
    font-stretch="normal"
    units-per-em="2048"
    panose-1="0 0 0 0 0 0 0 0 0 0"
    ascent="1638"
    descent="-410"
    x-height="1032"
    cap-height="1450"
    bbox="-205 -637 2238 1731"
    underline-thickness="102"
    underline-position="-255"
    unicode-range="U+0020-A78C"
  />
<missing-glyph horiz-adv-x="1017" 
 />
    <glyph glyph-name=".notdef" horiz-adv-x="1017" 
 />
    <glyph glyph-name=".null" horiz-adv-x="0" 
 />
    <glyph glyph-name="nonmarkingreturn" horiz-adv-x="682" 
 />
    <glyph glyph-name="space" unicode=" " horiz-adv-x="665" 
 />
    <glyph glyph-name="space" unicode="&#xa0;" horiz-adv-x="665" 
 />
    <glyph glyph-name="exclam" unicode="!" horiz-adv-x="329" 
d="M84 397l-12 908h170l-17 -908h-141zM57 88q0 107 107 107q110 0 110 -107q0 -102 -110 -102q-107 0 -107 102z" />
    <glyph glyph-name="quotedbl" unicode="&#x22;" horiz-adv-x="419" 
d="M297 989v445h117v-117l-27 -328h-90zM115 989v445h116v-117l-26 -328h-90z" />
    <glyph glyph-name="numbersign" unicode="#" horiz-adv-x="1015" 
d="M629 -43h-170l108 623h-159l-109 -623h-170l109 623h-172l20 118h172l16 90h-174l23 119h172l94 541h170l-94 -541h160l94 541h170l-94 -541h159l-20 -119h-160l-16 -90h160l-21 -118h-160zM428 698h160l16 90h-160z" />
    <glyph glyph-name="dollar" unicode="$" horiz-adv-x="1196" 
d="M694 -195h-170v170q-142 15 -246 73t-163 163.5t-60 249.5l168 -2q0 -122 78 -207t223 -105v515l-114 10q-180 18 -268.5 111t-88.5 247q0 82 30 159t86.5 141.5t148.5 107.5t206 51v139h170v-145q89 -13 161.5 -46t128.5 -87.5t88 -137t34 -186.5h-172q-6 111 -64.5 185
t-175.5 98v-484l66 -6q193 -18 285 -121.5t92 -257.5q0 -78 -26 -153t-77.5 -141t-139 -112t-200.5 -59v-170zM223 1042q0 -94 59 -139t183 -57l59 -6v477q-135 -15 -218 -94t-83 -181zM694 152q131 22 199 100.5t68 177.5q0 189 -248 215l-19 2v-495z" />
    <glyph glyph-name="percent" unicode="%" horiz-adv-x="1331" 
d="M311 10h-190l919 1413h191zM63 1137q0 133 87.5 219t220.5 86q132 0 220.5 -86.5t88.5 -218.5q0 -129 -87 -218.5t-222 -89.5q-131 0 -219.5 90.5t-88.5 217.5zM223 1139q0 -74 39 -115t107 -41q72 0 111.5 40.5t39.5 115.5q0 71 -40.5 110t-110.5 39q-68 0 -107 -39
t-39 -110zM649 262q0 134 90 220.5t217 86.5q134 0 223 -87t89 -220q0 -132 -89 -219.5t-223 -87.5q-128 0 -217.5 88.5t-89.5 218.5zM809 264q0 -74 39.5 -114.5t107.5 -40.5q71 0 111.5 40.5t40.5 114.5q0 70 -41.5 111t-110.5 41q-68 0 -107.5 -40.5t-39.5 -111.5z" />
    <glyph glyph-name="ampersand" unicode="&#x26;" horiz-adv-x="1355" 
d="M514 -6q-201 0 -326 105t-131 270q-2 74 15 134t55 110t80 87t106 82l31 23q-93 102 -134.5 176t-47.5 158q-14 139 73.5 227t241.5 88q145 0 243 -86.5t91 -226.5q-5 -100 -54.5 -181.5t-174.5 -177.5l321 -340q56 149 47 334h164q3 -146 -16 -256t-62 -213
q113 -117 264 -219l-75 -113q-155 104 -279 228q-71 -100 -185 -154.5t-247 -54.5zM514 150q102 0 183 44.5t132 129.5l-374 385l-29 -23q-121 -89 -168.5 -156.5t-40.5 -160.5q9 -103 86.5 -161t210.5 -58zM471 895q94 67 134.5 122t45.5 120q4 68 -47 110.5t-125 44.5
q-73 0 -118 -43t-39 -112q4 -63 34.5 -109t114.5 -133z" />
    <glyph glyph-name="quotesingle" unicode="'" horiz-adv-x="231" 
d="M57 997v445h117v-117l-27 -328h-90z" />
    <glyph glyph-name="parenleft" unicode="(" horiz-adv-x="665" 
d="M537 -324q-122 75 -216 184t-150.5 235t-85 260.5t-28.5 273.5q0 111 26.5 229t81.5 241t153 236t227 191l61 -92q-117 -59 -208.5 -198.5t-136 -299t-44.5 -307.5q0 -186 49 -363t139.5 -312t204.5 -194z" />
    <glyph glyph-name="parenright" unicode=")" horiz-adv-x="665" 
d="M55 -240q173 90 283.5 337.5t110.5 531.5q0 109 -27 230t-75 233.5t-123.5 205t-164.5 136.5l62 92q129 -78 227 -191t152.5 -236t81 -241t26.5 -229q0 -139 -28 -273.5t-84.5 -260.5t-150.5 -235t-216 -184z" />
    <glyph glyph-name="asterisk" unicode="*" horiz-adv-x="1003" 
d="M795 1419l86 -86l-222 -221h289v-121h-270l203 -203l-86 -86l-232 232v-328h-121v289l-192 -193l-84 86l201 203h-310v121h328l-219 221l84 86l192 -192v270h121v-309z" />
    <glyph glyph-name="plus" unicode="+" horiz-adv-x="1003" 
d="M442 948h121v-385h385v-121h-385v-385h-121v385h-385v121h385v385z" />
    <glyph glyph-name="comma" unicode="," horiz-adv-x="335" 
d="M57 -186q80 121 80 235v146h144v-125q0 -74 -30 -152t-77 -135z" />
    <glyph glyph-name="hyphen" unicode="-" horiz-adv-x="735" 
d="M57 442v158h623v-158h-623z" />
    <glyph glyph-name="period" unicode="." horiz-adv-x="344" 
d="M57 109q0 54 36.5 84.5t79.5 30.5t79.5 -30.5t36.5 -84.5q0 -41 -24 -69.5t-58 -35t-68 0t-58 35t-24 69.5z" />
    <glyph glyph-name="slash" unicode="/" horiz-adv-x="958" 
d="M225 -317h-168l676 1847h168z" />
    <glyph glyph-name="zero" unicode="0" horiz-adv-x="1103" 
d="M551 -25q-241 0 -368.5 191t-125.5 547q0 362 126 551.5t368 189.5q243 0 369.5 -189.5t126.5 -547.5q0 -359 -127 -550.5t-369 -191.5zM225 717q0 -304 78.5 -440t247.5 -136q170 0 248 135.5t78 440.5q0 306 -77.5 438.5t-248.5 132.5q-169 0 -247 -134t-79 -437z" />
    <glyph glyph-name="one" unicode="1" horiz-adv-x="571" 
d="M348 -25v1252l-291 -189v191l340 225h117v-1479h-166z" />
    <glyph glyph-name="two" unicode="2" horiz-adv-x="1060" 
d="M76 94q297 308 452 502q154 191 202 286t46 173q0 115 -68.5 176t-205.5 61q-129 0 -199.5 -59.5t-73.5 -165.5h-172q14 387 445 387q214 0 329 -98.5t115 -284.5q0 -108 -61.5 -238t-231.5 -337q-124 -151 -327 -363h678v-160h-928v121z" />
    <glyph glyph-name="three" unicode="3" horiz-adv-x="1054" 
d="M528 -25q-230 0 -352 113.5t-119 302.5h168q3 -112 78 -183t225 -71q151 0 227 72.5t76 189.5q0 128 -76.5 187t-244.5 59h-193v162h189q142 0 217.5 66t75.5 194q0 103 -70 164t-205 61q-74 0 -128.5 -21t-84 -55.5t-43.5 -71.5t-16 -77h-170q6 198 120 292.5t322 94.5
q207 0 324.5 -96t118.5 -283q1 -106 -52 -195t-137 -141q106 -46 163 -136.5t56 -211.5q0 -194 -124 -305t-345 -111z" />
    <glyph glyph-name="four" unicode="4" horiz-adv-x="1142" 
d="M705 -25v353h-648v133l680 993h131v-965h217v-161h-217v-353h-163zM705 489v637l-437 -637h437z" />
    <glyph glyph-name="five" unicode="5" horiz-adv-x="1024" 
d="M494 -25q-153 0 -259 61t-159 161l149 84q35 -63 103.5 -102.5t167.5 -39.5q145 0 224 81.5t79 207.5q3 140 -79 222.5t-214 82.5q-191 0 -293 -158l-156 17l76 862h758v-160h-615l-43 -493q107 96 281 96q214 0 334.5 -124.5t118.5 -336.5q0 -212 -127 -336.5
t-346 -124.5z" />
    <glyph glyph-name="six" unicode="6" horiz-adv-x="1099" 
d="M580 -25q-252 0 -387.5 179.5t-135.5 504.5q0 304 78 482q69 154 192.5 233.5t290.5 79.5q119 0 234 -62t186 -163l-110 -88q-140 146 -312 149q-243 0 -340 -229q-28 -67 -40 -170.5t-3 -214.5q35 104 128.5 162.5t218.5 58.5q207 0 334.5 -127.5t127.5 -331.5
q0 -203 -129 -333t-333 -130zM270 436q0 -138 85 -217.5t216 -79.5t216 79.5t85 217.5q0 137 -87 216t-214 79q-126 0 -213.5 -79t-87.5 -216z" />
    <glyph glyph-name="seven" unicode="7" horiz-adv-x="1050" 
d="M252 -25l543 1319h-729l-9 160h930l6 -108l-561 -1371h-180z" />
    <glyph glyph-name="eight" unicode="8" horiz-adv-x="1122" 
d="M561 -25q-241 0 -372.5 109.5t-131.5 304.5q0 124 58.5 213t163.5 129q-92 46 -141.5 131.5t-49.5 190.5q0 188 127 294.5t346 106.5q221 0 348 -106.5t127 -294.5q0 -104 -51 -189t-139 -131q102 -43 160.5 -133.5t58.5 -210.5q0 -195 -131 -304.5t-373 -109.5zM561 125
q342 0 342 266t-342 266t-342 -266t342 -266zM561 797q142 0 224.5 66.5t82.5 187.5t-79 184t-228 65q-143 3 -225 -62.5t-82 -186.5t82 -187.5t225 -66.5z" />
    <glyph glyph-name="nine" unicode="9" horiz-adv-x="1099" 
d="M522 1454q250 0 385 -179.5t135 -504.5q0 -310 -75 -481q-69 -153 -193.5 -233.5t-292.5 -80.5q-119 0 -233.5 62.5t-184.5 163.5l111 88q141 -147 309 -150q113 0 202 55.5t138 174.5q30 67 41.5 170.5t1.5 214.5q-33 -104 -126.5 -163t-217.5 -59q-207 0 -336 127.5
t-129 331.5q0 203 130 333t335 130zM829 993q0 139 -84.5 218t-216.5 79q-129 0 -215 -79.5t-86 -217.5q0 -137 87.5 -216t213.5 -79t213.5 79t87.5 216z" />
    <glyph glyph-name="colon" unicode=":" horiz-adv-x="344" 
d="M92 109q0 54 36 84.5t80 30.5t80 -30.5t36 -84.5q0 -51 -36 -80.5t-80 -29.5t-80 29.5t-36 80.5zM92 772q0 54 36 84.5t80 30.5t80 -30.5t36 -84.5q0 -51 -36 -80.5t-80 -29.5t-80 29.5t-36 80.5z" />
    <glyph glyph-name="semicolon" unicode=";" horiz-adv-x="344" 
d="M57 768q0 54 36.5 84.5t79.5 30.5t79.5 -30.5t36.5 -84.5q0 -41 -24 -69.5t-58 -35t-68 0t-58 35t-24 69.5zM59 -186q80 121 80 235v146h144v-125q0 -74 -30 -152t-77 -135z" />
    <glyph glyph-name="less" unicode="&#x3c;" horiz-adv-x="884" 
d="M51 639v96l776 391v-127l-639 -307v-8l639 -307v-127z" />
    <glyph glyph-name="equal" unicode="=" horiz-adv-x="854" 
d="M799 709h-742v145h742v-145zM799 453h-742v145h742v-145z" />
    <glyph glyph-name="greater" unicode="&#x3e;" horiz-adv-x="890" 
d="M834 639l-777 -389v127l639 307v8l-639 307v127l777 -391v-96z" />
    <glyph glyph-name="question" unicode="?" horiz-adv-x="937" 
d="M539 463v-113h-142v113q0 83 37 149t127 140q99 82 139.5 149.5t40.5 167.5q0 85 -22 142.5t-62.5 86t-84.5 39.5t-101 11q-137 0 -205.5 -71t-68.5 -165h-140q0 170 113 272.5t299 102.5q64 0 122.5 -13.5t113 -45t94 -78.5t63 -119t23.5 -162q0 -95 -30 -169
t-75.5 -124t-128.5 -117q-66 -54 -89 -97.5t-23 -98.5zM369 104q0 43 24 72t57.5 36t67.5 0t58 -36t24 -72q0 -50 -36 -78.5t-79.5 -28.5t-79.5 28.5t-36 78.5z" />
    <glyph glyph-name="at" unicode="@" horiz-adv-x="1357" 
d="M471 485q-6 -87 40.5 -138.5t125.5 -51.5q86 0 136.5 51.5t55.5 142.5q6 91 -37.5 142t-129.5 51q-79 0 -133 -54t-58 -143zM59 487q11 178 104.5 324t244 228.5t325.5 82.5q271 0 427.5 -175.5t139.5 -457.5q-11 -180 -112 -291q-79 -86 -168 -86q-92 0 -139 93
q-22 44 -31 104q-26 -48 -87.5 -80t-127.5 -32q-122 0 -196 82.5t-68 207.5q7 127 92 210t207 83q73 0 122.5 -32t67.5 -86q0 49 14 126l101 -10q-67 -412 2 -524q36 -58 95 -14.5t94 146.5q19 57 22 114q15 237 -109.5 376.5t-349.5 139.5q-235 0 -387 -149.5t-166 -385.5
q-12 -154 49 -270q60 -121 169.5 -185.5t252.5 -64.5q175 0 291 90l63 -74q-149 -120 -356 -120q-130 0 -242 47t-190 129.5t-119.5 200.5t-34.5 253z" />
    <glyph glyph-name="A" unicode="A" horiz-adv-x="1466" 
d="M57 -25l623 1475h106l623 -1475h-186l-140 334h-698l-141 -334h-187zM455 467h561l-281 670z" />
    <glyph glyph-name="B" unicode="B" horiz-adv-x="1181" 
d="M57 -25v1475h629q175 0 280 -96t105 -262q0 -241 -170 -332v-2q223 -106 223 -379q0 -202 -115 -302t-311 -100zM684 150q131 0 200 62t70 187q0 83 -39.5 141t-96 82.5t-122.5 24.5h-469v-497h457zM684 819q103 0 159 63t56 169t-67 166.5t-193 60.5h-412v-459h457z" />
    <glyph glyph-name="C" unicode="C" horiz-adv-x="1429" 
d="M719 -47q-136 0 -257 54t-211 151t-142 241t-52 314q0 171 52 315t142 240.5t210.5 150.5t257.5 54q252 0 429 -166t222 -437h-172q-36 201 -165.5 314.5t-313.5 113.5q-98 0 -185.5 -39t-156 -111t-108.5 -184.5t-40 -250.5q0 -132 38 -242.5t103.5 -185t155.5 -115.5
t193 -41q195 0 323.5 123t159.5 332h170q-39 -293 -219.5 -462t-433.5 -169z" />
    <glyph glyph-name="D" unicode="D" horiz-adv-x="1310" 
d="M57 -25v1475h533q141 0 263.5 -54t210.5 -149.5t138.5 -234t50.5 -299.5q0 -334 -176.5 -536t-484.5 -202h-535zM592 152q243 0 366 146t123 415q0 259 -135.5 411t-355.5 152h-361v-1124h363z" />
    <glyph glyph-name="E" unicode="E" horiz-adv-x="1083" 
d="M57 -23v1473h959v-174h-787v-451h729v-176h-729v-497h793v-175h-965z" />
    <glyph glyph-name="F" unicode="F" horiz-adv-x="1052" 
d="M57 -25v1475h938v-174h-766v-500h691v-174h-691v-627h-172z" />
    <glyph glyph-name="G" unicode="G" horiz-adv-x="1431" 
d="M721 -45q-137 0 -258 54t-211 150.5t-142.5 240.5t-52.5 315t52.5 315t142.5 240.5t211 150.5t258 54q253 0 429 -164t222 -439h-172q-36 203 -165.5 315.5t-313.5 112.5q-98 0 -186 -39t-156.5 -111t-109 -184.5t-40.5 -250.5q0 -137 40 -249.5t108 -184.5t156.5 -111
t187.5 -39q178 0 302 103t165 282v21h-570v174h756v-736h-176v279q-65 -139 -196 -219t-281 -80z" />
    <glyph glyph-name="H" unicode="H" horiz-adv-x="1323" 
d="M57 -25v1475h172v-692h867v692h170v-1475h-170v609h-867v-609h-172z" />
    <glyph glyph-name="I" unicode="I" horiz-adv-x="286" 
d="M57 -25v1475h172v-1475h-172z" />
    <glyph glyph-name="J" unicode="J" horiz-adv-x="1044" 
d="M498 -45q-106 0 -192 33t-139 88.5t-81.5 125t-28.5 146.5v72h172v-62q0 -104 67.5 -165.5t201.5 -61.5q168 0 242.5 91.5t74.5 279.5v948h172v-948q0 -254 -125 -400.5t-364 -146.5z" />
    <glyph glyph-name="K" unicode="K" horiz-adv-x="1284" 
d="M57 -25v1475h172v-772l738 772h237l-639 -670l662 -805h-223l-560 678l-215 -223v-455h-172z" />
    <glyph glyph-name="L" unicode="L" horiz-adv-x="964" 
d="M57 -25v1475h170v-1298h680v-177h-850z" />
    <glyph glyph-name="M" unicode="M" horiz-adv-x="1488" 
d="M57 -25v1475h156l532 -934l531 934h156v-1475h-172v1108l-453 -815h-125l-453 815v-1108h-172z" />
    <glyph glyph-name="N" unicode="N" horiz-adv-x="1323" 
d="M57 -25v1475h156l883 -1141v1141h170v-1473l-125 -2l-912 1176v-1176h-172z" />
    <glyph glyph-name="O" unicode="O" horiz-adv-x="1439" 
d="M719 -45q-137 0 -257.5 54t-210.5 150.5t-142 240.5t-52 315t52 315t142 240.5t210.5 150.5t257.5 54t257.5 -54t210.5 -150.5t142.5 -240.5t52.5 -315t-52 -314.5t-141.5 -240.5t-210.5 -151t-259 -54zM719 131q216 0 354.5 154.5t138.5 429.5q0 139 -37.5 251
t-104.5 184.5t-156.5 111t-194.5 38.5q-104 0 -193 -38.5t-155.5 -111t-104 -184.5t-37.5 -251q0 -274 138 -429t352 -155z" />
    <glyph glyph-name="P" unicode="P" horiz-adv-x="1140" 
d="M57 -25v1475h523q219 0 361 -144.5t142 -385.5q0 -243 -142.5 -386t-360.5 -143h-351v-416h-172zM580 565q156 0 243.5 92t87.5 263q0 172 -87 264t-244 92h-351v-711h351z" />
    <glyph glyph-name="Q" unicode="Q" horiz-adv-x="1484" 
d="M1049 49q-145 -94 -330 -94q-137 0 -257.5 54t-210.5 150.5t-142 240.5t-52 315t52 315t142 240.5t210.5 150.5t257.5 54t257.5 -54t210.5 -150.5t142.5 -240.5t52.5 -315t-51.5 -312.5t-144.5 -240.5l229 -344h-211zM719 131q216 0 354.5 154.5t138.5 429.5
q0 139 -37.5 251t-104.5 184.5t-156.5 111t-194.5 38.5q-104 0 -193 -38.5t-155.5 -111t-104 -184.5t-37.5 -251q0 -274 138 -429t352 -155z" />
    <glyph glyph-name="R" unicode="R" horiz-adv-x="1226" 
d="M57 -25v1475h547q230 0 365 -131t133 -350q-2 -162 -84.5 -277t-245.5 -149l397 -568l-217 2l-368 525h-355v-527h-172zM596 678q180 0 256 70.5t76 220.5q0 149 -84.5 228t-241.5 79h-373v-598h367z" />
    <glyph glyph-name="S" unicode="S" horiz-adv-x="1198" 
d="M616 -45q-254 0 -405 126t-152 363l168 -2q0 -139 99 -227t280 -88q91 0 162.5 25t113 67t62.5 91.5t21 103.5q0 189 -248 215l-303 26q-180 18 -268.5 111.5t-88.5 247.5q0 86 33.5 167t97 147.5t166.5 106.5t230 40q110 0 202 -27t165 -81.5t115 -145.5t44 -211h-172
q-8 136 -93 214.5t-261 78.5q-158 0 -257.5 -82.5t-99.5 -194.5q0 -94 59 -139.5t183 -57.5l295 -26q193 -18 285 -121.5t92 -257.5q0 -67 -18.5 -132t-59.5 -126.5t-100.5 -108t-149 -74.5t-197.5 -28z" />
    <glyph glyph-name="T" unicode="T" horiz-adv-x="1308" 
d="M569 -25v1301h-512v174h1194v-174h-512v-1301h-170z" />
    <glyph glyph-name="U" unicode="U" horiz-adv-x="1304" 
d="M653 -35q-274 0 -435 184.5t-161 528.5v772h172v-772q0 -279 108.5 -408t315.5 -129q210 0 316 128.5t106 408.5v772h172v-772q0 -346 -159.5 -529.5t-434.5 -183.5z" />
    <glyph glyph-name="V" unicode="V" horiz-adv-x="1419" 
d="M662 -25l-605 1475h185l469 -1151l467 1151h184l-604 -1475h-96z" />
    <glyph glyph-name="W" unicode="W" horiz-adv-x="2164" 
d="M608 -25l-551 1475h185l411 -1116l369 1116h121l368 -1116l412 1116h184l-551 -1475h-98l-375 1135l-376 -1135h-99z" />
    <glyph glyph-name="X" unicode="X" horiz-adv-x="1380" 
d="M57 -23l527 750l-484 723h213l379 -557l377 557h213l-485 -727l526 -746h-213l-422 605l-418 -605h-213z" />
    <glyph glyph-name="Y" unicode="Y" horiz-adv-x="1329" 
d="M580 -25v635l-523 840h207l402 -655l401 655h205l-522 -840v-635h-170z" />
    <glyph glyph-name="Z" unicode="Z" horiz-adv-x="1191" 
d="M57 -25v136l836 1165h-836v174h1078v-135l-834 -1163h834v-177h-1078z" />
    <glyph glyph-name="bracketleft" unicode="[" horiz-adv-x="485" 
d="M57 -322v1887h373v-101h-211v-1685h211v-101h-373z" />
    <glyph glyph-name="backslash" unicode="\" horiz-adv-x="958" 
d="M733 -317l-676 1847h168l676 -1847h-168z" />
    <glyph glyph-name="bracketright" unicode="]" horiz-adv-x="485" 
d="M428 -322h-373v101h211v1685h-211v101h373v-1887z" />
    <glyph glyph-name="asciicircum" unicode="^" horiz-adv-x="806" 
d="M750 942h-150l-197 209l-198 -209h-148l297 311h92z" />
    <glyph glyph-name="underscore" unicode="_" horiz-adv-x="835" 
d="M57 143v-143h723v143h-723z" />
    <glyph glyph-name="grave" unicode="`" horiz-adv-x="253" 
d="M254 1104h-111l-143 203h113z" />
    <glyph glyph-name="a" unicode="a" horiz-adv-x="960" 
d="M395 -25q-156 0 -247 88t-91 216q0 129 88.5 211.5t253.5 82.5h336v39q-2 118 -62 189t-194 71q-113 0 -168.5 -53.5t-58.5 -134.5h-166q0 180 115 270q104 78 274 78q191 0 297 -92q131 -114 131 -360v-605h-168v162q-48 -58 -114 -96t-121.5 -52t-104.5 -14zM412 125
q97 0 179 53.5t140 157.5v88h-317q-98 0 -142.5 -42.5t-44.5 -102.5q0 -67 51 -110.5t134 -43.5z" />
    <glyph glyph-name="b" unicode="b" horiz-adv-x="993" 
d="M57 1450h168v-594q52 80 128 126t165 46q179 0 298.5 -142.5t119.5 -387.5q0 -228 -115 -376.5t-301 -148.5q-76 0 -155 43.5t-140 108.5v-148h-168v1473zM225 377q38 -103 112.5 -168.5t176.5 -65.5q112 0 183 97t71 260q0 164 -75.5 260t-188.5 96q-94 0 -158.5 -54
t-120.5 -163v-262z" />
    <glyph glyph-name="c" unicode="c" horiz-adv-x="1032" 
d="M520 -25q-91 0 -174.5 36t-148 102t-102.5 167.5t-38 223.5q0 123 38 224.5t102.5 167t147.5 101t175 35.5q171 0 299.5 -116t155.5 -316h-170q-22 130 -101 195t-184 65q-129 0 -212 -91.5t-83 -264.5q0 -172 83.5 -264.5t211.5 -92.5q81 0 149 40.5t107 125.5h174
q-24 -86 -71.5 -152.5t-107 -106t-123 -59.5t-128.5 -20z" />
    <glyph glyph-name="d" unicode="d" horiz-adv-x="993" 
d="M473 -29q-186 0 -301 149t-115 378q0 245 120.5 387.5t299.5 142.5q89 0 164.5 -46.5t126.5 -127.5v596h168v-1475h-168v150q-62 -65 -140.5 -109.5t-154.5 -44.5zM479 143q102 0 177.5 65.5t111.5 168.5v262q-57 109 -120 163t-156 54q-113 0 -189 -96.5t-76 -261.5
q0 -163 70.5 -259t181.5 -96z" />
    <glyph glyph-name="e" unicode="e" horiz-adv-x="1028" 
d="M537 -25q-206 0 -343 150t-137 379q0 140 55 259t162.5 194t247.5 75q205 0 329.5 -144.5t119.5 -359.5v-94h-740q12 -133 99 -210t207 -77q150 2 243 129l156 -53q-54 -105 -162.5 -176.5t-236.5 -71.5zM801 569q-5 130 -80.5 210.5t-198.5 80.5q-113 0 -197.5 -79
t-99.5 -212h576z" />
    <glyph glyph-name="f" unicode="f" horiz-adv-x="759" 
d="M193 -25v906h-136v151h136v195q0 198 79 309t240 111q111 0 190 -58l-73 -149q-54 38 -117 35q-150 -6 -150 -248v-195h306v-151h-306v-906h-169z" />
    <glyph glyph-name="g" unicode="g" horiz-adv-x="1013" 
d="M487 -637q-189 0 -307.5 108.5t-118.5 264.5q0 88 31.5 152t91.5 122q-46 26 -77 76t-31 109q0 115 78 178q-84 113 -84 258q0 173 110 287t279 114t276 -110h2q68 110 219 110v-151q-22 0 -44.5 -5.5t-52 -27t-44.5 -57.5q33 -74 33 -160q0 -174 -109 -289t-280 -115
q-92 0 -180 56q-19 -19 -37 -82q-7 -50 30 -77.5t105 -27.5h198q168 0 263.5 -95t95.5 -249q0 -72 -28 -140t-80.5 -124t-139 -90.5t-192.5 -34.5h-7zM530 -467q106 0 171 63t65 152q0 76 -45.5 127t-138.5 51h-222h-28q-43 -28 -73 -78t-30 -112q0 -86 64 -144.5t158 -58.5
h79zM459 399q100 0 160.5 66.5t60.5 165.5q0 98 -60.5 164.5t-160.5 66.5q-101 0 -161 -66t-60 -165q0 -100 60 -166t161 -66z" />
    <glyph glyph-name="h" unicode="h" 
d="M57 -25v1467h168v-584q63 74 144 124t163 50q115 0 198.5 -56t123 -147t39.5 -206v-648h-168v648q0 111 -61 175t-150 62q-95 -1 -171.5 -68t-117.5 -174v-643h-168z" />
    <glyph glyph-name="i" unicode="i" horiz-adv-x="307" 
d="M70 -25v1057h170v-1057h-170zM154 1262q-40 0 -68.5 28t-28.5 68q0 37 28.5 64.5t68.5 27.5q37 0 64.5 -27.5t27.5 -64.5q0 -39 -27.5 -67.5t-64.5 -28.5z" />
    <glyph glyph-name="j" unicode="j" horiz-adv-x="454" 
d="M76 -430q-80 -2 -153.5 35.5t-127.5 118.5l142 67q47 -67 124 -67q68 2 110 47t42 118v1143h168v-1143q0 -143 -89.5 -229.5t-215.5 -89.5zM299 1253q-39 0 -67.5 28.5t-28.5 66.5t28 66t68 28q37 0 64.5 -28t27.5 -66t-27.5 -66.5t-64.5 -28.5z" />
    <glyph glyph-name="k" unicode="k" horiz-adv-x="1017" 
d="M57 -25v1475h168v-971l492 553h231l-416 -463l420 -594h-207l-329 463l-191 -211v-252h-168z" />
    <glyph glyph-name="l" unicode="l" horiz-adv-x="282" 
d="M57 -25v1475h168v-1475h-168z" />
    <glyph glyph-name="m" unicode="m" horiz-adv-x="1384" 
d="M57 -25v1057h168v-149q50 62 124.5 104t152.5 45q85 3 142 -36.5t87 -108.5q131 145 289 145q153 0 230 -107t77 -302v-648h-168v674q0 108 -44 161.5t-109 53.5q-155 0 -240 -192v-697h-152v668q0 107 -46.5 161t-112.5 54q-67 0 -127.5 -49.5t-102.5 -144.5v-689h-168z
" />
    <glyph glyph-name="n" unicode="n" 
d="M57 -25v1057h168v-172q62 72 143.5 122t163.5 50q115 0 198.5 -56t123 -147t39.5 -206v-648h-168v648q0 111 -61 175t-150 62q-95 -1 -169.5 -64t-119.5 -167v-654h-168z" />
    <glyph glyph-name="o" unicode="o" horiz-adv-x="1038" 
d="M520 -25q-91 0 -174.5 36t-148 102t-102.5 167.5t-38 223.5q0 123 38 224.5t102.5 167t147.5 101t175 35.5t175 -35.5t147 -101t101.5 -167t37.5 -224.5q0 -122 -38 -223.5t-102 -167.5t-147 -102t-174 -36zM520 147q127 0 210 92.5t83 264.5q0 174 -82 265t-211 91
t-212 -91.5t-83 -264.5q0 -172 83.5 -264.5t211.5 -92.5z" />
    <glyph glyph-name="p" unicode="p" horiz-adv-x="993" 
d="M57 -430v1462h168v-153q62 65 140.5 109t154.5 44q124 0 219 -68.5t146 -188t51 -269.5q0 -245 -119.5 -388t-298.5 -143q-89 0 -165 46.5t-128 128.5v-580h-168zM504 147q113 0 188.5 97t75.5 262q0 163 -71 258.5t-183 95.5q-102 0 -176.5 -65t-112.5 -168v-262
q56 -109 121 -163.5t158 -54.5z" />
    <glyph glyph-name="q" unicode="q" horiz-adv-x="993" 
d="M768 150q-51 -81 -126.5 -128t-164.5 -47q-179 0 -299.5 143t-120.5 388q0 150 51 269.5t146 188t219 68.5q76 0 154.5 -44t140.5 -109v153h168v-1462h-168v580zM492 147q93 0 156 54t120 164v262q-36 103 -111.5 168t-177.5 65q-111 0 -181.5 -95.5t-70.5 -258.5
q0 -165 76 -262t189 -97z" />
    <glyph glyph-name="r" unicode="r" horiz-adv-x="860" 
d="M57 -25v1057h168v-155q54 62 132 108.5t155 46.5q140 0 215.5 -93t75.5 -255v-61h-156l-2 65q0 76 -39 124t-114 48q-87 0 -157.5 -64t-109.5 -165v-656h-168z" />
    <glyph glyph-name="s" unicode="s" horiz-adv-x="911" 
d="M461 -25q-111 0 -197.5 36t-141 116t-54.5 195h163q0 -84 58 -134.5t182 -50.5q106 0 160.5 46t54.5 108q0 55 -34.5 88t-121.5 41l-208 24q-265 29 -265 265q0 137 108 230t275 93q173 0 274 -83t101 -249l-162 5q0 77 -52 122t-165 45q-104 0 -157.5 -44t-53.5 -103
q0 -99 158 -117l168 -16q87 -8 148 -33.5t94 -66t47 -87t14 -106.5q2 -135 -103.5 -229.5t-289.5 -94.5z" />
    <glyph glyph-name="t" unicode="t" horiz-adv-x="727" 
d="M195 -25v906h-138v151h138v418h167v-418h308v-151h-308v-906h-167z" />
    <glyph glyph-name="u" unicode="u" 
d="M418 -25q-171 0 -266 117t-95 293v647h168v-645q0 -112 61 -176t150 -64q94 1 169 64.5t120 167.5v653h168v-1057h-168v175q-61 -73 -142.5 -124t-164.5 -51z" />
    <glyph glyph-name="v" unicode="v" horiz-adv-x="1056" 
d="M479 -25l-422 1057h183l288 -731l289 731h182l-426 -1057h-94z" />
    <glyph glyph-name="w" unicode="w" horiz-adv-x="1458" 
d="M408 -25l-351 1057h179l225 -678l219 678h102l219 -678l224 678h176l-348 -1057h-103l-219 682l-221 -682h-102z" />
    <glyph glyph-name="x" unicode="x" horiz-adv-x="1081" 
d="M57 -25l379 541l-368 516h208l267 -373l258 373h207l-361 -518l377 -539h-209l-274 392l-275 -392h-209z" />
    <glyph glyph-name="y" unicode="y" horiz-adv-x="1073" 
d="M336 -383l153 440l-432 975h185l329 -745l265 745h180l-502 -1415h-178z" />
    <glyph glyph-name="z" unicode="z" horiz-adv-x="874" 
d="M57 -25v125l518 760h-509v172h749v-123l-520 -762h522v-172h-760z" />
    <glyph glyph-name="braceleft" unicode="{" horiz-adv-x="718" 
d="M625 -317q-196 70 -274.5 174t-78.5 272v182q0 82 -25.5 137t-68.5 87.5t-121 68.5q78 36 121 68.5t68.5 87t25.5 135.5v195q0 170 82 273t271 159l37 -90q-120 -34 -175 -110.5t-55 -231.5v-195q0 -103 -34.5 -164.5t-118.5 -126.5q86 -61 119.5 -124t33.5 -169v-182
q0 -161 56.5 -241t175.5 -111z" />
    <glyph glyph-name="bar" unicode="|" horiz-adv-x="284" 
d="M227 -291h-170v1823h170v-1823z" />
    <glyph glyph-name="braceright" unicode="}" horiz-adv-x="718" 
d="M55 -223q119 31 175.5 111t56.5 241v182q0 106 33.5 169t119.5 124q-84 65 -118.5 126.5t-34.5 164.5v195q0 155 -55 231.5t-175 110.5l37 90q189 -56 270.5 -159t81.5 -273v-195q0 -61 13 -105.5t42.5 -78t65.5 -57t95 -50.5q-79 -36 -121.5 -68.5t-68.5 -87.5t-26 -137
v-182q0 -168 -78.5 -272t-273.5 -174z" />
    <glyph glyph-name="exclamdown" unicode="&#xa1;" horiz-adv-x="329" 
d="M84 653h141l17 -907h-170zM57 963q0 102 107 102q110 0 110 -102q0 -107 -110 -107q-107 0 -107 107z" />
    <glyph glyph-name="cent" unicode="&#xa2;" horiz-adv-x="1040" 
d="M610 -45h-153v229q-110 16 -199 81t-145 181t-56 263q0 221 115 360t285 164v201h153v-205q142 -29 242 -140t123 -284h-170q-16 100 -68 161.5t-127 86.5v-686q110 32 166 151h174q-37 -138 -131 -221t-209 -107v-235zM225 709q0 -149 64.5 -239.5t167.5 -111.5v701
q-104 -21 -168 -110.5t-64 -239.5z" />
    <glyph glyph-name="sterling" unicode="&#xa3;" horiz-adv-x="1245" 
d="M752 1466q106 0 191.5 -33t139 -88.5t81.5 -125t28 -146.5v-72h-172v62q0 104 -67 165.5t-201 61.5q-168 0 -243 -91.5t-75 -278.5v-392h252v-157h-252v-338h678v-158h-848v96h-2v400h-199v157h199v392q0 254 125.5 400t364.5 146z" />
    <glyph glyph-name="yen" unicode="&#xa5;" horiz-adv-x="1329" 
d="M580 -25v322h-306v145h306v111h-306v145h250l-467 752h207l402 -655l401 655h205l-467 -752h211v-145h-266v-111h266v-145h-266v-322h-170z" />
    <glyph glyph-name="section" unicode="&#xa7;" horiz-adv-x="909" 
d="M637 684q-37 40 -201 92l-24 8q-84 -13 -140.5 -56.5t-56.5 -106.5q0 -80 53 -127q55 -48 191 -84q103 4 163 45t60 102q0 40 -13 74.5t-32 52.5zM57 616q0 81 45 143.5t127 86.5q-120 83 -120 250q0 138 96 226.5t264 88.5q122 0 223.5 -58.5t155.5 -148.5l-119 -86
q-65 73 -128 103t-138 30q-89 0 -141 -39.5t-52 -109.5q0 -21 5 -39.5t11 -32.5t21 -28t24.5 -22.5t33.5 -20t35 -17t42 -15.5t42.5 -13.5t47.5 -14.5q80 -24 136 -50t94 -67q80 -80 80 -213q0 -64 -41.5 -132.5t-120.5 -106.5q111 -83 111 -242q0 -142 -99 -228.5
t-264 -86.5q-120 0 -212.5 47.5t-149.5 128.5l110 100q115 -121 258 -121q91 0 143 42t52 112q0 21 -5 39.5t-11 33t-21 28.5t-25 23t-33.5 20t-35.5 16.5t-42 15.5t-42.5 13.5t-46.5 13.5q-148 37 -220 102q-90 83 -90 229z" />
    <glyph glyph-name="dieresis" unicode="&#xa8;" horiz-adv-x="385" 
d="M94 1114q-38 0 -66 28t-28 66t28 65t66 27t65 -27t27 -65t-27 -66t-65 -28zM293 1114q-38 0 -66 28t-28 66t28 65t66 27t65 -27t27 -65t-27 -66t-65 -28z" />
    <glyph glyph-name="copyright" unicode="&#xa9;" horiz-adv-x="1536" 
d="M770 -20q-152 0 -284 54.5t-226.5 149t-148.5 228.5t-54 288q0 203 88.5 366t251.5 257t371 94t372 -95.5t252.5 -259t88.5 -364.5q0 -203 -90 -367t-252.5 -257.5t-368.5 -93.5zM768 92q179 0 314.5 80t206.5 217.5t71 310.5q0 265 -165.5 436t-426.5 171
q-135 0 -247.5 -47t-187.5 -128.5t-116 -192.5t-41 -239q0 -175 74.5 -313.5t209.5 -216.5t308 -78zM1087 453q-111 -127 -288 -127q-163 0 -273 105.5t-110 260.5q0 157 107.5 262t273.5 105q88 0 164 -34t126 -95l-67 -68q-55 54 -107.5 77.5t-115.5 23.5
q-127 0 -204 -74.5t-77 -196.5q0 -118 78 -195t203 -77q64 0 117 24t108 80z" />
    <glyph glyph-name="ordfeminine" unicode="&#xaa;" horiz-adv-x="520" 
d="M217 911q-78 0 -123 43.5t-45 106.5q0 65 43.5 105t126.5 40h166v21q-4 127 -127 127q-56 0 -83.5 -26.5t-29.5 -65.5h-82q0 88 58 133q52 39 135 39q93 0 147 -48q64 -55 64 -176v-299h-82v80q-35 -41 -82 -60.5t-86 -19.5zM225 985q99 0 158 105v43h-158
q-48 0 -70 -21.5t-22 -50.5q0 -33 25.5 -54.5t66.5 -21.5z" />
    <glyph glyph-name="guillemotleft" unicode="&#xab;" horiz-adv-x="925" 
d="M332 156l-269 362l269 361h184l-270 -361l270 -362h-184zM686 156l-268 362l268 361h184l-270 -361l270 -362h-184z" />
    <glyph glyph-name="registered" unicode="&#xae;" horiz-adv-x="1046" 
d="M524 512q-201 0 -334 132.5t-133 340.5q0 132 58 239t164.5 168.5t240.5 61.5q207 0 339 -134.5t132 -336.5t-131.5 -336.5t-335.5 -134.5zM520 627q161 0 256.5 98.5t95.5 259.5q0 158 -95.5 256t-256.5 98q-157 0 -251.5 -98t-94.5 -256q0 -162 96.5 -260t249.5 -98z
M434 752h-74v467h197q70 0 116 -40.5t46 -105.5q0 -56 -35 -92t-102 -43l168 -186h-99l-157 176h-60v-176zM553 999q90 0 90 74q0 76 -90 76h-119v-150h119z" />
    <glyph glyph-name="macron" unicode="&#xaf;" horiz-adv-x="395" 
d="M0 1257h395v-100h-395v100z" />
    <glyph glyph-name="degree" unicode="&#xb0;" horiz-adv-x="722" 
d="M362 803q-132 0 -218.5 86.5t-86.5 218.5q0 136 88.5 222.5t216.5 86.5q134 0 220 -87t86 -222q0 -128 -86 -216.5t-220 -88.5zM362 932q74 0 122 51.5t48 128.5t-47.5 126.5t-122.5 49.5t-123.5 -49.5t-48.5 -126.5t48.5 -128.5t123.5 -51.5z" />
    <glyph glyph-name="uni00B2" unicode="&#xb2;" horiz-adv-x="509" 
d="M37 961q145 151 217 241q74 92 97.5 138t21.5 83q0 115 -131 115q-62 0 -95.5 -28t-35.5 -80h-84q9 186 215 186q103 0 158 -47.5t55 -136.5q0 -53 -29.5 -116t-110.5 -161q-71 -84 -157 -176h325v-76h-446v58z" />
    <glyph glyph-name="uni00B3" unicode="&#xb3;" horiz-adv-x="514" 
d="M258 901q-112 0 -171.5 55.5t-57.5 147.5h82q2 -55 38 -89t109 -34t110.5 35t37.5 92q0 63 -37.5 92t-120.5 29h-92v78h90q69 0 106 32t37 95q0 51 -33.5 80.5t-99.5 29.5q-68 0 -99.5 -33.5t-33.5 -76.5h-82q3 188 215 188q101 0 158 -47t57 -137q1 -52 -24.5 -95
t-67.5 -69q109 -48 106 -170q0 -94 -60 -148.5t-167 -54.5z" />
    <glyph glyph-name="acute" unicode="&#xb4;" horiz-adv-x="253" 
d="M0 1104l141 203h113l-143 -203h-111z" />
    <glyph glyph-name="periodcentered" unicode="&#xb7;" horiz-adv-x="344" 
d="M57 621q0 54 36.5 84.5t79.5 30.5t79.5 -30.5t36.5 -84.5q0 -41 -24 -69.5t-58 -35t-68 0t-58 35t-24 69.5z" />
    <glyph glyph-name="cedilla" unicode="&#xb8;" horiz-adv-x="325" 
d="M156 -410q-72 -10 -148 23l25 72q58 -34 121 -19q90 14 90 82q0 31 -22 47.5t-62 16.5t-103 -23l-28 29l30 192h76l-22 -137q27 6 49 6q69 0 113 -34.5t44 -96.5q0 -63 -46.5 -106t-116.5 -52z" />
    <glyph glyph-name="uni00B9" unicode="&#xb9;" horiz-adv-x="278" 
d="M170 901v608l-141 -90v92l164 109h57v-719h-80z" />
    <glyph glyph-name="ordmasculine" unicode="&#xba;" horiz-adv-x="559" 
d="M279 911q-94 0 -162 70.5t-68 189.5q0 121 68 192t162 71q95 0 161 -71t66 -192q0 -119 -66.5 -189.5t-160.5 -70.5zM279 997q62 0 102.5 45t40.5 129q0 87 -40 132t-103 45q-64 0 -105 -45t-41 -132q0 -84 41.5 -129t104.5 -45z" />
    <glyph glyph-name="guillemotright" unicode="&#xbb;" horiz-adv-x="917" 
d="M592 156h-184l270 362l-270 361h184l268 -361zM242 156h-185l271 362l-271 361h185l268 -361z" />
    <glyph glyph-name="questiondown" unicode="&#xbf;" horiz-adv-x="937" 
d="M414 678v113h141v-113q0 -83 -37 -149t-127 -140q-99 -82 -139.5 -149.5t-40.5 -167.5q0 -85 22 -142.5t62.5 -86t84.5 -39.5t101 -11q71 0 126 21t86.5 56.5t47 75.5t15.5 83h139q0 -170 -113 -272.5t-299 -102.5q-64 0 -122.5 13.5t-112.5 45t-93.5 78.5t-63 119
t-23.5 162q0 72 14.5 129t48 106t71 86.5t99.5 87.5q66 54 89.5 98.5t23.5 98.5zM586 1036q0 -43 -24 -72t-58 -36t-68 0t-58 36t-24 72q0 50 36 78.5t80 28.5t80 -28.5t36 -78.5z" />
    <glyph glyph-name="Agrave" unicode="&#xc0;" horiz-adv-x="1466" 
d="M57 -25l623 1475h106l623 -1475h-186l-140 334h-698l-141 -334h-187zM455 467h561l-281 670zM860 1513h-110l-144 203h113z" />
    <glyph glyph-name="Aacute" unicode="&#xc1;" horiz-adv-x="1466" 
d="M57 -25l623 1475h106l623 -1475h-186l-140 334h-698l-141 -334h-187zM455 467h561l-281 670zM606 1513l142 203h112l-143 -203h-111z" />
    <glyph glyph-name="Acircumflex" unicode="&#xc2;" horiz-adv-x="1466" 
d="M57 -25l623 1475h106l623 -1475h-186l-140 334h-698l-141 -334h-187zM455 467h561l-281 670zM535 1513l141 203h117l141 -203h-111l-88 127l-90 -127h-110z" />
    <glyph glyph-name="Atilde" unicode="&#xc3;" horiz-adv-x="1466" 
d="M57 -25l623 1475h106l623 -1475h-186l-140 334h-698l-141 -334h-187zM455 467h561l-281 670zM948 1661q-10 -145 -110 -145q-48 0 -101 53q-27 27 -40.5 36t-28.5 9q-33 0 -50 -22t-24 -76h-76q9 80 48 127t102 47q60 0 123 -66q23 -23 30.5 -28t16.5 -5q14 0 21.5 13
t14.5 57h74z" />
    <glyph glyph-name="Adieresis" unicode="&#xc4;" horiz-adv-x="1466" 
d="M57 -25l623 1475h106l623 -1475h-186l-140 334h-698l-141 -334h-187zM455 467h561l-281 670zM635 1524q-38 0 -66 28t-28 66t28 65t66 27t65 -27t27 -65t-27 -66t-65 -28zM834 1524q-38 0 -66.5 28t-28.5 66t28 65t67 27q38 0 65 -27t27 -65t-27 -66t-65 -28z" />
    <glyph glyph-name="Aring" unicode="&#xc5;" horiz-adv-x="1466" 
d="M57 -25l623 1475h106l623 -1475h-186l-140 334h-698l-141 -334h-187zM455 467h561l-281 670zM733 1509q-47 0 -77.5 31t-30.5 76q0 41 31 71.5t77 30.5q45 0 76 -30.5t31 -71.5q0 -45 -31 -76t-76 -31zM733 1571q21 0 32 13t11 32q0 16 -11.5 28.5t-31.5 12.5
t-31.5 -11.5t-11.5 -29.5q0 -20 12 -32.5t31 -12.5z" />
    <glyph glyph-name="AE" unicode="&#xc6;" horiz-adv-x="2299" 
d="M57 -25l1217 1446v29h958v-174h-786v-451h729v-176h-729v-497h792v-175h-829v-2h-186v334h-699l-280 -334h-187zM662 467h561v670z" />
    <glyph glyph-name="Ccedilla" unicode="&#xc7;" horiz-adv-x="1429" 
d="M719 -47l-41 2l-12 -82q27 6 49 6q69 0 113 -34.5t44 -96.5q0 -63 -46.5 -106t-116.5 -52q-72 -10 -148 23l25 72q58 -34 121 -19q90 14 90 82q0 31 -22 47.5t-62 16.5t-103 -23l-28 29l22 145q-116 21 -216 82.5t-173.5 156.5t-115.5 226.5t-42 284.5q0 171 52 315
t142 240.5t210.5 150.5t257.5 54q252 0 429 -166t222 -437h-172q-36 201 -165.5 314.5t-313.5 113.5q-98 0 -185.5 -39t-156 -111t-108.5 -184.5t-40 -250.5q0 -132 38 -242.5t103.5 -185t155.5 -115.5t193 -41q195 0 323.5 123t159.5 332h170q-39 -293 -219.5 -462
t-433.5 -169z" />
    <glyph glyph-name="Egrave" unicode="&#xc8;" horiz-adv-x="1083" 
d="M57 -23v1473h959v-174h-787v-451h729v-176h-729v-497h793v-175h-965zM670 1513h-111l-143 203h112z" />
    <glyph glyph-name="Eacute" unicode="&#xc9;" horiz-adv-x="1083" 
d="M57 -23v1473h959v-174h-787v-451h729v-176h-729v-497h793v-175h-965zM416 1513l141 203h113l-144 -203h-110z" />
    <glyph glyph-name="Ecircumflex" unicode="&#xca;" horiz-adv-x="1083" 
d="M57 -23v1473h959v-174h-787v-451h729v-176h-729v-497h793v-175h-965zM342 1513l141 203h117l141 -203h-110l-88 127l-90 -127h-111z" />
    <glyph glyph-name="Edieresis" unicode="&#xcb;" horiz-adv-x="1083" 
d="M57 -23v1473h959v-174h-787v-451h729v-176h-729v-497h793v-175h-965zM444 1524q-38 0 -66 28t-28 66t28 65t66 27t65.5 -27t27.5 -65t-27.5 -66t-65.5 -28zM643 1524q-38 0 -66 28t-28 66t28 65t66 27t65 -27t27 -65t-27 -66t-65 -28z" />
    <glyph glyph-name="Igrave" unicode="&#xcc;" horiz-adv-x="286" 
d="M57 -25v1475h172v-1475h-172zM270 1513h-110l-144 203h113z" />
    <glyph glyph-name="Iacute" unicode="&#xcd;" horiz-adv-x="286" 
d="M57 -25v1475h172v-1475h-172zM16 1513l142 203h112l-143 -203h-111z" />
    <glyph glyph-name="Icircumflex" unicode="&#xce;" horiz-adv-x="286" 
d="M57 -25v1475h172v-1475h-172zM-55 1513l141 203h117l141 -203h-111l-88 127l-90 -127h-110z" />
    <glyph glyph-name="Idieresis" unicode="&#xcf;" horiz-adv-x="286" 
d="M57 -25v1475h172v-1475h-172zM45 1524q-38 0 -66 28t-28 66t28 65t66 27t65 -27t27 -65t-27 -66t-65 -28zM244 1524q-38 0 -66 28t-28 66t28 65t66 27t65 -27t27 -65t-27 -66t-65 -28z" />
    <glyph glyph-name="Eth" unicode="&#xd0;" horiz-adv-x="1310" 
d="M57 -25v547h-176v158h176v770h533q141 0 263.5 -54t210.5 -149.5t138.5 -234t50.5 -299.5q0 -334 -176.5 -536t-484.5 -202h-535zM592 152q243 0 366 146t123 415q0 259 -135.5 411t-355.5 152h-361v-596h275v-158h-275v-370h363z" />
    <glyph glyph-name="Ntilde" unicode="&#xd1;" horiz-adv-x="1323" 
d="M57 -25v1475h156l883 -1141v1141h170v-1473l-125 -2l-912 1176v-1176h-172zM877 1661q-5 -67 -32 -106t-79 -39q-47 0 -100 53q-45 45 -70 45q-33 0 -50 -22t-24 -76h-76q9 80 48 127t102 47q60 0 123 -66q23 -23 30.5 -28t16.5 -5q14 0 22 13t15 57h74z" />
    <glyph glyph-name="Ograve" unicode="&#xd2;" horiz-adv-x="1439" 
d="M719 -45q-137 0 -257.5 54t-210.5 150.5t-142 240.5t-52 315t52 315t142 240.5t210.5 150.5t257.5 54t257.5 -54t210.5 -150.5t142.5 -240.5t52.5 -315t-52 -314.5t-141.5 -240.5t-210.5 -151t-259 -54zM719 131q216 0 354.5 154.5t138.5 429.5q0 139 -37.5 251
t-104.5 184.5t-156.5 111t-194.5 38.5q-104 0 -193 -38.5t-155.5 -111t-104 -184.5t-37.5 -251q0 -274 138 -429t352 -155zM848 1513h-111l-143 203h113z" />
    <glyph glyph-name="Oacute" unicode="&#xd3;" horiz-adv-x="1439" 
d="M719 -45q-137 0 -257.5 54t-210.5 150.5t-142 240.5t-52 315t52 315t142 240.5t210.5 150.5t257.5 54t257.5 -54t210.5 -150.5t142.5 -240.5t52.5 -315t-52 -314.5t-141.5 -240.5t-210.5 -151t-259 -54zM719 131q216 0 354.5 154.5t138.5 429.5q0 139 -37.5 251
t-104.5 184.5t-156.5 111t-194.5 38.5q-104 0 -193 -38.5t-155.5 -111t-104 -184.5t-37.5 -251q0 -274 138 -429t352 -155zM594 1513l141 203h113l-143 -203h-111z" />
    <glyph glyph-name="Ocircumflex" unicode="&#xd4;" horiz-adv-x="1439" 
d="M719 -45q-137 0 -257.5 54t-210.5 150.5t-142 240.5t-52 315t52 315t142 240.5t210.5 150.5t257.5 54t257.5 -54t210.5 -150.5t142.5 -240.5t52.5 -315t-52 -314.5t-141.5 -240.5t-210.5 -151t-259 -54zM719 131q216 0 354.5 154.5t138.5 429.5q0 139 -37.5 251
t-104.5 184.5t-156.5 111t-194.5 38.5q-104 0 -193 -38.5t-155.5 -111t-104 -184.5t-37.5 -251q0 -274 138 -429t352 -155zM520 1513l142 203h116l142 -203h-111l-88 127l-90 -127h-111z" />
    <glyph glyph-name="Otilde" unicode="&#xd5;" horiz-adv-x="1439" 
d="M719 -45q-137 0 -257.5 54t-210.5 150.5t-142 240.5t-52 315t52 315t142 240.5t210.5 150.5t257.5 54t257.5 -54t210.5 -150.5t142.5 -240.5t52.5 -315t-52 -314.5t-141.5 -240.5t-210.5 -151t-259 -54zM719 131q216 0 354.5 154.5t138.5 429.5q0 139 -37.5 251
t-104.5 184.5t-156.5 111t-194.5 38.5q-104 0 -193 -38.5t-155.5 -111t-104 -184.5t-37.5 -251q0 -274 138 -429t352 -155zM934 1661q-5 -67 -32 -106t-79 -39q-47 0 -100 53q-45 45 -70 45q-32 0 -49 -22t-24 -76h-76q9 80 47.5 127t101.5 47q60 0 123 -66q23 -23 30.5 -28
t16.5 -5q14 0 22 13t15 57h74z" />
    <glyph glyph-name="Odieresis" unicode="&#xd6;" horiz-adv-x="1439" 
d="M719 -45q-137 0 -257.5 54t-210.5 150.5t-142 240.5t-52 315t52 315t142 240.5t210.5 150.5t257.5 54t257.5 -54t210.5 -150.5t142.5 -240.5t52.5 -315t-52 -314.5t-141.5 -240.5t-210.5 -151t-259 -54zM719 131q216 0 354.5 154.5t138.5 429.5q0 139 -37.5 251
t-104.5 184.5t-156.5 111t-194.5 38.5q-104 0 -193 -38.5t-155.5 -111t-104 -184.5t-37.5 -251q0 -274 138 -429t352 -155zM623 1524q-38 0 -66.5 28t-28.5 66t28 65t67 27q38 0 65 -27t27 -65t-27 -66t-65 -28zM821 1524q-38 0 -66 28t-28 66t28 65t66 27t65 -27t27 -65
t-27 -66t-65 -28z" />
    <glyph glyph-name="multiply" unicode="&#xd7;" horiz-adv-x="827" 
d="M688 870l84 -86l-272 -272l272 -272l-84 -86l-272 272l-273 -272l-86 86l273 272l-273 272l86 86l273 -272z" />
    <glyph glyph-name="Oslash" unicode="&#xd8;" horiz-adv-x="1439" 
d="M500 -240h-168l96 265q-170 88 -270.5 267.5t-100.5 422.5q0 171 52 315t142 240.5t210.5 150.5t257.5 54q119 0 225 -41l64 174h168l-91 -248q138 -99 217.5 -264.5t79.5 -380.5q0 -171 -52 -314.5t-141.5 -240.5t-210.5 -151t-259 -54q-69 0 -141 16zM719 131
q216 0 354.5 154.5t138.5 429.5q0 162 -49 283.5t-139 195.5l-387 -1057q41 -6 82 -6zM229 715q0 -192 69 -327t189 -200l398 1086q-74 26 -166 26q-104 0 -193 -38.5t-155.5 -111t-104 -184.5t-37.5 -251z" />
    <glyph glyph-name="Ugrave" unicode="&#xd9;" horiz-adv-x="1304" 
d="M653 -35q-274 0 -435 184.5t-161 528.5v772h172v-772q0 -279 108.5 -408t315.5 -129q210 0 316 128.5t106 408.5v772h172v-772q0 -346 -159.5 -529.5t-434.5 -183.5zM780 1513h-110l-144 203h113z" />
    <glyph glyph-name="Uacute" unicode="&#xda;" horiz-adv-x="1304" 
d="M653 -35q-274 0 -435 184.5t-161 528.5v772h172v-772q0 -279 108.5 -408t315.5 -129q210 0 316 128.5t106 408.5v772h172v-772q0 -346 -159.5 -529.5t-434.5 -183.5zM526 1513l142 203h112l-143 -203h-111z" />
    <glyph glyph-name="Ucircumflex" unicode="&#xdb;" horiz-adv-x="1304" 
d="M653 -35q-274 0 -435 184.5t-161 528.5v772h172v-772q0 -279 108.5 -408t315.5 -129q210 0 316 128.5t106 408.5v772h172v-772q0 -346 -159.5 -529.5t-434.5 -183.5zM453 1513l141 203h117l141 -203h-111l-88 127l-90 -127h-110z" />
    <glyph glyph-name="Udieresis" unicode="&#xdc;" horiz-adv-x="1304" 
d="M653 -35q-274 0 -435 184.5t-161 528.5v772h172v-772q0 -279 108.5 -408t315.5 -129q210 0 316 128.5t106 408.5v772h172v-772q0 -346 -159.5 -529.5t-434.5 -183.5zM555 1524q-38 0 -66 28t-28 66t28 65t66 27t65 -27t27 -65t-27 -66t-65 -28zM754 1524q-38 0 -66.5 28
t-28.5 66t28 65t67 27q38 0 65 -27t27 -65t-27 -66t-65 -28z" />
    <glyph glyph-name="Yacute" unicode="&#xdd;" horiz-adv-x="1329" 
d="M580 -25v635l-523 840h207l402 -655l401 655h205l-522 -840v-635h-170zM539 1513l141 203h113l-144 -203h-110z" />
    <glyph glyph-name="Thorn" unicode="&#xde;" horiz-adv-x="1140" 
d="M57 1450h168v-188h355q218 0 360.5 -125.5t142.5 -335.5q0 -141 -67 -247t-180.5 -160t-255.5 -54h-351v-360h-4v-5h-168v1475zM580 492q156 0 243.5 79.5t87.5 229.5q0 149 -87 229t-244 80h-351v-618h351z" />
    <glyph glyph-name="germandbls" unicode="&#xdf;" horiz-adv-x="1073" 
d="M504 1436q204 0 324 -104t120 -281q0 -203 -157 -295q108 -50 166.5 -140.5t58.5 -209.5q0 -190 -138 -308t-368 -118h-121v174h131q145 0 232.5 67t87.5 185q0 117 -83 185t-212 68h-68v168h58q237 0 237 220q0 105 -75 161t-193 56h-2q-122 0 -197.5 -56t-75.5 -161
v-1067h-172v1071q0 177 121 281t324 104h2z" />
    <glyph glyph-name="agrave" unicode="&#xe0;" horiz-adv-x="960" 
d="M395 -25q-156 0 -247 88t-91 216q0 129 88.5 211.5t253.5 82.5h336v39q-2 118 -62 189t-194 71q-113 0 -168.5 -53.5t-58.5 -134.5h-166q0 180 115 270q104 78 274 78q191 0 297 -92q131 -114 131 -360v-605h-168v162q-48 -58 -114 -96t-121.5 -52t-104.5 -14zM412 125
q97 0 179 53.5t140 157.5v88h-317q-98 0 -142.5 -42.5t-44.5 -102.5q0 -67 51 -110.5t134 -43.5zM608 1104h-110l-144 203h113z" />
    <glyph glyph-name="aacute" unicode="&#xe1;" horiz-adv-x="960" 
d="M395 -25q-156 0 -247 88t-91 216q0 129 88.5 211.5t253.5 82.5h336v39q-2 118 -62 189t-194 71q-113 0 -168.5 -53.5t-58.5 -134.5h-166q0 180 115 270q104 78 274 78q191 0 297 -92q131 -114 131 -360v-605h-168v162q-48 -58 -114 -96t-121.5 -52t-104.5 -14zM412 125
q97 0 179 53.5t140 157.5v88h-317q-98 0 -142.5 -42.5t-44.5 -102.5q0 -67 51 -110.5t134 -43.5zM354 1104l142 203h112l-143 -203h-111z" />
    <glyph glyph-name="acircumflex" unicode="&#xe2;" horiz-adv-x="960" 
d="M395 -25q-156 0 -247 88t-91 216q0 129 88.5 211.5t253.5 82.5h336v39q-2 118 -62 189t-194 71q-113 0 -168.5 -53.5t-58.5 -134.5h-166q0 180 115 270q104 78 274 78q191 0 297 -92q131 -114 131 -360v-605h-168v162q-48 -58 -114 -96t-121.5 -52t-104.5 -14zM412 125
q97 0 179 53.5t140 157.5v88h-317q-98 0 -142.5 -42.5t-44.5 -102.5q0 -67 51 -110.5t134 -43.5zM283 1104l141 203h117l141 -203h-111l-88 127l-90 -127h-110z" />
    <glyph glyph-name="atilde" unicode="&#xe3;" horiz-adv-x="960" 
d="M395 -25q-156 0 -247 88t-91 216q0 129 88.5 211.5t253.5 82.5h336v39q-2 118 -62 189t-194 71q-113 0 -168.5 -53.5t-58.5 -134.5h-166q0 180 115 270q104 78 274 78q191 0 297 -92q131 -114 131 -360v-605h-168v162q-48 -58 -114 -96t-121.5 -52t-104.5 -14zM412 125
q97 0 179 53.5t140 157.5v88h-317q-98 0 -142.5 -42.5t-44.5 -102.5q0 -67 51 -110.5t134 -43.5zM696 1251q-10 -145 -110 -145q-48 0 -101 53q-27 27 -40.5 36t-28.5 9q-33 0 -50 -22t-24 -76h-76q9 80 48 127t102 47q60 0 123 -66q22 -22 29.5 -27t17.5 -5q15 0 22.5 13
t14.5 56h73z" />
    <glyph glyph-name="adieresis" unicode="&#xe4;" horiz-adv-x="960" 
d="M395 -25q-156 0 -247 88t-91 216q0 129 88.5 211.5t253.5 82.5h336v39q-2 118 -62 189t-194 71q-113 0 -168.5 -53.5t-58.5 -134.5h-166q0 180 115 270q104 78 274 78q191 0 297 -92q131 -114 131 -360v-605h-168v162q-48 -58 -114 -96t-121.5 -52t-104.5 -14zM412 125
q97 0 179 53.5t140 157.5v88h-317q-98 0 -142.5 -42.5t-44.5 -102.5q0 -67 51 -110.5t134 -43.5zM383 1114q-38 0 -66 28t-28 66t28 65t66 27t65 -27t27 -65t-27 -66t-65 -28zM582 1114q-38 0 -66.5 28t-28.5 66t28 65t67 27q38 0 65 -27t27 -65t-27 -66t-65 -28z" />
    <glyph glyph-name="aring" unicode="&#xe5;" horiz-adv-x="960" 
d="M395 -25q-156 0 -247 88t-91 216q0 129 88.5 211.5t253.5 82.5h336v39q-2 118 -62 189t-194 71q-113 0 -168.5 -53.5t-58.5 -134.5h-166q0 180 115 270q104 78 274 78q191 0 297 -92q131 -114 131 -360v-605h-168v162q-48 -58 -114 -96t-121.5 -52t-104.5 -14zM412 125
q97 0 179 53.5t140 157.5v88h-317q-98 0 -142.5 -42.5t-44.5 -102.5q0 -67 51 -110.5t134 -43.5zM481 1100q-47 0 -77.5 30.5t-30.5 75.5q0 41 31 72t77 31q45 0 76 -31t31 -72q0 -44 -31 -75t-76 -31zM481 1161q21 0 32 13t11 32q0 16 -11.5 28.5t-31.5 12.5t-31.5 -11.5
t-11.5 -29.5q0 -20 12 -32.5t31 -12.5z" />
    <glyph glyph-name="ae" unicode="&#xe6;" horiz-adv-x="1800" 
d="M395 -25q-156 0 -247 88t-91 216q0 129 88.5 211.5t253.5 82.5h336v39q-2 118 -62 189t-194 71q-113 0 -168.5 -53.5t-58.5 -134.5h-166q0 180 115 270q104 78 274 78q191 0 297 -92q80 -68 111 -184q57 126 163 201t248 75q205 0 329.5 -144.5t119.5 -359.5v-94h-739
q12 -133 98.5 -210t206.5 -77q150 2 243 129l156 -53q-54 -105 -162.5 -176.5t-236.5 -71.5q-130 0 -236 63t-170 173v-236h-168v162q-48 -58 -114 -96t-121.5 -52t-104.5 -14zM412 125q97 0 179 53.5t140 157.5v88h-317q-98 0 -142.5 -42.5t-44.5 -102.5q0 -67 51 -110.5
t134 -43.5zM1573 569q-5 130 -80.5 210.5t-198.5 80.5q-113 0 -197.5 -79t-99.5 -212h576z" />
    <glyph glyph-name="ccedilla" unicode="&#xe7;" horiz-adv-x="1032" 
d="M520 -25l-39 2l-16 -104q27 6 49 6q69 0 113.5 -34.5t44.5 -96.5q0 -63 -47 -106t-117 -52q-72 -10 -148 23l25 72q58 -34 121 -19q90 14 90 82q0 31 -22 47.5t-62 16.5q-39 0 -102 -23l-29 29l27 172q-152 39 -251.5 174.5t-99.5 339.5q0 123 38 224.5t102.5 167
t147.5 101t175 35.5q171 0 299.5 -116t155.5 -316h-170q-22 130 -101 195t-184 65q-129 0 -212 -91.5t-83 -264.5q0 -172 83.5 -264.5t211.5 -92.5q81 0 149 40.5t107 125.5h174q-24 -86 -71.5 -152.5t-107 -106t-123 -59.5t-128.5 -20z" />
    <glyph glyph-name="egrave" unicode="&#xe8;" horiz-adv-x="1028" 
d="M537 -25q-206 0 -343 150t-137 379q0 140 55 259t162.5 194t247.5 75q205 0 329.5 -144.5t119.5 -359.5v-94h-740q12 -133 99 -210t207 -77q150 2 243 129l156 -53q-54 -105 -162.5 -176.5t-236.5 -71.5zM801 569q-5 130 -80.5 210.5t-198.5 80.5q-113 0 -197.5 -79
t-99.5 -212h576zM641 1104h-111l-143 203h113z" />
    <glyph glyph-name="eacute" unicode="&#xe9;" horiz-adv-x="1028" 
d="M537 -25q-206 0 -343 150t-137 379q0 140 55 259t162.5 194t247.5 75q205 0 329.5 -144.5t119.5 -359.5v-94h-740q12 -133 99 -210t207 -77q150 2 243 129l156 -53q-54 -105 -162.5 -176.5t-236.5 -71.5zM801 569q-5 130 -80.5 210.5t-198.5 80.5q-113 0 -197.5 -79
t-99.5 -212h576zM387 1104l141 203h113l-143 -203h-111z" />
    <glyph glyph-name="ecircumflex" unicode="&#xea;" horiz-adv-x="1028" 
d="M537 -25q-206 0 -343 150t-137 379q0 140 55 259t162.5 194t247.5 75q205 0 329.5 -144.5t119.5 -359.5v-94h-740q12 -133 99 -210t207 -77q150 2 243 129l156 -53q-54 -105 -162.5 -176.5t-236.5 -71.5zM801 569q-5 130 -80.5 210.5t-198.5 80.5q-113 0 -197.5 -79
t-99.5 -212h576zM315 1104l142 203h116l142 -203h-111l-88 127l-90 -127h-111z" />
    <glyph glyph-name="edieresis" unicode="&#xeb;" horiz-adv-x="1028" 
d="M537 -25q-206 0 -343 150t-137 379q0 140 55 259t162.5 194t247.5 75q205 0 329.5 -144.5t119.5 -359.5v-94h-740q12 -133 99 -210t207 -77q150 2 243 129l156 -53q-54 -105 -162.5 -176.5t-236.5 -71.5zM801 569q-5 130 -80.5 210.5t-198.5 80.5q-113 0 -197.5 -79
t-99.5 -212h576zM416 1114q-38 0 -66 28t-28 66t28 65t66 27t65 -27t27 -65t-27 -66t-65 -28zM614 1114q-38 0 -66 28t-28 66t28 65t66 27t65.5 -27t27.5 -65t-27.5 -66t-65.5 -28z" />
    <glyph glyph-name="igrave" unicode="&#xec;" horiz-adv-x="284" 
d="M57 -25v1057h170v-1057h-170zM270 1104h-110l-144 203h113z" />
    <glyph glyph-name="iacute" unicode="&#xed;" horiz-adv-x="284" 
d="M57 -25v1057h170v-1057h-170zM16 1104l142 203h112l-143 -203h-111z" />
    <glyph glyph-name="icircumflex" unicode="&#xee;" horiz-adv-x="284" 
d="M57 -25v1057h170v-1057h-170zM-57 1104l141 203h117l141 -203h-111l-88 127l-90 -127h-110z" />
    <glyph glyph-name="idieresis" unicode="&#xef;" horiz-adv-x="284" 
d="M57 -25v1057h170v-1057h-170zM45 1114q-38 0 -66 28t-28 66t28 65t66 27t65 -27t27 -65t-27 -66t-65 -28zM244 1114q-38 0 -66 28t-28 66t28 65t66 27t65 -27t27 -65t-27 -66t-65 -28z" />
    <glyph glyph-name="eth" unicode="&#xf0;" horiz-adv-x="1189" 
d="M653 1032l-39 131l154 47v240h168v-188l194 59l41 -131l-235 -72v-1143h-168v150q-62 -65 -140.5 -109.5t-154.5 -44.5q-186 0 -301 149t-115 378q0 245 120.5 387.5t299.5 142.5q89 0 164.5 -46.5t126.5 -127.5v213zM479 143q102 0 177.5 65.5t111.5 168.5v262
q-57 109 -120 163t-156 54q-113 0 -189 -96.5t-76 -261.5q0 -163 70.5 -259t181.5 -96z" />
    <glyph glyph-name="ntilde" unicode="&#xf1;" 
d="M57 -25v1057h168v-172q62 72 143.5 122t163.5 50q115 0 198.5 -56t123 -147t39.5 -206v-648h-168v648q0 111 -61 175t-150 62q-95 -1 -169.5 -64t-119.5 -167v-654h-168zM690 1251q-10 -145 -110 -145q-48 0 -101 53q-27 27 -40.5 36t-28.5 9q-33 0 -50 -22t-24 -76h-76
q9 80 48 127t102 47q59 0 122 -66q22 -22 30 -27t18 -5q14 0 21.5 12.5t14.5 56.5h74z" />
    <glyph glyph-name="ograve" unicode="&#xf2;" horiz-adv-x="1038" 
d="M520 -25q-91 0 -174.5 36t-148 102t-102.5 167.5t-38 223.5q0 123 38 224.5t102.5 167t147.5 101t175 35.5t175 -35.5t147 -101t101.5 -167t37.5 -224.5q0 -122 -38 -223.5t-102 -167.5t-147 -102t-174 -36zM520 147q127 0 210 92.5t83 264.5q0 174 -82 265t-211 91
t-212 -91.5t-83 -264.5q0 -172 83.5 -264.5t211.5 -92.5zM647 1104h-110l-144 203h113z" />
    <glyph glyph-name="oacute" unicode="&#xf3;" horiz-adv-x="1038" 
d="M520 -25q-91 0 -174.5 36t-148 102t-102.5 167.5t-38 223.5q0 123 38 224.5t102.5 167t147.5 101t175 35.5t175 -35.5t147 -101t101.5 -167t37.5 -224.5q0 -122 -38 -223.5t-102 -167.5t-147 -102t-174 -36zM520 147q127 0 210 92.5t83 264.5q0 174 -82 265t-211 91
t-212 -91.5t-83 -264.5q0 -172 83.5 -264.5t211.5 -92.5zM393 1104l142 203h112l-143 -203h-111z" />
    <glyph glyph-name="ocircumflex" unicode="&#xf4;" horiz-adv-x="1038" 
d="M520 -25q-91 0 -174.5 36t-148 102t-102.5 167.5t-38 223.5q0 123 38 224.5t102.5 167t147.5 101t175 35.5t175 -35.5t147 -101t101.5 -167t37.5 -224.5q0 -122 -38 -223.5t-102 -167.5t-147 -102t-174 -36zM520 147q127 0 210 92.5t83 264.5q0 174 -82 265t-211 91
t-212 -91.5t-83 -264.5q0 -172 83.5 -264.5t211.5 -92.5zM319 1104l142 203h117l141 -203h-111l-88 127l-90 -127h-111z" />
    <glyph glyph-name="otilde" unicode="&#xf5;" horiz-adv-x="1038" 
d="M520 -25q-91 0 -174.5 36t-148 102t-102.5 167.5t-38 223.5q0 123 38 224.5t102.5 167t147.5 101t175 35.5t175 -35.5t147 -101t101.5 -167t37.5 -224.5q0 -122 -38 -223.5t-102 -167.5t-147 -102t-174 -36zM520 147q127 0 210 92.5t83 264.5q0 174 -82 265t-211 91
t-212 -91.5t-83 -264.5q0 -172 83.5 -264.5t211.5 -92.5zM733 1251q-10 -145 -110 -145q-48 0 -101 53q-27 27 -40.5 36t-28.5 9q-33 0 -50 -22t-24 -76h-76q9 80 48 127t102 47q59 0 122 -66q22 -22 30 -27t18 -5q14 0 21.5 12.5t14.5 56.5h74z" />
    <glyph glyph-name="odieresis" unicode="&#xf6;" horiz-adv-x="1038" 
d="M520 -25q-91 0 -174.5 36t-148 102t-102.5 167.5t-38 223.5q0 123 38 224.5t102.5 167t147.5 101t175 35.5t175 -35.5t147 -101t101.5 -167t37.5 -224.5q0 -122 -38 -223.5t-102 -167.5t-147 -102t-174 -36zM520 147q127 0 210 92.5t83 264.5q0 174 -82 265t-211 91
t-212 -91.5t-83 -264.5q0 -172 83.5 -264.5t211.5 -92.5zM422 1114q-38 0 -66 28t-28 66t28 65t66 27t65 -27t27 -65t-27 -66t-65 -28zM621 1114q-38 0 -66.5 28t-28.5 66t28 65t67 27q38 0 65 -27t27 -65t-27 -66t-65 -28z" />
    <glyph glyph-name="oslash" unicode="&#xf8;" horiz-adv-x="1050" 
d="M281 -109h-168l118 205q-161 148 -161 410q0 123 38 224.5t102.5 167t147 101t174.5 35.5q113 0 213 -53l43 76h168l-96 -166q133 -146 133 -385q0 -122 -38 -223.5t-102 -167.5t-147 -102t-174 -36q-96 0 -180 37zM532 150q127 0 210 92t83 264q0 139 -55 229l-332 -571
q43 -14 94 -14zM238 506q0 -165 79 -260l342 590q-56 26 -127 26q-129 0 -211.5 -91t-82.5 -265z" />
    <glyph glyph-name="ugrave" unicode="&#xf9;" 
d="M418 -25q-171 0 -266 117t-95 293v647h168v-645q0 -112 61 -176t150 -64q94 1 169 64.5t120 167.5v653h168v-1057h-168v175q-61 -73 -142.5 -124t-164.5 -51zM602 1104h-110l-144 203h113z" />
    <glyph glyph-name="uacute" unicode="&#xfa;" 
d="M418 -25q-171 0 -266 117t-95 293v647h168v-645q0 -112 61 -176t150 -64q94 1 169 64.5t120 167.5v653h168v-1057h-168v175q-61 -73 -142.5 -124t-164.5 -51zM348 1104l141 203h113l-143 -203h-111z" />
    <glyph glyph-name="ucircumflex" unicode="&#xfb;" 
d="M418 -25q-171 0 -266 117t-95 293v647h168v-645q0 -112 61 -176t150 -64q94 1 169 64.5t120 167.5v653h168v-1057h-168v175q-61 -73 -142.5 -124t-164.5 -51zM276 1104l142 203h117l141 -203h-111l-88 127l-90 -127h-111z" />
    <glyph glyph-name="udieresis" unicode="&#xfc;" 
d="M418 -25q-171 0 -266 117t-95 293v647h168v-645q0 -112 61 -176t150 -64q94 1 169 64.5t120 167.5v653h168v-1057h-168v175q-61 -73 -142.5 -124t-164.5 -51zM377 1114q-38 0 -66 28t-28 66t28 65t66 27t65 -27t27 -65t-27 -66t-65 -28zM575 1114q-38 0 -66 28t-28 66
t28 65t66 27t65.5 -27t27.5 -65t-27.5 -66t-65.5 -28z" />
    <glyph glyph-name="yacute" unicode="&#xfd;" horiz-adv-x="1073" 
d="M336 -383l153 440l-432 975h185l329 -745l265 745h180l-502 -1415h-178zM410 1104l141 203h113l-144 -203h-110z" />
    <glyph glyph-name="thorn" unicode="&#xfe;" horiz-adv-x="995" 
d="M506 147q113 0 188.5 97t75.5 262q0 163 -71 258.5t-183 95.5q-102 0 -176.5 -65t-112.5 -168v-262q56 -109 121 -163.5t158 -54.5zM227 -455h-170v1823h170v-489q62 65 140.5 109t154.5 44q124 0 219 -68.5t146 -188t51 -269.5q0 -245 -119.5 -388t-298.5 -143
q-89 0 -165 46.5t-128 128.5v-605z" />
    <glyph glyph-name="ydieresis" unicode="&#xff;" horiz-adv-x="1073" 
d="M336 -383l153 440l-432 975h185l329 -745l265 745h180l-502 -1415h-178zM438 1114q-38 0 -66 28t-28 66t28 65t66 27t65 -27t27 -65t-27 -66t-65 -28zM637 1114q-38 0 -66 28t-28 66t28 65t66 27t65 -27t27 -65t-27 -66t-65 -28z" />
    <glyph glyph-name="Amacron" unicode="&#x100;" horiz-adv-x="1466" 
d="M57 -25l623 1475h106l623 -1475h-186l-140 334h-698l-141 -334h-187zM455 467h561l-281 670zM535 1667h395v-100h-395v100z" />
    <glyph glyph-name="amacron" unicode="&#x101;" horiz-adv-x="960" 
d="M395 -25q-156 0 -247 88t-91 216q0 129 88.5 211.5t253.5 82.5h336v39q-2 118 -62 189t-194 71q-113 0 -168.5 -53.5t-58.5 -134.5h-166q0 180 115 270q104 78 274 78q191 0 297 -92q131 -114 131 -360v-605h-168v162q-48 -58 -114 -96t-121.5 -52t-104.5 -14zM412 125
q97 0 179 53.5t140 157.5v88h-317q-98 0 -142.5 -42.5t-44.5 -102.5q0 -67 51 -110.5t134 -43.5zM283 1257h395v-100h-395v100z" />
    <glyph glyph-name="Abreve" unicode="&#x102;" horiz-adv-x="1466" 
d="M57 -25l623 1475h106l623 -1475h-186l-140 334h-698l-141 -334h-187zM455 467h561l-281 670zM944 1708q-17 -83 -76.5 -137.5t-134.5 -54.5q-79 0 -137.5 54t-73.5 138h86q11 -48 45 -80.5t80 -32.5q48 0 82.5 35t44.5 78h84z" />
    <glyph glyph-name="abreve" unicode="&#x103;" horiz-adv-x="960" 
d="M395 -25q-156 0 -247 88t-91 216q0 129 88.5 211.5t253.5 82.5h336v39q-2 118 -62 189t-194 71q-113 0 -168.5 -53.5t-58.5 -134.5h-166q0 180 115 270q104 78 274 78q191 0 297 -92q131 -114 131 -360v-605h-168v162q-48 -58 -114 -96t-121.5 -52t-104.5 -14zM412 125
q97 0 179 53.5t140 157.5v88h-317q-98 0 -142.5 -42.5t-44.5 -102.5q0 -67 51 -110.5t134 -43.5zM692 1298q-17 -83 -76.5 -137.5t-134.5 -54.5q-79 0 -137.5 54t-73.5 138h86q11 -48 45 -80t80 -32q48 0 82.5 35t44.5 77h84z" />
    <glyph glyph-name="Aogonek" unicode="&#x104;" horiz-adv-x="1466" 
d="M57 -25l623 1475h106l623 -1475h-186l-4 11q-40 12 -80 12q-82 0 -82 -64q0 -67 90 -81q67 -12 119 18l24 -70q-79 -34 -147 -22q-69 9 -116.5 51t-47.5 104q0 63 45 98.5t113 35.5q25 0 49 -9l2 -2l-105 252h-698l-141 -334h-187zM455 467h561l-281 670z" />
    <glyph glyph-name="aogonek" unicode="&#x105;" horiz-adv-x="960" 
d="M395 -25q-156 0 -247 88t-91 216q0 129 88.5 211.5t253.5 82.5h336v39q-2 118 -62 189t-194 71q-113 0 -168.5 -53.5t-58.5 -134.5h-166q0 180 115 270q104 78 274 78q191 0 297 -92q131 -114 131 -360v-605h-59l26 -16l-28 -29q-64 21 -105 21q-82 0 -82 -64
q0 -68 90 -82q65 -12 119 19l25 -70q-79 -34 -148 -22q-69 9 -116 51t-47 104q0 63 44.5 98t112.5 35v117q-48 -58 -114 -96t-121.5 -52t-104.5 -14zM412 125q97 0 179 53.5t140 157.5v88h-317q-98 0 -142.5 -42.5t-44.5 -102.5q0 -67 51 -110.5t134 -43.5z" />
    <glyph glyph-name="Cacute" unicode="&#x106;" horiz-adv-x="1429" 
d="M719 -47q-136 0 -257 54t-211 151t-142 241t-52 314q0 171 52 315t142 240.5t210.5 150.5t257.5 54q252 0 429 -166t222 -437h-172q-36 201 -165.5 314.5t-313.5 113.5q-98 0 -185.5 -39t-156 -111t-108.5 -184.5t-40 -250.5q0 -132 38 -242.5t103.5 -185t155.5 -115.5
t193 -41q195 0 323.5 123t159.5 332h170q-39 -293 -219.5 -462t-433.5 -169zM590 1513l141 203h113l-144 -203h-110z" />
    <glyph glyph-name="cacute" unicode="&#x107;" horiz-adv-x="1032" 
d="M520 -25q-91 0 -174.5 36t-148 102t-102.5 167.5t-38 223.5q0 123 38 224.5t102.5 167t147.5 101t175 35.5q171 0 299.5 -116t155.5 -316h-170q-22 130 -101 195t-184 65q-129 0 -212 -91.5t-83 -264.5q0 -172 83.5 -264.5t211.5 -92.5q81 0 149 40.5t107 125.5h174
q-24 -86 -71.5 -152.5t-107 -106t-123 -59.5t-128.5 -20zM389 1104l141 203h113l-143 -203h-111z" />
    <glyph glyph-name="Ccircumflex" unicode="&#x108;" horiz-adv-x="1429" 
d="M719 -47q-136 0 -257 54t-211 151t-142 241t-52 314q0 171 52 315t142 240.5t210.5 150.5t257.5 54q252 0 429 -166t222 -437h-172q-36 201 -165.5 314.5t-313.5 113.5q-98 0 -185.5 -39t-156 -111t-108.5 -184.5t-40 -250.5q0 -132 38 -242.5t103.5 -185t155.5 -115.5
t193 -41q195 0 323.5 123t159.5 332h170q-39 -293 -219.5 -462t-433.5 -169zM516 1513l141 203h117l141 -203h-110l-88 127l-90 -127h-111z" />
    <glyph glyph-name="ccircumflex" unicode="&#x109;" horiz-adv-x="1032" 
d="M520 -25q-91 0 -174.5 36t-148 102t-102.5 167.5t-38 223.5q0 123 38 224.5t102.5 167t147.5 101t175 35.5q171 0 299.5 -116t155.5 -316h-170q-22 130 -101 195t-184 65q-129 0 -212 -91.5t-83 -264.5q0 -172 83.5 -264.5t211.5 -92.5q81 0 149 40.5t107 125.5h174
q-24 -86 -71.5 -152.5t-107 -106t-123 -59.5t-128.5 -20zM317 1104l142 203h116l142 -203h-111l-88 127l-90 -127h-111z" />
    <glyph glyph-name="Cdotaccent" unicode="&#x10a;" horiz-adv-x="1429" 
d="M719 -47q-136 0 -257 54t-211 151t-142 241t-52 314q0 171 52 315t142 240.5t210.5 150.5t257.5 54q252 0 429 -166t222 -437h-172q-36 201 -165.5 314.5t-313.5 113.5q-98 0 -185.5 -39t-156 -111t-108.5 -184.5t-40 -250.5q0 -132 38 -242.5t103.5 -185t155.5 -115.5
t193 -41q195 0 323.5 123t159.5 332h170q-39 -293 -219.5 -462t-433.5 -169zM717 1524q-38 0 -66 28t-28 66t28 65t66 27t65 -27t27 -65t-27 -66t-65 -28z" />
    <glyph glyph-name="cdotaccent" unicode="&#x10b;" horiz-adv-x="1032" 
d="M520 -25q-91 0 -174.5 36t-148 102t-102.5 167.5t-38 223.5q0 123 38 224.5t102.5 167t147.5 101t175 35.5q171 0 299.5 -116t155.5 -316h-170q-22 130 -101 195t-184 65q-129 0 -212 -91.5t-83 -264.5q0 -172 83.5 -264.5t211.5 -92.5q81 0 149 40.5t107 125.5h174
q-24 -86 -71.5 -152.5t-107 -106t-123 -59.5t-128.5 -20zM518 1114q-38 0 -66 28t-28 66t28 65t66 27t65 -27t27 -65t-27 -66t-65 -28z" />
    <glyph glyph-name="Ccaron" unicode="&#x10c;" horiz-adv-x="1429" 
d="M719 -47q-136 0 -257 54t-211 151t-142 241t-52 314q0 171 52 315t142 240.5t210.5 150.5t257.5 54q252 0 429 -166t222 -437h-172q-36 201 -165.5 314.5t-313.5 113.5q-98 0 -185.5 -39t-156 -111t-108.5 -184.5t-40 -250.5q0 -132 38 -242.5t103.5 -185t155.5 -115.5
t193 -41q195 0 323.5 123t159.5 332h170q-39 -293 -219.5 -462t-433.5 -169zM516 1712h111l90 -127l90 127h111l-142 -203h-119z" />
    <glyph glyph-name="ccaron" unicode="&#x10d;" horiz-adv-x="1032" 
d="M520 -25q-91 0 -174.5 36t-148 102t-102.5 167.5t-38 223.5q0 123 38 224.5t102.5 167t147.5 101t175 35.5q171 0 299.5 -116t155.5 -316h-170q-22 130 -101 195t-184 65q-129 0 -212 -91.5t-83 -264.5q0 -172 83.5 -264.5t211.5 -92.5q81 0 149 40.5t107 125.5h174
q-24 -86 -71.5 -152.5t-107 -106t-123 -59.5t-128.5 -20zM315 1303h111l90 -127l90 127h111l-142 -203h-118z" />
    <glyph glyph-name="Dcaron" unicode="&#x10e;" horiz-adv-x="1310" 
d="M57 -25v1475h533q141 0 263.5 -54t210.5 -149.5t138.5 -234t50.5 -299.5q0 -334 -176.5 -536t-484.5 -202h-535zM592 152q243 0 366 146t123 415q0 259 -135.5 411t-355.5 152h-361v-1124h363zM455 1712h110l90 -127l90 127h111l-141 -203h-119z" />
    <glyph glyph-name="dcaron" unicode="&#x10f;" horiz-adv-x="993" 
d="M473 -29q-186 0 -301 149t-115 378q0 245 120.5 387.5t299.5 142.5q89 0 164.5 -46.5t126.5 -127.5v596h168v-1475h-168v150q-62 -65 -140.5 -109.5t-154.5 -44.5zM479 143q102 0 177.5 65.5t111.5 168.5v262q-57 109 -120 163t-156 54q-113 0 -189 -96.5t-76 -261.5
q0 -163 70.5 -259t181.5 -96zM993 1104l142 203h112l-143 -203h-111z" />
    <glyph glyph-name="Dcroat" unicode="&#x110;" horiz-adv-x="1310" 
d="M57 -25v547h-176v158h176v770h533q141 0 263.5 -54t210.5 -149.5t138.5 -234t50.5 -299.5q0 -334 -176.5 -536t-484.5 -202h-535zM592 152q243 0 366 146t123 415q0 259 -135.5 411t-355.5 152h-361v-596h275v-158h-275v-370h363z" />
    <glyph glyph-name="dcroat" unicode="&#x111;" horiz-adv-x="993" 
d="M473 -29q-186 0 -301 149t-115 378q0 245 120.5 387.5t299.5 142.5q89 0 164.5 -46.5t126.5 -127.5v272h-344v158h344v166h168v-166h111v-158h-111v-1151h-168v150q-62 -65 -140.5 -109.5t-154.5 -44.5zM479 143q102 0 177.5 65.5t111.5 168.5v262q-57 109 -120 163
t-156 54q-113 0 -189 -96.5t-76 -261.5q0 -163 70.5 -259t181.5 -96z" />
    <glyph glyph-name="Emacron" unicode="&#x112;" horiz-adv-x="1083" 
d="M57 -23v1473h959v-174h-787v-451h729v-176h-729v-497h793v-175h-965zM344 1667h395v-100h-395v100z" />
    <glyph glyph-name="emacron" unicode="&#x113;" horiz-adv-x="1028" 
d="M537 -25q-206 0 -343 150t-137 379q0 140 55 259t162.5 194t247.5 75q205 0 329.5 -144.5t119.5 -359.5v-94h-740q12 -133 99 -210t207 -77q150 2 243 129l156 -53q-54 -105 -162.5 -176.5t-236.5 -71.5zM801 569q-5 130 -80.5 210.5t-198.5 80.5q-113 0 -197.5 -79
t-99.5 -212h576zM315 1257h396v-100h-396v100z" />
    <glyph glyph-name="Edotaccent" unicode="&#x116;" horiz-adv-x="1083" 
d="M57 -23v1473h959v-174h-787v-451h729v-176h-729v-497h793v-175h-965zM543 1524q-38 0 -66 28t-28 66t28 65t66 27t65 -27t27 -65t-27 -66t-65 -28z" />
    <glyph glyph-name="edotaccent" unicode="&#x117;" horiz-adv-x="1028" 
d="M537 -25q-206 0 -343 150t-137 379q0 140 55 259t162.5 194t247.5 75q205 0 329.5 -144.5t119.5 -359.5v-94h-740q12 -133 99 -210t207 -77q150 2 243 129l156 -53q-54 -105 -162.5 -176.5t-236.5 -71.5zM801 569q-5 130 -80.5 210.5t-198.5 80.5q-113 0 -197.5 -79
t-99.5 -212h576zM516 1114q-38 0 -66 28t-28 66t28 65t66 27t65 -27t27 -65t-27 -66t-65 -28z" />
    <glyph glyph-name="Eogonek" unicode="&#x118;" horiz-adv-x="1083" 
d="M57 -23v1473h959v-174h-787v-451h729v-176h-729v-497h793v-172l2 -3l-29 -28q-61 20 -104 20q-82 0 -82 -63q0 -68 90 -82q67 -12 119 18l24 -69q-81 -34 -147 -23q-69 9 -116.5 51.5t-47.5 104.5q0 36 21 71h-695z" />
    <glyph glyph-name="eogonek" unicode="&#x119;" horiz-adv-x="1028" 
d="M537 -25q-206 0 -343 150t-137 379q0 140 55 259t162.5 194t247.5 75q205 0 329.5 -144.5t119.5 -359.5v-94h-740q12 -133 99 -210t207 -77q150 2 243 129l156 -53q-53 -106 -166 -180l23 2q28 0 49 -8l86 -53l-29 -29q-61 20 -104 20q-82 0 -82 -63q0 -68 90 -82
q67 -12 119 18l24 -69q-81 -34 -147 -23q-69 9 -116.5 51.5t-47.5 104.5q0 47 29 84q-58 -21 -127 -21zM801 569q-5 130 -80.5 210.5t-198.5 80.5q-113 0 -197.5 -79t-99.5 -212h576z" />
    <glyph glyph-name="Ecaron" unicode="&#x11a;" horiz-adv-x="1083" 
d="M57 -23v1473h959v-174h-787v-451h729v-176h-729v-497h793v-175h-965zM342 1712h111l90 -127l90 127h110l-141 -203h-119z" />
    <glyph glyph-name="ecaron" unicode="&#x11b;" horiz-adv-x="1028" 
d="M537 -25q-206 0 -343 150t-137 379q0 140 55 259t162.5 194t247.5 75q205 0 329.5 -144.5t119.5 -359.5v-94h-740q12 -133 99 -210t207 -77q150 2 243 129l156 -53q-54 -105 -162.5 -176.5t-236.5 -71.5zM801 569q-5 130 -80.5 210.5t-198.5 80.5q-113 0 -197.5 -79
t-99.5 -212h576zM313 1303h111l90 -127l90 127h111l-142 -203h-118z" />
    <glyph glyph-name="Gcircumflex" unicode="&#x11c;" horiz-adv-x="1431" 
d="M721 -45q-137 0 -258 54t-211 150.5t-142.5 240.5t-52.5 315t52.5 315t142.5 240.5t211 150.5t258 54q253 0 429 -164t222 -439h-172q-36 203 -165.5 315.5t-313.5 112.5q-98 0 -186 -39t-156.5 -111t-109 -184.5t-40.5 -250.5q0 -137 40 -249.5t108 -184.5t156.5 -111
t187.5 -39q178 0 302 103t165 282v21h-570v174h756v-736h-176v279q-65 -139 -196 -219t-281 -80zM516 1513l141 203h117l141 -203h-110l-88 127l-90 -127h-111z" />
    <glyph glyph-name="gcircumflex" unicode="&#x11d;" horiz-adv-x="1013" 
d="M487 -637q-189 0 -307.5 108.5t-118.5 264.5q0 88 31.5 152t91.5 122q-46 26 -77 76t-31 109q0 115 78 178q-84 113 -84 258q0 173 110 287t279 114t276 -110h2q68 110 219 110v-151q-22 0 -44.5 -5.5t-52 -27t-44.5 -57.5q33 -74 33 -160q0 -174 -109 -289t-280 -115
q-92 0 -180 56q-19 -19 -37 -82q-7 -50 30 -77.5t105 -27.5h198q168 0 263.5 -95t95.5 -249q0 -72 -28 -140t-80.5 -124t-139 -90.5t-192.5 -34.5h-7zM530 -467q106 0 171 63t65 152q0 76 -45.5 127t-138.5 51h-222h-28q-43 -28 -73 -78t-30 -112q0 -86 64 -144.5t158 -58.5
h79zM459 399q100 0 160.5 66.5t60.5 165.5q0 98 -60.5 164.5t-160.5 66.5q-101 0 -161 -66t-60 -165q0 -100 60 -166t161 -66zM307 1104l142 203h116l142 -203h-111l-88 127l-90 -127h-111z" />
    <glyph glyph-name="Gbreve" unicode="&#x11e;" horiz-adv-x="1431" 
d="M721 -45q-137 0 -258 54t-211 150.5t-142.5 240.5t-52.5 315t52.5 315t142.5 240.5t211 150.5t258 54q253 0 429 -164t222 -439h-172q-36 203 -165.5 315.5t-313.5 112.5q-98 0 -186 -39t-156.5 -111t-109 -184.5t-40.5 -250.5q0 -137 40 -249.5t108 -184.5t156.5 -111
t187.5 -39q178 0 302 103t165 282v21h-570v174h756v-736h-176v279q-65 -139 -196 -219t-281 -80zM928 1708q-17 -83 -76.5 -137.5t-134.5 -54.5q-79 0 -137.5 54t-73.5 138h86q11 -48 45 -80.5t80 -32.5q48 0 82.5 35t44.5 78h84z" />
    <glyph glyph-name="gbreve" unicode="&#x11f;" horiz-adv-x="1013" 
d="M487 -637q-189 0 -307.5 108.5t-118.5 264.5q0 88 31.5 152t91.5 122q-46 26 -77 76t-31 109q0 115 78 178q-84 113 -84 258q0 173 110 287t279 114t276 -110h2q68 110 219 110v-151q-22 0 -44.5 -5.5t-52 -27t-44.5 -57.5q33 -74 33 -160q0 -174 -109 -289t-280 -115
q-92 0 -180 56q-19 -19 -37 -82q-7 -50 30 -77.5t105 -27.5h198q168 0 263.5 -95t95.5 -249q0 -72 -28 -140t-80.5 -124t-139 -90.5t-192.5 -34.5h-7zM530 -467q106 0 171 63t65 152q0 76 -45.5 127t-138.5 51h-222h-28q-43 -28 -73 -78t-30 -112q0 -86 64 -144.5t158 -58.5
h79zM459 399q100 0 160.5 66.5t60.5 165.5q0 98 -60.5 164.5t-160.5 66.5q-101 0 -161 -66t-60 -165q0 -100 60 -166t161 -66zM719 1298q-17 -83 -76.5 -137.5t-134.5 -54.5q-79 0 -137.5 54t-73.5 138h86q11 -48 45 -80t80 -32q48 0 82.5 35t44.5 77h84z" />
    <glyph glyph-name="Gdotaccent" unicode="&#x120;" horiz-adv-x="1431" 
d="M721 -45q-137 0 -258 54t-211 150.5t-142.5 240.5t-52.5 315t52.5 315t142.5 240.5t211 150.5t258 54q253 0 429 -164t222 -439h-172q-36 203 -165.5 315.5t-313.5 112.5q-98 0 -186 -39t-156.5 -111t-109 -184.5t-40.5 -250.5q0 -137 40 -249.5t108 -184.5t156.5 -111
t187.5 -39q178 0 302 103t165 282v21h-570v174h756v-736h-176v279q-65 -139 -196 -219t-281 -80zM717 1524q-38 0 -66 28t-28 66t28 65t66 27t65 -27t27 -65t-27 -66t-65 -28z" />
    <glyph glyph-name="gdotaccent" unicode="&#x121;" horiz-adv-x="1013" 
d="M487 -637q-189 0 -307.5 108.5t-118.5 264.5q0 88 31.5 152t91.5 122q-46 26 -77 76t-31 109q0 115 78 178q-84 113 -84 258q0 173 110 287t279 114t276 -110h2q68 110 219 110v-151q-22 0 -44.5 -5.5t-52 -27t-44.5 -57.5q33 -74 33 -160q0 -174 -109 -289t-280 -115
q-92 0 -180 56q-19 -19 -37 -82q-7 -50 30 -77.5t105 -27.5h198q168 0 263.5 -95t95.5 -249q0 -72 -28 -140t-80.5 -124t-139 -90.5t-192.5 -34.5h-7zM530 -467q106 0 171 63t65 152q0 76 -45.5 127t-138.5 51h-222h-28q-43 -28 -73 -78t-30 -112q0 -86 64 -144.5t158 -58.5
h79zM459 399q100 0 160.5 66.5t60.5 165.5q0 98 -60.5 164.5t-160.5 66.5q-101 0 -161 -66t-60 -165q0 -100 60 -166t161 -66zM508 1114q-38 0 -66 28t-28 66t28 65t66 27t65 -27t27 -65t-27 -66t-65 -28z" />
    <glyph glyph-name="uni0122" unicode="&#x122;" horiz-adv-x="1431" 
d="M721 -45q-137 0 -258 54t-211 150.5t-142.5 240.5t-52.5 315t52.5 315t142.5 240.5t211 150.5t258 54q253 0 429 -164t222 -439h-172q-36 203 -165.5 315.5t-313.5 112.5q-98 0 -186 -39t-156.5 -111t-109 -184.5t-40.5 -250.5q0 -137 40 -249.5t108 -184.5t156.5 -111
t187.5 -39q178 0 302 103t165 282v21h-570v174h756v-736h-176v279q-65 -139 -196 -219t-281 -80zM629 -326q67 79 67 160v98h119v-84q0 -50 -24.5 -103t-63.5 -93z" />
    <glyph glyph-name="uni0123" unicode="&#x123;" horiz-adv-x="1013" 
d="M487 -637q-189 0 -307.5 108.5t-118.5 264.5q0 88 31.5 152t91.5 122q-46 26 -77 76t-31 109q0 115 78 178q-84 113 -84 258q0 173 110 287t279 114t276 -110h2q68 110 219 110v-151q-22 0 -44.5 -5.5t-52 -27t-44.5 -57.5q33 -74 33 -160q0 -174 -109 -289t-280 -115
q-92 0 -180 56q-19 -19 -37 -82q-7 -50 30 -77.5t105 -27.5h198q168 0 263.5 -95t95.5 -249q0 -72 -28 -140t-80.5 -124t-139 -90.5t-192.5 -34.5h-7zM530 -467q106 0 171 63t65 152q0 76 -45.5 127t-138.5 51h-222h-28q-43 -28 -73 -78t-30 -112q0 -86 64 -144.5t158 -58.5
h79zM459 399q100 0 160.5 66.5t60.5 165.5q0 98 -60.5 164.5t-160.5 66.5q-101 0 -161 -66t-60 -165q0 -100 60 -166t161 -66zM594 1317q-68 -71 -68 -139v-86h-118v73q0 44 25 90t63 80z" />
    <glyph glyph-name="Hcircumflex" unicode="&#x124;" horiz-adv-x="1323" 
d="M57 -25v1475h172v-692h867v692h170v-1475h-170v609h-867v-609h-172zM463 1513l141 203h117l141 -203h-110l-88 127l-91 -127h-110z" />
    <glyph glyph-name="hcircumflex" unicode="&#x125;" 
d="M57 -25v1467h168v-584q63 74 144 124t163 50q115 0 198.5 -56t123 -147t39.5 -206v-648h-168v648q0 111 -61 175t-150 62q-95 -1 -171.5 -68t-117.5 -174v-643h-168zM307 1108l142 203h116l142 -203h-111l-88 127l-90 -127h-111z" />
    <glyph glyph-name="Hbar" unicode="&#x126;" horiz-adv-x="1409" 
d="M100 -25v1125h-43v170h43v180h172v-180h867v180h170v-180h43v-170h-43v-1125h-170v609h-867v-609h-172zM272 758h867v342h-867v-342z" />
    <glyph glyph-name="hbar" unicode="&#x127;" horiz-adv-x="1069" 
d="M59 1126v158h119v158h168v-158h336v-158h-336v-268q63 74 144 124t163 50q115 0 198.5 -56t123 -147t39.5 -206v-648h-168v648q0 111 -61 175t-150 62q-95 -1 -171.5 -68t-117.5 -174v-643h-168v1151h-119z" />
    <glyph glyph-name="Itilde" unicode="&#x128;" horiz-adv-x="286" 
d="M57 -25v1475h172v-1475h-172zM358 1661q-10 -145 -110 -145q-48 0 -101 53q-27 27 -40.5 36t-28.5 9q-33 0 -50 -22t-24 -76h-76q9 80 48 127t102 47q60 0 123 -66q23 -23 30.5 -28t16.5 -5q14 0 22 13t15 57h73z" />
    <glyph glyph-name="itilde" unicode="&#x129;" horiz-adv-x="284" 
d="M57 -25v1057h170v-1057h-170zM356 1251q-10 -145 -110 -145q-48 0 -101 53q-27 27 -40.5 36t-28.5 9q-33 0 -50 -22t-24 -76h-76q9 80 48 127t102 47q60 0 123 -66q22 -22 29.5 -27t17.5 -5q15 0 22.5 13t14.5 56h73z" />
    <glyph glyph-name="Imacron" unicode="&#x12a;" horiz-adv-x="286" 
d="M57 -25v1475h172v-1475h-172zM-55 1667h395v-100h-395v100z" />
    <glyph glyph-name="imacron" unicode="&#x12b;" horiz-adv-x="284" 
d="M57 -25v1057h170v-1057h-170zM-55 1257h395v-100h-395v100z" />
    <glyph glyph-name="Iogonek" unicode="&#x12e;" horiz-adv-x="286" 
d="M96 -266q-69 9 -116.5 51t-47.5 104q0 55 34.5 89t90.5 42v1430h172v-1475h-26l22 -14l-28 -29q-64 21 -105 21q-82 0 -82 -64q0 -68 90 -82q65 -12 119 19l25 -70q-79 -34 -148 -22z" />
    <glyph glyph-name="iogonek" unicode="&#x12f;" horiz-adv-x="284" 
d="M143 1114q-38 0 -66 28t-28 66t28 65t66 27t65.5 -27t27.5 -65t-27.5 -66t-65.5 -28zM109 -266q-69 9 -116.5 51t-47.5 104q0 52 30 85t82 44v1014h170v-1057h-12l23 -14l-29 -29q-64 21 -105 21q-81 0 -81 -64q0 -68 90 -82q65 -12 118 19l25 -70q-79 -34 -147 -22z" />
    <glyph glyph-name="Idotaccent" unicode="&#x130;" horiz-adv-x="286" 
d="M57 -25v1475h172v-1475h-172zM145 1524q-38 0 -66 28t-28 66t28 65t66 27t65.5 -27t27.5 -65t-27.5 -66t-65.5 -28z" />
    <glyph glyph-name="dotlessi" unicode="&#x131;" horiz-adv-x="284" 
d="M57 -25v1057h170v-1057h-170z" />
    <glyph glyph-name="IJ" unicode="&#x132;" horiz-adv-x="1329" 
d="M57 -25v1475h172v-1475h-172zM784 -45q-106 0 -191.5 33t-139 88.5t-81.5 125t-28 146.5v72h172v-62q0 -104 67 -165.5t201 -61.5q168 0 243 91.5t75 279.5v948h172v-948q0 -254 -125.5 -400.5t-364.5 -146.5z" />
    <glyph glyph-name="ij" unicode="&#x133;" horiz-adv-x="636" 
d="M70 -25v1057h170v-1057h-170zM154 1262q-40 0 -68.5 28t-28.5 68q0 37 28.5 64.5t68.5 27.5q37 0 64.5 -27.5t27.5 -64.5q0 -39 -27.5 -67.5t-64.5 -28.5zM260 -430q-79 -2 -152.5 35t-127.5 119l141 67q47 -67 125 -67q68 2 109.5 47t41.5 118v1143h168v-1143
q0 -143 -89.5 -229.5t-215.5 -89.5zM483 1253q-39 0 -67.5 28.5t-28.5 66.5t28 66t68 28q37 0 64.5 -28t27.5 -66t-27.5 -66.5t-64.5 -28.5z" />
    <glyph glyph-name="Jcircumflex" unicode="&#x134;" horiz-adv-x="1044" 
d="M498 -45q-106 0 -192 33t-139 88.5t-81.5 125t-28.5 146.5v72h172v-62q0 -104 67.5 -165.5t201.5 -61.5q168 0 242.5 91.5t74.5 279.5v948h172v-948q0 -254 -125 -400.5t-364 -146.5zM498 1513l141 203h117l141 -203h-111l-88 127l-90 -127h-110z" />
    <glyph glyph-name="jcircumflex" unicode="&#x135;" horiz-adv-x="442" 
d="M76 -430q-80 -2 -153.5 35.5t-127.5 118.5l142 67q47 -67 124 -67q68 2 110 47t42 118v1143h168v-1143q0 -143 -89.5 -229.5t-215.5 -89.5zM23 1104l141 203h117l141 -203h-111l-88 127l-90 -127h-110z" />
    <glyph glyph-name="uni0136" unicode="&#x136;" horiz-adv-x="1284" 
d="M57 -25v1475h172v-772l738 772h237l-639 -670l662 -805h-223l-560 678l-215 -223v-455h-172zM555 -326q68 80 68 160v98h118v-84q0 -50 -24.5 -103t-63.5 -93z" />
    <glyph glyph-name="uni0137" unicode="&#x137;" horiz-adv-x="1017" 
d="M57 -25v1475h168v-971l492 553h231l-416 -463l420 -594h-207l-329 463l-191 -211v-252h-168zM424 -326q68 80 68 160v98h118v-84q0 -50 -24.5 -103t-63.5 -93z" />
    <glyph glyph-name="Lacute" unicode="&#x139;" horiz-adv-x="964" 
d="M57 -25v1475h170v-1298h680v-177h-850zM238 1513l141 203h113l-144 -203h-110z" />
    <glyph glyph-name="lacute" unicode="&#x13a;" horiz-adv-x="282" 
d="M57 -25v1475h168v-1475h-168zM45 1528l141 203h113l-143 -203h-111z" />
    <glyph glyph-name="uni013B" unicode="&#x13b;" horiz-adv-x="964" 
d="M57 -25v1475h170v-1298h680v-177h-850zM395 -326q68 80 68 160v98h119v-84q0 -50 -24.5 -103t-63.5 -93z" />
    <glyph glyph-name="uni013C" unicode="&#x13c;" horiz-adv-x="282" 
d="M57 -25v1475h168v-1475h-168zM55 -326q68 80 68 160v98h119v-84q0 -50 -24.5 -103t-63.5 -93z" />
    <glyph glyph-name="Lcaron" unicode="&#x13d;" horiz-adv-x="964" 
d="M57 -25v1475h170v-1298h680v-177h-850zM401 780l142 203h112l-143 -203h-111z" />
    <glyph glyph-name="lcaron" unicode="&#x13e;" horiz-adv-x="282" 
d="M57 -25v1475h168v-1475h-168zM283 1104l141 203h113l-144 -203h-110z" />
    <glyph glyph-name="Lslash" unicode="&#x141;" horiz-adv-x="964" 
d="M57 -25v560l-104 -19l-21 115l125 22v797h170v-768l156 27l20 -113l-176 -31v-413h680v-177h-850z" />
    <glyph glyph-name="lslash" unicode="&#x142;" horiz-adv-x="282" 
d="M57 -25v560l-104 -19l-21 115l125 22v797h168v-768l158 27l20 -113l-178 -31v-590h-168z" />
    <glyph glyph-name="Nacute" unicode="&#x143;" horiz-adv-x="1323" 
d="M57 -25v1475h156l883 -1141v1141h170v-1473l-125 -2l-912 1176v-1176h-172zM535 1513l141 203h112l-143 -203h-110z" />
    <glyph glyph-name="nacute" unicode="&#x144;" 
d="M57 -25v1057h168v-172q62 72 143.5 122t163.5 50q115 0 198.5 -56t123 -147t39.5 -206v-648h-168v648q0 111 -61 175t-150 62q-95 -1 -169.5 -64t-119.5 -167v-654h-168zM348 1104l141 203h113l-143 -203h-111z" />
    <glyph glyph-name="uni0145" unicode="&#x145;" horiz-adv-x="1323" 
d="M57 -25v1475h156l883 -1141v1141h170v-1473l-125 -2l-912 1176v-1176h-172zM575 -326q68 80 68 160v98h119v-84q0 -50 -24.5 -103t-63.5 -93z" />
    <glyph glyph-name="uni0146" unicode="&#x146;" 
d="M57 -25v1057h168v-172q62 72 143.5 122t163.5 50q115 0 198.5 -56t123 -147t39.5 -206v-648h-168v648q0 111 -61 175t-150 62q-95 -1 -169.5 -64t-119.5 -167v-654h-168zM389 -326q68 80 68 160v98h118v-84q0 -50 -24.5 -103t-63.5 -93z" />
    <glyph glyph-name="Ncaron" unicode="&#x147;" horiz-adv-x="1323" 
d="M57 -25v1475h156l883 -1141v1141h170v-1473l-125 -2l-912 1176v-1176h-172zM461 1712h110l91 -127l90 127h110l-141 -203h-119z" />
    <glyph glyph-name="ncaron" unicode="&#x148;" 
d="M57 -25v1057h168v-172q62 72 143.5 122t163.5 50q115 0 198.5 -56t123 -147t39.5 -206v-648h-168v648q0 111 -61 175t-150 62q-95 -1 -169.5 -64t-119.5 -167v-654h-168zM274 1303h111l90 -127l90 127h111l-141 -203h-119z" />
    <glyph glyph-name="Omacron" unicode="&#x14c;" horiz-adv-x="1439" 
d="M719 -45q-137 0 -257.5 54t-210.5 150.5t-142 240.5t-52 315t52 315t142 240.5t210.5 150.5t257.5 54t257.5 -54t210.5 -150.5t142.5 -240.5t52.5 -315t-52 -314.5t-141.5 -240.5t-210.5 -151t-259 -54zM719 131q216 0 354.5 154.5t138.5 429.5q0 139 -37.5 251
t-104.5 184.5t-156.5 111t-194.5 38.5q-104 0 -193 -38.5t-155.5 -111t-104 -184.5t-37.5 -251q0 -274 138 -429t352 -155zM522 1667h396v-100h-396v100z" />
    <glyph glyph-name="omacron" unicode="&#x14d;" horiz-adv-x="1038" 
d="M520 -25q-91 0 -174.5 36t-148 102t-102.5 167.5t-38 223.5q0 123 38 224.5t102.5 167t147.5 101t175 35.5t175 -35.5t147 -101t101.5 -167t37.5 -224.5q0 -122 -38 -223.5t-102 -167.5t-147 -102t-174 -36zM520 147q127 0 210 92.5t83 264.5q0 174 -82 265t-211 91
t-212 -91.5t-83 -264.5q0 -172 83.5 -264.5t211.5 -92.5zM322 1257h395v-100h-395v100z" />
    <glyph glyph-name="Ohungarumlaut" unicode="&#x150;" horiz-adv-x="1439" 
d="M719 -45q-137 0 -257.5 54t-210.5 150.5t-142 240.5t-52 315t52 315t142 240.5t210.5 150.5t257.5 54t257.5 -54t210.5 -150.5t142.5 -240.5t52.5 -315t-52 -314.5t-141.5 -240.5t-210.5 -151t-259 -54zM719 131q216 0 354.5 154.5t138.5 429.5q0 139 -37.5 251
t-104.5 184.5t-156.5 111t-194.5 38.5q-104 0 -193 -38.5t-155.5 -111t-104 -184.5t-37.5 -251q0 -274 138 -429t352 -155zM508 1513l141 203h113l-144 -203h-110zM678 1513l141 203h113l-144 -203h-110z" />
    <glyph glyph-name="ohungarumlaut" unicode="&#x151;" horiz-adv-x="1038" 
d="M520 -25q-91 0 -174.5 36t-148 102t-102.5 167.5t-38 223.5q0 123 38 224.5t102.5 167t147.5 101t175 35.5t175 -35.5t147 -101t101.5 -167t37.5 -224.5q0 -122 -38 -223.5t-102 -167.5t-147 -102t-174 -36zM520 147q127 0 210 92.5t83 264.5q0 174 -82 265t-211 91
t-212 -91.5t-83 -264.5q0 -172 83.5 -264.5t211.5 -92.5zM307 1104l142 203h112l-143 -203h-111zM477 1104l141 203h113l-143 -203h-111z" />
    <glyph glyph-name="OE" unicode="&#x152;" horiz-adv-x="2234" 
d="M719 -45q-137 0 -257.5 54t-210.5 150.5t-142 240.5t-52 315t52 315t142 240.5t210.5 150.5t257.5 54q145 0 272.5 -60.5t218.5 -171.5v197h959v-174h-787v-451h729v-176h-729v-498h793v-174h-965v219q-91 -111 -217.5 -171t-273.5 -60zM719 131q202 0 338 137t153 383
v127q-17 247 -152.5 384.5t-338.5 137.5q-104 0 -193 -38.5t-155.5 -111t-104 -184.5t-37.5 -251q0 -274 138 -429t352 -155z" />
    <glyph glyph-name="oe" unicode="&#x153;" horiz-adv-x="1796" 
d="M520 -25q-91 0 -174.5 36t-148 102t-102.5 167.5t-38 223.5q0 123 38 224.5t102.5 167t147.5 101t175 35.5q121 0 224 -59.5t165 -169.5q62 101 160 159t221 58q205 0 329.5 -144.5t119.5 -359.5v-94h-740q12 -133 99 -210t207 -77q150 2 243 129l156 -53
q-54 -105 -162.5 -176.5t-236.5 -71.5q-129 0 -234.5 61.5t-169.5 170.5q-62 -105 -163 -162.5t-218 -57.5zM520 147q127 0 210 92.5t83 264.5q0 174 -82 265t-211 91t-212 -91.5t-83 -264.5q0 -172 83.5 -264.5t211.5 -92.5zM1569 557q-5 130 -80.5 210.5t-198.5 80.5
q-113 0 -197.5 -79t-99.5 -212h576z" />
    <glyph glyph-name="Racute" unicode="&#x154;" horiz-adv-x="1226" 
d="M57 -25v1475h547q230 0 365 -131t133 -350q-2 -162 -84.5 -277t-245.5 -149l397 -568l-217 2l-368 525h-355v-527h-172zM596 678q180 0 256 70.5t76 220.5q0 149 -84.5 228t-241.5 79h-373v-598h367zM487 1513l142 203h112l-143 -203h-111z" />
    <glyph glyph-name="racute" unicode="&#x155;" horiz-adv-x="860" 
d="M57 -25v1057h168v-155q54 62 132 108.5t155 46.5q140 0 215.5 -93t75.5 -255v-61h-156l-2 65q0 76 -39 124t-114 48q-87 0 -157.5 -64t-109.5 -165v-656h-168zM303 1104l141 203h113l-143 -203h-111z" />
    <glyph glyph-name="uni0156" unicode="&#x156;" horiz-adv-x="1226" 
d="M57 -25v1475h547q230 0 365 -131t133 -350q-2 -162 -84.5 -277t-245.5 -149l397 -568l-217 2l-368 525h-355v-527h-172zM596 678q180 0 256 70.5t76 220.5q0 149 -84.5 228t-241.5 79h-373v-598h367zM526 -326q68 80 68 160v98h119v-84q0 -50 -24.5 -103t-63.5 -93z" />
    <glyph glyph-name="uni0157" unicode="&#x157;" horiz-adv-x="860" 
d="M57 -25v1057h168v-155q54 62 132 108.5t155 46.5q140 0 215.5 -93t75.5 -255v-61h-156l-2 65q0 76 -39 124t-114 48q-87 0 -157.5 -64t-109.5 -165v-656h-168zM35 -338q67 79 67 160v98h119v-84q0 -50 -24.5 -103t-63.5 -93z" />
    <glyph glyph-name="Rcaron" unicode="&#x158;" horiz-adv-x="1226" 
d="M57 -25v1475h547q230 0 365 -131t133 -350q-2 -162 -84.5 -277t-245.5 -149l397 -568l-217 2l-368 525h-355v-527h-172zM596 678q180 0 256 70.5t76 220.5q0 149 -84.5 228t-241.5 79h-373v-598h367zM414 1712h110l90 -127l91 127h110l-141 -203h-119z" />
    <glyph glyph-name="rcaron" unicode="&#x159;" horiz-adv-x="860" 
d="M57 -25v1057h168v-155q54 62 132 108.5t155 46.5q140 0 215.5 -93t75.5 -255v-61h-156l-2 65q0 76 -39 124t-114 48q-87 0 -157.5 -64t-109.5 -165v-656h-168zM229 1303h111l90 -127l90 127h111l-142 -203h-118z" />
    <glyph glyph-name="Sacute" unicode="&#x15a;" horiz-adv-x="1198" 
d="M616 -45q-254 0 -405 126t-152 363l168 -2q0 -139 99 -227t280 -88q91 0 162.5 25t113 67t62.5 91.5t21 103.5q0 189 -248 215l-303 26q-180 18 -268.5 111.5t-88.5 247.5q0 86 33.5 167t97 147.5t166.5 106.5t230 40q110 0 202 -27t165 -81.5t115 -145.5t44 -211h-172
q-8 136 -93 214.5t-261 78.5q-158 0 -257.5 -82.5t-99.5 -194.5q0 -94 59 -139.5t183 -57.5l295 -26q193 -18 285 -121.5t92 -257.5q0 -67 -18.5 -132t-59.5 -126.5t-100.5 -108t-149 -74.5t-197.5 -28zM473 1513l141 203h113l-143 -203h-111z" />
    <glyph glyph-name="sacute" unicode="&#x15b;" horiz-adv-x="911" 
d="M461 -25q-111 0 -197.5 36t-141 116t-54.5 195h163q0 -84 58 -134.5t182 -50.5q106 0 160.5 46t54.5 108q0 55 -34.5 88t-121.5 41l-208 24q-265 29 -265 265q0 137 108 230t275 93q173 0 274 -83t101 -249l-162 5q0 77 -52 122t-165 45q-104 0 -157.5 -44t-53.5 -103
q0 -99 158 -117l168 -16q87 -8 148 -33.5t94 -66t47 -87t14 -106.5q2 -135 -103.5 -229.5t-289.5 -94.5zM330 1104l141 203h113l-144 -203h-110z" />
    <glyph glyph-name="Scircumflex" unicode="&#x15c;" horiz-adv-x="1198" 
d="M616 -45q-254 0 -405 126t-152 363l168 -2q0 -139 99 -227t280 -88q91 0 162.5 25t113 67t62.5 91.5t21 103.5q0 189 -248 215l-303 26q-180 18 -268.5 111.5t-88.5 247.5q0 86 33.5 167t97 147.5t166.5 106.5t230 40q110 0 202 -27t165 -81.5t115 -145.5t44 -211h-172
q-8 136 -93 214.5t-261 78.5q-158 0 -257.5 -82.5t-99.5 -194.5q0 -94 59 -139.5t183 -57.5l295 -26q193 -18 285 -121.5t92 -257.5q0 -67 -18.5 -132t-59.5 -126.5t-100.5 -108t-149 -74.5t-197.5 -28zM399 1513l142 203h116l142 -203h-111l-88 127l-90 -127h-111z" />
    <glyph glyph-name="scircumflex" unicode="&#x15d;" horiz-adv-x="911" 
d="M461 -25q-111 0 -197.5 36t-141 116t-54.5 195h163q0 -84 58 -134.5t182 -50.5q106 0 160.5 46t54.5 108q0 55 -34.5 88t-121.5 41l-208 24q-265 29 -265 265q0 137 108 230t275 93q173 0 274 -83t101 -249l-162 5q0 77 -52 122t-165 45q-104 0 -157.5 -44t-53.5 -103
q0 -99 158 -117l168 -16q87 -8 148 -33.5t94 -66t47 -87t14 -106.5q2 -135 -103.5 -229.5t-289.5 -94.5zM256 1104l141 203h117l141 -203h-110l-88 127l-90 -127h-111z" />
    <glyph glyph-name="Scedilla" unicode="&#x15e;" horiz-adv-x="1198" 
d="M616 -45h-36l-15 -86q27 6 49 6q69 0 113.5 -34.5t44.5 -96.5q0 -63 -47 -106t-117 -52q-71 -9 -147 23l24 72q58 -34 121 -19q90 14 90 82q0 63 -84 63q-42 0 -102 -22l-29 29l25 147q-207 27 -326.5 150.5t-120.5 332.5l168 -2q0 -139 99 -227t280 -88q91 0 162.5 25
t113 67t62.5 91.5t21 103.5q0 189 -248 215l-303 26q-180 18 -268.5 111.5t-88.5 247.5q0 86 33.5 167t97 147.5t166.5 106.5t230 40q110 0 202 -27t165 -81.5t115 -145.5t44 -211h-172q-8 136 -93 214.5t-261 78.5q-158 0 -257.5 -82.5t-99.5 -194.5q0 -94 59 -139.5
t183 -57.5l295 -26q193 -18 285 -121.5t92 -257.5q0 -67 -18.5 -132t-59.5 -126.5t-100.5 -108t-149 -74.5t-197.5 -28z" />
    <glyph glyph-name="scedilla" unicode="&#x15f;" horiz-adv-x="911" 
d="M461 -25l-39 2l-16 -104q27 6 49 6q69 0 113 -34.5t44 -96.5q0 -63 -46.5 -106t-116.5 -52q-72 -10 -148 23l25 72q58 -33 120 -19q91 14 91 82q0 31 -22 47.5t-62 16.5t-103 -23l-28 29l26 168q-128 26 -204 111t-76 225h163q0 -84 58 -134.5t182 -50.5q106 0 160.5 46
t54.5 108q0 55 -34.5 88t-121.5 41l-208 24q-265 29 -265 265q0 137 108 230t275 93q173 0 274 -83t101 -249l-162 5q0 77 -52 122t-165 45q-104 0 -157.5 -44t-53.5 -103q0 -99 158 -117l168 -16q87 -8 148 -33.5t94 -66t47 -87t14 -106.5q2 -135 -103.5 -229.5
t-289.5 -94.5z" />
    <glyph glyph-name="Scaron" unicode="&#x160;" horiz-adv-x="1198" 
d="M616 -45q-254 0 -405 126t-152 363l168 -2q0 -139 99 -227t280 -88q91 0 162.5 25t113 67t62.5 91.5t21 103.5q0 189 -248 215l-303 26q-180 18 -268.5 111.5t-88.5 247.5q0 86 33.5 167t97 147.5t166.5 106.5t230 40q110 0 202 -27t165 -81.5t115 -145.5t44 -211h-172
q-8 136 -93 214.5t-261 78.5q-158 0 -257.5 -82.5t-99.5 -194.5q0 -94 59 -139.5t183 -57.5l295 -26q193 -18 285 -121.5t92 -257.5q0 -67 -18.5 -132t-59.5 -126.5t-100.5 -108t-149 -74.5t-197.5 -28zM399 1712h111l90 -127l90 127h111l-142 -203h-118z" />
    <glyph glyph-name="scaron" unicode="&#x161;" horiz-adv-x="911" 
d="M461 -25q-111 0 -197.5 36t-141 116t-54.5 195h163q0 -84 58 -134.5t182 -50.5q106 0 160.5 46t54.5 108q0 55 -34.5 88t-121.5 41l-208 24q-265 29 -265 265q0 137 108 230t275 93q173 0 274 -83t101 -249l-162 5q0 77 -52 122t-165 45q-104 0 -157.5 -44t-53.5 -103
q0 -99 158 -117l168 -16q87 -8 148 -33.5t94 -66t47 -87t14 -106.5q2 -135 -103.5 -229.5t-289.5 -94.5zM256 1303h111l90 -127l90 127h110l-141 -203h-119z" />
    <glyph glyph-name="uni0162" unicode="&#x162;" horiz-adv-x="1308" 
d="M647 -410q-71 -9 -147 23l24 72q58 -34 121 -19q90 14 90 82q0 31 -22 47.5t-62 16.5q-39 0 -102 -23l-29 29l31 192h18v1266h-512v174h1194v-174h-512v-1301h-118l-17 -102q27 6 49 6q69 0 113.5 -34.5t44.5 -96.5q0 -63 -47 -106t-117 -52z" />
    <glyph glyph-name="uni0163" unicode="&#x163;" horiz-adv-x="727" 
d="M264 -410q-71 -9 -147 23l24 72q58 -34 121 -19q90 14 90 82q0 31 -22 47.5t-62 16.5q-39 0 -102 -23l-29 29l31 192h27v871h-138v151h138v418h167v-418h308v-151h-308v-906h-124l-17 -102q27 6 49 6q69 0 113.5 -34.5t44.5 -96.5q0 -63 -47 -106t-117 -52z" />
    <glyph glyph-name="Tcaron" unicode="&#x164;" horiz-adv-x="1308" 
d="M569 -25v1301h-512v174h1194v-174h-512v-1301h-170zM455 1712h110l90 -127l90 127h111l-141 -203h-119z" />
    <glyph glyph-name="tcaron" unicode="&#x165;" horiz-adv-x="727" 
d="M195 -25v906h-138v151h138v418h167v-418h308v-151h-308v-906h-167zM444 1104l142 203h112l-143 -203h-111z" />
    <glyph glyph-name="Utilde" unicode="&#x168;" horiz-adv-x="1304" 
d="M653 -35q-274 0 -435 184.5t-161 528.5v772h172v-772q0 -279 108.5 -408t315.5 -129q210 0 316 128.5t106 408.5v772h172v-772q0 -346 -159.5 -529.5t-434.5 -183.5zM866 1661q-10 -145 -110 -145q-48 0 -101 53q-27 27 -40.5 36t-28.5 9q-33 0 -50 -22t-24 -76h-76
q9 80 48 127t102 47q60 0 123 -66q23 -23 30.5 -28t16.5 -5q14 0 22 13t15 57h73z" />
    <glyph glyph-name="utilde" unicode="&#x169;" 
d="M418 -25q-171 0 -266 117t-95 293v647h168v-645q0 -112 61 -176t150 -64q94 1 169 64.5t120 167.5v653h168v-1057h-168v175q-61 -73 -142.5 -124t-164.5 -51zM690 1251q-10 -145 -110 -145q-48 0 -101 53q-27 27 -40.5 36t-28.5 9q-33 0 -50 -22t-24 -76h-76q9 80 48 127
t102 47q59 0 122 -66q22 -22 30 -27t18 -5q14 0 21.5 12.5t14.5 56.5h74z" />
    <glyph glyph-name="Umacron" unicode="&#x16a;" horiz-adv-x="1304" 
d="M653 -35q-274 0 -435 184.5t-161 528.5v772h172v-772q0 -279 108.5 -408t315.5 -129q210 0 316 128.5t106 408.5v772h172v-772q0 -346 -159.5 -529.5t-434.5 -183.5zM455 1667h395v-100h-395v100z" />
    <glyph glyph-name="umacron" unicode="&#x16b;" 
d="M418 -25q-171 0 -266 117t-95 293v647h168v-645q0 -112 61 -176t150 -64q94 1 169 64.5t120 167.5v653h168v-1057h-168v175q-61 -73 -142.5 -124t-164.5 -51zM276 1257h396v-100h-396v100z" />
    <glyph glyph-name="Ubreve" unicode="&#x16c;" horiz-adv-x="1304" 
d="M653 -35q-274 0 -435 184.5t-161 528.5v772h172v-772q0 -279 108.5 -408t315.5 -129q210 0 316 128.5t106 408.5v772h172v-772q0 -346 -159.5 -529.5t-434.5 -183.5zM864 1708q-17 -83 -76.5 -137.5t-134.5 -54.5q-79 0 -137.5 54t-73.5 138h86q11 -48 45 -80.5t80 -32.5
q48 0 82.5 35t44.5 78h84z" />
    <glyph glyph-name="ubreve" unicode="&#x16d;" 
d="M418 -25q-171 0 -266 117t-95 293v647h168v-645q0 -112 61 -176t150 -64q94 1 169 64.5t120 167.5v653h168v-1057h-168v175q-61 -73 -142.5 -124t-164.5 -51zM686 1298q-17 -83 -76.5 -137.5t-134.5 -54.5q-79 0 -137.5 54t-73.5 138h86q11 -48 45 -80t80 -32
q48 0 82.5 35t44.5 77h84z" />
    <glyph glyph-name="Uring" unicode="&#x16e;" horiz-adv-x="1304" 
d="M653 -35q-274 0 -435 184.5t-161 528.5v772h172v-772q0 -279 108.5 -408t315.5 -129q210 0 316 128.5t106 408.5v772h172v-772q0 -346 -159.5 -529.5t-434.5 -183.5zM653 1509q-47 0 -77.5 31t-30.5 76q0 41 31 71.5t77 30.5q45 0 76 -30.5t31 -71.5q0 -45 -31 -76
t-76 -31zM653 1571q21 0 32 13t11 32q0 16 -11.5 28.5t-31.5 12.5t-31.5 -11.5t-11.5 -29.5q0 -20 12 -32.5t31 -12.5z" />
    <glyph glyph-name="uring" unicode="&#x16f;" 
d="M418 -25q-171 0 -266 117t-95 293v647h168v-645q0 -112 61 -176t150 -64q94 1 169 64.5t120 167.5v653h168v-1057h-168v175q-61 -73 -142.5 -124t-164.5 -51zM475 1100q-47 0 -77.5 30.5t-30.5 75.5q0 41 31 72t77 31q45 0 76 -31t31 -72q0 -44 -31 -75t-76 -31z
M475 1161q21 0 32 13t11 32q0 16 -11.5 28.5t-31.5 12.5t-31.5 -11.5t-11.5 -29.5q0 -20 12 -32.5t31 -12.5z" />
    <glyph glyph-name="Uhungarumlaut" unicode="&#x170;" horiz-adv-x="1304" 
d="M653 -35q-274 0 -435 184.5t-161 528.5v772h172v-772q0 -279 108.5 -408t315.5 -129q210 0 316 128.5t106 408.5v772h172v-772q0 -346 -159.5 -529.5t-434.5 -183.5zM440 1513l142 203h112l-143 -203h-111zM610 1513l142 203h112l-143 -203h-111z" />
    <glyph glyph-name="uhungarumlaut" unicode="&#x171;" 
d="M418 -25q-171 0 -266 117t-95 293v647h168v-645q0 -112 61 -176t150 -64q94 1 169 64.5t120 167.5v653h168v-1057h-168v175q-61 -73 -142.5 -124t-164.5 -51zM262 1104l141 203h113l-143 -203h-111zM432 1104l141 203h113l-143 -203h-111z" />
    <glyph glyph-name="Uogonek" unicode="&#x172;" horiz-adv-x="1304" 
d="M653 -35q-274 0 -435 184.5t-161 528.5v772h172v-772q0 -279 108.5 -408t315.5 -129q210 0 316 128.5t106 408.5v772h172v-772q0 -246 -82 -411t-233 -240l18 -7l86 -53l-28 -28q-61 20 -105 20q-82 0 -82 -63q0 -68 90 -82q67 -12 119 18l25 -70q-79 -34 -148 -22
q-69 9 -116.5 51.5t-47.5 104.5q0 43 27 77q-49 -8 -117 -8z" />
    <glyph glyph-name="uogonek" unicode="&#x173;" 
d="M418 -25q-171 0 -266 117t-95 293v647h168v-645q0 -112 61 -176t150 -64q94 1 169 64.5t120 167.5v653h168v-1052l2 -3l-29 -28q-61 20 -104 20q-82 0 -82 -63q0 -68 90 -82q67 -12 119 18l24 -69q-81 -34 -147 -23q-69 9 -116.5 51.5t-47.5 104.5q0 54 33.5 88t89.5 43
v113q-61 -73 -142.5 -124t-164.5 -51z" />
    <glyph glyph-name="Wcircumflex" unicode="&#x174;" horiz-adv-x="2164" 
d="M608 -25l-551 1475h185l411 -1116l369 1116h121l368 -1116l412 1116h184l-551 -1475h-98l-375 1135l-376 -1135h-99zM883 1513l141 203h117l141 -203h-111l-88 127l-90 -127h-110z" />
    <glyph glyph-name="wcircumflex" unicode="&#x175;" horiz-adv-x="1458" 
d="M408 -25l-351 1057h179l225 -678l219 678h102l219 -678l224 678h176l-348 -1057h-103l-219 682l-221 -682h-102zM530 1104l142 203h116l142 -203h-111l-88 127l-90 -127h-111z" />
    <glyph glyph-name="Ycircumflex" unicode="&#x176;" horiz-adv-x="1329" 
d="M580 -25v635l-523 840h207l402 -655l401 655h205l-522 -840v-635h-170zM465 1513l141 203h117l141 -203h-110l-88 127l-91 -127h-110z" />
    <glyph glyph-name="ycircumflex" unicode="&#x177;" horiz-adv-x="1073" 
d="M336 -383l153 440l-432 975h185l329 -745l265 745h180l-502 -1415h-178zM338 1104l141 203h117l141 -203h-110l-88 127l-90 -127h-111z" />
    <glyph glyph-name="Ydieresis" unicode="&#x178;" horiz-adv-x="1329" 
d="M580 -25v635l-523 840h207l402 -655l401 655h205l-522 -840v-635h-170zM567 1524q-38 0 -66 28t-28 66t28 65t66 27t65 -27t27 -65t-27 -66t-65 -28zM766 1524q-38 0 -66 28t-28 66t28 65t66 27t65 -27t27 -65t-27 -66t-65 -28z" />
    <glyph glyph-name="Zacute" unicode="&#x179;" horiz-adv-x="1191" 
d="M57 -25v136l836 1165h-836v174h1078v-135l-834 -1163h834v-177h-1078zM469 1513l141 203h113l-143 -203h-111z" />
    <glyph glyph-name="zacute" unicode="&#x17a;" horiz-adv-x="874" 
d="M57 -25v125l518 760h-509v172h749v-123l-520 -762h522v-172h-760zM311 1104l142 203h112l-143 -203h-111z" />
    <glyph glyph-name="Zdotaccent" unicode="&#x17b;" horiz-adv-x="1191" 
d="M57 -25v136l836 1165h-836v174h1078v-135l-834 -1163h834v-177h-1078zM598 1524q-38 0 -66 28t-28 66t28 65t66 27t65 -27t27 -65t-27 -66t-65 -28z" />
    <glyph glyph-name="zdotaccent" unicode="&#x17c;" horiz-adv-x="874" 
d="M57 -25v125l518 760h-509v172h749v-123l-520 -762h522v-172h-760zM438 1114q-38 0 -66 28t-28 66t28 65t66 27t65 -27t27 -65t-27 -66t-65 -28z" />
    <glyph glyph-name="Zcaron" unicode="&#x17d;" horiz-adv-x="1191" 
d="M57 -25v136l836 1165h-836v174h1078v-135l-834 -1163h834v-177h-1078zM395 1712h111l90 -127l90 127h111l-142 -203h-118z" />
    <glyph glyph-name="zcaron" unicode="&#x17e;" horiz-adv-x="874" 
d="M57 -25v125l518 760h-509v172h749v-123l-520 -762h522v-172h-760zM238 1303h110l90 -127l90 127h111l-141 -203h-119z" />
    <glyph glyph-name="uni018F" unicode="&#x18f;" horiz-adv-x="1398" 
d="M664 1464q142 0 267 -55.5t215.5 -153.5t142.5 -238t52 -302q0 -150 -46 -285.5t-128.5 -239t-207.5 -164.5t-273 -61q-191 0 -335.5 93t-217.5 249t-67 348l6 125h1089q-7 155 -77.5 271.5t-180 175.5t-239.5 59q-142 0 -249 -68.5t-196 -187.5l-139 100
q120 162 262.5 248t321.5 86zM246 596q11 -204 123 -327.5t317 -123.5q188 0 314.5 122t154.5 331z" />
    <glyph glyph-name="uni0218" unicode="&#x218;" horiz-adv-x="1198" 
d="M616 -45q-254 0 -405 126t-152 363l168 -2q0 -139 99 -227t280 -88q91 0 162.5 25t113 67t62.5 91.5t21 103.5q0 189 -248 215l-303 26q-180 18 -268.5 111.5t-88.5 247.5q0 86 33.5 167t97 147.5t166.5 106.5t230 40q110 0 202 -27t165 -81.5t115 -145.5t44 -211h-172
q-8 136 -93 214.5t-261 78.5q-158 0 -257.5 -82.5t-99.5 -194.5q0 -94 59 -139.5t183 -57.5l295 -26q193 -18 285 -121.5t92 -257.5q0 -67 -18.5 -132t-59.5 -126.5t-100.5 -108t-149 -74.5t-197.5 -28zM530 -330q68 80 68 160v98h119v-84q0 -50 -24.5 -103t-63.5 -93z" />
    <glyph glyph-name="uni0219" unicode="&#x219;" horiz-adv-x="911" 
d="M461 -25q-111 0 -197.5 36t-141 116t-54.5 195h163q0 -84 58 -134.5t182 -50.5q106 0 160.5 46t54.5 108q0 55 -34.5 88t-121.5 41l-208 24q-265 29 -265 265q0 137 108 230t275 93q173 0 274 -83t101 -249l-162 5q0 77 -52 122t-165 45q-104 0 -157.5 -44t-53.5 -103
q0 -99 158 -117l168 -16q87 -8 148 -33.5t94 -66t47 -87t14 -106.5q2 -135 -103.5 -229.5t-289.5 -94.5zM369 -326q67 79 67 160v98h119v-84q0 -50 -24.5 -103t-63.5 -93z" />
    <glyph glyph-name="uni021A" unicode="&#x21a;" horiz-adv-x="1308" 
d="M569 -25v1301h-512v174h1194v-174h-512v-1301h-170zM567 -326q68 80 68 160v98h119v-84q0 -50 -24.5 -103t-63.5 -93z" />
    <glyph glyph-name="uni021B" unicode="&#x21b;" horiz-adv-x="727" 
d="M195 -25v906h-138v151h138v418h167v-418h308v-151h-308v-906h-167zM184 -326q68 80 68 160v98h119v-84q0 -50 -24.5 -103t-63.5 -93z" />
    <glyph glyph-name="uni0237" unicode="&#x237;" horiz-adv-x="442" 
d="M76 -430q-80 -2 -153.5 35.5t-127.5 118.5l142 67q47 -67 124 -67q68 2 110 47t42 118v1143h168v-1143q0 -143 -89.5 -229.5t-215.5 -89.5z" />
    <glyph glyph-name="uni0259" unicode="&#x259;" horiz-adv-x="1028" 
d="M492 1049q206 0 342.5 -150t136.5 -379q0 -140 -55 -259t-162.5 -194t-247.5 -75q-205 0 -329.5 144.5t-119.5 359.5v94h740q-12 133 -98.5 210t-206.5 77q-151 -2 -244 -129l-156 53q54 105 163 176.5t237 71.5zM227 455q5 -130 80.5 -210.5t198.5 -80.5q113 0 197.5 79
t99.5 212h-576z" />
    <glyph glyph-name="circumflex" unicode="&#x2c6;" horiz-adv-x="397" 
d="M0 1104l141 203h117l141 -203h-110l-88 127l-90 -127h-111z" />
    <glyph glyph-name="caron" unicode="&#x2c7;" horiz-adv-x="397" 
d="M-8 1303h110l91 -127l90 127h110l-141 -203h-119z" />
    <glyph glyph-name="breve" unicode="&#x2d8;" horiz-adv-x="421" 
d="M422 1298q-17 -83 -76.5 -137.5t-134.5 -54.5q-79 0 -137.5 54t-73.5 138h86q11 -48 45 -80t80 -32q48 0 82.5 35t44.5 77h84z" />
    <glyph glyph-name="dotaccent" unicode="&#x2d9;" horiz-adv-x="186" 
d="M94 1114q-38 0 -66 28t-28 66t28 65t66 27t65 -27t27 -65t-27 -66t-65 -28z" />
    <glyph glyph-name="ring" unicode="&#x2da;" horiz-adv-x="215" 
d="M109 1100q-47 0 -78 30.5t-31 75.5q0 41 31.5 72t77.5 31q45 0 75.5 -31t30.5 -72q0 -45 -30.5 -75.5t-75.5 -30.5zM109 1161q21 0 32 13t11 32q0 16 -11.5 28.5t-31.5 12.5t-31.5 -11.5t-11.5 -29.5q0 -20 12 -32.5t31 -12.5z" />
    <glyph glyph-name="ogonek" unicode="&#x2db;" horiz-adv-x="311" 
d="M164 -348q-69 9 -116.5 51t-47.5 104q0 63 45 98.5t113 35.5q25 0 49 -9l86 -53l-29 -29q-64 21 -104 21q-82 0 -82 -64q0 -67 90 -81q67 -12 119 18l24 -70q-79 -34 -147 -22z" />
    <glyph glyph-name="tilde" unicode="&#x2dc;" horiz-adv-x="430" 
d="M430 1251q-5 -67 -32 -106t-79 -39q-47 0 -100 53q-27 27 -40.5 36t-28.5 9q-33 0 -50 -22t-24 -76h-76q9 80 48 127t102 47q59 0 122 -66q22 -22 29.5 -27t17.5 -5q15 0 22.5 13t14.5 56h74z" />
    <glyph glyph-name="hungarumlaut" unicode="&#x2dd;" horiz-adv-x="423" 
d="M0 1104l141 203h113l-143 -203h-111zM170 1104l141 203h113l-143 -203h-111z" />
    <glyph glyph-name="gravecomb" unicode="&#x300;" horiz-adv-x="0" 
d="M254 1104h-111l-143 203h113z" />
    <glyph glyph-name="acutecomb" unicode="&#x301;" horiz-adv-x="0" 
d="M0 1104l141 203h113l-143 -203h-111z" />
    <glyph glyph-name="uni0302" unicode="&#x302;" horiz-adv-x="0" 
d="M0 1104l141 203h117l141 -203h-110l-88 127l-90 -127h-111z" />
    <glyph glyph-name="tildecomb" unicode="&#x303;" horiz-adv-x="0" 
d="M430 1251q-5 -67 -32 -106t-79 -39q-47 0 -100 53q-27 27 -40.5 36t-28.5 9q-33 0 -50 -22t-24 -76h-76q9 80 48 127t102 47q59 0 122 -66q22 -22 29.5 -27t17.5 -5q15 0 22.5 13t14.5 56h74z" />
    <glyph glyph-name="uni0304" unicode="&#x304;" horiz-adv-x="0" 
d="M0 1257h395v-100h-395v100z" />
    <glyph glyph-name="uni0306" unicode="&#x306;" horiz-adv-x="0" 
d="M422 1298q-17 -83 -76.5 -137.5t-134.5 -54.5q-79 0 -137.5 54t-73.5 138h86q11 -48 45 -80t80 -32q48 0 82.5 35t44.5 77h84z" />
    <glyph glyph-name="uni0307" unicode="&#x307;" horiz-adv-x="0" 
d="M94 1114q-38 0 -66 28t-28 66t28 65t66 27t65 -27t27 -65t-27 -66t-65 -28z" />
    <glyph glyph-name="uni0308" unicode="&#x308;" horiz-adv-x="0" 
d="M94 1114q-38 0 -66 28t-28 66t28 65t66 27t65 -27t27 -65t-27 -66t-65 -28zM293 1114q-38 0 -66 28t-28 66t28 65t66 27t65 -27t27 -65t-27 -66t-65 -28z" />
    <glyph glyph-name="uni030A" unicode="&#x30a;" horiz-adv-x="0" 
d="M109 1100q-47 0 -78 30.5t-31 75.5q0 41 31.5 72t77.5 31q45 0 75.5 -31t30.5 -72q0 -45 -30.5 -75.5t-75.5 -30.5zM109 1161q21 0 32 13t11 32q0 16 -11.5 28.5t-31.5 12.5t-31.5 -11.5t-11.5 -29.5q0 -20 12 -32.5t31 -12.5z" />
    <glyph glyph-name="uni030B" unicode="&#x30b;" horiz-adv-x="0" 
d="M0 1104l141 203h113l-143 -203h-111zM170 1104l141 203h113l-143 -203h-111z" />
    <glyph glyph-name="uni030C" unicode="&#x30c;" horiz-adv-x="0" 
d="M-8 1303h110l91 -127l90 127h110l-141 -203h-119z" />
    <glyph glyph-name="uni0312" unicode="&#x312;" horiz-adv-x="0" 
d="M172 1317q-68 -71 -68 -139v-86h-118v73q0 44 25 90t63 80z" />
    <glyph glyph-name="uni0326" unicode="&#x326;" horiz-adv-x="0" 
d="M-2 -326q68 80 68 160v98h118v-84q0 -50 -24.5 -103t-63.5 -93z" />
    <glyph glyph-name="uni0327" unicode="&#x327;" horiz-adv-x="0" 
d="M156 -410q-72 -10 -148 23l25 72q58 -34 121 -19q90 14 90 82q0 31 -22 47.5t-62 16.5t-103 -23l-28 29l30 192h76l-22 -137q27 6 49 6q69 0 113 -34.5t44 -96.5q0 -63 -46.5 -106t-116.5 -52z" />
    <glyph glyph-name="uni0328" unicode="&#x328;" horiz-adv-x="0" 
d="M164 -348q-69 9 -116.5 51t-47.5 104q0 63 45 98.5t113 35.5q25 0 49 -9l86 -53l-29 -29q-64 21 -104 21q-82 0 -82 -64q0 -67 90 -81q67 -12 119 18l24 -70q-79 -34 -147 -22z" />
    <glyph glyph-name="uni1E20" unicode="&#x1e20;" horiz-adv-x="1431" 
d="M721 -45q-137 0 -258 54t-211 150.5t-142.5 240.5t-52.5 315t52.5 315t142.5 240.5t211 150.5t258 54q253 0 429 -164t222 -439h-172q-36 203 -165.5 315.5t-313.5 112.5q-98 0 -186 -39t-156.5 -111t-109 -184.5t-40.5 -250.5q0 -137 40 -249.5t108 -184.5t156.5 -111
t187.5 -39q178 0 302 103t165 282v21h-570v174h756v-736h-176v279q-65 -139 -196 -219t-281 -80zM518 1667h395v-100h-395v100z" />
    <glyph glyph-name="uni1E21" unicode="&#x1e21;" horiz-adv-x="1013" 
d="M487 -637q-189 0 -307.5 108.5t-118.5 264.5q0 88 31.5 152t91.5 122q-46 26 -77 76t-31 109q0 115 78 178q-84 113 -84 258q0 173 110 287t279 114t276 -110h2q68 110 219 110v-151q-22 0 -44.5 -5.5t-52 -27t-44.5 -57.5q33 -74 33 -160q0 -174 -109 -289t-280 -115
q-92 0 -180 56q-19 -19 -37 -82q-7 -50 30 -77.5t105 -27.5h198q168 0 263.5 -95t95.5 -249q0 -72 -28 -140t-80.5 -124t-139 -90.5t-192.5 -34.5h-7zM530 -467q106 0 171 63t65 152q0 76 -45.5 127t-138.5 51h-222h-28q-43 -28 -73 -78t-30 -112q0 -86 64 -144.5t158 -58.5
h79zM459 399q100 0 160.5 66.5t60.5 165.5q0 98 -60.5 164.5t-160.5 66.5q-101 0 -161 -66t-60 -165q0 -100 60 -166t161 -66zM309 1257h396v-100h-396v100z" />
    <glyph glyph-name="Wgrave" unicode="&#x1e80;" horiz-adv-x="2164" 
d="M608 -25l-551 1475h185l411 -1116l369 1116h121l368 -1116l412 1116h184l-551 -1475h-98l-375 1135l-376 -1135h-99zM1210 1513h-110l-144 203h113z" />
    <glyph glyph-name="wgrave" unicode="&#x1e81;" horiz-adv-x="1458" 
d="M408 -25l-351 1057h179l225 -678l219 678h102l219 -678l224 678h176l-348 -1057h-103l-219 682l-221 -682h-102zM856 1104h-111l-143 203h113z" />
    <glyph glyph-name="Wacute" unicode="&#x1e82;" horiz-adv-x="2164" 
d="M608 -25l-551 1475h185l411 -1116l369 1116h121l368 -1116l412 1116h184l-551 -1475h-98l-375 1135l-376 -1135h-99zM956 1513l142 203h112l-143 -203h-111z" />
    <glyph glyph-name="wacute" unicode="&#x1e83;" horiz-adv-x="1458" 
d="M408 -25l-351 1057h179l225 -678l219 678h102l219 -678l224 678h176l-348 -1057h-103l-219 682l-221 -682h-102zM602 1104l141 203h113l-143 -203h-111z" />
    <glyph glyph-name="Wdieresis" unicode="&#x1e84;" horiz-adv-x="2164" 
d="M608 -25l-551 1475h185l411 -1116l369 1116h121l368 -1116l412 1116h184l-551 -1475h-98l-375 1135l-376 -1135h-99zM985 1524q-38 0 -66 28t-28 66t28 65t66 27t65 -27t27 -65t-27 -66t-65 -28zM1184 1524q-38 0 -66 28t-28 66t28 65t66 27t65 -27t27 -65t-27 -66
t-65 -28z" />
    <glyph glyph-name="wdieresis" unicode="&#x1e85;" horiz-adv-x="1458" 
d="M408 -25l-351 1057h179l225 -678l219 678h102l219 -678l224 678h176l-348 -1057h-103l-219 682l-221 -682h-102zM631 1114q-38 0 -66 28t-28 66t28 65t66 27t65 -27t27 -65t-27 -66t-65 -28zM829 1114q-38 0 -66 28t-28 66t28 65t66 27t65.5 -27t27.5 -65t-27.5 -66
t-65.5 -28z" />
    <glyph glyph-name="uni1E9E" unicode="&#x1e9e;" horiz-adv-x="1073" 
d="M504 1436q204 0 324 -104t120 -281q0 -203 -157 -295q108 -50 166.5 -140.5t58.5 -209.5q0 -190 -138 -308t-368 -118h-121v174h131q145 0 232.5 67t87.5 185q0 117 -83 185t-212 68h-68v168h58q237 0 237 220q0 105 -75 161t-193 56h-2q-122 0 -197.5 -56t-75.5 -161
v-1067h-172v1071q0 177 121 281t324 104h2z" />
    <glyph glyph-name="uni1EBC" unicode="&#x1ebc;" horiz-adv-x="1083" 
d="M57 -23v1473h959v-174h-787v-451h729v-176h-729v-497h793v-175h-965zM756 1661q-5 -67 -32 -106t-79 -39q-47 0 -100 53q-45 45 -70 45q-33 0 -50 -22t-24 -76h-75q9 80 47.5 127t101.5 47q60 0 123 -66q23 -23 30.5 -28t16.5 -5q14 0 22 13t15 57h74z" />
    <glyph glyph-name="uni1EBD" unicode="&#x1ebd;" horiz-adv-x="1028" 
d="M537 -25q-206 0 -343 150t-137 379q0 140 55 259t162.5 194t247.5 75q205 0 329.5 -144.5t119.5 -359.5v-94h-740q12 -133 99 -210t207 -77q150 2 243 129l156 -53q-54 -105 -162.5 -176.5t-236.5 -71.5zM801 569q-5 130 -80.5 210.5t-198.5 80.5q-113 0 -197.5 -79
t-99.5 -212h576zM729 1251q-5 -67 -32 -106t-79 -39q-47 0 -100 53q-27 27 -40.5 36t-28.5 9q-33 0 -50 -22t-24 -76h-76q9 80 48 127t102 47q59 0 122 -66q22 -22 29.5 -27t17.5 -5q15 0 22.5 13t14.5 56h74z" />
    <glyph glyph-name="Ygrave" unicode="&#x1ef2;" horiz-adv-x="1329" 
d="M580 -25v635l-523 840h207l402 -655l401 655h205l-522 -840v-635h-170zM793 1513h-111l-143 203h112z" />
    <glyph glyph-name="ygrave" unicode="&#x1ef3;" horiz-adv-x="1073" 
d="M336 -383l153 440l-432 975h185l329 -745l265 745h180l-502 -1415h-178zM664 1104h-111l-143 203h112z" />
    <glyph glyph-name="uni1EF8" unicode="&#x1ef8;" horiz-adv-x="1329" 
d="M580 -25v635l-523 840h207l402 -655l401 655h205l-522 -840v-635h-170zM879 1661q-5 -67 -32 -106t-79 -39q-47 0 -100 53q-45 45 -70 45q-33 0 -50 -22t-24 -76h-75q9 80 47.5 127t101.5 47q60 0 123 -66q23 -23 30.5 -28t16.5 -5q14 0 22 13t15 57h74z" />
    <glyph glyph-name="uni1EF9" unicode="&#x1ef9;" horiz-adv-x="1073" 
d="M336 -383l153 440l-432 975h185l329 -745l265 745h180l-502 -1415h-178zM752 1251q-5 -67 -32 -106t-79 -39q-47 0 -100 53q-45 45 -70 45q-33 0 -50 -22t-24 -76h-75q9 80 47.5 127t101.5 47q60 0 123 -66q22 -22 29.5 -27t17.5 -5q15 0 22.5 13t14.5 56h74z" />
    <glyph glyph-name="endash" unicode="&#x2013;" horiz-adv-x="522" 
d="M57 371v141h410v-141h-410z" />
    <glyph glyph-name="emdash" unicode="&#x2014;" horiz-adv-x="987" 
d="M57 434v141h875v-141h-875z" />
    <glyph glyph-name="quoteleft" unicode="&#x2018;" horiz-adv-x="319" 
d="M57 1053q74 121 74 235v146h131v-125q0 -74 -26.5 -152t-69.5 -135z" />
    <glyph glyph-name="quoteright" unicode="&#x2019;" horiz-adv-x="319" 
d="M57 1053q74 121 74 235v146h131v-125q0 -74 -26.5 -152t-69.5 -135z" />
    <glyph glyph-name="quotesinglbase" unicode="&#x201a;" horiz-adv-x="231" 
d="M57 -260v444h117v-116l-27 -328h-90z" />
    <glyph glyph-name="quotedblleft" unicode="&#x201c;" horiz-adv-x="550" 
d="M57 1053q74 121 74 235v146h131v-125q0 -74 -26.5 -152t-69.5 -135zM291 1053q74 121 74 235v146h131v-125q0 -75 -27.5 -152.5t-71.5 -134.5z" />
    <glyph glyph-name="quotedblright" unicode="&#x201d;" horiz-adv-x="538" 
d="M57 1053q74 121 74 235v146h131v-125q0 -74 -26.5 -152t-69.5 -135zM276 1053q74 121 74 235v146h131v-125q0 -74 -26.5 -152t-69.5 -135z" />
    <glyph glyph-name="quotedblbase" unicode="&#x201e;" horiz-adv-x="409" 
d="M236 -260v444h116v-116l-26 -328h-90zM57 -260v444h117v-116l-27 -328h-90z" />
    <glyph glyph-name="dagger" unicode="&#x2020;" horiz-adv-x="942" 
d="M887 805h-355v-705h-120v705h-355v121h355v377h120v-377h355v-121z" />
    <glyph glyph-name="bullet" unicode="&#x2022;" horiz-adv-x="497" 
d="M250 541q-88 0 -140.5 51.5t-52.5 136.5v2q0 83 53 136t140 53q86 0 139 -53t53 -140q0 -83 -52.5 -134.5t-139.5 -51.5z" />
    <glyph glyph-name="ellipsis" unicode="&#x2026;" horiz-adv-x="993" 
d="M381 109q0 54 36 84.5t79.5 30.5t79.5 -30.5t36 -84.5q0 -51 -36 -80.5t-79.5 -29.5t-79.5 29.5t-36 80.5zM57 111q0 54 36.5 84.5t79.5 30.5t79.5 -30.5t36.5 -84.5q0 -41 -24 -69.5t-58 -35t-68 0t-58 35t-24 69.5zM707 109q0 54 36 84.5t79.5 30.5t79.5 -30.5
t36 -84.5q0 -51 -36 -80.5t-79.5 -29.5t-79.5 29.5t-36 80.5z" />
    <glyph glyph-name="guilsinglleft" unicode="&#x2039;" horiz-adv-x="567" 
d="M326 160l-269 362l269 361h184l-270 -361l270 -362h-184z" />
    <glyph glyph-name="guilsinglright" unicode="&#x203a;" horiz-adv-x="567" 
d="M242 158h-185l271 362l-271 361h185l268 -361z" />
    <glyph glyph-name="Euro" unicode="&#x20ac;" horiz-adv-x="1523" 
d="M821 -47q-220 0 -390.5 134.5t-235.5 365.5h-199v145h170q-6 52 -6 111h-164v145h174q26 188 119 329.5t231 215.5t301 74q252 0 429.5 -166.5t222.5 -436.5h-173q-36 201 -165.5 314.5t-313.5 113.5q-174 0 -307.5 -117.5t-169.5 -326.5h393v-145h-405q0 -64 8 -111h397
v-145h-362q57 -153 175 -238.5t271 -85.5q195 0 324 123t160 332h170q-39 -293 -220 -462t-434 -169z" />
    <glyph glyph-name="trademark" unicode="&#x2122;" horiz-adv-x="1361" 
d="M397 649h-108v602h-238v105h658l256 -416l252 416h83v-707h-110v459l-191 -311h-71l-191 313v-461h-112v602h-228v-602z" />
    <glyph glyph-name="uniA78B" unicode="&#xa78b;" horiz-adv-x="231" 
d="M57 997v445h117v-117l-27 -328h-90z" />
    <glyph glyph-name="uniA78C" unicode="&#xa78c;" horiz-adv-x="231" 
d="M57 997v445h117v-117l-27 -328h-90z" />
    <glyph glyph-name="Slash" horiz-adv-x="958" 
d="M225 -317h-168l676 1847h168z" />
    <glyph glyph-name="uni004A0301" horiz-adv-x="1044" 
d="M498 -45q-106 0 -192 33t-139 88.5t-81.5 125t-28.5 146.5v72h172v-62q0 -104 67.5 -165.5t201.5 -61.5q168 0 242.5 91.5t74.5 279.5v948h172v-948q0 -254 -125 -400.5t-364 -146.5zM569 1513l142 203h112l-143 -203h-111z" />
    <glyph glyph-name="uni013B.loclMAH" horiz-adv-x="964" 
d="M57 -25v1475h170v-1298h680v-177h-850zM395 -326q68 80 68 160v98h119v-84q0 -50 -24.5 -103t-63.5 -93z" />
    <glyph glyph-name="uni0145.loclMAH" horiz-adv-x="1323" 
d="M57 -25v1475h156l883 -1141v1141h170v-1473l-125 -2l-912 1176v-1176h-172zM575 -326q68 80 68 160v98h119v-84q0 -50 -24.5 -103t-63.5 -93z" />
    <glyph glyph-name="i.loclTRK" horiz-adv-x="284" 
d="M57 -25v1057h170v-1057h-170zM143 1114q-38 0 -66 28t-28 66t28 65t66 27t65.5 -27t27.5 -65t-27.5 -66t-65.5 -28z" />
    <glyph glyph-name="uni006A0301" horiz-adv-x="442" 
d="M76 -430q-80 -2 -153.5 35.5t-127.5 118.5l142 67q47 -67 124 -67q68 2 110 47t42 118v1143h168v-1143q0 -143 -89.5 -229.5t-215.5 -89.5zM96 1104l142 203h112l-143 -203h-111z" />
    <glyph glyph-name="uni013C.loclMAH" horiz-adv-x="282" 
d="M57 -25v1475h168v-1475h-168zM55 -326q68 80 68 160v98h119v-84q0 -50 -24.5 -103t-63.5 -93z" />
    <glyph glyph-name="uni0146.loclMAH" 
d="M57 -25v1057h168v-172q62 72 143.5 122t163.5 50q115 0 198.5 -56t123 -147t39.5 -206v-648h-168v648q0 111 -61 175t-150 62q-95 -1 -169.5 -64t-119.5 -167v-654h-168zM389 -326q68 80 68 160v98h118v-84q0 -50 -24.5 -103t-63.5 -93z" />
    <glyph glyph-name="uni030C.alt" horiz-adv-x="0" 
d="M0 1104l141 203h113l-143 -203h-111z" />
    <glyph glyph-name="uni0326.loclMAH" horiz-adv-x="0" 
 />
    </font>
</defs>
</svg>
